<svg xmlns="http://www.w3.org/2000/svg" xmlns:xlink="http://www.w3.org/1999/xlink" fill="none" version="1.1" width="72" height="72" viewBox="0 0 72 72"><g><g><g><g><rect x="25.000000953674316" y="11" width="22.5" height="33.75" rx="11.25" fill="#FFFFFF" fill-opacity="1"/></g><g transform="matrix(-1,0,0,1,85.25000190734863,0)"><rect x="42.625000953674316" y="23.625" width="13.5" height="3.375" rx="1.5" fill="#E6E5FF" fill-opacity="1"/></g><g transform="matrix(-1,0,0,1,85.25000190734863,0)"><rect x="42.625000953674316" y="30.375" width="13.5" height="3.375" rx="1.5" fill="#E6E5FF" fill-opacity="1"/></g></g><g><path d="M21.483313824768068,39.375C19.945372824768068,39.375,18.809402824768068,40.80467,19.435408824768068,42.20945C22.288373824768065,48.611580000000004,28.682463824768064,52.875,35.874693824768066,52.875C43.066893824768066,52.875,49.46099382476807,48.611580000000004,52.31399382476807,42.20945C52.93999382476807,40.80467,51.803993824768064,39.375,50.26609382476806,39.375C49.26909382476806,39.375,48.40069382476807,40.007721,47.956193824768064,40.90004C45.69519382476807,45.43779,41.037993824768066,48.375,35.874693824768066,48.375C30.711393824768066,48.375,26.054173824768068,45.43779,23.793253824768065,40.90004C23.348653824768068,40.007721,22.480263824768066,39.375,21.483313824768068,39.375" fill-rule="evenodd" fill="#FFFFFF" fill-opacity="1"/></g><g><rect x="28.99993896484375" y="57" width="15" height="5" rx="0.75" fill="#FFFFFF" fill-opacity="1"/></g><g transform="matrix(0,1,-1,0,88.99993896484375,13.00006103515625)"><rect x="37.99993896484375" y="51" width="7.875" height="3.375" rx="1.5" fill="#FFFFFF" fill-opacity="1"/></g></g></g></svg>