<svg width="52" height="82" viewBox="0 0 52 82" fill="none" xmlns="http://www.w3.org/2000/svg">
<g opacity="0.3" filter="url(#filter0_f_2275_5079)">
<path d="M4 52C4 47.5817 7.58172 44 12 44H40C44.4183 44 48 47.5817 48 52V78H4V52Z" fill="url(#paint0_linear_2275_5079)"/>
</g>
<rect x="4" width="44" height="44" rx="10" fill="url(#paint1_linear_2275_5079)"/>
<path opacity="0.5" d="M38 23.0195V30.2003C38 30.5155 37.9379 30.8276 37.8173 31.1188C37.6967 31.41 37.5199 31.6745 37.297 31.8974C37.0742 32.1203 36.8096 32.297 36.5185 32.4176C36.2273 32.5383 35.9152 32.6003 35.6001 32.6003H16.401C16.0859 32.6003 15.7738 32.5383 15.4826 32.4176C15.1915 32.297 14.9269 32.1203 14.7041 31.8974C14.4812 31.6745 14.3044 31.41 14.1838 31.1188C14.0632 30.8276 14.0012 30.5155 14.0012 30.2003V23.0195C17.4174 24.5315 21.4948 25.4003 26.0006 25.4003C30.5051 25.4003 34.5813 24.5315 38 23.0195Z" fill="white"/>
<path d="M32.6003 11C33.0776 11 33.5354 11.1896 33.873 11.5272C34.2105 11.8648 34.4002 12.3226 34.4002 12.8V15.1976H35.6001C35.9153 15.1976 36.2273 15.2597 36.5185 15.3803C36.8097 15.5009 37.0742 15.6777 37.2971 15.9005C37.5199 16.1234 37.6967 16.388 37.8173 16.6792C37.9379 16.9703 38 17.2824 38 17.5976V21.1916C34.633 22.736 30.486 23.6 26.0006 23.6C21.5152 23.6 17.367 22.7348 14 21.1916L14.0012 17.5976C14.0012 17.2824 14.0633 16.9703 14.1839 16.6792C14.3045 16.388 14.4813 16.1234 14.7041 15.9005C14.927 15.6777 15.1915 15.5009 15.4827 15.3803C15.7739 15.2597 16.0859 15.1976 16.4011 15.1976H17.601V12.8C17.601 12.3525 17.7677 11.9211 18.0685 11.5899C18.3694 11.2587 18.7828 11.0514 19.2281 11.0084L19.4009 11H32.6003ZM27.2005 18.8H24.8007C24.4948 18.8003 24.2007 18.9175 23.9783 19.1274C23.7559 19.3374 23.622 19.6243 23.6041 19.9297C23.5862 20.235 23.6855 20.5357 23.8818 20.7702C24.0781 21.0047 24.3566 21.1555 24.6603 21.1916L24.8007 21.2H27.2005C27.5188 21.2 27.824 21.0736 28.049 20.8485C28.2741 20.6235 28.4005 20.3183 28.4005 20C28.4005 19.6817 28.2741 19.3765 28.049 19.1515C27.824 18.9264 27.5188 18.8 27.2005 18.8ZM32.0003 13.4H20.0009V15.1976H32.0003V13.4Z" fill="white"/>
<defs>
<filter id="filter0_f_2275_5079" x="0" y="40" width="52" height="42" filterUnits="userSpaceOnUse" color-interpolation-filters="sRGB">
<feFlood flood-opacity="0" result="BackgroundImageFix"/>
<feBlend mode="normal" in="SourceGraphic" in2="BackgroundImageFix" result="shape"/>
<feGaussianBlur stdDeviation="2" result="effect1_foregroundBlur_2275_5079"/>
</filter>
<linearGradient id="paint0_linear_2275_5079" x1="26" y1="25" x2="26" y2="66.5" gradientUnits="userSpaceOnUse">
<stop stop-color="#0065FB"/>
<stop offset="1" stop-color="#0065FB" stop-opacity="0"/>
</linearGradient>
<linearGradient id="paint1_linear_2275_5079" x1="4" y1="0" x2="26" y2="44" gradientUnits="userSpaceOnUse">
<stop stop-color="#2CD2FF"/>
<stop offset="1" stop-color="#0065FB"/>
</linearGradient>
</defs>
</svg>
