<svg xmlns="http://www.w3.org/2000/svg" width="52" height="82" viewBox="0 0 52 82" fill="none">
  <g opacity="0.3" filter="url(#filter0_f_2275_5330)">
    <path d="M4 52C4 47.5817 7.58172 44 12 44H40C44.4183 44 48 47.5817 48 52V78H4V52Z" fill="url(#paint0_linear_2275_5330)"/>
  </g>
  <rect x="4" width="44" height="44" rx="10" fill="url(#paint1_linear_2275_5330)"/>
  <path d="M21.4242 9.15871C21.5006 9.14929 21.5776 9.17037 21.6386 9.21737C21.6995 9.26438 21.7395 9.33353 21.75 9.40987L21.7569 9.4587L21.7604 9.47614L21.7691 9.52498C21.8736 10.1563 21.9642 10.704 22.0931 11.1435C22.2324 11.6144 22.4397 12.0592 22.8386 12.4132C23.2514 12.7795 23.7269 12.9347 24.2355 13.0045C24.7163 13.0707 25.3085 13.0725 26 13.0725C26.6898 13.0725 27.2837 13.0707 27.7627 13.0027C28.2731 12.933 28.7486 12.7795 29.1614 12.4132C29.562 12.0592 29.7676 11.6144 29.9069 11.1435C30.0341 10.704 30.1264 10.1563 30.2309 9.52498L30.2396 9.47614L30.25 9.40638C30.2609 9.33048 30.3011 9.26191 30.3621 9.21555C30.4231 9.16919 30.4999 9.14876 30.5758 9.15871C31.7776 9.32092 32.7705 9.66451 33.5543 10.4494C34.3381 11.2342 34.6812 12.2283 34.8432 13.4318C35 14.5986 35 16.0863 35 17.949V25.0545C35 26.9189 35 28.4049 34.8432 29.5717C34.6812 30.7769 34.3381 31.7693 33.5543 32.5541C32.7705 33.339 31.7776 33.6826 30.5758 33.8448C29.4105 34.0017 27.9265 34.0017 26.0644 34.0017H25.9356C24.0735 34.0017 22.5895 34.0017 21.4242 33.8448C20.2224 33.6826 19.2295 33.339 18.4457 32.5541C17.6619 31.7693 17.3188 30.7769 17.1568 29.5717C17 28.4049 17 26.9189 17 25.0545V17.949C17 16.0863 17 14.5986 17.1568 13.4318C17.3188 12.2283 17.6619 11.2342 18.4457 10.4494C19.2295 9.66451 20.2224 9.32092 21.4242 9.15871ZM23.9673 30.8031C23.9673 31.0343 24.059 31.2561 24.2224 31.4197C24.3857 31.5832 24.6072 31.6751 24.8382 31.6751H27.1618C27.3928 31.6751 27.6143 31.5832 27.7776 31.4197C27.941 31.2561 28.0327 31.0343 28.0327 30.8031C28.0327 30.5718 27.941 30.35 27.7776 30.1864C27.6143 30.0229 27.3928 29.931 27.1618 29.931H24.8382C24.6072 29.931 24.3857 30.0229 24.2224 30.1864C24.059 30.35 23.9673 30.5718 23.9673 30.8031Z" fill="white"/>
  <path opacity="0.5" d="M28.3706 9.0157C28.4647 9.0157 28.5343 9.10116 28.5204 9.1936C28.4054 9.88426 28.3288 10.3273 28.2347 10.6499C28.1477 10.9534 28.0675 11.0511 28.0048 11.1069C27.9369 11.1662 27.8306 11.2325 27.5258 11.2743C27.1897 11.3214 26.7298 11.3266 26 11.3266C25.2684 11.3266 24.8103 11.3214 24.4742 11.2743C24.1676 11.2325 24.0631 11.1662 23.9951 11.1069C23.9324 11.0511 23.8541 10.9534 23.7652 10.6499C23.6694 10.3255 23.5945 9.88601 23.4796 9.19708C23.4761 9.17481 23.4774 9.15205 23.4835 9.13033C23.4895 9.10862 23.5002 9.08848 23.5148 9.07127C23.5293 9.05405 23.5474 9.04018 23.5678 9.03059C23.5881 9.021 23.6103 9.01592 23.6329 9.0157C24.3278 9 25.0942 9 25.9355 9H26.0644C26.9092 9 27.6756 9 28.3706 9.0157Z" fill="white"/>
  <defs>
    <filter id="filter0_f_2275_5330" x="0" y="40" width="52" height="42" filterUnits="userSpaceOnUse" color-interpolation-filters="sRGB">
      <feFlood flood-opacity="0" result="BackgroundImageFix"/>
      <feBlend mode="normal" in="SourceGraphic" in2="BackgroundImageFix" result="shape"/>
      <feGaussianBlur stdDeviation="2" result="effect1_foregroundBlur_2275_5330"/>
    </filter>
    <linearGradient id="paint0_linear_2275_5330" x1="26" y1="25" x2="26" y2="66.5" gradientUnits="userSpaceOnUse">
      <stop stop-color="#0065FB"/>
      <stop offset="1" stop-color="#0065FB" stop-opacity="0"/>
    </linearGradient>
    <linearGradient id="paint1_linear_2275_5330" x1="4" y1="0" x2="26" y2="44" gradientUnits="userSpaceOnUse">
      <stop stop-color="#2CD2FF"/>
      <stop offset="1" stop-color="#0065FB"/>
    </linearGradient>
  </defs>
</svg>