<svg xmlns="http://www.w3.org/2000/svg" xmlns:xlink="http://www.w3.org/1999/xlink" width="32" height="32" viewBox="0 0 32 32" fill="none"><path   fill="rgba(255, 255, 255, 1)" style="mix-blend-mode:normal" d="M16 5L12.5333 5L12.5333 4L12.5333 5L12.5333 4L12.5333 5Q11.1411 5 10.571 5.00896Q9.67934 5.02297 9.11184 5.06934Q7.97453 5.16226 7.36604 5.47231L6.91205 4.5813L7.36604 5.47231L6.91205 4.5813L7.36604 5.47231Q6.75451 5.78389 6.2692 6.2692Q5.78389 6.75451 5.47231 7.36604L4.5813 6.91205L5.47231 7.36604L4.5813 6.91205L5.47231 7.36604Q5.16226 7.97453 5.06934 9.11184Q5.02297 9.67934 5.00896 10.571Q5 11.1411 5 12.5333L4 12.5333L5 12.5333L5 19.4667L4 19.4667L5 19.4667L4 19.4667L5 19.4667Q5 20.8589 5.00896 21.429Q5.02297 22.3207 5.06934 22.8882Q5.16226 24.0255 5.47231 24.634L5.47231 24.634L5.47231 24.634Q5.78389 25.2455 6.2692 25.7308Q6.75451 26.2161 7.36604 26.5277L7.36604 26.5277L7.36604 26.5277Q7.97453 26.8377 9.11184 26.9307Q9.67937 26.977 10.571 26.991Q11.1411 27 12.5333 27L12.5333 28L12.5333 27L20.445 27L20.445 28L20.445 27L20.445 28L20.445 27Q22.226 27 22.8189 26.9663Q23.6149 26.9209 24.0592 26.7701L24.3806 27.7171L24.0592 26.7701L24.3806 27.7171L24.0592 26.7701Q25.0162 26.4454 25.7308 25.7308Q26.4454 25.0162 26.7701 24.0592L27.7171 24.3806L26.7701 24.0592L27.7171 24.3806L26.7701 24.0592Q26.9209 23.6149 26.9663 22.8189Q27 22.226 27 20.445L28 20.445L27 20.445L28 20.445L27 20.445Q27 19.3372 26.9779 18.9926Q26.9539 18.6193 26.9032 18.5127L26.9032 18.5127L26.9032 18.5127Q26.7655 18.2228 26.4848 18.0672Q26.204 17.9116 25.8852 17.9484L25.8852 17.9484L25.8852 17.9484Q25.7679 17.962 25.4387 18.1395Q25.1347 18.3034 24.1953 18.8905L23.6653 18.0425L24.1953 18.8905L20.3819 21.2739L20.3819 21.2739L20.3819 21.2739Q19.6892 21.7068 18.8988 21.9042Q18.1262 22.0971 17.3304 22.0478Q16.5345 21.9985 15.7917 21.7117Q15.0317 21.4184 14.3977 20.9033L14.3977 20.9033L14.3977 20.9033Q13.9204 20.5154 13.3382 20.3361Q12.7738 20.1623 12.1819 20.2047Q11.5899 20.2471 11.0561 20.4996Q10.5054 20.7601 10.0883 21.212L9.35346 20.5338L10.0883 21.212L8.7348 22.6783L7.2652 21.3217L8.61865 19.8555L8.61865 19.8555Q9.29916 19.1183 10.2008 18.6917Q11.0733 18.279 12.0389 18.2098Q13.0046 18.1406 13.927 18.4247Q14.8802 18.7184 15.6589 19.351L15.0283 20.1271L15.6589 19.351L15.0283 20.1271L15.6589 19.351Q16.4441 19.9891 17.454 20.0516Q18.4639 20.1142 19.3219 19.5779L19.8519 20.4259L19.3219 19.5779L19.8519 20.4259L19.3219 19.5779L23.1353 17.1945L23.1353 17.1945Q24.1291 16.5734 24.4896 16.3791Q25.1568 16.0193 25.6555 15.9617L25.7703 16.9551L25.6555 15.9617L25.7703 16.9551L25.6555 15.9617Q26.6121 15.8511 27.4543 16.3179Q28.2965 16.7847 28.7097 17.6545L27.8065 18.0836L28.7097 17.6545L27.8065 18.0836L28.7097 17.6545Q28.9252 18.1079 28.9738 18.8644Q29 19.273 29 20.445L29 20.445L29 20.445Q29 22.2829 28.963 22.9325Q28.9023 24.0001 28.6641 24.702L28.6641 24.702L28.6641 24.702Q28.1894 26.1006 27.145 27.145Q26.1006 28.1894 24.702 28.6641L24.702 28.6641L24.702 28.6641Q24.0001 28.9023 22.9325 28.963Q22.2829 29 20.445 29L20.445 29L20.445 29L12.5333 29L12.5333 29Q11.1254 29 10.5396 28.9908Q9.58209 28.9757 8.94898 28.924Q8.19131 28.8621 7.62241 28.7281Q6.98439 28.5779 6.45806 28.3097L6.91205 27.4187L6.45806 28.3097L6.91205 27.4187L6.45806 28.3097Q5.56428 27.8543 4.85499 27.145Q4.14569 26.4357 3.69029 25.5419L4.5813 25.0879L3.69029 25.5419L4.5813 25.0879L3.69029 25.5419Q3.42212 25.0156 3.27186 24.3776Q3.13789 23.8087 3.07598 23.051Q3.02426 22.4179 3.00921 21.4604Q3 20.8747 3 19.4667L3 19.4667L3 19.4667L3 12.5333L3 12.5333Q3 11.1253 3.00921 10.5396Q3.02426 9.58209 3.07598 8.94898Q3.13789 8.19132 3.27186 7.62241Q3.42211 6.98439 3.69029 6.45806L3.69029 6.45806L3.69029 6.45806Q4.14569 5.56429 4.85499 4.85499Q5.56429 4.14569 6.45806 3.69029L6.45806 3.69029L6.45806 3.69029Q6.98439 3.42211 7.62241 3.27186Q8.19132 3.13789 8.94898 3.07598Q9.58209 3.02426 10.5396 3.00921Q11.1253 3 12.5333 3L12.5333 3L12.5333 3L16 3L16 5ZM8 23C7.44772 23 7 22.5523 7 22C7 21.4477 7.44772 21 8 21C8.55228 21 9 21.4477 9 22C9 22.5523 8.55228 23 8 23ZM16 5C15.4477 5 15 4.55228 15 4C15 3.44772 15.4477 3 16 3C16.5523 3 17 3.44772 17 4C17 4.55228 16.5523 5 16 5Z"></path><path   fill="rgba(157, 255, 130, 1)" style="mix-blend-mode:normal" d="M24.3139 1.99314C24.5407 0.883774 26.1257 0.883773 26.3525 1.99314Q26.6346 3.37323 27.6306 4.36928Q28.6267 5.36533 30.0067 5.64741C31.1161 5.87415 31.1161 7.45923 30.0068 7.68597Q28.6267 7.96805 27.6306 8.9641Q26.6346 9.96015 26.3525 11.3402C26.1257 12.4496 24.5407 12.4496 24.3139 11.3402Q24.0318 9.96015 23.0358 8.9641Q22.0397 7.96806 20.6596 7.68598C19.5503 7.45923 19.5503 5.87415 20.6596 5.64741Q22.0397 5.36533 23.0358 4.36928Q24.0318 3.37323 24.3139 1.99314L24.3139 1.99314ZM26.2734 2.39365Q26.0743 3.36796 25.6016 4.24033Q25.1383 5.09519 24.45 5.78352Q23.7617 6.47184 22.9068 6.93507Q22.0345 7.40779 21.0602 7.60693C22.0835 7.39777 22.0835 5.93561 21.0602 5.72645Q22.0345 5.9256 22.9068 6.39831Q23.7617 6.86154 24.45 7.54987Q25.1383 8.23819 25.6016 9.09305Q26.0743 9.96542 26.2734 10.9397C26.0643 9.91641 24.6021 9.91639 24.393 10.9397Q24.5921 9.96542 25.0648 9.09305Q25.528 8.23819 26.2164 7.54987Q26.9047 6.86154 27.7596 6.39831Q28.6319 5.9256 29.6062 5.72646C28.5829 5.93561 28.5829 7.39777 29.6062 7.60693Q28.6319 7.40779 27.7596 6.93507Q26.9047 6.47184 26.2164 5.78352Q25.528 5.09519 25.0648 4.24033Q24.5921 3.36796 24.393 2.39365C24.6021 3.41698 26.0643 3.41698 26.2734 2.39365L26.2734 2.39365Z"></path><path   fill="rgba(255, 255, 255, 1)" style="mix-blend-mode:normal" d="M13.3333 12L13.3333 12.0067L10.6667 12.0067L10.6667 12L13.3333 12ZM12 13.3333C11.2636 13.3333 10.6667 12.7364 10.6667 12C10.6667 11.2636 11.2636 10.6667 12 10.6667C12.7364 10.6667 13.3333 11.2636 13.3333 12C13.3333 12.7364 12.7364 13.3333 12 13.3333ZM12 13.34C11.2636 13.34 10.6667 12.743 10.6667 12.0067C10.6667 11.2703 11.2636 10.6733 12 10.6733C12.7364 10.6733 13.3333 11.2703 13.3333 12.0067C13.3333 12.743 12.7364 13.34 12 13.34Z"></path></svg>