<svg xmlns="http://www.w3.org/2000/svg" xmlns:xlink="http://www.w3.org/1999/xlink" width="32" height="32" viewBox="0 0 32 32" fill="none"><path   fill="rgba(255, 255, 255, 1)" style="mix-blend-mode:normal" d="M24.0002 12.3334L21.1153 12.3334L21.1153 11.3334L21.1153 12.3334L21.1153 11.3334L21.1153 12.3334Q19.9906 12.3334 19.5782 12.3068Q18.867 12.2611 18.3591 12.0789L18.3591 12.0789L18.3591 12.0789Q17.4058 11.737 16.7028 11.008L16.7028 11.008L16.7028 11.008Q16.3283 10.6196 15.9947 9.98979Q15.8013 9.62458 15.3398 8.599L16.2517 8.18863L15.3398 8.599L15.17 8.22177L15.17 8.22177L15.17 8.22177Q14.7349 7.25477 14.5715 6.94636Q14.3699 6.56574 14.1912 6.38034L14.911 5.68619L14.1912 6.38034L14.911 5.68619L14.1912 6.38034Q13.8126 5.9878 13.2993 5.80369L13.2993 5.80369L13.2993 5.80369Q13.0569 5.71674 12.6271 5.68909Q12.2788 5.66669 11.2184 5.66669L11.2184 5.66669L11.2184 4.66669L11.2184 5.66669L9.66683 5.66669L9.66683 4.66669L9.66683 5.66669L9.66683 4.66669L9.66683 5.66669Q8.34718 5.66669 8.031 5.71359L8.031 5.71359L8.031 5.71359Q7.33124 5.81739 6.70356 6.1365Q6.09032 6.44827 5.6027 6.93589Q5.11508 7.42351 4.80331 8.03675Q4.4842 8.66443 4.3804 9.36419L4.3804 9.36419L4.3804 9.36419Q4.3335 9.68037 4.3335 11L3.3335 11L4.3335 11L4.3335 18.8L3.3335 18.8L4.3335 18.8L3.3335 18.8L4.3335 18.8Q4.3335 20.1923 4.34246 20.7623Q4.35647 21.654 4.40284 22.2215Q4.49576 23.3588 4.8058 23.9673L3.91479 24.4213L4.8058 23.9673L3.91479 24.4213L4.8058 23.9673Q5.11739 24.5788 5.6027 25.0641Q6.08801 25.5495 6.69954 25.861L6.69954 25.861L6.69954 25.861Q7.30803 26.1711 8.44534 26.264Q9.01286 26.3104 9.90454 26.3244Q10.4746 26.3334 11.8668 26.3334L11.8668 27.3334L11.8668 26.3334L16.0002 26.3334L16.0002 28.3334L11.8668 28.3334L11.8668 28.3334Q10.4589 28.3334 9.8731 28.3241Q8.91558 28.3091 8.28247 28.2574Q7.52481 28.1955 6.95591 28.0615Q6.31788 27.9112 5.79156 27.6431L6.24555 26.7521L5.79156 27.6431L6.24555 26.7521L5.79156 27.6431Q4.89778 27.1877 4.18849 26.4784Q3.47919 25.7691 3.02379 24.8753L3.02379 24.8753L3.02379 24.8753Q2.75561 24.349 2.60536 23.7109Q2.47138 23.142 2.40948 22.3844Q2.35775 21.7513 2.3427 20.7937Q2.3335 20.208 2.3335 18.8L2.3335 18.8L2.3335 18.8L2.3335 11L2.3335 11Q2.3335 10.1744 2.34104 9.88064Q2.35343 9.39848 2.40204 9.07073L3.39122 9.21746L2.40204 9.07073L3.39122 9.21746L2.40204 9.07073Q2.55367 8.04858 3.02049 7.13036Q3.47623 6.23394 4.18849 5.52168Q4.90074 4.80942 5.79717 4.35368Q6.71539 3.88686 7.73754 3.73524L7.88427 4.72441L7.73754 3.73524L7.88427 4.72441L7.73754 3.73524Q8.06528 3.68662 8.54745 3.67423Q8.84116 3.66669 9.66683 3.66669L9.66683 3.66669L9.66683 3.66669L11.2184 3.66669L11.2184 3.66669L11.2184 3.66669Q12.343 3.66669 12.7554 3.69321Q13.4667 3.73896 13.9745 3.92112L13.6369 4.86241L13.9745 3.92112L13.6369 4.86241L13.9745 3.92112Q14.9278 4.26304 15.6308 4.99204L15.6308 4.99204L15.6308 4.99204Q16.0053 5.38043 16.3389 6.01025Q16.5324 6.37545 16.9939 7.40104L16.082 7.81141L16.9939 7.40104L16.082 7.81141L16.9939 7.40104L17.1636 7.77827L17.1636 7.77827Q17.5988 8.74525 17.7621 9.05368Q17.9637 9.43431 18.1425 9.6197L17.4227 10.3139L18.1425 9.6197L17.4227 10.3139L18.1425 9.6197Q18.521 10.0122 19.0343 10.1964L18.6967 11.1376L19.0343 10.1964L18.6967 11.1376L19.0343 10.1963Q19.2768 10.2833 19.7066 10.311Q20.0549 10.3334 21.1153 10.3334L21.1153 10.3334L21.1153 10.3334L24.0002 10.3334L24.0002 12.3334ZM27.6668 16.6667L27.6668 14.3334L28.6668 14.3334L27.6668 14.3334L28.6668 14.3334L27.6668 14.3334Q27.6668 11.923 27.6057 11.1262Q27.5239 10.058 27.2508 9.48062L27.2508 9.48061L27.2508 9.48061Q26.9293 8.8009 26.3976 8.26922Q25.8659 7.73754 25.1862 7.41607L25.1862 7.41607L25.1862 7.41607Q24.6089 7.14299 23.5406 7.0611Q22.7438 7.00002 20.3335 7.00002L20.3335 5.00002Q21.6526 5.00002 22.2017 5.00813Q23.0991 5.02139 23.6935 5.06695Q25.1301 5.17708 26.0413 5.60809L25.6138 6.51208L26.0413 5.60809L25.6138 6.51208L26.0413 5.60809Q27.0348 6.07794 27.8118 6.85501Q28.5889 7.63207 29.0588 8.6255L28.1548 9.05306L29.0588 8.6255L28.1548 9.05306L29.0588 8.6255Q29.4898 9.53679 29.5999 10.9734Q29.6455 11.5677 29.6587 12.4652Q29.6668 13.0142 29.6668 14.3334L29.6668 14.3334L29.6668 14.3334L29.6668 16.6667L27.6668 16.6667ZM24.0002 12.3334C23.4479 12.3334 23.0002 11.8856 23.0002 11.3334C23.0002 10.7811 23.4479 10.3334 24.0002 10.3334C24.5524 10.3334 25.0002 10.7811 25.0002 11.3334C25.0002 11.8856 24.5524 12.3334 24.0002 12.3334ZM28.6668 17.6667C28.1145 17.6667 27.6668 17.219 27.6668 16.6667C27.6668 16.1144 28.1145 15.6667 28.6668 15.6667C29.2191 15.6667 29.6668 16.1144 29.6668 16.6667C29.6668 17.219 29.2191 17.6667 28.6668 17.6667ZM16.0002 28.3334C15.4479 28.3334 15.0002 27.8856 15.0002 27.3334C15.0002 26.7811 15.4479 26.3334 16.0002 26.3334C16.5524 26.3334 17.0002 26.7811 17.0002 27.3334C17.0002 27.8856 16.5524 28.3334 16.0002 28.3334ZM20.3335 7.00002C19.7812 7.00002 19.3335 6.55231 19.3335 6.00002C19.3335 5.44774 19.7812 5.00002 20.3335 5.00002C20.8858 5.00002 21.3335 5.44774 21.3335 6.00002C21.3335 6.55231 20.8858 7.00002 20.3335 7.00002Z"></path><path   fill="rgba(157, 255, 130, 1)" style="mix-blend-mode:normal" d="M22.9809 17.9931C23.2077 16.8838 24.7927 16.8838 25.0195 17.9932Q25.3015 19.3732 26.2976 20.3693Q27.2936 21.3653 28.6737 21.6474C29.7831 21.8742 29.7831 23.4592 28.6737 23.686Q27.2936 23.968 26.2976 24.9641Q25.3015 25.9601 25.0195 27.3402C24.7927 28.4496 23.2077 28.4496 22.9809 27.3402Q22.6988 25.9601 21.7028 24.9641Q20.7067 23.968 19.3266 23.686C18.2173 23.4592 18.2173 21.8742 19.3266 21.6474Q20.7067 21.3653 21.7028 20.3693Q22.6988 19.3732 22.9809 17.9931L22.9809 17.9931ZM24.9404 18.3936Q24.7413 19.368 24.2686 20.2403Q23.8053 21.0952 23.117 21.7835Q22.4287 22.4718 21.5738 22.9351Q20.7014 23.4078 19.7271 23.6069C20.7505 23.3978 20.7505 21.9356 19.7271 21.7265Q20.7015 21.9256 21.5738 22.3983Q22.4287 22.8616 23.117 23.5499Q23.8053 24.2382 24.2686 25.0931Q24.7413 25.9654 24.9404 26.9397C24.7312 25.9164 23.2691 25.9164 23.06 26.9397Q23.2591 25.9654 23.7318 25.0931Q24.1951 24.2382 24.8834 23.5499Q25.5717 22.8616 26.4266 22.3983Q27.2989 21.9256 28.2733 21.7265C27.2499 21.9356 27.2499 23.3977 28.2732 23.6069Q27.2989 23.4078 26.4266 22.9351Q25.5717 22.4718 24.8834 21.7835Q24.1951 21.0952 23.7318 20.2403Q23.2591 19.368 23.06 18.3936C23.2691 19.417 24.7312 19.417 24.9404 18.3937L24.9404 18.3936Z"></path><path    style="mix-blend-mode:normal" fill="#9DFF82"  d="M15.5624 15.4739C15.6597 14.9977 16.3401 14.9977 16.4374 15.4739C16.6524 16.5256 17.4743 17.3475 18.526 17.5625C19.0022 17.6598 19.0022 18.3402 18.526 18.4375C17.4743 18.6525 16.6524 19.4744 16.4374 20.5261C16.3401 21.0022 15.6597 21.0022 15.5624 20.5261C15.3474 19.4744 14.5255 18.6525 13.4738 18.4375C12.9977 18.3402 12.9977 17.6598 13.4738 17.5625C14.5255 17.3475 15.3474 16.5256 15.5624 15.4739Z"></path></svg>