<svg xmlns="http://www.w3.org/2000/svg" xmlns:xlink="http://www.w3.org/1999/xlink" width="32" height="32" viewBox="0 0 32 32" fill="none"><path   fill="rgba(157, 255, 130, 1)" style="mix-blend-mode:normal" d="M20.9754 17.3541C21.2034 16.2386 22.7972 16.2386 23.0252 17.3541Q23.3562 18.9734 24.5249 20.1421Q25.6936 21.3108 27.3129 21.6417C28.4284 21.8697 28.4284 23.4636 27.3129 23.6916Q25.6936 24.0226 24.5249 25.1913Q23.3562 26.36 23.0252 27.9793C22.7972 29.0948 21.2034 29.0948 20.9754 27.9793Q20.6444 26.36 19.4757 25.1913Q18.307 24.0226 16.6877 23.6916C15.5722 23.4636 15.5722 21.8697 16.6877 21.6417Q18.307 21.3108 19.4757 20.1421Q20.6444 18.9734 20.9754 17.3541L20.9754 17.3541ZM22.9349 17.7546Q22.7115 18.8473 22.1814 19.8256Q21.6619 20.7843 20.8899 21.5563Q20.118 22.3283 19.1592 22.8478Q18.1809 23.3779 17.0882 23.6013C18.1054 23.3933 18.1054 21.94 17.0882 21.7321Q18.1809 21.9554 19.1592 22.4855Q20.118 23.0051 20.8899 23.777Q21.6619 24.549 22.1814 25.5077Q22.7115 26.486 22.9349 27.5787C22.727 26.5616 21.2736 26.5616 21.0657 27.5788Q21.289 26.486 21.8192 25.5077Q22.3387 24.549 23.1106 23.777Q23.8826 23.0051 24.8413 22.4855Q25.8197 21.9554 26.9124 21.7321C25.8952 21.94 25.8952 23.3933 26.9124 23.6013Q25.8197 23.3779 24.8413 22.8478Q23.8826 22.3283 23.1106 21.5563Q22.3387 20.7843 21.8192 19.8256Q21.289 18.8473 21.0657 17.7546C21.2736 18.7718 22.727 18.7718 22.9349 17.7546L22.9349 17.7546Z"></path><path    style="mix-blend-mode:normal" fill="#9DFF82"  d="M27.6251 14.5014C27.7085 14.0933 28.2917 14.0933 28.3752 14.5014C28.5594 15.4029 29.2639 16.1074 30.1654 16.2916C30.5735 16.3751 30.5735 16.9582 30.1654 17.0417C29.2639 17.2259 28.5594 17.9304 28.3752 18.8319C28.2917 19.24 27.7085 19.24 27.6251 18.8319C27.4409 17.9304 26.7364 17.2259 25.8349 17.0417C25.4268 16.9582 25.4268 16.3751 25.8349 16.2916C26.7364 16.1074 27.4409 15.4029 27.6251 14.5014Z"></path><path   fill="rgba(255, 255, 255, 1)" style="mix-blend-mode:normal" d="M9.66684 7.33337C9.66684 4.57196 11.9054 2.33338 14.6668 2.33338L14.6668 3.33337L14.6668 2.33338C17.4282 2.33338 19.6668 4.57196 19.6668 7.33337L18.6668 7.33337L19.6668 7.33337L19.6668 10L18.6668 10L19.6668 10C19.6668 12.7615 17.4282 15 14.6668 15L14.6668 14L14.6668 15C11.9054 15 9.66684 12.7615 9.66684 10L10.6668 10L9.66684 10L9.66684 7.33337L10.6668 7.33337L9.66684 7.33337ZM11.6668 7.33337L11.6668 7.33337L11.6668 10L11.6668 10C11.6668 11.6569 13.01 13.0001 14.6668 13.0001L14.6668 13.0001C16.3237 13.0001 17.6668 11.6569 17.6668 10L17.6668 10L17.6668 7.33337L17.6668 7.33337C17.6668 5.67651 16.3237 4.33336 14.6668 4.33336L14.6668 4.33336C13.01 4.33336 11.6668 5.67651 11.6668 7.33337ZM15.3335 29M15.3335 29Q12.7989 29 10.4778 28.5637Q8.20959 28.1373 6.44208 27.3517Q4.59983 26.533 3.55213 25.4321Q2.33351 24.1516 2.33351 22.6667L3.3335 22.6667L2.33351 22.6667L3.3335 22.6667L2.33351 22.6667Q2.33351 21.1819 3.55213 19.9014Q4.59983 18.8004 6.44208 17.9817Q8.20959 17.1961 10.4778 16.7697Q12.7989 16.3334 15.3335 16.3334L15.3335 18.3334Q12.9853 18.3334 10.8473 18.7353Q8.80852 19.1185 7.25435 19.8093Q5.7749 20.4668 5.0009 21.2801Q4.33349 21.9814 4.33349 22.6667L4.33349 22.6667L4.33349 22.6667Q4.33349 23.352 5.0009 24.0533Q5.7749 24.8666 7.25435 25.5241Q8.80852 26.2149 10.8473 26.5981Q12.9853 27.0001 15.3335 27.0001L15.3335 29ZM15.3335 29C14.7812 29 14.3335 28.5523 14.3335 28C14.3335 27.4478 14.7812 27.0001 15.3335 27.0001C15.8858 27.0001 16.3335 27.4478 16.3335 28C16.3335 28.5523 15.8858 29 15.3335 29ZM15.3335 18.3334C14.7812 18.3334 14.3335 17.8857 14.3335 17.3334C14.3335 16.7811 14.7812 16.3334 15.3335 16.3334C15.8858 16.3334 16.3335 16.7811 16.3335 17.3334C16.3335 17.8857 15.8858 18.3334 15.3335 18.3334Z"></path></svg>