<svg xmlns="http://www.w3.org/2000/svg" xmlns:xlink="http://www.w3.org/1999/xlink" width="32" height="32" viewBox="0 0 32 32" fill="none"><path    style="mix-blend-mode:normal" fill="#9DFF82"  d="M22.7082 5.05792C22.8473 4.37765 23.8192 4.37765 23.9583 5.05792C24.2654 6.56035 25.4395 7.73449 26.9419 8.04158C27.6222 8.18062 27.6222 9.15259 26.9419 9.29163C25.4395 9.59871 24.2654 10.7729 23.9583 12.2753C23.8192 12.9556 22.8473 12.9556 22.7082 12.2753C22.4011 10.7729 21.227 9.59871 19.7246 9.29163C19.0443 9.15259 19.0443 8.18062 19.7246 8.04158C21.227 7.73449 22.4011 6.56035 22.7082 5.05792Z"></path><path    style="mix-blend-mode:normal" fill="#9DFF82"  d="M27.6249 1.16806C27.7083 0.759899 28.2915 0.759899 28.3749 1.16806C28.5592 2.06952 29.2637 2.774 30.1651 2.95825C30.5733 3.04168 30.5733 3.62486 30.1651 3.70829C29.2637 3.89254 28.5592 4.59702 28.3749 5.49848C28.2915 5.90664 27.7083 5.90664 27.6249 5.49848C27.4406 4.59702 26.7362 3.89254 25.8347 3.70829C25.4265 3.62486 25.4265 3.04168 25.8347 2.95825C26.7362 2.774 27.4406 2.06952 27.6249 1.16806Z"></path><path   fill="rgba(255, 255, 255, 1)" style="mix-blend-mode:normal" d="M18.8782 5.69002M18.8782 5.69002Q17.5284 5 16 5L16 4L16 5C12.5022 5 9.66667 7.83553 9.66667 11.3333L8.66667 11.3333L9.66667 11.3333L9.66667 13.3333L8.66667 13.3333L9.66667 13.3333C9.66667 16.8311 12.5022 19.6667 16 19.6667L16 20.6667L16 19.6667L16 20.6667L16 19.6667Q17.0697 19.6667 18.0698 19.321Q19.0366 18.9869 19.8521 18.361Q20.6598 17.7411 21.2337 16.9011Q21.8155 16.0494 22.095 15.0612L24.0195 15.6055Q23.6511 16.908 22.885 18.0293Q22.1309 19.1331 21.0698 19.9475Q19.9967 20.7711 18.723 21.2113Q17.4055 21.6667 16 21.6667L16 21.6667L16 21.6667C11.3976 21.6667 7.66667 17.9357 7.66667 13.3333L7.66667 13.3333L7.66667 11.3333L7.66667 11.3333C7.66667 6.73096 11.3976 3 16 3L16 3Q18.0099 3 19.7885 3.90921L18.8782 5.69002ZM6.75258 18.6748L7.90722 19.9944L7.90722 19.9944L7.90722 19.9944Q9.43868 21.7447 11.5565 22.7057Q13.6743 23.6667 16 23.6667L16 24.6667L16 23.6667L16 24.6667L16 23.6667Q18.3257 23.6667 20.4435 22.7057Q22.5613 21.7447 24.0928 19.9944L24.0928 19.9944L25.2474 18.6748L26.7526 19.9918L25.5979 21.3114L24.8454 20.6529L25.5979 21.3114Q23.7816 23.3872 21.2699 24.5269Q18.7582 25.6667 16 25.6667L16 25.6667L16 25.6667Q13.2418 25.6667 10.7301 24.5269Q8.21836 23.3872 6.40207 21.3114L7.15464 20.6529L6.40207 21.3114L7.15464 20.6529L6.40207 21.3114L5.24742 19.9918L6.75258 18.6748ZM17 25.3333L17 28.6667L15 28.6667L15 25.3333L17 25.3333ZM13.3333 28.3333L18.6667 28.3333L18.6667 30.3333L13.3333 30.3333L13.3333 28.3333ZM19.3333 5.79961C18.781 5.79961 18.3333 5.3519 18.3333 4.79961C18.3333 4.24733 18.781 3.79961 19.3333 3.79961C19.8856 3.79961 20.3333 4.24733 20.3333 4.79961C20.3333 5.3519 19.8856 5.79961 19.3333 5.79961ZM23.0573 16.3333C22.505 16.3333 22.0573 15.8856 22.0573 15.3333C22.0573 14.781 22.505 14.3333 23.0573 14.3333C23.6096 14.3333 24.0573 14.781 24.0573 15.3333C24.0573 15.8856 23.6096 16.3333 23.0573 16.3333ZM6 20.3333C5.44772 20.3333 5 19.8856 5 19.3333C5 18.781 5.44772 18.3333 6 18.3333C6.55228 18.3333 7 18.781 7 19.3333C7 19.8856 6.55228 20.3333 6 20.3333ZM26 20.3333C25.4477 20.3333 25 19.8856 25 19.3333C25 18.781 25.4477 18.3333 26 18.3333C26.5523 18.3333 27 18.781 27 19.3333C27 19.8856 26.5523 20.3333 26 20.3333ZM16 26.3333C15.4477 26.3333 15 25.8856 15 25.3333C15 24.781 15.4477 24.3333 16 24.3333C16.5523 24.3333 17 24.781 17 25.3333C17 25.8856 16.5523 26.3333 16 26.3333ZM16 29.6667C15.4477 29.6667 15 29.219 15 28.6667C15 28.1144 15.4477 27.6667 16 27.6667C16.5523 27.6667 17 28.1144 17 28.6667C17 29.219 16.5523 29.6667 16 29.6667ZM13.3333 30.3333C12.781 30.3333 12.3333 29.8856 12.3333 29.3333C12.3333 28.781 12.781 28.3333 13.3333 28.3333C13.8856 28.3333 14.3333 28.781 14.3333 29.3333C14.3333 29.8856 13.8856 30.3333 13.3333 30.3333ZM18.6667 30.3333C18.1144 30.3333 17.6667 29.8856 17.6667 29.3333C17.6667 28.781 18.1144 28.3333 18.6667 28.3333C19.219 28.3333 19.6667 28.781 19.6667 29.3333C19.6667 29.8856 19.219 30.3333 18.6667 30.3333Z"></path></svg>