<svg xmlns="http://www.w3.org/2000/svg" xmlns:xlink="http://www.w3.org/1999/xlink" width="32" height="32" viewBox="0 0 32 32" fill="none"><path    style="mix-blend-mode:normal" fill="#9DFF82"  d="M24.0417 3.05793C24.1807 2.37766 25.1527 2.37766 25.2918 3.05793C25.5988 4.56036 26.773 5.7345 28.2754 6.04159C28.9557 6.18063 28.9557 7.1526 28.2754 7.29164C26.773 7.59873 25.5988 8.77287 25.2918 10.2753C25.1527 10.9556 24.1807 10.9556 24.0417 10.2753C23.7346 8.77287 22.5605 7.59873 21.0581 7.29164C20.3778 7.1526 20.3778 6.18063 21.0581 6.04159C22.5605 5.7345 23.7346 4.56036 24.0417 3.05793Z"></path><path   fill="rgba(255, 255, 255, 1)" style="mix-blend-mode:normal" d="M11.9998 13.3333C11.9998 11.1242 13.7907 9.33329 15.9998 9.33329L15.9998 10.3333L15.9998 9.33329C18.209 9.33329 19.9998 11.1242 19.9998 13.3333L18.9998 13.3333L19.9998 13.3333C19.9998 15.5424 18.209 17.3333 15.9998 17.3333L15.9998 16.3333L15.9998 17.3333C13.7907 17.3333 11.9998 15.5424 11.9998 13.3333L12.9998 13.3333L11.9998 13.3333ZM13.9998 13.3333L13.9998 13.3333C13.9998 14.4379 14.8953 15.3333 15.9998 15.3333L15.9998 15.3333C17.1044 15.3333 17.9998 14.4379 17.9998 13.3333L17.9998 13.3333C17.9998 12.2287 17.1044 11.3333 15.9998 11.3333L15.9998 11.3333C14.8953 11.3333 13.9998 12.2287 13.9998 13.3333ZM5.93545 23.9843C11.378 18.153 20.6216 18.153 26.0642 23.9843L24.6021 25.3489C19.9502 20.3648 12.0495 20.3648 7.39756 25.3489L5.93545 23.9843ZM19.0839 4.05512M19.0839 4.05512Q17.5745 3.66663 15.9998 3.66663L15.9998 2.66663L15.9998 3.66663C9.18833 3.66663 3.6665 9.18845 3.6665 16L2.6665 16L3.6665 16C3.6665 22.8115 9.18833 28.3333 15.9998 28.3333L15.9998 29.3333L15.9998 28.3333C22.8113 28.3333 28.3332 22.8115 28.3332 16L29.3332 16L28.3332 16L29.3332 16L28.3332 16Q28.3332 13.4148 27.3074 11.067L29.1401 10.2663Q30.3332 12.997 30.3332 16L30.3332 16L30.3332 16C30.3332 23.916 23.9159 30.3333 15.9998 30.3333L15.9998 30.3333C8.08376 30.3333 1.6665 23.916 1.6665 16L1.6665 16C1.6665 8.08388 8.08376 1.66663 15.9998 1.66663L15.9998 1.66663Q17.8278 1.66663 19.5824 2.11825L19.0839 4.05512ZM6.6665 25.6666C6.11422 25.6666 5.6665 25.2189 5.6665 24.6666C5.6665 24.1143 6.11422 23.6666 6.6665 23.6666C7.21879 23.6666 7.6665 24.1143 7.6665 24.6666C7.6665 25.2189 7.21879 25.6666 6.6665 25.6666ZM25.3332 25.6666C24.7809 25.6666 24.3332 25.2189 24.3332 24.6666C24.3332 24.1143 24.7809 23.6666 25.3332 23.6666C25.8855 23.6666 26.3332 24.1143 26.3332 24.6666C26.3332 25.2189 25.8855 25.6666 25.3332 25.6666ZM19.3332 4.08668C18.7809 4.08668 18.3332 3.63897 18.3332 3.08668C18.3332 2.5344 18.7809 2.08668 19.3332 2.08668C19.8855 2.08668 20.3332 2.5344 20.3332 3.08668C20.3332 3.63897 19.8855 4.08668 19.3332 4.08668ZM28.2237 11.6666C27.6714 11.6666 27.2237 11.2189 27.2237 10.6666C27.2237 10.1143 27.6714 9.66663 28.2237 9.66663C28.776 9.66663 29.2237 10.1143 29.2237 10.6666C29.2237 11.2189 28.776 11.6666 28.2237 11.6666Z"></path></svg>