<svg xmlns="http://www.w3.org/2000/svg" xmlns:xlink="http://www.w3.org/1999/xlink" width="32" height="32" viewBox="0 0 32 32" fill="none"><path    style="mix-blend-mode:normal" fill="#F0FFD1"  d="M8.70824 12.3913C8.84728 11.7111 9.81925 11.7111 9.95829 12.3913C10.2654 13.8938 11.4395 15.0679 12.9419 15.375C13.6222 15.514 13.6222 16.486 12.9419 16.625C11.4395 16.9321 10.2654 18.1063 9.95829 19.6087C9.81925 20.289 8.84728 20.289 8.70824 19.6087C8.40115 18.1063 7.22701 16.9321 5.72458 16.625C5.04431 16.486 5.04431 15.514 5.72458 15.375C7.22701 15.0679 8.40115 13.8938 8.70824 12.3913Z"></path><path    style="mix-blend-mode:normal" fill="#F0FFD1"  d="M4.95825 7.83481C5.04167 7.42665 5.62486 7.42665 5.70828 7.83481C5.89253 8.73627 6.59701 9.44075 7.49848 9.625C7.90663 9.70843 7.90663 10.2916 7.49848 10.375C6.59701 10.5593 5.89253 11.2638 5.70828 12.1652C5.62486 12.5734 5.04167 12.5734 4.95825 12.1652C4.774 11.2638 4.06951 10.5593 3.16805 10.375C2.75989 10.2916 2.75989 9.70843 3.16805 9.625C4.06951 9.44075 4.774 8.73627 4.95825 7.83481Z"></path><path   fill="rgba(255, 255, 255, 1)" style="mix-blend-mode:normal" d="M16.3333 4.66663L16.3333 27.3333L18.3333 27.3333L18.3333 4.66662L16.3333 4.66663ZM10.9999 10L11 11.3333L13 11.3332L12.9999 9.99991L10.9999 10ZM10.9999 20.6667L11 22L13 21.9999L12.9999 20.6666L10.9999 20.6667ZM21.6666 9.99997L21.6667 22L23.6667 22L23.6666 9.99995L21.6666 9.99997ZM26.9999 14.6667L27 17.3333L29 17.3333L28.9999 14.6666L26.9999 14.6667ZM17.3333 5.66663C17.8856 5.66663 18.3333 5.21891 18.3333 4.66663C18.3333 4.11434 17.8856 3.66663 17.3333 3.66663C16.781 3.66663 16.3333 4.11434 16.3333 4.66663C16.3333 5.21891 16.781 5.66663 17.3333 5.66663ZM17.3333 28.3333C17.8856 28.3333 18.3333 27.8856 18.3333 27.3333C18.3333 26.781 17.8856 26.3333 17.3333 26.3333C16.781 26.3333 16.3333 26.781 16.3333 27.3333C16.3333 27.8856 16.781 28.3333 17.3333 28.3333ZM11.9999 11C12.5522 11 12.9999 10.5522 12.9999 9.99996C12.9999 9.44767 12.5522 8.99996 11.9999 8.99996C11.4476 8.99996 10.9999 9.44767 10.9999 9.99996C10.9999 10.5522 11.4476 11 11.9999 11ZM12 12.3333C12.5523 12.3333 13 11.8856 13 11.3333C13 10.781 12.5523 10.3333 12 10.3333C11.4477 10.3333 11 10.781 11 11.3333C11 11.8856 11.4477 12.3333 12 12.3333ZM11.9999 21.6666C12.5522 21.6666 12.9999 21.2189 12.9999 20.6666C12.9999 20.1143 12.5522 19.6666 11.9999 19.6666C11.4476 19.6666 10.9999 20.1143 10.9999 20.6666C10.9999 21.2189 11.4476 21.6666 11.9999 21.6666ZM12 23C12.5523 23 13 22.5522 13 22C13 21.4477 12.5523 21 12 21C11.4477 21 11 21.4477 11 22C11 22.5522 11.4477 23 12 23ZM22.6666 11C23.2189 11 23.6666 10.5522 23.6666 9.99996C23.6666 9.44767 23.2189 8.99996 22.6666 8.99996C22.1143 8.99996 21.6666 9.44767 21.6666 9.99996C21.6666 10.5522 22.1143 11 22.6666 11ZM22.6667 23C23.219 23 23.6667 22.5522 23.6667 22C23.6667 21.4477 23.219 21 22.6667 21C22.1144 21 21.6667 21.4477 21.6667 22C21.6667 22.5522 22.1144 23 22.6667 23ZM27.9999 15.6666C28.5522 15.6666 28.9999 15.2189 28.9999 14.6666C28.9999 14.1143 28.5522 13.6666 27.9999 13.6666C27.4476 13.6666 26.9999 14.1143 26.9999 14.6666C26.9999 15.2189 27.4476 15.6666 27.9999 15.6666ZM28 18.3333C28.5523 18.3333 29 17.8856 29 17.3333C29 16.781 28.5523 16.3333 28 16.3333C27.4477 16.3333 27 16.781 27 17.3333C27 17.8856 27.4477 18.3333 28 18.3333Z"></path></svg>