<svg xmlns="http://www.w3.org/2000/svg" xmlns:xlink="http://www.w3.org/1999/xlink" width="32" height="32" viewBox="0 0 32 32" fill="none"><path   fill="rgba(157, 255, 130, 1)" style="mix-blend-mode:normal" d="M18.2973 12.076C18.5278 10.9482 20.1392 10.9482 20.3697 12.076Q20.5819 13.1144 21.0853 14.0434Q21.5788 14.9541 22.3124 15.6877Q23.046 16.4213 23.9568 16.9148Q24.8858 17.4182 25.9242 17.6305C27.0519 17.861 27.0519 19.4724 25.9242 19.7029Q24.8858 19.9151 23.9568 20.4185Q23.046 20.912 22.3124 21.6456Q21.5788 22.3792 21.0853 23.2899Q20.5819 24.219 20.3697 25.2574C20.1392 26.3851 18.5278 26.3851 18.2973 25.2574Q18.085 24.219 17.5816 23.2899Q17.0881 22.3792 16.3545 21.6456Q15.6209 20.912 14.7102 20.4185Q13.7812 19.9151 12.7428 19.7029C11.615 19.4724 11.615 17.861 12.7428 17.6305Q13.7812 17.4182 14.7102 16.9148Q15.6209 16.4213 16.3545 15.6877Q17.0881 14.9541 17.5816 14.0434Q18.085 13.1144 18.2973 12.076L18.2973 12.076ZM20.2568 12.4765Q19.985 13.806 19.3401 14.9963Q18.708 16.1627 17.7687 17.1019Q16.8295 18.0412 15.6631 18.6732Q14.4728 19.3182 13.1433 19.59C14.1482 19.3846 14.1482 17.9488 13.1433 17.7434Q14.4728 18.0151 15.6631 18.6601Q16.8295 19.2922 17.7687 20.2314Q18.708 21.1707 19.3401 22.3371Q19.985 23.5274 20.2568 24.8568C20.0514 23.852 18.6156 23.852 18.4102 24.8568Q18.6819 23.5274 19.3269 22.3371Q19.959 21.1707 20.8982 20.2314Q21.8375 19.2922 23.0039 18.6601Q24.1942 18.0151 25.5237 17.7434C24.5188 17.9488 24.5188 19.3846 25.5237 19.59Q24.1942 19.3182 23.0039 18.6732Q21.8375 18.0412 20.8982 17.1019Q19.959 16.1627 19.3269 14.9963Q18.6819 13.806 18.4102 12.4765C18.6156 13.4814 20.0514 13.4814 20.2568 12.4765L20.2568 12.4765Z"></path><path    style="mix-blend-mode:normal" fill="#9DFF82"  d="M25.6584 5.53752C25.826 4.82474 26.8405 4.82473 27.008 5.53751L27.0243 5.60652C27.3945 7.18156 28.6663 8.38532 30.2593 8.66845C31.0021 8.80046 31.0021 9.86609 30.2593 9.9981C28.6663 10.2812 27.3945 11.485 27.0243 13.06L27.008 13.129C26.8405 13.8418 25.826 13.8418 25.6584 13.129L25.6422 13.06C25.272 11.485 24.0002 10.2812 22.4072 9.9981C21.6644 9.86609 21.6644 8.80046 22.4072 8.66845C24.0002 8.38532 25.272 7.18156 25.6422 5.60652L25.6584 5.53752Z"></path><path   fill="rgba(255, 255, 255, 1)" style="mix-blend-mode:normal" d="M9.00016 6L9.00016 26L7.00016 26L7.00016 6L9.00016 6ZM5.3335 5L10.6668 5L10.6668 7L5.3335 7L5.3335 5ZM5.3335 25L10.6668 25L10.6668 27L5.3335 27L5.3335 25ZM8.00016 7C7.44788 7 7.00016 6.55228 7.00016 6C7.00016 5.44772 7.44788 5 8.00016 5C8.55245 5 9.00016 5.44772 9.00016 6C9.00016 6.55228 8.55245 7 8.00016 7ZM8.00016 27C7.44788 27 7.00016 26.5523 7.00016 26C7.00016 25.4477 7.44788 25 8.00016 25C8.55245 25 9.00016 25.4477 9.00016 26C9.00016 26.5523 8.55245 27 8.00016 27ZM5.3335 7C4.78121 7 4.3335 6.55228 4.3335 6C4.3335 5.44772 4.78121 5 5.3335 5C5.88578 5 6.3335 5.44772 6.3335 6C6.3335 6.55228 5.88578 7 5.3335 7ZM10.6668 7C10.1145 7 9.66683 6.55228 9.66683 6C9.66683 5.44772 10.1145 5 10.6668 5C11.2191 5 11.6668 5.44772 11.6668 6C11.6668 6.55228 11.2191 7 10.6668 7ZM5.3335 27C4.78121 27 4.3335 26.5523 4.3335 26C4.3335 25.4477 4.78121 25 5.3335 25C5.88578 25 6.3335 25.4477 6.3335 26C6.3335 26.5523 5.88578 27 5.3335 27ZM10.6668 27C10.1145 27 9.66683 26.5523 9.66683 26C9.66683 25.4477 10.1145 25 10.6668 25C11.2191 25 11.6668 25.4477 11.6668 26C11.6668 26.5523 11.2191 27 10.6668 27Z"></path></svg>