<svg xmlns="http://www.w3.org/2000/svg" width="36" height="38" viewBox="0 0 36 38" fill="none">
  <rect opacity="0.04" x="0.5" y="0.5" width="35" height="35" rx="9.5" stroke="black"/>
  <g filter="url(#filter0_d_280_22997)">
    <rect x="4" y="4" width="28" height="28" rx="6" fill="url(#paint0_linear_280_22997)"/>
  </g>
  <rect opacity="0.1" x="7" y="7" width="1" height="1" fill="white"/>
  <rect opacity="0.1" x="10" y="7" width="1" height="1" fill="white"/>
  <rect opacity="0.1" x="13" y="7" width="1" height="1" fill="white"/>
  <rect opacity="0.5" x="16" y="7" width="1" height="1" fill="white"/>
  <rect opacity="0.1" x="19" y="7" width="1" height="1" fill="white"/>
  <rect opacity="0.1" x="22" y="7" width="1" height="1" fill="white"/>
  <rect opacity="0.1" x="25" y="7" width="1" height="1" fill="white"/>
  <rect opacity="0.1" x="28" y="7" width="1" height="1" fill="white"/>
  <rect opacity="0.3" x="7" y="10" width="1" height="1" fill="white"/>
  <rect opacity="0.1" x="10" y="10" width="1" height="1" fill="white"/>
  <rect opacity="0.1" x="13" y="10" width="1" height="1" fill="white"/>
  <rect opacity="0.1" x="16" y="10" width="1" height="1" fill="white"/>
  <rect opacity="0.1" x="19" y="10" width="1" height="1" fill="white"/>
  <rect opacity="0.1" x="22" y="10" width="1" height="1" fill="white"/>
  <rect opacity="0.5" x="25" y="10" width="1" height="1" fill="white"/>
  <rect opacity="0.1" x="28" y="10" width="1" height="1" fill="white"/>
  <rect opacity="0.1" x="7" y="13" width="1" height="1" fill="white"/>
  <rect opacity="0.1" x="10" y="13" width="1" height="1" fill="white"/>
  <rect opacity="0.1" x="13" y="13" width="1" height="1" fill="white"/>
  <rect opacity="0.1" x="16" y="13" width="1" height="1" fill="white"/>
  <rect opacity="0.1" x="19" y="13" width="1" height="1" fill="white"/>
  <rect opacity="0.1" x="22" y="13" width="1" height="1" fill="white"/>
  <rect opacity="0.1" x="25" y="13" width="1" height="1" fill="white"/>
  <rect opacity="0.1" x="28" y="13" width="1" height="1" fill="white"/>
  <rect opacity="0.1" x="7" y="16" width="1" height="1" fill="white"/>
  <rect opacity="0.1" x="10" y="16" width="1" height="1" fill="white"/>
  <rect opacity="0.1" x="13" y="16" width="1" height="1" fill="white"/>
  <rect opacity="0.1" x="16" y="16" width="1" height="1" fill="white"/>
  <rect opacity="0.1" x="19" y="16" width="1" height="1" fill="white"/>
  <rect opacity="0.1" x="22" y="16" width="1" height="1" fill="white"/>
  <rect opacity="0.1" x="25" y="16" width="1" height="1" fill="white"/>
  <rect opacity="0.3" x="28" y="16" width="1" height="1" fill="white"/>
  <rect opacity="0.5" x="7" y="19" width="1" height="1" fill="white"/>
  <rect opacity="0.1" x="10" y="19" width="1" height="1" fill="white"/>
  <rect opacity="0.1" x="13" y="19" width="1" height="1" fill="white"/>
  <rect opacity="0.1" x="16" y="19" width="1" height="1" fill="white"/>
  <rect opacity="0.1" x="19" y="19" width="1" height="1" fill="white"/>
  <rect opacity="0.1" x="22" y="19" width="1" height="1" fill="white"/>
  <rect opacity="0.1" x="25" y="19" width="1" height="1" fill="white"/>
  <rect opacity="0.1" x="28" y="19" width="1" height="1" fill="white"/>
  <rect opacity="0.1" x="7" y="22" width="1" height="1" fill="white"/>
  <rect opacity="0.1" x="10" y="22" width="1" height="1" fill="white"/>
  <rect opacity="0.1" x="13" y="22" width="1" height="1" fill="white"/>
  <rect opacity="0.1" x="16" y="22" width="1" height="1" fill="white"/>
  <rect opacity="0.1" x="19" y="22" width="1" height="1" fill="white"/>
  <rect opacity="0.1" x="22" y="22" width="1" height="1" fill="white"/>
  <rect opacity="0.3" x="25" y="22" width="1" height="1" fill="white"/>
  <rect opacity="0.1" x="28" y="22" width="1" height="1" fill="white"/>
  <rect opacity="0.1" x="7" y="25" width="1" height="1" fill="white"/>
  <rect opacity="0.3" x="10" y="25" width="1" height="1" fill="white"/>
  <rect opacity="0.1" x="13" y="25" width="1" height="1" fill="white"/>
  <rect opacity="0.1" x="16" y="25" width="1" height="1" fill="white"/>
  <rect opacity="0.1" x="19" y="25" width="1" height="1" fill="white"/>
  <rect opacity="0.1" x="22" y="25" width="1" height="1" fill="white"/>
  <rect opacity="0.5" x="25" y="25" width="1" height="1" fill="white"/>
  <rect opacity="0.1" x="28" y="25" width="1" height="1" fill="white"/>
  <rect opacity="0.1" x="7" y="28" width="1" height="1" fill="white"/>
  <rect opacity="0.1" x="10" y="28" width="1" height="1" fill="white"/>
  <rect opacity="0.1" x="13" y="28" width="1" height="1" fill="white"/>
  <rect opacity="0.1" x="16" y="28" width="1" height="1" fill="white"/>
  <rect opacity="0.5" x="19" y="28" width="1" height="1" fill="white"/>
  <rect opacity="0.1" x="22" y="28" width="1" height="1" fill="white"/>
  <rect opacity="0.1" x="25" y="28" width="1" height="1" fill="white"/>
  <rect opacity="0.3" x="28" y="28" width="1" height="1" fill="white"/>
  <path d="M17.9996 19.4849C19.4223 19.4849 20.5753 18.3455 20.5753 16.9394V13.5455C20.5753 12.1394 19.4223 11 17.9996 11C16.5769 11 15.4238 12.1394 15.4238 13.5455V16.9394C15.4238 18.3455 16.5769 19.4849 17.9996 19.4849Z" fill="white"/>
  <path opacity="0.5" d="M23 16.9093C23 16.8426 22.9455 16.7881 22.8788 16.7881H21.9697C21.903 16.7881 21.8485 16.8426 21.8485 16.9093C21.8485 19.0351 20.1258 20.7578 18 20.7578C15.8742 20.7578 14.1515 19.0351 14.1515 16.9093C14.1515 16.8426 14.097 16.7881 14.0303 16.7881H13.1212C13.0545 16.7881 13 16.8426 13 16.9093C13 19.4654 14.9182 21.5745 17.3939 21.873V23.4245H15.1924C14.9848 23.4245 14.8182 23.6412 14.8182 23.9094V24.4548C14.8182 24.5215 14.8606 24.576 14.9121 24.576H21.0879C21.1394 24.576 21.1818 24.5215 21.1818 24.4548V23.9094C21.1818 23.6412 21.0152 23.4245 20.8076 23.4245H18.5455V21.8806C21.05 21.6078 23 19.4866 23 16.9093Z" fill="white"/>
  <defs>
    <filter id="filter0_d_280_22997" x="0" y="2" width="36" height="36" filterUnits="userSpaceOnUse" color-interpolation-filters="sRGB">
      <feFlood flood-opacity="0" result="BackgroundImageFix"/>
      <feColorMatrix in="SourceAlpha" type="matrix" values="0 0 0 0 0 0 0 0 0 0 0 0 0 0 0 0 0 0 127 0" result="hardAlpha"/>
      <feOffset dy="2"/>
      <feGaussianBlur stdDeviation="2"/>
      <feComposite in2="hardAlpha" operator="out"/>
      <feColorMatrix type="matrix" values="0 0 0 0 0.435294 0 0 0 0 0.737255 0 0 0 0 1 0 0 0 0.25 0"/>
      <feBlend mode="normal" in2="BackgroundImageFix" result="effect1_dropShadow_280_22997"/>
      <feBlend mode="normal" in="SourceGraphic" in2="effect1_dropShadow_280_22997" result="shape"/>
    </filter>
    <linearGradient id="paint0_linear_280_22997" x1="18" y1="4" x2="18" y2="32" gradientUnits="userSpaceOnUse">
      <stop stop-color="#6FBCFF"/>
      <stop offset="1" stop-color="#0088FF"/>
    </linearGradient>
  </defs>
</svg>