<svg width="22" height="22" viewBox="0 0 22 22" fill="none" xmlns="http://www.w3.org/2000/svg">
<path d="M0 4C0 1.79086 1.79086 0 4 0H18C20.2091 0 22 1.79086 22 4V18C22 20.2091 20.2091 22 18 22H4C1.79086 22 0 20.2091 0 18V4Z" fill="#0065FB" fill-opacity="0.06"/>
<path d="M16 4.33301H4.33329C3.41663 4.33301 2.66663 5.08301 2.66663 5.99967V14.333C2.66663 15.2497 3.41663 15.9997 4.33329 15.9997H11V12.6663C11 11.7497 11.75 10.9997 12.6666 10.9997H17.6666V5.99967C17.6666 5.08301 16.9166 4.33301 16 4.33301Z" fill="#0065FB"/>
<path d="M18.5 12.667H13.5C13.0397 12.667 12.6666 13.0401 12.6666 13.5003V16.8337C12.6666 17.2939 13.0397 17.667 13.5 17.667H18.5C18.9602 17.667 19.3333 17.2939 19.3333 16.8337V13.5003C19.3333 13.0401 18.9602 12.667 18.5 12.667Z" fill="#0065FB" fill-opacity="0.5"/>
</svg>
