<svg width="130" height="150" xmlns="http://www.w3.org/2000/svg" xmlns:xlink="http://www.w3.org/1999/xlink"><defs><filter x="-35.6%" y="-188%" width="171.2%" height="476%" filterUnits="objectBoundingBox" id="a"><feGaussianBlur stdDeviation="11.28" in="SourceGraphic"/></filter><filter x="-7.3%" y="-8.7%" width="114.7%" height="117.5%" filterUnits="objectBoundingBox" id="d"><feGaussianBlur stdDeviation="4" in="SourceAlpha" result="shadowBlurInner1"/><feOffset dy="-3" in="shadowBlurInner1" result="shadowOffsetInner1"/><feComposite in="shadowOffsetInner1" in2="SourceAlpha" operator="arithmetic" k2="-1" k3="1" result="shadowInnerInner1"/><feColorMatrix values="0 0 0 0 0.666328244 0 0 0 0 0.994028718 0 0 0 0 1 0 0 0 0.597019436 0" in="shadowInnerInner1"/></filter><filter x="-11.3%" y="-13.4%" width="122.6%" height="126.9%" filterUnits="objectBoundingBox" id="f"><feGaussianBlur stdDeviation="2.82" in="SourceGraphic"/></filter><filter x="-18.6%" y="-22.2%" width="137.2%" height="144.3%" filterUnits="objectBoundingBox" id="i"><feGaussianBlur stdDeviation="4" in="SourceAlpha" result="shadowBlurInner1"/><feOffset dy="-3" in="shadowBlurInner1" result="shadowOffsetInner1"/><feComposite in="shadowOffsetInner1" in2="SourceAlpha" operator="arithmetic" k2="-1" k3="1" result="shadowInnerInner1"/><feColorMatrix values="0 0 0 0 0.666328244 0 0 0 0 0.994028718 0 0 0 0 1 0 0 0 0.597019436 0" in="shadowInnerInner1"/></filter><filter x="-42.9%" y="-36.6%" width="185.7%" height="187.8%" filterUnits="objectBoundingBox" id="j"><feOffset dy="3" in="SourceAlpha" result="shadowOffsetOuter1"/><feGaussianBlur stdDeviation="5.5" in="shadowOffsetOuter1" result="shadowBlurOuter1"/><feComposite in="shadowBlurOuter1" in2="SourceAlpha" operator="out" result="shadowBlurOuter1"/><feColorMatrix values="0 0 0 0 0.188235294 0 0 0 0 0.760784314 0 0 0 0 0.847058824 0 0 0 0.23917757 0" in="shadowBlurOuter1"/></filter><filter x="-34.5%" y="-28%" width="169%" height="170.7%" filterUnits="objectBoundingBox" id="l"><feGaussianBlur stdDeviation="3" in="SourceAlpha" result="shadowBlurInner1"/><feOffset dy="1" in="shadowBlurInner1" result="shadowOffsetInner1"/><feComposite in="shadowOffsetInner1" in2="SourceAlpha" operator="arithmetic" k2="-1" k3="1" result="shadowInnerInner1"/><feColorMatrix values="0 0 0 0 1 0 0 0 0 1 0 0 0 0 1 0 0 0 1 0" in="shadowInnerInner1"/></filter><filter x="-55.3%" y="-35.7%" width="210.5%" height="200%" filterUnits="objectBoundingBox" id="n"><feOffset dy="3" in="SourceAlpha" result="shadowOffsetOuter1"/><feGaussianBlur stdDeviation="3" in="shadowOffsetOuter1" result="shadowBlurOuter1"/><feComposite in="shadowBlurOuter1" in2="SourceAlpha" operator="out" result="shadowBlurOuter1"/><feColorMatrix values="0 0 0 0 0.0734218688 0 0 0 0 0.645673262 0 0 0 0 0.730737659 0 0 0 0.453474138 0" in="shadowBlurOuter1"/></filter><filter x="-39.5%" y="-21.4%" width="178.9%" height="171.4%" filterUnits="objectBoundingBox" id="p"><feGaussianBlur stdDeviation="1.5" in="SourceAlpha" result="shadowBlurInner1"/><feOffset in="shadowBlurInner1" result="shadowOffsetInner1"/><feComposite in="shadowOffsetInner1" in2="SourceAlpha" operator="arithmetic" k2="-1" k3="1" result="shadowInnerInner1"/><feColorMatrix values="0 0 0 0 1 0 0 0 0 1 0 0 0 0 1 0 0 0 1 0" in="shadowInnerInner1"/></filter><path d="M34.859 9.51h32.998c3.945 0 7.143 3.193 7.143 7.132v39.226C75 59.807 71.802 63 67.857 63H7.143C3.198 63 0 59.807 0 55.868V7.132C0 3.193 3.198 0 7.143 0h11.57a7.15 7.15 0 0 1 4.745 1.801l6.655 5.907a7.15 7.15 0 0 0 4.746 1.801" id="c"/><path d="M74 31c-11.598 0-21 9.178-21 20.5S62.402 72 74 72s21-9.178 21-20.5S85.598 31 74 31" id="e"/><path d="M34.859 9.51h32.998c3.945 0 7.143 3.193 7.143 7.132v39.226C75 59.807 71.802 63 67.857 63H7.143C3.198 63 0 59.807 0 55.868V7.132C0 3.193 3.198 0 7.143 0h11.57a7.15 7.15 0 0 1 4.745 1.801l6.655 5.907a7.15 7.15 0 0 0 4.746 1.801" id="h"/><path d="M74 31c-11.598 0-21 9.178-21 20.5S62.402 72 74 72s21-9.178 21-20.5S85.598 31 74 31" id="k"/><path d="m45.216 31.387-11.863-6.9C30.973 23.103 28 24.833 28 27.6v13.8c0 2.767 2.974 4.497 5.353 3.113l11.863-6.9c2.379-1.383 2.379-4.843 0-6.226" id="o"/><linearGradient x1="100%" y1="14.72%" x2="0%" y2="85.28%" id="b"><stop stop-color="#74E8FF" stop-opacity=".601" offset="0%"/><stop stop-color="#009CBB" offset="100%"/></linearGradient><linearGradient x1="87.293%" y1="0%" x2="12.707%" y2="100%" id="m"><stop stop-color="#69E6FF" offset="0%"/><stop stop-color="#009CBB" offset="100%"/></linearGradient></defs><g fill="none" fill-rule="evenodd"><path d="M0 0h130v130H0z"/><ellipse fill="#19B8CC" opacity=".4" filter="url(#a)" cx="65.5" cy="109" rx="47.5" ry="9"/><path d="M52.859 37.51h32.998c3.945 0 7.143 3.193 7.143 7.132v39.226C93 87.807 89.802 91 85.857 91H25.143C21.198 91 18 87.807 18 83.868V35.132C18 31.193 21.198 28 25.143 28h11.57a7.15 7.15 0 0 1 4.745 1.801l6.655 5.907a7.15 7.15 0 0 0 4.746 1.801" fill="#FFF" fill-rule="nonzero"/><g fill-rule="nonzero" transform="translate(18 28)"><use fill="url(#b)" xlink:href="#c"/><use fill="#000" filter="url(#d)" xlink:href="#c"/></g><path d="M92 59c-11.598 0-21 9.178-21 20.5S80.402 100 92 100s21-9.178 21-20.5S103.598 59 92 59" fill="#FFF"/><g transform="translate(18 28)"><mask id="g" fill="#fff"><use xlink:href="#e"/></mask><use fill="#FFF" xlink:href="#e"/><g fill-rule="nonzero" filter="url(#f)" mask="url(#g)"><use fill="url(#b)" xlink:href="#h"/><use fill="#000" filter="url(#i)" xlink:href="#h"/></g></g><g transform="translate(18 28)"><use fill="#000" filter="url(#j)" xlink:href="#k"/><use fill-opacity=".4" fill="#FFF" xlink:href="#k"/><use fill="#000" filter="url(#l)" xlink:href="#k"/></g><path d="M83.288 52.337a2.409 2.409 0 0 1-3.435 0l-2.924-2.955v11.163C76.93 61.9 75.842 63 74.5 63c-1.342 0-2.43-1.1-2.43-2.455V49.382l-2.923 2.955a2.412 2.412 0 0 1-3.436 0 2.474 2.474 0 0 1 0-3.472l7.071-7.146.029-.026c.047-.046.095-.092.146-.134l.06-.045c.043-.034.086-.068.132-.099l.052-.032c.05-.032.1-.063.152-.092l.04-.019c.057-.03.115-.059.175-.084l.027-.01c.065-.026.13-.05.197-.071l.028-.008c.067-.02.133-.037.201-.05.022-.005.043-.007.064-.01.057-.01.114-.02.172-.026A2.44 2.44 0 0 1 74.5 41h.006a2.383 2.383 0 0 1 .416.04c.019.003.038.004.056.008.072.015.142.033.211.054l.018.005c.072.022.142.048.21.076l.013.005c.066.027.13.058.192.091l.023.011c.058.032.114.066.169.102l.036.022c.052.035.101.074.15.113l.041.03c.061.051.12.105.175.16l.002.002 7.07 7.146a2.474 2.474 0 0 1 0 3.472" fill="url(#m)" fill-rule="nonzero" transform="translate(18 28)"/><g transform="translate(18 28)"><use fill="#000" filter="url(#n)" xlink:href="#o"/><use fill-opacity=".651" fill="#FFF" xlink:href="#o"/><use fill="#000" filter="url(#p)" xlink:href="#o"/></g></g></svg>