<svg width="130" height="150" xmlns="http://www.w3.org/2000/svg" xmlns:xlink="http://www.w3.org/1999/xlink"><defs><filter x="-35.6%" y="-188%" width="171.2%" height="476%" filterUnits="objectBoundingBox" id="a"><feGaussianBlur stdDeviation="11.28" in="SourceGraphic"/></filter><filter x="-7.3%" y="-8.3%" width="114.7%" height="116.7%" filterUnits="objectBoundingBox" id="d"><feGaussianBlur stdDeviation="4" in="SourceAlpha" result="shadowBlurInner1"/><feOffset dy="-3" in="shadowBlurInner1" result="shadowOffsetInner1"/><feComposite in="shadowOffsetInner1" in2="SourceAlpha" operator="arithmetic" k2="-1" k3="1" result="shadowInnerInner1"/><feColorMatrix values="0 0 0 0 0.891167563 0 0 0 0 0.847456174 0 0 0 0 1 0 0 0 0.595937022 0" in="shadowInnerInner1"/></filter><filter x="-11.3%" y="-12.8%" width="122.6%" height="125.6%" filterUnits="objectBoundingBox" id="f"><feGaussianBlur stdDeviation="2.82" in="SourceGraphic"/></filter><filter x="-18.6%" y="-21.2%" width="137.2%" height="142.3%" filterUnits="objectBoundingBox" id="i"><feGaussianBlur stdDeviation="4" in="SourceAlpha" result="shadowBlurInner1"/><feOffset dy="-3" in="shadowBlurInner1" result="shadowOffsetInner1"/><feComposite in="shadowOffsetInner1" in2="SourceAlpha" operator="arithmetic" k2="-1" k3="1" result="shadowInnerInner1"/><feColorMatrix values="0 0 0 0 0.891167563 0 0 0 0 0.847456174 0 0 0 0 1 0 0 0 0.595937022 0" in="shadowInnerInner1"/></filter><filter x="-42.9%" y="-36.6%" width="185.7%" height="187.8%" filterUnits="objectBoundingBox" id="j"><feOffset dy="3" in="SourceAlpha" result="shadowOffsetOuter1"/><feGaussianBlur stdDeviation="5.5" in="shadowOffsetOuter1" result="shadowBlurOuter1"/><feComposite in="shadowBlurOuter1" in2="SourceAlpha" operator="out" result="shadowBlurOuter1"/><feColorMatrix values="0 0 0 0 0.478431373 0 0 0 0 0.28627451 0 0 0 0 0.956862745 0 0 0 0.244683539 0" in="shadowBlurOuter1"/></filter><filter x="-34.5%" y="-28%" width="169%" height="170.7%" filterUnits="objectBoundingBox" id="l"><feGaussianBlur stdDeviation="3" in="SourceAlpha" result="shadowBlurInner1"/><feOffset dy="1" in="shadowBlurInner1" result="shadowOffsetInner1"/><feComposite in="shadowOffsetInner1" in2="SourceAlpha" operator="arithmetic" k2="-1" k3="1" result="shadowInnerInner1"/><feColorMatrix values="0 0 0 0 1 0 0 0 0 1 0 0 0 0 1 0 0 0 1 0" in="shadowInnerInner1"/></filter><filter x="-175%" y="-22.7%" width="450%" height="163.6%" filterUnits="objectBoundingBox" id="n"><feOffset dy="3" in="SourceAlpha" result="shadowOffsetOuter1"/><feGaussianBlur stdDeviation="3" in="shadowOffsetOuter1" result="shadowBlurOuter1"/><feComposite in="shadowBlurOuter1" in2="SourceAlpha" operator="out" result="shadowBlurOuter1"/><feColorMatrix values="0 0 0 0 0.197954464 0 0 0 0 0.0809353275 0 0 0 0 0.489308233 0 0 0 0.402927639 0" in="shadowBlurOuter1"/></filter><filter x="-125%" y="-13.6%" width="350%" height="145.5%" filterUnits="objectBoundingBox" id="p"><feGaussianBlur stdDeviation="1.5" in="SourceAlpha" result="shadowBlurInner1"/><feOffset in="shadowBlurInner1" result="shadowOffsetInner1"/><feComposite in="shadowOffsetInner1" in2="SourceAlpha" operator="arithmetic" k2="-1" k3="1" result="shadowInnerInner1"/><feColorMatrix values="0 0 0 0 1 0 0 0 0 1 0 0 0 0 1 0 0 0 1 0" in="shadowInnerInner1"/></filter><filter x="-175%" y="-37.5%" width="450%" height="205%" filterUnits="objectBoundingBox" id="q"><feOffset dy="3" in="SourceAlpha" result="shadowOffsetOuter1"/><feGaussianBlur stdDeviation="3" in="shadowOffsetOuter1" result="shadowBlurOuter1"/><feComposite in="shadowBlurOuter1" in2="SourceAlpha" operator="out" result="shadowBlurOuter1"/><feColorMatrix values="0 0 0 0 0.197954464 0 0 0 0 0.0809353275 0 0 0 0 0.489308233 0 0 0 0.402927639 0" in="shadowBlurOuter1"/></filter><filter x="-125%" y="-22.5%" width="350%" height="175%" filterUnits="objectBoundingBox" id="s"><feGaussianBlur stdDeviation="1.5" in="SourceAlpha" result="shadowBlurInner1"/><feOffset in="shadowBlurInner1" result="shadowOffsetInner1"/><feComposite in="shadowOffsetInner1" in2="SourceAlpha" operator="arithmetic" k2="-1" k3="1" result="shadowInnerInner1"/><feColorMatrix values="0 0 0 0 1 0 0 0 0 1 0 0 0 0 1 0 0 0 1 0" in="shadowInnerInner1"/></filter><filter x="-175%" y="-57.7%" width="450%" height="261.5%" filterUnits="objectBoundingBox" id="t"><feOffset dy="3" in="SourceAlpha" result="shadowOffsetOuter1"/><feGaussianBlur stdDeviation="3" in="shadowOffsetOuter1" result="shadowBlurOuter1"/><feComposite in="shadowBlurOuter1" in2="SourceAlpha" operator="out" result="shadowBlurOuter1"/><feColorMatrix values="0 0 0 0 0.197954464 0 0 0 0 0.0809353275 0 0 0 0 0.489308233 0 0 0 0.402927639 0" in="shadowBlurOuter1"/></filter><filter x="-125%" y="-34.6%" width="350%" height="215.4%" filterUnits="objectBoundingBox" id="v"><feGaussianBlur stdDeviation="1.5" in="SourceAlpha" result="shadowBlurInner1"/><feOffset in="shadowBlurInner1" result="shadowOffsetInner1"/><feComposite in="shadowOffsetInner1" in2="SourceAlpha" operator="arithmetic" k2="-1" k3="1" result="shadowInnerInner1"/><feColorMatrix values="0 0 0 0 1 0 0 0 0 1 0 0 0 0 1 0 0 0 1 0" in="shadowInnerInner1"/></filter><path d="M26.19 55.393S21.188 64.929 8.333 66c1.364-2.984 2.31-10.607-1.19-10.607C3.198 55.393 0 52.227 0 48.32V7.071C0 3.166 3.198 0 7.143 0h60.714C71.802 0 75 3.166 75 7.071v41.25c0 3.906-3.198 7.072-7.143 7.072H26.19Z" id="c"/><path d="M74 24c-11.598 0-21 9.178-21 20.5S62.402 65 74 65s21-9.178 21-20.5S85.598 24 74 24" id="e"/><path d="M26.19 55.393S21.188 64.929 8.333 66c1.364-2.984 2.31-10.607-1.19-10.607C3.198 55.393 0 52.227 0 48.32V7.071C0 3.166 3.198 0 7.143 0h60.714C71.802 0 75 3.166 75 7.071v41.25c0 3.906-3.198 7.072-7.143 7.072H26.19Z" id="h"/><path d="M74 24c-11.598 0-21 9.178-21 20.5S62.402 65 74 65s21-9.178 21-20.5S85.598 24 74 24" id="k"/><path d="M37 44c-1.657 0-3-1.32-3-2.946V13.946C34 12.32 35.343 11 37 11s3 1.32 3 2.946v27.108C40 42.68 38.657 44 37 44" id="o"/><path d="M26 39c-1.657 0-3-1.317-3-2.941V21.94c0-1.623 1.343-2.94 3-2.94s3 1.317 3 2.941V36.06c0 1.623-1.343 2.94-3 2.94" id="r"/><path d="M49 32c-1.657 0-3-1.323-3-2.955v-7.09C46 20.323 47.343 19 49 19s3 1.323 3 2.955v7.09C52 30.677 50.657 32 49 32" id="u"/><linearGradient x1="100%" y1="11.28%" x2="0%" y2="88.72%" id="b"><stop stop-color="#605CE5" stop-opacity=".303" offset="0%"/><stop stop-color="#332EE9" offset="100%"/></linearGradient><linearGradient x1="100%" y1="0%" x2="0%" y2="100%" id="m"><stop stop-color="#9D86FF" offset="0%"/><stop stop-color="#332EE9" offset="100%"/></linearGradient></defs><g fill="none" fill-rule="evenodd"><path d="M0 0h130v130H0z"/><ellipse fill="#5B56EC" opacity=".4" filter="url(#a)" cx="65.5" cy="109" rx="47.5" ry="9"/><path d="M44.19 89.393S39.188 98.929 26.333 100c1.364-2.984 2.31-10.607-1.19-10.607-3.945 0-7.143-3.166-7.143-7.072v-41.25C18 37.166 21.198 34 25.143 34h60.714C89.802 34 93 37.166 93 41.071v41.25c0 3.906-3.198 7.072-7.143 7.072H44.19Z" fill="#FFF" fill-rule="nonzero"/><g fill-rule="nonzero" transform="translate(18 34)"><use fill="url(#b)" xlink:href="#c"/><use fill="#000" filter="url(#d)" xlink:href="#c"/></g><path d="M92 58c-11.598 0-21 9.178-21 20.5S80.402 99 92 99s21-9.178 21-20.5S103.598 58 92 58" fill="#FFF"/><g transform="translate(18 34)"><mask id="g" fill="#fff"><use xlink:href="#e"/></mask><use fill="#FFF" xlink:href="#e"/><g fill-rule="nonzero" filter="url(#f)" mask="url(#g)"><use fill="url(#b)" xlink:href="#h"/><use fill="#000" filter="url(#i)" xlink:href="#h"/></g></g><g transform="translate(18 34)"><use fill="#000" filter="url(#j)" xlink:href="#k"/><use fill-opacity=".4" fill="#FFF" xlink:href="#k"/><use fill="#000" filter="url(#l)" xlink:href="#k"/></g><path d="M74 53a9 9 0 0 1-9-9 9 9 0 0 1 9-9 9 9 0 0 1 9 9 9 9 0 0 1-9 9" fill="url(#m)" fill-rule="nonzero" transform="translate(18 34)"/><g transform="translate(18 34)"><use fill="#000" filter="url(#n)" xlink:href="#o"/><use fill-opacity=".651" fill="#FFF" xlink:href="#o"/><use fill="#000" filter="url(#p)" xlink:href="#o"/></g><g transform="translate(18 34)"><use fill="#000" filter="url(#q)" xlink:href="#r"/><use fill-opacity=".651" fill="#FFF" xlink:href="#r"/><use fill="#000" filter="url(#s)" xlink:href="#r"/></g><g transform="translate(18 34)"><use fill="#000" filter="url(#t)" xlink:href="#u"/><use fill-opacity=".651" fill="#FFF" xlink:href="#u"/><use fill="#000" filter="url(#v)" xlink:href="#u"/></g></g></svg>