<svg width="36" height="38" viewBox="0 0 36 38" fill="none" xmlns="http://www.w3.org/2000/svg">
<rect opacity="0.04" x="0.5" y="0.5" width="35" height="35" rx="9.5" stroke="black"/>
<g filter="url(#filter0_d_227_7217)">
<rect x="4" y="4" width="28" height="28" rx="6" fill="url(#paint0_linear_227_7217)"/>
</g>
<path d="M21.0736 24.0011L20.3907 23.7372L22.9207 17.2724C23.0294 16.9852 22.8897 16.6593 22.6025 16.5506C22.5948 16.5429 22.5792 16.5429 22.5715 16.5429L18.1478 15.0994C17.8606 15.0062 17.558 15.1537 17.4493 15.4331L15.2452 21.2615L14.2052 20.8657L17.3018 12.678C17.4027 12.3986 17.7054 12.2589 17.9926 12.3442L24.6048 14.3854C24.8998 14.4785 25.0627 14.7889 24.9774 15.0838C24.9696 15.0994 24.9696 15.1071 24.9618 15.1226L21.5781 23.776C21.5005 23.9778 21.2754 24.0787 21.0736 24.0011Z" fill="white"/>
<path d="M11 20.4699C11.0233 21.6883 12.0322 22.6507 13.2429 22.6274C14.4226 22.6041 15.3771 21.6495 15.4004 20.4699C15.4237 19.2514 14.4614 18.2503 13.2429 18.227C12.0244 18.2037 11.0233 19.166 11 20.3845V20.4699ZM17.3484 22.9301C17.3484 24.1485 18.334 25.1342 19.5525 25.1264C20.771 25.1264 21.7566 24.1408 21.7488 22.9223C21.7411 21.7039 20.7632 20.7182 19.5447 20.726C18.334 20.726 17.3484 21.7116 17.3484 22.9301Z" fill="white"/>
<path opacity="0.5" d="M13.6934 10.0238C13.9338 9.94646 14.197 10.0628 14.3057 10.2953L14.5312 10.7846C14.6475 11.0405 14.539 11.3429 14.2832 11.4594C14.2677 11.4671 14.244 11.4751 14.2285 11.4828L12.9717 11.9018C12.8553 11.9406 12.8011 12.0569 12.832 12.1733C12.832 12.1809 12.8315 12.1815 12.8389 12.1889L13.9307 14.975C14.0648 15.1943 14.1436 15.4521 14.1436 15.7289C14.1434 16.5281 13.4985 17.1723 12.6992 17.1723C11.9001 17.1721 11.256 16.528 11.2559 15.7289C11.2559 14.9297 11.9 14.2848 12.6992 14.2846C12.704 14.2846 12.7091 14.2845 12.7139 14.2846L11.5195 11.2885C11.4113 11.0171 11.5432 10.7068 11.8145 10.5981C11.83 10.5903 11.8458 10.5902 11.8535 10.5824L13.6934 10.0238Z" fill="white"/>
<defs>
<filter id="filter0_d_227_7217" x="0" y="2" width="36" height="36" filterUnits="userSpaceOnUse" color-interpolation-filters="sRGB">
<feFlood flood-opacity="0" result="BackgroundImageFix"/>
<feColorMatrix in="SourceAlpha" type="matrix" values="0 0 0 0 0 0 0 0 0 0 0 0 0 0 0 0 0 0 127 0" result="hardAlpha"/>
<feOffset dy="2"/>
<feGaussianBlur stdDeviation="2"/>
<feComposite in2="hardAlpha" operator="out"/>
<feColorMatrix type="matrix" values="0 0 0 0 0 0 0 0 0 0.396078 0 0 0 0 0.984314 0 0 0 0.25 0"/>
<feBlend mode="normal" in2="BackgroundImageFix" result="effect1_dropShadow_227_7217"/>
<feBlend mode="normal" in="SourceGraphic" in2="effect1_dropShadow_227_7217" result="shape"/>
</filter>
<linearGradient id="paint0_linear_227_7217" x1="18" y1="4" x2="18" y2="32" gradientUnits="userSpaceOnUse">
<stop stop-color="#6DA8FF"/>
<stop offset="1" stop-color="#0065FB"/>
</linearGradient>
</defs>
</svg>
