<svg width="36" height="38" viewBox="0 0 36 38" fill="none" xmlns="http://www.w3.org/2000/svg">
<rect opacity="0.04" x="0.5" y="0.5" width="35" height="35" rx="9.5" stroke="black"/>
<g filter="url(#filter0_d_227_7282)">
<rect x="4" y="4" width="28" height="28" rx="6" fill="url(#paint0_linear_227_7282)"/>
</g>
<path opacity="0.5" d="M16.7869 12.2143C16.7869 12.3737 16.8183 12.5316 16.8793 12.6789C16.9403 12.8262 17.0298 12.9601 17.1425 13.0729C17.2553 13.1856 17.3891 13.2751 17.5364 13.3361C17.6837 13.3971 17.8416 13.4285 18.0011 13.4285C18.1605 13.4285 18.3184 13.3971 18.4657 13.3361C18.613 13.2751 18.7469 13.1856 18.8596 13.0729C18.9724 12.9601 19.0618 12.8262 19.1228 12.6789C19.1838 12.5316 19.2152 12.3737 19.2152 12.2143C19.2152 12.0548 19.1838 11.8969 19.1228 11.7496C19.0618 11.6023 18.9724 11.4684 18.8596 11.3557C18.7469 11.2429 18.613 11.1535 18.4657 11.0924C18.3184 11.0314 18.1605 11 18.0011 11C17.8416 11 17.6837 11.0314 17.5364 11.0924C17.3891 11.1535 17.2553 11.2429 17.1425 11.3557C17.0298 11.4684 16.9403 11.6023 16.8793 11.7496C16.8183 11.8969 16.7869 12.0548 16.7869 12.2143Z" fill="white"/>
<path opacity="0.5" d="M21.5718 14.977C21.5717 15.1364 21.6031 15.2943 21.6641 15.4416C21.7251 15.5889 21.8146 15.7228 21.9273 15.8356C22.0401 15.9483 22.1739 16.0378 22.3212 16.0988C22.4685 16.1598 22.6264 16.1912 22.7859 16.1912C22.9453 16.1912 23.1032 16.1598 23.2505 16.0988C23.3978 16.0378 23.5317 15.9483 23.6444 15.8356C23.7572 15.7228 23.8466 15.5889 23.9076 15.4416C23.9686 15.2943 24 15.1364 24 14.977C24 14.8175 23.9686 14.6596 23.9076 14.5123C23.8466 14.365 23.7572 14.2311 23.6444 14.1184C23.5317 14.0056 23.3978 13.9162 23.2505 13.8551C23.1032 13.7941 22.9453 13.7627 22.7859 13.7627C22.6264 13.7627 22.4685 13.7941 22.3212 13.8551C22.1739 13.9162 22.0401 14.0056 21.9273 14.1184C21.8146 14.2311 21.7251 14.365 21.6641 14.5123C21.6031 14.6596 21.5717 14.8175 21.5718 14.977Z" fill="white"/>
<path opacity="0.5" d="M12 14.9398C12 15.0993 12.0314 15.2572 12.0924 15.4045C12.1534 15.5518 12.2428 15.6857 12.3556 15.7984C12.4683 15.9112 12.6022 16.0006 12.7495 16.0617C12.8968 16.1227 13.0547 16.1541 13.2141 16.1541C13.3736 16.1541 13.5315 16.1227 13.6788 16.0617C13.8261 16.0006 13.9599 15.9112 14.0727 15.7984C14.1854 15.6857 14.2749 15.5518 14.3359 15.4045C14.3969 15.2572 14.4283 15.0993 14.4283 14.9398C14.4283 14.7804 14.3969 14.6225 14.3359 14.4752C14.2749 14.3279 14.1854 14.194 14.0727 14.0812C13.9599 13.9685 13.8261 13.879 13.6788 13.818C13.5315 13.757 13.3736 13.7256 13.2141 13.7256C13.0547 13.7256 12.8968 13.757 12.7495 13.818C12.6022 13.879 12.4683 13.9685 12.3556 14.0812C12.2428 14.194 12.1534 14.3279 12.0924 14.4752C12.0314 14.6225 12 14.7804 12 14.9398Z" fill="white"/>
<path opacity="0.5" d="M12 20.39C12 20.5495 12.0314 20.7074 12.0924 20.8547C12.1534 21.002 12.2428 21.1359 12.3556 21.2486C12.4683 21.3614 12.6022 21.4508 12.7495 21.5119C12.8968 21.5729 13.0547 21.6043 13.2141 21.6043C13.3736 21.6043 13.5315 21.5729 13.6788 21.5119C13.8261 21.4508 13.9599 21.3614 14.0727 21.2486C14.1854 21.1359 14.2749 21.002 14.3359 20.8547C14.3969 20.7074 14.4283 20.5495 14.4283 20.39C14.4283 20.2306 14.3969 20.0727 14.3359 19.9254C14.2749 19.7781 14.1854 19.6442 14.0727 19.5314C13.9599 19.4187 13.8261 19.3292 13.6788 19.2682C13.5315 19.2072 13.3736 19.1758 13.2141 19.1758C13.0547 19.1758 12.8968 19.2072 12.7495 19.2682C12.6022 19.3292 12.4683 19.4187 12.3556 19.5314C12.2428 19.6442 12.1534 19.7781 12.0924 19.9254C12.0314 20.0727 12 20.2306 12 20.39Z" fill="white"/>
<path opacity="0.5" d="M16.8613 23.2465C16.8613 23.4059 16.8926 23.5638 16.9537 23.7111C17.0147 23.8585 17.1041 23.9923 17.2168 24.1051C17.3296 24.2178 17.4634 24.3073 17.6107 24.3683C17.7581 24.4293 17.9159 24.4607 18.0754 24.4607C18.2349 24.4607 18.3927 24.4293 18.5401 24.3683C18.6874 24.3073 18.8212 24.2178 18.934 24.1051C19.0467 23.9923 19.1361 23.8585 19.1971 23.7111C19.2582 23.5638 19.2895 23.4059 19.2895 23.2465C19.2895 23.087 19.2582 22.9291 19.1971 22.7818C19.1361 22.6345 19.0467 22.5006 18.934 22.3879C18.8212 22.2751 18.6874 22.1857 18.5401 22.1247C18.3927 22.0636 18.2349 22.0322 18.0754 22.0322C17.9159 22.0322 17.7581 22.0636 17.6107 22.1247C17.4634 22.1857 17.3296 22.2751 17.2168 22.3879C17.1041 22.5006 17.0147 22.6345 16.9537 22.7818C16.8926 22.9291 16.8613 23.087 16.8613 23.2465Z" fill="white"/>
<path opacity="0.5" d="M21.5718 20.6156C21.5717 20.7751 21.6031 20.933 21.6641 21.0803C21.7251 21.2276 21.8146 21.3615 21.9273 21.4742C22.0401 21.587 22.1739 21.6764 22.3212 21.7374C22.4685 21.7985 22.6264 21.8299 22.7859 21.8299C22.9453 21.8299 23.1032 21.7985 23.2505 21.7374C23.3978 21.6764 23.5317 21.587 23.6444 21.4742C23.7572 21.3615 23.8466 21.2276 23.9076 21.0803C23.9686 20.933 24 20.7751 24 20.6156C24 20.4562 23.9686 20.2983 23.9076 20.151C23.8466 20.0036 23.7572 19.8698 23.6444 19.757C23.5317 19.6443 23.3978 19.5548 23.2505 19.4938C23.1032 19.4328 22.9453 19.4014 22.7859 19.4014C22.6264 19.4014 22.4685 19.4328 22.3212 19.4938C22.1739 19.5548 22.0401 19.6443 21.9273 19.757C21.8146 19.8698 21.7251 20.0036 21.6641 20.151C21.6031 20.2983 21.5717 20.4562 21.5718 20.6156Z" fill="white"/>
<path d="M15.9026 17.6766C15.9026 17.949 15.9562 18.2187 16.0604 18.4703C16.1646 18.722 16.3174 18.9506 16.51 19.1432C16.7026 19.3358 16.9312 19.4886 17.1828 19.5928C17.4345 19.6971 17.7042 19.7507 17.9765 19.7507C18.2489 19.7507 18.5186 19.6971 18.7702 19.5928C19.0218 19.4886 19.2505 19.3358 19.4431 19.1432C19.6356 18.9506 19.7884 18.722 19.8926 18.4703C19.9968 18.2187 20.0505 17.949 20.0504 17.6766C20.0505 17.4043 19.9968 17.1346 19.8926 16.8829C19.7884 16.6313 19.6356 16.4026 19.4431 16.21C19.2505 16.0174 19.0218 15.8647 18.7702 15.7604C18.5186 15.6562 18.2489 15.6025 17.9765 15.6025C17.7042 15.6025 17.4345 15.6562 17.1828 15.7604C16.9312 15.8647 16.7026 16.0174 16.51 16.21C16.3174 16.4026 16.1646 16.6313 16.0604 16.8829C15.9562 17.1346 15.9026 17.4043 15.9026 17.6766Z" fill="white"/>
<defs>
<filter id="filter0_d_227_7282" x="0" y="2" width="36" height="36" filterUnits="userSpaceOnUse" color-interpolation-filters="sRGB">
<feFlood flood-opacity="0" result="BackgroundImageFix"/>
<feColorMatrix in="SourceAlpha" type="matrix" values="0 0 0 0 0 0 0 0 0 0 0 0 0 0 0 0 0 0 127 0" result="hardAlpha"/>
<feOffset dy="2"/>
<feGaussianBlur stdDeviation="2"/>
<feComposite in2="hardAlpha" operator="out"/>
<feColorMatrix type="matrix" values="0 0 0 0 0 0 0 0 0 0.396078 0 0 0 0 0.984314 0 0 0 0.25 0"/>
<feBlend mode="normal" in2="BackgroundImageFix" result="effect1_dropShadow_227_7282"/>
<feBlend mode="normal" in="SourceGraphic" in2="effect1_dropShadow_227_7282" result="shape"/>
</filter>
<linearGradient id="paint0_linear_227_7282" x1="18" y1="4" x2="18" y2="32" gradientUnits="userSpaceOnUse">
<stop stop-color="#6DA8FF"/>
<stop offset="1" stop-color="#0065FB"/>
</linearGradient>
</defs>
</svg>
