<svg width="36" height="38" viewBox="0 0 36 38" fill="none" xmlns="http://www.w3.org/2000/svg">
<rect opacity="0.04" x="0.5" y="0.5" width="35" height="35" rx="9.5" stroke="black"/>
<g filter="url(#filter0_d_227_7331)">
<rect x="4" y="4" width="28" height="28" rx="6" fill="url(#paint0_linear_227_7331)"/>
</g>
<path d="M16.9639 20.4745C16.9639 22.532 18.9927 24.201 21.482 24.201C22.0863 24.201 22.6762 24.1003 23.1942 23.9276C23.3381 23.9996 24.3741 24.8916 24.6043 24.7333C24.7626 24.6039 24.2302 23.6399 24.187 23.4672C25.2806 22.791 26 21.6975 26 20.4745C26 18.417 23.9712 16.748 21.482 16.748C18.9927 16.748 16.9639 18.417 16.9639 20.4745ZM22.4316 19.1652C22.4316 18.8055 22.7194 18.5178 23.0791 18.5178C23.4388 18.5178 23.7266 18.8055 23.7266 19.1652C23.7266 19.5249 23.4388 19.8127 23.0791 19.8127C22.7194 19.8127 22.4316 19.5249 22.4316 19.1652ZM19.2517 19.1652C19.2517 18.8055 19.5395 18.5178 19.8992 18.5178C20.2589 18.5178 20.5467 18.8055 20.5467 19.1652C20.5467 19.5249 20.2589 19.8127 19.8992 19.8127C19.5395 19.8127 19.2517 19.5249 19.2517 19.1652Z" fill="white"/>
<path opacity="0.5" d="M16.5612 20.4457C16.5612 18.2012 18.7771 16.3883 21.4965 16.3883C21.6404 16.3883 21.7843 16.3883 21.9138 16.4027C21.6116 13.928 19.0648 12 15.9713 12C12.6763 12 10 14.2014 10 16.9207C10 18.5321 10.9496 19.9709 12.4029 20.863C12.3453 21.0788 11.6547 22.3593 11.8561 22.532C12.1583 22.7334 13.5252 21.5536 13.7123 21.4672C14.4029 21.6975 15.1655 21.8269 15.9713 21.8269C16.2591 21.8269 16.5468 21.8126 16.8346 21.7694C16.6619 21.3665 16.5612 20.9205 16.5612 20.4457ZM18.0576 14.3021C18.5325 14.3021 18.921 14.6905 18.921 15.1653C18.9353 15.6401 18.5469 16.0286 18.0576 16.0286C17.5828 16.0286 17.1943 15.6401 17.1943 15.1653C17.1943 14.6905 17.5828 14.3021 18.0576 14.3021ZM13.8705 16.0286C13.3957 16.0286 13.0072 15.6401 13.0072 15.1653C13.0072 14.6905 13.3957 14.3021 13.8705 14.3021C14.3454 14.3021 14.7339 14.6905 14.7339 15.1653C14.7339 15.6401 14.3454 16.0286 13.8705 16.0286Z" fill="white"/>
<defs>
<filter id="filter0_d_227_7331" x="0" y="2" width="36" height="36" filterUnits="userSpaceOnUse" color-interpolation-filters="sRGB">
<feFlood flood-opacity="0" result="BackgroundImageFix"/>
<feColorMatrix in="SourceAlpha" type="matrix" values="0 0 0 0 0 0 0 0 0 0 0 0 0 0 0 0 0 0 127 0" result="hardAlpha"/>
<feOffset dy="2"/>
<feGaussianBlur stdDeviation="2"/>
<feComposite in2="hardAlpha" operator="out"/>
<feColorMatrix type="matrix" values="0 0 0 0 0 0 0 0 0 0.396078 0 0 0 0 0.984314 0 0 0 0.25 0"/>
<feBlend mode="normal" in2="BackgroundImageFix" result="effect1_dropShadow_227_7331"/>
<feBlend mode="normal" in="SourceGraphic" in2="effect1_dropShadow_227_7331" result="shape"/>
</filter>
<linearGradient id="paint0_linear_227_7331" x1="18" y1="4" x2="18" y2="32" gradientUnits="userSpaceOnUse">
<stop stop-color="#6DA8FF"/>
<stop offset="1" stop-color="#0065FB"/>
</linearGradient>
</defs>
</svg>
