<svg xmlns="http://www.w3.org/2000/svg" xmlns:xlink="http://www.w3.org/1999/xlink" width="26" height="26" viewBox="0 0 26 26" fill="none"><g opacity="0.7"><path   fill-rule="evenodd"  fill="#000000"  d="M21.5 0L5.61 0C3.61551 0 2 1.6158 2 3.61L2 22.39C2 24.3842 3.61551 26 5.61 26L15.72 26C20.9038 26 25.11 21.7944 25.11 16.61L25.11 3.61C25.11 1.6158 23.4922 0 21.5 0ZM23.6646 3.6143C23.6646 2.41714 22.6997 1.4443 21.5046 1.4443L5.6146 1.4443C4.41947 1.4443 3.4446 2.41714 3.4446 3.6143L3.4446 22.3943C3.4446 23.5891 4.41947 24.5543 5.6146 24.5543L15.7246 24.5543C16.9218 24.5543 17.8846 23.5891 17.8846 22.3943C17.8846 20.3998 19.5087 18.7743 21.5046 18.7743C22.6997 18.7743 23.6646 17.8091 23.6646 16.6143L23.6646 3.6143ZM18.6078 7.2227L8.4978 7.2227C8.09913 7.2227 7.7778 7.54389 7.7778 7.9427C7.7778 8.34151 8.09913 8.6627 8.4978 8.6627L18.6078 8.6627C19.0065 8.6627 19.3378 8.34151 19.3378 7.9427C19.3378 7.54389 19.0065 7.2227 18.6078 7.2227ZM8.4978 11.5557L18.6078 11.5557C19.0065 11.5557 19.3378 11.8769 19.3378 12.2757C19.3378 12.6745 19.0065 12.9957 18.6078 12.9957L8.4978 12.9957C8.09913 12.9957 7.7778 12.6745 7.7778 12.2757C7.7778 11.8769 8.09913 11.5557 8.4978 11.5557ZM8.4978 15.8887L15.7178 15.8887C16.1165 15.8887 16.4478 16.2099 16.4478 16.6087C16.4478 17.0075 16.1165 17.3287 15.7178 17.3287L8.4978 17.3287C8.09913 17.3287 7.7778 17.0075 7.7778 16.6087C7.7778 16.2099 8.09913 15.8887 8.4978 15.8887ZM19.0303 23.8289C20.7577 23.0362 22.1476 21.6464 22.9403 19.9189C22.4976 20.1127 22.0147 20.2189 21.5003 20.2189C20.3037 20.2189 19.3303 21.1922 19.3303 22.3889C19.3303 22.9033 19.2241 23.3862 19.0303 23.8289Z"></path></g></svg>