<svg xmlns="http://www.w3.org/2000/svg" xmlns:xlink="http://www.w3.org/1999/xlink" width="26" height="26.001953125" viewBox="0 0 26 26.001953125" fill="none"><g opacity="0.7"><path   fill-rule="evenodd"  fill="#000000"  d="M17.2735 0.002C17.4462 -0.0110008 17.63 0.0463911 17.7735 0.192L22.9735 5.392C23.1171 5.53501 23.176 5.72039 23.1635 5.892L23.1635 22.752C23.1635 24.5461 21.7087 26.002 19.9135 26.002L5.61353 26.002C3.82046 26.002 2.36353 24.5461 2.36353 22.752L2.36353 3.252C2.36353 1.45789 3.82046 0.002 5.61353 0.002L17.2735 0.002ZM16.6635 5.8518L16.6635 1.3018L5.61353 1.3018C4.53784 1.3018 3.66353 2.17533 3.66353 3.2518L3.66353 22.7518C3.66353 23.8283 4.53784 24.7018 5.61353 24.7018L19.9135 24.7018C20.9892 24.7018 21.8635 23.8283 21.8635 22.7518L21.8635 6.5018L17.3135 6.5018C16.955 6.5018 16.6635 6.21218 16.6635 5.8518ZM20.9448 5.2046L17.9648 2.2246L17.9648 5.2046L20.9448 5.2046ZM12.5737 9.2925C12.3198 9.03859 11.9076 9.03859 11.6537 9.2925L7.75373 13.1925C7.49982 13.4464 7.49982 13.8586 7.75373 14.1125C8.00763 14.3664 8.41982 14.3664 8.67373 14.1125L11.4637 11.3225L11.4637 20.1525C11.4637 20.5117 11.7552 20.8025 12.1137 20.8025C12.4723 20.8025 12.7637 20.5117 12.7637 20.1525L12.7637 11.3225L15.5537 14.1125C15.8076 14.3664 16.2198 14.3664 16.4737 14.1125C16.7276 13.8586 16.7276 13.4464 16.4737 13.1925L12.5737 9.2925Z"></path></g></svg>