<svg xmlns="http://www.w3.org/2000/svg" xmlns:xlink="http://www.w3.org/1999/xlink" width="16" height="16" viewBox="0 0 16 16" fill="none"><g opacity="0.3"><path   fill-rule="evenodd"  fill="#000000"  d="M8.35 2.04C8.44355 1.98642 8.55645 1.98642 8.65 2.04L14.82 5.57C15.0526 5.702 15.0526 6.058 14.82 6.19L8.65 9.72C8.55645 9.77358 8.44355 9.77358 8.35 9.72L2.17 6.19C1.93742 6.058 1.93742 5.702 2.17 5.57L8.35 2.04ZM8.49 2.7554L13.97 5.8854L8.49 9.0154L3.02 5.8854L8.49 2.7554ZM2.04 7.837C2.12316 7.66462 2.32148 7.59636 2.48 7.687L8.5 11.127L14.52 7.687C14.6785 7.59636 14.8768 7.66462 14.96 7.837C15.0432 8.0098 14.9798 8.22636 14.82 8.317L8.65 11.837C8.55645 11.8912 8.44355 11.8912 8.35 11.837L2.17 8.317C2.01019 8.22636 1.95684 8.0098 2.04 7.837ZM2.04 9.9546C2.12316 9.78222 2.32148 9.71396 2.48 9.8046L8.5 13.2446L14.52 9.8046C14.6785 9.71396 14.8768 9.78222 14.96 9.9546C15.0432 10.1274 14.9798 10.344 14.82 10.4346L8.65 13.9546C8.55645 14.0088 8.44355 14.0088 8.35 13.9546L2.17 10.4346C2.01019 10.344 1.95684 10.1274 2.04 9.9546Z"></path></g></svg>