<svg xmlns="http://www.w3.org/2000/svg" xmlns:xlink="http://www.w3.org/1999/xlink" width="20" height="20" viewBox="0 0 20 20" fill="none"><g opacity="0.7"><path d="M16.8356 19.9998L3.26431 19.9998C2.19289 19.9998 1.30005 19.107 1.30005 18.0356L1.30005 1.96427C1.30005 0.89285 2.19289 0 3.26431 0L16.8356 0C17.9071 0 18.7999 0.89285 18.7999 1.96427L18.7999 18.0356C18.7999 19.107 17.9071 19.9998 16.8356 19.9998ZM3.26431 1.07142C2.76432 1.07142 2.37148 1.46428 2.37148 1.96427L2.37148 18.0356C2.37148 18.5356 2.76432 18.9284 3.26431 18.9284L16.8356 18.9284C17.3356 18.9284 17.7285 18.5356 17.7285 18.0356L17.7285 1.96427C17.7285 1.46428 17.3356 1.07142 16.8356 1.07142L3.26431 1.07142Z"   fill="#000000" ></path><path d="M9.51418 9.21507C8.22848 9.21507 7.19278 8.17937 7.19278 6.89367C7.19278 5.60796 8.22848 4.57227 9.51418 4.57227C10.7999 4.57227 11.8356 5.60796 11.8356 6.89367C11.8356 8.17937 10.7999 9.21507 9.51418 9.21507ZM9.51418 5.64369C8.83561 5.64369 8.2642 6.2151 8.2642 6.89367C8.2642 7.57224 8.83561 8.14365 9.51418 8.14365C10.1928 8.14365 10.7642 7.57224 10.7642 6.89367C10.7642 6.2151 10.2285 5.64369 9.51418 5.64369ZM10.5142 15.4293L5.26423 15.4293C4.9785 15.4293 4.72852 15.1793 4.72852 14.8936C4.72852 12.2508 6.87136 10.1079 9.51418 10.1079C10.407 10.1079 11.2999 10.3579 12.0856 10.8579C12.3356 11.0008 12.407 11.3579 12.2642 11.6079C12.1213 11.8579 11.7642 11.9293 11.5142 11.7865C10.907 11.3936 10.2285 11.2151 9.51418 11.2151C7.65705 11.2151 6.08564 12.6079 5.83564 14.3936L10.4785 14.3936C10.7642 14.3936 11.0142 14.6436 11.0142 14.9293C11.0142 15.215 10.7999 15.4293 10.5142 15.4293Z"   fill="#000000" ></path><path d="M14.8355 13.2863L11.9783 13.2863C11.6926 13.2863 11.4426 13.0363 11.4426 12.7506C11.4426 12.4648 11.6926 12.2148 11.9783 12.2148L14.8355 12.2148C15.1212 12.2148 15.3712 12.4648 15.3712 12.7506C15.3712 13.0363 15.1212 13.2863 14.8355 13.2863ZM14.8355 15.1434L11.9783 15.1434C11.6926 15.1434 11.4426 14.8934 11.4426 14.6077C11.4426 14.322 11.6926 14.072 11.9783 14.072L14.8355 14.072C15.1212 14.072 15.3712 14.322 15.3712 14.6077C15.3712 14.8934 15.1212 15.1434 14.8355 15.1434Z"   fill="#000000" ></path></g></svg>