<svg xmlns="http://www.w3.org/2000/svg" xmlns:xlink="http://www.w3.org/1999/xlink" width="20" height="20" viewBox="0 0 20 20" fill="none"><path d="M16.8354 19.9998L3.26407 19.9998C2.19265 19.9998 1.2998 19.107 1.2998 18.0356L1.2998 1.96427C1.2998 0.89285 2.19265 0 3.26407 0L16.8354 0C17.9068 0 18.7997 0.89285 18.7997 1.96427L18.7997 18.0356C18.7997 19.107 17.9068 19.9998 16.8354 19.9998ZM3.26407 1.07142C2.76408 1.07142 2.37123 1.46428 2.37123 1.96427L2.37123 18.0356C2.37123 18.5356 2.76408 18.9284 3.26407 18.9284L16.8354 18.9284C17.3354 18.9284 17.7282 18.5356 17.7282 18.0356L17.7282 1.96427C17.7282 1.46428 17.3354 1.07142 16.8354 1.07142L3.26407 1.07142Z"   fill="#0065FB" ></path><path d="M9.51418 9.21507C8.22848 9.21507 7.19278 8.17937 7.19278 6.89367C7.19278 5.60796 8.22848 4.57227 9.51418 4.57227C10.7999 4.57227 11.8356 5.60796 11.8356 6.89367C11.8356 8.17937 10.7999 9.21507 9.51418 9.21507ZM9.51418 5.64369C8.83561 5.64369 8.2642 6.2151 8.2642 6.89367C8.2642 7.57224 8.83561 8.14365 9.51418 8.14365C10.1928 8.14365 10.7642 7.57224 10.7642 6.89367C10.7642 6.2151 10.2285 5.64369 9.51418 5.64369ZM10.5142 15.4293L5.26423 15.4293C4.9785 15.4293 4.72852 15.1793 4.72852 14.8936C4.72852 12.2508 6.87136 10.1079 9.51418 10.1079C10.407 10.1079 11.2999 10.3579 12.0856 10.8579C12.3356 11.0008 12.407 11.3579 12.2642 11.6079C12.1213 11.8579 11.7642 11.9293 11.5142 11.7865C10.907 11.3936 10.2285 11.2151 9.51418 11.2151C7.65705 11.2151 6.08564 12.6079 5.83564 14.3936L10.4785 14.3936C10.7642 14.3936 11.0142 14.6436 11.0142 14.9293C11.0142 15.215 10.7999 15.4293 10.5142 15.4293Z"   fill="#0065FB" ></path><path d="M14.8352 13.2863L11.9781 13.2863C11.6924 13.2863 11.4424 13.0363 11.4424 12.7506C11.4424 12.4648 11.6924 12.2148 11.9781 12.2148L14.8352 12.2148C15.1209 12.2148 15.3709 12.4648 15.3709 12.7506C15.3709 13.0363 15.1209 13.2863 14.8352 13.2863ZM14.8352 15.1434L11.9781 15.1434C11.6924 15.1434 11.4424 14.8934 11.4424 14.6077C11.4424 14.322 11.6924 14.072 11.9781 14.072L14.8352 14.072C15.1209 14.072 15.3709 14.322 15.3709 14.6077C15.3709 14.8934 15.1209 15.1434 14.8352 15.1434Z"   fill="#0065FB" ></path></svg>