<svg xmlns="http://www.w3.org/2000/svg" xmlns:xlink="http://www.w3.org/1999/xlink" width="20" height="20" viewBox="0 0 20 20" fill="none"><path d="M16.8421 2.9158L11.6316 2.9158L14.3684 0.970824C14.6316 0.813116 14.6842 0.497715 14.4737 0.234879C14.3158 -0.0279573 14 -0.0805226 13.7368 0.129746L10 2.7581L6.26318 0.129746C6 -0.0279573 5.68423 0.0246103 5.52633 0.234879C5.36843 0.497715 5.42106 0.813116 5.63158 0.970824L8.36844 2.9158L3.15791 2.9158C1.42106 2.9158 0 4.33511 0 6.06982L0 16.8461C0 18.5808 1.42106 20.0001 3.15791 20.0001L16.8421 20.0001C18.579 20.0001 20 18.5808 20 16.8461L20 6.06982C20 4.33511 18.579 2.9158 16.8421 2.9158ZM18.9474 16.8461C18.9474 18.0025 18 18.9487 16.8421 18.9487L3.15791 18.9487C2.00001 18.9487 1.05264 18.0025 1.05264 16.8461L1.05264 6.06982C1.05264 4.91334 2.00001 3.96713 3.15791 3.96713L16.8421 3.96713C18 3.96713 18.9474 4.91334 18.9474 6.06982L18.9474 16.8461Z"   fill="#0065FB" ></path><path d="M13.9477 10.5379L8.26352 7.27878C8.10562 7.17365 7.89509 7.12109 7.73719 7.12109C7.21089 7.12109 6.68457 7.54163 6.68457 8.17242L6.68457 14.7433C6.68457 15.3741 7.21089 15.7947 7.73719 15.7947C7.89509 15.7947 8.10562 15.7421 8.26352 15.6369L13.9477 12.3778C14.6319 11.9573 14.6319 10.9585 13.9477 10.5379ZM7.73719 14.7433L7.73719 8.17242L13.4214 11.4316L7.73719 14.7433Z"   fill="#0065FB" ></path></svg>