<svg xmlns="http://www.w3.org/2000/svg" xmlns:xlink="http://www.w3.org/1999/xlink" width="28" height="28" viewBox="0 0 28 28" fill="none"><path fill-rule="evenodd"  fill="url(#linear_border_xUTNv1hsw4mPF06KeNnct_0)"  d="M22 0L6 0C2.68629 0 0 2.68629 0 6L0 22C0 25.3137 2.68629 28 6 28L22 28C25.3137 28 28 25.3137 28 22L28 6C28 2.68629 25.3137 0 22 0ZM2 6C2 3.79086 3.79086 2 6 2L22 2C24.2091 2 26 3.79086 26 6L26 22C26 24.2091 24.2091 26 22 26L6 26C3.79086 26 2 24.2091 2 22L2 6Z"></path><path   fill="url(#linear_border_6xVYBo2GWyju6cgupESG2_0)"  d="M9 13L19 13L19 15L9 15L9 13Z"></path><path   fill="url(#linear_border_CA2ILS77IDxDuAW3FE8op_0)"  d="M15 9L15 19L13 19L13 9L15 9Z"></path><defs><linearGradient id="linear_border_xUTNv1hsw4mPF06KeNnct_0" x1="14.921479999999999" y1="9.364600000000001" x2="24.36952" y2="28" gradientUnits="userSpaceOnUse"><stop offset="0" stop-color="#47D59F"  /><stop offset="1" stop-color="#37CCED"  /></linearGradient><linearGradient id="linear_border_6xVYBo2GWyju6cgupESG2_0" x1="14.3291015625" y1="14" x2="17.703369140625" y2="14" gradientUnits="userSpaceOnUse"><stop offset="0" stop-color="#47D59F"  /><stop offset="1" stop-color="#37CCED"  /></linearGradient><linearGradient id="linear_border_CA2ILS77IDxDuAW3FE8op_0" x1="14" y1="14.3291015625" x2="14" y2="17.703399658203125" gradientUnits="userSpaceOnUse"><stop offset="0" stop-color="#47D59F"  /><stop offset="1" stop-color="#37CCED"  /></linearGradient></defs></svg>