<svg t="1727409054980" class="icon" viewBox="0 0 1024 1024" version="1.1" xmlns="http://www.w3.org/2000/svg" p-id="5121" width="256" height="256"><path d="M870.101333 633.344c13.226667 0 24.32 10.368 25.728 23.893333l0.170667 3.370667v208.512l-0.213333 3.370667a26.24 26.24 0 0 1-25.685334 23.509333 26.24 26.24 0 0 1-25.685333-23.936l-0.170667-3.328v-208.554667l0.213334-3.328a26.24 26.24 0 0 1 25.642666-23.509333z m-175.701333-4.48l3.328 0.256a25.856 25.856 0 0 1 18.773333 12.714667l1.621334 3.285333 91.562666 210.602667 1.152 3.157333 0.768 3.157333a27.221333 27.221333 0 0 1-16.554666 29.952 25.386667 25.386667 0 0 1-31.232-11.52l-1.450667-2.986666-17.92-41.258667h-100.906667l-18.090666 41.6-1.536 2.986667a25.344 25.344 0 0 1-32.725334 10.496 27.221333 27.221333 0 0 1-13.952-32.853334l1.194667-3.072 91.605333-210.645333 1.578667-3.2a25.770667 25.770667 0 0 1 19.285333-12.501333l3.413334-0.170667h0.085333zM736 128c53.034667 0 96 44.842667 96 100.181333v300.501334c0 21.205333-16.469333 38.4-36.778667 38.4-20.352 0-36.821333-17.194667-36.821333-38.4V228.181333a23.04 23.04 0 0 0-19.370667-23.168l-2.986666-0.213333H224a22.741333 22.741333 0 0 0-22.186667 20.181333l-0.213333 3.2V762.453333a23.04 23.04 0 0 0 19.370667 23.168l3.029333 0.170667H512v0.170667l0.810667 0.085333c18.816 2.133333 33.024 18.773333 32.853333 38.570667-0.213333 19.754667-14.762667 36.138667-33.621333 37.845333l-0.042667 0.128H224c-53.034667 0-96-44.8-96-100.138667V228.181333C128 172.8 170.965333 128 224 128h512z m-42.026667 592.213333l-27.050666 62.293334h54.058666l-27.008-62.293334zM581.973333 315.008h-200.533333a31.146667 31.146667 0 0 0-30.250667 26.282667l-11.52 64.64c-3.541333 19.797333 11.050667 38.058667 30.336 38.016l3.669334-0.213334a31.402667 31.402667 0 0 0 26.538666-26.026666l6.826667-38.4h43.861333v210.218666h-26.666666c-17.024 0-30.805333 14.421333-30.805334 32.170667s13.781333 32.170667 30.805334 32.170667h114.944c17.024 0 30.805333-14.421333 30.805333-32.170667l-0.213333-3.754667a31.317333 31.317333 0 0 0-30.592-28.373333h-26.666667V379.221333h43.690667l6.485333 37.717334c2.56 17.92 18.816 30.08 35.882667 26.88 17.066667-3.2 28.288-20.48 24.746666-38.229334l-11.050666-64.170666a31.232 31.232 0 0 0-30.293334-26.453334z" fill="#000000" p-id="5122"></path><path d="M0 0m0 0l1024 0q0 0 0 0l0 1024q0 0 0 0l-1024 0q0 0 0 0l0-1024q0 0 0 0Z" fill="#000000" fill-opacity="0" p-id="5123"></path></svg>