<svg xmlns="http://www.w3.org/2000/svg" xmlns:xlink="http://www.w3.org/1999/xlink" width="16" height="16" viewBox="0 0 16 16" fill="none"><path    stroke="rgba(98, 100, 102, 1)" stroke-width="1.2000000476837158" stroke-linejoin="round" stroke-linecap="round"  d="M5.33008 1.33008L5.33008 3.33008"></path><path    stroke="rgba(98, 100, 102, 1)" stroke-width="1.2000000476837158" stroke-linejoin="round" stroke-linecap="round"  d="M10.6699 1.33008L10.6699 3.33008"></path><path    stroke="rgba(98, 100, 102, 1)" stroke-width="1.2000000476837158" stroke-linejoin="round" stroke-linecap="round"  d="M2.33008 6.06006L13.6602 6.06006"></path><path d="M14 5.66251L14 11.3276C14 13.3271 13 14.6601 10.6666 14.6601L5.33336 14.6601C2.99996 14.6601 2 13.3271 2 11.3276L2 5.66251C2 3.66307 2.99996 2.33008 5.33336 2.33008L10.6666 2.33008C13 2.33008 14 3.66307 14 5.66251Z" stroke="rgba(98, 100, 102, 1)" stroke-width="1.2000000476837158" stroke-linejoin="round" stroke-linecap="round" ></path><g opacity="0"></g><path    stroke="rgba(98, 100, 102, 1)" stroke-width="1.2000000476837158" stroke-linejoin="round" stroke-linecap="round"  d="M10.1299 9.13477L10.7999 9.13477"></path><path    stroke="rgba(98, 100, 102, 1)" stroke-width="1.2000000476837158" stroke-linejoin="round" stroke-linecap="round"  d="M10.1299 11.1348L10.7999 11.1348"></path><path    stroke="rgba(98, 100, 102, 1)" stroke-width="1.2000000476837158" stroke-linejoin="round" stroke-linecap="round"  d="M7.66992 9.13477L8.33984 9.13477"></path><path    stroke="rgba(98, 100, 102, 1)" stroke-width="1.2000000476837158" stroke-linejoin="round" stroke-linecap="round"  d="M7.66992 11.1348L8.33984 11.1348"></path><path    stroke="rgba(98, 100, 102, 1)" stroke-width="1.2000000476837158" stroke-linejoin="round" stroke-linecap="round"  d="M5.2002 9.13477L5.87024 9.13477"></path><path    stroke="rgba(98, 100, 102, 1)" stroke-width="1.2000000476837158" stroke-linejoin="round" stroke-linecap="round"  d="M5.2002 11.1348L5.87024 11.1348"></path></svg>