<svg xmlns="http://www.w3.org/2000/svg" xmlns:xlink="http://www.w3.org/1999/xlink" width="16" height="16" viewBox="0 0 16 16" fill="none">
<path d="M10.0523 2.53369L13.522 2.53369L13.522 6.00338L10.0523 6.00338L10.0523 2.53369ZM9.23984 1.53369C9.23676 1.53369 9.2337 1.53377 9.23064 1.53392C9.22758 1.53407 9.22451 1.53429 9.22147 1.53459C9.21842 1.53489 9.21537 1.53527 9.21233 1.53572C9.2093 1.53617 9.20628 1.5367 9.20326 1.53729C9.20025 1.53789 9.19726 1.53856 9.19428 1.53931C9.1913 1.54006 9.18834 1.54087 9.18542 1.54176C9.18248 1.54266 9.17956 1.54362 9.17667 1.54465C9.17378 1.54569 9.17092 1.54679 9.16809 1.54796C9.16527 1.54914 9.16245 1.55038 9.15967 1.55169C9.15691 1.55301 9.15416 1.55438 9.15145 1.55583C9.14875 1.55728 9.14608 1.55879 9.14345 1.56037C9.14081 1.56195 9.13822 1.56359 9.13567 1.56529C9.13312 1.56699 9.13061 1.56876 9.12816 1.5706C9.12569 1.57242 9.12326 1.57431 9.12089 1.57625C9.11853 1.5782 9.1162 1.58021 9.11392 1.58227C9.11166 1.58432 9.10944 1.58644 9.10727 1.58861C9.10509 1.59078 9.10297 1.593 9.10092 1.59527C9.09886 1.59755 9.09686 1.59987 9.09491 1.60224C9.09295 1.60461 9.09106 1.60704 9.08923 1.6095C9.08741 1.61196 9.08564 1.61447 9.08394 1.61702C9.08223 1.61957 9.08059 1.62217 9.07901 1.6248C9.07744 1.62743 9.07594 1.63009 9.07448 1.6328C9.07303 1.63551 9.07166 1.63825 9.07034 1.64102C9.06903 1.6438 9.06778 1.64661 9.06661 1.64944C9.06544 1.65227 9.06434 1.65513 9.0633 1.65802C9.06227 1.66092 9.06131 1.66383 9.06042 1.66677C9.05953 1.6697 9.0587 1.67265 9.05797 1.67563C9.05722 1.67861 9.05655 1.6816 9.05595 1.68461C9.05534 1.68762 9.05483 1.69064 9.05437 1.69368C9.05392 1.69672 9.05355 1.69976 9.05325 1.70282C9.05295 1.70587 9.05272 1.70893 9.05256 1.71199C9.05242 1.71505 9.05234 1.71812 9.05234 1.72119L9.05234 6.81588C9.05234 6.81896 9.05242 6.82202 9.05256 6.82508C9.05272 6.82814 9.05295 6.83121 9.05325 6.83425C9.05355 6.8373 9.05392 6.84035 9.05437 6.84339C9.05483 6.84643 9.05534 6.84944 9.05595 6.85246C9.05655 6.85547 9.05722 6.85846 9.05797 6.86144C9.0587 6.86441 9.05953 6.86736 9.06042 6.8703C9.06131 6.87324 9.06227 6.87616 9.0633 6.87905C9.06434 6.88194 9.06544 6.8848 9.06661 6.88763C9.06778 6.89046 9.06903 6.89327 9.07034 6.89605C9.07166 6.89882 9.07303 6.90157 9.07448 6.90427C9.07594 6.90697 9.07744 6.90964 9.07901 6.91227C9.08059 6.91491 9.08223 6.9175 9.08394 6.92005C9.08564 6.9226 9.08741 6.92511 9.08923 6.92757C9.09106 6.93003 9.09295 6.93246 9.09491 6.93483C9.09686 6.93719 9.09886 6.93952 9.10092 6.9418C9.10297 6.94407 9.10509 6.94628 9.10727 6.94846C9.10944 6.95063 9.11166 6.95275 9.11392 6.9548C9.1162 6.95686 9.11853 6.95886 9.12089 6.96082C9.12326 6.96277 9.12569 6.96464 9.12816 6.96647C9.13061 6.9683 9.13312 6.97008 9.13567 6.97178C9.13822 6.97349 9.14081 6.97513 9.14345 6.97671C9.14608 6.97828 9.14875 6.97978 9.15145 6.98124C9.15416 6.98269 9.15691 6.98407 9.15967 6.98538C9.16245 6.98669 9.16527 6.98794 9.16809 6.98911C9.17092 6.99028 9.17378 6.99138 9.17667 6.99241C9.17956 6.99346 9.18248 6.99441 9.18542 6.9953C9.18834 6.99619 9.1913 6.99702 9.19428 6.99775C9.19726 6.9985 9.20025 6.99918 9.20326 6.99977C9.20628 7.00038 9.2093 7.00089 9.21233 7.00135C9.21537 7.0018 9.21842 7.00218 9.22147 7.00247C9.22451 7.00277 9.22758 7.003 9.23064 7.00316C9.2337 7.0033 9.23676 7.00338 9.23984 7.00338L14.3345 7.00338C14.3376 7.00338 14.3407 7.0033 14.3437 7.00316C14.3468 7.003 14.3499 7.00277 14.3529 7.00247C14.356 7.00218 14.359 7.0018 14.362 7.00135C14.3651 7.00089 14.3681 7.00038 14.3711 6.99977C14.3741 6.99918 14.3771 6.9985 14.3801 6.99775C14.3831 6.99702 14.386 6.99619 14.389 6.9953C14.3919 6.99441 14.3948 6.99346 14.3977 6.99241C14.4006 6.99138 14.4035 6.99028 14.4063 6.98911C14.4091 6.98794 14.4119 6.98669 14.4147 6.98538C14.4175 6.98407 14.4202 6.98269 14.4229 6.98124C14.4256 6.97978 14.4283 6.97828 14.4309 6.97671C14.4336 6.97513 14.4362 6.97349 14.4387 6.97178C14.4412 6.97008 14.4438 6.9683 14.4462 6.96647C14.4487 6.96464 14.4511 6.96277 14.4535 6.96082C14.4558 6.95886 14.4582 6.95686 14.4605 6.9548C14.4627 6.95275 14.4649 6.95063 14.4671 6.94846C14.4693 6.94628 14.4714 6.94407 14.4735 6.9418C14.4755 6.93952 14.4775 6.93719 14.4795 6.93483C14.4814 6.93246 14.4833 6.93003 14.4851 6.92757C14.487 6.92511 14.4887 6.9226 14.4904 6.92005C14.4921 6.9175 14.4938 6.91491 14.4954 6.91227C14.4969 6.90963 14.4984 6.90697 14.4999 6.90427C14.5013 6.90157 14.5027 6.89882 14.504 6.89605C14.5053 6.89327 14.5066 6.89046 14.5077 6.88763C14.5089 6.8848 14.51 6.88194 14.5111 6.87905C14.5121 6.87616 14.5131 6.87324 14.514 6.8703C14.5148 6.86736 14.5157 6.86441 14.5164 6.86144C14.5172 6.85846 14.5178 6.85547 14.5184 6.85246C14.519 6.84944 14.5195 6.84643 14.52 6.84339C14.5205 6.84035 14.5208 6.8373 14.5211 6.83425C14.5214 6.83121 14.5217 6.82814 14.5218 6.82508C14.522 6.82202 14.522 6.81896 14.522 6.81588L14.522 1.72119C14.522 1.71812 14.522 1.71505 14.5218 1.71199C14.5217 1.70893 14.5214 1.70587 14.5211 1.70282C14.5208 1.69976 14.5205 1.69672 14.52 1.69368C14.5195 1.69064 14.519 1.68762 14.5184 1.68461C14.5178 1.6816 14.5172 1.67861 14.5164 1.67563C14.5157 1.67265 14.5148 1.6697 14.514 1.66677C14.5131 1.66383 14.5121 1.66092 14.5111 1.65802C14.51 1.65513 14.5089 1.65227 14.5077 1.64944C14.5066 1.64661 14.5053 1.6438 14.504 1.64102C14.5027 1.63825 14.5013 1.63551 14.4999 1.6328C14.4984 1.63009 14.4969 1.62743 14.4954 1.6248C14.4938 1.62217 14.4921 1.61957 14.4904 1.61702C14.4887 1.61447 14.487 1.61196 14.4851 1.6095C14.4833 1.60704 14.4814 1.60461 14.4795 1.60224C14.4775 1.59987 14.4755 1.59755 14.4735 1.59527C14.4714 1.593 14.4693 1.59078 14.4671 1.58861C14.4649 1.58644 14.4627 1.58432 14.4605 1.58227C14.4582 1.58021 14.4558 1.5782 14.4535 1.57625C14.4511 1.57431 14.4487 1.57242 14.4462 1.5706C14.4438 1.56876 14.4412 1.56699 14.4387 1.56529C14.4362 1.56359 14.4336 1.56195 14.4309 1.56037C14.4283 1.55879 14.4256 1.55728 14.4229 1.55583C14.4202 1.55438 14.4175 1.55301 14.4147 1.55169C14.4119 1.55038 14.4091 1.54914 14.4063 1.54796C14.4035 1.54679 14.4006 1.54569 14.3977 1.54465C14.3948 1.54362 14.3919 1.54266 14.389 1.54176C14.386 1.54087 14.3831 1.54006 14.3801 1.53931C14.3771 1.53856 14.3741 1.53789 14.3711 1.53729C14.3681 1.5367 14.3651 1.53617 14.362 1.53572C14.359 1.53527 14.356 1.5349 14.3529 1.53459C14.3499 1.53429 14.3468 1.53407 14.3437 1.53392C14.3407 1.53377 14.3376 1.53369 14.3345 1.53369L9.23984 1.53369ZM2.53125 10.0524L6.00094 10.0524L6.00094 13.5221L2.53125 13.5221L2.53125 10.0524ZM1.71875 9.05244C1.71568 9.05244 1.71261 9.05252 1.70955 9.05266C1.70648 9.05282 1.70343 9.05305 1.70037 9.05335C1.69732 9.05364 1.69428 9.05402 1.69123 9.05447C1.6882 9.05493 1.68518 9.05544 1.68217 9.05605C1.67916 9.05664 1.67617 9.05732 1.67319 9.05807C1.67021 9.0588 1.66726 9.05963 1.66433 9.06052C1.66139 9.06141 1.65847 9.06236 1.65558 9.06339C1.65269 9.06444 1.64983 9.06553 1.647 9.06671C1.64417 9.06788 1.64136 9.06913 1.63858 9.07044C1.63581 9.07175 1.63307 9.07313 1.63036 9.07458C1.62765 9.07603 1.62498 9.07753 1.62236 9.07911C1.61972 9.08069 1.61713 9.08233 1.61458 9.08403C1.61203 9.08574 1.60952 9.0875 1.60706 9.08933C1.60459 9.09116 1.60217 9.09305 1.5998 9.095C1.59743 9.09696 1.59511 9.09896 1.59283 9.10102C1.59056 9.10307 1.58834 9.10519 1.58617 9.10736C1.58399 9.10954 1.58188 9.11175 1.57983 9.11402C1.57777 9.1163 1.57576 9.11863 1.57381 9.12099C1.57186 9.12336 1.56998 9.12578 1.56816 9.12825C1.56632 9.13071 1.56455 9.13322 1.56284 9.13577C1.56114 9.13832 1.5595 9.14091 1.55793 9.14355C1.55635 9.14618 1.55484 9.14885 1.55339 9.15155C1.55194 9.15425 1.55056 9.157 1.54925 9.15977C1.54794 9.16255 1.5467 9.16536 1.54552 9.16819C1.54435 9.17102 1.54324 9.17388 1.54221 9.17677C1.54118 9.17966 1.54021 9.18258 1.53932 9.18552C1.53843 9.18844 1.53761 9.19139 1.53687 9.19438C1.53612 9.19736 1.53545 9.20035 1.53485 9.20336C1.53425 9.20638 1.53373 9.20939 1.53328 9.21243C1.53283 9.21547 1.53245 9.21852 1.53215 9.22157C1.53185 9.22461 1.53163 9.22768 1.53148 9.23074C1.53133 9.2338 1.53125 9.23686 1.53125 9.23994L1.53125 14.3346C1.53125 14.3377 1.53133 14.3408 1.53148 14.3438C1.53163 14.3469 1.53185 14.35 1.53215 14.353C1.53245 14.356 1.53283 14.3591 1.53328 14.3621C1.53373 14.3652 1.53425 14.3682 1.53485 14.3712C1.53545 14.3742 1.53612 14.3772 1.53687 14.3802C1.53761 14.3832 1.53843 14.3861 1.53932 14.389C1.54021 14.392 1.54118 14.3949 1.54221 14.3978C1.54324 14.4007 1.54435 14.4036 1.54552 14.4064C1.5467 14.4092 1.54794 14.412 1.54925 14.4148C1.55056 14.4176 1.55194 14.4203 1.55339 14.423C1.55484 14.4257 1.55635 14.4284 1.55792 14.431C1.5595 14.4337 1.56114 14.4363 1.56284 14.4388C1.56455 14.4413 1.56632 14.4439 1.56814 14.4463C1.56997 14.4488 1.57186 14.4512 1.57381 14.4536C1.57576 14.4559 1.57777 14.4583 1.57983 14.4606C1.58188 14.4628 1.58399 14.465 1.58617 14.4672C1.58834 14.4694 1.59056 14.4715 1.59283 14.4735C1.59511 14.4756 1.59743 14.4776 1.5998 14.4796C1.60217 14.4815 1.60459 14.4834 1.60706 14.4852C1.60952 14.4871 1.61203 14.4888 1.61458 14.4905C1.61713 14.4922 1.61972 14.4939 1.62236 14.4955C1.62498 14.497 1.62765 14.4985 1.63036 14.5C1.63307 14.5014 1.63581 14.5028 1.63858 14.5041C1.64136 14.5054 1.64417 14.5067 1.647 14.5078C1.64983 14.509 1.65269 14.5101 1.65558 14.5112C1.65847 14.5122 1.66139 14.5132 1.66433 14.514C1.66726 14.5149 1.67021 14.5158 1.67319 14.5165C1.67617 14.5173 1.67916 14.5179 1.68217 14.5185C1.68518 14.5191 1.6882 14.5196 1.69123 14.5201C1.69428 14.5205 1.69732 14.5209 1.70037 14.5212C1.70343 14.5215 1.70648 14.5218 1.70955 14.5219C1.71261 14.522 1.71568 14.5221 1.71875 14.5221L6.81344 14.5221C6.81651 14.5221 6.81958 14.522 6.82264 14.5219C6.8257 14.5218 6.82876 14.5215 6.83181 14.5212C6.83486 14.5209 6.83791 14.5205 6.84095 14.5201C6.84398 14.5196 6.847 14.5191 6.85002 14.5185C6.85303 14.5179 6.85602 14.5173 6.859 14.5165C6.86197 14.5158 6.86492 14.5149 6.86786 14.514C6.8708 14.5132 6.87372 14.5122 6.87661 14.5112C6.8795 14.5101 6.88236 14.509 6.88519 14.5078C6.88801 14.5067 6.89083 14.5054 6.89361 14.5041C6.89637 14.5028 6.89912 14.5014 6.90183 14.5C6.90453 14.4985 6.9072 14.497 6.90983 14.4955C6.91247 14.4939 6.91506 14.4922 6.91761 14.4905C6.92016 14.4888 6.92267 14.4871 6.92512 14.4852C6.92759 14.4834 6.93002 14.4815 6.93239 14.4796C6.93475 14.4776 6.93708 14.4756 6.93936 14.4735C6.94162 14.4715 6.94384 14.4694 6.94601 14.4672C6.94819 14.465 6.95031 14.4628 6.95236 14.4606C6.95442 14.4583 6.95642 14.4559 6.95837 14.4536C6.96033 14.4512 6.9622 14.4488 6.96403 14.4463C6.96586 14.4439 6.96764 14.4413 6.96934 14.4388C6.97105 14.4363 6.97269 14.4337 6.97427 14.431C6.97584 14.4284 6.97734 14.4257 6.9788 14.423C6.98025 14.4203 6.98162 14.4176 6.98294 14.4148C6.98425 14.412 6.9855 14.4092 6.98667 14.4064C6.98784 14.4036 6.98894 14.4007 6.98997 14.3978C6.99101 14.3949 6.99197 14.392 6.99286 14.389C6.99375 14.3861 6.99458 14.3832 6.99531 14.3802C6.99606 14.3772 6.99673 14.3742 6.99733 14.3712C6.99794 14.3682 6.99845 14.3652 6.99891 14.3621C6.99936 14.3591 6.99973 14.356 7.00003 14.353C7.00033 14.35 7.00056 14.3469 7.00072 14.3438C7.00086 14.3408 7.00094 14.3377 7.00094 14.3346L7.00094 9.23994C7.00094 9.23686 7.00086 9.2338 7.00072 9.23074C7.00056 9.22768 7.00033 9.22461 7.00003 9.22157C6.99973 9.21852 6.99936 9.21547 6.99891 9.21243C6.99845 9.20939 6.99794 9.20638 6.99733 9.20336C6.99673 9.20035 6.99606 9.19736 6.99531 9.19438C6.99458 9.19139 6.99375 9.18844 6.99286 9.18552C6.99197 9.18258 6.99101 9.17966 6.98997 9.17677C6.98894 9.17388 6.98784 9.17102 6.98667 9.16819C6.9855 9.16536 6.98425 9.16255 6.98294 9.15977C6.98162 9.157 6.98025 9.15425 6.9788 9.15155C6.97734 9.14885 6.97584 9.14618 6.97427 9.14355C6.97269 9.14091 6.97105 9.13832 6.96934 9.13577C6.96764 9.13322 6.96586 9.13071 6.96403 9.12825C6.9622 9.12578 6.96033 9.12336 6.95837 9.12099C6.95642 9.11863 6.95442 9.1163 6.95236 9.11402C6.95031 9.11175 6.94819 9.10954 6.94601 9.10736C6.94384 9.10519 6.94162 9.10307 6.93936 9.10102C6.93708 9.09896 6.93475 9.09696 6.93239 9.095C6.93002 9.09305 6.92759 9.09116 6.92512 9.08933C6.92267 9.0875 6.92016 9.08574 6.91761 9.08403C6.91506 9.08233 6.91247 9.08069 6.90983 9.07911C6.9072 9.07753 6.90453 9.07603 6.90183 9.07458C6.89912 9.07313 6.89637 9.07175 6.89361 9.07044C6.89083 9.06913 6.88801 9.06788 6.88519 9.06671C6.88236 9.06553 6.8795 9.06444 6.87661 9.06339C6.87372 9.06236 6.8708 9.06141 6.86786 9.06052C6.86492 9.05963 6.86197 9.0588 6.859 9.05807C6.85602 9.05732 6.85303 9.05664 6.85002 9.05605C6.847 9.05544 6.84398 9.05493 6.84095 9.05447C6.83791 9.05402 6.83486 9.05364 6.83181 9.05335C6.82876 9.05305 6.8257 9.05282 6.82264 9.05266C6.81958 9.05252 6.81651 9.05244 6.81344 9.05244L1.71875 9.05244ZM2.86672 3.50447L4.48734 3.50447C4.44341 3.53227 4.39978 3.56055 4.35647 3.58933C4.31317 3.6181 4.2702 3.64736 4.22756 3.67711C4.18492 3.70686 4.14261 3.7371 4.10066 3.7678C4.0587 3.7985 4.01709 3.82969 3.97584 3.86133C3.93459 3.89297 3.8937 3.92508 3.85317 3.95766C3.81266 3.99024 3.7725 4.02325 3.73272 4.05674C3.69294 4.09022 3.65355 4.12414 3.61453 4.15852C3.57552 4.19289 3.53691 4.22771 3.49867 4.26294C3.46045 4.29819 3.42264 4.33386 3.38522 4.36996C3.3478 4.40607 3.31078 4.44258 3.27419 4.47952C3.23761 4.51646 3.20144 4.5538 3.16569 4.59155C3.12994 4.6293 3.09462 4.66746 3.05973 4.70602C3.02485 4.74457 2.99041 4.78352 2.95641 4.82285C2.9224 4.86218 2.88884 4.90188 2.85573 4.94197C2.82263 4.98207 2.78998 5.02252 2.75778 5.06335C2.72559 5.10418 2.69387 5.14538 2.66261 5.18693C2.63135 5.22847 2.60056 5.27036 2.57025 5.3126C2.53994 5.35485 2.5101 5.39743 2.48075 5.44035C2.45141 5.48327 2.42255 5.5265 2.39417 5.57008C2.36581 5.61364 2.33793 5.65754 2.31055 5.70174C2.28317 5.74594 2.2563 5.79044 2.22992 5.83525C2.20355 5.88005 2.17768 5.92516 2.15233 5.97055C2.12697 6.01594 2.10214 6.06163 2.07783 6.10758C2.0535 6.15353 2.02971 6.19975 2.00644 6.24625C1.98316 6.29274 1.96041 6.33949 1.93819 6.3865C1.91598 6.4335 1.8943 6.48075 1.87314 6.52825C1.852 6.57575 1.83139 6.62349 1.81131 6.67146C1.79125 6.71941 1.77173 6.7676 1.75275 6.816C1.73377 6.86441 1.71534 6.91302 1.69745 6.96185C1.67958 7.01068 1.66226 7.05969 1.64548 7.10889C1.62871 7.15811 1.6125 7.20752 1.59684 7.2571C1.58119 7.30668 1.56609 7.35643 1.55156 7.40635C1.54885 7.4156 1.5464 7.42493 1.54423 7.43433C1.54205 7.44372 1.54015 7.45318 1.53852 7.46268C1.5369 7.47219 1.53555 7.48174 1.53448 7.49132C1.5334 7.50089 1.53261 7.5105 1.53209 7.52014C1.53158 7.52977 1.53134 7.53941 1.53138 7.54905C1.53143 7.55869 1.53175 7.56833 1.53235 7.57796C1.53296 7.58758 1.53384 7.59718 1.53499 7.60675C1.53615 7.61633 1.53759 7.62586 1.5393 7.63536C1.54101 7.64485 1.543 7.65428 1.54525 7.66366C1.54751 7.67303 1.55004 7.68233 1.55284 7.69157C1.55564 7.7008 1.5587 7.70994 1.56203 7.71899C1.56536 7.72803 1.56895 7.73699 1.5728 7.74583C1.57664 7.75468 1.58074 7.76341 1.58509 7.77202C1.58945 7.78063 1.59405 7.7891 1.59889 7.79743C1.60373 7.80577 1.60882 7.81396 1.61414 7.822C1.61946 7.83005 1.62501 7.83794 1.63078 7.84566C1.63656 7.85338 1.64256 7.86093 1.64878 7.8683C1.65499 7.87568 1.66141 7.88286 1.66805 7.88988C1.67468 7.89688 1.68151 7.90368 1.68853 7.91028C1.69556 7.91689 1.70278 7.92328 1.71017 7.92949C1.71757 7.93568 1.72514 7.94164 1.73287 7.94739C1.74063 7.95314 1.74853 7.95866 1.75659 7.96394C1.76466 7.96924 1.77286 7.97428 1.78122 7.97911C1.78958 7.98393 1.79807 7.98849 1.80669 7.99282C1.81531 7.99714 1.82405 8.00121 1.83291 8.00502C1.84177 8.00883 1.85073 8.01239 1.8598 8.01569C1.86886 8.01899 1.87801 8.02202 1.88725 8.02478C1.89649 8.02755 1.9058 8.03004 1.91519 8.03227C1.92457 8.03449 1.93402 8.03644 1.94352 8.03811C1.953 8.03979 1.96254 8.04119 1.97212 8.04232C1.98171 8.04344 1.99131 8.04428 2.00094 8.04486C2.01056 8.04543 2.0202 8.04571 2.02984 8.04572L2.03578 8.04572C2.04249 8.04571 2.0492 8.04557 2.05591 8.0453C2.0626 8.04502 2.0693 8.04461 2.07598 8.04407C2.08267 8.04352 2.08935 8.04285 2.09602 8.04203C2.10267 8.04121 2.10931 8.04027 2.11594 8.03919C2.12256 8.03811 2.12916 8.03689 2.13573 8.03553C2.14231 8.03419 2.14885 8.03272 2.15536 8.03111C2.16187 8.0295 2.16835 8.02775 2.1748 8.02588C2.18123 8.02402 2.18764 8.02202 2.194 8.01988C2.20036 8.01775 2.20668 8.0155 2.21295 8.01311C2.21922 8.01072 2.22545 8.00822 2.23162 8.0056C2.23779 8.00296 2.24391 8.00021 2.24997 7.99732C2.25603 7.99444 2.26203 7.99144 2.26797 7.98832C2.27391 7.98519 2.27978 7.98196 2.28559 7.9786C2.2914 7.97524 2.29714 7.97177 2.30281 7.96818C2.30848 7.9646 2.31407 7.96089 2.31959 7.95707C2.32511 7.95325 2.33056 7.94933 2.33592 7.9453C2.34128 7.94127 2.34655 7.93713 2.35175 7.93288C2.35695 7.92864 2.36206 7.92428 2.36708 7.91983C2.3721 7.91538 2.37703 7.91083 2.38186 7.90618C2.38669 7.90153 2.39144 7.89678 2.39609 7.89194C2.40074 7.88711 2.40529 7.88218 2.40973 7.87714C2.41417 7.87213 2.41852 7.86702 2.42277 7.86182C2.427 7.85661 2.43114 7.85133 2.43517 7.84597C2.43919 7.84061 2.44311 7.83516 2.44692 7.82963C2.45073 7.82411 2.45443 7.81852 2.45802 7.81285C2.4616 7.80718 2.46507 7.80143 2.46842 7.79561C2.47178 7.7898 2.47501 7.78393 2.47812 7.77799C2.48125 7.77205 2.48425 7.76605 2.48712 7.75999C2.49 7.75393 2.49275 7.7478 2.49537 7.74163C2.498 7.73546 2.5005 7.72922 2.50289 7.72296C2.50527 7.71669 2.50752 7.71036 2.50964 7.704C2.51177 7.69764 2.51376 7.69124 2.51562 7.68478C3.15172 5.52182 5.00719 3.83322 7.32062 3.5001C7.32833 3.49899 7.33601 3.49769 7.34367 3.49622C7.35131 3.49475 7.35892 3.49311 7.3665 3.49129C7.37408 3.48946 7.38159 3.48744 7.38908 3.48527C7.39656 3.4831 7.40398 3.48074 7.41134 3.47822C7.41872 3.47569 7.42603 3.47299 7.43326 3.47013C7.44052 3.46727 7.44769 3.46422 7.45478 3.46102C7.46189 3.45782 7.46891 3.45446 7.47586 3.45093C7.4828 3.44739 7.48966 3.44371 7.49642 3.43986C7.5032 3.436 7.50989 3.432 7.51647 3.42783C7.52305 3.42368 7.52953 3.41936 7.53591 3.41489C7.5423 3.41043 7.54856 3.40582 7.55473 3.40105C7.56091 3.3963 7.56695 3.39141 7.57289 3.38636C7.57883 3.38132 7.58464 3.37614 7.59034 3.37082C7.59605 3.3655 7.60161 3.36007 7.60705 3.35449C7.6125 3.34891 7.61781 3.34322 7.62298 3.33739C7.62816 3.33157 7.63319 3.32563 7.63809 3.31958C7.64298 3.31352 7.64773 3.30735 7.65234 3.30107C7.65695 3.29479 7.66142 3.28839 7.66573 3.28191C7.67005 3.27543 7.6742 3.26885 7.6782 3.26216C7.6822 3.25549 7.68605 3.24871 7.68973 3.24185C7.69342 3.23499 7.69695 3.22803 7.70031 3.221C7.70367 3.21399 7.70687 3.20688 7.70989 3.19971C7.71292 3.19253 7.71578 3.18529 7.71848 3.17797C7.72117 3.17066 7.72369 3.16329 7.72603 3.15586C7.72839 3.14844 7.73056 3.14096 7.73256 3.13343C7.73455 3.12591 7.73637 3.11833 7.73802 3.11072C7.73966 3.10311 7.74112 3.09546 7.74241 3.08777C7.7437 3.08008 7.74481 3.07237 7.74573 3.06464C7.74666 3.05691 7.74741 3.04916 7.74797 3.04139C7.74853 3.03362 7.74891 3.02584 7.74911 3.01805C7.74931 3.01026 7.74933 3.00247 7.74916 2.99469C7.749 2.9869 7.74866 2.97912 7.74812 2.97135C7.73016 2.70713 7.50344 2.50525 7.23859 2.50525L2.85641 2.50525C2.84807 2.50525 2.83975 2.50546 2.83142 2.50586C2.8231 2.50628 2.8148 2.5069 2.80652 2.50772C2.79822 2.50856 2.78996 2.50959 2.78172 2.51083C2.77348 2.51207 2.76528 2.51352 2.75711 2.51518C2.74894 2.51682 2.74082 2.51868 2.73275 2.52074C2.72468 2.52279 2.71666 2.52505 2.7087 2.5275C2.70073 2.52996 2.69284 2.53262 2.68502 2.53547C2.67718 2.53833 2.66943 2.54137 2.66177 2.54461C2.65409 2.54785 2.6465 2.55128 2.63898 2.55489C2.63148 2.55852 2.62408 2.56233 2.61677 2.56632C2.60945 2.57031 2.60224 2.57448 2.59512 2.57883C2.58802 2.58318 2.58103 2.5877 2.57416 2.59241C2.56728 2.59711 2.56052 2.60197 2.55387 2.607C2.54724 2.61205 2.54073 2.61725 2.53436 2.62261C2.52798 2.62798 2.52175 2.63349 2.51566 2.63916C2.50955 2.64484 2.50359 2.65066 2.49778 2.65664C2.49198 2.66261 2.48632 2.66872 2.48081 2.67497C2.47531 2.68123 2.46997 2.68762 2.46478 2.69414C2.4596 2.70066 2.45459 2.70731 2.44973 2.71408C2.44488 2.72086 2.4402 2.72775 2.43569 2.73475C2.43119 2.74176 2.42686 2.74888 2.4227 2.7561C2.41856 2.76333 2.41459 2.77065 2.4108 2.77807C2.40702 2.78549 2.40342 2.79301 2.4 2.80061C2.39659 2.80821 2.39338 2.81589 2.39036 2.82366C2.38733 2.83142 2.3845 2.83925 2.38186 2.84716C2.37922 2.85506 2.37679 2.86302 2.37456 2.87105C2.37232 2.87907 2.37029 2.88715 2.36845 2.89529C2.36662 2.90341 2.36499 2.91158 2.36356 2.91979C2.36215 2.92799 2.36093 2.93623 2.35991 2.9445C2.3589 2.95277 2.35809 2.96106 2.3575 2.96936C2.3569 2.97768 2.3565 2.986 2.35633 2.99433C2.35614 3.00266 2.35617 3.01098 2.35641 3.01932C2.36406 3.29088 2.59375 3.50447 2.86672 3.50447ZM13.1866 12.5865L11.5659 12.5865C11.6099 12.5587 11.6535 12.5304 11.6968 12.5017C11.7401 12.4729 11.7831 12.4436 11.8257 12.4139C11.8684 12.3841 11.9107 12.3539 11.9526 12.3232C11.9946 12.2925 12.0362 12.2613 12.0774 12.2297C12.1187 12.198 12.1596 12.1659 12.2001 12.1333C12.2406 12.1008 12.2807 12.0678 12.3205 12.0343C12.3603 12.0008 12.3997 11.9669 12.4387 11.9325C12.4777 11.8981 12.5163 11.8633 12.5546 11.8281C12.5928 11.7929 12.6306 11.7572 12.668 11.7211C12.7055 11.685 12.7425 11.6485 12.779 11.6116C12.8156 11.5746 12.8518 11.5373 12.8875 11.4995C12.9233 11.4618 12.9586 11.4236 12.9935 11.3851C13.0284 11.3465 13.0628 11.3076 13.0968 11.2683C13.1308 11.2289 13.1644 11.1892 13.1975 11.1491C13.2306 11.109 13.2632 11.0686 13.2955 11.0278C13.3276 10.9869 13.3594 10.9457 13.3906 10.9042C13.4219 10.8626 13.4527 10.8208 13.483 10.7785C13.5133 10.7363 13.5431 10.6937 13.5725 10.6508C13.6018 10.6079 13.6307 10.5646 13.6591 10.5211C13.6874 10.4775 13.7153 10.4336 13.7427 10.3894C13.7701 10.3452 13.7969 10.3007 13.8233 10.2559C13.8497 10.2111 13.8755 10.166 13.9009 10.1206C13.9263 10.0752 13.9511 10.0296 13.9754 9.98361C13.9997 9.93766 14.0235 9.89144 14.0468 9.84496C14.0701 9.79847 14.0928 9.75172 14.115 9.70471C14.1373 9.65771 14.159 9.61046 14.1801 9.56297C14.2012 9.51547 14.2219 9.46774 14.2419 9.41978C14.262 9.37183 14.2815 9.32364 14.3005 9.27524C14.3195 9.22685 14.3379 9.17824 14.3558 9.12941C14.3737 9.08058 14.391 9.03157 14.4078 8.98236C14.4246 8.93316 14.4408 8.88377 14.4564 8.83419C14.4721 8.78461 14.4872 8.73486 14.5017 8.68494C14.5044 8.67568 14.5069 8.66635 14.509 8.65696C14.5112 8.64757 14.5131 8.63811 14.5147 8.6286C14.5164 8.6191 14.5177 8.60955 14.5188 8.59996C14.5199 8.59038 14.5207 8.58077 14.5212 8.57114C14.5217 8.5615 14.5219 8.55186 14.5219 8.54222C14.5218 8.53258 14.5215 8.52294 14.5209 8.51332C14.5203 8.50369 14.5194 8.49408 14.5183 8.4845C14.5171 8.47493 14.5157 8.46539 14.514 8.45591C14.5123 8.44643 14.5103 8.43699 14.508 8.4276C14.5057 8.41822 14.5032 8.40893 14.5004 8.39969C14.4976 8.39046 14.4946 8.38132 14.4912 8.37227C14.4879 8.36322 14.4843 8.35427 14.4805 8.34542C14.4766 8.33657 14.4725 8.32785 14.4682 8.31924C14.4638 8.31063 14.4592 8.30216 14.4544 8.29382C14.4495 8.28547 14.4445 8.27728 14.4391 8.26924C14.4338 8.26119 14.4283 8.25332 14.4225 8.24558C14.4167 8.23785 14.4107 8.2303 14.4045 8.22293C14.3983 8.21555 14.3919 8.20836 14.3852 8.20136C14.3786 8.19435 14.3718 8.18755 14.3647 8.18094C14.3577 8.17433 14.3505 8.16794 14.3431 8.16174C14.3357 8.15555 14.3281 8.14958 14.3204 8.14383C14.3127 8.13808 14.3047 8.13257 14.2967 8.12727C14.2886 8.12197 14.2804 8.11691 14.2721 8.1121C14.2637 8.10728 14.2552 8.10272 14.2466 8.09839C14.238 8.09407 14.2292 8.08999 14.2204 8.08618C14.2115 8.08235 14.2026 8.0788 14.1935 8.0755C14.1844 8.07221 14.1753 8.06916 14.166 8.06639C14.1568 8.06363 14.1475 8.06114 14.1381 8.05891C14.1287 8.05667 14.1193 8.05472 14.1098 8.05303C14.1003 8.05136 14.0907 8.04996 14.0812 8.04883C14.0716 8.04771 14.062 8.04686 14.0523 8.04628C14.0427 8.04571 14.0331 8.04543 14.0234 8.04541L14.0175 8.04541C14.0108 8.04543 14.0041 8.04558 13.9974 8.04586C13.9907 8.04614 13.984 8.04657 13.9773 8.04713C13.9707 8.04768 13.964 8.04836 13.9573 8.04919C13.9507 8.05002 13.9441 8.05097 13.9375 8.05205C13.9308 8.05314 13.9242 8.05436 13.9177 8.05572C13.9111 8.05708 13.9046 8.05857 13.8981 8.06017C13.8916 8.06178 13.8851 8.06353 13.8787 8.06541C13.8722 8.06728 13.8659 8.06928 13.8595 8.07143C13.8531 8.07357 13.8468 8.07582 13.8406 8.07821C13.8343 8.0806 13.8281 8.08311 13.822 8.08575C13.8158 8.08839 13.8097 8.09114 13.8036 8.09403C13.7976 8.09691 13.7916 8.09991 13.7857 8.10303C13.7797 8.10616 13.7739 8.10941 13.7681 8.11277C13.7623 8.11613 13.7565 8.1196 13.7509 8.12319C13.7452 8.12677 13.7396 8.13047 13.7341 8.1343C13.7286 8.13811 13.7232 8.14203 13.7178 8.14607C13.7125 8.1501 13.7072 8.15424 13.702 8.15847C13.6968 8.16272 13.6917 8.16707 13.6867 8.17152C13.6817 8.17597 13.6768 8.18052 13.672 8.18516C13.6671 8.18982 13.6624 8.19457 13.6578 8.19939C13.6531 8.20422 13.6486 8.20916 13.6442 8.21418C13.6397 8.21919 13.6354 8.2243 13.6311 8.2295C13.6269 8.23471 13.6228 8.23997 13.6188 8.24533C13.6147 8.25069 13.6108 8.25614 13.607 8.26166C13.6032 8.26718 13.5995 8.27275 13.596 8.27843C13.5924 8.2841 13.5889 8.28983 13.5856 8.29564C13.5822 8.30144 13.579 8.30732 13.5759 8.31325C13.5728 8.31919 13.5698 8.32519 13.5669 8.33124C13.564 8.33728 13.5613 8.34339 13.5587 8.34957C13.556 8.35574 13.5535 8.36196 13.5512 8.36822C13.5488 8.37449 13.5465 8.3808 13.5444 8.38716C13.5423 8.39352 13.5403 8.39991 13.5384 8.40635C12.9016 10.5692 11.0469 12.2578 8.73266 12.5917C8.72495 12.5928 8.71727 12.5941 8.70962 12.5955C8.70197 12.597 8.69436 12.5986 8.68678 12.6005C8.6792 12.6023 8.67169 12.6043 8.6642 12.6065C8.65672 12.6087 8.6493 12.611 8.64194 12.6135C8.63456 12.6161 8.62725 12.6188 8.62002 12.6216C8.61278 12.6245 8.60561 12.6275 8.5985 12.6307C8.59139 12.6339 8.58437 12.6373 8.57742 12.6408C8.57048 12.6444 8.56362 12.6481 8.55686 12.6519C8.55009 12.6558 8.54341 12.6598 8.53683 12.6639C8.53023 12.6681 8.52375 12.6724 8.51737 12.6769C8.51098 12.6813 8.50472 12.6859 8.49855 12.6907C8.49237 12.6955 8.48633 12.7003 8.48039 12.7054C8.47445 12.7104 8.46864 12.7156 8.46294 12.7209C8.45723 12.7263 8.45167 12.7317 8.44623 12.7373C8.44078 12.7428 8.43547 12.7485 8.4303 12.7544C8.42512 12.7602 8.42009 12.7661 8.41519 12.7722C8.4103 12.7782 8.40555 12.7844 8.40094 12.7907C8.39633 12.797 8.39186 12.8034 8.38755 12.8098C8.38325 12.8163 8.37909 12.8229 8.37508 12.8296C8.37108 12.8363 8.36723 12.8431 8.36355 12.8499C8.35986 12.8568 8.35633 12.8637 8.35297 12.8708C8.34961 12.8778 8.34642 12.8849 8.34339 12.892C8.34036 12.8992 8.3375 12.9065 8.3348 12.9138C8.33211 12.9211 8.32959 12.9285 8.32725 12.9359C8.32489 12.9433 8.32272 12.9508 8.32073 12.9583C8.31873 12.9659 8.31691 12.9734 8.31526 12.9811C8.31362 12.9887 8.31216 12.9963 8.31087 13.004C8.30958 13.0117 8.30847 13.0194 8.30755 13.0271C8.30662 13.0348 8.30587 13.0426 8.30531 13.0504C8.30475 13.0581 8.30437 13.0659 8.30417 13.0737C8.30397 13.0815 8.30395 13.0893 8.30412 13.0971C8.30428 13.1049 8.30462 13.1126 8.30516 13.1204C8.32312 13.3846 8.54984 13.5865 8.81469 13.5865L13.1969 13.5865C13.2052 13.5865 13.2135 13.5863 13.2218 13.5859C13.2302 13.5855 13.2385 13.5848 13.2468 13.584C13.2551 13.5832 13.2633 13.5822 13.2716 13.5809C13.2798 13.5797 13.288 13.5782 13.2962 13.5766C13.3043 13.5749 13.3125 13.5731 13.3205 13.571C13.3286 13.569 13.3366 13.5667 13.3446 13.5643C13.3525 13.5618 13.3604 13.5591 13.3683 13.5563C13.3761 13.5534 13.3838 13.5504 13.3915 13.5471C13.3992 13.5439 13.4068 13.5405 13.4143 13.5368C13.4218 13.5332 13.4292 13.5294 13.4365 13.5254C13.4438 13.5215 13.451 13.5173 13.4581 13.5129C13.4652 13.5086 13.4722 13.5041 13.4791 13.4994C13.486 13.4947 13.4927 13.4898 13.4994 13.4848C13.506 13.4797 13.5125 13.4745 13.5189 13.4691C13.5253 13.4638 13.5315 13.4583 13.5376 13.4526C13.5437 13.4469 13.5497 13.4411 13.5555 13.4351C13.5613 13.4291 13.567 13.423 13.5725 13.4168C13.578 13.4105 13.5833 13.4041 13.5885 13.3976C13.5937 13.3911 13.5987 13.3844 13.6035 13.3777C13.6084 13.3709 13.6131 13.364 13.6176 13.357C13.6221 13.35 13.6264 13.3429 13.6306 13.3357C13.6347 13.3284 13.6387 13.3211 13.6425 13.3137C13.6463 13.3063 13.6499 13.2988 13.6533 13.2911C13.6567 13.2836 13.6599 13.2759 13.6629 13.2681C13.666 13.2603 13.6688 13.2525 13.6714 13.2446C13.6741 13.2367 13.6765 13.2287 13.6787 13.2207C13.681 13.2127 13.683 13.2046 13.6848 13.1965C13.6867 13.1883 13.6883 13.1802 13.6897 13.172C13.6911 13.1638 13.6923 13.1555 13.6934 13.1473C13.6944 13.139 13.6952 13.1307 13.6958 13.1224C13.6964 13.1141 13.6968 13.1058 13.697 13.0974C13.6971 13.0891 13.6971 13.0808 13.6969 13.0724C13.6892 12.8001 13.4589 12.5865 13.1866 12.5865Z"   fill="#FF8D1A" >
</path>
</svg>
