<svg xmlns="http://www.w3.org/2000/svg" xmlns:xlink="http://www.w3.org/1999/xlink" width="16" height="16" viewBox="0 0 16 16" fill="none">
<path d="M9.8999 5.6L2.4999 12.8C2.4999 13 2.5999 13.1 2.6999 13.1L3.4999 13.9C3.5999 14 3.6999 14 3.7999 14.1L10.9999 6.9L9.8999 5.6ZM12.1999 6C12.1999 6.1 12.2999 6.1 12.1999 6L12.2999 6.1L12.4999 6.1L14.3999 4.2C14.5999 4 14.5999 3.5 14.1999 3.2L13.3999 2.4C13.0999 2.1 12.5999 2 12.3999 2.2L10.4999 4.1L10.3999 4.2C10.3999 4.3 10.3999 4.3 10.4999 4.3L12.1999 6ZM4.8999 3.5L5.8999 3.9C5.9999 3.9 5.9999 4 6.0999 4.2L6.4999 5.1L6.6999 5.1L7.0999 4.2C7.0999 4.1 7.1999 4 7.2999 4L8.1999 3.6L8.1999 3.5L8.1999 3.4L7.2999 2.9C7.1999 2.9 7.0999 2.8 7.0999 2.7L6.6999 1.7L6.4999 1.7L6.0999 2.7C5.9999 2.8 5.9999 2.9 5.7999 2.9L4.8999 3.3L4.7999 3.4L4.8999 3.5ZM2.5999 8.3C2.5999 8.3 2.6999 8.3 2.5999 8.3C2.6999 8.3 2.6999 8.2 2.5999 8.3L2.9999 7.5C2.9999 7.4 3.0999 7.3 3.1999 7.3L3.8999 7L3.8999 6.9L3.1999 6.6L2.9999 6.4L2.6999 5.7L2.5999 5.7L2.2999 6.4C2.2999 6.5 2.1999 6.6 2.0999 6.6L1.3999 6.9L2.0999 7.2C2.1999 7.2 2.2999 7.3 2.2999 7.4L2.5999 8.3C2.5999 8.2 2.5999 8.3 2.5999 8.3ZM14.5999 12.1L13.1999 11.5C12.9999 11.4 12.8999 11.3 12.7999 11.1L12.1999 9.8C12.1999 9.8 12.1999 9.7 12.0999 9.7L11.9999 9.7C11.9999 9.7 11.8999 9.7 11.8999 9.8L11.2999 11.1C11.1999 11.3 11.0999 11.4 10.9999 11.5L9.6999 12.1L9.5999 12.1L9.5999 12.3L9.6999 12.3L10.9999 12.9C11.1999 13 11.2999 13.1 11.3999 13.3L11.9999 14.6C11.9999 14.6 11.9999 14.7 12.0999 14.7L12.1999 14.7C12.1999 14.7 12.2999 14.7 12.2999 14.6L12.8999 13.3C12.9999 13.1 13.0999 13 13.1999 12.9L14.4999 12.3L14.5999 12.3C14.6999 12.3 14.6999 12.2 14.5999 12.1C14.6999 12.2 14.6999 12.2 14.5999 12.1Z"   fill="#FFFFFF" >
</path>
</svg>
