<svg xmlns="http://www.w3.org/2000/svg" xmlns:xlink="http://www.w3.org/1999/xlink" width="48" height="48" viewBox="0 0 48 48" fill="none">
<path d="M25.1346 8.12356L31.1081 14.0859C31.5671 14.5408 31.706 15.2279 31.4595 15.8253C31.2132 16.4228 30.6301 16.8123 29.9836 16.8118L27.2002 16.8118L27.2002 22.8059C27.2002 23.6862 26.486 24.4 25.6052 24.4L22.4149 24.4C21.534 24.4 20.8199 23.6862 20.8199 22.8059L20.8199 16.8118L18.0364 16.8118C17.3899 16.8123 16.8069 16.4228 16.5605 15.8253C16.314 15.2279 16.4529 14.5408 16.9119 14.0859L22.8854 8.12356C23.5077 7.50552 24.5124 7.50552 25.1346 8.12356ZM24 28.4083C27.3028 28.4083 30.1787 26.1523 30.9672 22.943C31.2504 21.9123 32.1946 21.2038 33.2629 21.2201L36.1884 21.2201C38.9545 21.2201 40.74 23.0068 40.74 25.2081L40.74 37.1719C40.74 39.3745 38.9555 41.1599 36.7542 41.1599L11.2458 41.1599C9.04449 41.1599 7.26001 39.3745 7.26001 37.1719L7.26001 25.2081C7.26001 23.0058 9.04449 21.2201 11.2458 21.2201L14.7371 21.2201C15.8054 21.2038 16.7496 21.9123 17.0328 22.943C17.8213 26.1523 20.6972 28.4083 24 28.4083Z" fill-rule="evenodd"  fill="#2353f4" >
</path>
</svg>
