<svg xmlns="http://www.w3.org/2000/svg" width="14" height="14" viewBox="0 0 14 14" fill="none">
  <path opacity="0.8" d="M8.98929 3H9.75179V3.64157H10.4134V3H11V11H10.4134V10.3638H9.75179V11H9.04375V9.77851H5.03125V10.9991H4.26429L4.31964 10.3629H3.65804L3.60268 10.9991H3V3H3.65714V3.64157H4.31875V3H4.97679V4.16073H8.99018V3H8.98929ZM10.4134 6.58584V5.9398H9.75179V6.58584H10.4134ZM9.01696 5.09985H5.00357V8.85547H9.01696V5.09985ZM10.4134 8.1156V7.46956H9.75179V8.1156H10.4134ZM10.4134 9.57835V8.93231H9.75179V9.57835H10.4134ZM3.65714 8.93231V9.57835H4.31875V8.93231H3.65714ZM3.65714 7.46956V8.1156H4.31875V7.46956H3.65714ZM3.65714 5.96035V6.60639H4.31875V5.96035H3.65714ZM3.65714 4.47794V5.12398H4.31875V4.47794H3.65714ZM9.75268 4.47794V5.12398H10.4143V4.47794H9.75268Z" fill="black"/>
</svg>