<svg xmlns="http://www.w3.org/2000/svg" xmlns:xlink="http://www.w3.org/1999/xlink" width="14" height="14" viewBox="0 0 14 14" fill="none"><path d="M2.54545 4.18182L3.81818 4.18182L3.81818 10.5455L2.54545 10.5455L2.54545 4.18182ZM0 6.09091L1.27273 6.09091L1.27273 8.63636L0 8.63636L0 6.09091ZM5.09091 1L6.36364 1L6.36364 12.4545L5.09091 12.4545L5.09091 1ZM7.63636 2.27273L8.90909 2.27273L8.90909 13.7273L7.63636 13.7273L7.63636 2.27273ZM10.1818 4.18182L11.4545 4.18182L11.4545 10.5455L10.1818 10.5455L10.1818 4.18182ZM12.7273 6.09091L14 6.09091L14 8.63636L12.7273 8.63636L12.7273 6.09091Z"   fill="#0065FB" ></path></svg>