<svg xmlns="http://www.w3.org/2000/svg" xmlns:xlink="http://www.w3.org/1999/xlink" width="20" height="20" viewBox="0 0 20 20" fill="none"><g opacity="0.9"><path d="M2.8 16.4L2.8 3.8L7.82721 3.8L9.62722 5.6L17.2 5.6L17.2 16.4L2.8 16.4ZM18.1 3.8L10.3728 3.8L8.57278 2L1.9 2C1.40295 2 1 2.40295 1 2.9L1 17.3C1 17.7971 1.40295 18.2 1.9 18.2L18.1 18.2C18.5971 18.2 19 17.7971 19 17.3L19 4.7C19 4.20295 18.5971 3.8 18.1 3.8ZM12.7007 10.7003L8.30971 7.77291C8.25058 7.73349 8.1811 7.71245 8.11 7.71245C7.91119 7.71245 7.75 7.87362 7.75 8.07245L7.75 13.9272C7.75 13.9983 7.77106 14.0677 7.81048 14.1269C7.92073 14.2923 8.14429 14.337 8.30971 14.2267L12.7007 11.2993C12.7402 11.273 12.7742 11.239 12.8005 11.1995C12.9109 11.0341 12.8661 10.8105 12.7007 10.7003Z"   fill="#FFFFFF" ></path></g></svg>