<svg xmlns="http://www.w3.org/2000/svg" xmlns:xlink="http://www.w3.org/1999/xlink" width="48" height="48" viewBox="0 0 48 48" fill="none">
<path d="M30.42 13.2899C30.42 9.73867 27.5412 6.85986 23.99 6.85986C20.4388 6.85986 17.56 9.73867 17.56 13.2899L17.56 21.1499C17.56 24.7011 20.4388 27.5799 23.99 27.5799C27.5412 27.5799 30.42 24.7011 30.42 21.1499L30.42 13.2899ZM24 41.1399C23.0137 41.1399 22.214 40.3405 22.214 39.3546L22.214 33.8632C15.8679 32.9737 11.1457 27.55 11.14 21.1452C11.14 20.1592 11.9396 19.3599 12.926 19.3599C13.9126 19.3599 14.7123 20.1592 14.7123 21.1452C14.7123 26.2722 18.8704 30.4285 24 30.4285C29.1296 30.4285 33.2878 26.2722 33.2878 21.1452C33.2878 20.1592 34.0874 19.3599 35.074 19.3599C36.0604 19.3599 36.86 20.1592 36.86 21.1452C36.8544 27.55 32.1322 32.9737 25.786 33.8632L25.786 39.3546C25.786 40.3405 24.9864 41.1399 24 41.1399Z" fill-rule="evenodd"  fill="#0065FB" >
</path>
</svg>
