<svg xmlns="http://www.w3.org/2000/svg" xmlns:xlink="http://www.w3.org/1999/xlink" width="25" height="25" viewBox="0 0 25 25" fill="none"><path d="M19.9262 8.36281L20.1942 7.74795C20.672 6.6516 21.5324 5.77871 22.6061 5.30117L23.4317 4.93393C23.8783 4.73536 23.8783 4.08566 23.4317 3.88709L22.6523 3.54037C21.551 3.05055 20.6751 2.14536 20.2055 1.01177L19.9303 0.34732C19.7386 -0.115773 19.099 -0.115773 18.9072 0.34732L18.632 1.01177C18.1625 2.14536 17.2866 3.05055 16.1853 3.54037L15.4058 3.88709C14.9593 4.08566 14.9593 4.73536 15.4058 4.93393L16.2315 5.30117C17.3052 5.77871 18.1657 6.6516 18.6434 7.74795L18.9113 8.36281C19.1075 8.81296 19.7301 8.81296 19.9262 8.36281ZM13.3176 5.80303C13.6155 6.2745 14.0228 6.62288 14.5396 6.84817L15.154 7.11608C15.5672 7.29619 15.9017 7.54917 16.1577 7.87503L16.1577 10.8696C16.1577 13.8711 13.7245 16.3043 10.7229 16.3043C7.72135 16.3043 5.28812 13.8711 5.28812 10.8696L5.28812 6.52174C5.28812 3.5202 7.72135 1.08696 10.7229 1.08696C11.9447 1.08696 13.0724 1.49015 13.9801 2.17075C13.7191 2.36607 13.4983 2.60666 13.3176 2.89254C13.0373 3.33628 12.8971 3.82137 12.8971 4.34779C12.8971 4.87422 13.0373 5.3593 13.3176 5.80303ZM1 11.9565L3.19126 11.9565C3.71868 15.6438 6.88978 18.4783 10.7229 18.4783C14.556 18.4783 17.7271 15.6438 18.2546 11.9565L20.4458 11.9565C19.9446 16.4909 16.3442 20.0912 11.8099 20.5925L11.8099 25L9.63599 25L9.63599 20.5925C5.10158 20.0912 1.50125 16.4909 1 11.9565Z"   fill="#FFFFFF" ></path></svg>