<svg xmlns="http://www.w3.org/2000/svg" xmlns:xlink="http://www.w3.org/1999/xlink" width="24" height="18.782608032226562" viewBox="0 0 24 18.782608032226562" fill="none"><path d="M4.91833 7.43803L4.66103 8.0283C4.47273 8.46042 3.87503 8.46042 3.68673 8.0283L3.42945 7.43803C2.97085 6.38553 2.14482 5.54756 1.11409 5.08913L0.32144 4.73658C-0.107146 4.54594 -0.107146 3.92224 0.32144 3.7316L1.06977 3.39875C2.12701 2.92853 2.96783 2.05954 3.41856 0.971301L3.68277 0.333423C3.8669 -0.111141 4.48087 -0.111141 4.66501 0.333423L4.9292 0.971301C5.37993 2.05954 6.22078 2.92853 7.27805 3.39875L8.02631 3.7316C8.455 3.92224 8.455 4.54594 8.02631 4.73658L7.23368 5.08913C6.20297 5.54756 5.37692 6.38553 4.91833 7.43803ZM1.04348 17.7391L1.04348 10.4348L3.13043 10.4348L3.13043 16.6957L15.6522 16.6957L15.6522 4.17391L10.4348 4.17391L10.4348 2.08696L16.6957 2.08696C17.272 2.08696 17.7391 2.55414 17.7391 3.13043L17.7391 7.51304L23.1791 3.70509C23.4151 3.53984 23.7405 3.59726 23.9057 3.83332C23.967 3.92102 24 4.02547 24 4.13252L24 16.7371C24 17.0252 23.7664 17.2588 23.4783 17.2588C23.3712 17.2588 23.2667 17.2258 23.1791 17.1645L17.7391 13.3565L17.7391 17.7391C17.7391 18.3154 17.272 18.7826 16.6957 18.7826L2.08696 18.7826C1.51066 18.7826 1.04348 18.3154 1.04348 17.7391ZM17.7391 10.8091L21.913 13.7308L21.913 7.13876L17.7391 10.0605L17.7391 10.8091Z"   fill="#FFFFFF" ></path></svg>