<svg xmlns="http://www.w3.org/2000/svg" xmlns:xlink="http://www.w3.org/1999/xlink" width="16" height="16" viewBox="0 0 16 16" fill="none"><path d="M11.4842 15.0002L4.19603 15.0002C3.45026 15.0002 2.84009 14.3702 2.84009 13.6002L2.84009 2.40003C2.84009 1.63001 3.45026 1 4.19603 1L11.4842 1C12.23 1 12.8402 1.63001 12.8402 2.40003L12.8402 13.6002C12.8402 14.3702 12.23 15.0002 11.4842 15.0002ZM4.19603 1.70001C3.82315 1.70001 3.51806 2.01502 3.51806 2.40003L3.51806 13.6002C3.51806 13.9852 3.82315 14.3002 4.19603 14.3002L11.4842 14.3002C11.8571 14.3002 12.1622 13.9852 12.1622 13.6002L12.1622 2.40003C12.1622 2.01502 11.8571 1.70001 11.4842 1.70001L4.19603 1.70001Z"   fill="#626466" ></path><path d="M9.5289 13.0799L6.13904 13.0799C5.95259 13.0799 5.80005 12.9224 5.80005 12.7299C5.80005 12.5374 5.95259 12.3799 6.13904 12.3799L9.5289 12.3799C9.71535 12.3799 9.86789 12.5374 9.86789 12.7299C9.86789 12.9224 9.71535 13.0799 9.5289 13.0799Z"   fill="#626466" ></path></svg>