<svg xmlns="http://www.w3.org/2000/svg" xmlns:xlink="http://www.w3.org/1999/xlink" width="16" height="12.800048828125" viewBox="0 0 16 12.800048828125" fill="none"><path d="M1.45069e-05 0.8C1.45069e-05 0.3584 0.364015 0 0.793615 0L15.2064 0C15.6449 0 16 0.356 16 0.8L16 12C16 12.4416 15.636 12.8 15.2064 12.8L0.793615 12.8C0.780567 12.8 0.767527 12.7996 0.754497 12.799C0.741467 12.7984 0.728461 12.7974 0.715479 12.796C0.702496 12.7946 0.689555 12.793 0.676654 12.7911C0.663751 12.7892 0.650905 12.787 0.638115 12.7844C0.625325 12.7817 0.612605 12.7789 0.599957 12.7756C0.587309 12.7725 0.574748 12.769 0.562272 12.7651C0.549797 12.7612 0.537424 12.7571 0.525151 12.7527C0.512879 12.7484 0.500722 12.7436 0.488684 12.7385C0.476644 12.7335 0.464736 12.7282 0.452959 12.7226C0.441181 12.717 0.429549 12.711 0.418062 12.7049C0.406575 12.6987 0.395247 12.6922 0.38408 12.6855C0.372911 12.6787 0.361915 12.6717 0.351092 12.6644C0.340269 12.6571 0.329631 12.6496 0.31918 12.6417C0.308728 12.634 0.298475 12.626 0.288421 12.6176C0.278366 12.6092 0.268521 12.6007 0.258889 12.5919C0.249255 12.5831 0.239844 12.5741 0.230655 12.5649C0.221465 12.5555 0.21251 12.546 0.203789 12.5364C0.195066 12.5267 0.186587 12.5167 0.178354 12.5066C0.170119 12.4965 0.162139 12.4862 0.154414 12.4757C0.146686 12.4652 0.139224 12.4545 0.132025 12.4436C0.124825 12.4327 0.117897 12.4217 0.111241 12.4104C0.104585 12.3992 0.0982099 12.3878 0.0921144 12.3763C0.0860187 12.3648 0.0802106 12.3531 0.07469 12.3413C0.0691694 12.3294 0.0639427 12.3175 0.0590104 12.3054C0.054078 12.2933 0.0494456 12.2811 0.0451134 12.2688C0.0407811 12.2565 0.0367543 12.2441 0.0330327 12.2316C0.0293112 12.2191 0.0258996 12.2065 0.0227977 12.1938C0.0196959 12.1812 0.0169077 12.1684 0.0144331 12.1556C0.0119585 12.1428 0.00980048 12.1299 0.00795907 12.117C0.00611767 12.1041 0.0045951 12.0911 0.00339137 12.0782C0.00218764 12.0652 0.0013042 12.0522 0.000741044 12.0391C0.000177892 12.0261 -6.42865e-05 12.013 1.45069e-05 12L1.45069e-05 0.8ZM4.80001 1.6C4.77382 1.6 4.74765 1.60064 4.72149 1.60192C4.69532 1.60321 4.66921 1.60514 4.64315 1.60771C4.61709 1.61027 4.5911 1.61349 4.56519 1.61732C4.53927 1.62116 4.51347 1.62564 4.48779 1.63075C4.4621 1.63586 4.43656 1.6416 4.41115 1.64796C4.38574 1.65432 4.36051 1.66131 4.33545 1.66891C4.31039 1.67651 4.28552 1.68472 4.26086 1.69355C4.2362 1.70237 4.21176 1.7118 4.18757 1.72182C4.16337 1.73185 4.13944 1.74246 4.11576 1.75365C4.09207 1.76485 4.06869 1.77662 4.04559 1.78897C4.0225 1.80131 3.99971 1.81422 3.97725 1.82769C3.95479 1.84115 3.93266 1.85516 3.91089 1.86971C3.8891 1.88426 3.8677 1.89934 3.84666 1.91495C3.82562 1.93055 3.80497 1.94666 3.78474 1.96327C3.76449 1.97989 3.74466 1.997 3.72525 2.01459C3.70584 2.03217 3.68687 2.05022 3.66836 2.06875C3.64985 2.08726 3.63179 2.10622 3.6142 2.12564C3.59661 2.14505 3.5795 2.16487 3.56289 2.18511C3.54627 2.20536 3.53016 2.226 3.51456 2.24704C3.49896 2.26807 3.48389 2.28949 3.46934 2.31126C3.45477 2.33305 3.44077 2.35516 3.42731 2.37762C3.41385 2.40009 3.40094 2.42287 3.38859 2.44597C3.37624 2.46907 3.36446 2.49246 3.35327 2.51614C3.34207 2.53981 3.33146 2.56375 3.32144 2.58795C3.31141 2.61215 3.30199 2.63657 3.29316 2.66124C3.28435 2.6859 3.27614 2.71076 3.26852 2.73582C3.26092 2.76089 3.25394 2.78612 3.24757 2.81154C3.24121 2.83695 3.23547 2.86249 3.23036 2.88817C3.22525 2.91386 3.22077 2.93966 3.21694 2.96557C3.2131 2.99149 3.20989 3.01747 3.20732 3.04354C3.20476 3.0696 3.20284 3.09571 3.20155 3.12187C3.20026 3.14804 3.19961 3.17421 3.19961 3.2004C3.19961 3.22659 3.20025 3.25276 3.20154 3.27892C3.20282 3.30509 3.20476 3.3312 3.20732 3.35726C3.20989 3.38332 3.2131 3.40931 3.21694 3.43522C3.22077 3.46114 3.22525 3.48694 3.23036 3.51262C3.23547 3.53831 3.24121 3.56385 3.24757 3.58926C3.25394 3.61467 3.26092 3.63991 3.26852 3.66497C3.27614 3.69004 3.28435 3.7149 3.29316 3.73956C3.30199 3.76422 3.31141 3.78865 3.32144 3.81285C3.33146 3.83704 3.34207 3.86097 3.35327 3.88466C3.36448 3.90834 3.37625 3.93172 3.38859 3.95482C3.40094 3.97792 3.41385 4.00071 3.42731 4.02317C3.44077 4.04564 3.45477 4.06775 3.46934 4.08954C3.48389 4.11131 3.49896 4.13272 3.51456 4.15376C3.53016 4.1748 3.54627 4.19544 3.56289 4.21569C3.5795 4.23592 3.59661 4.25575 3.6142 4.27516C3.63179 4.29457 3.64985 4.31354 3.66836 4.33205C3.68687 4.35057 3.70584 4.36862 3.72525 4.38621C3.74466 4.4038 3.76449 4.42091 3.78474 4.43752C3.80497 4.45414 3.82562 4.47025 3.84666 4.48585C3.8677 4.50146 3.8891 4.51654 3.91087 4.53109C3.93266 4.54564 3.95479 4.55965 3.97725 4.57311C3.99971 4.58657 4.02249 4.59949 4.04559 4.61182C4.06869 4.62417 4.09207 4.63595 4.11576 4.64715C4.13944 4.65834 4.16337 4.66895 4.18757 4.67897C4.21176 4.689 4.2362 4.69842 4.26086 4.70725C4.28552 4.71607 4.31039 4.72429 4.33545 4.73189C4.36051 4.73949 4.38574 4.74647 4.41115 4.75284C4.43656 4.7592 4.4621 4.76494 4.48779 4.77005C4.51347 4.77516 4.53927 4.77964 4.56519 4.78347C4.5911 4.78731 4.61709 4.79052 4.64315 4.7931C4.66921 4.79566 4.69532 4.79759 4.72149 4.79887C4.74765 4.80016 4.77382 4.8008 4.80001 4.8008C4.8262 4.8008 4.85239 4.80016 4.87855 4.79887C4.90471 4.79759 4.93082 4.79566 4.95689 4.79309C4.98295 4.79052 5.00892 4.78731 5.03484 4.78347C5.06075 4.77964 5.08655 4.77516 5.11224 4.77005C5.13792 4.76494 5.16348 4.7592 5.18887 4.75284C5.21429 4.74647 5.23952 4.73949 5.26459 4.73189C5.28965 4.72429 5.31451 4.71607 5.33917 4.70725C5.36384 4.69842 5.38826 4.689 5.41246 4.67897C5.43666 4.66895 5.4606 4.65834 5.48427 4.64715C5.50795 4.63595 5.53134 4.62417 5.55444 4.61182C5.57754 4.59949 5.60032 4.58657 5.62279 4.57311C5.64525 4.55965 5.66737 4.54564 5.68915 4.53109C5.71092 4.51654 5.73234 4.50146 5.75338 4.48585C5.77441 4.47025 5.79505 4.45414 5.8153 4.43752C5.83554 4.42091 5.85536 4.4038 5.87477 4.38621C5.89419 4.36862 5.91315 4.35057 5.93167 4.33205C5.95019 4.31354 5.96825 4.29457 5.98584 4.27516C6.00342 4.25575 6.02052 4.23592 6.03714 4.21569C6.05375 4.19544 6.06986 4.1748 6.08547 4.15376C6.10107 4.13272 6.11615 4.11131 6.1307 4.08954C6.14525 4.06775 6.15926 4.04564 6.17272 4.02317C6.18619 4.00071 6.1991 3.97792 6.21144 3.95482C6.22379 3.93172 6.23556 3.90834 6.24676 3.88466C6.25796 3.86097 6.26857 3.83704 6.27859 3.81285C6.28861 3.78865 6.29804 3.76422 6.30686 3.73956C6.31569 3.7149 6.3239 3.69004 6.3315 3.66497C6.33911 3.63991 6.34609 3.61467 6.35245 3.58926C6.35881 3.56385 6.36455 3.53831 6.36966 3.51262C6.37477 3.48694 6.37925 3.46114 6.3831 3.43522C6.38694 3.40931 6.39015 3.38332 6.39271 3.35726C6.39527 3.3312 6.3972 3.30509 6.39849 3.27892C6.39978 3.25276 6.40041 3.22659 6.40041 3.2004C6.40041 3.17421 6.39978 3.14804 6.39849 3.12187C6.3972 3.09571 6.39527 3.0696 6.39271 3.04354C6.39015 3.01747 6.38694 2.99149 6.3831 2.96557C6.37925 2.93966 6.37477 2.91386 6.36966 2.88817C6.36455 2.86249 6.35881 2.83695 6.35245 2.81154C6.34609 2.78612 6.33911 2.76089 6.3315 2.73582C6.3239 2.71076 6.31569 2.6859 6.30686 2.66124C6.29804 2.63657 6.28861 2.61215 6.27859 2.58795C6.26857 2.56375 6.25796 2.53981 6.24676 2.51614C6.23556 2.49246 6.22379 2.46907 6.21144 2.44597C6.1991 2.42287 6.18619 2.40009 6.17272 2.37762C6.15926 2.35516 6.14525 2.33305 6.1307 2.31126C6.11615 2.28949 6.10107 2.26807 6.08547 2.24704C6.06986 2.226 6.05375 2.20536 6.03714 2.18511C6.02052 2.16487 6.00342 2.14505 5.98584 2.12564C5.96825 2.10622 5.95019 2.08726 5.93167 2.06875C5.91315 2.05022 5.89419 2.03217 5.87477 2.01459C5.85537 1.997 5.83555 1.97989 5.8153 1.96327C5.79505 1.94666 5.77441 1.93055 5.75338 1.91495C5.73234 1.89934 5.71092 1.88426 5.68915 1.86971C5.66737 1.85516 5.64525 1.84115 5.62279 1.82769C5.60032 1.81422 5.57754 1.80131 5.55444 1.78897C5.53134 1.77662 5.50795 1.76485 5.48427 1.75365C5.4606 1.74246 5.43666 1.73185 5.41246 1.72182C5.38826 1.7118 5.36384 1.70237 5.33917 1.69355C5.31451 1.68472 5.28965 1.67651 5.26459 1.66891C5.23952 1.66131 5.21429 1.65432 5.18887 1.64796C5.16348 1.6416 5.13792 1.63586 5.11224 1.63075C5.08655 1.62564 5.06075 1.62116 5.03484 1.61732C5.00892 1.61349 4.98295 1.61027 4.95689 1.60771C4.93082 1.60514 4.90471 1.60321 4.87855 1.60192C4.85239 1.60064 4.8262 1.6 4.80001 1.6ZM4.76321 6.4048C3.20001 6.4 1.43521 11.2 1.43521 11.2L14.4 11.1984L14.3952 3.0736C10.4 3.2 8.09921 8.248 8.09921 8.248C8.09921 8.248 6.32641 6.4088 4.76321 6.404L4.76321 6.4048Z"   fill="#FFFFFF" ></path></svg>