<svg xmlns="http://www.w3.org/2000/svg" xmlns:xlink="http://www.w3.org/1999/xlink" width="12" height="12" viewBox="0 0 12 12" fill="none"><path d="M6 12C2.68629 12 0 9.31368 0 6C0 2.68629 2.68629 0 6 0C9.31368 0 12 2.68629 12 6C12 9.31368 9.31368 12 6 12ZM6 10.8C8.65098 10.8 10.8 8.65098 10.8 6C10.8 3.34903 8.65098 1.2 6 1.2C3.34903 1.2 1.2 3.34903 1.2 6C1.2 8.65098 3.34903 10.8 6 10.8ZM5.17314 3.84875L8.10048 5.80032C8.21076 5.87382 8.24058 6.02286 8.16702 6.13314C8.14944 6.15948 8.12682 6.1821 8.10048 6.19968L5.17314 8.15124C5.06286 8.2248 4.91382 8.19498 4.84032 8.0847C4.81404 8.04528 4.8 7.99896 4.8 7.95156L4.8 4.04845C4.8 3.91589 4.90746 3.80845 5.04 3.80845C5.0874 3.80845 5.13372 3.82247 5.17314 3.84875Z"   fill="#0065FB" ></path></svg>