<svg xmlns="http://www.w3.org/2000/svg" xmlns:xlink="http://www.w3.org/1999/xlink" width="64" height="64" viewBox="0 0 64 64" fill="none">
<path     fill="url(#linear_fill_JJexuwasxiUZc_4tyHFQE_0)"  d="M0 32Q0 31.2144 0.0385454 30.4298Q0.0770908 29.6452 0.154089 28.8635Q0.231087 28.0817 0.346352 27.3046Q0.461617 26.5276 0.614871 25.7571Q0.768125 24.9866 0.959 24.2246Q1.14987 23.4626 1.37791 22.7109Q1.60594 21.9592 1.87059 21.2195Q2.13524 20.4799 2.43585 19.7541Q2.73647 19.0284 3.07234 18.3182Q3.40821 17.6081 3.77852 16.9153Q4.14883 16.2225 4.55268 15.5487Q4.95654 14.8749 5.39297 14.2218Q5.8294 13.5686 6.29736 12.9376Q6.76531 12.3067 7.26367 11.6994Q7.76202 11.0922 8.28956 10.5101Q8.81711 9.92805 9.37258 9.37258Q9.92805 8.81711 10.5101 8.28956Q11.0922 7.76202 11.6994 7.26367Q12.3067 6.76531 12.9376 6.29736Q13.5686 5.8294 14.2218 5.39297Q14.8749 4.95654 15.5487 4.55268Q16.2225 4.14883 16.9153 3.77852Q17.6081 3.40821 18.3182 3.07234Q19.0284 2.73647 19.7541 2.43585Q20.4799 2.13524 21.2195 1.87059Q21.9592 1.60594 22.7109 1.37791Q23.4626 1.14987 24.2246 0.959Q24.9866 0.768125 25.7571 0.614871Q26.5276 0.461617 27.3046 0.346352Q28.0817 0.231087 28.8635 0.154089Q29.6452 0.0770908 30.4298 0.0385454Q31.2144 0 32 0Q32.7856 0 33.5702 0.0385454Q34.3548 0.0770908 35.1365 0.154089Q35.9183 0.231087 36.6954 0.346352Q37.4724 0.461617 38.2429 0.614871Q39.0133 0.768125 39.7754 0.959Q40.5374 1.14987 41.2891 1.37791Q42.0408 1.60594 42.7805 1.87059Q43.5201 2.13524 44.2459 2.43585Q44.9716 2.73647 45.6818 3.07234Q46.3919 3.40821 47.0847 3.77852Q47.7775 4.14883 48.4513 4.55268Q49.1251 4.95654 49.7782 5.39297Q50.4314 5.8294 51.0624 6.29736Q51.6933 6.76531 52.3006 7.26367Q52.9078 7.76202 53.4899 8.28956Q54.0719 8.81711 54.6274 9.37258Q55.1829 9.92805 55.7104 10.5101Q56.238 11.0922 56.7363 11.6994Q57.2347 12.3067 57.7026 12.9376Q58.1706 13.5686 58.607 14.2218Q59.0434 14.8749 59.4473 15.5487Q59.8512 16.2225 60.2215 16.9153Q60.5918 17.6081 60.9277 18.3182Q61.2635 19.0284 61.5641 19.7541Q61.8648 20.4799 62.1294 21.2195Q62.3941 21.9592 62.6221 22.7109Q62.8501 23.4626 63.041 24.2246Q63.2319 24.9866 63.3851 25.7571Q63.5384 26.5276 63.6536 27.3046Q63.7689 28.0817 63.8459 28.8635Q63.9229 29.6452 63.9615 30.4298Q64 31.2144 64 32Q64 32.7856 63.9615 33.5702Q63.9229 34.3548 63.8459 35.1365Q63.7689 35.9183 63.6536 36.6954Q63.5384 37.4724 63.3851 38.2429Q63.2319 39.0133 63.041 39.7754Q62.8501 40.5374 62.6221 41.2891Q62.3941 42.0408 62.1294 42.7805Q61.8648 43.5201 61.5641 44.2459Q61.2635 44.9716 60.9277 45.6818Q60.5918 46.3919 60.2215 47.0847Q59.8512 47.7775 59.4473 48.4513Q59.0434 49.1251 58.607 49.7782Q58.1706 50.4314 57.7026 51.0624Q57.2347 51.6933 56.7363 52.3006Q56.238 52.9078 55.7104 53.4899Q55.1829 54.0719 54.6274 54.6274Q54.0719 55.1829 53.4899 55.7104Q52.9078 56.238 52.3006 56.7363Q51.6933 57.2347 51.0624 57.7026Q50.4314 58.1706 49.7782 58.607Q49.1251 59.0434 48.4513 59.4473Q47.7775 59.8512 47.0847 60.2215Q46.3919 60.5918 45.6818 60.9277Q44.9716 61.2635 44.2459 61.5641Q43.5201 61.8648 42.7805 62.1294Q42.0408 62.3941 41.2891 62.6221Q40.5374 62.8501 39.7754 63.041Q39.0133 63.2319 38.2429 63.3851Q37.4724 63.5384 36.6954 63.6536Q35.9183 63.7689 35.1366 63.8459Q34.3548 63.9229 33.5702 63.9615Q32.7856 64 32 64Q31.2144 64 30.4298 63.9615Q29.6452 63.9229 28.8635 63.8459Q28.0817 63.7689 27.3046 63.6536Q26.5276 63.5384 25.7571 63.3851Q24.9866 63.2319 24.2246 63.041Q23.4626 62.8501 22.7109 62.6221Q21.9592 62.3941 21.2195 62.1294Q20.4799 61.8648 19.7541 61.5641Q19.0284 61.2635 18.3182 60.9277Q17.6081 60.5918 16.9153 60.2215Q16.2225 59.8512 15.5487 59.4473Q14.8749 59.0434 14.2218 58.607Q13.5686 58.1706 12.9376 57.7026Q12.3067 57.2347 11.6994 56.7363Q11.0922 56.238 10.5101 55.7104Q9.92805 55.1829 9.37258 54.6274Q8.81711 54.0719 8.28956 53.4899Q7.76202 52.9078 7.26367 52.3006Q6.76531 51.6933 6.29736 51.0624Q5.8294 50.4314 5.39297 49.7782Q4.95654 49.1251 4.55268 48.4513Q4.14883 47.7775 3.77852 47.0847Q3.40821 46.3919 3.07234 45.6818Q2.73647 44.9716 2.43585 44.2459Q2.13524 43.5201 1.87059 42.7805Q1.60594 42.0408 1.37791 41.2891Q1.14987 40.5374 0.959 39.7754Q0.768125 39.0133 0.614871 38.2429Q0.461617 37.4724 0.346352 36.6954Q0.231087 35.9183 0.154089 35.1366Q0.0770908 34.3548 0.0385454 33.5702Q0 32.7856 0 32Z">
</path>
<path d="M27.52 47.557C26.8523 48.0611 25.9587 48.1414 25.2129 47.7647C24.4671 47.3877 23.9971 46.6183 24 45.7782L24 19.2069C24.0029 18.3696 24.4745 17.6054 25.2195 17.2322C25.9642 16.8589 26.8545 16.9405 27.52 17.443L45.12 30.7287C45.674 31.1469 46 31.8031 46 32.5C46 33.1969 45.674 33.8531 45.12 34.2713L27.52 47.557Z"   fill="#FFFFFF" >
</path>
<defs>
<linearGradient id="linear_fill_JJexuwasxiUZc_4tyHFQE_0" x1="5.8048" y1="5.43296" x2="88.6592" y2="82.40576" gradientUnits="userSpaceOnUse">
<stop offset="0" stop-color="#2353F4"  />
<stop offset="1" stop-color="#7390F0"  />
</linearGradient>
</defs>
</svg>
