<svg xmlns="http://www.w3.org/2000/svg" xmlns:xlink="http://www.w3.org/1999/xlink" width="48" height="48" viewBox="0 0 48 48" fill="none">
<path d="M24.0003 41.14C14.5343 41.14 6.86035 33.4661 6.86035 24C6.86035 14.5339 14.5343 6.86002 24.0003 6.86002C28.5462 6.86002 32.9059 8.66589 36.12 11.8803C39.3345 15.0944 41.1403 19.4542 41.1403 24C41.1403 33.4661 33.4664 41.14 24.0003 41.14ZM22.04 16.26C21.6554 15.9657 21.13 15.9208 20.7 16.14C20.27 16.3594 20 16.8096 20 17.3L20 28.7C20 29.1904 20.27 29.6406 20.7 29.86C21.13 30.0793 21.6554 30.0343 22.04 29.74L29.5 24.04C29.8196 23.7954 30 23.4076 30 23C30 22.5925 29.8196 22.2046 29.5 21.96L22.04 16.26Z" fill-rule="evenodd"  fill="#FFFFFF" >
</path>
</svg>
