<svg xmlns="http://www.w3.org/2000/svg" xmlns:xlink="http://www.w3.org/1999/xlink" width="24" height="24" viewBox="0 0 24 24" fill="none">
<path d="M8.71 11.29L11 13.59L15.29 9.29C15.4784 9.1016 15.7338 8.996 16 8.996C16.2664 8.996 16.5216 9.1016 16.71 9.29C16.8984 9.4784 17.004 9.7336 17.004 10C17.004 10.2662 16.8984 10.5216 16.71 10.71L16.71 10.71L11.71 15.71C11.617 15.8038 11.5064 15.8782 11.3846 15.9288C11.2628 15.9796 11.132 16.0058 11 16.0058C10.868 16.0058 10.7372 15.9796 10.6154 15.9288C10.4936 15.8782 10.383 15.8038 10.29 15.71L7.29 12.71C7.1968 12.6168 7.1228 12.506 7.0724 12.3842C7.0218 12.2624 6.996 12.1318 6.996 12C6.996 11.7336 7.1016 11.4784 7.29 11.29C7.4784 11.1016 7.7338 10.996 8 10.996C8.2664 10.996 8.5216 11.1016 8.71 11.29ZM10.0492 21.8078C11.989 22.1938 13.9996 21.9956 15.8268 21.2388C17.654 20.482 19.2158 19.2002 20.3146 17.5556C21.4136 15.9112 22 13.9778 22 12C22 10.6868 21.7414 9.3864 21.2388 8.1732C20.7362 6.96 19.9996 5.8576 19.071 4.929C18.1424 4.0004 17.04 3.2638 15.8268 2.7612C14.6136 2.2586 13.3132 2 12 2L12 2C10.0222 2 8.0888 2.5864 6.4444 3.6854C4.7998 4.7842 3.518 6.346 2.7612 8.1732C2.0044 10.0004 1.8062 12.011 2.1922 13.9508C2.578 15.8908 3.5304 17.6726 4.929 19.071C6.3274 20.4696 8.1092 21.422 10.0492 21.8078Z" fill-rule="evenodd"  fill="#0065FB" >
</path>
</svg>
