<svg xmlns="http://www.w3.org/2000/svg" width="14" height="14" viewBox="0 0 14 14" fill="none">
  <path d="M10.2447 5.03939H11.0201V6.26506L13 4.10938L11.0208 2V3.3994H10.2454C8.02544 3.3994 6.57738 5.00318 5.47138 6.41816C4.47869 7.69006 3.61938 8.89007 2.23468 8.89007H1V10.5307H2.23407C4.45407 10.5307 5.70676 8.82575 6.81338 7.4107C7.80607 6.13814 8.85674 5.03939 10.2447 5.03939ZM4.22869 5.97753L4.51607 5.6125C4.75199 5.31191 4.99876 4.99316 5.26738 4.67686C4.47206 3.95369 3.51468 3.41996 2.23407 3.41996H1V5.06001C1 5.06001 1.33269 5.04436 2.23407 5.06001C3.10669 5.07812 3.654 5.42564 4.22868 5.97753H4.22869ZM11.0207 8.95311H10.2454C9.39999 8.95311 8.55605 8.49379 7.95136 7.88442C7.89151 7.96283 7.83064 8.04056 7.76875 8.11757C7.50337 8.45688 7.21875 8.82251 6.90474 9.18258C7.72081 9.95753 8.90343 10.5932 10.2454 10.5932H11.0208V12L13 9.84063L11.0208 7.73513L11.0207 8.95311Z" fill="#0065FB"/>
</svg>