<svg xmlns="http://www.w3.org/2000/svg" xmlns:xlink="http://www.w3.org/1999/xlink" width="15.16552734375" height="15.1656494140625" viewBox="0 0 15.16552734375 15.1656494140625" fill="none"><path d="M12.1352 0.325783C12.133 0.31985 12.1306 0.313962 12.1282 0.308119C12.1258 0.302275 12.1233 0.29648 12.1206 0.290733C12.118 0.284984 12.1152 0.279289 12.1123 0.273647C12.1095 0.268005 12.1065 0.262417 12.1034 0.256887C12.1003 0.251358 12.0972 0.245889 12.0939 0.24048C12.0906 0.23507 12.0872 0.229725 12.0837 0.224445C12.0802 0.219164 12.0766 0.213952 12.073 0.208808C12.0693 0.203662 12.0655 0.198591 12.0616 0.193589C12.0577 0.188587 12.0538 0.183662 12.0497 0.178812C12.0456 0.173962 12.0415 0.169192 12.0372 0.1645C12.033 0.159808 12.0287 0.155198 12.0242 0.15067C12.0198 0.146142 12.0153 0.1417 12.0107 0.137344C12.0061 0.132987 12.0015 0.12872 11.9967 0.124541C11.9919 0.120362 11.9871 0.116274 11.9822 0.112278C11.9773 0.108282 11.9723 0.104381 11.9673 0.100573C11.9622 0.0967672 11.9571 0.0930578 11.9519 0.0894453C11.9467 0.0858339 11.9414 0.0823219 11.9361 0.0789094C11.9308 0.0754969 11.9254 0.072187 11.9199 0.0689797C11.9145 0.0657723 11.909 0.0626698 11.9034 0.0596719C11.8978 0.0566741 11.8922 0.0537828 11.8865 0.0509984C11.8808 0.0482141 11.8751 0.0455386 11.8693 0.0429719C11.8635 0.0404052 11.8577 0.0379489 11.8518 0.0356031C11.8459 0.0332584 11.84 0.0310255 11.834 0.0289047C11.8281 0.0267839 11.8221 0.0247772 11.816 0.0228844C11.81 0.0209917 11.8039 0.0192147 11.7978 0.0175531C11.7917 0.0158906 11.7856 0.0143448 11.7794 0.0129157C11.7732 0.0114865 11.7671 0.010175 11.7608 0.00898128C11.7546 0.00778753 11.7484 0.00671202 11.7421 0.0057547C11.7359 0.00479741 11.7296 0.00395887 11.7233 0.00323909C11.717 0.00252033 11.7107 0.00192087 11.7044 0.00144064C11.6981 0.000960409 11.6918 0.000600041 11.6855 0.000359416C11.6792 0.000119805 11.6728 0 11.6665 0C11.6602 0 11.6538 0.000119805 11.6475 0.000359416C11.6412 0.000600041 11.6349 0.000960409 11.6286 0.00144064C11.6223 0.00192087 11.616 0.00252033 11.6097 0.00323909C11.6034 0.00395781 11.5971 0.00479639 11.5909 0.0057547C11.5846 0.00671202 11.5784 0.00778753 11.5722 0.00898128C11.5659 0.010175 11.5597 0.0114865 11.5536 0.0129157C11.5474 0.0143448 11.5413 0.0158906 11.5352 0.0175531C11.5291 0.0192147 11.523 0.0209917 11.517 0.0228844C11.5109 0.0247772 11.5049 0.0267839 11.499 0.0289047C11.493 0.0310255 11.4871 0.0332584 11.4812 0.0356031C11.4753 0.0379489 11.4695 0.0404052 11.4637 0.0429719C11.4579 0.0455386 11.4522 0.0482141 11.4465 0.0509984C11.4408 0.0537828 11.4352 0.0566741 11.4296 0.0596719C11.424 0.0626698 11.4185 0.0657723 11.4131 0.0689797C11.4076 0.072187 11.4022 0.0754969 11.3969 0.0789094C11.3916 0.0823219 11.3863 0.0858339 11.3811 0.0894453C11.3759 0.0930578 11.3708 0.0967672 11.3657 0.100573C11.3607 0.104381 11.3557 0.108282 11.3508 0.112278C11.3459 0.116274 11.3411 0.120362 11.3363 0.124541C11.3315 0.12872 11.3269 0.132987 11.3223 0.137344C11.3177 0.1417 11.3132 0.146142 11.3088 0.15067C11.3043 0.155198 11.3 0.159808 11.2958 0.1645C11.2915 0.169192 11.2874 0.173962 11.2833 0.178812C11.2792 0.183662 11.2753 0.188587 11.2714 0.193589C11.2675 0.198591 11.2637 0.203662 11.26 0.208808C11.2564 0.213952 11.2528 0.219164 11.2493 0.224445C11.2458 0.229725 11.2424 0.23507 11.2391 0.24048C11.2358 0.245889 11.2327 0.251358 11.2296 0.256887C11.2265 0.262417 11.2235 0.268005 11.2207 0.273647C11.2178 0.279289 11.215 0.284984 11.2124 0.290733C11.2097 0.29648 11.2072 0.302275 11.2048 0.308119C11.2024 0.313962 11.2 0.31985 11.1978 0.325783L10.5998 1.94044C10.5946 1.95447 10.5891 1.96836 10.5831 1.98208C10.5772 1.9958 10.5709 2.00936 10.5642 2.02273C10.5575 2.03612 10.5505 2.04933 10.5431 2.06233C10.5357 2.07534 10.528 2.08814 10.5199 2.10073C10.5119 2.11333 10.5035 2.1257 10.4947 2.13783C10.486 2.14997 10.4769 2.16186 10.4675 2.17352C10.4582 2.18517 10.4485 2.19656 10.4385 2.20769C10.4285 2.21883 10.4182 2.22969 10.4076 2.24025C10.3971 2.25083 10.3862 2.26111 10.3751 2.27109C10.364 2.28109 10.3526 2.29078 10.3409 2.30016C10.3293 2.30953 10.3174 2.31859 10.3052 2.32733C10.2931 2.33608 10.2807 2.34448 10.2681 2.35255C10.2555 2.36063 10.2427 2.36836 10.2297 2.37573C10.2167 2.38312 10.2035 2.39016 10.1901 2.39681C10.1767 2.4035 10.1632 2.4098 10.1495 2.41573C10.1357 2.42169 10.1219 2.42725 10.1078 2.43244L8.49317 3.03044C8.48723 3.03266 8.48134 3.03497 8.4755 3.03739C8.46966 3.03983 8.46386 3.04236 8.45811 3.04502C8.45237 3.04767 8.44667 3.05042 8.44103 3.05328C8.43539 3.05616 8.4298 3.05912 8.42426 3.06219C8.41875 3.06528 8.41328 3.06845 8.40786 3.07173C8.40245 3.07502 8.39711 3.07841 8.39183 3.08189C8.38655 3.08539 8.38133 3.08897 8.37619 3.09266C8.37105 3.09634 8.36598 3.10012 8.36097 3.104C8.35597 3.10787 8.35105 3.11184 8.3462 3.11591C8.34134 3.11998 8.33658 3.12414 8.33189 3.12837C8.32719 3.13262 8.32258 3.13697 8.31806 3.14137C8.31353 3.14581 8.30909 3.15031 8.30473 3.15489C8.30037 3.15948 8.29609 3.16416 8.29192 3.16891C8.28775 3.17367 8.28366 3.1785 8.27966 3.18341C8.27567 3.18831 8.27177 3.1933 8.26795 3.19834C8.26416 3.20341 8.26044 3.20853 8.25683 3.21372C8.25322 3.21892 8.2497 3.22419 8.2463 3.22952C8.24288 3.23484 8.23956 3.24023 8.23636 3.24569C8.23316 3.25116 8.23005 3.25667 8.22706 3.26223C8.22406 3.26781 8.22117 3.27344 8.21838 3.27911C8.21559 3.2848 8.21292 3.29053 8.21036 3.29631C8.20778 3.30211 8.20533 3.30794 8.20298 3.31381C8.20064 3.31969 8.19841 3.32561 8.19628 3.33156C8.19417 3.33753 8.19216 3.34355 8.19027 3.34958C8.18837 3.35561 8.18659 3.36169 8.18494 3.36778C8.18327 3.37391 8.18172 3.38003 8.1803 3.38619C8.17887 3.39236 8.17756 3.39855 8.17636 3.40477C8.17517 3.41098 8.17409 3.41722 8.17314 3.42347C8.17219 3.42973 8.17134 3.436 8.17062 3.44228C8.16991 3.44858 8.16931 3.45487 8.16883 3.46119C8.16834 3.4675 8.16798 3.47381 8.16775 3.48012C8.16752 3.48645 8.16739 3.49278 8.16739 3.49911C8.16739 3.50545 8.16752 3.51178 8.16775 3.51809C8.16798 3.52442 8.16834 3.53073 8.16883 3.53703C8.16931 3.54334 8.16991 3.54966 8.17062 3.55594C8.17134 3.56222 8.17219 3.5685 8.17314 3.57475C8.17409 3.581 8.17517 3.58723 8.17636 3.59345C8.17756 3.59967 8.17887 3.60587 8.1803 3.61203C8.18172 3.61819 8.18327 3.62433 8.18494 3.63044C8.18659 3.63655 8.18837 3.64261 8.19027 3.64864C8.19216 3.65469 8.19417 3.66069 8.19628 3.66666C8.19841 3.67262 8.20064 3.67853 8.20298 3.68441C8.20533 3.6903 8.20778 3.69612 8.21036 3.70191C8.21292 3.70769 8.21559 3.71342 8.21838 3.71911C8.22117 3.7248 8.22406 3.73042 8.22706 3.73598C8.23005 3.74156 8.23316 3.74708 8.23636 3.75253C8.23956 3.758 8.24288 3.76339 8.2463 3.7687C8.2497 3.77405 8.25322 3.77931 8.25683 3.7845C8.26044 3.7897 8.26416 3.79483 8.26795 3.79987C8.27177 3.80494 8.27567 3.80991 8.27966 3.81481C8.28366 3.81972 8.28775 3.82456 8.29192 3.82931C8.29609 3.83406 8.30037 3.83873 8.30473 3.84333C8.30909 3.84792 8.31353 3.85242 8.31805 3.85684C8.32258 3.86127 8.32719 3.86559 8.33189 3.86984C8.33658 3.87409 8.34134 3.87825 8.3462 3.88231C8.35105 3.88637 8.35597 3.89034 8.36097 3.89422C8.36597 3.89809 8.37105 3.90187 8.37619 3.90556C8.38133 3.90925 8.38655 3.91284 8.39183 3.91633C8.39711 3.91983 8.40245 3.9232 8.40786 3.92648C8.41328 3.92977 8.41875 3.93295 8.42426 3.93603C8.4298 3.93911 8.43539 3.94208 8.44103 3.94494C8.44667 3.94781 8.45237 3.95056 8.45811 3.9532C8.46386 3.95586 8.46966 3.95841 8.4755 3.96083C8.48134 3.96327 8.48723 3.96558 8.49317 3.96778L10.1078 4.56578C10.3358 4.64978 10.5158 4.82978 10.5998 5.05778L11.1978 6.67244C11.2 6.67837 11.2024 6.68427 11.2048 6.69011C11.2072 6.69595 11.2097 6.70175 11.2124 6.7075C11.215 6.71325 11.2178 6.71894 11.2207 6.72458C11.2235 6.73023 11.2265 6.73581 11.2296 6.74134C11.2327 6.74687 11.2358 6.75234 11.2391 6.75775C11.2424 6.76316 11.2458 6.7685 11.2493 6.77378C11.2528 6.77906 11.2564 6.78428 11.26 6.78942C11.2637 6.79458 11.2675 6.79964 11.2714 6.80464C11.2753 6.80964 11.2792 6.81456 11.2833 6.81941C11.2874 6.82427 11.2915 6.82903 11.2958 6.83372C11.3 6.83842 11.3043 6.84303 11.3088 6.84756C11.3132 6.85209 11.3177 6.85653 11.3223 6.86087C11.3269 6.86525 11.3315 6.86952 11.3363 6.87369C11.3411 6.87787 11.3459 6.88195 11.3508 6.88595C11.3557 6.88995 11.3607 6.89384 11.3657 6.89766C11.3708 6.90147 11.3759 6.90517 11.3811 6.90878C11.3863 6.91241 11.3916 6.91591 11.3969 6.91931C11.4022 6.92273 11.4076 6.92605 11.4131 6.92925C11.4185 6.93247 11.424 6.93556 11.4296 6.93855C11.4352 6.94155 11.4408 6.94445 11.4465 6.94723C11.4522 6.95002 11.4579 6.95269 11.4637 6.95525C11.4695 6.95783 11.4753 6.96028 11.4812 6.96262C11.4871 6.96497 11.493 6.9672 11.499 6.96933C11.5049 6.97145 11.5109 6.97345 11.517 6.97534C11.523 6.97725 11.5291 6.97902 11.5352 6.98067C11.5413 6.98234 11.5474 6.98389 11.5536 6.98531C11.5597 6.98675 11.5659 6.98806 11.5722 6.98925C11.5784 6.99044 11.5846 6.99152 11.5909 6.99247C11.5971 6.99344 11.6034 6.99427 11.6097 6.99498C11.616 6.9957 11.6223 6.99631 11.6286 6.99678C11.6349 6.99727 11.6412 6.99762 11.6475 6.99786C11.6538 6.99811 11.6602 6.99822 11.6665 6.99822C11.6728 6.99822 11.6792 6.99811 11.6855 6.99786C11.6918 6.99762 11.6981 6.99727 11.7044 6.99678C11.7107 6.99631 11.717 6.9957 11.7233 6.99498C11.7296 6.99427 11.7359 6.99344 11.7421 6.99247C11.7484 6.99152 11.7546 6.99044 11.7608 6.98925C11.7671 6.98806 11.7732 6.98675 11.7794 6.98531C11.7856 6.98389 11.7917 6.98234 11.7978 6.98067C11.8039 6.97902 11.81 6.97725 11.816 6.97534C11.8221 6.97345 11.8281 6.97145 11.834 6.96933C11.84 6.9672 11.8459 6.96497 11.8518 6.96262C11.8577 6.96028 11.8635 6.95783 11.8693 6.95525C11.8751 6.95269 11.8808 6.95002 11.8865 6.94723C11.8922 6.94445 11.8978 6.94155 11.9034 6.93855C11.909 6.93556 11.9145 6.93247 11.9199 6.92925C11.9254 6.92605 11.9308 6.92273 11.9361 6.91931C11.9414 6.91591 11.9467 6.91241 11.9519 6.90878C11.9571 6.90517 11.9622 6.90147 11.9673 6.89766C11.9723 6.89384 11.9773 6.88995 11.9822 6.88595C11.9871 6.88195 11.9919 6.87787 11.9967 6.87369C12.0015 6.86952 12.0061 6.86525 12.0107 6.86087C12.0153 6.85653 12.0198 6.85209 12.0242 6.84756C12.0286 6.84303 12.033 6.83842 12.0372 6.83372C12.0415 6.82903 12.0456 6.82427 12.0497 6.81941C12.0538 6.81456 12.0577 6.80964 12.0616 6.80464C12.0655 6.79964 12.0693 6.79458 12.073 6.78942C12.0766 6.78428 12.0802 6.77906 12.0837 6.77378C12.0872 6.7685 12.0906 6.76316 12.0939 6.75775C12.0972 6.75234 12.1003 6.74687 12.1034 6.74134C12.1065 6.73581 12.1095 6.73023 12.1123 6.72458C12.1152 6.71894 12.118 6.71325 12.1206 6.7075C12.1233 6.70175 12.1258 6.69595 12.1282 6.69011C12.1306 6.68427 12.133 6.67837 12.1352 6.67244L12.7332 5.05778C12.7384 5.04375 12.7439 5.02987 12.7499 5.01614C12.7558 5.00242 12.7621 4.98887 12.7688 4.97548C12.7755 4.96211 12.7825 4.94891 12.7899 4.93589C12.7973 4.92289 12.805 4.91008 12.8131 4.89748C12.8211 4.88489 12.8295 4.87253 12.8383 4.86039C12.847 4.84827 12.8561 4.83636 12.8655 4.8247C12.8748 4.81305 12.8845 4.80166 12.8945 4.79053C12.9045 4.77941 12.9148 4.76855 12.9254 4.75797C12.9359 4.74741 12.9468 4.73711 12.9579 4.72711C12.969 4.71712 12.9804 4.70744 12.9921 4.69806C13.0037 4.68869 13.0156 4.67964 13.0278 4.67089C13.0399 4.66216 13.0523 4.65375 13.0649 4.64567C13.0775 4.63761 13.0903 4.62987 13.1033 4.62248C13.1163 4.61511 13.1295 4.60808 13.1429 4.60141C13.1563 4.59473 13.1698 4.58842 13.1835 4.58248C13.1973 4.57655 13.2111 4.57097 13.2252 4.56578L14.8398 3.96778C14.8458 3.96558 14.8517 3.96327 14.8575 3.96083C14.8633 3.95841 14.8691 3.95586 14.8749 3.9532C14.8806 3.95056 14.8863 3.94781 14.892 3.94494C14.8976 3.94208 14.9032 3.93911 14.9087 3.93603C14.9142 3.93295 14.9197 3.92977 14.9251 3.92648C14.9305 3.9232 14.9359 3.91983 14.9412 3.91633C14.9465 3.91284 14.9517 3.90925 14.9568 3.90556C14.962 3.90187 14.967 3.89809 14.972 3.89422C14.977 3.89034 14.982 3.88637 14.9868 3.88231C14.9917 3.87825 14.9964 3.87409 15.0011 3.86984C15.0058 3.86559 15.0104 3.86127 15.0149 3.85684C15.0195 3.85242 15.0239 3.84791 15.0283 3.84331C15.0326 3.83873 15.0369 3.83406 15.0411 3.82931C15.0452 3.82456 15.0493 3.81972 15.0533 3.81481C15.0573 3.80991 15.0612 3.80494 15.065 3.79987C15.0688 3.79483 15.0726 3.7897 15.0762 3.7845C15.0798 3.77931 15.0833 3.77405 15.0867 3.7687C15.0901 3.76339 15.0934 3.758 15.0966 3.75253C15.0998 3.74708 15.103 3.74156 15.1059 3.73598C15.1089 3.73042 15.1118 3.7248 15.1146 3.71911C15.1174 3.71342 15.1201 3.70769 15.1226 3.70191C15.1252 3.69612 15.1277 3.6903 15.13 3.68441C15.1324 3.67853 15.1346 3.67262 15.1367 3.66666C15.1388 3.66069 15.1408 3.65469 15.1427 3.64864C15.1446 3.64261 15.1464 3.63655 15.1481 3.63044C15.1497 3.62433 15.1513 3.61819 15.1527 3.61203C15.1541 3.60587 15.1554 3.59967 15.1566 3.59345C15.1578 3.58723 15.1589 3.581 15.1599 3.57475C15.1608 3.5685 15.1617 3.56222 15.1624 3.55594C15.1631 3.54966 15.1637 3.54334 15.1642 3.53703C15.1647 3.53073 15.165 3.52442 15.1652 3.51809C15.1655 3.51178 15.1656 3.50545 15.1656 3.49911C15.1656 3.4928 15.1655 3.48647 15.1652 3.48012C15.165 3.47381 15.1647 3.4675 15.1642 3.46119C15.1637 3.45487 15.1631 3.44858 15.1624 3.44228C15.1617 3.436 15.1608 3.42973 15.1599 3.42347C15.1589 3.41722 15.1578 3.41098 15.1566 3.40477C15.1554 3.39855 15.1541 3.39236 15.1527 3.3862C15.1513 3.38005 15.1497 3.37391 15.1481 3.3678C15.1464 3.36169 15.1446 3.35561 15.1427 3.34958C15.1408 3.34355 15.1388 3.33753 15.1367 3.33156C15.1346 3.32561 15.1324 3.31969 15.13 3.31381C15.1277 3.30794 15.1252 3.30211 15.1226 3.29631C15.1201 3.29053 15.1174 3.2848 15.1146 3.27911C15.1118 3.27344 15.1089 3.26781 15.1059 3.26223C15.103 3.25667 15.0998 3.25116 15.0966 3.24569C15.0934 3.24023 15.0901 3.23484 15.0867 3.22952C15.0833 3.22419 15.0798 3.21892 15.0762 3.21372C15.0726 3.20853 15.0688 3.20341 15.065 3.19834C15.0612 3.1933 15.0573 3.18831 15.0533 3.18341C15.0493 3.1785 15.0452 3.17367 15.0411 3.16891C15.0369 3.16416 15.0326 3.1595 15.0283 3.15491C15.0239 3.15031 15.0195 3.14581 15.0149 3.14137C15.0104 3.13697 15.0058 3.13262 15.0011 3.12837C14.9964 3.12414 14.9917 3.11998 14.9868 3.11591C14.982 3.11184 14.977 3.10787 14.972 3.104C14.967 3.10012 14.962 3.09634 14.9568 3.09266C14.9517 3.08897 14.9465 3.08539 14.9412 3.08189C14.9359 3.07841 14.9305 3.07502 14.9251 3.07173C14.9197 3.06845 14.9142 3.06528 14.9087 3.06219C14.9032 3.05912 14.8976 3.05616 14.892 3.05328C14.8863 3.05042 14.8806 3.04767 14.8749 3.04502C14.8691 3.04236 14.8633 3.03983 14.8575 3.03739C14.8517 3.03497 14.8458 3.03266 14.8398 3.03044L13.2252 2.43244C13.2111 2.42725 13.1973 2.42169 13.1835 2.41573C13.1698 2.4098 13.1563 2.4035 13.1429 2.39681C13.1295 2.39016 13.1163 2.38312 13.1033 2.37573C13.0903 2.36836 13.0775 2.36063 13.0649 2.35255C13.0523 2.34448 13.0399 2.33608 13.0278 2.32733C13.0156 2.31859 13.0037 2.30953 12.9921 2.30016C12.9804 2.29078 12.969 2.28109 12.9579 2.27109C12.9468 2.26111 12.9359 2.25083 12.9254 2.24025C12.9148 2.22969 12.9045 2.21883 12.8945 2.20769C12.8845 2.19656 12.8748 2.18517 12.8655 2.17352C12.8561 2.16186 12.847 2.14997 12.8383 2.13783C12.8295 2.1257 12.8211 2.11333 12.8131 2.10073C12.805 2.08814 12.7973 2.07534 12.7899 2.06233C12.7825 2.04933 12.7755 2.03612 12.7688 2.02273C12.7621 2.00936 12.7558 1.9958 12.7499 1.98208C12.7439 1.96836 12.7384 1.95447 12.7332 1.94044L12.1352 0.325783ZM11.5378 2.28711L11.6665 1.94044L11.7952 2.28711C11.8009 2.30255 11.8068 2.31792 11.8129 2.3332C11.819 2.34848 11.8254 2.36369 11.8319 2.37878C11.8385 2.39391 11.8452 2.40892 11.8521 2.42386C11.8591 2.4388 11.8662 2.45362 11.8736 2.46836C11.8809 2.48311 11.8884 2.49773 11.8962 2.51227C11.9039 2.5268 11.9118 2.54123 11.92 2.55555C11.9281 2.56988 11.9364 2.58409 11.9449 2.59819C11.9534 2.61228 11.9621 2.62627 11.971 2.64012C11.9799 2.654 11.9889 2.66773 11.9982 2.68134C12.0075 2.69497 12.0169 2.70845 12.0265 2.72181C12.0361 2.73519 12.0459 2.74842 12.0559 2.76152C12.0659 2.77462 12.076 2.78759 12.0863 2.80041C12.0967 2.81325 12.1071 2.82594 12.1178 2.83847C12.1285 2.85102 12.1393 2.86342 12.1503 2.87567C12.1613 2.88792 12.1725 2.90003 12.1838 2.91197C12.1951 2.92394 12.2066 2.93573 12.2182 2.94736C12.2299 2.95902 12.2417 2.9705 12.2536 2.98181C12.2656 2.99314 12.2777 3.0043 12.2899 3.0153C12.3022 3.0263 12.3146 3.03714 12.3271 3.0478C12.3397 3.05847 12.3524 3.06897 12.3652 3.07928C12.378 3.08961 12.391 3.09975 12.4041 3.10972C12.4172 3.1197 12.4304 3.1295 12.4438 3.13911C12.4571 3.14873 12.4706 3.15816 12.4843 3.16741C12.4979 3.17667 12.5116 3.18575 12.5255 3.19462C12.5393 3.2035 12.5533 3.2122 12.5674 3.2207C12.5815 3.22922 12.5957 3.23753 12.6101 3.24564C12.6244 3.25377 12.6388 3.2617 12.6533 3.26944C12.6679 3.27717 12.6825 3.2847 12.6972 3.29205C12.712 3.29939 12.7268 3.30653 12.7417 3.31347C12.7567 3.32042 12.7717 3.32716 12.7868 3.33369C12.8019 3.34022 12.8171 3.34656 12.8324 3.35269C12.8477 3.35881 12.8631 3.36473 12.8785 3.37044L13.2252 3.49911L12.8785 3.62778C12.8631 3.6335 12.8477 3.63941 12.8324 3.64553C12.8171 3.65166 12.8019 3.658 12.7868 3.66453C12.7717 3.67106 12.7567 3.67781 12.7417 3.68475C12.7268 3.69169 12.712 3.69883 12.6972 3.70617C12.6825 3.71352 12.6679 3.72105 12.6533 3.72878C12.6388 3.73653 12.6244 3.74445 12.6101 3.75256C12.5957 3.76069 12.5815 3.76902 12.5674 3.77752C12.5533 3.78603 12.5393 3.79472 12.5255 3.80359C12.5116 3.81248 12.4979 3.82156 12.4843 3.83081C12.4707 3.84006 12.4572 3.8495 12.4438 3.85911C12.4304 3.86873 12.4172 3.87853 12.4041 3.8885C12.391 3.89847 12.378 3.90862 12.3652 3.91894C12.3524 3.92927 12.3397 3.93977 12.3271 3.95042C12.3146 3.96109 12.3022 3.97192 12.2899 3.98292C12.2777 3.99392 12.2656 4.00509 12.2536 4.01641C12.2417 4.02773 12.2299 4.03922 12.2182 4.05086C12.2066 4.0625 12.1951 4.0743 12.1838 4.08625C12.1725 4.0982 12.1613 4.1103 12.1503 4.12255C12.1393 4.13481 12.1285 4.14722 12.1178 4.15975C12.1071 4.1723 12.0967 4.18498 12.0863 4.19781C12.076 4.21064 12.0659 4.22361 12.0559 4.2367C12.0459 4.2498 12.0361 4.26303 12.0265 4.27639C12.0169 4.28977 12.0075 4.30325 11.9982 4.31687C11.9889 4.3305 11.9799 4.34423 11.971 4.35809C11.9621 4.37197 11.9534 4.38594 11.9449 4.40003C11.9364 4.41414 11.9281 4.42836 11.92 4.44267C11.9118 4.45698 11.9039 4.47142 11.8962 4.48595C11.8884 4.50048 11.8809 4.51512 11.8736 4.52986C11.8662 4.54461 11.8591 4.55944 11.8521 4.57436C11.8452 4.5893 11.8385 4.60433 11.8319 4.61942C11.8254 4.63455 11.819 4.64973 11.8129 4.66502C11.8068 4.68031 11.8009 4.69567 11.7952 4.71111L11.6665 5.05778L11.5378 4.71111C11.5321 4.69567 11.5262 4.68031 11.5201 4.66502C11.514 4.64973 11.5076 4.63455 11.5011 4.61942C11.4945 4.60433 11.4878 4.5893 11.4809 4.57436C11.4739 4.55944 11.4668 4.54461 11.4594 4.52986C11.4521 4.51512 11.4446 4.50048 11.4368 4.48595C11.4291 4.47142 11.4212 4.45698 11.413 4.44267C11.4049 4.42836 11.3966 4.41414 11.3881 4.40003C11.3796 4.38594 11.3709 4.37197 11.362 4.35809C11.3531 4.34423 11.3441 4.3305 11.3348 4.31687C11.3255 4.30325 11.3161 4.28977 11.3065 4.27639C11.2969 4.26303 11.2871 4.2498 11.2771 4.2367C11.2671 4.22361 11.257 4.21064 11.2467 4.19781C11.2363 4.18498 11.2259 4.1723 11.2152 4.15975C11.2045 4.14722 11.1937 4.13481 11.1827 4.12255C11.1717 4.1103 11.1605 4.0982 11.1492 4.08625C11.1379 4.0743 11.1264 4.0625 11.1147 4.05086C11.1031 4.03922 11.0913 4.02773 11.0794 4.01641C11.0674 4.00509 11.0553 3.99392 11.0431 3.98292C11.0308 3.97192 11.0184 3.96109 11.0059 3.95042C10.9933 3.93977 10.9806 3.92927 10.9678 3.91894C10.955 3.90862 10.942 3.89847 10.9289 3.8885C10.9158 3.87853 10.9026 3.86873 10.8892 3.85911C10.8759 3.8495 10.8624 3.84006 10.8487 3.83081C10.8351 3.82156 10.8214 3.81248 10.8075 3.80359C10.7937 3.79472 10.7797 3.78603 10.7656 3.77752C10.7515 3.76902 10.7373 3.76069 10.7229 3.75256C10.7086 3.74445 10.6942 3.73653 10.6797 3.72878C10.6651 3.72105 10.6505 3.71352 10.6357 3.70617C10.621 3.69883 10.6062 3.69169 10.5912 3.68475C10.5763 3.67781 10.5613 3.67106 10.5462 3.66453C10.5311 3.658 10.5159 3.65166 10.5006 3.64553C10.4853 3.63941 10.4699 3.6335 10.4545 3.62778L10.1078 3.49911L10.4545 3.37044C10.4699 3.36473 10.4853 3.35881 10.5006 3.35269C10.5159 3.34656 10.5311 3.34023 10.5462 3.33369C10.5613 3.32716 10.5763 3.32042 10.5912 3.31347C10.6062 3.30653 10.621 3.29939 10.6357 3.29205C10.6505 3.2847 10.6651 3.27717 10.6797 3.26944C10.6942 3.2617 10.7086 3.25378 10.7229 3.24566C10.7373 3.23753 10.7515 3.22922 10.7656 3.2207C10.7797 3.2122 10.7937 3.2035 10.8075 3.19462C10.8214 3.18575 10.8351 3.17667 10.8487 3.16741C10.8623 3.15816 10.8758 3.14873 10.8892 3.13911C10.9026 3.1295 10.9158 3.1197 10.9289 3.10972C10.942 3.09975 10.955 3.08961 10.9678 3.07928C10.9806 3.06897 10.9933 3.05847 11.0059 3.0478C11.0184 3.03714 11.0308 3.0263 11.043 3.0153C11.0553 3.0043 11.0674 2.99314 11.0794 2.98181C11.0913 2.9705 11.1031 2.95902 11.1147 2.94736C11.1264 2.93573 11.1379 2.92394 11.1492 2.91197C11.1605 2.90003 11.1717 2.88792 11.1827 2.87567C11.1937 2.86342 11.2045 2.85102 11.2152 2.83847C11.2259 2.82594 11.2363 2.81325 11.2467 2.80041C11.257 2.78759 11.2671 2.77462 11.2771 2.76152C11.2871 2.74842 11.2969 2.73519 11.3065 2.72181C11.3161 2.70845 11.3255 2.69497 11.3348 2.68134C11.3441 2.66773 11.3531 2.654 11.362 2.64012C11.3709 2.62627 11.3796 2.61228 11.3881 2.59819C11.3966 2.58409 11.4049 2.56988 11.413 2.55555C11.4212 2.54123 11.4291 2.5268 11.4368 2.51227C11.4446 2.49773 11.4521 2.48311 11.4594 2.46836C11.4668 2.45362 11.4739 2.4388 11.4809 2.42386C11.4878 2.40892 11.4945 2.39391 11.5011 2.3788C11.5076 2.36369 11.5139 2.34848 11.5201 2.3332C11.5262 2.31792 11.5321 2.30255 11.5378 2.28711ZM5.9665 4.95778C5.96378 4.94952 5.96091 4.9413 5.95786 4.93314C5.95481 4.92498 5.95162 4.91689 5.94827 4.90886C5.94491 4.90083 5.94141 4.89287 5.93773 4.88497C5.93406 4.87708 5.93025 4.86927 5.92627 4.86152C5.9223 4.85378 5.91817 4.84612 5.91389 4.83853C5.90962 4.83095 5.9052 4.82345 5.90062 4.81605C5.89606 4.80864 5.89136 4.80131 5.8865 4.79409C5.88164 4.78687 5.87666 4.77975 5.87152 4.77272C5.86637 4.76569 5.86111 4.75877 5.8557 4.75194C5.8503 4.74512 5.84477 4.73841 5.83909 4.7318C5.83342 4.7252 5.82762 4.7187 5.8217 4.71231C5.81578 4.70594 5.80973 4.69969 5.80356 4.69353C5.79739 4.68741 5.79111 4.68139 5.78472 4.67548C5.77831 4.66959 5.7718 4.66383 5.76516 4.65817C5.75853 4.65255 5.7518 4.64703 5.74495 4.64166C5.73811 4.63628 5.73116 4.63105 5.72411 4.62594C5.71706 4.62084 5.70991 4.61587 5.70266 4.61105C5.69542 4.60622 5.68808 4.60153 5.68066 4.597C5.67323 4.59247 5.66572 4.58808 5.65811 4.58383C5.6505 4.57959 5.64283 4.5755 5.63506 4.57155C5.6273 4.56761 5.61947 4.56383 5.61156 4.56019C5.60366 4.55656 5.59569 4.55308 5.58764 4.54975C5.57959 4.54644 5.57148 4.54327 5.56331 4.54027C5.55514 4.53727 5.54692 4.53442 5.53864 4.53173C5.53036 4.52905 5.52203 4.52653 5.51366 4.52417C5.50527 4.52183 5.49684 4.51962 5.48839 4.51759C5.47992 4.51558 5.47142 4.51372 5.46287 4.51202C5.45434 4.51033 5.44578 4.5088 5.43717 4.50744C5.42858 4.50609 5.41995 4.50491 5.41131 4.50387C5.40267 4.50286 5.394 4.50202 5.38533 4.50133C5.37666 4.50064 5.36797 4.50012 5.35927 4.49978C5.35056 4.49945 5.34187 4.49928 5.33317 4.49928C5.32447 4.49928 5.31577 4.49945 5.30706 4.49978C5.29836 4.50012 5.28967 4.50064 5.281 4.50133C5.27233 4.50202 5.26366 4.50286 5.25502 4.50387C5.24637 4.50491 5.23775 4.50609 5.22916 4.50744C5.22056 4.5088 5.212 4.51033 5.20345 4.51202C5.19491 4.51372 5.18641 4.51558 5.17795 4.51759C5.16948 4.51962 5.16106 4.52183 5.15269 4.52417C5.1443 4.52653 5.13597 4.52905 5.1277 4.53173C5.11942 4.53442 5.11119 4.53727 5.10302 4.54027C5.09484 4.54327 5.08675 4.54644 5.0787 4.54975C5.07066 4.55308 5.06267 4.55656 5.05477 4.56019C5.04686 4.56383 5.03903 4.56761 5.03127 4.57155C5.0235 4.5755 5.01583 4.57959 5.00822 4.58383C5.00062 4.58808 4.99311 4.59247 4.98569 4.597C4.97825 4.60153 4.97091 4.60622 4.96367 4.61105C4.95642 4.61587 4.94928 4.62084 4.94223 4.62594C4.93519 4.63105 4.92823 4.63628 4.92139 4.64166C4.91453 4.64703 4.9078 4.65255 4.90117 4.65817C4.89455 4.66383 4.88803 4.66959 4.88162 4.67548C4.87522 4.68139 4.86894 4.68741 4.86277 4.69353C4.85659 4.69969 4.85055 4.70594 4.84462 4.71231C4.8387 4.7187 4.83292 4.7252 4.82725 4.7318C4.82158 4.73841 4.81603 4.74512 4.81064 4.75194C4.80523 4.75877 4.79997 4.76569 4.79483 4.77272C4.78969 4.77975 4.7847 4.78687 4.77984 4.79409C4.77498 4.80131 4.77028 4.80864 4.7657 4.81605C4.76114 4.82345 4.75672 4.83095 4.75244 4.83853C4.74817 4.84612 4.74405 4.85378 4.74006 4.86152C4.73609 4.86927 4.73227 4.87708 4.72859 4.88497C4.72492 4.89287 4.72142 4.90083 4.71806 4.90886C4.7147 4.91689 4.71152 4.92498 4.70847 4.93314C4.70542 4.9413 4.70255 4.94952 4.69983 4.95778L3.9665 7.18978C3.96042 7.2083 3.95406 7.22672 3.94742 7.24505C3.9408 7.26339 3.93391 7.28161 3.92675 7.29973C3.91959 7.31787 3.91217 7.33589 3.90448 7.3538C3.8968 7.37172 3.88884 7.38952 3.88064 7.40719C3.87244 7.42487 3.86397 7.44242 3.85525 7.45986C3.84653 7.4773 3.83756 7.49461 3.82834 7.51177C3.81911 7.52894 3.80964 7.54597 3.79991 7.56286C3.79019 7.57977 3.78022 7.59652 3.77002 7.61311C3.7598 7.6297 3.74934 7.64616 3.73864 7.66245C3.72795 7.67875 3.71703 7.69489 3.70586 7.71086C3.69469 7.72684 3.6833 7.74266 3.67167 7.7583C3.66003 7.77394 3.64817 7.78941 3.63609 7.8047C3.62402 7.82 3.61172 7.83511 3.5992 7.85005C3.58667 7.86498 3.57394 7.87973 3.56098 7.8943C3.54803 7.90887 3.53486 7.92325 3.52148 7.93742C3.50811 7.95161 3.49453 7.96558 3.48075 7.97936C3.46697 7.99314 3.45298 8.00672 3.43881 8.02009C3.42464 8.03347 3.41027 8.04664 3.39569 8.05959C3.38112 8.07255 3.36637 8.08528 3.35144 8.09781C3.3365 8.11034 3.32139 8.12264 3.30609 8.1347C3.2908 8.1468 3.27533 8.15866 3.25969 8.17028C3.24405 8.18191 3.22823 8.19331 3.21225 8.20447C3.19627 8.21564 3.18014 8.22656 3.16384 8.23725C3.14755 8.24795 3.13109 8.25841 3.1145 8.26862C3.09789 8.27884 3.08114 8.2888 3.06425 8.29852C3.04736 8.30825 3.03033 8.31773 3.01316 8.32695C2.99598 8.33617 2.97869 8.34514 2.96125 8.35386C2.94381 8.36258 2.92625 8.37105 2.90858 8.37925C2.89091 8.38747 2.87311 8.39541 2.85519 8.40309C2.83728 8.41078 2.81927 8.4182 2.80112 8.42536C2.783 8.43252 2.76477 8.43942 2.74644 8.44605C2.72811 8.45267 2.70969 8.45903 2.69117 8.46511L0.4585 9.19911C0.450231 9.20183 0.442019 9.20472 0.433862 9.20775C0.425706 9.21078 0.417612 9.21398 0.409581 9.21734C0.401552 9.2207 0.393589 9.22422 0.385695 9.22787C0.377802 9.23155 0.369983 9.23537 0.362239 9.23934C0.354497 9.24331 0.346834 9.24744 0.339252 9.25172C0.331669 9.256 0.324173 9.26042 0.316764 9.26498C0.309356 9.26955 0.302039 9.27427 0.294816 9.27911C0.287591 9.28397 0.280464 9.28897 0.273436 9.29409C0.266406 9.29923 0.259481 9.3045 0.252659 9.30991C0.245836 9.31531 0.239122 9.32086 0.232517 9.32652C0.225912 9.33219 0.21942 9.33798 0.213041 9.34391C0.206662 9.34983 0.200403 9.35588 0.194261 9.36205C0.188119 9.36822 0.182102 9.3745 0.176206 9.38089C0.170311 9.3873 0.164542 9.39383 0.158902 9.40045C0.153262 9.40708 0.147754 9.41381 0.142377 9.42066C0.137 9.4275 0.13176 9.43445 0.126656 9.4415C0.121552 9.44856 0.116588 9.4557 0.111764 9.46294C0.10694 9.47019 0.102259 9.47753 0.0977219 9.48495C0.0931855 9.49239 0.0887958 9.49991 0.0845531 9.5075C0.0803105 9.51509 0.0762183 9.52278 0.0722766 9.53053C0.0683348 9.5383 0.0645469 9.54614 0.0609125 9.55405C0.057277 9.56195 0.0537984 9.56994 0.0504766 9.57797C0.0471536 9.58603 0.0439902 9.59414 0.0409859 9.6023C0.0379808 9.61047 0.035137 9.61869 0.0324547 9.62697C0.0297714 9.63525 0.0272516 9.64358 0.0248953 9.65195C0.0225391 9.66034 0.020348 9.66877 0.0183219 9.67722C0.0162948 9.68569 0.0144344 9.6942 0.0127406 9.70273C0.0110469 9.71127 0.00952136 9.71984 0.00816408 9.72844C0.00680572 9.73703 0.00561667 9.74566 0.00459689 9.7543C0.00357605 9.76295 0.002725 9.77161 0.00204375 9.78028C0.0013625 9.78897 0.000851572 9.79766 0.000510931 9.80634C0.00017032 9.81505 0 9.82375 0 9.83244C0 9.84116 0.00017032 9.84986 0.000510931 9.85855C0.000851572 9.86725 0.0013625 9.87594 0.00204375 9.88461C0.002725 9.8933 0.00357605 9.90195 0.00459689 9.91059C0.00561667 9.91923 0.00680572 9.92786 0.00816408 9.93645C0.00952136 9.94505 0.0110469 9.95362 0.0127406 9.96216C0.0144344 9.97069 0.0162948 9.97919 0.0183219 9.98766C0.020348 9.99612 0.0225391 10.0045 0.0248953 10.0129C0.0272516 10.0213 0.0297714 10.0296 0.0324547 10.0379C0.035137 10.0462 0.0379808 10.0544 0.0409859 10.0626C0.0439902 10.0708 0.0471536 10.0789 0.0504766 10.0869C0.0537984 10.095 0.057277 10.1029 0.0609125 10.1108C0.0645469 10.1187 0.0683348 10.1266 0.0722766 10.1343C0.0762183 10.1421 0.0803105 10.1498 0.0845531 10.1574C0.0887958 10.165 0.0931855 10.1725 0.0977219 10.1799C0.102259 10.1874 0.10694 10.1947 0.111764 10.2019C0.116588 10.2092 0.121552 10.2163 0.126656 10.2234C0.13176 10.2304 0.137 10.2374 0.142377 10.2442C0.147754 10.2511 0.153262 10.2578 0.158902 10.2644C0.164542 10.2711 0.170311 10.2776 0.176206 10.284C0.182102 10.2904 0.188119 10.2967 0.194261 10.3028C0.200403 10.309 0.206662 10.3151 0.213041 10.321C0.21942 10.3269 0.225912 10.3327 0.232517 10.3384C0.239122 10.344 0.245836 10.3496 0.252659 10.355C0.259481 10.3604 0.266406 10.3657 0.273436 10.3708C0.280464 10.3759 0.287591 10.3809 0.294816 10.3858C0.302039 10.3906 0.309356 10.3953 0.316766 10.3999C0.324173 10.4045 0.331669 10.4089 0.339252 10.4132C0.346834 10.4175 0.354497 10.4216 0.362241 10.4255C0.369983 10.4295 0.377802 10.4333 0.385695 10.437C0.393589 10.4407 0.401552 10.4442 0.409581 10.4475C0.417612 10.4509 0.425706 10.4541 0.433862 10.4571C0.442019 10.4602 0.450231 10.4631 0.4585 10.4658L2.6905 11.1998C2.70902 11.2059 2.72744 11.2122 2.74577 11.2188C2.76409 11.2255 2.78233 11.2324 2.80047 11.2395C2.81859 11.2467 2.83661 11.2541 2.85453 11.2618C2.87244 11.2695 2.89023 11.2774 2.90792 11.2856C2.92559 11.2938 2.94316 11.3023 2.96058 11.311C2.97802 11.3197 2.99531 11.3287 3.01248 11.3379C3.02966 11.3472 3.04669 11.3566 3.06358 11.3664C3.08047 11.3761 3.09722 11.3861 3.11383 11.3963C3.13044 11.4065 3.14687 11.4169 3.16317 11.4276C3.17947 11.4383 3.19561 11.4493 3.21158 11.4604C3.22756 11.4716 3.24337 11.483 3.25902 11.4946C3.27466 11.5062 3.29012 11.5181 3.30542 11.5302C3.32072 11.5423 3.33584 11.5546 3.35078 11.5671C3.36572 11.5796 3.38047 11.5923 3.39503 11.6053C3.40959 11.6182 3.42397 11.6314 3.43814 11.6448C3.45233 11.6582 3.46631 11.6717 3.48009 11.6855C3.49387 11.6993 3.50745 11.7133 3.52083 11.7275C3.5342 11.7417 3.54736 11.756 3.56031 11.7706C3.57327 11.7851 3.58602 11.7999 3.59853 11.8148C3.61105 11.8298 3.62336 11.8449 3.63544 11.8602C3.64752 11.8755 3.65937 11.891 3.671 11.9066C3.68262 11.9222 3.69402 11.9381 3.70519 11.954C3.71636 11.97 3.72728 11.9861 3.73798 12.0024C3.74867 12.0187 3.75912 12.0352 3.76934 12.0518C3.77955 12.0684 3.78952 12.0851 3.79925 12.102C3.80897 12.1189 3.81844 12.136 3.82767 12.1531C3.83691 12.1703 3.84587 12.1876 3.85459 12.205C3.86331 12.2225 3.87178 12.24 3.87998 12.2577C3.88819 12.2754 3.89612 12.2932 3.90381 12.3111C3.9115 12.329 3.91892 12.347 3.92608 12.3651C3.93325 12.3833 3.94014 12.4015 3.94677 12.4198C3.95339 12.4382 3.95975 12.4566 3.96583 12.4751L4.69983 14.7071C4.70255 14.7154 4.70542 14.7236 4.70847 14.7317C4.71152 14.7399 4.7147 14.748 4.71806 14.756C4.72142 14.7641 4.72492 14.772 4.72859 14.7799C4.73227 14.7878 4.73609 14.7956 4.74006 14.8034C4.74405 14.8111 4.74817 14.8188 4.75244 14.8264C4.75672 14.834 4.76114 14.8414 4.7657 14.8488C4.77028 14.8562 4.77498 14.8636 4.77984 14.8708C4.7847 14.878 4.78969 14.8851 4.79483 14.8922C4.79997 14.8992 4.80523 14.9061 4.81063 14.913C4.81603 14.9198 4.82158 14.9265 4.82725 14.9331C4.83292 14.9397 4.8387 14.9462 4.84462 14.9526C4.85055 14.959 4.85659 14.9652 4.86277 14.9713C4.86894 14.9775 4.87522 14.9835 4.88162 14.9894C4.88803 14.9953 4.89455 15.0011 4.90117 15.0067C4.9078 15.0124 4.91453 15.0179 4.92139 15.0232C4.92823 15.0286 4.93519 15.0339 4.94223 15.039C4.94928 15.0441 4.95642 15.049 4.96367 15.0538C4.97091 15.0587 4.97825 15.0634 4.98569 15.0679C4.99311 15.0724 5.00062 15.0768 5.00822 15.0811C5.01583 15.0853 5.0235 15.0894 5.03127 15.0933C5.03903 15.0973 5.04686 15.1011 5.05477 15.1047C5.06267 15.1083 5.07066 15.1118 5.0787 15.1151C5.08675 15.1185 5.09484 15.1216 5.10302 15.1246C5.11119 15.1276 5.11942 15.1305 5.1277 15.1332C5.13597 15.1359 5.1443 15.1384 5.15269 15.1407C5.16106 15.1431 5.16948 15.1453 5.17795 15.1472C5.18641 15.1493 5.19491 15.1512 5.20345 15.1529C5.212 15.1545 5.22056 15.156 5.22916 15.1574C5.23775 15.1587 5.24637 15.16 5.25502 15.161C5.26366 15.162 5.27233 15.1629 5.281 15.1636C5.28967 15.1643 5.29836 15.1647 5.30706 15.165C5.31577 15.1655 5.32447 15.1657 5.33317 15.1657C5.34187 15.1657 5.35056 15.1655 5.35927 15.165C5.36797 15.1647 5.37666 15.1643 5.38533 15.1636C5.394 15.1629 5.40267 15.162 5.41131 15.161C5.41995 15.16 5.42858 15.1587 5.43717 15.1574C5.44578 15.156 5.45434 15.1545 5.46287 15.1529C5.47142 15.1512 5.47992 15.1493 5.48839 15.1472C5.49684 15.1453 5.50527 15.1431 5.51366 15.1407C5.52203 15.1384 5.53036 15.1359 5.53864 15.1332C5.54692 15.1305 5.55514 15.1276 5.56331 15.1246C5.57148 15.1216 5.57959 15.1185 5.58764 15.1151C5.59569 15.1118 5.60366 15.1083 5.61156 15.1047C5.61947 15.1011 5.6273 15.0973 5.63506 15.0933C5.64283 15.0894 5.6505 15.0853 5.65811 15.0811C5.66572 15.0768 5.67323 15.0724 5.68066 15.0679C5.68808 15.0634 5.69542 15.0587 5.70266 15.0538C5.70991 15.049 5.71706 15.0441 5.72411 15.039C5.73116 15.0339 5.73811 15.0286 5.74495 15.0232C5.7518 15.0179 5.75853 15.0124 5.76516 15.0067C5.7718 15.0011 5.77831 14.9953 5.78472 14.9894C5.79111 14.9835 5.79739 14.9775 5.80356 14.9713C5.80973 14.9652 5.81578 14.959 5.8217 14.9526C5.82762 14.9462 5.83342 14.9397 5.83909 14.9331C5.84477 14.9265 5.8503 14.9198 5.8557 14.913C5.86111 14.9061 5.86637 14.8992 5.87152 14.8922C5.87666 14.8851 5.88164 14.878 5.8865 14.8708C5.89136 14.8636 5.89606 14.8562 5.90062 14.8488C5.9052 14.8414 5.90962 14.834 5.91389 14.8264C5.91817 14.8188 5.9223 14.8111 5.92627 14.8034C5.93025 14.7956 5.93406 14.7878 5.93773 14.7799C5.94141 14.772 5.94491 14.7641 5.94827 14.756C5.95162 14.748 5.95481 14.7399 5.95786 14.7317C5.96091 14.7236 5.96378 14.7154 5.9665 14.7071L6.7005 12.4751C6.70658 12.4566 6.71294 12.4382 6.71958 12.4198C6.7262 12.4015 6.73309 12.3833 6.74025 12.3651C6.74741 12.347 6.75483 12.329 6.76252 12.3111C6.7702 12.2932 6.77816 12.2754 6.78636 12.2577C6.79456 12.24 6.80303 12.2225 6.81175 12.205C6.82047 12.1876 6.82944 12.1703 6.83866 12.1531C6.84789 12.136 6.85736 12.1189 6.86709 12.102C6.87681 12.0851 6.88678 12.0684 6.897 12.0518C6.9072 12.0352 6.91766 12.0187 6.92836 12.0024C6.93905 11.9861 6.94997 11.97 6.96114 11.954C6.97231 11.9381 6.9837 11.9222 6.99533 11.9066C7.00697 11.891 7.01883 11.8755 7.03091 11.8602C7.04298 11.8449 7.05528 11.8298 7.0678 11.8148C7.08033 11.7999 7.09306 11.7851 7.10602 11.7706C7.11897 11.756 7.13214 11.7417 7.14552 11.7275C7.15889 11.7133 7.17247 11.6993 7.18625 11.6855C7.20003 11.6717 7.21402 11.6582 7.22819 11.6448C7.24236 11.6314 7.25673 11.6182 7.27131 11.6053C7.28587 11.5923 7.30062 11.5796 7.31556 11.5671C7.3305 11.5546 7.34561 11.5423 7.36091 11.5302C7.3762 11.5181 7.39169 11.5062 7.40733 11.4946C7.42297 11.483 7.43877 11.4716 7.45475 11.4604C7.47073 11.4493 7.48686 11.4383 7.50316 11.4276C7.51945 11.4169 7.53591 11.4065 7.5525 11.3963C7.56911 11.3861 7.58586 11.3761 7.60275 11.3664C7.61964 11.3566 7.63667 11.3472 7.65384 11.3379C7.67102 11.3287 7.68833 11.3197 7.70575 11.311C7.72319 11.3023 7.74075 11.2938 7.75842 11.2856C7.77609 11.2774 7.79389 11.2695 7.81181 11.2618C7.82972 11.2541 7.84773 11.2467 7.86587 11.2395C7.884 11.2324 7.90223 11.2255 7.92056 11.2188C7.93889 11.2122 7.95731 11.2059 7.97583 11.1998L10.2078 10.4658C10.2161 10.4631 10.2243 10.4602 10.2325 10.4571C10.2406 10.4541 10.2487 10.4509 10.2568 10.4475C10.2648 10.4442 10.2727 10.4407 10.2806 10.437C10.2885 10.4333 10.2964 10.4295 10.3041 10.4255C10.3118 10.4216 10.3195 10.4175 10.3271 10.4132C10.3347 10.4089 10.3422 10.4045 10.3496 10.3999C10.357 10.3953 10.3643 10.3906 10.3715 10.3858C10.3787 10.3809 10.3859 10.3759 10.3929 10.3708C10.3999 10.3657 10.4068 10.3604 10.4137 10.355C10.4205 10.3496 10.4272 10.344 10.4338 10.3384C10.4404 10.3327 10.4469 10.3269 10.4533 10.321C10.4597 10.3151 10.4659 10.309 10.4721 10.3028C10.4782 10.2967 10.4842 10.2904 10.4901 10.284C10.496 10.2776 10.5018 10.2711 10.5074 10.2644C10.5131 10.2578 10.5186 10.2511 10.524 10.2442C10.5293 10.2374 10.5346 10.2304 10.5397 10.2234C10.5448 10.2163 10.5497 10.2092 10.5546 10.2019C10.5594 10.1947 10.5641 10.1874 10.5686 10.1799C10.5732 10.1725 10.5775 10.165 10.5818 10.1574C10.586 10.1498 10.5901 10.1421 10.5941 10.1343C10.598 10.1266 10.6018 10.1187 10.6054 10.1108C10.6091 10.1029 10.6125 10.095 10.6159 10.0869C10.6192 10.0789 10.6223 10.0708 10.6253 10.0626C10.6284 10.0544 10.6312 10.0462 10.6339 10.0379C10.6366 10.0296 10.6391 10.0213 10.6414 10.0129C10.6438 10.0045 10.646 9.99612 10.648 9.98766C10.65 9.97919 10.6519 9.97069 10.6536 9.96216C10.6553 9.95362 10.6568 9.94505 10.6582 9.93645C10.6595 9.92786 10.6607 9.91923 10.6617 9.91059C10.6627 9.90195 10.6636 9.8933 10.6643 9.88461C10.665 9.87594 10.6655 9.86725 10.6658 9.85855C10.6662 9.84986 10.6663 9.84116 10.6663 9.83244C10.6663 9.82375 10.6662 9.81505 10.6658 9.80634C10.6655 9.79766 10.665 9.78897 10.6643 9.78028C10.6636 9.77161 10.6627 9.76295 10.6617 9.7543C10.6607 9.74566 10.6595 9.73703 10.6582 9.72844C10.6568 9.71984 10.6553 9.71127 10.6536 9.70273C10.6519 9.6942 10.65 9.68569 10.648 9.67722C10.646 9.66877 10.6438 9.66034 10.6414 9.65195C10.6391 9.64358 10.6366 9.63525 10.6339 9.62697C10.6312 9.61869 10.6284 9.61047 10.6253 9.6023C10.6223 9.59414 10.6192 9.58603 10.6159 9.57797C10.6125 9.56994 10.6091 9.56195 10.6054 9.55405C10.6018 9.54614 10.598 9.5383 10.5941 9.53053C10.5901 9.52278 10.586 9.51509 10.5818 9.5075C10.5775 9.49991 10.5732 9.49239 10.5686 9.48495C10.5641 9.47753 10.5594 9.4702 10.5546 9.46295C10.5497 9.4557 10.5448 9.44856 10.5397 9.4415C10.5346 9.43445 10.5293 9.4275 10.524 9.42066C10.5186 9.41381 10.5131 9.40708 10.5074 9.40045C10.5018 9.39383 10.496 9.3873 10.4901 9.38089C10.4842 9.3745 10.4782 9.36822 10.4721 9.36205C10.4659 9.35588 10.4597 9.34983 10.4533 9.34391C10.4469 9.33798 10.4404 9.33219 10.4338 9.32652C10.4272 9.32086 10.4205 9.31531 10.4137 9.30991C10.4068 9.3045 10.3999 9.29923 10.3929 9.29409C10.3859 9.28897 10.3787 9.28397 10.3715 9.27911C10.3643 9.27427 10.357 9.26955 10.3496 9.26498C10.3422 9.26042 10.3347 9.256 10.3271 9.25172C10.3195 9.24744 10.3118 9.24331 10.3041 9.23934C10.2963 9.23537 10.2885 9.23155 10.2806 9.22787C10.2727 9.22422 10.2648 9.2207 10.2568 9.21734C10.2487 9.21398 10.2406 9.21078 10.2325 9.20775C10.2243 9.20472 10.2161 9.20183 10.2078 9.19911L7.97583 8.46511C7.95731 8.45903 7.93889 8.45267 7.92056 8.44605C7.90223 8.43942 7.884 8.43252 7.86587 8.42536C7.84773 8.4182 7.82972 8.41078 7.81181 8.40309C7.79389 8.39541 7.77609 8.38747 7.75842 8.37925C7.74075 8.37105 7.72319 8.36258 7.70575 8.35386C7.68833 8.34514 7.67102 8.33617 7.65384 8.32695C7.63667 8.31773 7.61964 8.30825 7.60275 8.29852C7.58586 8.2888 7.56911 8.27883 7.5525 8.26861C7.53591 8.25841 7.51945 8.24795 7.50316 8.23725C7.48686 8.22656 7.47073 8.21564 7.45475 8.20447C7.43877 8.19331 7.42297 8.18191 7.40733 8.17027C7.39169 8.15864 7.3762 8.1468 7.36091 8.1347C7.34561 8.12264 7.3305 8.11034 7.31556 8.09781C7.30062 8.08528 7.28587 8.07255 7.27131 8.05959C7.25673 8.04664 7.24236 8.03347 7.22819 8.02009C7.21402 8.00672 7.20003 7.99314 7.18625 7.97936C7.17247 7.96558 7.15889 7.95161 7.14552 7.93742C7.13214 7.92325 7.11897 7.90887 7.10602 7.8943C7.09306 7.87973 7.08033 7.86498 7.0678 7.85005C7.05528 7.83511 7.04298 7.82 7.03091 7.8047C7.01883 7.78941 7.00697 7.77394 6.99533 7.75828C6.9837 7.74266 6.97231 7.72684 6.96114 7.71086C6.94997 7.69489 6.93905 7.67875 6.92836 7.66245C6.91766 7.64616 6.9072 7.6297 6.897 7.61311C6.88678 7.59652 6.87681 7.57977 6.86709 7.56286C6.85736 7.54597 6.84789 7.52894 6.83866 7.51177C6.82944 7.49459 6.82047 7.4773 6.81175 7.45986C6.80303 7.44242 6.79456 7.42487 6.78636 7.40719C6.77816 7.38952 6.7702 7.37172 6.76252 7.3538C6.75483 7.33589 6.74741 7.31787 6.74025 7.29973C6.73309 7.28161 6.7262 7.26339 6.71958 7.24505C6.71294 7.22672 6.70658 7.2083 6.7005 7.18978L5.9665 4.95778ZM5.2325 7.60578L5.33317 7.29911L5.43383 7.60578C5.44397 7.63664 5.45458 7.66734 5.46562 7.69787C5.47667 7.72844 5.48816 7.75881 5.50008 7.78902C5.51202 7.81923 5.52439 7.84927 5.53719 7.87911C5.55 7.90897 5.56325 7.93862 5.57692 7.96809C5.59059 7.99756 5.6047 8.02681 5.61923 8.05586C5.63377 8.08492 5.64872 8.11375 5.66409 8.14236C5.67948 8.17097 5.69527 8.19934 5.71147 8.2275C5.72767 8.25566 5.7443 8.28358 5.76131 8.31123C5.77833 8.33889 5.79575 8.36631 5.81358 8.39347C5.83141 8.42062 5.84961 8.44752 5.86822 8.47414C5.88683 8.50076 5.90583 8.52711 5.9252 8.55317C5.94458 8.57925 5.96433 8.60503 5.98447 8.63052C6.00461 8.65602 6.02511 8.6812 6.04597 8.70609C6.06683 8.73098 6.08806 8.75556 6.10966 8.77984C6.13123 8.80412 6.15317 8.82806 6.17547 8.85169C6.19777 8.87533 6.22039 8.89862 6.24336 8.92159C6.26633 8.94456 6.28962 8.96719 6.31325 8.98947C6.33689 9.01177 6.36084 9.0337 6.38511 9.05528C6.40937 9.07687 6.43395 9.09811 6.45884 9.11897C6.48373 9.13984 6.50894 9.16034 6.53442 9.18047C6.55991 9.20061 6.58569 9.22036 6.61177 9.23973C6.63784 9.25912 6.66419 9.27812 6.69081 9.29672C6.71744 9.31533 6.74433 9.33355 6.77148 9.35136C6.79864 9.36919 6.82605 9.38661 6.85372 9.40362C6.88139 9.42066 6.9093 9.43727 6.93744 9.45347C6.96559 9.46969 6.99398 9.48547 7.02259 9.50084C7.0512 9.51622 7.08003 9.53117 7.10908 9.5457C7.13812 9.56023 7.16739 9.57434 7.19686 9.58802C7.22631 9.6017 7.25597 9.61494 7.28583 9.62775C7.31567 9.64056 7.3457 9.65292 7.37592 9.66486C7.40612 9.6768 7.43652 9.68828 7.46706 9.69933C7.49761 9.71037 7.52831 9.72097 7.55917 9.73111L7.86583 9.83178L7.55917 9.93244C7.52831 9.94259 7.49761 9.95319 7.46706 9.96423C7.43652 9.97528 7.40612 9.98676 7.37592 9.99869C7.3457 10.0106 7.31567 10.023 7.28583 10.0358C7.25597 10.0486 7.22631 10.0619 7.19686 10.0755C7.16739 10.0892 7.13812 10.1033 7.10908 10.1178C7.08003 10.1324 7.0512 10.1473 7.02259 10.1627C6.99398 10.1781 6.96559 10.1939 6.93744 10.2101C6.9093 10.2263 6.88139 10.2429 6.85372 10.2599C6.82605 10.277 6.79864 10.2944 6.77148 10.3122C6.74433 10.33 6.71744 10.3482 6.69081 10.3668C6.66419 10.3855 6.63784 10.4044 6.61177 10.4238C6.58569 10.4432 6.55991 10.463 6.53442 10.4831C6.50894 10.5032 6.48373 10.5237 6.45884 10.5446C6.43395 10.5655 6.40937 10.5867 6.38511 10.6083C6.36084 10.6299 6.33689 10.6518 6.31325 10.6741C6.28962 10.6964 6.26633 10.719 6.24336 10.742C6.22039 10.7649 6.19777 10.7882 6.17547 10.8119C6.15317 10.8355 6.13123 10.8595 6.10966 10.8837C6.08808 10.908 6.06684 10.9326 6.04597 10.9575C6.02511 10.9824 6.00461 11.0075 5.98447 11.033C5.96433 11.0585 5.94458 11.0843 5.9252 11.1104C5.90583 11.1365 5.88683 11.1628 5.86822 11.1894C5.84961 11.216 5.83141 11.2429 5.81358 11.2701C5.79575 11.2972 5.77833 11.3247 5.76131 11.3523C5.7443 11.38 5.72767 11.4079 5.71147 11.436C5.69527 11.4642 5.67948 11.4926 5.66411 11.5212C5.64872 11.5498 5.63377 11.5787 5.61923 11.6077C5.6047 11.6367 5.59059 11.666 5.57692 11.6955C5.56325 11.7249 5.55 11.7546 5.53719 11.7844C5.52439 11.8143 5.51202 11.8443 5.50008 11.8745C5.48816 11.9047 5.47667 11.9351 5.46562 11.9657C5.45458 11.9962 5.44397 12.0269 5.43383 12.0578L5.33317 12.3644L5.2325 12.0578C5.22236 12.0269 5.21177 11.9962 5.20072 11.9657C5.18967 11.9351 5.17817 11.9047 5.16625 11.8745C5.15433 11.8443 5.14195 11.8143 5.12914 11.7844C5.11633 11.7546 5.10308 11.7249 5.08941 11.6955C5.07573 11.666 5.06163 11.6367 5.04709 11.6077C5.03256 11.5787 5.01761 11.5498 5.00223 11.5212C4.98686 11.4926 4.97106 11.4642 4.95486 11.436C4.93866 11.4079 4.92203 11.38 4.90502 11.3523C4.888 11.3247 4.87058 11.2972 4.85275 11.2701C4.83492 11.2429 4.81672 11.216 4.79811 11.1894C4.7795 11.1628 4.76052 11.1365 4.74112 11.1104C4.72175 11.0843 4.702 11.0585 4.68186 11.033C4.66173 11.0075 4.64123 10.9824 4.62036 10.9575C4.5995 10.9326 4.57827 10.908 4.55667 10.8837C4.53509 10.8595 4.51316 10.8355 4.49086 10.8119C4.46858 10.7882 4.44595 10.7649 4.42298 10.742C4.40002 10.719 4.37672 10.6964 4.35308 10.6741C4.32945 10.6518 4.3055 10.6299 4.28123 10.6083C4.25695 10.5867 4.23237 10.5655 4.20748 10.5446C4.18259 10.5237 4.15739 10.5032 4.13191 10.4831C4.10642 10.463 4.08064 10.4432 4.05456 10.4238C4.02848 10.4044 4.00214 10.3855 3.97553 10.3668C3.94891 10.3482 3.92202 10.33 3.89486 10.3122C3.8677 10.2944 3.8403 10.277 3.81262 10.2599C3.78495 10.2429 3.75705 10.2263 3.72889 10.2101C3.70073 10.1939 3.67236 10.1781 3.64375 10.1627C3.61514 10.1473 3.5863 10.1324 3.55725 10.1178C3.5282 10.1033 3.49894 10.0892 3.46948 10.0755C3.44002 10.0619 3.41036 10.0486 3.3805 10.0358C3.35066 10.023 3.32062 10.0106 3.29041 9.99869C3.2602 9.98676 3.22983 9.97528 3.19928 9.96423C3.16873 9.95319 3.13803 9.94259 3.10717 9.93244L2.8005 9.83178L3.10717 9.73111C3.13803 9.72097 3.16873 9.71037 3.19928 9.69933C3.22983 9.68828 3.2602 9.6768 3.29041 9.66486C3.32062 9.65294 3.35066 9.64056 3.3805 9.62775C3.41036 9.61494 3.44002 9.6017 3.46948 9.58802C3.49894 9.57434 3.5282 9.56023 3.55725 9.5457C3.5863 9.53117 3.61514 9.51622 3.64375 9.50084C3.67236 9.48547 3.70073 9.46969 3.72889 9.45347C3.75705 9.43727 3.78495 9.42066 3.81262 9.40362C3.8403 9.38661 3.8677 9.36919 3.89486 9.35136C3.92202 9.33355 3.94891 9.31533 3.97553 9.29672C4.00214 9.27812 4.02848 9.25912 4.05456 9.23973C4.08064 9.22036 4.10642 9.20061 4.13191 9.18047C4.15739 9.16034 4.18259 9.13984 4.20748 9.11897C4.23237 9.09811 4.25695 9.07687 4.28123 9.05528C4.3055 9.0337 4.32945 9.01177 4.35308 8.98947C4.37672 8.96719 4.40002 8.94456 4.42298 8.92159C4.44595 8.89862 4.46858 8.87533 4.49086 8.85169C4.51316 8.82806 4.53509 8.80412 4.55667 8.77984C4.57827 8.75556 4.5995 8.73098 4.62036 8.70609C4.64123 8.6812 4.66173 8.65602 4.68186 8.63052C4.702 8.60503 4.72175 8.57925 4.74112 8.55317C4.76052 8.52711 4.7795 8.50076 4.79811 8.47414C4.81672 8.44752 4.83492 8.42062 4.85275 8.39347C4.87058 8.36631 4.888 8.33889 4.90502 8.31123C4.92203 8.28358 4.93866 8.25566 4.95486 8.2275C4.97106 8.19934 4.98686 8.17097 5.00223 8.14236C5.01761 8.11375 5.03256 8.08492 5.04709 8.05586C5.06163 8.02681 5.07573 7.99756 5.08941 7.96809C5.10308 7.93862 5.11633 7.90897 5.12914 7.87911C5.14194 7.84927 5.15431 7.81923 5.16625 7.78902C5.17817 7.75881 5.18967 7.72844 5.20072 7.69787C5.21177 7.66734 5.22236 7.63664 5.2325 7.60578Z"   fill="#303233" ></path></svg>