<svg xmlns="http://www.w3.org/2000/svg" xmlns:xlink="http://www.w3.org/1999/xlink" width="24" height="24" viewBox="0 0 24 24" fill="none"><g opacity="0.9"><path d="M5.14269 7.77732L4.87365 8.39452C4.67676 8.84637 4.05179 8.84637 3.85491 8.39452L3.58589 7.77732C3.10636 6.67682 2.24266 5.80062 1.16491 5.32127L0.336103 4.95264C-0.112034 4.75331 -0.112034 4.10115 0.336103 3.90182L1.11857 3.55379C2.22403 3.06212 3.10321 2.15349 3.5745 1.01561L3.85076 0.348636C4.04329 -0.116212 4.68527 -0.116212 4.8778 0.348636L5.15405 1.01561C5.62535 2.15349 6.50455 3.06212 7.61005 3.55379L8.39244 3.90182C8.84069 4.10115 8.84069 4.75331 8.39244 4.95264L7.56366 5.32127C6.48592 5.80062 5.62219 6.67682 5.14269 7.77732ZM6.91112 17.2558C7.10327 16.6204 7.31808 15.9911 7.57112 15.3108C9.81407 9.2811 13.5509 5.54455 19.6535 4.59866C19.0939 5.84641 18.5648 6.71341 18.0964 7.18188C17.7323 7.54593 17.3683 7.91024 17.0042 8.27481L15.4629 9.81837L17.0513 11.4056C15.818 13.6804 13.3823 15.491 10.6401 15.8337C9.20372 16.0133 7.95772 16.4958 6.91112 17.2558ZM19.6394 10.907L18.5483 9.81673C18.9118 9.45279 19.2752 9.0891 19.6423 8.72198C20.7324 7.62994 21.8225 5.44875 22.9126 2.17842C6.88585 2.17842 4.46092 16.8266 3.34264 23.5817C3.31895 23.7247 3.29586 23.8643 3.27323 24L5.45347 24C6.18009 20.3633 7.99919 18.3629 10.9108 17.9991C15.2751 17.4535 18.5483 14.1803 19.6394 10.907Z"   fill="#FFFFFF" ></path></g></svg>