<svg xmlns="http://www.w3.org/2000/svg" xmlns:xlink="http://www.w3.org/1999/xlink" width="14" height="19" viewBox="0 0 14 19" fill="none">
<path d="M10.4999 16.625L10.4999 19L3.50012 19L3.50012 16.625L10.4999 16.625ZM7.00003 0C7.08156 0 7.1631 0.0014469 7.24461 0.00434155C7.32612 0.0072362 7.40755 0.0115777 7.48892 0.017367C7.57026 0.0231746 7.6515 0.0304202 7.73263 0.039104C7.81373 0.0477876 7.89463 0.057909 7.9754 0.0694685C8.05618 0.0810467 8.1367 0.0940445 8.21703 0.108461C8.29734 0.122897 8.37737 0.138761 8.45716 0.156054C8.53692 0.173329 8.61638 0.192013 8.69551 0.212108C8.77464 0.232221 8.85339 0.253735 8.93178 0.27665C9.01015 0.299548 9.08813 0.323834 9.1657 0.349515C9.24325 0.375196 9.32035 0.402248 9.39697 0.430673C9.47358 0.459098 9.5497 0.488878 9.62531 0.520014C9.70091 0.55115 9.77597 0.583619 9.85045 0.617426C9.92493 0.651234 9.99884 0.686347 10.0721 0.722771C10.1454 0.759211 10.218 0.796935 10.29 0.835936C10.362 0.874956 10.4333 0.915249 10.5039 0.956811C10.5745 0.998355 10.6444 1.04115 10.7135 1.0852C10.7826 1.12923 10.851 1.17449 10.9186 1.22096C10.9862 1.26742 11.0529 1.31508 11.1189 1.36394C11.1848 1.41277 11.2499 1.46277 11.3141 1.51392C11.3784 1.5651 11.4417 1.6174 11.5041 1.67081C11.5666 1.72422 11.628 1.77872 11.6886 1.83433C11.7491 1.88994 11.8087 1.9466 11.8674 2.00433C11.926 2.06205 11.9836 2.12079 12.0402 2.18056C12.0968 2.24032 12.1523 2.30108 12.2068 2.36283C12.2613 2.42458 12.3148 2.48729 12.3671 2.55095C12.4195 2.61459 12.4707 2.67915 12.5209 2.74463C12.571 2.81009 12.62 2.87644 12.6679 2.94366C12.7157 3.01087 12.7624 3.07892 12.808 3.14781C12.8535 3.21669 12.8978 3.28635 12.9409 3.3568C12.9841 3.42724 13.026 3.49846 13.0667 3.57041C13.1074 3.64235 13.1468 3.715 13.185 3.78833C13.2232 3.86167 13.2601 3.93568 13.2958 4.01035C13.3314 4.08502 13.3657 4.16028 13.3988 4.23618C13.4319 4.31208 13.4636 4.38853 13.4941 4.46554C13.5245 4.54255 13.5536 4.62007 13.5814 4.69813C13.6092 4.7762 13.6356 4.85472 13.6607 4.93371C13.6858 5.01269 13.7095 5.0921 13.7319 5.17195C13.7542 5.25177 13.7752 5.33198 13.7948 5.41256C13.8144 5.49313 13.8326 5.57404 13.8495 5.65528C13.8663 5.73652 13.8817 5.81801 13.8957 5.89978C13.9097 5.98158 13.9224 6.06358 13.9336 6.14579C13.9448 6.22804 13.9546 6.31042 13.963 6.393C13.9713 6.47557 13.9783 6.55829 13.9838 6.64109C13.9894 6.72392 13.9935 6.80683 13.9962 6.8898C13.9989 6.97277 14.0001 7.05573 14 7.13876C13.9998 7.22178 13.9982 7.30477 13.9952 7.38774C13.9922 7.47071 13.9878 7.55357 13.9819 7.63637C13.9761 7.71917 13.9688 7.80185 13.9601 7.88438C13.9514 7.96693 13.9413 8.04928 13.9298 8.13147C13.9183 8.21366 13.9054 8.2956 13.891 8.37734C13.8767 8.45905 13.861 8.54049 13.8438 8.62165C13.8267 8.70283 13.8082 8.78366 13.7883 8.86415C13.7684 8.94467 13.7471 9.0248 13.7244 9.10453C13.7018 9.18427 13.6777 9.26359 13.6524 9.3425C13.627 9.4214 13.6002 9.49981 13.5722 9.57773C13.5441 9.65569 13.5147 9.73309 13.484 9.80999C13.4532 9.88689 13.4212 9.96321 13.3878 10.039C13.3545 10.1147 13.3198 10.1899 13.2839 10.2644C13.248 10.3389 13.2107 10.4128 13.1723 10.486C13.1338 10.5592 13.0941 10.6317 13.0531 10.7034C13.0122 10.7752 12.97 10.8463 12.9266 10.9165C12.8832 10.9868 12.8386 11.0563 12.7928 11.125C12.747 11.1937 12.7001 11.2616 12.652 11.3286C12.6038 11.3956 12.5546 11.4618 12.5042 11.5271C12.407 11.6768 12.3129 11.8285 12.2217 11.9821C12.1305 12.1357 12.0423 12.2911 11.9573 12.4482C11.8722 12.6054 11.7902 12.7643 11.7114 12.9248C11.6326 13.0853 11.5569 13.2474 11.4845 13.411C11.412 13.5746 11.3428 13.7396 11.2768 13.906C11.2109 14.0724 11.1482 14.2402 11.0888 14.4092C11.0295 14.5781 10.9734 14.7483 10.9208 14.9195C10.8681 15.0908 10.8188 15.263 10.7729 15.4363L3.2458 15.4363C3.20531 15.275 3.16164 15.1146 3.11483 14.9551C3.06802 14.7956 3.01806 14.6371 2.96499 14.4796C2.91189 14.3221 2.85573 14.1658 2.7965 14.0106C2.73723 13.8554 2.67494 13.7015 2.60961 13.5489C2.5443 13.3963 2.47598 13.2451 2.40467 13.0952C2.33338 12.9454 2.25915 12.7971 2.18199 12.6503C2.10483 12.5035 2.0248 12.3583 1.94189 12.2148C1.85901 12.0713 1.77332 11.9295 1.68484 11.7895L1.58567 11.6411C1.5335 11.5763 1.48247 11.5106 1.43257 11.4439C1.38268 11.3773 1.33397 11.3098 1.28642 11.2414C1.23887 11.173 1.19251 11.1038 1.14736 11.0338C1.10221 10.9637 1.05828 10.8929 1.01559 10.8213C0.972902 10.7497 0.931458 10.6773 0.891264 10.6042C0.85107 10.5311 0.812161 10.4573 0.774537 10.3827C0.736894 10.3082 0.700566 10.2331 0.665548 10.1573C0.630513 10.0815 0.596807 10.005 0.564433 9.92803C0.532059 9.85102 0.501025 9.77342 0.47133 9.69527C0.441636 9.61715 0.413309 9.53849 0.386348 9.45934C0.359372 9.38018 0.333779 9.30058 0.309569 9.22051C0.285379 9.14044 0.262576 9.05998 0.241158 8.97907C0.219739 8.89819 0.199724 8.81695 0.181112 8.73531C0.162519 8.65371 0.145339 8.5718 0.129571 8.48956C0.113803 8.40734 0.0994664 8.32487 0.08656 8.24213C0.0736546 8.15939 0.0621884 8.07642 0.0521625 7.99328C0.0421369 7.91012 0.0335512 7.82682 0.0264059 7.74335C0.0192597 7.65988 0.0135638 7.57633 0.00931655 7.49267C0.00506923 7.40901 0.00227135 7.32529 0.000922058 7.24151C-0.000408461 7.15777 -0.000299149 7.07399 0.00124999 6.99024C0.00279954 6.90647 0.00580771 6.82275 0.0102736 6.73912C0.0147212 6.65545 0.0206274 6.5719 0.0279913 6.48846C0.0353378 6.40502 0.0441327 6.32175 0.0543773 6.23861C0.0646216 6.15548 0.0762971 6.07257 0.0894037 5.98988C0.10251 5.90716 0.117048 5.82472 0.133016 5.74253C0.148985 5.66035 0.166374 5.57849 0.185187 5.49691C0.203998 5.41534 0.224214 5.33415 0.245833 5.25333C0.267453 5.17248 0.290465 5.09207 0.314874 5.01205C0.339283 4.93204 0.365067 4.85249 0.392227 4.77342C0.419387 4.69435 0.447917 4.61578 0.477811 4.53771C0.507688 4.45964 0.538914 4.38216 0.571488 4.30523C0.604061 4.22827 0.637959 4.15196 0.673176 4.07623C0.708394 4.0005 0.744916 3.92543 0.78274 3.85104C0.820563 3.77664 0.859666 3.70292 0.900041 3.62991C0.940399 3.55691 0.982024 3.48466 1.02492 3.41316C1.06779 3.34166 1.11189 3.27093 1.1572 3.20099C1.20254 3.13105 1.24907 3.06197 1.29679 2.99373C1.34451 2.92546 1.3934 2.85807 1.44346 2.79158C1.49351 2.72508 1.54471 2.6595 1.59704 2.59484C1.64938 2.53017 1.70282 2.46648 1.75735 2.40374C1.81188 2.34099 1.86748 2.27924 1.92417 2.21849C1.98085 2.15774 2.03856 2.09804 2.09731 2.03937C2.15606 1.98068 2.21581 1.92308 2.27654 1.86656C2.33728 1.81002 2.39898 1.7546 2.46165 1.70029C2.52431 1.64598 2.58789 1.5928 2.6524 1.54075C2.71691 1.48873 2.78229 1.43787 2.84857 1.38818C2.91485 1.33851 2.98195 1.29004 3.04989 1.24276C3.11784 1.19548 3.18658 1.14944 3.25614 1.10463C3.32567 1.05982 3.39597 1.01628 3.46704 0.974011C3.53807 0.931725 3.60985 0.890729 3.68234 0.851021C3.75479 0.811313 3.82791 0.772924 3.90174 0.735852C3.97553 0.69876 4.04996 0.663015 4.12502 0.628615C4.20005 0.594214 4.27568 0.561169 4.35186 0.529477C4.42803 0.497785 4.50476 0.467467 4.582 0.438522C4.65922 0.409577 4.73696 0.382031 4.81516 0.355889C4.89333 0.329746 4.97194 0.305012 5.05102 0.281688C5.13007 0.258365 5.2095 0.23647 5.28931 0.216004C5.3691 0.19552 5.44924 0.176483 5.52971 0.158893C5.61018 0.141303 5.69092 0.12516 5.77197 0.110465C5.85299 0.0957698 5.93425 0.0825312 6.01573 0.0707488C6.09721 0.0589664 6.17889 0.0486593 6.26075 0.0398277C6.34256 0.0309768 6.42454 0.0236014 6.50665 0.0177008C6.58873 0.0118007 6.67093 0.00737547 6.7532 0.00442521C6.83545 0.00147493 6.91772 0 7.00003 0ZM9.33329 7.12501L4.66677 7.12501L4.66677 9.5L5.83338 9.5L5.83338 13.0625L8.16667 13.0625L8.16667 9.5L9.33329 9.5L9.33329 7.12501Z"   fill="#FFFFFF" >
</path>
</svg>
