<svg xmlns="http://www.w3.org/2000/svg" xmlns:xlink="http://www.w3.org/1999/xlink" width="24" height="24" viewBox="0 0 24 24" fill="#2353f4">
<path d="M15.4999 18.625L15.4999 21L8.50012 21L8.50012 18.625L15.4999 18.625ZM12 2C12.0816 2 12.1631 2.00145 12.2446 2.00434C12.3261 2.00724 12.4075 2.01158 12.4889 2.01737C12.5703 2.02317 12.6515 2.03042 12.7326 2.0391C12.8137 2.04779 12.8946 2.05791 12.9754 2.06947C13.0562 2.08105 13.1367 2.09404 13.217 2.10846C13.2973 2.1229 13.3774 2.13876 13.4572 2.15605C13.5369 2.17333 13.6164 2.19201 13.6955 2.21211C13.7746 2.23222 13.8534 2.25374 13.9318 2.27665C14.0101 2.29955 14.0881 2.32383 14.1657 2.34951C14.2432 2.3752 14.3204 2.40225 14.397 2.43067C14.4736 2.4591 14.5497 2.48888 14.6253 2.52001C14.7009 2.55115 14.776 2.58362 14.8505 2.61743C14.9249 2.65123 14.9988 2.68635 15.0721 2.72277C15.1454 2.75921 15.218 2.79693 15.29 2.83594C15.362 2.87496 15.4333 2.91525 15.5039 2.95681C15.5745 2.99836 15.6444 3.04115 15.7135 3.0852C15.7826 3.12923 15.851 3.17449 15.9186 3.22096C15.9862 3.26742 16.0529 3.31508 16.1189 3.36394C16.1848 3.41277 16.2499 3.46277 16.3141 3.51392C16.3783 3.5651 16.4417 3.6174 16.5041 3.67081C16.5666 3.72422 16.628 3.77872 16.6886 3.83433C16.7491 3.88994 16.8087 3.9466 16.8674 4.00433C16.926 4.06205 16.9836 4.12079 17.0402 4.18056C17.0968 4.24032 17.1523 4.30108 17.2068 4.36283C17.2613 4.42458 17.3148 4.48729 17.3671 4.55095C17.4195 4.61459 17.4707 4.67915 17.5209 4.74463C17.571 4.81009 17.62 4.87644 17.6679 4.94366C17.7157 5.01087 17.7624 5.07892 17.808 5.14781C17.8535 5.21669 17.8978 5.28635 17.9409 5.3568C17.9841 5.42724 18.026 5.49846 18.0667 5.57041C18.1074 5.64235 18.1468 5.715 18.185 5.78833C18.2232 5.86167 18.2601 5.93568 18.2958 6.01035C18.3314 6.08502 18.3657 6.16028 18.3988 6.23618C18.4319 6.31208 18.4636 6.38853 18.4941 6.46554C18.5245 6.54255 18.5536 6.62007 18.5814 6.69813C18.6092 6.7762 18.6356 6.85472 18.6607 6.93371C18.6858 7.01269 18.7095 7.0921 18.7319 7.17195C18.7542 7.25177 18.7752 7.33198 18.7948 7.41256C18.8144 7.49313 18.8326 7.57404 18.8495 7.65528C18.8663 7.73652 18.8817 7.81801 18.8957 7.89978C18.9097 7.98158 18.9224 8.06358 18.9336 8.14579C18.9448 8.22803 18.9546 8.31042 18.963 8.393C18.9713 8.47557 18.9783 8.55829 18.9838 8.64109C18.9894 8.72392 18.9935 8.80683 18.9962 8.8898C18.9989 8.97276 19.0001 9.05573 19 9.13876C18.9998 9.22178 18.9982 9.30477 18.9952 9.38774C18.9922 9.47071 18.9878 9.55357 18.9819 9.63637C18.9761 9.71917 18.9688 9.80186 18.9601 9.88438C18.9514 9.96693 18.9413 10.0493 18.9298 10.1315C18.9183 10.2137 18.9054 10.2956 18.891 10.3773C18.8767 10.4591 18.861 10.5405 18.8438 10.6216C18.8267 10.7028 18.8082 10.7837 18.7883 10.8641C18.7684 10.9447 18.7471 11.0248 18.7244 11.1045C18.7018 11.1843 18.6777 11.2636 18.6524 11.3425C18.627 11.4214 18.6002 11.4998 18.5722 11.5777C18.5441 11.6557 18.5147 11.7331 18.484 11.81C18.4532 11.8869 18.4212 11.9632 18.3878 12.039C18.3545 12.1147 18.3198 12.1899 18.2839 12.2644C18.248 12.3389 18.2107 12.4128 18.1723 12.486C18.1338 12.5592 18.0941 12.6317 18.0531 12.7034C18.0122 12.7752 17.97 12.8463 17.9266 12.9165C17.8832 12.9868 17.8386 13.0563 17.7928 13.125C17.747 13.1937 17.7001 13.2616 17.652 13.3286C17.6038 13.3956 17.5546 13.4618 17.5042 13.5271C17.407 13.6768 17.3129 13.8285 17.2217 13.9821C17.1305 14.1357 17.0423 14.2911 16.9573 14.4482C16.8722 14.6054 16.7902 14.7643 16.7114 14.9248C16.6326 15.0853 16.5569 15.2474 16.4845 15.411C16.412 15.5746 16.3428 15.7396 16.2768 15.906C16.2109 16.0724 16.1482 16.2402 16.0888 16.4092C16.0295 16.5781 15.9734 16.7483 15.9208 16.9195C15.8681 17.0908 15.8188 17.263 15.7729 17.4363L8.2458 17.4363C8.20531 17.275 8.16164 17.1146 8.11483 16.9551C8.06802 16.7956 8.01806 16.6371 7.96499 16.4796C7.91189 16.3221 7.85573 16.1658 7.7965 16.0106C7.73723 15.8554 7.67494 15.7015 7.60961 15.5489C7.5443 15.3963 7.47598 15.2451 7.40467 15.0952C7.33338 14.9454 7.25915 14.7971 7.18199 14.6503C7.10483 14.5035 7.0248 14.3583 6.94189 14.2148C6.85901 14.0713 6.77332 13.9295 6.68484 13.7895L6.58567 13.6411C6.5335 13.5763 6.48247 13.5106 6.43257 13.4439C6.38268 13.3773 6.33397 13.3098 6.28643 13.2414C6.23887 13.173 6.19251 13.1038 6.14736 13.0338C6.10221 12.9637 6.05828 12.8929 6.01559 12.8213C5.9729 12.7497 5.93146 12.6773 5.89126 12.6042C5.85107 12.5311 5.81216 12.4573 5.77454 12.3827C5.73689 12.3082 5.70057 12.2331 5.66555 12.1573C5.63051 12.0815 5.59681 12.005 5.56443 11.928C5.53206 11.851 5.50102 11.7734 5.47133 11.6953C5.44164 11.6171 5.41331 11.5385 5.38635 11.4593C5.35937 11.3802 5.33378 11.3006 5.30957 11.2205C5.28538 11.1404 5.26258 11.06 5.24116 10.9791C5.21974 10.8982 5.19972 10.8169 5.18111 10.7353C5.16252 10.6537 5.14534 10.5718 5.12957 10.4896C5.1138 10.4073 5.09947 10.3249 5.08656 10.2421C5.07365 10.1594 5.06219 10.0764 5.05216 9.99328C5.04214 9.91012 5.03355 9.82682 5.02641 9.74335C5.01926 9.65988 5.01356 9.57633 5.00932 9.49267C5.00507 9.40901 5.00227 9.32529 5.00092 9.24151C4.99959 9.15777 4.9997 9.07399 5.00125 8.99024C5.0028 8.90647 5.00581 8.82275 5.01027 8.73911C5.01472 8.65545 5.02063 8.5719 5.02799 8.48846C5.03534 8.40502 5.04413 8.32175 5.05438 8.23861C5.06462 8.15548 5.0763 8.07257 5.0894 7.98988C5.10251 7.90716 5.11705 7.82472 5.13302 7.74253C5.14898 7.66035 5.16637 7.57849 5.18519 7.49691C5.204 7.41534 5.22421 7.33415 5.24583 7.25333C5.26745 7.17248 5.29046 7.09207 5.31487 7.01205C5.33928 6.93204 5.36507 6.85249 5.39223 6.77342C5.41939 6.69435 5.44792 6.61578 5.47781 6.53771C5.50769 6.45964 5.53891 6.38216 5.57149 6.30523C5.60406 6.22827 5.63796 6.15196 5.67318 6.07623C5.70839 6.0005 5.74492 5.92543 5.78274 5.85104C5.82056 5.77664 5.85967 5.70292 5.90004 5.62991C5.9404 5.55691 5.98202 5.48466 6.02492 5.41316C6.06779 5.34166 6.11189 5.27094 6.1572 5.20099C6.20254 5.13105 6.24907 5.06197 6.29679 4.99373C6.34451 4.92546 6.3934 4.85807 6.44346 4.79158C6.49351 4.72508 6.54471 4.6595 6.59704 4.59484C6.64938 4.53017 6.70282 4.46648 6.75735 4.40374C6.81188 4.34099 6.86748 4.27924 6.92417 4.21849C6.98085 4.15774 7.03856 4.09804 7.09731 4.03937C7.15606 3.98068 7.21581 3.92308 7.27654 3.86656C7.33728 3.81002 7.39898 3.7546 7.46165 3.70029C7.52431 3.64598 7.58789 3.5928 7.6524 3.54075C7.71691 3.48873 7.78229 3.43787 7.84857 3.38818C7.91485 3.33851 7.98195 3.29004 8.04989 3.24276C8.11784 3.19548 8.18658 3.14944 8.25614 3.10463C8.32567 3.05982 8.39597 3.01628 8.46704 2.97401C8.53807 2.93173 8.60985 2.89073 8.68234 2.85102C8.7548 2.81131 8.82791 2.77292 8.90174 2.73585C8.97553 2.69876 9.04996 2.66302 9.12502 2.62861C9.20005 2.59421 9.27568 2.56117 9.35186 2.52948C9.42803 2.49778 9.50476 2.46747 9.582 2.43852C9.65922 2.40958 9.73696 2.38203 9.81516 2.35589C9.89333 2.32975 9.97194 2.30501 10.051 2.28169C10.1301 2.25836 10.2095 2.23647 10.2893 2.216C10.3691 2.19552 10.4492 2.17648 10.5297 2.15889C10.6102 2.1413 10.6909 2.12516 10.772 2.11047C10.853 2.09577 10.9342 2.08253 11.0157 2.07075C11.0972 2.05897 11.1789 2.04866 11.2608 2.03983C11.3426 2.03098 11.4245 2.0236 11.5066 2.0177C11.5887 2.0118 11.6709 2.00738 11.7532 2.00443C11.8354 2.00147 11.9177 2 12 2ZM14.3333 9.12501L9.66677 9.12501L9.66677 11.5L10.8334 11.5L10.8334 15.0625L13.1667 15.0625L13.1667 11.5L14.3333 11.5L14.3333 9.12501Z"   fill="#2353f4" >
</path>
</svg>
