<svg xmlns="http://www.w3.org/2000/svg" xmlns:xlink="http://www.w3.org/1999/xlink" width="24" height="24" viewBox="0 0 24 24" fill="none"><g opacity="0.9"><path d="M20.4146 7.77612L20.1456 8.39323C19.9488 8.845 19.3239 8.845 19.127 8.39323L18.8581 7.77612C18.3787 6.67579 17.5151 5.79972 16.4375 5.32045L15.6087 4.95188C15.1607 4.75258 15.1607 4.10052 15.6087 3.90122L16.3911 3.55324C17.4964 3.06165 18.3755 2.15316 18.8467 1.01545L19.1229 0.348583C19.3154 -0.116194 19.9573 -0.116194 20.1497 0.348583L20.426 1.01545C20.8972 2.15316 21.7763 3.06165 22.8816 3.55324L23.6639 3.90122C24.112 4.10052 24.112 4.75258 23.6639 4.95188L22.8352 5.32045C21.7576 5.79972 20.8941 6.67579 20.4146 7.77612ZM7.09091 6.54545L4.90909 6.54545L4.90909 19.6364L7.09091 19.6364L7.09091 6.54545ZM2.18182 10.9091L0 10.9091L0 15.2727L2.18182 15.2727L2.18182 10.9091ZM12 2.18182L9.81818 2.18182L9.81818 24L12 24L12 2.18182ZM16.9091 8.72727L14.7273 8.72727L14.7273 19.6364L16.9091 19.6364L16.9091 8.72727ZM21.8182 10.9091L19.6364 10.9091L19.6364 15.2727L21.8182 15.2727L21.8182 10.9091Z"   fill="#FFFFFF" ></path></g></svg>