<svg xmlns="http://www.w3.org/2000/svg" xmlns:xlink="http://www.w3.org/1999/xlink" width="24" height="24" viewBox="0 0 24 24" fill="none">
<path d="M12.5673 4.06178L15.5541 7.04292C15.7836 7.27042 15.853 7.61393 15.7298 7.91265C15.6066 8.21138 15.3151 8.40615 14.9919 8.4059L13.6001 8.4059L13.6001 11.4029C13.6001 11.8431 13.243 12.2 12.8026 12.2L11.2075 12.2C10.767 12.2 10.41 11.8431 10.41 11.4029L10.41 8.4059L9.01822 8.4059C8.69499 8.40615 8.40347 8.21138 8.2803 7.91265C8.15706 7.61393 8.22648 7.27042 8.456 7.04292L11.4427 4.06178C11.7539 3.75276 12.2562 3.75276 12.5673 4.06178ZM12 14.2042C13.6514 14.2042 15.0894 13.0762 15.4836 11.4715C15.6253 10.9562 16.0973 10.6019 16.6315 10.6101L18.0942 10.6101C19.4773 10.6101 20.37 11.5034 20.37 12.6041L20.37 18.586C20.37 19.6873 19.4778 20.58 18.3771 20.58L5.62294 20.58C4.52229 20.58 3.63004 19.6873 3.63004 18.586L3.63004 12.6041C3.63004 11.5029 4.52229 10.6101 5.62294 10.6101L7.36859 10.6101C7.90276 10.6019 8.37483 10.9562 8.51645 11.4715C8.91068 13.0762 10.3486 14.2042 12 14.2042Z" fill-rule="evenodd"  fill="#2353f4" >
</path>
</svg>
