<svg xmlns="http://www.w3.org/2000/svg" width="24" height="24" viewBox="0 0 24 24" fill="none">
  <rect opacity="0.1" x="0.5" y="0.5" width="23" height="23" rx="11.5" stroke="white"/>
  <path d="M10.7644 11.636C10.7388 11.6622 10.7043 11.6769 10.6683 11.6769C10.6323 11.6769 10.5977 11.6622 10.5722 11.636L8.29828 9.28696L7.55433 10.0549C7.53625 10.0735 7.51347 10.0865 7.4886 10.0924C7.46372 10.0983 7.43774 10.0969 7.41361 10.0883C7.38947 10.0797 7.36816 10.0643 7.35208 10.0438C7.336 10.0233 7.3258 9.9986 7.32265 9.97243L7.00087 7.15786C6.99855 7.13666 7.00088 7.1152 7.00769 7.09506C7.0145 7.07493 7.02562 7.05664 7.04021 7.04156C7.05481 7.02647 7.0725 7.01499 7.09199 7.00795C7.11147 7.00091 7.13224 6.9985 7.15275 7.0009L9.87799 7.33432C9.90332 7.33758 9.92725 7.34812 9.94708 7.36473C9.9669 7.38135 9.98182 7.40338 9.99013 7.42832C9.99844 7.45326 9.99982 7.48011 9.9941 7.50582C9.98838 7.53153 9.9758 7.55506 9.95779 7.57375L9.21127 8.34523L11.4852 10.6916C11.4979 10.7046 11.5081 10.7202 11.515 10.7373C11.522 10.7544 11.5255 10.7728 11.5255 10.7913C11.5255 10.8099 11.522 10.8283 11.515 10.8454C11.5081 10.8625 11.4979 10.8781 11.4852 10.8911L10.7644 11.636ZM13.2348 12.3649C13.2474 12.3517 13.2624 12.3412 13.279 12.334C13.2956 12.3269 13.3133 12.3232 13.3313 12.3232C13.3493 12.3232 13.367 12.3269 13.3836 12.334C13.4002 12.3412 13.4152 12.3517 13.4278 12.3649L15.7017 14.713L16.4457 13.9451C16.4638 13.9265 16.4865 13.9135 16.5114 13.9076C16.5363 13.9017 16.5623 13.9031 16.5864 13.9117C16.6105 13.9203 16.6318 13.9357 16.6479 13.9562C16.664 13.9767 16.6742 14.0014 16.6773 14.0276L16.9991 16.8421C17.0015 16.8633 16.9991 16.8848 16.9923 16.9049C16.9855 16.9251 16.9744 16.9434 16.9598 16.9584C16.9452 16.9735 16.9275 16.985 16.908 16.9921C16.8885 16.9991 16.8678 17.0015 16.8472 16.9991L14.122 16.6674C14.0967 16.6642 14.0727 16.6537 14.0529 16.637C14.0331 16.6204 14.0182 16.5984 14.0099 16.5735C14.0016 16.5485 14.0002 16.5217 14.0059 16.496C14.0116 16.4702 14.0242 16.4467 14.0422 16.428L14.7887 15.6565L12.514 13.3075C12.5013 13.2945 12.4913 13.279 12.4844 13.262C12.4776 13.2449 12.474 13.2267 12.474 13.2082C12.474 13.1897 12.4776 13.1715 12.4844 13.1544C12.4913 13.1374 12.5013 13.1219 12.514 13.1089L13.2348 12.3649Z" fill="white"/>
</svg>