<svg xmlns="http://www.w3.org/2000/svg" xmlns:xlink="http://www.w3.org/1999/xlink" width="22" height="14" viewBox="0 0 22 14" fill="none">
<path d="M15.0526 9.2225L19.1413 11.5232C19.3079 11.6165 19.4943 11.6667 19.6843 11.6667C20.3234 11.6667 20.8421 11.1183 20.8421 10.4393L20.8421 3.56066C20.8421 3.36 20.7959 3.16284 20.7067 2.9855C20.4068 2.387 19.7063 2.1595 19.1413 2.47684L15.0526 4.7775L15.0526 9.2225ZM15.0526 3.42534L18.5981 1.45134C19.7283 0.821334 21.1293 1.27167 21.7292 2.457C21.9075 2.807 22 3.199 22 3.59566L22 10.4043C22 11.746 20.9637 12.8333 19.6843 12.8333C19.3056 12.8333 18.9316 12.7353 18.5981 12.5498L15.0526 10.5747L15.0526 11.4543C15.0526 12.8602 13.9295 14 12.5435 14L2.50917 14C2.46798 13.9999 2.42679 13.9988 2.38562 13.9966C2.34448 13.9944 2.30341 13.9912 2.2624 13.987C2.22141 13.9828 2.18054 13.9776 2.13979 13.9713C2.09906 13.9651 2.05849 13.9579 2.01809 13.9497C1.97771 13.9413 1.93755 13.9322 1.8976 13.9219C1.85765 13.9117 1.81799 13.9005 1.77858 13.8883C1.73919 13.8761 1.70011 13.863 1.66136 13.8489C1.62261 13.8348 1.58422 13.8197 1.5462 13.8037C1.50818 13.7877 1.47058 13.7707 1.43339 13.7528C1.39619 13.7349 1.35946 13.7162 1.32318 13.6965C1.2869 13.6768 1.25113 13.6562 1.21585 13.6348C1.18058 13.6133 1.14585 13.591 1.11166 13.5678C1.07747 13.5446 1.04387 13.5206 1.01086 13.4957C0.977841 13.4709 0.94545 13.4452 0.913685 13.4188C0.881918 13.3923 0.850817 13.3651 0.820378 13.3371C0.789939 13.3091 0.760201 13.2804 0.731162 13.2509C0.702122 13.2215 0.673819 13.1913 0.64625 13.1604C0.618682 13.1296 0.591882 13.0981 0.565849 13.0659C0.539817 13.0337 0.514585 13.0009 0.490153 12.9674C0.46572 12.934 0.442117 12.9 0.419342 12.8654C0.396568 12.8308 0.37465 12.7956 0.353589 12.7599C0.332529 12.7242 0.312349 12.6881 0.293052 12.6514C0.273754 12.6147 0.255362 12.5775 0.237876 12.54C0.220389 12.5024 0.203828 12.4643 0.188194 12.4259C0.17256 12.3875 0.157871 12.3487 0.144127 12.3096C0.130383 12.2704 0.117601 12.231 0.10578 12.1912C0.0939594 12.1514 0.0831148 12.1114 0.0732463 12.0711C0.0633776 12.0308 0.0544969 11.9902 0.046604 11.9495C0.038711 11.9087 0.0318155 11.8678 0.0259173 11.8267C0.020019 11.7856 0.0151253 11.7444 0.0112361 11.7031C0.00734679 11.6617 0.00446668 11.6203 0.00259573 11.5788C0.000724771 11.5374 -0.000134769 11.4959 1.71041e-05 11.4543L1.71041e-05 2.54566C1.71041e-05 1.13983 1.12318 0 2.50917 0L12.5435 0C13.9295 0 15.0526 1.13983 15.0526 2.54566L15.0526 3.42534ZM2.4316 1.16667C1.72759 1.16667 1.15791 1.7465 1.15791 2.46284L1.15791 11.5383C1.15791 12.2535 1.72759 12.8333 2.4316 12.8333L12.6211 12.8333C13.3251 12.8333 13.8948 12.2535 13.8948 11.5372L13.8948 2.46166C13.8948 1.7465 13.3251 1.16667 12.6211 1.16667L2.4316 1.16667ZM4.6316 5.83334C4.61265 5.83334 4.59371 5.83287 4.57478 5.83193C4.55587 5.83099 4.53696 5.82959 4.5181 5.82772C4.49924 5.82584 4.48045 5.82351 4.4617 5.8207C4.44296 5.8179 4.42429 5.81465 4.4057 5.81091C4.38712 5.80718 4.36864 5.803 4.35025 5.79836C4.33188 5.79373 4.31362 5.78863 4.29548 5.78309C4.27735 5.77756 4.25937 5.77157 4.24151 5.76513C4.22368 5.7587 4.206 5.75184 4.18848 5.74452C4.17098 5.73721 4.15367 5.72949 4.13653 5.72132C4.1194 5.71316 4.10248 5.70458 4.08576 5.69558C4.06906 5.68657 4.05258 5.67716 4.03632 5.66735C4.02006 5.65753 4.00407 5.64732 3.98831 5.63671C3.97256 5.62611 3.95706 5.61512 3.94184 5.60375C3.92663 5.59237 3.91169 5.58063 3.89703 5.56851C3.88239 5.5564 3.86805 5.54393 3.85401 5.53111C3.83997 5.51828 3.82624 5.50512 3.81284 5.49162C3.79944 5.47813 3.78638 5.46431 3.77365 5.45016C3.76093 5.43601 3.74856 5.42155 3.73654 5.40679C3.72452 5.39204 3.71286 5.37698 3.70157 5.36164C3.69028 5.34632 3.67937 5.3307 3.66884 5.31483C3.65831 5.29896 3.64818 5.28283 3.63843 5.26645C3.62869 5.25008 3.61935 5.23347 3.61043 5.21663C3.6015 5.1998 3.59298 5.18275 3.58488 5.16548C3.57677 5.14821 3.56909 5.13077 3.56184 5.11313C3.55459 5.09549 3.54778 5.07768 3.54139 5.0597C3.53501 5.04172 3.52907 5.02361 3.52356 5.00533C3.51806 4.98706 3.51301 4.96867 3.5084 4.95015C3.5038 4.93162 3.49965 4.913 3.49596 4.89427C3.49227 4.87554 3.48902 4.85673 3.48623 4.83785C3.48346 4.81897 3.48114 4.80002 3.47928 4.78103C3.47742 4.76202 3.47602 4.74298 3.4751 4.72391C3.47418 4.70483 3.4737 4.68576 3.4737 4.66666C3.4737 4.64758 3.47418 4.62849 3.4751 4.60942C3.47602 4.59034 3.47742 4.57131 3.47928 4.55231C3.48114 4.53331 3.48346 4.51436 3.48623 4.49548C3.48902 4.47659 3.49227 4.45778 3.49596 4.43907C3.49965 4.42034 3.5038 4.40171 3.5084 4.38319C3.51301 4.36466 3.51806 4.34627 3.52356 4.328C3.52907 4.30973 3.53501 4.2916 3.54139 4.27362C3.54778 4.25564 3.55459 4.23784 3.56184 4.22021C3.56909 4.20256 3.57677 4.18511 3.58488 4.16786C3.59298 4.15059 3.6015 4.13354 3.61043 4.1167C3.61935 4.09987 3.62869 4.08326 3.63843 4.06688C3.64818 4.0505 3.65831 4.03438 3.66884 4.01851C3.67937 4.00263 3.69028 3.98702 3.70157 3.97168C3.71286 3.95635 3.72452 3.9413 3.73654 3.92653C3.74856 3.91178 3.76093 3.89733 3.77365 3.88318C3.78638 3.86903 3.79944 3.85521 3.81284 3.84171C3.82624 3.82821 3.83997 3.81504 3.85401 3.80222C3.86805 3.78941 3.88239 3.77694 3.89703 3.76482C3.91169 3.75271 3.92663 3.74097 3.94184 3.72959C3.95706 3.71822 3.97256 3.70722 3.98831 3.69661C4.00407 3.68601 4.02006 3.67579 4.03632 3.66598C4.05258 3.65617 4.06906 3.64677 4.08576 3.63776C4.10248 3.62876 4.1194 3.62018 4.13653 3.61201C4.15367 3.60385 4.17098 3.59611 4.18848 3.58881C4.206 3.5815 4.22368 3.57463 4.24151 3.56819C4.25937 3.56177 4.27735 3.55578 4.29548 3.55023C4.31362 3.54469 4.33188 3.53959 4.35025 3.53496C4.36864 3.53032 4.38712 3.52614 4.4057 3.52242C4.42429 3.51869 4.44296 3.51543 4.4617 3.51263C4.48045 3.50983 4.49924 3.50749 4.5181 3.50562C4.53696 3.50375 4.55587 3.50235 4.57478 3.50141C4.59371 3.50046 4.61265 3.5 4.6316 3.5C4.65055 3.5 4.66949 3.50046 4.68841 3.50141C4.70735 3.50235 4.72624 3.50375 4.74509 3.50562C4.76395 3.50749 4.78276 3.50983 4.80149 3.51263C4.82025 3.51543 4.8389 3.51869 4.85749 3.52242C4.87608 3.52614 4.89457 3.53032 4.91294 3.53496C4.93134 3.53959 4.94959 3.54469 4.96772 3.55023C4.98586 3.55578 5.00385 3.56177 5.02168 3.56819C5.03952 3.57463 5.0572 3.5815 5.07471 3.58881C5.09221 3.59611 5.10954 3.60385 5.12666 3.61201C5.1438 3.62018 5.16072 3.62876 5.17743 3.63776C5.19414 3.64677 5.21062 3.65617 5.22687 3.66598C5.24313 3.67579 5.25914 3.68601 5.27489 3.69661C5.29066 3.70722 5.30614 3.71822 5.32135 3.72959C5.33658 3.74097 5.35152 3.75271 5.36616 3.76482C5.38081 3.77694 5.39516 3.78941 5.4092 3.80222C5.42324 3.81504 5.43696 3.82821 5.45036 3.84171C5.46376 3.85521 5.47682 3.86903 5.48954 3.88318C5.50227 3.89733 5.51465 3.91178 5.52667 3.92653C5.53869 3.9413 5.55035 3.95635 5.56164 3.97168C5.57293 3.98702 5.58382 4.00263 5.59435 4.01851C5.60488 4.03438 5.61502 4.0505 5.62476 4.06688C5.6345 4.08326 5.64384 4.09987 5.65277 4.1167C5.66171 4.13354 5.67023 4.15059 5.67833 4.16786C5.68643 4.18511 5.69411 4.20256 5.70136 4.22021C5.70862 4.23784 5.71543 4.25564 5.72181 4.27362C5.7282 4.2916 5.73414 4.30973 5.73964 4.328C5.74514 4.34627 5.75019 4.36466 5.75479 4.38319C5.75941 4.40171 5.76356 4.42034 5.76725 4.43907C5.77095 4.45778 5.7742 4.47659 5.77696 4.49548C5.77975 4.51436 5.78207 4.53331 5.78393 4.55231C5.78578 4.57131 5.78718 4.59034 5.7881 4.60942C5.78904 4.62849 5.7895 4.64758 5.7895 4.66666C5.7895 4.68576 5.78904 4.70483 5.7881 4.72391C5.78718 4.74298 5.78578 4.76202 5.78393 4.78103C5.78207 4.80002 5.77975 4.81897 5.77696 4.83785C5.7742 4.85673 5.77095 4.87554 5.76725 4.89427C5.76356 4.913 5.75941 4.93162 5.75479 4.95015C5.75019 4.96867 5.74514 4.98706 5.73964 5.00533C5.73414 5.02361 5.7282 5.04172 5.72181 5.0597C5.71543 5.07768 5.70862 5.09549 5.70136 5.11313C5.69411 5.13077 5.68643 5.14821 5.67833 5.16548C5.67023 5.18275 5.66171 5.1998 5.65277 5.21663C5.64384 5.23347 5.6345 5.25008 5.62476 5.26645C5.61502 5.28283 5.60488 5.29896 5.59435 5.31483C5.58382 5.3307 5.57293 5.34632 5.56164 5.36164C5.55035 5.37698 5.53869 5.39204 5.52667 5.40679C5.51465 5.42155 5.50227 5.43601 5.48954 5.45016C5.47682 5.46431 5.46376 5.47813 5.45036 5.49162C5.43696 5.50512 5.42324 5.51828 5.4092 5.53111C5.39516 5.54393 5.38081 5.5564 5.36616 5.56851C5.35152 5.58063 5.33658 5.59237 5.32135 5.60375C5.30614 5.61512 5.29066 5.62611 5.27489 5.63671C5.25914 5.64732 5.24313 5.65753 5.22687 5.66735C5.21062 5.67716 5.19414 5.68657 5.17743 5.69558C5.16072 5.70458 5.1438 5.71316 5.12666 5.72132C5.10954 5.72949 5.09221 5.73721 5.07471 5.74452C5.0572 5.75184 5.03954 5.7587 5.02168 5.76513C5.00385 5.77157 4.98586 5.77756 4.96772 5.78309C4.94959 5.78863 4.93134 5.79373 4.91294 5.79836C4.89457 5.803 4.87608 5.80718 4.85749 5.81091C4.8389 5.81465 4.82025 5.8179 4.80149 5.8207C4.78276 5.82351 4.76395 5.82584 4.74509 5.82772C4.72624 5.82959 4.70735 5.83099 4.68841 5.83193C4.66949 5.83287 4.65055 5.83334 4.6316 5.83334Z"   fill="#FFFFFF" >
</path>
</svg>
