<svg t="1728892162589" class="icon" viewBox="0 0 1024 1024" version="1.1" xmlns="http://www.w3.org/2000/svg" p-id="882" width="256" height="256"><path d="M624.5 915.12500029H399.5c-203.69999971 0-290.62500029-86.92499971-290.62500029-290.62500029V399.5c0-203.69999971 86.92499971-290.62500029 290.62500029-290.62500029h225c203.69999971 0 290.62500029 86.92499971 290.62500029 290.62500029v225c0 203.69999971-86.92499971 290.62500029-290.62500029 290.62500029z m-225-750.00000058C226.475 165.12499971 165.12499971 226.475 165.12499971 399.5v225c0 173.025 61.35000029 234.37500029 234.37500029 234.37500029h225c173.025 0 234.37500029-61.35000029 234.37500029-234.37500029V399.5c0-173.025-61.3125-234.37500029-234.37500029-234.37500029z" fill="#000000" p-id="883"></path><path d="M422.74999971 738.87499971a107.62499971 107.62499971 0 1 1 107.62500058-107.62499971 107.73749971 107.73749971 0 0 1-107.62500058 107.62499971z m0-158.625a51.37499971 51.37499971 0 1 0 51.37500058 51.37500058 51.4125 51.4125 0 0 0-51.37500058-51.37500058z" fill="#000000" p-id="884"></path><path d="M474.12500029 631.25V353.375a28.31249971 28.31249971 0 0 1 28.125-28.125 28.31249971 28.31249971 0 0 1 28.125 28.125v277.875a28.125 28.125 0 0 1-56.25 0z" fill="#000000" p-id="885"></path><path d="M644.00000029 490.58749971a80.84999971 80.84999971 0 0 1-24.37500058-4.12499971l-87.75-29.25A87.525 87.525 0 0 1 474.12500029 377v-23.24999971a68.175 68.175 0 0 1 27-56.62500029 64.4625 64.4625 0 0 1 37.87499971-11.96250029 76.65000029 76.65000029 0 0 1 24.37499971 4.08750029l87.75 29.21249971a87.6375 87.6375 0 0 1 57.75000029 80.25000029v23.24999971a68.175 68.175 0 0 1-27 56.62500029 64.27500029 64.27500029 0 0 1-37.87499971 11.99999971z m-105.37500058-149.175a9.3375 9.3375 0 0 0-4.87499942 1.125 13.46249971 13.46249971 0 0 0-3.75000029 10.9125v23.25000058a32.58749971 32.58749971 0 0 0 19.4625 26.96249971l87.75 29.25a23.5125 23.5125 0 0 0 6.82499971 1.125 8.81250029 8.81250029 0 0 0 4.8375-1.125 13.57499971 13.57499971 0 0 0 3.75000029-10.87499971v-23.25000058a33.14999971 33.14999971 0 0 0-19.50000029-27l-87.75-29.32499971a23.24999971 23.24999971 0 0 0-6.75-1.05000029z" fill="#000000" p-id="886"></path></svg>