<svg xmlns="http://www.w3.org/2000/svg" xmlns:xlink="http://www.w3.org/1999/xlink" width="40" height="40" viewBox="0 0 40 40" fill="none">
<path d="M8.23329 36.6332L31.5666 36.6332C32.5 36.6332 33.2333 35.8998 33.2333 34.9665L33.2333 11.6332L24.9 11.6332L24.9 3.2998L8.23329 3.2998C7.29997 3.2998 6.56665 4.03316 6.56665 4.96648L6.56665 34.9665C6.56665 35.8332 7.29997 36.6332 8.23329 36.6332Z"   fill="#2353f4" >
</path>
<path d="M31.5666 37.6332L8.23329 37.6332C6.76665 37.6332 5.56665 36.4332 5.56665 34.9665L5.56665 4.96647C5.56665 3.49979 6.76665 2.2998 8.23329 2.2998L24.9 2.2998C25.4333 2.2998 25.9 2.76647 25.9 3.29979L25.9 10.6332L33.2333 10.6332C33.7666 10.6332 34.2333 11.0998 34.2333 11.6332L34.2333 34.9665C34.2333 36.4332 33.0333 37.6332 31.5666 37.6332ZM8.23329 4.29979C7.83329 4.29979 7.56665 4.56647 7.56665 4.96647L7.56665 34.9665C7.56665 35.3665 7.83329 35.6332 8.23329 35.6332L31.5666 35.6332C31.9666 35.6332 32.2333 35.3665 32.2333 34.9665L32.2333 12.6332L24.9 12.6332C24.3666 12.6332 23.9 12.1665 23.9 11.6332L23.9 4.29979L8.23329 4.29979Z"   fill="#2353f4" >
</path>
<path d="M33.2333 12.6333C32.9667 12.6333 32.7 12.5666 32.5 12.3666L24.1667 3.9666C23.7667 3.5666 23.7667 2.9666 24.1667 2.5666C24.5667 2.1666 25.1667 2.1666 25.5667 2.5666L33.9 10.8999C34.3 11.2999 34.3 11.8999 33.9 12.2999C33.7667 12.4999 33.5 12.6333 33.2333 12.6333Z"   fill="#2353f4" >
</path>
<path d="M20.7002 28.8347C20.1669 28.8347 19.7002 28.368 19.7002 27.8347L19.7002 19.1013C19.7002 18.7013 19.9002 18.368 20.2335 18.2347L25.2335 15.768C25.7002 15.5013 26.3002 15.7013 26.5669 16.2347C26.8335 16.7013 26.6335 17.3013 26.1002 17.568L21.6335 19.768L21.6335 27.8347C21.7002 28.4347 21.3002 28.8347 20.7002 28.8347Z"   fill="#FFFFFF" >
</path>
<path d="M14.0334 27.4335C14.0334 27.488 14.0348 27.5425 14.0375 27.597C14.0402 27.6515 14.0442 27.7059 14.0495 27.7602C14.0549 27.8145 14.0615 27.8686 14.0695 27.9226C14.0775 27.9765 14.0869 28.0303 14.0975 28.0837C14.1082 28.1372 14.1201 28.1904 14.1334 28.2434C14.1466 28.2963 14.1612 28.3488 14.177 28.4011C14.1928 28.4533 14.2099 28.5051 14.2283 28.5564C14.2467 28.6078 14.2663 28.6587 14.2872 28.709C14.3081 28.7595 14.3302 28.8093 14.3535 28.8586C14.3768 28.9079 14.4013 28.9567 14.427 29.0047C14.4528 29.0529 14.4797 29.1003 14.5077 29.1471C14.5358 29.1939 14.5649 29.24 14.5952 29.2853C14.6255 29.3307 14.6569 29.3753 14.6894 29.4191C14.7219 29.4629 14.7555 29.5059 14.7901 29.5481C14.8247 29.5903 14.8603 29.6315 14.897 29.672C14.9336 29.7124 14.9712 29.7519 15.0098 29.7904C15.0483 29.829 15.0878 29.8667 15.1283 29.9033C15.1687 29.9399 15.21 29.9755 15.2522 30.0101C15.2943 30.0447 15.3373 30.0783 15.3811 30.1108C15.4249 30.1433 15.4695 30.1747 15.5149 30.205C15.5603 30.2353 15.6063 30.2645 15.6531 30.2925C15.6999 30.3206 15.7474 30.3474 15.7955 30.3732C15.8436 30.3989 15.8923 30.4234 15.9416 30.4467C15.9909 30.4701 16.0408 30.4922 16.0912 30.513C16.1416 30.5339 16.1925 30.5535 16.2438 30.5719C16.2952 30.5903 16.347 30.6074 16.3992 30.6233C16.4514 30.6391 16.5039 30.6537 16.5568 30.6669C16.6098 30.6801 16.663 30.6921 16.7165 30.7027C16.77 30.7134 16.8237 30.7227 16.8777 30.7307C16.9317 30.7387 16.9858 30.7454 17.0401 30.7507C17.0944 30.7561 17.1487 30.7601 17.2033 30.7628C17.2577 30.7654 17.3122 30.7668 17.3668 30.7668C17.4213 30.7668 17.4759 30.7654 17.5304 30.7628C17.5848 30.7601 17.6392 30.7561 17.6935 30.7507C17.7478 30.7454 17.802 30.7387 17.8559 30.7307C17.9099 30.7227 17.9636 30.7134 18.0171 30.7027C18.0706 30.6921 18.1238 30.6801 18.1767 30.6669C18.2297 30.6537 18.2822 30.6391 18.3344 30.6233C18.3866 30.6074 18.4384 30.5903 18.4898 30.5719C18.5411 30.5535 18.592 30.5339 18.6424 30.513C18.6928 30.4922 18.7427 30.4701 18.792 30.4467C18.8413 30.4234 18.89 30.3989 18.9381 30.3732C18.9862 30.3474 19.0337 30.3206 19.0805 30.2925C19.1273 30.2645 19.1733 30.2353 19.2187 30.205C19.264 30.1747 19.3086 30.1433 19.3525 30.1108C19.3963 30.0783 19.4393 30.0447 19.4815 30.0101C19.5236 29.9755 19.5649 29.9399 19.6053 29.9033C19.6458 29.8667 19.6852 29.829 19.7238 29.7904C19.7624 29.7519 19.8 29.7124 19.8366 29.672C19.8733 29.6315 19.9089 29.5903 19.9435 29.5481C19.9781 29.5059 20.0117 29.4629 20.0441 29.4191C20.0766 29.3753 20.1081 29.3307 20.1384 29.2853C20.1687 29.24 20.1979 29.1939 20.2259 29.1471C20.2539 29.1003 20.2808 29.0529 20.3065 29.0047C20.3322 28.9567 20.3568 28.9079 20.3801 28.8586C20.4034 28.8093 20.4255 28.7595 20.4464 28.709C20.4673 28.6587 20.4869 28.6078 20.5053 28.5564C20.5236 28.5051 20.5408 28.4533 20.5566 28.4011C20.5724 28.3488 20.587 28.2963 20.6002 28.2434C20.6135 28.1904 20.6254 28.1372 20.6361 28.0837C20.6467 28.0303 20.656 27.9765 20.664 27.9226C20.672 27.8686 20.6787 27.8145 20.6841 27.7602C20.6894 27.7059 20.6934 27.6515 20.6961 27.597C20.6988 27.5425 20.7001 27.488 20.7001 27.4335C20.7001 27.3789 20.6988 27.3244 20.6961 27.2699C20.6934 27.2154 20.6894 27.161 20.6841 27.1067C20.6787 27.0524 20.672 26.9983 20.664 26.9444C20.656 26.8904 20.6467 26.8366 20.6361 26.7831C20.6254 26.7296 20.6135 26.6764 20.6002 26.6235C20.587 26.5706 20.5724 26.518 20.5566 26.4658C20.5408 26.4136 20.5236 26.3618 20.5053 26.3105C20.4869 26.2591 20.4673 26.2082 20.4464 26.1578C20.4255 26.1074 20.4034 26.0576 20.3801 26.0083C20.3568 25.9589 20.3322 25.9102 20.3065 25.8621C20.2808 25.814 20.2539 25.7666 20.2259 25.7198C20.1979 25.673 20.1687 25.6269 20.1384 25.5815C20.1081 25.5362 20.0766 25.4916 20.0441 25.4478C20.0117 25.404 19.9781 25.361 19.9435 25.3188C19.9089 25.2766 19.8733 25.2353 19.8366 25.1949C19.8 25.1545 19.7624 25.115 19.7238 25.0764C19.6852 25.0379 19.6458 25.0002 19.6053 24.9636C19.5649 24.927 19.5236 24.8913 19.4815 24.8567C19.4393 24.8221 19.3963 24.7886 19.3525 24.7561C19.3086 24.7236 19.264 24.6922 19.2187 24.6619C19.1733 24.6316 19.1273 24.6024 19.0805 24.5744C19.0337 24.5463 18.9862 24.5194 18.9381 24.4937C18.89 24.468 18.8413 24.4435 18.792 24.4201C18.7427 24.3968 18.6928 24.3747 18.6424 24.3538C18.592 24.333 18.5411 24.3133 18.4898 24.295C18.4384 24.2766 18.3866 24.2595 18.3344 24.2437C18.2822 24.2278 18.2297 24.2133 18.1767 24.2C18.1238 24.1868 18.0706 24.1748 18.0171 24.1642C17.9636 24.1535 17.9099 24.1442 17.8559 24.1362C17.802 24.1282 17.7478 24.1215 17.6935 24.1161C17.6392 24.1108 17.5848 24.1068 17.5304 24.1041C17.4759 24.1014 17.4213 24.1001 17.3668 24.1001C17.3122 24.1001 17.2577 24.1014 17.2033 24.1041C17.1487 24.1068 17.0944 24.1108 17.0401 24.1161C16.9858 24.1215 16.9317 24.1282 16.8777 24.1362C16.8237 24.1442 16.77 24.1535 16.7165 24.1642C16.663 24.1748 16.6098 24.1868 16.5568 24.2C16.5039 24.2133 16.4514 24.2278 16.3992 24.2437C16.347 24.2595 16.2952 24.2766 16.2438 24.295C16.1925 24.3133 16.1416 24.333 16.0912 24.3538C16.0408 24.3747 15.9909 24.3968 15.9416 24.4201C15.8923 24.4435 15.8436 24.468 15.7955 24.4937C15.7474 24.5194 15.6999 24.5463 15.6531 24.5744C15.6063 24.6024 15.5603 24.6316 15.5149 24.6619C15.4695 24.6922 15.4249 24.7236 15.3811 24.7561C15.3373 24.7886 15.2943 24.8221 15.2522 24.8567C15.21 24.8913 15.1687 24.927 15.1283 24.9636C15.0878 25.0002 15.0483 25.0379 15.0098 25.0764C14.9712 25.115 14.9336 25.1545 14.897 25.1949C14.8603 25.2353 14.8247 25.2766 14.7901 25.3188C14.7555 25.361 14.7219 25.404 14.6894 25.4478C14.6569 25.4916 14.6255 25.5362 14.5952 25.5815C14.5649 25.6269 14.5358 25.673 14.5077 25.7198C14.4797 25.7666 14.4528 25.814 14.427 25.8621C14.4013 25.9102 14.3768 25.9589 14.3535 26.0083C14.3302 26.0576 14.3081 26.1074 14.2872 26.1578C14.2663 26.2082 14.2467 26.2591 14.2283 26.3105C14.2099 26.3618 14.1928 26.4136 14.177 26.4658C14.1612 26.518 14.1466 26.5706 14.1334 26.6235C14.1201 26.6764 14.1082 26.7296 14.0975 26.7831C14.0869 26.8366 14.0775 26.8904 14.0695 26.9444C14.0615 26.9983 14.0549 27.0524 14.0495 27.1067C14.0442 27.161 14.0402 27.2154 14.0375 27.2699C14.0348 27.3244 14.0334 27.3789 14.0334 27.4335Z"   fill="#FFFFFF" >
</path>
<path d="M17.3668 31.7663C14.9668 31.7663 13.0334 29.833 13.0334 27.433C13.0334 25.033 14.9668 23.0996 17.3668 23.0996C19.7668 23.0996 21.7001 25.033 21.7001 27.433C21.7001 29.833 19.7668 31.7663 17.3668 31.7663ZM17.3668 25.0996C16.1001 25.0996 15.0334 26.1663 15.0334 27.433C15.0334 28.6996 16.1001 29.7663 17.3668 29.7663C18.6334 29.7663 19.7001 28.6996 19.7001 27.433C19.7001 26.1663 18.7001 25.0996 17.3668 25.0996Z"   fill="#FFFFFF" >
</path>
</svg>
