<svg xmlns="http://www.w3.org/2000/svg" xmlns:xlink="http://www.w3.org/1999/xlink" width="14" height="14" viewBox="0 0 14 14" fill="none"><path d="M11.9085 4.53607L11.7516 4.89605C11.6368 5.15959 11.2723 5.15959 11.1574 4.89605L11.0006 4.53607C10.7209 3.89421 10.2171 3.38317 9.58854 3.1036L9.10509 2.88859C8.84374 2.77234 8.84374 2.39197 9.10509 2.27571L9.56149 2.07273C10.2063 1.78596 10.719 1.25601 10.9939 0.592345L11.155 0.20334C11.2673 -0.0677797 11.6418 -0.0677797 11.754 0.20334L11.9151 0.592345C12.1901 1.25601 12.7028 1.78596 13.3476 2.07273L13.8039 2.27571C14.0654 2.39197 14.0654 2.77234 13.8039 2.88859L13.3206 3.1036C12.692 3.38317 12.1882 3.89421 11.9085 4.53607ZM4.13636 3.81818L2.86364 3.81818L2.86364 11.4545L4.13636 11.4545L4.13636 3.81818ZM1.27273 6.36364L0 6.36364L0 8.90909L1.27273 8.90909L1.27273 6.36364ZM7 1.27273L5.72727 1.27273L5.72727 14L7 14L7 1.27273ZM9.86364 5.09091L8.59091 5.09091L8.59091 11.4545L9.86364 11.4545L9.86364 5.09091ZM12.7273 6.36364L11.4545 6.36364L11.4545 8.90909L12.7273 8.90909L12.7273 6.36364Z"   fill="#0065FB" ></path></svg>