<svg width="130" height="150" xmlns="http://www.w3.org/2000/svg" xmlns:xlink="http://www.w3.org/1999/xlink"><defs><linearGradient x1="93.508%" y1="0%" x2="6.492%" y2="100%" id="b"><stop stop-color="#3435DF" offset="0%"/><stop stop-color="#5F5AFF" stop-opacity=".8" offset="100%"/></linearGradient><linearGradient x1="65.14%" y1="0%" x2="34.86%" y2="100%" id="c"><stop stop-color="#4344D6" offset="0%"/><stop stop-color="#D1CFFF" stop-opacity=".8" offset="100%"/></linearGradient><linearGradient x1="91.429%" y1="-6.322%" x2="18.444%" y2="90.35%" id="d"><stop stop-color="#6D72FF" stop-opacity=".597" offset="0%"/><stop stop-color="#FFF" offset="100%"/></linearGradient><linearGradient x1="68.658%" y1="10.038%" x2="26.815%" y2="87.081%" id="k"><stop stop-color="#B1B3FF" offset="0%"/><stop stop-color="#FFF" stop-opacity=".4" offset="100%"/></linearGradient><linearGradient x1="68.754%" y1="10.038%" x2="26.695%" y2="87.081%" id="o"><stop stop-color="#B1B3FF" offset="0%"/><stop stop-color="#FFF" stop-opacity=".4" offset="100%"/></linearGradient><linearGradient x1="53.447%" y1="-6.414%" x2="45.204%" y2="149.053%" id="q"><stop stop-color="#DADCFF" offset="0%"/><stop stop-color="#C1C3FF" offset="100%"/></linearGradient><linearGradient x1="51.364%" y1="-6.414%" x2="48.102%" y2="149.053%" id="r"><stop stop-color="#DADCFF" offset="0%"/><stop stop-color="#C1C3FF" offset="100%"/></linearGradient><linearGradient x1="59.519%" y1="-6.414%" x2="36.753%" y2="149.053%" id="s"><stop stop-color="#DADCFF" offset="0%"/><stop stop-color="#C1C3FF" offset="100%"/></linearGradient><filter x="-22.6%" y="-135.4%" width="145.1%" height="370.8%" filterUnits="objectBoundingBox" id="a"><feGaussianBlur stdDeviation="8" in="SourceGraphic"/></filter><filter x="-19.5%" y="-18.2%" width="139%" height="136.4%" filterUnits="objectBoundingBox" id="f"><feGaussianBlur stdDeviation="5" in="SourceGraphic"/></filter><filter x="-16%" y="-14.6%" width="132.1%" height="129.2%" filterUnits="objectBoundingBox" id="h"><feGaussianBlur stdDeviation="4" in="SourceGraphic"/></filter><filter x="-38.7%" y="-27.5%" width="177.4%" height="162.8%" filterUnits="objectBoundingBox" id="i"><feOffset dy="2" in="SourceAlpha" result="shadowOffsetOuter1"/><feGaussianBlur stdDeviation="5" in="shadowOffsetOuter1" result="shadowBlurOuter1"/><feComposite in="shadowBlurOuter1" in2="SourceAlpha" operator="out" result="shadowBlurOuter1"/><feColorMatrix values="0 0 0 0 0.302834912 0 0 0 0 0.28627451 0 0 0 0 0.956862745 0 0 0 0.244683539 0" in="shadowBlurOuter1"/></filter><filter x="-29%" y="-19.6%" width="158%" height="147.1%" filterUnits="objectBoundingBox" id="l"><feGaussianBlur stdDeviation="1.5" in="SourceAlpha" result="shadowBlurInner1"/><feOffset dx="1" dy="-1" in="shadowBlurInner1" result="shadowOffsetInner1"/><feComposite in="shadowOffsetInner1" in2="SourceAlpha" operator="arithmetic" k2="-1" k3="1" result="shadowInnerInner1"/><feColorMatrix values="0 0 0 0 1 0 0 0 0 1 0 0 0 0 1 0 0 0 0.603888665 0" in="shadowInnerInner1"/></filter><filter x="-90%" y="-64.1%" width="280.1%" height="246.4%" filterUnits="objectBoundingBox" id="m"><feOffset dy="2" in="SourceAlpha" result="shadowOffsetOuter1"/><feGaussianBlur stdDeviation="5" in="shadowOffsetOuter1" result="shadowBlurOuter1"/><feComposite in="shadowBlurOuter1" in2="SourceAlpha" operator="out" result="shadowBlurOuter1"/><feColorMatrix values="0 0 0 0 0.302834912 0 0 0 0 0.28627451 0 0 0 0 0.956862745 0 0 0 0.244683539 0" in="shadowBlurOuter1"/></filter><filter x="-67.5%" y="-45.8%" width="235.1%" height="209.8%" filterUnits="objectBoundingBox" id="p"><feGaussianBlur stdDeviation="1.5" in="SourceAlpha" result="shadowBlurInner1"/><feOffset dx="1" dy="-1" in="shadowBlurInner1" result="shadowOffsetInner1"/><feComposite in="shadowOffsetInner1" in2="SourceAlpha" operator="arithmetic" k2="-1" k3="1" result="shadowInnerInner1"/><feColorMatrix values="0 0 0 0 1 0 0 0 0 1 0 0 0 0 1 0 0 0 0.603888665 0" in="shadowInnerInner1"/></filter><path d="M19.37.052c2.868-.224 5.648.283 8.218 1.408 2.61 1.142 4.995 2.92 7.025 5.203 2.054 2.311 3.735 5.131 4.906 8.317 1.18 3.208 1.835 6.767 1.835 10.516 0 3.75-.656 7.31-1.835 10.518-1.171 3.186-2.852 6.006-4.906 8.317-2.03 2.283-4.415 4.06-7.025 5.202-2.57 1.125-5.35 1.632-8.218 1.407-2.82-.22-5.46-1.126-7.825-2.562-2.33-1.416-4.398-3.35-6.115-5.66-1.698-2.286-3.058-4.95-3.992-7.863A30.696 30.696 0 0 1 0 25.496c0-3.303.51-6.461 1.438-9.357.934-2.914 2.294-5.577 3.992-7.863 1.717-2.311 3.786-4.245 6.115-5.66C13.91 1.179 16.551.272 19.37.052" id="e"/><path d="M79.63 33.264c2.868-.224 5.648.283 8.217 1.408 2.61 1.142 4.996 2.92 7.026 5.203 2.054 2.311 3.735 5.131 4.905 8.317 1.18 3.208 1.835 6.767 1.835 10.516 0 3.751-.655 7.31-1.835 10.518-1.17 3.186-2.851 6.006-4.905 8.317-2.03 2.283-4.416 4.06-7.026 5.202-2.57 1.125-5.35 1.632-8.218 1.408-2.819-.22-5.46-1.127-7.824-2.563-2.33-1.416-4.399-3.35-6.116-5.66-1.697-2.286-3.058-4.95-3.991-7.863a30.696 30.696 0 0 1-1.438-9.359c0-3.303.51-6.461 1.438-9.357.933-2.914 2.294-5.577 3.991-7.863 1.717-2.311 3.786-4.245 6.116-5.66 2.364-1.437 5.005-2.344 7.824-2.564" id="j"/><path d="M79.086 47.786a7.4 7.4 0 0 1 3.492.75c1.088.527 2.075 1.312 2.907 2.297a11.27 11.27 0 0 1 1.99 3.514c.473 1.336.735 2.811.735 4.361 0 1.55-.262 3.025-.735 4.361a11.27 11.27 0 0 1-1.99 3.514c-.832.986-1.819 1.77-2.907 2.297a7.4 7.4 0 0 1-3.492.75 7.516 7.516 0 0 1-3.42-.963c-1.036-.577-1.964-1.39-2.74-2.38a11.443 11.443 0 0 1-1.821-3.43 13.102 13.102 0 0 1-.663-4.149c0-1.468.236-2.869.663-4.148a11.448 11.448 0 0 1 1.821-3.43c.776-.99 1.704-1.803 2.74-2.38a7.512 7.512 0 0 1 3.42-.964" id="n"/></defs><g fill="none" fill-rule="evenodd"><path d="M0 0h130v130H0z"/><ellipse fill="#3732BE" opacity=".8" filter="url(#a)" cx="65" cy="109.318" rx="53.182" ry="8.864"/><path d="m34.208 83.342 8.53.723a20.239 20.239 0 0 1-3.488 4.93c-1.263 1.31-3.727 2.933-7.125 4.374-3.398 1.441-10.842.685-13.538.654 2.698.03 5.006-.567 6.957-1.496 1.977-.943 3.579-2.223 4.843-3.531a20.239 20.239 0 0 0 2.823-3.711c.625-1.053.94-1.806.998-1.943Zm44.048 3.735a7.444 7.444 0 0 0 3-.498 7.855 7.855 0 0 0 2.785-1.86 8.996 8.996 0 0 0 1.902-2.973c.452-1.144.703-2.42.703-3.777V20.616c0-1.357-.25-2.624-.703-3.75a8.52 8.52 0 0 0-1.902-2.897 7.438 7.438 0 0 0-2.785-1.749 7.263 7.263 0 0 0-2.408-.402c5.586-.259 9.103 1.108 11.271 1.88a7.438 7.438 0 0 1 2.785 1.748 8.52 8.52 0 0 1 1.903 2.896 10.06 10.06 0 0 1 .702 3.752v57.353c0 1.356-.25 2.632-.702 3.777a8.996 8.996 0 0 1-1.903 2.971 7.855 7.855 0 0 1-2.785 1.861c-2.868.964-8.823-.513-12.217-1Z" fill="#FFF" fill-rule="nonzero"/><path d="m34.208 83.342 8.53.723a20.239 20.239 0 0 1-3.488 4.93c-1.263 1.31-3.727 2.933-7.125 4.374-3.398 1.441-10.842.685-13.538.654 2.698.03 5.006-.567 6.957-1.496 1.977-.943 3.579-2.223 4.843-3.531a20.239 20.239 0 0 0 2.823-3.711c.625-1.053.94-1.806.998-1.943Zm44.048 3.735a7.444 7.444 0 0 0 3-.498 7.855 7.855 0 0 0 2.785-1.86 8.996 8.996 0 0 0 1.902-2.973c.452-1.144.703-2.42.703-3.777V20.616c0-1.357-.25-2.624-.703-3.75a8.52 8.52 0 0 0-1.902-2.897 7.438 7.438 0 0 0-2.785-1.749 7.263 7.263 0 0 0-2.408-.402c5.586-.259 9.103 1.108 11.271 1.88a7.438 7.438 0 0 1 2.785 1.748 8.52 8.52 0 0 1 1.903 2.896 10.06 10.06 0 0 1 .702 3.752v57.353c0 1.356-.25 2.632-.702 3.777a8.996 8.996 0 0 1-1.903 2.971 7.855 7.855 0 0 1-2.785 1.861c-2.868.964-8.823-.513-12.217-1Z" fill-opacity=".6" fill="url(#b)" fill-rule="nonzero"/><path d="M99.134 45.03c2.948 0 5.348.335 7.918 1.46 2.61 1.143 4.995 2.92 7.025 5.203 2.054 2.311 3.735 5.132 4.906 8.318 1.18 3.207 1.835 6.766 1.835 10.516s-.656 7.31-1.835 10.517c-1.17 3.186-2.852 6.006-4.906 8.317-2.03 2.284-4.415 4.06-7.025 5.202-2.57 1.125-11.43 1.684-14.297 1.46h-.012a17.11 17.11 0 0 0 6.922-1.46c2.61-1.142 4.996-2.918 7.026-5.202 2.054-2.31 3.735-5.13 4.906-8.317 1.179-3.208 1.834-6.767 1.834-10.517 0-3.75-.655-7.31-1.834-10.516-1.171-3.186-2.852-6.007-4.906-8.318-2.03-2.284-4.416-4.06-7.026-5.203a17.106 17.106 0 0 0-6.923-1.46h6.392Z" fill="#FFF" fill-rule="nonzero"/><path d="M99.134 45.03c2.948 0 5.348.335 7.918 1.46 2.61 1.143 4.995 2.92 7.025 5.203 2.054 2.311 3.735 5.132 4.906 8.318 1.18 3.207 1.835 6.766 1.835 10.516s-.656 7.31-1.835 10.517c-1.17 3.186-2.852 6.006-4.906 8.317-2.03 2.284-4.415 4.06-7.025 5.202-2.57 1.125-11.43 1.684-14.297 1.46h-.012a17.11 17.11 0 0 0 6.922-1.46c2.61-1.142 4.996-2.918 7.026-5.202 2.054-2.31 3.735-5.13 4.906-8.317 1.179-3.208 1.834-6.767 1.834-10.517 0-3.75-.655-7.31-1.834-10.516-1.171-3.186-2.852-6.007-4.906-8.318-2.03-2.284-4.416-4.06-7.026-5.203a17.106 17.106 0 0 0-6.923-1.46h6.392Z" fill-opacity=".6" fill="url(#c)" fill-rule="nonzero"/><path d="M77.902 11.879a7.36 7.36 0 0 1 3.354.341 7.438 7.438 0 0 1 2.785 1.749 8.52 8.52 0 0 1 1.902 2.896 10.06 10.06 0 0 1 .703 3.751V77.97c0 1.357-.25 2.633-.703 3.777a8.996 8.996 0 0 1-1.902 2.972 7.855 7.855 0 0 1-2.785 1.86 7.467 7.467 0 0 1-3.354.477l-43.694-3.713c-.057.137-.373.89-.998 1.943a20.239 20.239 0 0 1-2.823 3.71c-1.264 1.31-2.866 2.59-4.843 3.532-1.952.93-4.261 1.526-6.957 1.494.284-.81.546-1.952.735-3.217a25.84 25.84 0 0 0 .29-3.95c-.013-1.295-.153-2.496-.472-3.39-.32-.89-.816-1.472-1.54-1.534a4.887 4.887 0 0 1-2.277-.816c-.693-.457-1.315-1.085-1.834-1.838a9.25 9.25 0 0 1-1.224-2.584 10.691 10.691 0 0 1-.447-3.075V27.98c0-1.08.16-2.126.447-3.094a9.684 9.684 0 0 1 1.224-2.635c.52-.774 1.14-1.427 1.834-1.912.696-.487 1.465-.806 2.277-.907l60.302-7.553Z" fill="#FFF" fill-rule="nonzero"/><path d="M66.084.06a7.36 7.36 0 0 1 3.354.342 7.438 7.438 0 0 1 2.785 1.749 8.52 8.52 0 0 1 1.902 2.896c.452 1.126.702 2.394.702 3.751v57.353c0 1.357-.25 2.633-.702 3.777a8.996 8.996 0 0 1-1.902 2.972 7.855 7.855 0 0 1-2.785 1.86 7.467 7.467 0 0 1-3.354.477L22.39 71.523c-.057.137-.373.89-.998 1.943a20.239 20.239 0 0 1-2.823 3.712c-1.264 1.308-2.866 2.588-4.843 3.53-1.953.93-4.262 1.527-6.957 1.495.284-.81.546-1.952.734-3.217.19-1.266.304-2.654.29-3.95-.012-1.295-.152-2.496-.472-3.39-.318-.89-.815-1.473-1.54-1.534a4.887 4.887 0 0 1-2.276-.816c-.694-.457-1.315-1.085-1.835-1.838a9.25 9.25 0 0 1-1.223-2.584A10.691 10.691 0 0 1 0 61.799V16.162c0-1.08.159-2.126.447-3.095a9.684 9.684 0 0 1 1.223-2.634c.52-.774 1.141-1.427 1.835-1.912.696-.488 1.465-.806 2.277-.907L66.084.06Z" fill="url(#d)" fill-rule="nonzero" transform="translate(11.818 11.818)"/><path d="M91.448 45.082c2.868-.224 5.648.283 8.217 1.408 2.61 1.143 4.996 2.92 7.026 5.203 2.054 2.311 3.735 5.132 4.906 8.318 1.179 3.207 1.834 6.766 1.834 10.516s-.655 7.31-1.834 10.517c-1.171 3.186-2.852 6.006-4.906 8.317-2.03 2.284-4.416 4.06-7.026 5.202-2.57 1.125-5.35 1.632-8.217 1.408-2.82-.22-5.46-1.127-7.825-2.563-2.33-1.415-4.399-3.349-6.115-5.66-1.698-2.285-3.059-4.949-3.992-7.863a30.696 30.696 0 0 1-1.438-9.358c0-3.304.51-6.462 1.438-9.358.933-2.913 2.294-5.577 3.992-7.863 1.716-2.311 3.785-4.245 6.115-5.66 2.365-1.437 5.005-2.343 7.825-2.564" fill="#FFF"/><g transform="translate(72.078 45.03)"><mask id="g" fill="#fff"><use xlink:href="#e"/></mask><use fill="#FFF" xlink:href="#e"/><path d="m-37.87 38.311 8.53.724a20.239 20.239 0 0 1-3.488 4.93c-1.263 1.31-3.727 2.932-7.125 4.374-3.398 1.441-10.842.685-13.537.653 2.697.03 5.005-.566 6.956-1.496 1.977-.942 3.58-2.222 4.843-3.53a20.239 20.239 0 0 0 2.823-3.712c.625-1.053.941-1.806.999-1.943Zm44.048 3.736a7.444 7.444 0 0 0 3-.498 7.855 7.855 0 0 0 2.785-1.861 8.996 8.996 0 0 0 1.903-2.972c.452-1.144.702-2.42.702-3.777v-57.353c0-1.357-.25-2.625-.702-3.751a8.52 8.52 0 0 0-1.903-2.896 7.438 7.438 0 0 0-2.785-1.75 7.263 7.263 0 0 0-2.407-.401c5.585-.259 9.103 1.108 11.27 1.879a7.438 7.438 0 0 1 2.786 1.75 8.52 8.52 0 0 1 1.902 2.895 10.06 10.06 0 0 1 .702 3.752v57.352c0 1.357-.25 2.633-.702 3.777a8.996 8.996 0 0 1-1.902 2.972 7.855 7.855 0 0 1-2.785 1.86c-2.869.965-8.823-.512-12.217-1Z" fill-opacity=".6" fill="url(#b)" fill-rule="nonzero" filter="url(#f)" mask="url(#g)"/><path d="M5.825-33.152a7.36 7.36 0 0 1 3.353.342 7.438 7.438 0 0 1 2.785 1.749 8.52 8.52 0 0 1 1.903 2.896c.452 1.126.702 2.394.702 3.751V32.94c0 1.357-.25 2.633-.702 3.777a8.996 8.996 0 0 1-1.903 2.972 7.855 7.855 0 0 1-2.785 1.86 7.467 7.467 0 0 1-3.353.477L-37.87 38.31c-.058.137-.374.89-.999 1.943a20.239 20.239 0 0 1-2.823 3.711c-1.264 1.31-2.866 2.59-4.843 3.531-1.952.93-4.261 1.527-6.956 1.495.283-.81.546-1.952.734-3.217.189-1.266.303-2.654.29-3.95-.013-1.295-.153-2.496-.472-3.39-.319-.89-.815-1.473-1.54-1.534-.811-.07-1.58-.357-2.277-.816-.693-.457-1.314-1.085-1.834-1.838a9.25 9.25 0 0 1-1.224-2.584 10.691 10.691 0 0 1-.447-3.075V-17.05c0-1.08.16-2.126.447-3.095a9.684 9.684 0 0 1 1.224-2.634c.52-.774 1.141-1.427 1.834-1.912.696-.488 1.466-.806 2.277-.908l60.303-7.553Z" fill="url(#d)" fill-rule="nonzero" filter="url(#h)" mask="url(#g)"/></g><g transform="translate(11.818 11.818)"><use fill="#000" filter="url(#i)" xlink:href="#j"/><use fill-opacity=".4" fill="url(#k)" xlink:href="#j"/><use fill="#000" filter="url(#l)" xlink:href="#j"/></g><path d="m91.608 59.614 2.566.161a7.515 7.515 0 0 1 3.23.972 9.11 9.11 0 0 1 2.66 2.31 11.226 11.226 0 0 1 1.804 3.366c.428 1.265.664 2.65.664 4.103 0 1.454-.236 2.84-.664 4.104a11.228 11.228 0 0 1-1.804 3.366 9.114 9.114 0 0 1-2.66 2.31c-.995.56-2.085.9-3.23.972l-2.566.16a7.52 7.52 0 0 0 3.253-.984c1.008-.571 1.916-1.37 2.68-2.344a11.421 11.421 0 0 0 1.819-3.416 13.1 13.1 0 0 0 .668-4.168 13.1 13.1 0 0 0-.668-4.167 11.421 11.421 0 0 0-1.819-3.416c-.764-.975-1.672-1.773-2.68-2.344a7.52 7.52 0 0 0-3.253-.985" fill="#7177F2"/><g transform="translate(11.818 11.818)"><use fill="#000" filter="url(#m)" xlink:href="#n"/><use fill="url(#o)" xlink:href="#n"/><use fill="#000" filter="url(#p)" xlink:href="#n"/></g><path d="M40.906 41.778c-.13-.4-.318-.762-.552-1.068a2.792 2.792 0 0 0-.82-.732 2.24 2.24 0 0 0-1.005-.303l-2.644-.14c.36.02.702.127 1.012.307.311.18.59.433.825.743s.424.676.555 1.083c.13.406.203.853.203 1.323v17.014c0 .462-.07.9-.196 1.299a3.62 3.62 0 0 1-.537 1.064 2.797 2.797 0 0 1-.8.736c-.301.18-.633.291-.984.318l2.643-.2c.349-.027.68-.136.98-.314a2.81 2.81 0 0 0 .794-.726 3.52 3.52 0 0 0 .533-1.05c.126-.393.195-.825.195-1.28v-16.77a4.23 4.23 0 0 0-.202-1.304" fill="#7177F2"/><path d="M23.882 27.715c.381-.012.745.075 1.077.243.332.169.632.418.884.73.252.314.457.69.599 1.11.141.42.22.885.22 1.375v17.014c0 .49-.079.953-.22 1.372a3.536 3.536 0 0 1-.599 1.101 2.685 2.685 0 0 1-.884.719 2.196 2.196 0 0 1-1.077.229 2.316 2.316 0 0 1-1.068-.323 2.988 2.988 0 0 1-.868-.786 3.854 3.854 0 0 1-.582-1.132 4.407 4.407 0 0 1-.214-1.364v-16.72c0-.481.076-.941.214-1.361.137-.42.336-.802.582-1.125a2.93 2.93 0 0 1 .868-.774 2.286 2.286 0 0 1 1.068-.308" fill="url(#q)" transform="translate(11.818 11.818)"/><path d="M52.463 31.439a3.586 3.586 0 0 0-.538-1.056 2.923 2.923 0 0 0-.806-.743 2.441 2.441 0 0 0-.997-.35l-2.567-.3a2.45 2.45 0 0 1 1.003.353c.307.19.582.446.812.754.23.31.414.671.542 1.071.128.4.198.84.198 1.302v33.804c0 .461-.07.9-.198 1.3-.128.399-.313.76-.542 1.07-.23.308-.505.564-.812.753a2.447 2.447 0 0 1-1.003.353l2.568-.3a2.44 2.44 0 0 0 .996-.35c.305-.186.578-.438.806-.742a3.58 3.58 0 0 0 .538-1.055 4.19 4.19 0 0 0 .196-1.28V32.72c0-.456-.07-.888-.196-1.282" fill="#7177F2"/><path d="M35.306 17.16a2.4 2.4 0 0 1 1.155.215c.357.164.679.413.95.728.271.316.491.7.644 1.13.152.432.237.91.237 1.418v33.805c0 .506-.085.985-.237 1.416-.153.43-.373.813-.644 1.13a2.799 2.799 0 0 1-.95.726 2.4 2.4 0 0 1-1.155.216 2.588 2.588 0 0 1-1.148-.357 3.257 3.257 0 0 1-.931-.834 4.038 4.038 0 0 1-.625-1.184 4.468 4.468 0 0 1-.228-1.417V20.954c0-.498.08-.977.228-1.418.147-.44.36-.842.625-1.185.264-.344.58-.628.93-.834.353-.205.74-.331 1.149-.357" fill="url(#r)" transform="translate(11.818 11.818)"/><path d="M64.217 40.085a3.164 3.164 0 0 0-.93-.788 2.734 2.734 0 0 0-1.145-.337l-2.476-.162c.41.027.8.146 1.153.342.354.196.672.468.938.8.267.332.483.723.631 1.156.149.434.23.91.23 1.41v9.152c0 .511-.085.999-.24 1.443-.155.443-.38.843-.657 1.18a3.218 3.218 0 0 1-.974.808 2.758 2.758 0 0 1-1.193.324l2.477-.093a2.73 2.73 0 0 0 1.183-.32c.364-.19.692-.462.966-.794a3.79 3.79 0 0 0 .652-1.163 4.27 4.27 0 0 0 .239-1.42v-9.01c0-.493-.081-.961-.229-1.389a3.759 3.759 0 0 0-.625-1.14Z" fill="#7177F2"/><path d="M47.585 26.975c.441-.013.862.08 1.245.26.384.18.731.447 1.023.783.293.336.529.74.693 1.192.164.452.255.952.255 1.479v9.15c0 .528-.09 1.028-.255 1.483a3.84 3.84 0 0 1-.693 1.2c-.292.34-.639.613-1.023.798a2.74 2.74 0 0 1-2.48-.042 3.267 3.267 0 0 1-1.002-.82 3.932 3.932 0 0 1-.672-1.2 4.401 4.401 0 0 1-.247-1.461v-8.98c0-.518.088-1.012.247-1.464.158-.452.388-.862.672-1.21a3.334 3.334 0 0 1 1.003-.833c.378-.202.795-.32 1.234-.335" fill="url(#s)" transform="translate(11.818 11.818)"/></g></svg>