<svg width="130" height="150" xmlns="http://www.w3.org/2000/svg" xmlns:xlink="http://www.w3.org/1999/xlink"><defs><filter x="-22.6%" y="-135.4%" width="145.1%" height="370.8%" filterUnits="objectBoundingBox" id="a"><feGaussianBlur stdDeviation="8" in="SourceGraphic"/></filter><filter x="-6.2%" y="-9.6%" width="112.5%" height="119.2%" filterUnits="objectBoundingBox" id="h"><feGaussianBlur stdDeviation="2" in="SourceGraphic"/></filter><filter x="-22.6%" y="-19.2%" width="145.2%" height="138.3%" filterUnits="objectBoundingBox" id="j"><feGaussianBlur stdDeviation="4" in="SourceGraphic"/></filter><filter x="-7.9%" y="-7.4%" width="115.8%" height="114.9%" filterUnits="objectBoundingBox" id="k"><feGaussianBlur stdDeviation="2" in="SourceGraphic"/></filter><filter x="-17.7%" y="-14.8%" width="135.4%" height="129.7%" filterUnits="objectBoundingBox" id="l"><feGaussianBlur stdDeviation="4" in="SourceGraphic"/></filter><filter x="-31.3%" y="-21.2%" width="162.7%" height="150%" filterUnits="objectBoundingBox" id="m"><feOffset dy="2" in="SourceAlpha" result="shadowOffsetOuter1"/><feGaussianBlur stdDeviation="4" in="shadowOffsetOuter1" result="shadowBlurOuter1"/><feComposite in="shadowBlurOuter1" in2="SourceAlpha" operator="out" result="shadowBlurOuter1"/><feColorMatrix values="0 0 0 0 0.28627451 0 0 0 0 0.652855906 0 0 0 0 0.956862745 0 0 0 0.244683539 0" in="shadowBlurOuter1"/></filter><filter x="-25.3%" y="-16.4%" width="150.6%" height="140.4%" filterUnits="objectBoundingBox" id="o"><feGaussianBlur stdDeviation="2" in="SourceAlpha" result="shadowBlurInner1"/><feOffset dy="1" in="shadowBlurInner1" result="shadowOffsetInner1"/><feComposite in="shadowOffsetInner1" in2="SourceAlpha" operator="arithmetic" k2="-1" k3="1" result="shadowInnerInner1"/><feColorMatrix values="0 0 0 0 1 0 0 0 0 1 0 0 0 0 1 0 0 0 1 0" in="shadowInnerInner1"/></filter><filter x="-84.1%" y="-51.5%" width="268.2%" height="217.6%" filterUnits="objectBoundingBox" id="p"><feOffset dy="2" in="SourceAlpha" result="shadowOffsetOuter1"/><feGaussianBlur stdDeviation="5" in="shadowOffsetOuter1" result="shadowBlurOuter1"/><feComposite in="shadowBlurOuter1" in2="SourceAlpha" operator="out" result="shadowBlurOuter1"/><feColorMatrix values="0 0 0 0 0 0 0 0 0 0.70156079 0 0 0 0 0.841872948 0 0 0 0.599403648 0" in="shadowBlurOuter1"/></filter><filter x="-63.1%" y="-36.8%" width="226.2%" height="188.2%" filterUnits="objectBoundingBox" id="s"><feGaussianBlur stdDeviation="1.5" in="SourceAlpha" result="shadowBlurInner1"/><feOffset dy="-1" in="shadowBlurInner1" result="shadowOffsetInner1"/><feComposite in="shadowOffsetInner1" in2="SourceAlpha" operator="arithmetic" k2="-1" k3="1" result="shadowInnerInner1"/><feColorMatrix values="0 0 0 0 1 0 0 0 0 1 0 0 0 0 1 0 0 0 0.603888665 0" in="shadowInnerInner1"/></filter><linearGradient x1="100%" y1="28.898%" x2="75.87%" y2="46.25%" id="b"><stop stop-color="#41DAEC" stop-opacity=".603" offset="0%"/><stop stop-color="#22A1C5" offset="100%"/><stop stop-color="#47E0FF" offset="100%"/></linearGradient><linearGradient x1="86.011%" y1="0%" x2="69.915%" y2="100%" id="c"><stop stop-color="#01A6C7" offset="0%"/><stop stop-color="#007086" stop-opacity=".84" offset="100%"/></linearGradient><linearGradient x1="117.298%" y1="-16.937%" x2="13.071%" y2="88.414%" id="d"><stop stop-color="#00BDE1" offset="0%"/><stop stop-color="#FFF" offset="100%"/></linearGradient><linearGradient x1="77.651%" y1="0%" x2="77.651%" y2="100%" id="e"><stop stop-color="#01A6C7" offset="0%"/><stop stop-color="#007086" stop-opacity=".84" offset="100%"/></linearGradient><linearGradient x1="70.362%" y1="17.095%" x2="31.617%" y2="100%" id="f"><stop stop-color="#009AB9" offset="0%"/><stop stop-color="#D6F8FF" stop-opacity=".84" offset="100%"/></linearGradient><linearGradient x1="63.862%" y1="10.038%" x2="32.774%" y2="87.081%" id="r"><stop stop-color="#74EDFA" offset="0%"/><stop stop-color="#FFF" stop-opacity=".4" offset="100%"/></linearGradient><linearGradient x1="77.619%" y1="-37.417%" x2="22.381%" y2="121.711%" id="t"><stop stop-color="#E9FEFF" offset="0%"/><stop stop-color="#90F7FF" offset="100%"/></linearGradient><path d="M19.435.053c2.879-.229 5.669.288 8.248 1.435 2.619 1.164 5.013 2.974 7.05 5.301 2.062 2.355 3.748 5.23 4.923 8.476 1.184 3.268 1.842 6.894 1.842 10.715 0 3.823-.658 7.45-1.842 10.718-1.175 3.247-2.861 6.12-4.923 8.475-2.037 2.327-4.431 4.137-7.05 5.3-2.58 1.147-5.37 1.663-8.248 1.435-2.829-.225-5.478-1.148-7.85-2.612-2.338-1.441-4.414-3.412-6.136-5.767-1.704-2.329-3.07-5.043-4.006-8.012A31.728 31.728 0 0 1 0 25.98c0-3.366.512-6.584 1.443-9.535.937-2.969 2.302-5.683 4.006-8.012 1.722-2.355 3.798-4.326 6.136-5.768C13.957 1.2 16.606.278 19.435.053" id="g"/><path d="M19.435.053c2.879-.229 5.669.288 8.248 1.435 2.619 1.164 5.013 2.974 7.05 5.301 2.062 2.355 3.748 5.23 4.923 8.476 1.184 3.268 1.842 6.894 1.842 10.715 0 3.823-.658 7.45-1.842 10.718-1.175 3.247-2.861 6.12-4.923 8.475-2.037 2.327-4.431 4.137-7.05 5.3-2.58 1.147-5.37 1.663-8.248 1.435-2.829-.225-5.478-1.148-7.85-2.612-2.338-1.441-4.414-3.412-6.136-5.767-1.704-2.329-3.07-5.043-4.006-8.012A31.728 31.728 0 0 1 0 25.98c0-3.366.512-6.584 1.443-9.535.937-2.969 2.302-5.683 4.006-8.012 1.722-2.355 3.798-4.326 6.136-5.768C13.957 1.2 16.606.278 19.435.053" id="n"/><path d="M19.252 12.376h.063a3.368 3.368 0 0 1 .18.007.91.91 0 0 1 .091.01l.045.008.044.008.087.017a2.488 2.488 0 0 1 .13.032 1.432 1.432 0 0 1 .116.039l.059.023.055.023.052.023.056.027a2.27 2.27 0 0 1 .301.185 4.733 4.733 0 0 1 .151.12l.042.036.037.033.07.07a2.76 2.76 0 0 1 .149.16l7.306 8.8c.251.301.44.652.565 1.027.126.375.188.775.188 1.175s-.062.8-.188 1.177a3.23 3.23 0 0 1-.565 1.033 2.75 2.75 0 0 1-.402.398 2.41 2.41 0 0 1-.445.284 2.197 2.197 0 0 1-.473.169 2.08 2.08 0 0 1-.969-.004 2.178 2.178 0 0 1-.468-.172 2.38 2.38 0 0 1-.439-.284 2.718 2.718 0 0 1-.393-.395l-2.995-3.685v13.908c0 .423-.069.822-.194 1.184a3.01 3.01 0 0 1-.527.95c-.222.268-.486.48-.779.623a1.97 1.97 0 0 1-.95.2 2.065 2.065 0 0 1-.942-.277 2.616 2.616 0 0 1-.766-.679 3.3 3.3 0 0 1-.515-.978 3.738 3.738 0 0 1-.188-1.18V22.769l-2.855 3.623a2.58 2.58 0 0 1-.369.382c-.13.109-.267.2-.408.272a1.953 1.953 0 0 1-.433.162 1.848 1.848 0 0 1-.89-.004 1.963 1.963 0 0 1-.43-.164 2.176 2.176 0 0 1-.402-.272 2.525 2.525 0 0 1-.361-.38 3.114 3.114 0 0 1-.506-.977 3.701 3.701 0 0 1-.168-1.11c0-.378.056-.756.168-1.113.112-.356.28-.691.506-.982l6.85-8.871.053-.064.044-.053.04-.047.038-.042.058-.056.033-.033.033-.032a1.322 1.322 0 0 1 .066-.063l.067-.055.053-.042a6.989 6.989 0 0 1 .082-.064l.065-.044.055-.035.049-.03a.963.963 0 0 1 .11-.059 4.153 4.153 0 0 1 .157-.076l.067-.026a2.172 2.172 0 0 1 .162-.057l.064-.013c.014-.004.029-.007.043-.012a26528.443 26528.443 0 0 1 .087-.02.82.82 0 0 1 .043-.008l.06-.01.06-.007.06-.006.06-.004" id="q"/></defs><g fill="none" fill-rule="evenodd"><path d="M0 0h130v130H0z"/><ellipse fill="#008BA7" opacity=".8" filter="url(#a)" cx="65" cy="109.318" rx="53.182" ry="8.864"/><path d="M59.498 22.57a6.3 6.3 0 0 1 1.075-.001c.338.03.653.09.941.179.29.09.552.21.785.358.232.148.435.325.604.53l3.558 4.318c.18.22.398.411.648.574.251.164.535.298.85.402.314.104.657.177 1.027.218.37.04.767.05 1.186.024l34.566-2.244c1.153-.07 2.47-.165 3.35.11.887.278 1.522.757 2.067 1.323.548.57.99 1.553 1.12 2.352.134.805.037 1.707-.325 2.673l-16.33 43.53c-.465 1.238-1.177 2.403-2.07 3.447a14.111 14.111 0 0 1-3.141 2.717 13.72 13.72 0 0 1-3.754 1.675c-1.298.352-2.619.484-3.89.355l-63.671-6.485c-.842-.086-1.522-.37-2.03-.81-.506-.435-.843-1.022-1.003-1.72-.159-.69-.144-1.49.053-2.355.195-.86.57-1.786 1.132-2.739l24.667-41.794a10.867 10.867 0 0 1 1.684-2.135 14.127 14.127 0 0 1 2.213-1.795 13.287 13.287 0 0 1 2.48-1.289c.845-.326 1.69-.539 2.491-.606l9.716-.811Z" fill="#FFF" fill-rule="nonzero"/><path d="M46.203 15.204a6.3 6.3 0 0 1 1.075-.002c.338.03.652.09.94.18.29.09.553.209.785.357.233.148.436.326.605.53l3.558 4.318c.18.22.398.411.648.575.251.163.535.297.849.401.314.104.658.177 1.028.218.37.041.767.05 1.185.024l34.567-2.244c1.153-.07 2.47-.164 3.35.111.886.277 1.522.756 2.066 1.322.549.571.99 1.554 1.121 2.352.133.805.036 1.708-.326 2.673l-16.328 43.53c-.465 1.239-1.178 2.404-2.07 3.448a14.111 14.111 0 0 1-3.142 2.716 13.72 13.72 0 0 1-3.754 1.676c-1.298.351-2.618.484-3.89.354L4.8 71.258c-.842-.086-1.522-.37-2.031-.809-.506-.436-.842-1.023-1.002-1.72-.16-.691-.144-1.49.052-2.356.196-.86.57-1.786 1.133-2.739L27.619 21.84a10.867 10.867 0 0 1 1.684-2.135 14.127 14.127 0 0 1 2.213-1.794 13.287 13.287 0 0 1 2.48-1.29c.844-.326 1.69-.539 2.49-.606l9.717-.811Z" fill="url(#b)" fill-rule="nonzero" transform="translate(13.295 7.367)"/><path d="M111.066 28.542c1.53.944 2.288 1.754 2.832 2.32.549.57.907 1.271 1.038 2.07.133.805.036 1.707-.326 2.673l-12.813 40.924c-.465 1.238-1.177 2.403-2.07 3.447a14.111 14.111 0 0 1-3.141 2.717 13.72 13.72 0 0 1-3.754 1.675c-1.298.351-2.619.484-3.89.354l-3.494-.355a13.721 13.721 0 0 0 3.751-1.674 14.111 14.111 0 0 0 3.142-2.717c.892-1.044 1.605-2.21 2.07-3.447l16.328-43.531c.362-.965.46-1.868.327-2.672a3.852 3.852 0 0 0-1.038-2.07 4.621 4.621 0 0 0-1.202-.888c.753.323 1.523.732 2.24 1.174Zm-43.317-6.361c.338.03.653.09.941.18.29.09.552.209.785.357.233.148.436.326.604.53l3.558 4.318c.18.22.398.412.649.575.203.132.428.245.672.339l-4.996.304a6.954 6.954 0 0 1-1.186-.024 5.032 5.032 0 0 1-1.028-.218 3.643 3.643 0 0 1-.849-.401 2.84 2.84 0 0 1-.648-.575l-3.558-4.317a2.55 2.55 0 0 0-.605-.53 2.928 2.928 0 0 0-.232-.134l4.818-.402a6.3 6.3 0 0 1 1.075-.002Z" fill="#FFF" fill-rule="nonzero"/><path d="M97.77 21.175c1.531.945 2.288 1.754 2.833 2.32a3.86 3.86 0 0 1 1.038 2.07c.132.805.035 1.708-.327 2.673L88.502 69.162c-.465 1.238-1.178 2.403-2.07 3.447a14.111 14.111 0 0 1-3.142 2.717A13.72 13.72 0 0 1 79.536 77c-1.298.352-2.618.484-3.89.355L72.154 77a13.721 13.721 0 0 0 3.751-1.674 14.111 14.111 0 0 0 3.142-2.717c.892-1.044 1.605-2.209 2.07-3.447l16.328-43.53c.362-.966.46-1.868.326-2.673a3.852 3.852 0 0 0-1.038-2.07A4.621 4.621 0 0 0 95.53 20c.754.324 1.524.733 2.24 1.174Zm-43.316-6.36c.338.029.653.09.94.179.29.09.553.21.785.357.233.149.436.326.605.531l3.558 4.317c.18.22.398.412.648.575.203.132.428.246.673.339l-4.997.304a6.954 6.954 0 0 1-1.186-.023 5.032 5.032 0 0 1-1.028-.219 3.643 3.643 0 0 1-.848-.401 2.84 2.84 0 0 1-.648-.575l-3.558-4.317a2.55 2.55 0 0 0-.605-.53 2.928 2.928 0 0 0-.232-.134l4.818-.401a6.3 6.3 0 0 1 1.075-.003Z" fill-opacity=".9" fill="url(#c)" fill-rule="nonzero" transform="translate(13.295 7.367)"/><path d="M15.851.054a4.791 4.791 0 0 1 2.282.28c.365.14.718.324 1.054.551.337.228.658.5.958.813l6.228 6.507c.313.326.648.612 1.002.854.356.243.73.442 1.118.596a5.425 5.425 0 0 0 2.475.366L66.949 7.01a7.52 7.52 0 0 1 3.4.493 7.985 7.985 0 0 1 2.823 1.909 9.227 9.227 0 0 1 1.929 3.043 10.6 10.6 0 0 1 .712 3.866V71.6c0 1.388-.254 2.685-.712 3.84a8.788 8.788 0 0 1-1.93 2.973 7.603 7.603 0 0 1-2.823 1.806 7.417 7.417 0 0 1-3.399.371L5.854 73.263c-.822-.098-1.6-.419-2.306-.912-.701-.491-1.33-1.154-1.857-1.942a9.873 9.873 0 0 1-1.24-2.683A11.186 11.186 0 0 1 0 64.567V9.95c0-1.103.16-2.171.452-3.158A9.873 9.873 0 0 1 1.69 4.107c.526-.787 1.156-1.45 1.857-1.942.705-.493 1.484-.813 2.306-.912L15.851.054Z" fill="url(#d)" fill-rule="nonzero" transform="translate(13.295 7.367)"/><path d="M87.536 14.14c2.435 0 3.873.298 4.924.712a7.985 7.985 0 0 1 2.824 1.908 9.227 9.227 0 0 1 1.928 3.043 10.6 10.6 0 0 1 .713 3.866V78.95c0 1.389-.254 2.685-.713 3.84a8.788 8.788 0 0 1-1.928 2.973 7.603 7.603 0 0 1-2.824 1.806c-.168.06-.323.12-.474.175l-.226.082c-.717.252-1.48.433-3.398.433-2.523 0-4.925.048-7.515-.263l-.086-.009a7.358 7.358 0 0 0 2.836-.418 7.603 7.603 0 0 0 2.823-1.806 8.788 8.788 0 0 0 1.929-2.973c.458-1.155.712-2.451.712-3.84V23.67a10.6 10.6 0 0 0-.712-3.866 9.227 9.227 0 0 0-1.929-3.043 7.985 7.985 0 0 0-2.823-1.908 7.52 7.52 0 0 0-3.4-.494l-2.762.231c1.056-.1 2.05-.188 2.979-.266 2.61-.218 4.688-.183 7.122-.183ZM39.124 7.405a4.81 4.81 0 0 1 1.121.28c.365.138.718.322 1.054.55.337.228.658.499.957.812l6.23 6.507c.311.326.647.612 1.001.854.256.175.52.327.794.456l-6.065.506a5.425 5.425 0 0 1-2.475-.366 5.726 5.726 0 0 1-1.117-.596 6.352 6.352 0 0 1-1.003-.854l-6.228-6.507a5.87 5.87 0 0 0-.958-.812 5.163 5.163 0 0 0-1.054-.55 4.81 4.81 0 0 0-1.214-.29l4.09-.028.246-.001h.06l.268-.001h1.343c1.21.002 2.711.01 2.95.04Z" fill="#FFF" fill-rule="nonzero"/><path d="M74.24 6.773c2.435 0 3.873.298 4.925.712a7.985 7.985 0 0 1 2.823 1.908 9.227 9.227 0 0 1 1.929 3.044 10.6 10.6 0 0 1 .712 3.865v55.282c0 1.388-.254 2.685-.712 3.84a8.788 8.788 0 0 1-1.929 2.973 7.603 7.603 0 0 1-2.823 1.806c-.168.06-.323.119-.475.174l-.226.082c-.717.252-1.479.433-3.397.433-2.524 0-4.925.048-7.515-.263l-.087-.008a7.358 7.358 0 0 0 2.836-.418 7.603 7.603 0 0 0 2.824-1.806 8.788 8.788 0 0 0 1.928-2.974c.458-1.154.712-2.451.712-3.84v-55.28a10.6 10.6 0 0 0-.712-3.866 9.227 9.227 0 0 0-1.928-3.044A7.985 7.985 0 0 0 70.3 7.485a7.52 7.52 0 0 0-3.4-.494l-2.761.232c1.056-.1 2.049-.189 2.978-.266 2.611-.22 4.688-.184 7.123-.184ZM25.829.038a4.81 4.81 0 0 1 1.122.28 5.09 5.09 0 0 1 1.053.55c.338.228.659.5.958.812l6.229 6.507c.312.327.647.612 1.002.854.255.175.52.327.793.456l-6.064.507a5.425 5.425 0 0 1-2.475-.366 5.726 5.726 0 0 1-1.118-.597 6.352 6.352 0 0 1-1.002-.854l-6.23-6.507a5.87 5.87 0 0 0-.957-.812 5.163 5.163 0 0 0-1.054-.55 4.81 4.81 0 0 0-1.215-.29L20.961 0l.247-.002h.328l.132-.001h1.211c1.209.002 2.71.01 2.95.04Z" fill-opacity=".9" fill="url(#e)" fill-rule="nonzero" transform="translate(13.295 7.367)"/><path d="M99.134 45.03c2.948 0 5.348.335 7.918 1.46 2.61 1.143 4.995 2.92 7.025 5.203 2.054 2.311 3.735 5.132 4.906 8.318 1.18 3.207 1.835 6.766 1.835 10.516s-.656 7.31-1.835 10.517c-1.17 3.186-2.852 6.006-4.906 8.317-2.03 2.284-4.415 4.06-7.025 5.202-2.57 1.125-11.43 1.684-14.297 1.46h-.012a17.11 17.11 0 0 0 6.922-1.46c2.61-1.142 4.996-2.918 7.026-5.202 2.054-2.31 3.735-5.13 4.906-8.317 1.179-3.208 1.834-6.767 1.834-10.517 0-3.75-.655-7.31-1.834-10.516-1.171-3.186-2.852-6.007-4.906-8.318-2.03-2.284-4.416-4.06-7.026-5.203a17.106 17.106 0 0 0-6.923-1.46h6.392Z" fill="#FFF" fill-rule="nonzero"/><path d="M27.216.968c2.949 0 5.349.335 7.918 1.46 2.61 1.143 4.996 2.92 7.026 5.203 2.054 2.311 3.735 5.132 4.906 8.318 1.179 3.207 1.834 6.766 1.834 10.516s-.655 7.31-1.834 10.517c-1.171 3.186-2.852 6.007-4.906 8.317-2.03 2.284-4.416 4.06-7.026 5.203-2.57 1.124-11.429 1.683-14.297 1.459h-.012a17.11 17.11 0 0 0 6.923-1.46c2.61-1.142 4.996-2.918 7.026-5.202 2.054-2.31 3.734-5.13 4.905-8.317 1.18-3.207 1.835-6.767 1.835-10.517 0-3.75-.655-7.309-1.835-10.516-1.17-3.186-2.851-6.007-4.905-8.318-2.03-2.283-4.416-4.06-7.026-5.203a17.106 17.106 0 0 0-6.924-1.46h6.393Z" fill-opacity=".95" fill="url(#f)" fill-rule="nonzero" transform="translate(71.917 44.062)"/><path d="M91.352 44.115c2.879-.229 5.67.288 8.248 1.435 2.62 1.164 5.013 2.974 7.05 5.301 2.062 2.355 3.749 5.229 4.924 8.475 1.183 3.27 1.84 6.895 1.84 10.716 0 3.822-.657 7.449-1.84 10.718-1.175 3.246-2.862 6.12-4.923 8.475-2.038 2.327-4.432 4.137-7.051 5.3-2.579 1.147-5.37 1.663-8.248 1.435-2.828-.225-5.477-1.148-7.85-2.612-2.338-1.442-4.414-3.412-6.136-5.767-1.704-2.329-3.069-5.043-4.005-8.012a31.728 31.728 0 0 1-1.444-9.537c0-3.366.513-6.584 1.444-9.535.936-2.969 2.301-5.683 4.005-8.012 1.722-2.355 3.798-4.326 6.136-5.768 2.373-1.464 5.022-2.388 7.85-2.612" fill="#FFF"/><g transform="translate(71.917 44.062)"><mask id="i" fill="#fff"><use xlink:href="#g"/></mask><use fill="#FFF" xlink:href="#g"/><path d="M-12.42-21.491a6.3 6.3 0 0 1 1.076-.002c.338.03.653.09.94.18.29.09.553.208.785.357.233.148.436.325.605.53l3.558 4.318c.18.22.398.411.648.574.251.164.535.298.849.402.314.104.658.177 1.028.218a7 7 0 0 0 1.185.024l34.567-2.244c1.153-.07 2.47-.164 3.35.111.886.277 1.522.756 2.066 1.322.549.57.99 1.553 1.121 2.352.133.805.036 1.707-.326 2.673l-16.328 43.53c-.465 1.238-1.178 2.403-2.07 3.447a14.111 14.111 0 0 1-3.142 2.717 13.72 13.72 0 0 1-3.754 1.675c-1.298.352-2.618.484-3.89.355l-63.67-6.485c-.842-.086-1.522-.37-2.031-.81-.505-.435-.842-1.022-1.002-1.719-.16-.692-.144-1.49.053-2.356.195-.86.57-1.786 1.132-2.739l24.667-41.794a10.867 10.867 0 0 1 1.684-2.135 14.127 14.127 0 0 1 2.213-1.794 13.287 13.287 0 0 1 2.48-1.29c.844-.326 1.69-.539 2.49-.606l9.717-.811Z" fill="url(#b)" fill-rule="nonzero" filter="url(#h)" mask="url(#i)"/><path d="M39.148-15.52c1.531.945 2.288 1.754 2.833 2.32.548.57.906 1.271 1.038 2.07.133.805.036 1.707-.327 2.673L29.88 32.467c-.465 1.238-1.178 2.403-2.07 3.447a14.111 14.111 0 0 1-3.142 2.717 13.72 13.72 0 0 1-3.754 1.675c-1.297.351-2.618.484-3.89.354l-3.493-.355a13.721 13.721 0 0 0 3.751-1.674 14.111 14.111 0 0 0 3.142-2.717c.892-1.044 1.605-2.209 2.07-3.447l16.328-43.53c.362-.966.46-1.869.326-2.673a3.852 3.852 0 0 0-1.038-2.07 4.621 4.621 0 0 0-1.202-.888c.754.324 1.524.732 2.24 1.174Zm-43.316-6.36c.338.029.653.089.941.179.289.09.552.209.784.357.233.149.436.326.605.531l3.558 4.317c.18.22.398.412.648.575.203.132.428.245.673.339l-4.997.304a6.954 6.954 0 0 1-1.185-.024 5.032 5.032 0 0 1-1.029-.218 3.643 3.643 0 0 1-.848-.401 2.84 2.84 0 0 1-.648-.575l-3.558-4.317a2.55 2.55 0 0 0-.605-.53 2.928 2.928 0 0 0-.232-.134l4.818-.402a6.3 6.3 0 0 1 1.075-.002Z" fill-opacity=".9" fill="url(#c)" fill-rule="nonzero" filter="url(#j)" mask="url(#i)"/><path d="M-42.77-36.64a4.791 4.791 0 0 1 2.281.28 5.17 5.17 0 0 1 1.054.55c.338.228.658.5.958.813l6.228 6.507c.313.326.648.611 1.003.854.355.242.729.442 1.117.596a5.425 5.425 0 0 0 2.475.366l35.981-3.013a7.52 7.52 0 0 1 3.4.494 7.985 7.985 0 0 1 2.823 1.909 9.227 9.227 0 0 1 1.929 3.043 10.6 10.6 0 0 1 .712 3.865v55.282c0 1.388-.254 2.685-.712 3.84a8.788 8.788 0 0 1-1.929 2.973 7.603 7.603 0 0 1-2.823 1.806 7.417 7.417 0 0 1-3.4.37l-61.095-7.327c-.822-.098-1.6-.419-2.305-.912-.702-.491-1.332-1.154-1.858-1.942a9.873 9.873 0 0 1-1.24-2.683 11.186 11.186 0 0 1-.45-3.159v-54.618c0-1.104.16-2.171.45-3.158a9.873 9.873 0 0 1 1.24-2.684c.526-.788 1.156-1.45 1.858-1.942.705-.493 1.483-.813 2.305-.912l9.997-1.199Z" fill="url(#d)" fill-rule="nonzero" filter="url(#k)" mask="url(#i)"/><path d="M15.619-29.922c2.434 0 3.872.298 4.924.712a7.985 7.985 0 0 1 2.823 1.908 9.227 9.227 0 0 1 1.93 3.043 10.6 10.6 0 0 1 .711 3.866v55.281c0 1.389-.254 2.685-.712 3.84a8.788 8.788 0 0 1-1.929 2.974 7.603 7.603 0 0 1-2.823 1.806c-.168.06-.323.118-.475.174l-.226.082c-.717.252-1.479.433-3.397.433-2.524 0-4.925.048-7.515-.263l-.087-.008a7.358 7.358 0 0 0 2.836-.418 7.603 7.603 0 0 0 2.824-1.806 8.788 8.788 0 0 0 1.929-2.974c.458-1.155.712-2.451.712-3.84v-55.281a10.6 10.6 0 0 0-.712-3.866 9.227 9.227 0 0 0-1.93-3.043 7.985 7.985 0 0 0-2.823-1.908 7.52 7.52 0 0 0-3.399-.494l-2.762.231c1.056-.1 2.049-.188 2.979-.266 2.61-.218 4.687-.183 7.122-.183Zm-48.413-6.735a4.81 4.81 0 0 1 1.122.28c.364.138.717.322 1.054.55.337.228.658.499.957.812l6.229 6.507c.312.326.648.612 1.002.854.255.175.52.327.794.456l-6.065.507a5.425 5.425 0 0 1-2.475-.366 5.726 5.726 0 0 1-1.118-.597 6.352 6.352 0 0 1-1.002-.854l-6.229-6.507a5.87 5.87 0 0 0-.957-.812 5.163 5.163 0 0 0-1.054-.55 4.81 4.81 0 0 0-1.215-.29l4.09-.027.247-.002h.06l.268-.001h1.343c1.21.002 2.71.01 2.95.04Z" fill-opacity=".9" fill="url(#e)" fill-rule="nonzero" filter="url(#l)" mask="url(#i)"/></g><g transform="translate(71.917 44.062)"><use fill="#000" filter="url(#m)" xlink:href="#n"/><use fill-opacity=".45" fill="#FFF" xlink:href="#n"/><use fill="#000" filter="url(#o)" xlink:href="#n"/></g><path d="M85.903 70.453c-.113.144-.236.27-.364.378a2.19 2.19 0 0 1-.403.27 1.87 1.87 0 0 1-.868.22l2.626-.018a1.967 1.967 0 0 0 .863-.216 2.23 2.23 0 0 0 .4-.267c.127-.107.249-.23.361-.373l2.837-3.57-2.597-.047-2.855 3.623Zm7.717-3.67 2.562.048v13.701c0 .392-.06.764-.17 1.103-.111.339-.27.645-.47.905-.197.26-.434.473-.698.628-.263.155-.554.25-.861.274l-2.578.2c.308-.024.602-.12.867-.277.266-.157.504-.374.704-.637.2-.264.36-.574.471-.919.111-.344.173-.721.173-1.119V66.782Zm-2.156-10.334 1.567.121.95.074h-.002.01-.005l.016.002.021.002.022.002a.778.778 0 0 1 .084.013l.043.008.086.017a2.402 2.402 0 0 1 .18.048 2.12 2.12 0 0 1 .122.044l.054.023a2.23 2.23 0 0 1 .109.05c.018.009.035.017.051.027l.073.042.023.015.058.033.05.033.043.032.041.033a2.051 2.051 0 0 1 .11.085l.04.036.038.033.069.068a2.671 2.671 0 0 1 .148.159l7.252 8.67c.249.297.435.642.56 1.012.125.369.187.763.187 1.157s-.062.788-.187 1.16a3.18 3.18 0 0 1-.56 1.017 2.714 2.714 0 0 1-.394.387c-.14.111-.285.204-.436.278a2.19 2.19 0 0 1-.936.227l-2.527.02a2.112 2.112 0 0 0 .944-.23 2.548 2.548 0 0 0 .836-.676c.25-.304.439-.656.564-1.033.126-.377.189-.777.189-1.177s-.063-.8-.189-1.175a3.196 3.196 0 0 0-.564-1.027l-7.307-8.8a2.683 2.683 0 0 0-.092-.103l-.057-.058-.07-.069-.037-.034a1.674 1.674 0 0 0-.042-.036l-.05-.04a.92.92 0 0 0-.06-.046l-.04-.034a1.56 1.56 0 0 0-.2-.129 1.55 1.55 0 0 0-.05-.028l-.051-.027-.056-.028-.053-.022a2.077 2.077 0 0 0-.055-.023l-.029-.012-.03-.011a1.845 1.845 0 0 0-.246-.071l-.086-.017-.043-.008a1.44 1.44 0 0 0-.042-.007l-.022-.004-.022-.003Z" fill="#00B0D3"/><g transform="translate(71.917 44.062)"><use fill="#000" filter="url(#p)" xlink:href="#q"/><use fill="url(#r)" xlink:href="#q"/><use fill="#000" filter="url(#s)" xlink:href="#q"/></g><path d="M28.562 28.286a2.67 2.67 0 0 1 1.296.277c.143.07.285.152.425.25l11.972 8.293a4.173 4.173 0 0 1 1.406 1.716 5.38 5.38 0 0 1 .471 2.228c0 .772-.157 1.542-.471 2.229a4.174 4.174 0 0 1-1.406 1.716l-11.972 8.29c-.14.097-.282.18-.425.25a2.661 2.661 0 0 1-1.298.279 2.871 2.871 0 0 1-1.29-.375 3.703 3.703 0 0 1-1.085-.942 4.648 4.648 0 0 1-.75-1.398 5.471 5.471 0 0 1-.279-1.75V32.752c0-.63.101-1.22.28-1.75.18-.53.437-1.002.75-1.398a3.711 3.711 0 0 1 1.086-.942 2.873 2.873 0 0 1 1.29-.375" fill="url(#t)" transform="translate(13.295 7.367)"/><path d="M59.464 46.223a4.12 4.12 0 0 0-1.395-1.69l-11.886-8.176a3.133 3.133 0 0 0-.706-.364 2.768 2.768 0 0 0-.715-.151l-2.614-.185a2.609 2.609 0 0 1 .72.153 2.944 2.944 0 0 1 .71.369l11.972 8.294a4.17 4.17 0 0 1 1.407 1.716c.314.686.47 1.457.47 2.228a5.38 5.38 0 0 1-.47 2.228 4.173 4.173 0 0 1-1.407 1.717l-11.971 8.29a3.01 3.01 0 0 1-.71.37 2.764 2.764 0 0 1-.723.154l2.614-.185a2.647 2.647 0 0 0 .717-.152 2.954 2.954 0 0 0 .705-.364l11.887-8.173a4.118 4.118 0 0 0 1.395-1.69 5.268 5.268 0 0 0 .468-2.195c0-.76-.156-1.519-.468-2.194" fill="#00B0D3"/></g></svg>