<svg xmlns="http://www.w3.org/2000/svg" xmlns:xlink="http://www.w3.org/1999/xlink" width="24" height="24" viewBox="0 0 24 24" fill="none"><g opacity="0.9"><path d="M12 0C18.6274 0 24 5.37258 24 12C24 15.2515 22.7046 18.2036 20.6051 20.3636C18.4261 22.6051 15.3749 24 12 24C8.62507 24 5.57386 22.6051 3.39492 20.3636C1.29539 18.2036 0 15.2515 0 12C0 5.37258 5.37258 0 12 0ZM12 16.8C9.60264 16.8 7.44149 17.805 5.90976 19.4179C7.56771 20.781 9.68688 21.6 12 21.6C14.3129 21.6 16.4312 20.7808 18.089 19.4179C16.5574 17.8052 14.397 16.8 12 16.8ZM12 2.4C6.69807 2.4 2.4 6.69806 2.4 12C2.4 14.1241 3.08954 16.0853 4.25742 17.6754C6.21864 15.658 8.96157 14.4 12 14.4C15.0382 14.4 17.7803 15.6582 19.7414 17.6754C20.9095 16.0852 21.6 14.1244 21.6 12C21.6 6.69806 17.302 2.4 12 2.4ZM11.4352 3.98321C11.647 3.47195 12.3532 3.47195 12.5648 3.98321L12.8683 4.71679C13.3867 5.96812 14.3538 6.96746 15.5695 7.50821L16.4309 7.89024C16.9235 8.10955 16.9234 8.82752 16.4309 9.04687L15.5191 9.45234C14.3338 9.97956 13.3841 10.9432 12.8567 12.1535L12.5602 12.8321C12.3437 13.3289 11.6564 13.3289 11.4398 12.8321L11.1445 12.1535C10.6171 10.9432 9.66624 9.97956 8.48086 9.45234L7.56915 9.04687C7.07663 8.82753 7.07661 8.10954 7.56915 7.89024L8.43047 7.50821C9.6462 6.96748 10.6134 5.96814 11.1317 4.71679L11.4352 3.98321Z"   fill="#FFFFFF" ></path></g></svg>