<svg xmlns="http://www.w3.org/2000/svg" xmlns:xlink="http://www.w3.org/1999/xlink" width="14" height="14" viewBox="0 0 14 14" fill="none"><g opacity="0.5"><path d="M9.62484 12.25L4.37484 12.25C3.55817 12.25 2.9165 11.48 2.9165 10.5L2.9165 5.25L4.08317 5.25L4.08317 10.5C4.08317 10.8617 4.26984 11.0833 4.37484 11.0833L9.62484 11.0833C9.72984 11.0833 9.9165 10.8617 9.9165 10.5L9.9165 5.25L11.0832 5.25L11.0832 10.5C11.0832 11.48 10.4415 12.25 9.62484 12.25Z"  style="mix-blend-mode:normal" fill="#000000" ></path></g><g opacity="0.5"><path d="M5.25 5.25L6.41667 5.25L6.41667 9.91667L5.25 9.91667L5.25 5.25Z"  style="mix-blend-mode:normal" fill="#000000" ></path></g><g opacity="0.5"><path d="M7.5835 5.25L8.75016 5.25L8.75016 9.91667L7.5835 9.91667L7.5835 5.25Z"  style="mix-blend-mode:normal" fill="#000000" ></path></g><path d="M8.16683 2.91667L8.16683 1.75L5.8335 1.75L5.8335 2.91667L2.3335 2.91667L2.3335 4.08333L11.6668 4.08333L11.6668 2.91667L8.16683 2.91667Z"  style="mix-blend-mode:normal" fill="#000000" ></path></svg>