<svg xmlns="http://www.w3.org/2000/svg" xmlns:xlink="http://www.w3.org/1999/xlink" width="20" height="20" viewBox="0 0 20 20" fill="none"><g opacity="0.9"><path d="M17.0122 6.4801L16.788 6.99435C16.624 7.37084 16.1033 7.37084 15.9392 6.99435L15.7151 6.4801C15.3155 5.56315 14.5959 4.8331 13.6979 4.43371L13.0073 4.12656C12.6339 3.96048 12.6339 3.4171 13.0073 3.25102L13.6593 2.96104C14.5804 2.55137 15.3129 1.7943 15.7055 0.84621L15.9357 0.290483C16.0962 -0.0968273 16.6311 -0.0968273 16.7915 0.290483L17.0216 0.84621C17.4144 1.7943 18.1469 2.55137 19.068 2.96104L19.7199 3.25102C20.0934 3.4171 20.0934 3.96048 19.7199 4.12656L19.0294 4.43371C18.1314 4.8331 17.4117 5.56315 17.0122 6.4801ZM9.09091 0.909091C4.07014 0.909091 0 4.97923 0 10C0 15.0207 4.07014 19.0909 9.09091 19.0909L16.3636 19.0909L16.3636 17.2727L14.5464 17.2727C15.2347 16.7555 15.8472 16.1429 16.3643 15.4545C17.5055 13.9352 18.1818 12.0465 18.1818 10C18.1818 9.63409 18.1602 9.27291 18.118 8.91764L16.3125 9.132C16.3463 9.41627 16.3636 9.70591 16.3636 10C16.3636 12.1722 15.4114 14.1219 13.9015 15.4545C12.6195 16.5861 10.9354 17.2727 9.09091 17.2727C5.07429 17.2727 1.81818 14.0166 1.81818 10C1.81818 5.98338 5.07429 2.72727 9.09091 2.72727C9.71991 2.72727 10.3289 2.80691 10.9091 2.95617L11.3621 1.19534C10.6352 1.00831 9.874 0.909091 9.09091 0.909091ZM7.27273 6.36364C7.27273 7.36779 8.08673 8.18182 9.09091 8.18182C10.0951 8.18182 10.9091 7.36779 10.9091 6.36364C10.9091 5.35948 10.0951 4.54545 9.09091 4.54545C8.08673 4.54545 7.27273 5.35948 7.27273 6.36364ZM3.63636 10C3.63636 11.0042 4.45039 11.8182 5.45455 11.8182C6.4587 11.8182 7.27273 11.0042 7.27273 10C7.27273 8.99582 6.4587 8.18182 5.45455 8.18182C4.45039 8.18182 3.63636 8.99582 3.63636 10ZM10.9091 10C10.9091 11.0042 11.7231 11.8182 12.7273 11.8182C13.7315 11.8182 14.5455 11.0042 14.5455 10C14.5455 8.99582 13.7315 8.18182 12.7273 8.18182C11.7231 8.18182 10.9091 8.99582 10.9091 10ZM7.27273 13.6364C7.27273 14.6405 8.08673 15.4545 9.09091 15.4545C10.0951 15.4545 10.9091 14.6405 10.9091 13.6364C10.9091 12.6322 10.0951 11.8182 9.09091 11.8182C8.08673 11.8182 7.27273 12.6322 7.27273 13.6364Z"   fill="#FFFFFF" ></path></g></svg>