<svg xmlns="http://www.w3.org/2000/svg" xmlns:xlink="http://www.w3.org/1999/xlink" width="20" height="20" viewBox="0 0 20 20" fill="none"><g opacity="0.9"><path d="M16.788 6.99435L17.0122 6.4801C17.4117 5.56315 18.1314 4.8331 19.0294 4.43371L19.7199 4.12656C20.0934 3.96048 20.0934 3.4171 19.7199 3.25102L19.068 2.96104C18.1469 2.55137 17.4144 1.7943 17.0216 0.84621L16.7915 0.290483C16.6311 -0.0968273 16.0962 -0.0968273 15.9357 0.290483L15.7055 0.84621C15.3129 1.7943 14.5804 2.55137 13.6593 2.96104L13.0073 3.25102C12.6339 3.4171 12.6339 3.96048 13.0073 4.12656L13.6979 4.43371C14.5959 4.8331 15.3155 5.56315 15.7151 6.4801L15.9392 6.99435C16.1033 7.37084 16.624 7.37084 16.788 6.99435ZM0.901636 1.81818L10.9091 1.81818L10.9091 3.63636L5.45455 3.63636L5.45455 16.3636L12.7273 16.3636L12.7273 7.27273L14.5455 7.27273L14.5455 9.09091L16.3636 9.09091L18.1818 9.09091L18.1818 17.2787C18.1818 17.7775 17.7679 18.1818 17.2802 18.1818L0.901636 18.1818C0.403682 18.1818 0 17.7774 0 17.2787L0 2.72127C0 2.22251 0.413918 1.81818 0.901636 1.81818ZM1.81818 3.63636L1.81818 5.45455L3.63636 5.45455L3.63636 3.63636L1.81818 3.63636ZM1.81818 7.27273L1.81818 9.09091L3.63636 9.09091L3.63636 7.27273L1.81818 7.27273ZM1.81818 10.9091L1.81818 12.7273L3.63636 12.7273L3.63636 10.9091L1.81818 10.9091ZM14.5455 10.9091L14.5455 12.7273L16.3636 12.7273L16.3636 10.9091L14.5455 10.9091ZM1.81818 14.5455L1.81818 16.3636L3.63636 16.3636L3.63636 14.5455L1.81818 14.5455ZM14.5455 14.5455L14.5455 16.3636L16.3636 16.3636L16.3636 14.5455L14.5455 14.5455Z"   fill="#FFFFFF" ></path></g></svg>