<svg xmlns="http://www.w3.org/2000/svg" width="14" height="14" viewBox="0 0 14 14" fill="none">
  <path opacity="0.5" d="M12.25 10.2142V11.0833C12.25 11.725 11.725 12.25 11.0833 12.25H2.91667C2.275 12.25 1.75 11.725 1.75 11.0833V10.8092L2.91667 10.0333L4.7075 8.83749L5.85667 9.41499L8.72083 7.69415L11.0833 9.37999L12.25 10.2142Z" fill="white"/>
  <path d="M11.0833 1.75H2.91667C2.275 1.75 1.75 2.275 1.75 2.91667V9.415L4.62583 7.49583L5.81 8.085L8.77917 6.30583L12.25 8.785V2.91667C12.25 2.275 11.725 1.75 11.0833 1.75ZM5.25 6.41667C4.60833 6.41667 4.08333 5.89167 4.08333 5.25C4.08333 4.60833 4.60833 4.08333 5.25 4.08333C5.89167 4.08333 6.41667 4.60833 6.41667 5.25C6.41667 5.89167 5.89167 6.41667 5.25 6.41667Z" fill="white"/>
</svg>