<svg xmlns="http://www.w3.org/2000/svg" xmlns:xlink="http://www.w3.org/1999/xlink" width="12" height="12" viewBox="0 0 12 12" fill="none"><path d="M7.88571 6.3C8.82857 5.7 9.42857 4.62857 9.42857 3.42857C9.42857 1.54286 7.88571 0 6 0C4.11429 0 2.57143 1.54286 2.57143 3.42857C2.57143 4.62857 3.17143 5.7 4.11429 6.3C1.71429 7.07143 0 9.34286 0 12L0.857143 12C0.857143 9.17143 3.17143 6.85714 6 6.85714C8.82857 6.85714 11.1429 9.17143 11.1429 12L12 12C12 9.34286 10.2857 7.07143 7.88571 6.3ZM6 6C4.58571 6 3.42857 4.84286 3.42857 3.42857C3.42857 2.01429 4.58571 0.857143 6 0.857143C7.41429 0.857143 8.57143 2.01429 8.57143 3.42857C8.57143 4.84286 7.41429 6 6 6Z"   fill="#333333" ></path></svg>