<svg xmlns="http://www.w3.org/2000/svg" xmlns:xlink="http://www.w3.org/1999/xlink" width="20" height="20" viewBox="0 0 20 20" fill="none"><path d="M4.09861 8.19836L3.88419 8.69025C3.72728 9.05035 3.22919 9.05035 3.07228 8.69025L2.85788 8.19836C2.4757 7.32128 1.78735 6.62297 0.928409 6.24094L0.267867 5.94715C-0.0892887 5.78829 -0.0892887 5.26853 0.267867 5.10967L0.891478 4.8323C1.7725 4.44044 2.47319 3.71629 2.8488 2.80942L3.06897 2.27785C3.22242 1.90738 3.73406 1.90738 3.8875 2.27785L4.10767 2.80942C4.48328 3.71629 5.18398 4.44044 6.06504 4.8323L6.68859 5.10967C7.04584 5.26853 7.04584 5.78829 6.68859 5.94715L6.02807 6.24094C5.16914 6.62297 4.48077 7.32128 4.09861 8.19836ZM0.869565 16.7826L0.869565 10.6957L2.6087 10.6957L2.6087 15.913L13.0435 15.913L13.0435 5.47826L8.69565 5.47826L8.69565 3.73913L13.913 3.73913C14.3933 3.73913 14.7826 4.12845 14.7826 4.6087L14.7826 8.26087L19.3159 5.08757C19.5126 4.94987 19.7837 4.99771 19.9214 5.19444C19.9725 5.26751 20 5.35456 20 5.44377L20 15.9476C20 16.1877 19.8053 16.3823 19.5652 16.3823C19.476 16.3823 19.389 16.3549 19.3159 16.3037L14.7826 13.1304L14.7826 16.7826C14.7826 17.2629 14.3933 17.6522 13.913 17.6522L1.73913 17.6522C1.25889 17.6522 0.869565 17.2629 0.869565 16.7826ZM14.7826 11.0076L18.2609 13.4423L18.2609 7.94897L14.7826 10.3837L14.7826 11.0076Z"   fill="#FFFFFF" ></path></svg>