<svg xmlns="http://www.w3.org/2000/svg" xmlns:xlink="http://www.w3.org/1999/xlink" width="25.000244140625" height="25" viewBox="0 0 25.000244140625 25" fill="none"><path d="M16.9242 7.65679C17.2111 7.65679 17.4948 7.67949 17.7763 7.71339C17.0107 3.86189 13.1992 1.00037 8.84837 1.00037C3.9844 1.00037 0 4.58207 0 9.13014C0 11.7554 1.32556 13.9112 3.54071 15.5833L2.65572 18.4588L5.74896 16.7831C6.85577 17.0198 7.74381 17.2631 8.84834 17.2631C9.126 17.2631 9.40141 17.2483 9.67444 17.2251C9.50157 16.586 9.40138 15.9166 9.40138 15.2222C9.40141 11.046 12.7211 7.65679 16.9242 7.65679ZM12.1666 5.06501C12.8328 5.06501 13.2741 5.53851 13.2741 6.25784C13.2741 6.97423 12.8328 7.45433 12.1666 7.45433C11.5033 7.45433 10.8379 6.97429 10.8379 6.25784C10.8379 5.53854 11.5033 5.06501 12.1665 5.06501L12.1666 5.06501ZM5.97386 7.45436C5.31069 7.45436 4.64141 6.97433 4.64141 6.25787C4.64141 5.53854 5.31066 5.06504 5.97386 5.06504C6.63703 5.06504 7.07837 5.53854 7.07837 6.25787C7.07837 6.97429 6.63701 7.45436 5.97386 7.45436Z"   fill="#FFFFFF" ></path><path d="M25.0002 15.1071C25.0002 11.2854 21.4603 8.17017 17.4843 8.17017C13.2743 8.17017 9.9585 11.2854 9.9585 15.1071C9.9585 18.9355 13.2743 22.0441 17.4843 22.0441C18.3655 22.0441 19.2543 21.804 20.1393 21.5644L22.5663 23.0001L21.9008 20.6113C23.6769 19.1718 25.0002 17.263 25.0002 15.1071ZM15.0443 13.911C14.6037 13.911 14.1593 13.4375 14.1593 12.9545C14.1593 12.4782 14.6037 11.9985 15.0443 11.9985C15.7136 11.9985 16.1519 12.4782 16.1519 12.9545C16.1519 13.4375 15.7136 13.911 15.0443 13.911ZM19.9114 13.911C19.4738 13.911 19.0325 13.4375 19.0325 12.9545C19.0325 12.4782 19.4739 11.9985 19.9114 11.9985C20.5745 11.9985 21.0189 12.4782 21.0189 12.9545C21.0189 13.4375 20.5745 13.911 19.9114 13.911Z"   fill="#FFFFFF" ></path></svg>