<svg xmlns="http://www.w3.org/2000/svg" width="50" height="50" viewBox="0 0 50 50" fill="none">
  <path d="M1 13C1 6.37258 6.37258 1 13 1H37C43.6274 1 49 6.37258 49 13V37C49 43.6274 43.6274 49 37 49H13C6.37258 49 1 43.6274 1 37V13Z" stroke="white" stroke-opacity="0.1"/>
  <path d="M29 17.6H32.2C32.4122 17.6 32.6157 17.6843 32.7657 17.8343C32.9157 17.9843 33 18.1878 33 18.4V31.2C33 31.4122 32.9157 31.6157 32.7657 31.7657C32.6157 31.9157 32.4122 32 32.2 32H17.8C17.6949 32 17.5909 31.9793 17.4939 31.9391C17.3968 31.8989 17.3086 31.84 17.2343 31.7657C17.0843 31.6157 17 31.4122 17 31.2V18.4C17 18.1878 17.0843 17.9843 17.2343 17.8343C17.3843 17.6843 17.5878 17.6 17.8 17.6H21V16H22.6V17.6H27.4V16H29V17.6ZM31.4 24H18.6V30.4H31.4V24ZM27.4 19.2H22.6V20.8H21V19.2H18.6V22.4H31.4V19.2H29V20.8H27.4V19.2ZM20.2 25.6H21.8V27.2H20.2V25.6ZM24.2 25.6H25.8V27.2H24.2V25.6ZM28.2 25.6H29.8V27.2H28.2V25.6Z" fill="white"/>
</svg>