<svg xmlns="http://www.w3.org/2000/svg" width="50" height="50" viewBox="0 0 50 50" fill="none">
  <path d="M1 13C1 6.37258 6.37258 1 13 1H37C43.6274 1 49 6.37258 49 13V37C49 43.6274 43.6274 49 37 49H13C6.37258 49 1 43.6274 1 37V13Z" stroke="white" stroke-opacity="0.1"/>
  <path opacity="0.5" d="M23.3826 17.619C23.3825 17.8316 23.4244 18.0421 23.5057 18.2386C23.5871 18.435 23.7063 18.6135 23.8567 18.7638C24.007 18.9141 24.1854 19.0334 24.3819 19.1148C24.5783 19.1961 24.7888 19.238 25.0014 19.238C25.214 19.238 25.4245 19.1961 25.6209 19.1148C25.8174 19.0334 25.9958 18.9141 26.1462 18.7638C26.2965 18.6135 26.4157 18.435 26.4971 18.2386C26.5784 18.0421 26.6203 17.8316 26.6202 17.619C26.6203 17.4064 26.5784 17.1959 26.4971 16.9995C26.4157 16.803 26.2965 16.6245 26.1462 16.4742C25.9958 16.3239 25.8174 16.2046 25.6209 16.1232C25.4245 16.0419 25.214 16 25.0014 16C24.7888 16 24.5783 16.0419 24.3819 16.1232C24.1854 16.2046 24.007 16.3239 23.8567 16.4742C23.7063 16.6245 23.5871 16.803 23.5057 16.9995C23.4244 17.1959 23.3825 17.4064 23.3826 17.619Z" fill="white"/>
  <path opacity="0.5" d="M29.7623 21.3027C29.7623 21.5153 29.8042 21.7258 29.8855 21.9222C29.9668 22.1186 30.0861 22.2971 30.2364 22.4475C30.3867 22.5978 30.5652 22.7171 30.7616 22.7984C30.958 22.8798 31.1686 22.9217 31.3812 22.9217C31.5938 22.9217 31.8043 22.8798 32.0007 22.7984C32.1971 22.7171 32.3756 22.5978 32.5259 22.4475C32.6762 22.2971 32.7955 22.1186 32.8768 21.9222C32.9582 21.7258 33 21.5153 33 21.3027C33 21.0901 32.9582 20.8795 32.8768 20.6831C32.7955 20.4867 32.6762 20.3082 32.5259 20.1579C32.3756 20.0075 32.1971 19.8883 32.0007 19.8069C31.8043 19.7255 31.5938 19.6837 31.3812 19.6837C31.1686 19.6837 30.958 19.7255 30.7616 19.8069C30.5652 19.8883 30.3867 20.0075 30.2364 20.1579C30.0861 20.3082 29.9668 20.4867 29.8855 20.6831C29.8042 20.8795 29.7623 21.0901 29.7623 21.3027Z" fill="white"/>
  <path opacity="0.5" d="M17 21.2533C17 21.4659 17.0418 21.6764 17.1232 21.8728C17.2045 22.0693 17.3238 22.2477 17.4741 22.3981C17.6244 22.5484 17.8029 22.6677 17.9993 22.749C18.1957 22.8304 18.4062 22.8723 18.6188 22.8723C18.8314 22.8723 19.042 22.8304 19.2384 22.749C19.4348 22.6677 19.6133 22.5484 19.7636 22.3981C19.9139 22.2477 20.0331 22.0693 20.1145 21.8728C20.1958 21.6764 20.2377 21.4659 20.2377 21.2533C20.2377 21.0407 20.1958 20.8302 20.1145 20.6337C20.0331 20.4373 19.9139 20.2588 19.7636 20.1085C19.6133 19.9581 19.4348 19.8389 19.2384 19.7575C19.042 19.6762 18.8314 19.6343 18.6188 19.6343C18.4062 19.6343 18.1957 19.6762 17.9993 19.7575C17.8029 19.8389 17.6244 19.9581 17.4741 20.1085C17.3238 20.2588 17.2045 20.4373 17.1232 20.6337C17.0418 20.8302 17 21.0407 17 21.2533Z" fill="white"/>
  <path opacity="0.5" d="M17 28.5204C17 28.733 17.0418 28.9435 17.1232 29.1399C17.2045 29.3364 17.3238 29.5148 17.4741 29.6652C17.6244 29.8155 17.8029 29.9348 17.9993 30.0161C18.1957 30.0975 18.4062 30.1394 18.6188 30.1394C18.8314 30.1394 19.042 30.0975 19.2384 30.0161C19.4348 29.9348 19.6133 29.8155 19.7636 29.6652C19.9139 29.5148 20.0331 29.3364 20.1145 29.1399C20.1958 28.9435 20.2377 28.733 20.2377 28.5204C20.2377 28.3078 20.1958 28.0972 20.1145 27.9008C20.0331 27.7044 19.9139 27.5259 19.7636 27.3756C19.6133 27.2252 19.4348 27.106 19.2384 27.0246C19.042 26.9432 18.8314 26.9014 18.6188 26.9014C18.4062 26.9014 18.1957 26.9432 17.9993 27.0246C17.8029 27.106 17.6244 27.2252 17.4741 27.3756C17.3238 27.5259 17.2045 27.7044 17.1232 27.9008C17.0418 28.0972 17 28.3078 17 28.5204Z" fill="white"/>
  <path opacity="0.5" d="M23.4817 32.3291C23.4817 32.5417 23.5235 32.7522 23.6049 32.9487C23.6862 33.1451 23.8054 33.3236 23.9558 33.4739C24.1061 33.6243 24.2846 33.7435 24.481 33.8249C24.6774 33.9063 24.8879 33.9481 25.1005 33.9481C25.3131 33.9481 25.5236 33.9063 25.7201 33.8249C25.9165 33.7435 26.0949 33.6243 26.2453 33.4739C26.3956 33.3236 26.5148 33.1451 26.5962 32.9487C26.6775 32.7522 26.7194 32.5417 26.7194 32.3291C26.7194 32.1165 26.6775 31.906 26.5962 31.7096C26.5148 31.5131 26.3956 31.3347 26.2453 31.1843C26.0949 31.034 25.9165 30.9147 25.7201 30.8334C25.5236 30.752 25.3131 30.7101 25.1005 30.7101C24.8879 30.7101 24.6774 30.752 24.481 30.8334C24.2846 30.9147 24.1061 31.034 23.9558 31.1843C23.8054 31.3347 23.6862 31.5131 23.6049 31.7096C23.5235 31.906 23.4817 32.1165 23.4817 32.3291Z" fill="white"/>
  <path opacity="0.5" d="M29.7623 28.8203C29.7623 29.0329 29.8042 29.2434 29.8855 29.4399C29.9668 29.6363 30.0861 29.8148 30.2364 29.9651C30.3867 30.1154 30.5652 30.2347 30.7616 30.3161C30.958 30.3974 31.1686 30.4393 31.3812 30.4393C31.5938 30.4393 31.8043 30.3974 32.0007 30.3161C32.1971 30.2347 32.3756 30.1154 32.5259 29.9651C32.6762 29.8148 32.7955 29.6363 32.8768 29.4399C32.9582 29.2434 33 29.0329 33 28.8203C33 28.6077 32.9582 28.3972 32.8768 28.2007C32.7955 28.0043 32.6762 27.8258 32.5259 27.6755C32.3756 27.5252 32.1971 27.4059 32.0007 27.3245C31.8043 27.2432 31.5938 27.2013 31.3812 27.2013C31.1686 27.2013 30.958 27.2432 30.7616 27.3245C30.5652 27.4059 30.3867 27.5252 30.2364 27.6755C30.0861 27.8258 29.9668 28.0043 29.8855 28.2007C29.8042 28.3972 29.7623 28.6077 29.7623 28.8203Z" fill="white"/>
  <path d="M22.2035 24.9019C22.2035 25.2651 22.275 25.6247 22.4139 25.9602C22.5529 26.2957 22.7565 26.6006 23.0133 26.8574C23.2701 27.1142 23.575 27.3179 23.9105 27.4569C24.246 27.5959 24.6056 27.6674 24.9687 27.6674C25.3319 27.6674 25.6915 27.5959 26.027 27.4569C26.3625 27.3179 26.6673 27.1142 26.9241 26.8574C27.1809 26.6006 27.3846 26.2957 27.5235 25.9602C27.6625 25.6247 27.734 25.2651 27.734 24.9019C27.734 24.5388 27.6625 24.1792 27.5235 23.8437C27.3846 23.5081 27.1809 23.2033 26.9241 22.9465C26.6673 22.6897 26.3625 22.486 26.027 22.347C25.6915 22.208 25.3319 22.1365 24.9687 22.1365C24.6056 22.1365 24.246 22.208 23.9105 22.347C23.575 22.486 23.2701 22.6897 23.0133 22.9465C22.7565 23.2033 22.5529 23.5081 22.4139 23.8437C22.275 24.1792 22.2035 24.5388 22.2035 24.9019Z" fill="white"/>
</svg>