<svg xmlns="http://www.w3.org/2000/svg" width="50" height="50" viewBox="0 0 50 50" fill="none">
  <path d="M1 13C1 6.37258 6.37258 1 13 1H37C43.6274 1 49 6.37258 49 13V37C49 43.6274 43.6274 49 37 49H13C6.37258 49 1 43.6274 1 37V13Z" stroke="white" stroke-opacity="0.1"/>
  <path d="M18.6364 22.7273C18.3473 23.4927 18.1818 24.3477 18.1818 25.2027C18.1818 25.9227 18.3059 26.6427 18.5123 27.2727C18.8841 26.5977 19.3805 25.8327 20 25.0227C19.9173 24.8427 19.8345 24.6177 19.8345 24.3927C19.8345 24.2127 19.8759 24.0777 19.9173 23.9427C19.3386 23.4927 18.9255 23.0877 18.6364 22.7273ZM21.2855 30.9091C21.5141 30.7259 21.6973 30.5427 21.9259 30.405C23.8005 28.9841 25.4923 28.1595 26.8182 27.7005C26.8182 27.6091 26.7727 27.5173 26.7727 27.4259V27.2882C26.315 27.1509 25.8123 27.0132 25.355 26.83C24.1664 26.4173 23.1605 25.9132 22.2914 25.4545C22.0611 25.6856 21.7494 25.8173 21.4232 25.8214C21.24 25.8214 21.1027 25.7759 20.9655 25.73C20.0968 26.7382 19.5023 27.7009 19.0909 28.4345C19.6395 29.4427 20.3714 30.2677 21.2855 30.9091ZM25.3459 25.8991C25.8505 26.085 26.355 26.2245 26.8595 26.3636C26.9973 26.2245 27.135 26.1318 27.2727 26.085C27.1302 25.5599 26.9461 25.0469 26.7223 24.5509C26.4176 23.8459 26.0651 23.1625 25.6673 22.5055C25.5295 22.5518 25.4377 22.5518 25.3005 22.5518C25.0161 22.5513 24.7406 22.4528 24.5205 22.2727C24.0159 22.5982 23.5114 22.9236 22.9609 23.3423L22.2727 23.9C22.3182 24.0395 22.3645 24.2255 22.3645 24.365V24.5509C23.19 24.9691 24.1995 25.4805 25.3464 25.8991H25.3459ZM31.8182 25.2018C31.8182 23.3382 30.9932 21.6082 29.6182 20.4545C28.9305 20.5877 27.8764 20.8541 26.5927 21.3864V21.5195C26.5927 21.7855 26.5014 22.0073 26.3636 22.2291C26.7764 22.8505 27.1427 23.56 27.5095 24.3586C27.7386 24.9355 27.9677 25.5123 28.1514 26.0445C28.5177 26.1332 28.8386 26.3991 29.0223 26.7545C29.2973 26.7986 29.5723 26.7986 29.8473 26.7986C30.5345 26.8432 31.1764 26.7986 31.6805 26.7986C31.7264 26.2218 31.8182 25.7341 31.8182 25.2018ZM25.175 20.5141C25.3145 20.4645 25.4077 20.4645 25.5477 20.4645C25.9205 20.4645 26.2473 20.6127 26.48 20.9091C27.3197 20.5039 28.1933 20.1734 29.0909 19.9214C27.9718 19.1305 26.62 18.6364 25.175 18.6364C24.6618 18.6364 24.1023 18.6864 23.6364 18.8341C24.0559 19.2791 24.6155 19.8223 25.175 20.5141ZM28.1659 31.105C28.2114 30.4409 28.1659 29.555 27.9377 28.4477H27.8464C27.5264 28.4477 27.2527 28.3591 27.07 28.1818C25.7914 28.625 24.1018 29.3777 22.2745 30.7509C22.1382 30.8391 22.0009 30.9723 21.8182 31.0609C22.7773 31.5477 23.8732 31.8136 25.015 31.8136C26.1564 31.8577 27.2527 31.5923 28.1659 31.105ZM19.0909 22.1841C19.42 22.5586 19.9373 23.0741 20.6895 23.6364C20.8777 23.5427 21.1127 23.4491 21.3482 23.4491C21.5832 23.4491 21.8182 23.4959 22.0064 23.6364L22.7118 23.0741C23.2457 22.6784 23.7946 22.3032 24.3573 21.9495C24.3105 21.8559 24.3105 21.7623 24.3105 21.6214C24.3105 21.3405 24.4045 21.1059 24.5455 20.8718C23.84 20.075 23.2286 19.4659 22.7118 19.0909C21.16 19.6536 19.8905 20.7782 19.0909 22.1841ZM29.6364 27.7273C29.5 27.7273 29.2727 27.7273 28.9545 27.8209C28.8636 28.0082 28.7727 28.1486 28.6364 28.2891C28.8182 29.3182 28.9091 30.2073 28.9091 30.9091C30 30.1136 30.8636 29.0377 31.3636 27.7273H29.6364ZM28.1491 15.9645C27.9664 15.4136 27.4641 15 26.8245 15C26.0941 15 25.4545 15.5973 25.4545 16.3318C25.4545 17.0664 26.0482 17.6636 26.8245 17.6636C27.19 17.6636 27.5555 17.5255 27.7836 17.25C31.2091 18.4436 33.63 21.6118 33.63 25.3309C33.63 26.2491 33.4927 27.1218 33.2186 27.9477L34.4064 28.6364C34.7718 27.6264 35 26.4786 35 25.3309C35 20.9691 32.1227 17.25 28.1491 15.9645ZM31.9055 30C31.1759 30 30.5377 30.5755 30.5377 31.2832C30.5377 31.4164 30.5832 31.5045 30.5832 31.6377C29.0791 32.9205 27.0736 33.7168 24.8855 33.7168C22.3782 33.7168 20.0991 32.655 18.5036 31.0177L17.2727 31.6814C19.0959 33.7168 21.8314 35 24.84 35C27.3927 35 29.7627 34.0709 31.495 32.5227C31.5864 32.5668 31.6777 32.5668 31.8141 32.5668C32.5436 32.5668 33.1818 31.9914 33.1818 31.2832C33.1818 30.5755 32.635 30 31.9055 30ZM16.6632 26.9886C16.5736 26.4505 16.4836 25.9568 16.4836 25.3741C16.4836 21.3818 19.3609 18.0623 23.1818 17.255V15.9095C18.5964 16.7164 15.135 20.6636 15.135 25.3736C15.135 26.0464 15.225 26.7191 15.3595 27.3473C15.135 27.5718 15 27.8859 15 28.245C15 28.9627 15.5845 29.5455 16.3486 29.5455C17.0677 29.5455 17.6973 28.9627 17.6973 28.245C17.6973 27.6168 17.2477 27.1236 16.6632 26.9886Z" fill="white"/>
</svg>