<svg xmlns="http://www.w3.org/2000/svg" width="50" height="50" viewBox="0 0 50 50" fill="none">
  <path d="M1 13C1 6.37258 6.37258 1 13 1H37C43.6274 1 49 6.37258 49 13V37C49 43.6274 43.6274 49 37 49H13C6.37258 49 1 43.6274 1 37V13Z" stroke="white" stroke-opacity="0.1"/>
  <path d="M31.0111 31.3032C30.7594 31.4177 30.4772 31.4805 30.192 31.4805C30.1159 31.4805 30.0406 31.476 29.9646 31.4671C29.5166 31.4147 29.0998 31.2067 28.7918 30.8821L27.9604 30.0038H21.0893C20.8946 30.0038 20.7371 29.849 20.7371 29.6575V17.8808C20.7371 17.6893 20.8946 17.5344 21.0893 17.5344H29.5409C29.7356 17.5344 29.8931 17.6893 29.8931 17.8808V26.4663L30.3388 26.9376L31.6302 25.8192V17.1926C31.6302 15.9822 30.6324 15 29.401 15H21.2293C19.9979 15 19 15.9822 19 17.1926V31.8074C19 33.0178 19.9979 34 21.2293 34H29.4018C30.6331 34 31.631 33.0178 31.631 31.8074V30.8836L31.482 31.0122C31.2819 31.1858 31.0849 31.2711 31.0111 31.3032ZM24.5728 15.7309H26.059C26.2643 15.7309 26.4302 15.8939 26.4302 16.0959C26.4302 16.2979 26.2643 16.461 26.059 16.461H24.5728C24.3674 16.461 24.2016 16.2979 24.2016 16.0959C24.2016 15.8939 24.3674 15.7309 24.5728 15.7309ZM25.3159 33.1068C24.7911 33.1068 24.3659 32.6886 24.3659 32.1725C24.3659 31.6563 24.7911 31.2382 25.3159 31.2382C25.8407 31.2382 26.2659 31.6563 26.2659 32.1725C26.2651 32.6886 25.8399 33.1068 25.3159 33.1068ZM34.8202 25.5918C34.702 25.4598 34.5384 25.3753 34.3608 25.3547C34.1562 25.3307 33.95 25.3936 33.7956 25.5275L30.2559 28.5915L28.8131 27.0677C28.696 26.9444 28.5384 26.8657 28.3681 26.8456C28.2634 26.8333 28.1572 26.8437 28.0569 26.876C27.9567 26.9083 27.8649 26.9617 27.7878 27.0326C27.495 27.3011 27.479 27.7529 27.7513 28.0409L29.6748 30.0727C29.7881 30.1924 29.9425 30.2687 30.1076 30.2881C30.2422 30.3038 30.3806 30.2821 30.5244 30.217C30.567 30.1983 30.6263 30.1722 30.6841 30.122L34.7547 26.5994C35.0544 26.3383 35.0833 25.8865 34.8202 25.5918Z" fill="white"/>
</svg>