<svg xmlns="http://www.w3.org/2000/svg" xmlns:xlink="http://www.w3.org/1999/xlink" width="24" height="24" viewBox="0 0 24 24" fill="none">
<path d="M24 12C24 11.8036 23.9951 11.6073 23.9855 11.4112C23.9759 11.215 23.9616 11.0192 23.9421 10.8238C23.9229 10.6283 23.899 10.4335 23.8702 10.2392C23.8413 10.045 23.8076 9.85153 23.7694 9.65892C23.7312 9.46629 23.688 9.27473 23.6405 9.08423C23.5927 8.89373 23.5402 8.70452 23.4832 8.51658C23.4262 8.32866 23.3647 8.14223 23.2985 7.95731C23.2324 7.77241 23.1617 7.58923 23.0865 7.4078C23.0114 7.22637 22.9318 7.04688 22.8479 6.86934C22.7639 6.6918 22.6756 6.51644 22.5831 6.34324C22.4905 6.17004 22.3937 5.9992 22.2927 5.83076C22.1918 5.66231 22.0867 5.49644 21.9776 5.33316C21.8685 5.16987 21.7555 5.00934 21.6385 4.85161C21.5215 4.69387 21.4007 4.53909 21.2761 4.38729C21.1515 4.23548 21.0233 4.08682 20.8914 3.9413C20.7595 3.79577 20.6242 3.65358 20.4853 3.51471C20.3464 3.37584 20.2042 3.24047 20.0587 3.10859C19.9132 2.9767 19.7645 2.84845 19.6127 2.72388C19.4609 2.59929 19.3061 2.47849 19.1484 2.36152C18.9906 2.24452 18.8301 2.13147 18.6668 2.02237C18.5036 1.91326 18.3377 1.80822 18.1692 1.70726C18.0008 1.60629 17.83 1.50952 17.6568 1.41694C17.4836 1.32437 17.3082 1.2361 17.1307 1.15213C16.9531 1.06816 16.7736 0.988601 16.5922 0.913446C16.4108 0.838291 16.2276 0.767632 16.0427 0.70147C15.8578 0.635309 15.6713 0.573724 15.4834 0.516715C15.2955 0.459708 15.1063 0.407344 14.9158 0.359625C14.7253 0.311906 14.5337 0.268889 14.3411 0.230577C14.1485 0.192263 13.955 0.158698 13.7608 0.129882C13.5665 0.101066 13.3717 0.0770327 13.1762 0.0577833C12.9808 0.0385338 12.785 0.0240909 12.5888 0.0144545C12.3927 0.00481816 12.1964 0 12 0C11.8036 0 11.6073 0.00481816 11.4112 0.0144545C11.215 0.0240909 11.0192 0.0385338 10.8238 0.0577833C10.6283 0.0770327 10.4335 0.101066 10.2392 0.129882C10.045 0.158698 9.85153 0.192263 9.65892 0.230577C9.46629 0.268889 9.27473 0.311906 9.08423 0.359625C8.89373 0.407344 8.70452 0.459708 8.51658 0.516715C8.32866 0.573724 8.14223 0.635309 7.95731 0.70147C7.77241 0.767632 7.58923 0.838291 7.4078 0.913446C7.22637 0.988601 7.04688 1.06816 6.86934 1.15213C6.6918 1.2361 6.51645 1.32437 6.34324 1.41694C6.17004 1.50952 5.9992 1.60629 5.83076 1.70726C5.66231 1.80822 5.49645 1.91326 5.33316 2.02237C5.16987 2.13147 5.00934 2.24452 4.85161 2.36152C4.69387 2.47849 4.53909 2.59929 4.38729 2.72388C4.23548 2.84845 4.08682 2.9767 3.9413 3.10859C3.79577 3.24047 3.65358 3.37584 3.51471 3.51471C3.37584 3.65358 3.24047 3.79577 3.10859 3.9413C2.9767 4.08682 2.84845 4.23548 2.72388 4.38729C2.59929 4.53909 2.47849 4.69387 2.36152 4.85161C2.24452 5.00934 2.13147 5.16987 2.02237 5.33316C1.91326 5.49644 1.80822 5.66231 1.70726 5.83076C1.60629 5.9992 1.50952 6.17004 1.41694 6.34324C1.32437 6.51644 1.2361 6.6918 1.15213 6.86934C1.06816 7.04688 0.988601 7.22637 0.913446 7.4078C0.838291 7.58923 0.767632 7.77241 0.70147 7.95731C0.635309 8.14223 0.573724 8.32866 0.516715 8.51658C0.459708 8.70452 0.407344 8.89373 0.359625 9.08423C0.311906 9.27473 0.268889 9.46629 0.230577 9.65892C0.192263 9.85153 0.158698 10.045 0.129882 10.2392C0.101066 10.4335 0.0770327 10.6283 0.0577833 10.8238C0.0385338 11.0192 0.0240909 11.215 0.0144545 11.4112C0.00481816 11.6073 0 11.8036 0 12C0 12.1964 0.00481816 12.3927 0.0144545 12.5888C0.0240909 12.785 0.0385338 12.9808 0.0577833 13.1762C0.0770327 13.3717 0.101066 13.5665 0.129882 13.7608C0.158698 13.955 0.192263 14.1485 0.230577 14.3411C0.268889 14.5337 0.311906 14.7253 0.359625 14.9158C0.407344 15.1063 0.459708 15.2955 0.516715 15.4834C0.573724 15.6713 0.635309 15.8578 0.70147 16.0427C0.767632 16.2276 0.838291 16.4108 0.913446 16.5922C0.988601 16.7736 1.06816 16.9531 1.15213 17.1307C1.2361 17.3082 1.32437 17.4836 1.41694 17.6568C1.50952 17.83 1.60629 18.0008 1.70726 18.1692C1.80822 18.3377 1.91326 18.5036 2.02237 18.6668C2.13147 18.8301 2.24452 18.9906 2.36152 19.1484C2.47849 19.3061 2.59929 19.4609 2.72388 19.6127C2.84845 19.7645 2.9767 19.9132 3.10859 20.0587C3.24047 20.2042 3.37584 20.3464 3.51471 20.4853C3.65358 20.6242 3.79577 20.7595 3.9413 20.8914C4.08682 21.0233 4.23548 21.1515 4.38729 21.2761C4.53909 21.4007 4.69387 21.5215 4.85161 21.6385C5.00934 21.7555 5.16987 21.8685 5.33316 21.9776C5.49645 22.0867 5.66231 22.1918 5.83076 22.2927C5.9992 22.3937 6.17004 22.4905 6.34324 22.5831C6.51645 22.6756 6.6918 22.7639 6.86934 22.8479C7.04688 22.9318 7.22637 23.0114 7.4078 23.0865C7.58923 23.1617 7.77241 23.2323 7.95731 23.2985C8.14223 23.3647 8.32866 23.4262 8.51658 23.4832C8.70452 23.5402 8.89373 23.5927 9.08423 23.6405C9.27473 23.688 9.46629 23.7312 9.65892 23.7694C9.85153 23.8076 10.045 23.8413 10.2392 23.8702C10.4335 23.899 10.6283 23.9229 10.8238 23.9421C11.0192 23.9616 11.215 23.9759 11.4112 23.9855C11.6073 23.9951 11.8036 24 12 24C12.1964 24 12.3927 23.9951 12.5888 23.9855C12.785 23.9759 12.9808 23.9616 13.1762 23.9421C13.3717 23.9229 13.5665 23.899 13.7608 23.8702C13.955 23.8413 14.1485 23.8076 14.3411 23.7694C14.5337 23.7312 14.7253 23.688 14.9158 23.6405C15.1063 23.5927 15.2955 23.5402 15.4834 23.4832C15.6713 23.4262 15.8578 23.3647 16.0427 23.2985C16.2276 23.2323 16.4108 23.1617 16.5922 23.0865C16.7736 23.0114 16.9531 22.9318 17.1307 22.8479C17.3082 22.7639 17.4836 22.6756 17.6568 22.5831C17.83 22.4905 18.0008 22.3937 18.1692 22.2927C18.3377 22.1918 18.5036 22.0867 18.6668 21.9776C18.8301 21.8685 18.9906 21.7555 19.1484 21.6385C19.3061 21.5215 19.4609 21.4007 19.6127 21.2761C19.7645 21.1515 19.9132 21.0233 20.0587 20.8914C20.2042 20.7595 20.3464 20.6242 20.4853 20.4853C20.6242 20.3464 20.7595 20.2042 20.8914 20.0587C21.0233 19.9132 21.1515 19.7645 21.2761 19.6127C21.4007 19.4609 21.5215 19.3061 21.6385 19.1484C21.7555 18.9906 21.8685 18.8301 21.9776 18.6668C22.0867 18.5036 22.1918 18.3377 22.2927 18.1692C22.3937 18.0008 22.4905 17.83 22.5831 17.6568C22.6756 17.4836 22.7639 17.3082 22.8479 17.1307C22.9318 16.9531 23.0114 16.7736 23.0865 16.5922C23.1617 16.4108 23.2324 16.2276 23.2985 16.0427C23.3647 15.8578 23.4262 15.6713 23.4832 15.4834C23.5402 15.2955 23.5927 15.1063 23.6405 14.9158C23.688 14.7253 23.7312 14.5337 23.7694 14.3411C23.8076 14.1485 23.8413 13.955 23.8702 13.7608C23.899 13.5665 23.9229 13.3717 23.9421 13.1762C23.9616 12.9808 23.9759 12.785 23.9855 12.5888C23.9951 12.3927 24 12.1964 24 12ZM13.875 18.075C13.335 18.285 12.915 18.45 12.585 18.555C12.4955 18.5836 12.4049 18.6085 12.3134 18.6297C12.2219 18.651 12.1296 18.6685 12.0367 18.6823C11.9437 18.6961 11.8504 18.7062 11.7566 18.7125C11.6628 18.7188 11.569 18.7213 11.475 18.72C10.83 18.72 10.32 18.555 9.96 18.24C9.94901 18.2308 9.93816 18.2214 9.92744 18.2119C9.91673 18.2024 9.90614 18.1927 9.89571 18.1829C9.88528 18.173 9.87497 18.1631 9.86482 18.1529C9.85467 18.1428 9.84464 18.1325 9.83477 18.1221C9.82491 18.1117 9.8152 18.1012 9.80562 18.0905C9.79605 18.0798 9.78663 18.069 9.77737 18.0581C9.76812 18.0471 9.759 18.036 9.75007 18.0248C9.74112 18.0136 9.73233 18.0023 9.7237 17.9909C9.71508 17.9794 9.70662 17.9678 9.69832 17.9561C9.69002 17.9444 9.68189 17.9326 9.67394 17.9207C9.66598 17.9088 9.65819 17.8967 9.65058 17.8846C9.64296 17.8724 9.63551 17.8602 9.62824 17.8478C9.62098 17.8355 9.61387 17.823 9.60696 17.8104C9.60005 17.7979 9.5933 17.7852 9.58673 17.7725C9.58019 17.7597 9.57382 17.7469 9.56761 17.734C9.56142 17.721 9.55542 17.708 9.54959 17.6949C9.54377 17.6818 9.53815 17.6686 9.53269 17.6553C9.52723 17.6421 9.52198 17.6287 9.51691 17.6153C9.51183 17.6019 9.50695 17.5884 9.50226 17.5749C9.49758 17.5613 9.49308 17.5477 9.48879 17.534C9.48448 17.5204 9.48037 17.5066 9.47646 17.4928C9.47255 17.479 9.46884 17.4652 9.46533 17.4513C9.46181 17.4374 9.45848 17.4234 9.45537 17.4094C9.45225 17.3955 9.44932 17.3814 9.4466 17.3673C9.44386 17.3533 9.44135 17.3392 9.43903 17.325C9.43671 17.3108 9.43458 17.2967 9.43266 17.2825C9.43073 17.2683 9.42902 17.254 9.4275 17.2398C9.42598 17.2255 9.42466 17.2112 9.42356 17.1969C9.42246 17.1826 9.42155 17.1683 9.42084 17.154C9.42014 17.1397 9.41965 17.1253 9.41934 17.111C9.41904 17.0967 9.41895 17.0823 9.41906 17.068C9.41918 17.0537 9.41948 17.0393 9.42 17.025C9.42007 16.8288 9.43507 16.6339 9.465 16.44C9.49411 16.2168 9.53911 15.9967 9.6 15.78L10.275 13.41C10.335 13.185 10.38 12.96 10.425 12.765C10.4461 12.674 10.4617 12.5821 10.4717 12.4893C10.4817 12.3965 10.4861 12.3034 10.485 12.21C10.485 11.91 10.425 11.7 10.29 11.58C10.155 11.46 9.915 11.4 9.57 11.4C9.4788 11.4014 9.38805 11.4084 9.2977 11.4209C9.20735 11.4335 9.11812 11.4515 9.03 11.475C8.85 11.535 8.7 11.58 8.565 11.625L8.745 10.89C9.18 10.71 9.615 10.56 10.005 10.425C10.0972 10.3958 10.1903 10.3698 10.2843 10.347C10.3783 10.3242 10.473 10.3046 10.5683 10.2883C10.6636 10.272 10.7594 10.259 10.8556 10.2493C10.9519 10.2395 11.0483 10.2331 11.145 10.23C11.79 10.23 12.285 10.38 12.645 10.695C12.6557 10.7044 12.6663 10.714 12.6767 10.7237C12.6871 10.7334 12.6974 10.7432 12.7076 10.7532C12.7177 10.7632 12.7278 10.7733 12.7376 10.7836C12.7475 10.7938 12.7573 10.8042 12.7669 10.8148C12.7764 10.8253 12.7859 10.836 12.7952 10.8468C12.8045 10.8576 12.8136 10.8685 12.8226 10.8795C12.8316 10.8905 12.8405 10.9017 12.8492 10.913C12.8579 10.9243 12.8664 10.9357 12.8748 10.9472C12.8831 10.9587 12.8914 10.9704 12.8994 10.9821C12.9075 10.9939 12.9154 11.0057 12.9231 11.0177C12.9308 11.0297 12.9384 11.0418 12.9458 11.0539C12.9532 11.0661 12.9604 11.0784 12.9675 11.0908C12.9745 11.1031 12.9814 11.1156 12.9881 11.1282C12.9948 11.1407 13.0013 11.1534 13.0077 11.1661C13.0141 11.1789 13.0203 11.1917 13.0263 11.2046C13.0323 11.2175 13.0381 11.2305 13.0438 11.2436C13.0494 11.2567 13.0549 11.2699 13.0602 11.2831C13.0654 11.2963 13.0706 11.3096 13.0755 11.323C13.0804 11.3363 13.0851 11.3498 13.0897 11.3633C13.0942 11.3768 13.0986 11.3903 13.1028 11.404C13.107 11.4176 13.1109 11.4313 13.1147 11.445C13.1185 11.4587 13.1221 11.4725 13.1256 11.4863C13.129 11.5001 13.1322 11.514 13.1352 11.5279C13.1383 11.5419 13.1411 11.5558 13.1438 11.5698C13.1464 11.5838 13.1489 11.5978 13.1512 11.6119C13.1534 11.626 13.1555 11.6401 13.1574 11.6542C13.1592 11.6683 13.1609 11.6824 13.1624 11.6966C13.1639 11.7108 13.1652 11.725 13.1663 11.7392C13.1674 11.7534 13.1683 11.7676 13.169 11.7818C13.1697 11.7961 13.1702 11.8103 13.1705 11.8245C13.1708 11.8388 13.1709 11.853 13.1708 11.8673C13.1708 11.8815 13.1705 11.8958 13.17 11.91C13.17 12.015 13.155 12.195 13.14 12.45C13.1321 12.5723 13.1168 12.6936 13.0942 12.8141C13.0717 12.9345 13.0419 13.0532 13.005 13.17L12.345 15.54C12.285 15.75 12.24 15.975 12.195 16.185C12.1601 16.3684 12.1401 16.5534 12.135 16.74C12.135 17.055 12.21 17.28 12.345 17.385C12.48 17.49 12.735 17.55 13.08 17.55C13.1271 17.5499 13.1741 17.5479 13.221 17.544C13.2679 17.5402 13.3146 17.5345 13.3611 17.5269C13.4075 17.5194 13.4536 17.51 13.4993 17.4989C13.5451 17.4877 13.5903 17.4747 13.635 17.46C13.785 17.415 13.935 17.37 14.085 17.31L13.875 18.075ZM13.695 8.46C13.6788 8.47987 13.662 8.49933 13.6448 8.51834C13.6275 8.53734 13.6098 8.55591 13.5916 8.57402C13.5734 8.59214 13.5547 8.60977 13.5356 8.62692C13.5165 8.64405 13.497 8.66072 13.4771 8.67687C13.4571 8.69302 13.4367 8.70862 13.416 8.72374C13.3952 8.73884 13.3741 8.75339 13.3526 8.76741C13.3311 8.78142 13.3092 8.79487 13.287 8.80779C13.2648 8.82068 13.2423 8.83298 13.2195 8.84473C13.1966 8.85647 13.1735 8.86762 13.1501 8.87817C13.1267 8.88872 13.1031 8.89865 13.0792 8.90801C13.0552 8.91733 13.0311 8.92605 13.0068 8.93416C12.9824 8.94225 12.9578 8.94973 12.9331 8.95657C12.9083 8.96339 12.8834 8.9696 12.8584 8.97515C12.8333 8.98071 12.8081 8.98563 12.7828 8.9899C12.7575 8.99416 12.7321 8.99777 12.7066 9.00073C12.6811 9.0037 12.6555 9.006 12.6299 9.00764C12.6043 9.0093 12.5786 9.01029 12.553 9.01062C12.5273 9.01094 12.5017 9.01062 12.476 9.00963C12.4504 9.00865 12.4247 9.00701 12.3992 9.00471C12.3736 9.00241 12.3481 8.99946 12.3227 8.99585C12.2973 8.99224 12.272 8.98798 12.2468 8.98308C12.2216 8.97818 12.1965 8.97262 12.1716 8.96641C12.1467 8.96023 12.1219 8.95341 12.0974 8.94593C12.0728 8.93845 12.0485 8.93037 12.0243 8.92165C12.0002 8.91295 11.9763 8.90362 11.9526 8.89366C11.9289 8.88373 11.9055 8.87318 11.8824 8.86205C11.8593 8.85089 11.8365 8.83915 11.8139 8.82684C11.7914 8.81454 11.7692 8.80165 11.7474 8.78819C11.7255 8.77474 11.704 8.76073 11.6828 8.74617C11.6617 8.73162 11.6409 8.71652 11.6206 8.70089C11.6002 8.68526 11.5803 8.66913 11.5607 8.65247C11.5412 8.63583 11.5221 8.61869 11.5034 8.60105C11.4847 8.58342 11.4666 8.56533 11.4488 8.54676C11.4311 8.5282 11.4139 8.50919 11.3971 8.48974C11.3803 8.47029 11.3641 8.45041 11.3484 8.43014C11.3326 8.40987 11.3174 8.38919 11.3028 8.36812C11.2881 8.34705 11.274 8.32563 11.2604 8.30383C11.2468 8.28204 11.2338 8.25991 11.2214 8.23746C11.2089 8.21501 11.1971 8.19225 11.1858 8.16919C11.1745 8.1461 11.1639 8.12276 11.1538 8.09916C11.1437 8.07555 11.1343 8.05169 11.1254 8.02758C11.1166 8.00348 11.1084 7.97918 11.1008 7.95466C11.0932 7.93012 11.0862 7.90542 11.0799 7.88055C11.0735 7.85569 11.0678 7.83066 11.0628 7.80548C11.0578 7.78031 11.0534 7.75502 11.0496 7.72962C11.0459 7.70423 11.0428 7.67876 11.0404 7.65319C11.0379 7.62764 11.0361 7.60205 11.035 7.57641C11.0339 7.55074 11.0334 7.52508 11.0336 7.49941C11.0338 7.47375 11.0347 7.44809 11.0362 7.42247C11.0377 7.39685 11.0398 7.37128 11.0427 7.34576C11.0455 7.32023 11.049 7.2948 11.0531 7.26947C11.0572 7.24413 11.062 7.21894 11.0674 7.19384C11.0729 7.16873 11.0789 7.1438 11.0856 7.11902C11.0923 7.09425 11.0997 7.06964 11.1076 7.04524C11.1156 7.02084 11.1242 6.99666 11.1334 6.9727C11.1426 6.94873 11.1524 6.92503 11.1628 6.90157C11.1733 6.87811 11.1843 6.85493 11.1959 6.83203C11.2075 6.80913 11.2197 6.78656 11.2325 6.7643C11.2453 6.74203 11.2586 6.72009 11.2725 6.69851C11.2864 6.67692 11.3009 6.65571 11.3158 6.63487C11.3308 6.61404 11.3464 6.5936 11.3624 6.57356C11.3784 6.55352 11.395 6.53388 11.412 6.51469C11.4291 6.49549 11.4466 6.47677 11.4646 6.45846C11.4826 6.44016 11.5011 6.42234 11.52 6.405L11.58 6.345C11.5968 6.32543 11.614 6.30633 11.6317 6.28765C11.6495 6.26897 11.6677 6.25078 11.6864 6.23304C11.705 6.2153 11.7241 6.19805 11.7437 6.18129C11.7633 6.16453 11.7832 6.14831 11.8037 6.13259C11.8241 6.11686 11.8449 6.10167 11.866 6.08702C11.8872 6.07237 11.9088 6.05827 11.9307 6.04474C11.9526 6.03119 11.9748 6.01823 11.9974 6.00584C12.02 5.99344 12.0429 5.98162 12.066 5.9704C12.0892 5.95919 12.1127 5.94858 12.1364 5.93857C12.1601 5.92856 12.1841 5.91916 12.2083 5.9104C12.2325 5.90161 12.257 5.89348 12.2816 5.88595C12.3063 5.87843 12.3311 5.87156 12.3561 5.86533C12.381 5.85909 12.4062 5.85352 12.4315 5.84857C12.4567 5.84362 12.4821 5.83934 12.5076 5.8357C12.5331 5.83207 12.5587 5.82909 12.5843 5.82677C12.61 5.82445 12.6357 5.82279 12.6614 5.8218C12.6872 5.8208 12.7129 5.82047 12.7387 5.8208C12.7644 5.82115 12.7901 5.82213 12.8158 5.8238C12.8415 5.82546 12.8672 5.82776 12.8928 5.83073C12.9184 5.83371 12.9439 5.83737 12.9692 5.84166C12.9946 5.84594 13.0199 5.85087 13.045 5.85647C13.0702 5.86207 13.0952 5.8683 13.12 5.8752C13.1448 5.88206 13.1694 5.88959 13.1939 5.89772C13.2183 5.90587 13.2425 5.91464 13.2665 5.92404C13.2905 5.93344 13.3142 5.94344 13.3376 5.95406C13.3611 5.96468 13.3843 5.97588 13.4072 5.98769C13.4301 5.99951 13.4527 6.01191 13.4749 6.02489C13.4971 6.03785 13.5191 6.0514 13.5406 6.06548C13.5621 6.07959 13.5833 6.09424 13.6041 6.10943C13.6249 6.12464 13.6453 6.14034 13.6653 6.15659C13.6853 6.17283 13.7048 6.18959 13.724 6.20684C13.7431 6.22409 13.7618 6.2418 13.78 6.26002C13.7982 6.27823 13.8159 6.29691 13.8332 6.31603C13.8504 6.33516 13.8672 6.3547 13.8834 6.37469C13.8997 6.39469 13.9154 6.41508 13.9306 6.43587C13.9458 6.45666 13.9604 6.47784 13.9745 6.49941C13.9886 6.52095 14.0021 6.54286 14.0151 6.5651C14.0281 6.58734 14.0405 6.60991 14.0523 6.63281C14.0641 6.65571 14.0753 6.67889 14.0859 6.70235C14.0966 6.72581 14.1066 6.74953 14.116 6.77351C14.1254 6.79748 14.1341 6.82169 14.1423 6.84614C14.1504 6.87056 14.1579 6.8952 14.1648 6.92002C14.1717 6.94484 14.1779 6.9698 14.1835 6.99495C14.1891 7.02009 14.1941 7.04536 14.1983 7.07077C14.2026 7.09615 14.2063 7.12165 14.2092 7.14722C14.2122 7.17281 14.2145 7.19845 14.2162 7.22416C14.2179 7.24987 14.2189 7.27559 14.2192 7.30134C14.2195 7.3271 14.2192 7.35284 14.2182 7.37857C14.2172 7.4043 14.2155 7.42999 14.2132 7.45566C14.2109 7.48132 14.2079 7.50689 14.2043 7.53239C14.2007 7.55789 14.1964 7.58327 14.1914 7.60854C14.1865 7.63383 14.1809 7.65895 14.1747 7.68394C14.1684 7.70894 14.1615 7.73374 14.154 7.75837C14.1465 7.78301 14.1384 7.80745 14.1296 7.83166C14.1208 7.85587 14.1114 7.87985 14.1014 7.90357C14.0914 7.92731 14.0808 7.95077 14.0696 7.97395C14.0584 7.99713 14.0466 8.02003 14.0342 8.0426C14.0218 8.06517 14.0088 8.08741 13.9953 8.10933C13.9817 8.13124 13.9676 8.15278 13.953 8.17397C13.9383 8.19513 13.9231 8.21592 13.9074 8.23633C13.8917 8.25675 13.8755 8.27672 13.8587 8.29629C13.842 8.31586 13.8247 8.33496 13.807 8.35364C13.7892 8.37232 13.771 8.39053 13.7524 8.40827C13.7337 8.42601 13.7146 8.44324 13.695 8.46Z"   fill="#388BFA" >
</path>
</svg>
