<svg xmlns="http://www.w3.org/2000/svg" xmlns:xlink="http://www.w3.org/1999/xlink" width="24" height="24" viewBox="0 0 24 24" fill="none">
<path d="M4.56565 19.406C4.98494 19.8889 5.71765 19.8762 6.17789 19.4343L7.29035 18.3656C7.45975 18.2032 7.38918 17.9011 7.224 17.7345C5.18118 15.6719 4.68705 12.847 5.31529 10.4357C5.9407 8.03286 7.72659 5.89827 10.3849 5.36037C10.4018 5.35716 10.4188 5.35435 10.4358 5.35196C10.4529 5.34955 10.4699 5.34758 10.4871 5.34601C10.5042 5.34444 10.5214 5.34329 10.5386 5.34256C10.5557 5.34184 10.5729 5.34153 10.5901 5.34165C10.6073 5.34177 10.6245 5.34228 10.6417 5.34322C10.6589 5.34418 10.676 5.34554 10.6931 5.34732C10.7102 5.3491 10.7273 5.3513 10.7443 5.35393C10.7613 5.35653 10.7782 5.35955 10.7951 5.363C10.8119 5.36645 10.8287 5.37029 10.8454 5.37455C10.862 5.3788 10.8786 5.38346 10.895 5.38852C10.9115 5.39359 10.9278 5.39905 10.9439 5.40491C10.9601 5.41077 10.9761 5.41702 10.992 5.42366C11.0079 5.43029 11.0236 5.43732 11.0391 5.4447C11.0546 5.45211 11.07 5.45989 11.0851 5.46805C11.1003 5.4762 11.1152 5.48471 11.1299 5.49359C11.1447 5.50248 11.1592 5.51171 11.1734 5.5213C11.1877 5.53088 11.2018 5.5408 11.2156 5.55109C11.2294 5.56135 11.2429 5.57195 11.2562 5.58287C11.2695 5.59381 11.2825 5.60506 11.2952 5.61662C11.308 5.62817 11.3204 5.64005 11.3326 5.65222C11.3447 5.66438 11.3566 5.67685 11.3681 5.6896C11.3797 5.70235 11.3909 5.71538 11.4018 5.72867C11.4127 5.74196 11.4233 5.75553 11.4336 5.76934C11.4438 5.78314 11.4537 5.7972 11.4633 5.8115C11.4729 5.8258 11.4821 5.8403 11.4909 5.85505C11.4998 5.86979 11.5083 5.88474 11.5164 5.89991C11.5246 5.91507 11.5323 5.93042 11.5397 5.94596C11.5471 5.9615 11.5541 5.9772 11.5607 5.99307C11.5673 6.00894 11.5736 6.02497 11.5794 6.04116C11.5852 6.05736 11.5907 6.07367 11.5957 6.0901C11.6007 6.10655 11.6054 6.12313 11.6096 6.13979C11.6139 6.15645 11.6177 6.17323 11.6211 6.19009C11.6245 6.20694 11.6275 6.22388 11.6301 6.24088C11.6327 6.25787 11.6349 6.27493 11.6366 6.29204C11.6384 6.30917 11.6398 6.3263 11.6407 6.34348C11.6416 6.36066 11.6421 6.37784 11.6422 6.39505C11.6423 6.41225 11.6419 6.42945 11.6412 6.44663C11.6404 6.46381 11.6393 6.48097 11.6377 6.4981C11.6361 6.51523 11.6341 6.5323 11.6317 6.54934C11.6293 6.56637 11.6264 6.58332 11.6232 6.60022C11.6199 6.61712 11.6163 6.63392 11.6122 6.65063C11.6082 6.66734 11.6037 6.68396 11.5988 6.70046C11.5939 6.71696 11.5887 6.73332 11.583 6.74956C11.5773 6.7658 11.5713 6.78188 11.5648 6.79784C11.5584 6.81378 11.5515 6.82955 11.5443 6.84516C11.5371 6.86077 11.5295 6.8762 11.5215 6.89145C11.5135 6.90669 11.5052 6.92171 11.4964 6.93655C11.4877 6.95138 11.4787 6.96601 11.4693 6.9804C11.4598 6.99479 11.4501 7.00894 11.44 7.02287C11.4299 7.03677 11.4194 7.05043 11.4086 7.06384C11.3978 7.07724 11.3867 7.09039 11.3753 7.10326C11.3639 7.11613 11.3522 7.12869 11.3402 7.14099C11.3281 7.1533 11.3158 7.16527 11.3032 7.17697C11.2906 7.18866 11.2777 7.20005 11.2645 7.21112C11.2513 7.22218 11.2379 7.23291 11.2242 7.24332C11.2105 7.25375 11.1966 7.26383 11.1824 7.27355C11.1682 7.28328 11.1538 7.29266 11.1392 7.30168C11.1245 7.3107 11.1097 7.31938 11.0946 7.3277C11.0795 7.33599 11.0643 7.34391 11.0488 7.35148C11.0334 7.35905 11.0178 7.36623 11.0019 7.37302C10.9861 7.37982 10.9702 7.38624 10.9541 7.39227C10.938 7.39829 10.9217 7.40391 10.9053 7.40914C10.8889 7.41437 10.8724 7.4192 10.8558 7.42362C10.8392 7.42805 10.8224 7.43206 10.8056 7.43567C9.10024 7.78156 7.83105 9.1778 7.36516 10.9679C6.9007 12.7496 7.27905 14.7797 8.72894 16.2451C8.904 16.4216 9.22165 16.5091 9.40094 16.3369L10.7986 14.9957C10.9313 14.8319 10.9539 14.6103 10.9426 14.4013C10.9416 14.3816 10.9411 14.3618 10.9412 14.342L10.9412 10.5162C10.9412 10.4988 10.9416 10.4815 10.9424 10.4642C10.9433 10.4469 10.9446 10.4296 10.9463 10.4124C10.948 10.3951 10.9501 10.3779 10.9526 10.3608C10.9552 10.3437 10.9581 10.3266 10.9615 10.3096C10.9649 10.2926 10.9687 10.2757 10.9729 10.2589C10.9771 10.2421 10.9817 10.2254 10.9868 10.2088C10.9918 10.1922 10.9972 10.1757 11.0031 10.1594C11.0089 10.1431 11.0151 10.127 11.0218 10.1109C11.0284 10.0949 11.0354 10.0791 11.0428 10.0634C11.0502 10.0478 11.058 10.0323 11.0662 10.017C11.0744 10.0017 11.0829 9.98668 11.0918 9.9718C11.1007 9.95694 11.11 9.94231 11.1196 9.9279C11.1292 9.91348 11.1392 9.89933 11.1495 9.88541C11.1599 9.87148 11.1705 9.85782 11.1815 9.84444C11.1925 9.83105 11.2038 9.81793 11.2154 9.80509C11.2271 9.79224 11.239 9.7797 11.2513 9.76744C11.2635 9.75519 11.2761 9.74326 11.2889 9.73161C11.3018 9.71996 11.3149 9.70866 11.3283 9.69767C11.3417 9.68668 11.3553 9.67602 11.3692 9.6657C11.3832 9.65537 11.3973 9.64541 11.4117 9.63577C11.4262 9.62614 11.4408 9.61688 11.4557 9.60798C11.4705 9.59905 11.4856 9.59052 11.5009 9.58236C11.5162 9.57418 11.5316 9.5664 11.5473 9.55899C11.563 9.55159 11.5788 9.54455 11.5948 9.53792C11.6108 9.53129 11.627 9.52505 11.6433 9.51922C11.6596 9.51338 11.6761 9.50795 11.6926 9.50293C11.7092 9.49789 11.7259 9.49327 11.7427 9.48905C11.7595 9.48486 11.7764 9.48106 11.7934 9.47766C11.8104 9.47429 11.8275 9.47134 11.8446 9.46878C11.8618 9.46623 11.879 9.46412 11.8962 9.46243C11.9135 9.46072 11.9307 9.45945 11.948 9.45861C11.9654 9.45774 11.9827 9.45732 12 9.45732C12.0173 9.45732 12.0346 9.45774 12.052 9.45861C12.0693 9.45945 12.0865 9.46072 12.1038 9.46243C12.121 9.46412 12.1382 9.46623 12.1554 9.46878C12.1725 9.47134 12.1896 9.47429 12.2066 9.47766C12.2235 9.48106 12.2405 9.48486 12.2573 9.48905C12.2741 9.49327 12.2908 9.49789 12.3074 9.50293C12.3239 9.50795 12.3404 9.51338 12.3567 9.51922C12.373 9.52505 12.3892 9.53129 12.4052 9.53792C12.4212 9.54455 12.437 9.55159 12.4527 9.55899C12.4684 9.5664 12.4838 9.57418 12.4991 9.58236C12.5144 9.59052 12.5295 9.59905 12.5443 9.60798C12.5592 9.61688 12.5738 9.62614 12.5883 9.63577C12.6027 9.64541 12.6168 9.65537 12.6307 9.6657C12.6446 9.67602 12.6583 9.68668 12.6717 9.69767C12.6851 9.70866 12.6982 9.71996 12.7111 9.73161C12.7239 9.74326 12.7364 9.75519 12.7487 9.76744C12.761 9.7797 12.7729 9.79224 12.7845 9.80509C12.7962 9.81793 12.8075 9.83105 12.8185 9.84444C12.8295 9.85782 12.8401 9.87148 12.8504 9.88541C12.8608 9.89933 12.8707 9.91348 12.8804 9.9279C12.89 9.94231 12.8993 9.95694 12.9082 9.9718C12.9171 9.98668 12.9256 10.0017 12.9338 10.017C12.942 10.0323 12.9498 10.0478 12.9572 10.0634C12.9646 10.0791 12.9716 10.0949 12.9782 10.1109C12.9848 10.127 12.9911 10.1431 12.9969 10.1594C13.0028 10.1757 13.0082 10.1922 13.0132 10.2088C13.0183 10.2254 13.0229 10.2421 13.0271 10.2589C13.0313 10.2757 13.0351 10.2926 13.0385 10.3096C13.0419 10.3266 13.0448 10.3437 13.0473 10.3608C13.0499 10.3779 13.052 10.3951 13.0537 10.4124C13.0554 10.4296 13.0567 10.4469 13.0575 10.4642C13.0584 10.4815 13.0588 10.4988 13.0588 10.5162L13.0588 14.342C13.0589 14.3613 13.0584 14.3806 13.0574 14.3999C13.0461 14.6103 13.0687 14.8319 13.2014 14.9943L17.6852 19.303C18.2231 19.8197 19.0786 19.8352 19.5558 19.2635C19.6024 19.2076 19.6484 19.1511 19.6939 19.0942C19.7393 19.0373 19.7841 18.9799 19.8283 18.922C19.8725 18.8641 19.916 18.8058 19.9589 18.7469C20.0018 18.6881 20.0441 18.6288 20.0857 18.5691C20.1273 18.5093 20.1682 18.4491 20.2085 18.3885C20.2488 18.3278 20.2885 18.2667 20.3274 18.2052C20.3664 18.1437 20.4047 18.0818 20.4423 18.0194C20.4799 17.9571 20.5168 17.8943 20.5531 17.8312C20.5893 17.768 20.6249 17.7045 20.6598 17.6405C20.6946 17.5766 20.7288 17.5123 20.7622 17.4476C20.7957 17.383 20.8284 17.3179 20.8605 17.2525C20.8925 17.1871 20.9238 17.1214 20.9544 17.0553C20.985 16.9893 21.0149 16.9229 21.0441 16.8561C21.0732 16.7894 21.1017 16.7224 21.1294 16.655C21.1571 16.5877 21.184 16.5201 21.2103 16.4521C21.2365 16.3842 21.262 16.316 21.2867 16.2475C21.3114 16.179 21.3354 16.1103 21.3586 16.0413C21.3819 15.9722 21.4044 15.903 21.4261 15.8335C21.4478 15.764 21.4688 15.6943 21.489 15.6243C21.5092 15.5544 21.5286 15.4842 21.5473 15.4138C21.566 15.3434 21.5839 15.2728 21.601 15.2021C21.6182 15.1313 21.6345 15.0604 21.6501 14.9892C21.6657 14.9181 21.6805 14.8468 21.6945 14.7754C21.7086 14.7039 21.7218 14.6323 21.7343 14.5606C21.7468 14.4888 21.7585 14.417 21.7694 14.345C21.7803 14.273 21.7904 14.2009 21.7997 14.1287C21.8091 14.0565 21.8176 13.9841 21.8254 13.9117C21.8331 13.8393 21.8401 13.7668 21.8463 13.6943C21.8524 13.6217 21.8578 13.5491 21.8624 13.4765C21.867 13.4038 21.8708 13.3311 21.8738 13.2583C21.8768 13.1856 21.879 13.1128 21.8805 13.04C21.8819 12.9672 21.8825 12.8944 21.8823 12.8216C21.8823 7.30297 17.4579 2.8291 12 2.8291C6.54211 2.8291 2.11765 7.30437 2.11765 12.8216C2.11765 15.343 3.04094 17.647 4.56565 19.4046L4.56565 19.406Z"   fill="#D5D7DB" >
</path>
</svg>
