<svg xmlns="http://www.w3.org/2000/svg" xmlns:xlink="http://www.w3.org/1999/xlink" width="24" height="24" viewBox="0 0 24 24" fill="none">
<path   fill-rule="evenodd"  fill="#2353F4"  d="M11.9999 0.999512C9.79077 0.999512 7.99991 2.79037 7.99991 4.99951L7.99991 11.9995C7.99991 14.2086 9.79077 15.9995 11.9999 15.9995C14.209 15.9995 15.9999 14.2086 15.9999 11.9995L15.9999 4.99951C15.9999 2.79037 14.209 0.999512 11.9999 0.999512ZM5.99991 9.9995C5.99991 9.44722 5.55219 8.99951 4.99991 8.99951C4.44762 8.99951 3.99991 9.44722 3.99991 9.9995L3.99991 11.9995C3.99991 16.0798 7.05456 19.4466 11.0018 19.9378C11.0005 19.9582 10.9999 19.9788 10.9999 19.9995L10.9999 20.9995L7.99991 20.9995C7.44762 20.9995 6.99991 21.4472 6.99991 21.9995C6.99991 22.5518 7.44762 22.9995 7.99991 22.9995L15.9999 22.9995C16.5522 22.9995 16.9999 22.5518 16.9999 21.9995C16.9999 21.4472 16.5522 20.9995 15.9999 20.9995L12.9999 20.9995L12.9999 19.9995C12.9999 19.9788 12.9993 19.9582 12.998 19.9378C16.9453 19.4466 19.9999 16.0798 19.9999 11.9995L19.9999 9.9995C19.9999 9.44722 19.5522 8.99951 18.9999 8.99951C18.4476 8.99951 17.9999 9.44722 17.9999 9.9995L17.9999 11.9995C17.9999 15.3132 15.3136 17.9995 11.9999 17.9995C8.6862 17.9995 5.99991 15.3132 5.99991 11.9995L5.99991 9.9995Z">
</path>
</svg>
