<svg xmlns="http://www.w3.org/2000/svg" width="22" height="22" fill="none" viewBox="0 0 22 22"><path fill="#28c445" d="M7.275 21.398S8.756 22 11.02 22c2.266 0 3.747-.687 3.747-.687l-7.493-7.434zm-4.051-2.621c1.611 1.547 3.136 2.106 3.136 2.106l.044-10.442-5.402 5.328s.653 1.461 2.222 3.008M.697 14.652l7.537-7.348v-.043H.61S0 8.722 0 10.957c0 2.234.697 3.695.697 3.695M6.316 1.031s-1.48.645-3.05 2.192c-1.568 1.59-2.134 3.093-2.134 3.093l10.586.043zm8.496 7.09V.601S13.331 0 11.066 0C8.8 0 7.319.688 7.319.688l7.45 7.433zm3.965-4.898c-1.612-1.547-3.137-2.106-3.137-2.106l-.044 10.442 5.402-5.328s-.653-1.461-2.222-3.008m2.614 11.472S22 13.235 22 11s-.697-3.695-.697-3.695l-7.537 7.39zm-5.663 6.274s1.481-.602 3.05-2.192 2.134-3.093 2.134-3.093l-10.586-.043z"/></svg>