<svg xmlns="http://www.w3.org/2000/svg" width="26" height="26" fill="none" viewBox="0 0 26 26"><path fill="#000" d="M2.806 17.572S12.026 5.794 20.044 4.44C10.69 8.231 0 23.665 0 23.665h10.423a.8.8 0 0 0-.183-.306l-.023-.023a1 1 0 0 0-.102-.082l-.084-.05-.029-.014-.03-.013-.092-.03a1 1 0 0 0-.192-.025l-.065.002H1.336a41 41 0 0 1 2.94-3.114c5.346-.27 10.022-.81 13.23-5.416.534-1.083-.4-.947-.669-.947 2.54-1.083 8.018-5.144 7.216-7.176-.4-.405-.668-.136-.668-.136s4.142-2.707 2-3.926-7.484.677-7.484.677.4-.811-.8-.811a14.8 14.8 0 0 0-3.439.855 14.5 14.5 0 0 0-1.74.797 14 14 0 0 0-1.175.704 15 15 0 0 0-1.317.985l-.21.178s0-1.083-.667-.677c-9.221 5.821-5.747 12.455-5.747 12.455" opacity=".3"/></svg>