<svg xmlns="http://www.w3.org/2000/svg" xmlns:xlink="http://www.w3.org/1999/xlink" width="24" height="24" viewBox="0 0 24 24" fill="none"><path d="M17.0586 20.7295C14.3723 20.7295 12.188 18.5453 12.188 15.8589C12.188 13.1726 14.3723 10.9883 17.0586 10.9883C19.745 10.9883 21.9292 13.1726 21.9292 15.8589C21.9292 18.5453 19.7425 20.7295 17.0586 20.7295ZM17.0586 12.2627C15.0757 12.2627 13.4624 13.876 13.4624 15.8589C13.4624 17.8419 15.0757 19.4552 17.0586 19.4552C19.0416 19.4552 20.6549 17.8419 20.6549 15.8589C20.6523 13.876 19.039 12.2627 17.0586 12.2627ZM14.8056 7.64438L7.43983 7.64438C7.08811 7.64438 6.80265 7.35892 6.80265 7.00718C6.80265 6.65546 7.08811 6.37 7.43983 6.37L14.8056 6.37C15.1573 6.37 15.4428 6.65546 15.4428 7.00718C15.4428 7.35892 15.1573 7.64438 14.8056 7.64438ZM12.527 11.0316L7.43725 11.0316C7.08553 11.0316 6.80005 10.7462 6.80005 10.3945C6.80005 10.0427 7.08553 9.75727 7.43725 9.75727L12.5245 9.75727C12.8762 9.75727 13.1617 10.0427 13.1617 10.3945C13.1617 10.7462 12.8788 11.0316 12.527 11.0316L12.527 11.0316ZM9.86108 14.4163L7.43725 14.4163C7.08553 14.4163 6.80005 14.1309 6.80005 13.7792C6.80005 13.4274 7.08553 13.142 7.43725 13.142L9.86108 13.142C10.2128 13.142 10.4983 13.4274 10.4983 13.7792C10.4983 14.1309 10.2154 14.4163 9.86108 14.4163Z"   fill="#7F7F7F" ></path><path d="M18.4219 16.9868L16.4517 16.9868L16.4517 14.4075C16.4517 14.0558 16.7372 13.7703 17.0889 13.7703C17.4407 13.7703 17.7261 14.0558 17.7261 14.4075L17.7261 15.7124L18.4219 15.7124C18.7736 15.7124 19.0591 15.9979 19.0591 16.3496C19.0591 16.7014 18.7736 16.9868 18.4219 16.9868L18.4219 16.9868ZM6.08611 18.6689C5.9179 18.6689 5.20938 18.6358 4.68182 18.1235C4.4295 17.8788 4.1313 17.4328 4.1313 16.6962L4.1313 4.91607C4.12365 4.75041 4.12874 4.02655 4.64358 3.47602C4.89083 3.21352 5.34706 2.90002 6.11931 2.90002L16.2836 2.90509C16.3295 2.91017 16.7474 2.9637 17.1705 3.20583C17.7924 3.56013 18.1339 4.14887 18.1339 4.86505L18.1339 10.8265C18.1339 11.1782 17.8485 11.4637 17.4968 11.4637C17.145 11.4637 16.8596 11.1782 16.8596 10.8265L16.8596 4.86251C16.8596 4.61273 16.7704 4.45217 16.5614 4.32475C16.4008 4.2279 16.2275 4.18711 16.1612 4.17437L6.11928 4.17437C5.86697 4.17437 5.68602 4.23044 5.57639 4.3426C5.42603 4.49812 5.40055 4.76569 5.40309 4.86255L5.40564 4.88803L5.40564 16.6912C5.40564 17.0454 5.53052 17.1652 5.5713 17.206C5.75481 17.3844 6.07338 17.392 6.08102 17.392L12.0858 17.392C12.4375 17.392 12.723 17.6775 12.723 18.0292C12.723 18.381 12.4375 18.6664 12.0858 18.6664L6.10397 18.6664C6.0989 18.669 6.09123 18.669 6.08611 18.669L6.08611 18.6689Z"   fill="#7F7F7F" ></path></svg>