<svg xmlns="http://www.w3.org/2000/svg" width="22" height="22" fill="none" viewBox="0 0 22 22"><path fill="#00a6c7" d="M1.837 16.923H20.25a.8.8 0 0 1 .395.1.8.8 0 0 1 .167.12.9.9 0 0 1 .176.227.8.8 0 0 1 .083.234.8.8 0 0 1 .012.248.8.8 0 0 1-.115.352.8.8 0 0 1-.156.192.9.9 0 0 1-.242.155 1 1 0 0 1-.238.06l-.082.004H1.837a.8.8 0 0 1-.358-.08.8.8 0 0 1-.36-.33.8.8 0 0 1-.103-.27.8.8 0 0 1 0-.33.83.83 0 0 1 .174-.373 1 1 0 0 1 .182-.166.8.8 0 0 1 .424-.142zm0 3.385h8.37a.8.8 0 0 1 .357.08 1 1 0 0 1 .141.086.8.8 0 0 1 .174.176.9.9 0 0 1 .129.258.9.9 0 0 1 .035.287 1 1 0 0 1-.035.204.9.9 0 0 1-.13.259.9.9 0 0 1-.207.2.85.85 0 0 1-.464.142h-8.37a.8.8 0 0 1-.358-.081 1 1 0 0 1-.173-.111.85.85 0 0 1-.302-.737.86.86 0 0 1 .302-.571.8.8 0 0 1 .173-.111.9.9 0 0 1 .358-.081M13.936 7.455a1.7 1.7 0 0 1 .447-.458 1.7 1.7 0 0 1 .48-.23 1.67 1.67 0 0 1 1.145.08 1.67 1.67 0 0 1 .777.71l4.302 7.674H1L3.857 1.895a1.7 1.7 0 0 1 .266-.614A1.7 1.7 0 0 1 5.29.57a1.7 1.7 0 0 1 .466.01 1.7 1.7 0 0 1 .564.2 1.7 1.7 0 0 1 .5.44 1.7 1.7 0 0 1 .23.41l2.816 7.206a1.6 1.6 0 0 0 .222.4 1.7 1.7 0 0 0 .415.392 1.65 1.65 0 0 0 .8.275 1.67 1.67 0 0 0 1.337-.527 1.6 1.6 0 0 0 .177-.225zm5.477-4.07a1.666 1.666 0 0 1-1.602-1.201 2 2 0 0 1-.064-.326 1.6 1.6 0 0 1 .01-.414 2 2 0 0 1 .08-.322 1.7 1.7 0 0 1 .282-.503 1.7 1.7 0 0 1 .73-.52 1.7 1.7 0 0 1 .728-.09 1.66 1.66 0 0 1 1.228.743 1.7 1.7 0 0 1 .25.61 1.7 1.7 0 0 1-.018.742 2 2 0 0 1-.11.312 1.7 1.7 0 0 1-.584.683 1.67 1.67 0 0 1-.93.286"/></svg>