<svg xmlns="http://www.w3.org/2000/svg" width="26" height="26" fill="none" viewBox="0 0 26 26"><path fill="#0065fb" d="M10.607.422c-1.43-1.094-3.471.084-3.239 1.87l.736 5.65a.3.3 0 0 1-.015.136.3.3 0 0 1-.062.1.3.3 0 0 1-.045.04l-4.69 3.233c-1.484 1.022-.995 3.326.777 3.657l5.6 1.046a.3.3 0 0 1 .075.026.3.3 0 0 1 .05.031.3.3 0 0 1 .077.09.3.3 0 0 1 .022.056l1.626 5.46c.514 1.726 2.857 1.973 3.72.39l2.725-5.002.02-.033a.3.3 0 0 1 .09-.079.3.3 0 0 1 .092-.034.3.3 0 0 1 .06-.004l5.695.14c1.8.045 2.759-2.107 1.52-3.416L21.525 9.64a.3.3 0 0 1-.054-.083.3.3 0 0 1-.022-.076.3.3 0 0 1 .003-.098l.01-.038 1.896-5.373c.599-1.699-1.152-3.275-2.78-2.503l-5.144 2.445a.3.3 0 0 1-.135.028.3.3 0 0 1-.133-.037l-.033-.022L10.608.422"/><path fill="#0065fb" d="M8.944 17.195a.88.88 0 0 0-.571-.253.86.86 0 0 0-.656.253l-5.37 5.37a.86.86 0 0 0-.24.526.866.866 0 0 0 1.146.898 1 1 0 0 0 .224-.116 1 1 0 0 0 .097-.08l5.37-5.37a.86.86 0 0 0 .237-.782.87.87 0 0 0-.237-.445m12.308 2.8-.016-.028a.2.2 0 0 0-.043-.048.24.24 0 0 0-.085-.045l-.016-.004a.2.2 0 0 0-.08-.003.2.2 0 0 0-.09.033q-.009.004-.014.01l-.025.02-.011.012a.2.2 0 0 0-.036.053l-.701 1.447a.23.23 0 0 1-.108.107l-1.447.703a.3.3 0 0 0-.076.06.25.25 0 0 0-.05.1.2.2 0 0 0 0 .096.2.2 0 0 0 .016.046.3.3 0 0 0 .057.079.3.3 0 0 0 .053.035l1.447.702a.24.24 0 0 1 .107.107l.703 1.447a.3.3 0 0 0 .036.053.3.3 0 0 0 .063.05.3.3 0 0 0 .061.022.2.2 0 0 0 .096 0 .2.2 0 0 0 .047-.015l.014-.007.014-.008a.2.2 0 0 0 .05-.041.2.2 0 0 0 .035-.054l.702-1.447a.23.23 0 0 1 .107-.107l1.447-.701a.3.3 0 0 0 .053-.037.3.3 0 0 0 .042-.049l.008-.014a.25.25 0 0 0 .027-.109l-.005-.048a.2.2 0 0 0-.015-.046.3.3 0 0 0-.056-.078.2.2 0 0 0-.054-.036l-1.447-.703a.24.24 0 0 1-.087-.073l-.02-.033-.703-1.447M3.027 4.158a.23.23 0 0 0-.241-.128.23.23 0 0 0-.176.128l-.701 1.446a.23.23 0 0 1-.108.108l-1.446.701a.232.232 0 0 0-.087.345.2.2 0 0 0 .087.072l1.446.702a.23.23 0 0 1 .108.107l.702 1.446a.24.24 0 0 0 .13.117.23.23 0 0 0 .287-.117l.701-1.446a.23.23 0 0 1 .108-.107l1.446-.702a.24.24 0 0 0 .086-.072.24.24 0 0 0 .042-.169.3.3 0 0 0-.033-.09.24.24 0 0 0-.08-.078l-.015-.008-1.446-.701a.23.23 0 0 1-.108-.108zM1.517 16.32a.2.2 0 0 0-.046-.075.234.234 0 0 0-.304-.034l-.027.022a.2.2 0 0 0-.058.087l-.214.581a.24.24 0 0 1-.053.083.2.2 0 0 1-.083.054l-.581.215a.3.3 0 0 0-.061.034.24.24 0 0 0-.09.2.3.3 0 0 0 .017.069.3.3 0 0 0 .035.06.2.2 0 0 0 .052.047.2.2 0 0 0 .047.024l.58.214a.24.24 0 0 1 .115.092.2.2 0 0 1 .022.044l.214.581a.2.2 0 0 0 .046.075.2.2 0 0 0 .04.035.3.3 0 0 0 .046.025.2.2 0 0 0 .05.013.3.3 0 0 0 .07 0l.035-.007a.2.2 0 0 0 .048-.022.3.3 0 0 0 .054-.044.2.2 0 0 0 .03-.043l.015-.032.216-.58a.2.2 0 0 1 .053-.084.2.2 0 0 1 .083-.053l.581-.214a.23.23 0 0 0 .11-.35.24.24 0 0 0-.078-.07l-.032-.014-.58-.215a.24.24 0 0 1-.127-.114l-.01-.023z"/></svg>