<svg xmlns="http://www.w3.org/2000/svg" width="26" height="26" fill="none" viewBox="0 0 26 26"><path fill="#000" d="M11.022 6.548a1.03 1.03 0 0 1 .515.352 1 1 0 0 1 .088.132 1 1 0 0 1 .085.204l.738 2.488a7.1 7.1 0 0 0 1.21 2.36 7 7 0 0 0 .588.665 7 7 0 0 0 .666.588 7 7 0 0 0 .733.501 7 7 0 0 0 .996.492 7 7 0 0 0 .63.218l2.465.73a1.03 1.03 0 0 1 .613.505 1.03 1.03 0 0 1 .051.83 1 1 0 0 1-.09.182 1 1 0 0 1-.418.378 1 1 0 0 1-.151.06l-2.5.75a7.14 7.14 0 0 0-4.79 4.805l-.74 2.486a1 1 0 0 1-.099.223 1 1 0 0 1-.177.223 1 1 0 0 1-.16.124l-.036.021-.035.02-.074.035-.038.015-.039.013q-.018.007-.038.012a1.1 1.1 0 0 1-.323.039 1 1 0 0 1-.201-.028l-.04-.01-.039-.013-.038-.013-.038-.015-.074-.035-.036-.02a1 1 0 0 1-.102-.067l-.063-.05-.03-.028-.03-.029a1 1 0 0 1-.103-.125 1 1 0 0 1-.083-.14 1 1 0 0 1-.06-.152l-.74-2.486a7.2 7.2 0 0 0-.597-1.423 7.15 7.15 0 0 0-2.965-2.885 7.3 7.3 0 0 0-1.227-.497l-2.503-.75a1.05 1.05 0 0 1-.387-.22 1 1 0 0 1-.137-.15 1 1 0 0 1-.104-.176 1 1 0 0 1-.083-.272 1 1 0 0 1 .086-.596 1.1 1.1 0 0 1 .243-.325 1 1 0 0 1 .388-.216l2.467-.73a7.2 7.2 0 0 0 2.532-1.35 7.2 7.2 0 0 0 1.343-1.474 7 7 0 0 0 .81-1.578 7 7 0 0 0 .139-.422l.738-2.488a1.05 1.05 0 0 1 .218-.39 1.02 1.02 0 0 1 1.049-.298zM21.034.02a.46.46 0 0 1 .313.313l.292.986a4 4 0 0 0 .242.632 4.2 4.2 0 0 0 .496.805 5 5 0 0 0 .455.5 4.35 4.35 0 0 0 1.746 1.002l.975.29a.5.5 0 0 1 .133.064l.015.011a1 1 0 0 1 .068.063 1 1 0 0 1 .053.076l.032.067a.5.5 0 0 1 .028.126.4.4 0 0 1-.002.092.4.4 0 0 1-.02.09.5.5 0 0 1-.08.146 1 1 0 0 1-.065.066.5.5 0 0 1-.162.087l-.992.298a4.5 4.5 0 0 0-.984.434 4.4 4.4 0 0 0-1.032.859 4.3 4.3 0 0 0-.866 1.509l-.04.128-.292.986a.4.4 0 0 1-.035.087.47.47 0 0 1-.354.244.47.47 0 0 1-.377-.126l-.013-.013a.4.4 0 0 1-.057-.073.5.5 0 0 1-.054-.119l-.294-.986a4.5 4.5 0 0 0-.364-.868 5 5 0 0 0-.289-.455 4.4 4.4 0 0 0-.84-.87 4.4 4.4 0 0 0-1.428-.739l-.993-.298a.5.5 0 0 1-.215-.139.4.4 0 0 1-.079-.125.5.5 0 0 1-.036-.18v-.02a.4.4 0 0 1 .013-.091.4.4 0 0 1 .03-.088.5.5 0 0 1 .097-.135.45.45 0 0 1 .19-.111l.978-.29a4.36 4.36 0 0 0 2.753-2.428 5 5 0 0 0 .185-.509l.292-.986a.4.4 0 0 1 .07-.143.46.46 0 0 1 .51-.17z" opacity=".3"/></svg>