<svg xmlns="http://www.w3.org/2000/svg" width="50" height="50" viewBox="0 0 50 50" fill="none">
  <path d="M1 13C1 6.37258 6.37258 1 13 1H37C43.6274 1 49 6.37258 49 13V37C49 43.6274 43.6274 49 37 49H13C6.37258 49 1 43.6274 1 37V13Z" stroke="white" stroke-opacity="0.1"/>
  <path d="M18.5836 31.4111C19.5411 32.4025 20.853 32.9734 22.2311 32.9984C23.6092 33.0233 24.9409 32.5003 25.9338 31.5442L26.3332 31.1447C26.4426 30.9721 26.489 30.7669 26.4646 30.564C26.4403 30.3611 26.3466 30.1728 26.1995 30.0309C26.0524 29.889 25.8608 29.8022 25.6572 29.7852C25.4535 29.7682 25.2502 29.822 25.0816 29.9375L24.6821 30.3369C24.0213 30.9576 23.1419 31.2919 22.2357 31.2669C21.3294 31.242 20.4698 30.8598 19.8441 30.2038C19.1875 29.5766 18.8051 28.7154 18.7802 27.8077C18.7552 26.9001 19.0898 26.0192 19.711 25.3569L20.1104 24.9663C20.2823 24.7992 20.3807 24.5706 20.384 24.3309C20.3874 24.0911 20.2953 23.8599 20.1282 23.688C19.961 23.5162 19.7324 23.4177 19.4927 23.4144C19.253 23.4111 19.0217 23.5031 18.8499 23.6703L18.4593 24.0609C17.502 25.0525 16.9774 26.3836 17.0007 27.7617C17.024 29.1398 17.5933 30.4523 18.5836 31.4111ZM24.0696 18.4506L23.6612 18.8501C23.4941 19.0172 23.4002 19.2439 23.4002 19.4803C23.4002 19.7167 23.4941 19.9434 23.6612 20.1106C23.8284 20.2777 24.0551 20.3717 24.2915 20.3717C24.5279 20.3717 24.7546 20.2777 24.9218 20.1106L25.3212 19.7022C25.9843 19.0849 26.8638 18.7536 27.7694 18.7802C28.6749 18.8068 29.5335 19.1891 30.1592 19.8443C30.8147 20.4684 31.1967 21.3266 31.2216 22.2314C31.2465 23.1362 30.9125 24.0141 30.2924 24.6734L29.8929 25.0817C29.7475 25.2515 29.6715 25.47 29.6801 25.6934C29.6888 25.9168 29.7814 26.1287 29.9395 26.2868C30.0976 26.4449 30.3095 26.5376 30.5329 26.5462C30.7563 26.5548 30.9748 26.4788 31.1446 26.3334L31.5529 25.9339C32.5057 24.9388 33.0256 23.6069 32.999 22.2295C32.9724 20.8521 32.4014 19.5413 31.4109 18.5837C30.4537 17.595 29.1437 17.0258 27.7677 17.0009C26.3918 16.9759 25.062 17.4972 24.0696 18.4506Z" fill="white"/>
  <path d="M21.8858 28.1088C21.8017 28.0291 21.7353 27.9326 21.691 27.8255C21.6466 27.7184 21.6253 27.6032 21.6284 27.4874C21.6277 27.3706 21.6501 27.2548 21.6943 27.1466C21.7385 27.0385 21.8036 26.9401 21.8858 26.8571L26.857 21.886C26.9399 21.8037 27.0383 21.7386 27.1465 21.6945C27.2546 21.6503 27.3704 21.6279 27.4873 21.6286C27.6031 21.6255 27.7183 21.6468 27.8254 21.6911C27.9324 21.7355 28.0289 21.8019 28.1086 21.886C28.1925 21.9682 28.2592 22.0663 28.305 22.1744C28.3507 22.2826 28.3745 22.3988 28.375 22.5163C28.3764 22.6327 28.3534 22.7481 28.3075 22.8551C28.2617 22.9622 28.1939 23.0584 28.1086 23.1377L23.1375 28.1088C22.9712 28.2741 22.7462 28.3669 22.5117 28.3669C22.2772 28.3669 22.0522 28.2741 21.8858 28.1088Z" fill="white"/>
</svg>