<svg width="22" height="22" viewBox="0 0 22 22" fill="none" xmlns="http://www.w3.org/2000/svg">
<path d="M0 4C0 1.79086 1.79086 0 4 0H18C20.2091 0 22 1.79086 22 4V18C22 20.2091 20.2091 22 18 22H4C1.79086 22 0 20.2091 0 18V4Z" fill="#0065FB" fill-opacity="0.06"/>
<path d="M16.8333 3.5H5.16663C3.79163 3.5 2.66663 4.625 2.66663 6V14.3333C2.66663 15.7083 3.79163 16.8333 5.16663 16.8333H9.33329L11 18.5L12.6666 16.8333H16.8333C18.2083 16.8333 19.3333 15.7083 19.3333 14.3333V6C19.3333 4.625 18.2083 3.5 16.8333 3.5ZM7.66663 11C7.20829 11 6.83329 10.625 6.83329 10.1667C6.83329 9.70833 7.20829 9.33333 7.66663 9.33333C8.12496 9.33333 8.49996 9.70833 8.49996 10.1667C8.49996 10.625 8.12496 11 7.66663 11ZM11 11C10.5416 11 10.1666 10.625 10.1666 10.1667C10.1666 9.70833 10.5416 9.33333 11 9.33333C11.4583 9.33333 11.8333 9.70833 11.8333 10.1667C11.8333 10.625 11.4583 11 11 11ZM14.3333 11C13.875 11 13.5 10.625 13.5 10.1667C13.5 9.70833 13.875 9.33333 14.3333 9.33333C14.7916 9.33333 15.1666 9.70833 15.1666 10.1667C15.1666 10.625 14.7916 11 14.3333 11Z" fill="#0065FB"/>
</svg>
