<svg width="36" height="38" viewBox="0 0 36 38" fill="none" xmlns="http://www.w3.org/2000/svg">
<rect opacity="0.04" x="0.5" y="0.5" width="35" height="35" rx="9.5" stroke="black"/>
<g filter="url(#filter0_d_129_35250)">
<rect x="4" y="4" width="28" height="28" rx="6" fill="#606060"/>
</g>
<path d="M24.9998 20.8396C24.9998 21.5573 24.6152 22.2199 23.992 22.5759L18.992 25.4334C18.3772 25.7846 17.6225 25.7846 17.0077 25.4334L12.0077 22.5759C11.3845 22.2199 10.9998 21.5573 10.9998 20.8396L10.9998 15.1609C10.9998 14.4432 11.3845 13.7807 12.0077 13.4246L17.0077 10.5672C17.6225 10.2159 18.3772 10.2159 18.992 10.5672L23.992 13.4246C24.6152 13.7807 24.9998 14.4432 24.9998 15.1609L24.9998 20.8396ZM21.9998 18.0007C21.9998 15.7916 20.209 14.0007 17.9998 14.0007C15.7907 14.0007 13.9998 15.7916 13.9998 18.0007C13.9998 20.2099 15.7907 22.0007 17.9998 22.0007C20.209 22.0007 21.9998 20.2099 21.9998 18.0007Z" fill="white"/>
<circle cx="18" cy="18" r="2" fill="white"/>
<defs>
<filter id="filter0_d_129_35250" x="0" y="2" width="36" height="36" filterUnits="userSpaceOnUse" color-interpolation-filters="sRGB">
<feFlood flood-opacity="0" result="BackgroundImageFix"/>
<feColorMatrix in="SourceAlpha" type="matrix" values="0 0 0 0 0 0 0 0 0 0 0 0 0 0 0 0 0 0 127 0" result="hardAlpha"/>
<feOffset dy="2"/>
<feGaussianBlur stdDeviation="2"/>
<feComposite in2="hardAlpha" operator="out"/>
<feColorMatrix type="matrix" values="0 0 0 0 0 0 0 0 0 0 0 0 0 0 0 0 0 0 0.25 0"/>
<feBlend mode="normal" in2="BackgroundImageFix" result="effect1_dropShadow_129_35250"/>
<feBlend mode="normal" in="SourceGraphic" in2="effect1_dropShadow_129_35250" result="shape"/>
</filter>
</defs>
</svg>
