<svg xmlns="http://www.w3.org/2000/svg" width="16" height="16" fill="none"><path fill="#150A33" d="M12.006 6.5a4 4 0 0 0-.675-2.222 4 4 0 0 0-1.269-1.209 4 4 0 0 0-1.276-.492A4 4 0 0 0 4.006 6.5a2.998 2.998 0 0 0-2.646 4.414 3 3 0 0 0 .858.996 3 3 0 0 0 .505.302 3 3 0 0 0 1.283.288v1a4 4 0 0 1-1.08-.147 4 4 0 0 1-.998-.432 4 4 0 0 1-.846-.685 4 4 0 0 1-.783-1.219A4 4 0 0 1 .444 7.67a4 4 0 0 1 2.642-2.063A5 5 0 0 1 3.8 3.8a5 5 0 0 1 2.101-1.83 5 5 0 0 1 2.969-.389 5 5 0 0 1 2.338 1.084 5 5 0 0 1 1.117 1.32 5 5 0 0 1 .504 1.198 5 5 0 0 1 .096.423 4 4 0 0 1 2.45 1.75 4 4 0 0 1 .45.989 4 4 0 0 1 .122.53 4 4 0 0 1-.078 1.621 4 4 0 0 1-.171.517 4 4 0 0 1-.334.644 4 4 0 0 1-.705.826 4 4 0 0 1-.9.607 4 4 0 0 1-1.754.41v-1a3 3 0 0 0 2.015-.777 3 3 0 0 0 .48-.556 3 3 0 0 0 .33-.656 3 3 0 0 0 .143-.57 3 3 0 0 0-.322-1.855 3 3 0 0 0-.326-.49 3 3 0 0 0-1.309-.92 3 3 0 0 0-1.01-.176m-8 6h2v1h-2zm6 0h2v1h-2z"/><path fill="#150A33" d="M8.423 9.206v5.204a.5.5 0 0 1-.06.236.6.6 0 0 1-.106.134.6.6 0 0 1-.1.072.6.6 0 0 1-.137.05.5.5 0 0 1-.219-.005.6.6 0 0 1-.114-.046.6.6 0 0 1-.117-.088.6.6 0 0 1-.075-.096.6.6 0 0 1-.05-.112.5.5 0 0 1-.022-.145V9.206l-.564.564a.51.51 0 0 1-.474.127.51.51 0 0 1-.35-.313.5.5 0 0 1 .03-.404.5.5 0 0 1 .087-.117l1.42-1.42a.5.5 0 0 1 .327-.143h.025a.48.48 0 0 1 .295.094 1 1 0 0 1 .055.048l1.42 1.421a.5.5 0 0 1 .137.28.5.5 0 0 1-.025.24.5.5 0 0 1-.19.247.5.5 0 0 1-.445.057.5.5 0 0 1-.184-.117z"/></svg>