<svg xmlns="http://www.w3.org/2000/svg" xmlns:xlink="http://www.w3.org/1999/xlink" width="32" height="32" viewBox="0 0 32 32" fill="none"><path   fill="rgba(157, 255, 130, 1)" style="mix-blend-mode:normal" d="M5.64741 20.6598C5.87415 19.5504 7.45923 19.5504 7.68598 20.6598Q7.96806 22.0399 8.9641 23.0359Q9.96015 24.032 11.3402 24.314C12.4496 24.5408 12.4496 26.1259 11.3403 26.3526Q9.96015 26.6347 8.9641 27.6307Q7.96805 28.6268 7.68598 30.0069C7.45923 31.1162 5.87415 31.1162 5.64741 30.0069Q5.36533 28.6268 4.36928 27.6307Q3.37323 26.6347 1.99314 26.3526C0.883774 26.1259 0.883773 24.5408 1.99314 24.314Q3.37323 24.032 4.36928 23.0359Q5.36533 22.0399 5.64741 20.6598L5.64741 20.6598ZM7.60693 21.0603Q7.40779 22.0346 6.93507 22.907Q6.47184 23.7618 5.78352 24.4501Q5.09519 25.1385 4.24033 25.6017Q3.36796 26.0744 2.39365 26.2736C3.41698 26.0644 3.41698 24.6022 2.39365 24.3931Q3.36796 24.5922 4.24033 25.0649Q5.09519 25.5282 5.78352 26.2165Q6.47184 26.9048 6.93507 27.7597Q7.40779 28.632 7.60693 29.6064C7.39777 28.583 5.93561 28.583 5.72645 29.6064Q5.92559 28.632 6.39831 27.7597Q6.86154 26.9048 7.54987 26.2165Q8.23819 25.5282 9.09305 25.0649Q9.96542 24.5922 10.9397 24.3931C9.9164 24.6022 9.9164 26.0644 10.9397 26.2736Q9.96543 26.0744 9.09305 25.6017Q8.23819 25.1385 7.54987 24.4501Q6.86154 23.7618 6.39831 22.907Q5.9256 22.0346 5.72645 21.0603C5.93561 22.0836 7.39777 22.0836 7.60693 21.0603L7.60693 21.0603Z"></path><path   fill="rgba(255, 255, 255, 1)" style="mix-blend-mode:normal" d="M18.3924 16.8282M18.3924 16.8282L18.3924 16.8282Q19.3089 16.222 19.3479 16.1281L19.3479 16.1281L19.3479 16.1281Q19.3685 16.0789 19.3685 16Q19.3685 15.9211 19.3479 15.8719L19.3479 15.8719L19.3479 15.8719Q19.3089 15.7781 18.3924 15.1718L18.3924 15.1718L18.3924 15.1718Q17.4797 14.568 16.838 14.2019L16.838 14.2019L16.838 14.2019Q16.2979 13.8939 15.495 13.4948L15.495 13.4948L15.495 13.4948L15.495 13.4948Q14.5229 13.0118 14.4225 13.0247L14.4225 13.0247L14.4225 13.0247Q14.3704 13.0315 14.3018 13.0709Q14.2332 13.1103 14.2011 13.1519L13.4089 12.5417L14.2011 13.1519L13.4089 12.5417L14.2011 13.1519Q14.1394 13.2321 14.0672 14.3127L14.0672 14.3127L14.0672 14.3127Q14.0002 15.3154 14.0002 16L13.0002 16L14.0002 16L13.0002 16L14.0002 16Q14.0002 16.6846 14.0672 17.6873L13.0694 17.754L14.0672 17.6873L13.0694 17.754L14.0672 17.6873L14.0672 17.6873Q14.1394 18.7679 14.2011 18.8481L14.2011 18.8481L14.2011 18.8481Q14.2332 18.8898 14.3018 18.9292Q14.3704 18.9686 14.4225 18.9753L14.4225 18.9753L14.4225 18.9753Q14.5229 18.9883 15.495 18.5052L15.495 18.5052L15.495 18.5052Q16.298 18.1062 16.838 17.7981L16.838 17.7981L16.838 17.7981Q17.4797 17.432 18.3924 16.8282L18.3924 16.8282ZM19.4959 18.4962L18.9442 17.6622L19.4959 18.4962Q18.5281 19.1364 17.829 19.5353L17.3335 18.6667L17.829 19.5353L17.3335 18.6667L17.829 19.5353Q17.2393 19.8717 16.385 20.2962L15.94 19.4007L16.385 20.2962L15.94 19.4007L16.385 20.2962Q15.6135 20.6797 15.3079 20.7942Q14.689 21.0263 14.1665 20.9588L14.2945 19.9671L14.1665 20.9588L14.2945 19.9671L14.1665 20.9588Q13.7194 20.9011 13.3056 20.6634Q12.8917 20.4256 12.6166 20.0685L13.4089 19.4583L12.6166 20.0685L13.4089 19.4583L12.6166 20.0685Q12.2952 19.6512 12.1839 19.0003Q12.129 18.679 12.0716 17.8206L12.0716 17.8206L12.0716 17.8206L12.0716 17.8206Q12.0002 16.7514 12.0002 16L12.0002 16L12.0002 16Q12.0002 15.2487 12.0716 14.1794L13.0694 14.246L12.0716 14.1794L13.0694 14.246L12.0716 14.1794Q12.129 13.321 12.1839 12.9997Q12.2952 12.3488 12.6166 11.9315L12.6166 11.9315L12.6166 11.9315Q12.8917 11.5744 13.3056 11.3367Q13.7194 11.0989 14.1665 11.0412L14.2945 12.033L14.1665 11.0412L14.2945 12.033L14.1665 11.0412Q14.689 10.9737 15.3079 11.2058Q15.6134 11.3204 16.385 11.7038L16.385 11.7038L15.94 12.5993L16.385 11.7038L15.94 12.5993L16.385 11.7038Q17.2393 12.1283 17.829 12.4648L17.3335 13.3333L17.829 12.4648L17.3335 13.3333L17.829 12.4647Q18.5281 12.8636 19.4959 13.5038L18.9442 14.3378L19.4959 13.5038L18.9442 14.3378L19.4959 13.5038Q20.2215 13.9838 20.4757 14.1922Q20.9909 14.6145 21.1943 15.1031L20.2711 15.4875L21.1943 15.1031L20.2711 15.4875L21.1943 15.1031Q21.3684 15.5214 21.3684 16Q21.3684 16.4787 21.1943 16.8969L20.2711 16.5125L21.1943 16.8969L20.2711 16.5125L21.1943 16.8969Q20.9908 17.3855 20.4757 17.8078Q20.2215 18.0162 19.4959 18.4962L19.4959 18.4962ZM16.6668 26.3334L20.1335 26.3334L20.1335 27.3334L20.1335 26.3334L20.1335 27.3334L20.1335 26.3334Q21.5258 26.3334 22.0958 26.3244Q22.9875 26.3104 23.555 26.264Q24.6923 26.1711 25.3008 25.8611L25.7548 26.7521L25.3008 25.8611L25.7548 26.7521L25.3008 25.8611Q25.9123 25.5495 26.3976 25.0642Q26.8829 24.5788 27.1945 23.9673L28.0855 24.4213L27.1945 23.9673L28.0855 24.4213L27.1945 23.9673Q27.5046 23.3588 27.5975 22.2215Q27.6439 21.654 27.6579 20.7623Q27.6668 20.1923 27.6668 18.8L28.6668 18.8L27.6668 18.8L27.6668 13.2L28.6668 13.2L27.6668 13.2L28.6668 13.2L27.6668 13.2Q27.6668 11.8077 27.6579 11.2377Q27.6439 10.346 27.5975 9.77853Q27.5046 8.64122 27.1945 8.03273L27.1945 8.03273L27.1945 8.03273Q26.8829 7.4212 26.3976 6.93589Q25.9123 6.45057 25.3008 6.13899L25.7548 5.24799L25.3008 6.13899L25.7548 5.24799L25.3008 6.13899Q24.6923 5.82894 23.555 5.73602Q22.9875 5.68966 22.0958 5.67564Q21.5258 5.66668 20.1335 5.66668L20.1335 4.66669L20.1335 5.66668L11.8668 5.66668L11.8668 4.66669L11.8668 5.66668L11.8668 4.66669L11.8668 5.66668Q10.4746 5.66668 9.90454 5.67564Q9.01284 5.68965 8.44534 5.73602Q7.30803 5.82894 6.69953 6.13899L6.69953 6.13899L6.69953 6.13899Q6.08801 6.45058 5.6027 6.93589Q5.11738 7.4212 4.8058 8.03273L4.8058 8.03273L4.8058 8.03273Q4.49575 8.64122 4.40283 9.77853Q4.35646 10.346 4.34245 11.2377Q4.33349 11.8077 4.33349 13.2L3.3335 13.2L4.33349 13.2L4.33349 16L2.3335 16L2.3335 13.2L2.3335 13.2Q2.3335 11.792 2.34271 11.2063Q2.35776 10.2488 2.40949 9.61567Q2.47139 8.85801 2.60536 8.2891Q2.75562 7.65108 3.02379 7.12475L3.91479 7.57874L3.02379 7.12475L3.91479 7.57874L3.02379 7.12475Q3.47919 6.23098 4.18849 5.52168Q4.89779 4.81238 5.79156 4.35698L6.24555 5.24799L5.79156 4.35698L6.24555 5.24799L5.79156 4.35699Q6.31789 4.08881 6.95591 3.93856Q7.52482 3.80458 8.28248 3.74268Q8.91559 3.69095 9.87311 3.6759Q10.4588 3.66669 11.8668 3.66669L11.8668 3.66669L11.8668 3.66669L20.1335 3.66669L20.1335 3.66669Q21.5415 3.66669 22.1272 3.6759Q23.0847 3.69095 23.7178 3.74268Q24.4755 3.80458 25.0444 3.93856Q25.6824 4.08881 26.2088 4.35699L26.2088 4.35699L26.2088 4.35699Q27.1025 4.81238 27.8118 5.52168Q28.5211 6.23098 28.9765 7.12475L28.0855 7.57874L28.9765 7.12475L28.0855 7.57874L28.9765 7.12475Q29.2447 7.65107 29.395 8.2891Q29.5289 8.85801 29.5908 9.61567Q29.6426 10.2488 29.6576 11.2063Q29.6668 11.7921 29.6668 13.2L29.6668 13.2L29.6668 13.2L29.6668 18.8L29.6668 18.8Q29.6668 20.2079 29.6576 20.7937Q29.6426 21.7513 29.5908 22.3844Q29.5289 23.142 29.395 23.7109Q29.2447 24.349 28.9765 24.8753L28.9765 24.8753L28.9765 24.8753Q28.5211 25.7691 27.8118 26.4784Q27.1025 27.1877 26.2088 27.6431L26.2088 27.6431L26.2088 27.6431Q25.6824 27.9112 25.0444 28.0615Q24.4755 28.1955 23.7178 28.2574Q23.0847 28.3091 22.1272 28.3241Q21.5414 28.3333 20.1335 28.3333L20.1335 28.3333L20.1335 28.3333L16.6668 28.3333L16.6668 26.3334ZM16.838 14.2019L17.3335 13.3333L16.838 14.2019L16.838 14.2019ZM16.838 17.7981L17.3335 18.6667L16.838 17.7981L16.838 17.7981ZM12.0002 16L13.0002 16L12.0002 16L12.0002 16ZM3.3335 17C2.78121 17 2.3335 16.5523 2.3335 16C2.3335 15.4477 2.78121 15 3.3335 15C3.88578 15 4.33349 15.4477 4.33349 16C4.33349 16.5523 3.88578 17 3.3335 17ZM16.6668 28.3333C16.1145 28.3333 15.6668 27.8856 15.6668 27.3334C15.6668 26.7811 16.1145 26.3334 16.6668 26.3334C17.2191 26.3334 17.6668 26.7811 17.6668 27.3334C17.6668 27.8856 17.2191 28.3333 16.6668 28.3333Z"></path></svg>