<svg xmlns="http://www.w3.org/2000/svg" xmlns:xlink="http://www.w3.org/1999/xlink" width="32" height="32" viewBox="0 0 32 32" fill="none"><path   fill="rgba(255, 255, 255, 1)" style="mix-blend-mode:normal" d="M18.0035 5.66669L8.6635 5.66669L8.6635 3.66669L18.0035 3.66669L18.0035 5.66669ZM21.6635 9.33669C21.6635 7.31533 20.0249 5.66669 18.0035 5.66669L18.0035 3.66669C21.1294 3.66669 23.6635 6.21076 23.6635 9.33669L21.6635 9.33669ZM0.333496 18.7967L0.333496 13.3367L2.3335 13.3367L2.3335 18.7967L0.333496 18.7967ZM1.02249 24.8707M1.02249 24.8707Q0.754841 24.3454 0.604852 23.709Q0.471118 23.1416 0.409324 22.3865Q0.357699 21.7555 0.342681 20.8018Q0.333495 20.2185 0.333496 18.8166L0.333496 18.8116L0.333496 18.8067L0.333496 18.8017L0.333496 18.7967L2.3335 18.7967L2.3335 18.8017L2.3335 18.8067L2.3335 18.8116L2.3335 18.8166Q2.33349 20.2027 2.34243 20.7703Q2.35641 21.6581 2.40266 22.2233Q2.49534 23.3559 2.8045 23.9627L1.02249 24.8707ZM3.78951 27.6477M3.78951 27.6477Q2.89671 27.1928 2.18457 26.4761Q1.47841 25.7655 1.02249 24.8707L2.8045 23.9627Q3.11809 24.5781 3.60326 25.0664Q4.08983 25.5561 4.69749 25.8657L3.78951 27.6477ZM9.8635 28.3367M9.8635 28.3367Q9.84356 28.3367 9.84356 28.3367Q8.44175 28.3367 7.85837 28.3275Q6.90462 28.3125 6.27373 28.2609Q5.51856 28.1991 4.95115 28.0653Q4.31479 27.9153 3.78951 27.6477L4.69749 25.8657Q5.30426 26.1748 6.43683 26.2675Q7.00205 26.3138 7.88986 26.3278Q8.45749 26.3367 9.84356 26.3367Q9.84356 26.3367 9.8635 26.3367L9.8635 28.3367ZM14.1335 28.3367L9.8635 28.3367L9.8635 26.3367L14.1335 26.3367L14.1335 28.3367ZM20.2075 27.6477M20.2075 27.6477Q19.6822 27.9153 19.0458 28.0653Q18.4784 28.1991 17.7233 28.2609Q17.0924 28.3125 16.1386 28.3275Q15.5552 28.3367 14.1534 28.3367L14.1484 28.3367L14.1435 28.3367L14.1335 28.3367L14.1335 26.3367L14.1435 26.3367L14.1484 26.3367L14.1534 26.3367Q15.5395 26.3367 16.1071 26.3278Q16.9949 26.3138 17.5602 26.2675Q18.6927 26.1748 19.2995 25.8657L20.2075 27.6477ZM22.9745 24.8707M22.9745 24.8707Q22.5186 25.7655 21.8124 26.4761Q21.1003 27.1928 20.2075 27.6477L19.2995 25.8657Q19.9072 25.5561 20.3937 25.0664Q20.8789 24.5781 21.1925 23.9627L22.9745 24.8707ZM23.6635 18.7967M23.6635 18.7967Q23.6635 18.8166 23.6635 18.8166Q23.6635 20.2184 23.6543 20.8018Q23.6393 21.7556 23.5877 22.3865Q23.5259 23.1416 23.3921 23.709Q23.2422 24.3454 22.9745 24.8707L21.1925 23.9627Q21.5017 23.3559 21.5943 22.2234Q21.6406 21.6581 21.6546 20.7703Q21.6635 20.2027 21.6635 18.8166Q21.6635 18.8166 21.6635 18.7967L23.6635 18.7967ZM23.6635 17.3367L23.6635 18.7967L21.6635 18.7967L21.6635 17.3367L23.6635 17.3367ZM23.7192 16.1465M23.7192 16.1465Q23.685 16.2733 23.6734 16.5029Q23.6635 16.7004 23.6635 17.3002Q23.6635 17.3002 23.6635 17.3367L21.6635 17.3367Q21.6635 17.3002 21.6635 17.3002Q21.6635 16.6499 21.676 16.402Q21.6983 15.9595 21.7878 15.6269L23.7192 16.1465ZM23.9713 15.6222M23.9713 15.6222Q23.7915 15.8777 23.7192 16.1465L21.7878 15.6269Q21.9521 15.0162 22.3357 14.4712L23.9713 15.6222ZM24.8437 14.8249M24.8437 14.8249Q24.8213 14.8436 24.7879 14.8714Q24.3444 15.2409 24.2051 15.3696Q24.0448 15.5177 23.9713 15.6222L22.3357 14.4712Q22.5314 14.193 22.8477 13.9008Q23.0247 13.7372 23.5078 13.3347Q23.5412 13.3069 23.5633 13.2885L24.8437 14.8249ZM26.058 13.8013L24.848 14.8213L23.559 13.2921L24.769 12.2721L26.058 13.8013ZM28.6486 11.9366M28.6486 11.9366Q28.4643 11.9394 27.9533 12.2912Q27.4755 12.6201 26.0537 13.8049L24.7733 12.2685Q26.2657 11.0248 26.8192 10.6438Q27.2888 10.3205 27.6704 10.1554Q28.1594 9.94372 28.6184 9.9368L28.6486 11.9366ZM29.4457 12.3052M29.4457 12.3052Q29.306 12.1324 29.0963 12.036Q28.8804 11.9367 28.6335 11.9367L28.6335 9.93669Q29.3182 9.93669 29.9318 10.2188Q30.5672 10.511 31.0013 11.0482L29.4457 12.3052ZM29.6635 15.4967M29.6635 15.4967L29.6635 15.4927L29.6635 15.4887L29.6635 15.4847L29.6635 15.4807L29.6635 15.4767L29.6635 15.4727L29.6635 15.4687L29.6635 15.4647L29.6635 15.4607L29.6635 15.4567L29.6635 15.4527L29.6635 15.4487L29.6635 15.4408L29.6635 15.4368L29.6635 15.4328Q29.6635 13.6069 29.6127 13.0483Q29.5576 12.4437 29.4457 12.3052L31.0013 11.0482Q31.2883 11.4033 31.4374 11.911Q31.5533 12.3058 31.6044 12.8669Q31.6635 13.516 31.6635 15.4329L31.6635 15.4368L31.6635 15.4408L31.6635 15.4488L31.6635 15.4527L31.6635 15.4567L31.6635 15.4607L31.6635 15.4647L31.6635 15.4687L31.6635 15.4727L31.6635 15.4767L31.6635 15.4807L31.6635 15.4847L31.6635 15.4887L31.6635 15.4927L31.6635 15.4967L29.6635 15.4967ZM29.6635 16.7367L29.6635 15.4967L31.6635 15.4967L31.6635 16.7367L29.6635 16.7367ZM29.5754 18.9278M29.5754 18.9278Q29.6194 18.8326 29.6426 18.4147Q29.6636 18.0379 29.6635 16.8262Q29.6635 16.7573 29.6635 16.7367L31.6635 16.7367Q31.6635 16.7571 31.6635 16.8261Q31.6636 18.0934 31.6395 18.5258Q31.5951 19.3242 31.3916 19.7655L29.5754 18.9278ZM28.3194 19.4384M28.3194 19.4384Q28.6903 19.5751 29.0533 19.4267Q29.4132 19.2796 29.5754 18.9278L31.3916 19.7655Q31.1493 20.2906 30.7309 20.6855Q30.3267 21.0668 29.8102 21.278Q29.2956 21.4884 28.74 21.501Q28.1675 21.514 27.6276 21.3149L28.3194 19.4384ZM26.7106 17.9596M26.7106 17.9596L26.7111 17.9601Q27.6018 18.8508 27.892 19.1106Q28.2152 19.4 28.3194 19.4384L27.6276 21.3149Q27.1653 21.1445 26.5578 20.6006Q26.2266 20.304 25.2969 19.3743L25.2964 19.3738L26.7106 17.9596ZM1.02249 24.8707L1.9135 24.4167L1.02249 24.8707L1.02249 24.8707ZM4.69749 25.8657L4.2435 26.7567L4.69749 25.8657L4.69749 25.8657ZM19.2995 25.8657L19.7535 26.7567L19.2995 25.8657L19.2995 25.8657ZM21.1925 23.9627L22.0835 24.4167L21.1925 23.9627L21.1925 23.9627ZM21.7878 15.6269L22.7535 15.8867L21.7878 15.6269L21.7878 15.6269L21.7878 15.6269ZM22.3357 14.4712L23.1535 15.0467L22.3357 14.4712L22.3357 14.4712ZM24.8437 14.8249L24.2035 14.0567L24.848 14.8213L24.8459 14.8231L24.8437 14.8249ZM24.7733 12.2685L25.4135 13.0367L24.769 12.2721L24.7711 12.2703L24.7733 12.2685ZM28.6335 9.93669L28.6335 10.9367L28.6184 9.9368L28.626 9.93669L28.6335 9.93669ZM31.0013 11.0482L30.2235 11.6767L31.0013 11.0482L31.0013 11.0482L31.0013 11.0482ZM31.3916 19.7655L30.4835 19.3467L31.3916 19.7655L31.3916 19.7655L31.3916 19.7655ZM27.6276 21.3149L27.9735 20.3767L27.6276 21.3149L27.6276 21.3149L27.6276 21.3149ZM8.66683 5.66669C8.11454 5.66669 7.66683 5.21897 7.66683 4.66669C7.66683 4.1144 8.11454 3.66669 8.66683 3.66669C9.21911 3.66669 9.66683 4.1144 9.66683 4.66669C9.66683 5.21897 9.21911 5.66669 8.66683 5.66669ZM1.3335 14.3334C0.781211 14.3334 0.333496 13.8856 0.333496 13.3334C0.333496 12.7811 0.781211 12.3334 1.3335 12.3334C1.88578 12.3334 2.3335 12.7811 2.3335 13.3334C2.3335 13.8856 1.88578 14.3334 1.3335 14.3334ZM26.0002 19.6667C25.4479 19.6667 25.0002 19.219 25.0002 18.6667C25.0002 18.1144 25.4479 17.6667 26.0002 17.6667C26.5524 17.6667 27.0002 18.1144 27.0002 18.6667C27.0002 19.219 26.5524 19.6667 26.0002 19.6667ZM22.6668 10.3334C22.1145 10.3334 21.6668 9.88564 21.6668 9.33335C21.6668 8.78107 22.1145 8.33335 22.6668 8.33335C23.2191 8.33335 23.6668 8.78107 23.6668 9.33335C23.6668 9.88564 23.2191 10.3334 22.6668 10.3334Z"></path><path    style="mix-blend-mode:normal" fill="#9DFF82"  d="M3.5624 4.80727C3.65973 4.33109 4.34011 4.33109 4.43744 4.80727C4.6524 5.85898 5.47429 6.68087 6.526 6.89583C7.00218 6.99316 7.00218 7.67354 6.526 7.77087C5.47429 7.98583 4.6524 8.80773 4.43744 9.85943C4.34011 10.3356 3.65973 10.3356 3.5624 9.85943C3.34744 8.80773 2.52554 7.98583 1.47384 7.77087C0.997653 7.67354 0.997653 6.99316 1.47384 6.89583C2.52554 6.68087 3.34744 5.85898 3.5624 4.80727Z"></path><path   fill="rgba(157, 255, 130, 1)" style="mix-blend-mode:normal" d="M10.9809 11.3265C11.2077 10.2171 12.7927 10.2171 13.0195 11.3265Q13.3015 12.7066 14.2976 13.7026Q15.2936 14.6987 16.6737 14.9807C17.7831 15.2075 17.7831 16.7925 16.6737 17.0193Q15.2936 17.3014 14.2976 18.2974Q13.3015 19.2935 13.0195 20.6736C12.7927 21.7829 11.2077 21.7829 10.9809 20.6736Q10.6988 19.2935 9.70279 18.2974Q8.70674 17.3014 7.32664 17.0193C6.21729 16.7925 6.21729 15.2075 7.32664 14.9807Q8.70674 14.6987 9.70279 13.7026Q10.6988 12.7066 10.9809 11.3265L10.9809 11.3265ZM12.9404 11.727Q12.7413 12.7013 12.2686 13.5736Q11.8053 14.4285 11.117 15.1168Q10.4287 15.8051 9.57382 16.2684Q8.70145 16.7411 7.72715 16.9402C8.75046 16.7311 8.75046 15.2689 7.72714 15.0598Q8.70145 15.2589 9.57382 15.7316Q10.4287 16.1949 11.117 16.8832Q11.8053 17.5715 12.2686 18.4264Q12.7413 19.2987 12.9404 20.273C12.7312 19.2497 11.2691 19.2497 11.06 20.273Q11.2591 19.2987 11.7318 18.4264Q12.1951 17.5715 12.8834 16.8832Q13.5717 16.1949 14.4266 15.7316Q15.2989 15.2589 16.2733 15.0598C15.2499 15.2689 15.2499 16.7311 16.2732 16.9402Q15.2989 16.7411 14.4266 16.2684Q13.5717 15.8051 12.8834 15.1168Q12.1951 14.4285 11.7318 13.5736Q11.2591 12.7013 11.06 11.727C11.2691 12.7503 12.7312 12.7503 12.9404 11.727L12.9404 11.727Z"></path></svg>