<svg xmlns="http://www.w3.org/2000/svg" xmlns:xlink="http://www.w3.org/1999/xlink" width="32" height="32" viewBox="0 0 32 32" fill="none"><path    style="mix-blend-mode:normal" fill="#9DFF82"  d="M9.5624 9.4739C9.65973 8.99771 10.3401 8.99771 10.4374 9.4739C10.6524 10.5256 11.4743 11.3475 12.526 11.5625C13.0022 11.6598 13.0022 12.3402 12.526 12.4375C11.4743 12.6525 10.6524 13.4744 10.4374 14.5261C10.3401 15.0022 9.65973 15.0022 9.5624 14.5261C9.34744 13.4744 8.52554 12.6525 7.47384 12.4375C6.99765 12.3402 6.99765 11.6598 7.47384 11.5625C8.52554 11.3475 9.34744 10.5256 9.5624 9.4739Z"></path><g opacity="0"><path   fill="rgba(255, 255, 255, 1)" style="mix-blend-mode:normal" d="M11.6665 11.3333L11.6665 13.3333L9.6665 13.3333L9.6665 11.3333L11.6665 11.3333ZM10.6665 12.3333C10.1142 12.3333 9.6665 11.8856 9.6665 11.3333C9.6665 10.781 10.1142 10.3333 10.6665 10.3333C11.2188 10.3333 11.6665 10.781 11.6665 11.3333C11.6665 11.8856 11.2188 12.3333 10.6665 12.3333ZM10.6665 14.3333C10.1142 14.3333 9.6665 13.8856 9.6665 13.3333C9.6665 12.781 10.1142 12.3333 10.6665 12.3333C11.2188 12.3333 11.6665 12.781 11.6665 13.3333C11.6665 13.8856 11.2188 14.3333 10.6665 14.3333Z"></path></g><path   fill="rgba(255, 255, 255, 1)" style="mix-blend-mode:normal" d="M18.2661 17.6824M18.2661 17.6824Q17.2681 17.882 16.9067 17.9229Q16.1768 18.0055 15.6892 17.8098L16.0617 16.8818L15.6892 17.8098L16.0617 16.8818L15.6892 17.8098Q15.1742 17.6031 14.8074 17.1867Q14.4406 16.7703 14.3005 16.2333L15.2681 15.9809L14.3005 16.2333L15.2681 15.9809L14.3005 16.2333Q14.1679 15.7249 14.3419 15.0113Q14.4281 14.6579 14.752 13.6931L14.752 13.6931L14.752 13.6931L17.6181 5.15579L18.5661 5.47405L17.6181 5.15579L18.5661 5.47405L17.6181 5.15579Q17.6597 5.03188 17.6752 4.98854L17.6752 4.98854L17.6752 4.98854Q17.9342 4.26165 18.3989 3.64804Q18.8537 3.04764 19.4659 2.60734Q20.0782 2.16705 20.7921 1.92702Q21.5217 1.68171 22.2932 1.66753L22.3116 2.66736L22.2932 1.66753L22.3116 2.66736L22.2932 1.66753Q22.3392 1.66668 22.47 1.66668L22.47 2.66669L22.47 1.66668L22.47 2.66669L22.47 1.66668Q22.7553 1.66668 22.844 1.66874L22.8209 2.66847L22.844 1.66874L22.8209 2.66847L22.844 1.66874Q24.3534 1.70369 25.7284 2.30309Q27.0583 2.8828 28.0877 3.9122Q29.1171 4.94159 29.6968 6.27144Q30.2962 7.64642 30.3311 9.15584L30.3311 9.15584L30.3311 9.15584Q30.3332 9.24462 30.3332 9.52991L29.3332 9.52991L30.3332 9.52991L30.3332 18.6667L29.3332 18.6667L30.3332 18.6667L29.3332 18.6667L30.3332 18.6667Q30.3332 20.4247 30.3217 21.1549Q30.303 22.3436 30.239 23.1268Q30.1632 24.0552 30 24.748Q29.8191 25.5162 29.4976 26.1473L28.6065 25.6933L29.4976 26.1473L28.6065 25.6933L29.4976 26.1473Q28.9463 27.2292 28.0877 28.0878Q27.229 28.9465 26.1471 29.4977L25.6931 28.6067L26.1471 29.4977L25.6931 28.6067L26.1471 29.4977Q25.516 29.8193 24.7479 30.0002Q24.055 30.1634 23.1266 30.2392Q22.3434 30.3032 21.1547 30.3219Q20.4245 30.3334 18.6665 30.3334L18.6665 29.3334L18.6665 30.3334L13.3332 30.3334L13.3332 29.3334L13.3332 30.3334L13.3332 29.3334L13.3332 30.3334Q11.5752 30.3334 10.8449 30.3219Q9.65629 30.3032 8.87309 30.2392Q7.9447 30.1634 7.25182 30.0002Q6.48363 29.8193 5.85257 29.4977L6.30657 28.6067L5.85258 29.4977L6.30657 28.6067L5.85258 29.4977Q4.77064 28.9465 3.91201 28.0878Q3.05339 27.2292 2.50212 26.1473L3.39313 25.6933L2.50212 26.1473L3.39313 25.6933L2.50212 26.1473Q2.18058 25.5162 1.99967 24.748Q1.8365 24.0552 1.76065 23.1268Q1.69666 22.3436 1.67797 21.1549Q1.6665 20.4247 1.6665 18.6667L1.6665 18.6667L2.6665 18.6667L1.6665 18.6667L1.6665 12.1404L2.6665 12.1404L1.6665 12.1404L2.6665 12.1404L1.6665 12.1404Q1.6665 9.82526 1.7133 9.01179Q1.78893 7.69739 2.0819 6.84399L3.02772 7.16869L2.0819 6.84399L3.02772 7.16869L2.0819 6.84399Q2.65782 5.16639 3.91201 3.9122Q5.16621 2.658 6.8438 2.08208L7.16851 3.02791L6.8438 2.08208L7.16851 3.02791L6.8438 2.08208Q7.69721 1.78911 9.01161 1.71348Q9.82508 1.66668 12.1402 1.66668L12.1402 3.66669Q9.88256 3.66669 9.12649 3.71019Q8.08657 3.77003 7.49321 3.97373L7.49321 3.97373L7.49321 3.97373Q6.25325 4.39941 5.32624 5.32642Q4.39923 6.25343 3.97355 7.49339L3.97355 7.49339L3.97355 7.49339Q3.76984 8.08675 3.71001 9.12667Q3.66651 9.88275 3.66651 12.1404L3.66651 12.1404L3.66651 12.1404L3.66651 18.6667L3.66651 18.6667L3.66651 18.6667Q3.66651 20.409 3.67774 21.1235Q3.69539 22.2463 3.75402 22.9639Q3.81765 23.7427 3.94643 24.2896Q4.07206 24.8231 4.28414 25.2393L4.28414 25.2393L4.28414 25.2393Q4.6916 26.039 5.32624 26.6736Q5.96088 27.3083 6.76056 27.7157L6.76056 27.7157L6.76056 27.7157Q7.17678 27.9278 7.71028 28.0534Q8.25711 28.1822 9.03595 28.2458Q9.75357 28.3045 10.8764 28.3221Q11.5908 28.3333 13.3332 28.3333L13.3332 28.3333L13.3332 28.3333L18.6665 28.3333L18.6665 28.3333Q20.4089 28.3333 21.1233 28.3221Q22.2461 28.3045 22.9637 28.2458Q23.7426 28.1822 24.2894 28.0534Q24.8229 27.9278 25.2391 27.7157L25.2391 27.7157L25.2391 27.7157Q26.0388 27.3083 26.6734 26.6736Q27.3081 26.039 27.7155 25.2393L27.7155 25.2393L27.7155 25.2393Q27.9276 24.8231 28.0532 24.2896Q28.182 23.7428 28.2457 22.9639Q28.3043 22.2463 28.3219 21.1235Q28.3332 20.409 28.3332 18.6667L28.3332 18.6667L28.3332 18.6667L28.3332 9.52991L28.3332 9.52991Q28.3332 9.2677 28.3316 9.20215L29.3314 9.179L28.3316 9.20215L29.3314 9.179L28.3316 9.20215Q28.3058 8.08551 27.8634 7.07066Q27.435 6.088 26.6734 5.32642Q25.9119 4.56484 24.9292 4.13647Q23.9144 3.69407 22.7977 3.66821L22.7977 3.66821L22.7977 3.66821Q22.7321 3.66669 22.47 3.66669L22.47 3.66669L22.47 3.66669Q22.3576 3.66669 22.33 3.6672L22.33 3.6672L22.33 3.6672Q21.3938 3.68441 20.6336 4.23109Q19.8734 4.77777 19.5592 5.6598L18.6172 5.32417L19.5592 5.6598L18.6172 5.32417L19.5592 5.6598Q19.5499 5.68588 19.5141 5.79231L19.5141 5.79231L19.5141 5.79231L16.6481 14.3296L15.7001 14.0113L16.6481 14.3296L16.6481 14.3296Q16.2107 15.6324 16.2357 15.7285L16.2357 15.7285L16.2357 15.7285Q16.2782 15.8911 16.4341 15.9537L16.4341 15.9537L16.4341 15.9537Q16.5263 15.9907 17.8739 15.7212L18.2661 17.6824ZM22.3332 11.3334L22.3332 12.6667L20.3332 12.6667L20.3332 11.3334L22.3332 11.3334ZM10.1014 18.6932C13.171 22.3767 18.8286 22.3767 21.8983 18.6932L23.4347 19.9735C19.5655 24.6166 12.4342 24.6166 8.56495 19.9735L10.1014 18.6932ZM18.07 17.7018C17.5177 17.7018 17.07 17.2541 17.07 16.7018C17.07 16.1495 17.5177 15.7018 18.07 15.7018C18.6223 15.7018 19.07 16.1495 19.07 16.7018C19.07 17.2541 18.6223 17.7018 18.07 17.7018ZM12.1402 3.66669C11.5879 3.66669 11.1402 3.21898 11.1402 2.66669C11.1402 2.1144 11.5879 1.66668 12.1402 1.66668C12.6925 1.66668 13.1402 2.1144 13.1402 2.66669C13.1402 3.21898 12.6925 3.66669 12.1402 3.66669ZM21.3332 12.3334C20.7809 12.3334 20.3332 11.8856 20.3332 11.3334C20.3332 10.7811 20.7809 10.3333 21.3332 10.3333C21.8855 10.3333 22.3332 10.7811 22.3332 11.3334C22.3332 11.8856 21.8855 12.3334 21.3332 12.3334ZM21.3332 13.6667C20.7809 13.6667 20.3332 13.219 20.3332 12.6667C20.3332 12.1144 20.7809 11.6667 21.3332 11.6667C21.8855 11.6667 22.3332 12.1144 22.3332 12.6667C22.3332 13.219 21.8855 13.6667 21.3332 13.6667ZM9.33317 20.3334C8.78088 20.3334 8.33317 19.8856 8.33317 19.3334C8.33317 18.7811 8.78088 18.3333 9.33317 18.3333C9.88546 18.3333 10.3332 18.7811 10.3332 19.3334C10.3332 19.8856 9.88546 20.3334 9.33317 20.3334ZM22.6665 20.3334C22.1142 20.3334 21.6665 19.8856 21.6665 19.3334C21.6665 18.7811 22.1142 18.3333 22.6665 18.3333C23.2188 18.3333 23.6665 18.7811 23.6665 19.3334C23.6665 19.8856 23.2188 20.3334 22.6665 20.3334Z"></path></svg>