<svg xmlns="http://www.w3.org/2000/svg" xmlns:xlink="http://www.w3.org/1999/xlink" width="32" height="32" viewBox="0 0 32 32" fill="none"><path    style="mix-blend-mode:normal" fill="#9DFF82"  d="M4.70821 5.05799C4.84725 4.37772 5.81923 4.37772 5.95827 5.05799C6.26535 6.56042 7.43949 7.73456 8.94193 8.04165C9.62219 8.18069 9.62219 9.15266 8.94193 9.2917C7.43949 9.59879 6.26535 10.7729 5.95827 12.2754C5.81923 12.9556 4.84725 12.9556 4.70821 12.2754C4.40113 10.7729 3.22699 9.59879 1.72455 9.2917C1.04429 9.15266 1.04429 8.18069 1.72455 8.04165C3.22699 7.73456 4.40113 6.56042 4.70821 5.05799Z"></path><path   fill="rgba(255, 255, 255, 1)" style="mix-blend-mode:normal" d="M22.0741 5.17849C23.506 3.74657 25.8276 3.74657 27.2595 5.17849L27.2595 5.1785L27.2595 5.1785Q27.7866 5.70551 28.0649 6.39196Q28.3335 7.05422 28.3335 7.77122Q28.3335 8.48822 28.0649 9.15048Q27.7866 9.83693 27.2595 10.3639L27.2595 10.3639L17.0229 20.6006L16.3157 19.8935L17.0229 20.6006L16.3157 19.8935L17.0229 20.6006Q15.9715 21.652 14.6066 22.2417Q13.2417 22.8315 11.7555 22.8765L11.7252 21.877L11.7555 22.8765C10.5287 22.9137 9.52435 21.9093 9.56152 20.6825L9.56152 20.6825L9.56152 20.6825Q9.60656 19.1964 10.1963 17.8315Q10.786 16.4666 11.8374 15.4152L11.8374 15.4152L22.0741 5.17849L22.7812 5.8856L22.0741 5.17849ZM23.4883 6.59271L23.4883 6.59271L13.2516 16.8294L12.5445 16.1223L13.2516 16.8294Q12.4704 17.6106 12.0322 18.6247Q11.5941 19.6389 11.5606 20.7431L10.5611 20.7128L11.5606 20.7431L10.5611 20.7128L11.5606 20.7431C11.5583 20.8182 11.6198 20.8797 11.6949 20.8774L11.6949 20.8774Q12.7992 20.844 13.8133 20.4058Q14.8275 19.9676 15.6086 19.1864L15.6086 19.1864L15.6086 19.1864L25.8453 8.94973L26.5524 9.65684L25.8453 8.94973Q26.3335 8.46157 26.3335 7.77122Q26.3335 7.08086 25.8453 6.59271L26.5524 5.8856L25.8453 6.59271L26.5524 5.8856L25.8453 6.59271C25.1945 5.94183 24.1392 5.94183 23.4883 6.59271ZM13.787 30.6486M13.787 30.6486Q10.5333 29.9386 7.68194 27.9421L8.25551 27.1229L7.68194 27.9421L8.25551 27.1229L7.68194 27.9421Q5.71691 26.5662 4.23362 24.7642Q2.79318 23.0143 1.93743 21.0239Q1.08322 19.0371 0.900293 17.0191Q0.712225 14.9443 1.25428 13.0572L3.17654 13.6094Q2.73786 15.1366 2.89213 16.8385Q3.04632 18.5396 3.7748 20.2339Q4.51817 21.9629 5.77778 23.4931Q7.08762 25.0844 8.82909 26.3038L8.82909 26.3038L8.82909 26.3038Q11.3517 28.0702 14.2133 28.6945L13.787 30.6486ZM24.5353 12.0327M24.5353 12.0327Q25.8465 13.6324 26.6522 15.3977Q27.3939 17.0229 27.6518 18.6595Q27.8949 20.2022 27.6821 21.5642Q27.468 22.9344 26.8322 23.888L26.0002 23.3333L26.8322 23.888L26.0002 23.3333L26.8322 23.888Q25.7321 25.5383 23.9623 26.1706Q22.584 26.6631 20.9021 26.4952Q19.7438 26.3795 18.5495 25.9663Q17.9455 25.7573 17.553 25.5611L17.553 25.5611L18.4474 23.7722L18.4473 23.7722Q18.723 23.91 19.2034 24.0763Q20.176 24.4128 21.1008 24.5051Q23.8352 24.7781 25.1681 22.7786L25.1681 22.7786L25.1681 22.7786Q25.5599 22.191 25.706 21.2555Q25.8704 20.2035 25.6762 18.9708Q25.4609 17.6044 24.8327 16.2281Q24.135 14.6992 22.9885 13.3006L24.5353 12.0327ZM10.5779 5.82685M10.5779 5.82685Q12.898 5.61969 15.3035 6.20098Q17.7619 6.79501 20.0083 8.14244L18.9795 9.85756Q16.9951 8.66729 14.8338 8.14503Q12.7481 7.64104 10.7558 7.81892L10.5779 5.82685ZM7.68194 27.9421L8.25551 27.1229L7.68194 27.9421L7.68194 27.9421ZM25.1681 22.7786L26.0002 23.3333L25.1681 22.7786L25.1681 22.7786ZM14.0002 30.6715C13.4479 30.6715 13.0002 30.2238 13.0002 29.6715C13.0002 29.1193 13.4479 28.6715 14.0002 28.6715C14.5524 28.6715 15.0002 29.1193 15.0002 29.6715C15.0002 30.2238 14.5524 30.6715 14.0002 30.6715ZM23.7619 13.6667C23.2096 13.6667 22.7619 13.219 22.7619 12.6667C22.7619 12.1144 23.2096 11.6667 23.7619 11.6667C24.3142 11.6667 24.7619 12.1144 24.7619 12.6667C24.7619 13.219 24.3142 13.6667 23.7619 13.6667ZM18.0002 25.6667C17.4479 25.6667 17.0002 25.219 17.0002 24.6667C17.0002 24.1144 17.4479 23.6667 18.0002 23.6667C18.5525 23.6667 19.0002 24.1144 19.0002 24.6667C19.0002 25.219 18.5525 25.6667 18.0002 25.6667ZM2.21541 14.3333C1.66313 14.3333 1.21541 13.8856 1.21541 13.3333C1.21541 12.7811 1.66313 12.3333 2.21541 12.3333C2.7677 12.3333 3.21541 12.7811 3.21541 13.3333C3.21541 13.8856 2.7677 14.3333 2.21541 14.3333ZM10.6668 7.82289C10.1146 7.82289 9.66684 7.37517 9.66684 6.82289C9.66684 6.2706 10.1146 5.82289 10.6668 5.82289C11.2191 5.82289 11.6668 6.2706 11.6668 6.82289C11.6668 7.37517 11.2191 7.82289 10.6668 7.82289ZM19.4939 10C18.9416 10 18.4939 9.55229 18.4939 9C18.4939 8.44772 18.9416 8 19.4939 8C20.0462 8 20.4939 8.44772 20.4939 9C20.4939 9.55229 20.0462 10 19.4939 10Z"></path></svg>