<svg xmlns="http://www.w3.org/2000/svg" xmlns:xlink="http://www.w3.org/1999/xlink" width="32" height="32" viewBox="0 0 32 32" fill="none"><path   fill="rgba(157, 255, 130, 1)" style="mix-blend-mode:normal" d="M22.3084 3.35407C22.5364 2.23858 24.1302 2.23858 24.3582 3.35407Q24.6892 4.97338 25.8579 6.14208Q27.0266 7.31078 28.6459 7.64175C29.7614 7.86976 29.7614 9.46358 28.6459 9.69158Q27.0266 10.0226 25.8579 11.1912Q24.6892 12.3599 24.3582 13.9793C24.1302 15.0947 22.5364 15.0948 22.3084 13.9793Q21.9774 12.3599 20.8087 11.1913Q19.64 10.0226 18.0207 9.69158C16.9052 9.46358 16.9052 7.86975 18.0207 7.64175Q19.64 7.31078 20.8087 6.14208Q21.9774 4.97338 22.3084 3.35408L22.3084 3.35407ZM24.2679 3.75458Q24.0445 4.84728 23.5144 5.82561Q22.9949 6.78433 22.2229 7.55629Q21.451 8.32826 20.4922 8.84776Q19.5139 9.3779 18.4212 9.60124C19.4384 9.39334 19.4384 7.93999 18.4212 7.73209Q19.5139 7.95543 20.4922 8.48557Q21.451 9.00507 22.2229 9.77704Q22.9949 10.549 23.5144 11.5077Q24.0445 12.4861 24.2679 13.5787C24.06 12.5616 22.6066 12.5616 22.3987 13.5788Q22.6221 12.4861 23.1522 11.5077Q23.6717 10.549 24.4437 9.77704Q25.2156 9.00507 26.1743 8.48557Q27.1527 7.95543 28.2454 7.73209C27.2282 7.94 27.2282 9.39333 28.2454 9.60124Q27.1527 9.3779 26.1743 8.84776Q25.2156 8.32826 24.4437 7.55629Q23.6717 6.78433 23.1522 5.82561Q22.6221 4.84728 22.3987 3.75458C22.6066 4.77175 24.06 4.77175 24.2679 3.75458L24.2679 3.75458Z"></path><path    style="mix-blend-mode:normal" fill="#9DFF82"  d="M28.9581 0.501432C29.0416 0.0932727 29.6247 0.0932728 29.7082 0.501432C29.8924 1.40289 30.5969 2.10738 31.4984 2.29163C31.9065 2.37505 31.9065 2.95823 31.4984 3.04166C30.5969 3.22591 29.8924 3.93039 29.7082 4.83185C29.6247 5.24001 29.0416 5.24001 28.9581 4.83185C28.7739 3.93039 28.0694 3.22591 27.1679 3.04166C26.7598 2.95823 26.7598 2.37505 27.1679 2.29163C28.0694 2.10738 28.7739 1.40289 28.9581 0.501432Z"></path><path    stroke="rgba(255, 255, 255, 1)" stroke-width="1.9999999999999996"  stroke-linecap="round" style="mix-blend-mode:normal" d="M18.3335 16C18.3335 17.2886 17.2888 18.3333 16.0002 18.3333C14.7115 18.3333 13.6668 17.2886 13.6668 16C13.6668 14.7113 14.7115 13.6666 16.0002 13.6666C17.2888 13.6666 18.3335 14.7113 18.3335 16ZM14.8205 8.66666C14.3047 8.75319 13.8071 8.89318 13.3335 9.08074C10.6001 10.1632 8.66683 12.8303 8.66683 15.9489C8.66683 20.0272 11.9729 23.3333 16.0512 23.3333C19.1698 23.3333 21.8369 21.4001 22.9194 18.6667C23.107 18.1931 23.247 17.6954 23.3335 17.1797M18.5335 3.58669C17.715 3.42054 16.8677 3.33331 16.0002 3.33331C9.00455 3.33331 3.3335 9.00437 3.3335 16C3.3335 22.9956 9.00455 28.6666 16.0002 28.6666C22.9958 28.6666 28.6668 22.9956 28.6668 16C28.6668 14.9065 28.5283 13.8454 28.2678 12.8333"></path></svg>