<svg width="20" height="20" viewBox="0 0 20 20" fill="none" xmlns="http://www.w3.org/2000/svg">
<path d="M15 3.3335H3.33329C2.41663 3.3335 1.66663 4.0835 1.66663 5.00016V13.3335C1.66663 14.2502 2.41663 15.0002 3.33329 15.0002H9.99996V11.6668C9.99996 10.7502 10.75 10.0002 11.6666 10.0002H16.6666V5.00016C16.6666 4.0835 15.9166 3.3335 15 3.3335Z" fill="#344054"/>
<path d="M17.5 11.6665H12.5C12.0397 11.6665 11.6666 12.0396 11.6666 12.4998V15.8332C11.6666 16.2934 12.0397 16.6665 12.5 16.6665H17.5C17.9602 16.6665 18.3333 16.2934 18.3333 15.8332V12.4998C18.3333 12.0396 17.9602 11.6665 17.5 11.6665Z" fill="#667085"/>
</svg>
