<svg xmlns="http://www.w3.org/2000/svg" xmlns:xlink="http://www.w3.org/1999/xlink" width="24" height="24" viewBox="0 0 24 24" fill="none">
<path d="M11.9006 13.8C11.5931 13.8 11.3579 13.6696 11.2313 13.6137C11.1047 13.5392 5.24427 10.0375 5.08148 9.94435C4.64737 9.70221 4.41223 9.27381 4.41223 8.75227C4.41223 8.417 4.53885 7.93272 5.15383 7.59744L5.96778 7.15041C8.30111 5.84657 10.4897 4.63586 10.6706 4.54273L10.7249 4.52411C10.9962 4.37509 11.3399 4.20746 11.8825 4.20746C12.4613 4.20746 12.8411 4.43097 13.1667 4.59861L13.438 4.74762C16.7843 6.59162 18.4665 7.52294 18.575 7.59744C18.8282 7.72783 19.2804 7.98859 19.3528 8.67777C19.4251 9.23656 19.0995 9.72084 18.7739 9.92573C18.7378 9.92573 12.7869 13.4833 12.5879 13.5951C12.4251 13.6882 12.2262 13.8 11.9006 13.8ZM5.6422 8.78952C5.66029 8.78952 5.66029 8.80815 5.6422 8.78952C5.66029 8.80815 5.66029 8.82678 5.69647 8.82678C5.85926 8.91991 11.7378 12.4216 11.8644 12.4962C11.8825 12.5148 11.9006 12.5148 11.9187 12.5148C11.9368 12.4962 11.9729 12.4775 12.0091 12.4589C12.2081 12.3471 17.8334 8.97579 18.1771 8.7709C18.1409 8.73365 18.0866 8.69639 18.0504 8.67777L18.0143 8.65914C17.9238 8.60326 16.9833 8.08173 12.8954 5.82795L12.606 5.67894C12.3347 5.52992 12.1538 5.43679 11.9187 5.43679C11.6654 5.43679 11.5388 5.5113 11.3218 5.62306L11.2675 5.66031C11.0685 5.75344 7.92127 7.50431 6.58277 8.24936L5.76882 8.69639C5.66029 8.7709 5.6422 8.78952 5.6422 8.78952Z"   fill="#8C8C8C" >
</path>
<path d="M11.8825 17.0596C11.5569 17.0596 11.3218 16.9106 11.1047 16.7802L10.9781 16.7057C10.7068 16.5567 5.24427 13.2784 5.13574 13.2226C4.64737 12.9432 4.41223 12.552 4.41223 12.0864C4.41223 11.7511 4.52076 11.1178 5.24427 10.8011C5.55176 10.6521 5.93161 10.8011 6.05822 11.1178C6.18484 11.4344 6.05822 11.807 5.75073 11.956L5.73264 11.956C5.62411 12.0119 5.62411 12.0119 5.62411 12.0864C5.62411 12.0677 5.67838 12.105 5.71455 12.1236C5.84117 12.1981 11.3218 15.4577 11.575 15.6253L11.7016 15.6999C11.7559 15.7371 11.8282 15.7744 11.8644 15.793C11.9187 15.7744 12.0091 15.7371 12.1719 15.6253C12.2262 15.5881 13.0944 15.0666 14.1616 14.4333C15.7171 13.502 17.8334 12.254 17.96 12.1609L17.9962 12.1422C18.0504 12.105 18.1228 12.0677 18.1409 12.0491L18.1409 12.0119C18.1228 12.0119 18.1047 11.9932 18.0866 11.9746C17.7972 11.807 17.6887 11.4158 17.8515 11.0992C18.0143 10.8011 18.3941 10.6894 18.7016 10.857C19.0453 11.0619 19.4251 11.3786 19.3708 12.105C19.3347 12.8128 18.8644 13.0922 18.6292 13.2412C18.4665 13.3343 16.4225 14.5636 14.7946 15.5322C13.7455 16.1655 12.8773 16.687 12.805 16.7243C12.5337 16.8919 12.19 17.0596 11.8825 17.0596Z"   fill="#8C8C8C" >
</path>
<path d="M11.8825 20.2074C11.5569 20.2074 11.3218 20.0584 11.1047 19.9281L10.9781 19.8722C10.7068 19.7232 5.24427 16.4449 5.13574 16.3891C4.64737 16.1097 4.41223 15.7185 4.41223 15.2529C4.41223 14.9176 4.52076 14.2843 5.24427 13.9677C5.55176 13.8186 5.93161 13.9677 6.05822 14.2843C6.20292 14.6009 6.05822 14.9735 5.75073 15.1225L5.73264 15.1225C5.62411 15.1784 5.62411 15.1784 5.62411 15.2529C5.62411 15.2342 5.67838 15.2715 5.71455 15.2901C5.85926 15.3646 11.3218 18.6242 11.575 18.7919L11.7016 18.8664C11.7559 18.9036 11.8282 18.9409 11.8644 18.9595C11.9187 18.9409 12.0091 18.9036 12.1719 18.7919C12.2262 18.7546 13.0944 18.2331 14.1616 17.5998C15.7171 16.6685 17.8334 15.4205 17.96 15.3274L18.0324 15.2901C18.0866 15.2529 18.159 15.2156 18.1771 15.197L18.1771 15.1597C18.159 15.1597 18.1409 15.1411 18.1228 15.1225C17.8334 14.9548 17.7249 14.5637 17.8876 14.247C18.0504 13.949 18.4303 13.8373 18.7378 14.0049C19.0814 14.2098 19.4613 14.5264 19.407 15.2529C19.3708 15.9607 18.9006 16.2401 18.6654 16.3891C18.5026 16.4822 16.4587 17.7115 14.8308 18.6801C13.7817 19.3134 12.9135 19.8349 12.8412 19.8722C12.5337 20.0398 12.19 20.2074 11.8825 20.2074Z"   fill="#8C8C8C" >
</path>
</svg>
