<svg xmlns="http://www.w3.org/2000/svg" xmlns:xlink="http://www.w3.org/1999/xlink" width="24" height="24" viewBox="0 0 24 24" fill="none">
<g opacity="0">
<rect x="2" y="2" width="19.999998092651367" height="19.99999237060547"   fill="#000000" >
</rect>
</g>
<path d="M13.25 3.66664C13.25 4.03664 13.0892 4.36914 12.8333 4.59832L12.8333 6.16664L17 6.16664C18.3807 6.16664 19.5 7.28591 19.5 8.66664L19.5 17C19.5 18.3807 18.3807 19.5 17 19.5L7 19.5C5.61929 19.5 4.5 18.3807 4.5 17L4.5 8.66664C4.5 7.28591 5.61929 6.16664 7 6.16664L11.1667 6.16664L11.1667 4.59832C10.7385 4.21539 10.6265 3.58996 10.895 3.08221C11.1636 2.57446 11.7436 2.31508 12.3011 2.45342C12.8585 2.59177 13.25 3.09224 13.25 3.66664ZM7 7.83331C6.53976 7.83331 6.16666 8.2064 6.16666 8.66664L6.16666 17C6.16666 17.4602 6.53976 17.8334 7 17.8334L17 17.8334C17.4602 17.8334 17.8334 17.4602 17.8334 17L17.8334 8.66664C17.8334 8.2064 17.4602 7.83331 17 7.83331L7 7.83331ZM3.66666 10.3333L2 10.3333L2 15.3334L3.66666 15.3334L3.66666 10.3333ZM20.3334 10.3333L22 10.3333L22 15.3334L20.3334 15.3334L20.3334 10.3333ZM9.5 14.0833C10.1903 14.0833 10.75 13.5237 10.75 12.8333C10.75 12.143 10.1903 11.5833 9.5 11.5833C8.80965 11.5833 8.25 12.143 8.25 12.8333C8.25 13.5237 8.80965 14.0833 9.5 14.0833ZM14.5 14.0833C15.1904 14.0833 15.75 13.5237 15.75 12.8333C15.75 12.143 15.1904 11.5833 14.5 11.5833C13.8096 11.5833 13.25 12.143 13.25 12.8333C13.25 13.5237 13.8096 14.0833 14.5 14.0833Z"   fill="#2353F4" >
</path>
</svg>
