<svg width="20" height="20" viewBox="0 0 20 20" fill="none" xmlns="http://www.w3.org/2000/svg">
<path d="M15.8333 2.5H4.16663C2.79163 2.5 1.66663 3.625 1.66663 5V13.3333C1.66663 14.7083 2.79163 15.8333 4.16663 15.8333H8.33329L9.99996 17.5L11.6666 15.8333H15.8333C17.2083 15.8333 18.3333 14.7083 18.3333 13.3333V5C18.3333 3.625 17.2083 2.5 15.8333 2.5ZM6.66663 10C6.20829 10 5.83329 9.625 5.83329 9.16667C5.83329 8.70833 6.20829 8.33333 6.66663 8.33333C7.12496 8.33333 7.49996 8.70833 7.49996 9.16667C7.49996 9.625 7.12496 10 6.66663 10ZM9.99996 10C9.54163 10 9.16663 9.625 9.16663 9.16667C9.16663 8.70833 9.54163 8.33333 9.99996 8.33333C10.4583 8.33333 10.8333 8.70833 10.8333 9.16667C10.8333 9.625 10.4583 10 9.99996 10ZM13.3333 10C12.875 10 12.5 9.625 12.5 9.16667C12.5 8.70833 12.875 8.33333 13.3333 8.33333C13.7916 8.33333 14.1666 8.70833 14.1666 9.16667C14.1666 9.625 13.7916 10 13.3333 10Z" fill="#344054"/>
</svg>
