<svg width="20" height="20" viewBox="0 0 20 20" fill="none" xmlns="http://www.w3.org/2000/svg">
<path d="M7.5 2.5H4.16667C3.24619 2.5 2.5 3.24619 2.5 4.16667V7.5C2.5 8.42047 3.24619 9.16667 4.16667 9.16667H7.5C8.42047 9.16667 9.16667 8.42047 9.16667 7.5V4.16667C9.16667 3.24619 8.42047 2.5 7.5 2.5Z" fill="#667085"/>
<path d="M15.8334 2.5H12.5C11.5796 2.5 10.8334 3.24619 10.8334 4.16667V7.5C10.8334 8.42047 11.5796 9.16667 12.5 9.16667H15.8334C16.7538 9.16667 17.5 8.42047 17.5 7.5V4.16667C17.5 3.24619 16.7538 2.5 15.8334 2.5Z" fill="#344054"/>
<path d="M7.5 10.8335H4.16667C3.24619 10.8335 2.5 11.5797 2.5 12.5002V15.8335C2.5 16.754 3.24619 17.5002 4.16667 17.5002H7.5C8.42047 17.5002 9.16667 16.754 9.16667 15.8335V12.5002C9.16667 11.5797 8.42047 10.8335 7.5 10.8335Z" fill="#344054"/>
<path d="M15.8334 10.8335H12.5C11.5796 10.8335 10.8334 11.5797 10.8334 12.5002V15.8335C10.8334 16.754 11.5796 17.5002 12.5 17.5002H15.8334C16.7538 17.5002 17.5 16.754 17.5 15.8335V12.5002C17.5 11.5797 16.7538 10.8335 15.8334 10.8335Z" fill="#667085"/>
</svg>
