<svg width="22" height="22" viewBox="0 0 22 22" fill="none" xmlns="http://www.w3.org/2000/svg">
<path d="M0 4C0 1.79086 1.79086 0 4 0H18C20.2091 0 22 1.79086 22 4V18C22 20.2091 20.2091 22 18 22H4C1.79086 22 0 20.2091 0 18V4Z" fill="#EEF4FD"/>
<path d="M8.5 3.5H5.16667C4.24619 3.5 3.5 4.24619 3.5 5.16667V8.5C3.5 9.42047 4.24619 10.1667 5.16667 10.1667H8.5C9.42047 10.1667 10.1667 9.42047 10.1667 8.5V5.16667C10.1667 4.24619 9.42047 3.5 8.5 3.5Z" fill="#0065FB" fill-opacity="0.5"/>
<path d="M16.8333 3.5H13.5C12.5795 3.5 11.8333 4.24619 11.8333 5.16667V8.5C11.8333 9.42047 12.5795 10.1667 13.5 10.1667H16.8333C17.7538 10.1667 18.5 9.42047 18.5 8.5V5.16667C18.5 4.24619 17.7538 3.5 16.8333 3.5Z" fill="#0065FB"/>
<path d="M8.5 11.833H5.16667C4.24619 11.833 3.5 12.5792 3.5 13.4997V16.833C3.5 17.7535 4.24619 18.4997 5.16667 18.4997H8.5C9.42047 18.4997 10.1667 17.7535 10.1667 16.833V13.4997C10.1667 12.5792 9.42047 11.833 8.5 11.833Z" fill="#0065FB"/>
<path d="M16.8333 11.833H13.5C12.5795 11.833 11.8333 12.5792 11.8333 13.4997V16.833C11.8333 17.7535 12.5795 18.4997 13.5 18.4997H16.8333C17.7538 18.4997 18.5 17.7535 18.5 16.833V13.4997C18.5 12.5792 17.7538 11.833 16.8333 11.833Z" fill="#0065FB" fill-opacity="0.5"/>
</svg>
