<svg xmlns="http://www.w3.org/2000/svg" xmlns:xlink="http://www.w3.org/1999/xlink" width="24" height="24" viewBox="0 0 24 24" fill="none">
<g opacity="0">
<rect x="3" y="3" width="17.99993896484375" height="18"   fill="#000000" >
</rect>
</g>
<path d="M16.264 20.0352C16.0768 19.7248 16.1571 19.3224 16.4509 19.1104C18.5976 17.5633 19.7862 15.0411 19.5727 12.3279C19.2919 8.75762 16.4544 5.81573 12.8965 5.406C8.30828 4.87759 4.40262 8.46705 4.40262 12.9516C4.40262 14.3843 4.79478 15.7563 5.54185 16.9564C5.73275 17.263 5.65329 17.6646 5.36343 17.8802C5.03437 18.1251 4.5631 18.0379 4.34653 17.6895C3.40523 16.1757 2.94082 14.4315 3.00603 12.6158C3.16336 8.24047 6.53342 4.5473 10.8798 4.01978C16.3406 3.35691 21 7.62031 21 12.9516C21 15.8802 19.6205 18.5551 17.274 20.2461C16.9425 20.4849 16.475 20.3851 16.264 20.0352Z"   fill="#2353F4" >
</path>
<path d="M8.93599 12.3286C8.5382 12.3286 8.21582 12.0062 8.21582 11.6084L8.21582 10.8671C8.21582 10.4694 8.5382 10.147 8.93599 10.147C9.33379 10.147 9.65617 10.4694 9.65617 10.8671L9.65617 11.6084C9.65617 12.0062 9.33361 12.3286 8.93599 12.3286ZM11.7884 12.3286C11.3906 12.3286 11.0682 12.0062 11.0682 11.6084L11.0682 10.8671C11.0682 10.4694 11.3906 10.147 11.7884 10.147C12.1862 10.147 12.5086 10.4694 12.5086 10.8671L12.5086 11.6084C12.5087 12.0062 12.1862 12.3286 11.7884 12.3286ZM10.3231 15.626C9.90155 15.626 9.3475 15.4128 8.90014 15.1734C8.54383 14.9827 8.47298 14.5028 8.75881 14.217C8.94724 14.0286 9.23711 13.9852 9.47054 14.1136C9.73773 14.2606 10.0918 14.424 10.3451 14.424C10.6564 14.424 10.9552 14.3418 11.2167 14.188C11.4481 14.052 11.7429 14.0975 11.9325 14.2872L11.9636 14.3182C12.2356 14.5902 12.1929 15.0551 11.8626 15.2524C11.4085 15.5236 10.8659 15.626 10.3231 15.626Z"   fill="#2353F4" >
</path>
</svg>
