<svg width="22" height="22" viewBox="0 0 22 22" fill="none" xmlns="http://www.w3.org/2000/svg">
<path d="M0 4C0 1.79086 1.79086 0 4 0H18C20.2091 0 22 1.79086 22 4V18C22 20.2091 20.2091 22 18 22H4C1.79086 22 0 20.2091 0 18V4Z" fill="#0065FB" fill-opacity="0.06"/>
<path opacity="0.5" fill-rule="evenodd" clip-rule="evenodd" d="M16.6084 19.3332H5.39177C4.39177 19.3332 3.61677 18.4582 3.74177 17.4582L3.79177 17.0415C4.10844 14.5415 6.23344 12.6582 8.7501 12.6582H13.2584C15.7834 12.6582 17.9084 14.5332 18.2168 17.0415L18.2668 17.4582C18.3918 18.4499 17.6168 19.3332 16.6168 19.3332H16.6084Z" fill="#0065FB"/>
<path d="M11 11.0003C13.3012 11.0003 15.1667 9.13485 15.1667 6.83366C15.1667 4.53247 13.3012 2.66699 11 2.66699C8.69885 2.66699 6.83337 4.53247 6.83337 6.83366C6.83337 9.13485 8.69885 11.0003 11 11.0003Z" fill="#0065FB"/>
</svg>
