<svg width="20" height="20" viewBox="0 0 20 20" fill="none" xmlns="http://www.w3.org/2000/svg">
<path fill-rule="evenodd" clip-rule="evenodd" d="M15.6084 18.3332H4.39177C3.39177 18.3332 2.61677 17.4582 2.74177 16.4582L2.79177 16.0415C3.10844 13.5415 5.23344 11.6582 7.7501 11.6582H12.2584C14.7834 11.6582 16.9084 13.5332 17.2168 16.0415L17.2668 16.4582C17.3918 17.4499 16.6168 18.3332 15.6168 18.3332H15.6084Z" fill="#667085"/>
<path d="M10 9.99984C12.3012 9.99984 14.1667 8.13436 14.1667 5.83317C14.1667 3.53198 12.3012 1.6665 10 1.6665C7.69885 1.6665 5.83337 3.53198 5.83337 5.83317C5.83337 8.13436 7.69885 9.99984 10 9.99984Z" fill="#344054"/>
</svg>
