<svg xmlns="http://www.w3.org/2000/svg" xmlns:xlink="http://www.w3.org/1999/xlink" width="24" height="24" viewBox="0 0 24 24" fill="none">
<g opacity="0">
<rect x="2" y="2" width="19.999991416931152" height="19.999990463256836"   fill="#000000" >
</rect>
</g>
<path d="M14.4004 20.5996L4.80078 20.5996C3.47656 20.5996 2.40039 19.5235 2.40039 18.1993L2.40039 16.5996C2.40039 13.5117 4.91211 11 8 11L11.1992 11C14.2871 11 16.7989 13.5117 16.7989 16.5996L16.7989 18.1993C16.8008 19.5235 15.7226 20.5996 14.4004 20.5996ZM8 12.5996C5.79493 12.5996 4 14.3945 4 16.5996L4 18.1993C4 18.6406 4.35938 19 4.80078 19L14.4004 19C14.8417 19 15.2011 18.6406 15.2011 18.1993L15.2011 16.5996C15.2011 14.3945 13.4062 12.5996 11.2012 12.5996L8 12.5996ZM19.836 18.5996C19.3945 18.5996 19.0351 18.2421 19.0351 17.7989C19.0351 17.3555 19.3926 16.998 19.836 16.998C19.9258 16.998 20 16.9219 20 16.834L20 15.8691C20 14.7149 19.0605 13.7754 17.9063 13.7754C17.4649 13.7754 17.1055 13.418 17.1055 12.9746C17.1055 12.5312 17.4629 12.1738 17.9063 12.1738C19.9434 12.1738 21.5996 13.8301 21.5996 15.8672L21.5996 16.832C21.5996 17.8086 20.8086 18.5996 19.836 18.5996ZM8.79296 5C10.0352 5 10.5586 5.23046 10.6543 5.32031C10.9746 5.64063 11.1543 6.0625 11.1601 6.50586C11.1641 6.93555 11.0039 7.33789 10.707 7.63476C10.4141 7.92774 10.0195 8.08789 9.59765 8.08789C9.14649 8.08789 8.71875 7.9082 8.39453 7.58399C8.24024 7.41796 7.99805 6.58985 8.0957 5.02344C8.31055 5.00976 8.54688 5 8.79296 5ZM8.79296 3.40039C8.20703 3.40039 7.66015 3.44532 7.26368 3.48828C6.89454 3.5293 6.60156 3.82227 6.56055 4.1914C6.4336 5.33594 6.30078 7.75391 7.25976 8.71289C7.9082 9.36132 8.75586 9.6875 9.5957 9.6875C10.4121 9.6875 11.2207 9.38086 11.8359 8.76562C13.0859 7.51563 13.0625 5.4668 11.7851 4.18945C11.1582 3.56055 9.9043 3.40039 8.79296 3.40039Z"   fill="#2353F4" >
</path>
<path d="M9.59962 14.377C9.16017 14.377 8.79883 14.7364 8.79883 15.1778L8.79883 16.7774C8.79883 17.2168 9.1582 17.5781 9.59962 17.5781C10.0391 17.5781 10.4004 17.2188 10.4004 16.7774L10.4004 15.1778C10.4004 14.7364 10.0391 14.377 9.59962 14.377ZM16.1875 11.0957C15.7461 11.0957 15.3867 10.7383 15.3867 10.2949C15.3867 9.85352 15.7441 9.49414 16.1875 9.49414C16.8399 9.49414 17.3691 8.9043 17.3691 8.17774C17.3691 7.45118 16.8379 6.86133 16.1875 6.86133C16.1465 6.86133 16.1074 6.86328 16.0684 6.86719C15.6309 6.91602 15.2324 6.60157 15.1836 6.16212C15.1347 5.72267 15.4492 5.32618 15.8886 5.27735C15.9864 5.26563 16.0879 5.25977 16.1895 5.25977C17.7226 5.25977 18.9726 6.56837 18.9726 8.17579C18.9726 9.7832 17.7207 11.0957 16.1875 11.0957Z"   fill="#2353F4" >
</path>
</svg>
