<svg xmlns="http://www.w3.org/2000/svg" xmlns:xlink="http://www.w3.org/1999/xlink" width="48" height="48" viewBox="0 0 48 48" fill="none">
<path d="M24 1.92225e-06C23.6072 1.92225e-06 23.2147 0.00963825 22.8224 0.028911C22.4301 0.0481837 22.0385 0.0770695 21.6476 0.115568C21.2567 0.154067 20.867 0.202133 20.4785 0.259766C20.0899 0.317398 19.7031 0.384528 19.3178 0.461155C18.9326 0.537783 18.5495 0.623812 18.1685 0.71925C17.7875 0.814687 17.409 0.919416 17.0332 1.03343C16.6573 1.14745 16.2845 1.27062 15.9147 1.40294C15.5448 1.53527 15.1785 1.67658 14.8156 1.82689C14.4527 1.9772 14.0938 2.13632 13.7387 2.30426C13.3836 2.47219 13.0329 2.64874 12.6865 2.83389C12.3401 3.01905 11.9985 3.21258 11.6616 3.41451C11.3247 3.61644 10.9929 3.82651 10.6663 4.04473C10.3397 4.26295 10.0187 4.48905 9.70322 4.72303C9.38775 4.95698 9.07819 5.19858 8.77458 5.44777C8.47097 5.69691 8.17364 5.95341 7.88259 6.21717C7.59155 6.48094 7.30716 6.75169 7.02942 7.02942C6.75169 7.30716 6.48094 7.59155 6.21717 7.88259C5.95341 8.17364 5.69691 8.47097 5.44777 8.77458C5.19858 9.07819 4.95698 9.38775 4.72303 9.70322C4.48905 10.0187 4.26294 10.3397 4.04473 10.6663C3.82651 10.9929 3.61644 11.3246 3.41452 11.6615C3.21259 11.9984 3.01905 12.3401 2.83389 12.6865C2.64873 13.0329 2.47219 13.3836 2.30426 13.7387C2.13632 14.0938 1.9772 14.4527 1.82689 14.8156C1.67658 15.1785 1.53526 15.5448 1.40295 15.9146C1.27062 16.2845 1.14745 16.6573 1.03343 17.0332C0.919416 17.409 0.814687 17.7875 0.71925 18.1685C0.623812 18.5495 0.537778 18.9326 0.461155 19.3178C0.384527 19.7031 0.317396 20.0899 0.259764 20.4785C0.202132 20.867 0.154065 21.2567 0.115567 21.6476C0.0770677 22.0385 0.0481819 22.4301 0.028909 22.8224C0.00963633 23.2147 0 23.6072 0 24C0 24.3928 0.00963633 24.7853 0.028909 25.1776C0.0481819 25.5699 0.0770677 25.9615 0.115567 26.3524C0.154065 26.7433 0.202132 27.133 0.259764 27.5215C0.317396 27.9101 0.384527 28.2969 0.461155 28.6822C0.537778 29.0674 0.623812 29.4505 0.71925 29.8315C0.814687 30.2125 0.919416 30.591 1.03343 30.9668C1.14745 31.3427 1.27062 31.7155 1.40295 32.0853C1.53526 32.4552 1.67658 32.8215 1.82689 33.1844C1.9772 33.5473 2.13632 33.9062 2.30426 34.2613C2.47219 34.6164 2.64873 34.9671 2.83389 35.3135C3.01905 35.6599 3.21259 36.0015 3.41452 36.3384C3.61644 36.6753 3.82651 37.0071 4.04473 37.3337C4.26294 37.6603 4.48905 37.9813 4.72303 38.2968C4.95698 38.6122 5.19858 38.9218 5.44777 39.2254C5.69691 39.529 5.95341 39.8264 6.21717 40.1174C6.48094 40.4085 6.75169 40.6928 7.02942 40.9706C7.30716 41.2483 7.59155 41.5191 7.88259 41.7828C8.17364 42.0466 8.47097 42.3031 8.77458 42.5522C9.07819 42.8014 9.38775 43.043 9.70322 43.277C10.0187 43.5109 10.3397 43.737 10.6663 43.9552C10.9929 44.1735 11.3246 44.3835 11.6615 44.5855C11.9984 44.7874 12.3401 44.981 12.6865 45.1661C13.0329 45.3513 13.3836 45.5278 13.7387 45.6957C14.0938 45.8637 14.4527 46.0228 14.8156 46.1731C15.1785 46.3234 15.5448 46.4647 15.9146 46.597C16.2845 46.7294 16.6573 46.8525 17.0332 46.9664C17.409 47.0803 17.7875 47.1853 18.1685 47.2809C18.5495 47.3761 18.9326 47.4623 19.3178 47.5387C19.7031 47.6152 20.0899 47.6827 20.4785 47.7403C20.867 47.798 21.2567 47.8458 21.6476 47.8842C22.0385 47.9231 22.4301 47.9517 22.8224 47.9709C23.2147 47.9902 23.6072 48 24 48C24.3928 48 24.7853 47.9902 25.1776 47.9709C25.5699 47.9517 25.9615 47.9231 26.3524 47.8842C26.7433 47.8458 27.133 47.798 27.5215 47.7403C27.9101 47.6827 28.2969 47.6152 28.6822 47.5387C29.0674 47.4623 29.4505 47.3761 29.8315 47.2809C30.2125 47.1853 30.591 47.0803 30.9668 46.9664C31.3427 46.8525 31.7155 46.7294 32.0854 46.597C32.4552 46.4647 32.8215 46.3234 33.1844 46.1731C33.5473 46.0228 33.9062 45.8637 34.2613 45.6957C34.6164 45.5278 34.9671 45.3513 35.3135 45.1661C35.6599 44.981 36.0016 44.7874 36.3385 44.5855C36.6754 44.3835 37.0071 44.1735 37.3337 43.9552C37.6603 43.737 37.9813 43.5109 38.2968 43.277C38.6123 43.043 38.9218 42.8014 39.2254 42.5522C39.529 42.3031 39.8264 42.0466 40.1174 41.7828C40.4085 41.5191 40.6928 41.2483 40.9706 40.9706C41.2483 40.6928 41.5191 40.4085 41.7828 40.1174C42.0466 39.8264 42.3031 39.529 42.5522 39.2254C42.8014 38.9218 43.043 38.6122 43.277 38.2968C43.511 37.9813 43.737 37.6603 43.9552 37.3337C44.1735 37.0071 44.3835 36.6753 44.5855 36.3384C44.7874 36.0015 44.981 35.6599 45.1661 35.3135C45.3513 34.9671 45.5278 34.6164 45.6958 34.2613C45.8637 33.9062 46.0228 33.5473 46.1731 33.1844C46.3234 32.8215 46.4647 32.4552 46.5971 32.0854C46.7294 31.7155 46.8525 31.3427 46.9664 30.9668C47.0808 30.591 47.1853 30.2125 47.2805 29.8315C47.3761 29.4505 47.4623 29.0674 47.5387 28.6822C47.6156 28.2969 47.6827 27.9101 47.7403 27.5215C47.798 27.133 47.8458 26.7433 47.8842 26.3524C47.9227 25.9615 47.9517 25.5699 47.9709 25.1776C47.9906 24.7853 48 24.3928 48 24C48 23.6072 47.9906 23.2146 47.9714 22.8222C47.9527 22.4299 47.9236 22.0382 47.8852 21.6473C47.8467 21.2564 47.7989 20.8666 47.7412 20.478C47.6841 20.0894 47.617 19.7025 47.5402 19.3172C47.4637 18.9319 47.378 18.5487 47.2823 18.1676C47.1872 17.7865 47.0827 17.408 46.9688 17.0321C46.8548 16.6561 46.7317 16.2832 46.5994 15.9134C46.4672 15.5435 46.3259 15.177 46.1757 14.8141C46.0254 14.4511 45.8663 14.0921 45.6985 13.737C45.5306 13.3818 45.354 13.031 45.1689 12.6846C44.9838 12.3381 44.7903 11.9964 44.5884 11.6595C44.3865 11.3225 44.1765 10.9907 43.9582 10.6641C43.74 10.3374 43.5139 10.0163 43.28 9.70078C43.046 9.38527 42.8044 9.07566 42.5552 8.772C42.306 8.4683 42.0495 8.17092 41.7857 7.87987C41.5219 7.58883 41.2511 7.30439 40.9734 7.02661C40.6956 6.74887 40.4112 6.47808 40.1201 6.21427C39.8291 5.9505 39.5317 5.694 39.228 5.44481C38.9243 5.19562 38.6147 4.95403 38.2992 4.72008C37.9837 4.48609 37.6626 4.25999 37.336 4.04178C37.0093 3.82357 36.6775 3.61351 36.3405 3.4116C36.0036 3.2097 35.6619 3.01618 35.3154 2.83106C34.969 2.64594 34.6182 2.46943 34.263 2.30154C33.9079 2.13365 33.5489 1.97458 33.1859 1.82432C32.823 1.67407 32.4565 1.53282 32.0866 1.40056C31.7167 1.26831 31.3439 1.14521 30.9679 1.03127C30.592 0.917339 30.2135 0.8127 29.8324 0.717356C29.4513 0.622017 29.0681 0.536086 28.6829 0.459565C28.2975 0.383045 27.9106 0.316029 27.522 0.258517C27.1334 0.201004 26.7436 0.153065 26.3527 0.114698C25.9618 0.0763322 25.5701 0.0475852 25.1778 0.0284576C24.7854 0.00932995 24.3928 -0.000155273 24 1.92225e-06ZM24 36.752C23.9673 36.752 23.9346 36.7512 23.9019 36.7495C23.8692 36.7479 23.8366 36.7455 23.804 36.7422C23.7714 36.739 23.739 36.735 23.7066 36.7301C23.6742 36.7253 23.642 36.7197 23.6099 36.7132C23.5778 36.7068 23.5459 36.6997 23.5142 36.6917C23.4825 36.6837 23.4509 36.675 23.4196 36.6654C23.3883 36.6559 23.3573 36.6456 23.3265 36.6346C23.2957 36.6235 23.2651 36.6117 23.2349 36.5992C23.2047 36.5866 23.1748 36.5734 23.1452 36.5594C23.1156 36.5453 23.0864 36.5306 23.0575 36.5152C23.0287 36.4997 23.0002 36.4836 22.9722 36.4667C22.9441 36.4499 22.9165 36.4324 22.8893 36.4141C22.8621 36.396 22.8354 36.3771 22.8091 36.3576C22.7828 36.3381 22.757 36.3179 22.7317 36.2971C22.7065 36.2764 22.6817 36.255 22.6575 36.233C22.6333 36.211 22.6095 36.1884 22.5864 36.1653C22.5633 36.1421 22.5408 36.1184 22.5188 36.0941C22.4969 36.0699 22.4755 36.0451 22.4548 36.0198C22.434 35.9945 22.4139 35.9686 22.3944 35.9423C22.375 35.916 22.3561 35.8893 22.338 35.8621C22.3198 35.8349 22.3023 35.8072 22.2855 35.7791C22.2687 35.751 22.2526 35.7226 22.2372 35.6937C22.2218 35.6648 22.2071 35.6356 22.1931 35.606C22.1791 35.5764 22.1659 35.5465 22.1534 35.5162C22.1409 35.486 22.1291 35.4555 22.1181 35.4247C22.1071 35.3939 22.0969 35.3628 22.0874 35.3315C22.0779 35.3001 22.0692 35.2686 22.0612 35.2368C22.0533 35.2051 22.0462 35.1732 22.0398 35.1411C22.0335 35.109 22.0279 35.0767 22.0231 35.0444C22.0183 35.012 22.0143 34.9795 22.0111 34.947C22.008 34.9144 22.0056 34.8817 22.004 34.8491C22.0024 34.8164 22.0016 34.7837 22.0016 34.7509C22.0016 34.7182 22.0024 34.6855 22.0041 34.6528C22.0057 34.6201 22.0081 34.5875 22.0113 34.5549C22.0146 34.5224 22.0186 34.4899 22.0234 34.4575C22.0282 34.4251 22.0338 34.3929 22.0402 34.3608C22.0466 34.3287 22.0538 34.2968 22.0618 34.2651C22.0697 34.2334 22.0785 34.2018 22.088 34.1705C22.0975 34.1392 22.1078 34.1081 22.1189 34.0773C22.1299 34.0465 22.1417 34.016 22.1542 33.9858C22.1667 33.9555 22.18 33.9256 22.194 33.8961C22.208 33.8665 22.2228 33.8373 22.2382 33.8084C22.2536 33.7796 22.2698 33.7511 22.2866 33.723C22.3035 33.695 22.3209 33.6674 22.3391 33.6401C22.3574 33.6129 22.3762 33.5862 22.3957 33.5599C22.4152 33.5336 22.4354 33.5078 22.4561 33.4826C22.4769 33.4573 22.4983 33.4325 22.5203 33.4083C22.5422 33.384 22.5648 33.3603 22.5879 33.3372C22.6111 33.3141 22.6348 33.2916 22.6591 33.2696C22.6833 33.2476 22.7081 33.2263 22.7334 33.2055C22.7587 33.1847 22.7845 33.1646 22.8108 33.1451C22.8371 33.1257 22.8638 33.1068 22.8911 33.0886C22.9183 33.0705 22.9459 33.053 22.974 33.0362C23.0021 33.0194 23.0306 33.0032 23.0595 32.9878C23.0883 32.9724 23.1175 32.9577 23.1471 32.9437C23.1767 32.9297 23.2066 32.9165 23.2369 32.904C23.2671 32.8915 23.2976 32.8797 23.3284 32.8687C23.3592 32.8577 23.3903 32.8474 23.4217 32.838C23.453 32.8284 23.4845 32.8197 23.5162 32.8118C23.548 32.8039 23.5799 32.7967 23.612 32.7903C23.6441 32.784 23.6763 32.7784 23.7087 32.7735C23.7411 32.7688 23.7735 32.7648 23.8061 32.7616C23.8387 32.7584 23.8713 32.756 23.904 32.7544C23.9367 32.7528 23.9694 32.752 24.0022 32.752C24.0349 32.752 24.0676 32.7528 24.1003 32.7544C24.1329 32.7561 24.1656 32.7585 24.1981 32.7617C24.2307 32.7649 24.2632 32.7689 24.2955 32.7737C24.3279 32.7786 24.3601 32.7841 24.3923 32.7905C24.4244 32.7969 24.4563 32.8041 24.488 32.812C24.5197 32.82 24.5513 32.8287 24.5826 32.8382C24.6139 32.8477 24.645 32.858 24.6758 32.869C24.7066 32.88 24.7371 32.8919 24.7673 32.9044C24.7976 32.9169 24.8275 32.9302 24.8571 32.9442C24.8866 32.9582 24.9159 32.9729 24.9447 32.9883C24.9736 33.0037 25.002 33.0199 25.0301 33.0367C25.0582 33.0535 25.0858 33.0711 25.113 33.0892C25.1402 33.1074 25.167 33.1263 25.1932 33.1458C25.2195 33.1653 25.2453 33.1854 25.2706 33.2062C25.2959 33.2269 25.3207 33.2483 25.3449 33.2703C25.3692 33.2923 25.3929 33.3149 25.416 33.338C25.4392 33.3611 25.4617 33.3848 25.4837 33.4091C25.5057 33.4333 25.527 33.4581 25.5478 33.4834C25.5685 33.5087 25.5886 33.5345 25.6081 33.5608C25.6276 33.5871 25.6465 33.6138 25.6647 33.641C25.6828 33.6682 25.7003 33.6959 25.7172 33.7239C25.734 33.752 25.7501 33.7805 25.7655 33.8093C25.781 33.8382 25.7956 33.8675 25.8097 33.897C25.8237 33.9266 25.8369 33.9565 25.8494 33.9868C25.8619 34.017 25.8737 34.0475 25.8848 34.0783C25.8958 34.1091 25.906 34.1402 25.9155 34.1715C25.925 34.2029 25.9337 34.2344 25.9417 34.2661C25.9496 34.2979 25.9568 34.3298 25.9632 34.3619C25.9696 34.394 25.9752 34.4262 25.98 34.4586C25.9848 34.491 25.9888 34.5234 25.992 34.556C25.9952 34.5886 25.9976 34.6212 25.9992 34.6539C26.0008 34.6866 26.0016 34.7193 26.0016 34.752C26.0016 34.7847 26.0007 34.8174 25.999 34.8502C25.9974 34.8828 25.9949 34.9155 25.9917 34.948C25.9884 34.9806 25.9844 35.013 25.9795 35.0454C25.9747 35.0778 25.969 35.11 25.9626 35.1421C25.9562 35.1742 25.949 35.2062 25.941 35.2379C25.933 35.2696 25.9242 35.3012 25.9147 35.3325C25.9051 35.3638 25.8948 35.3949 25.8838 35.4257C25.8727 35.4565 25.8609 35.487 25.8484 35.5172C25.8358 35.5475 25.8225 35.5774 25.8085 35.607C25.7945 35.6365 25.7797 35.6658 25.7643 35.6946C25.7488 35.7234 25.7326 35.7519 25.7158 35.78C25.699 35.808 25.6815 35.8357 25.6632 35.8629C25.645 35.8901 25.6262 35.9168 25.6066 35.9431C25.5871 35.9694 25.567 35.9952 25.5462 36.0205C25.5255 36.0457 25.504 36.0705 25.482 36.0948C25.4601 36.119 25.4375 36.1427 25.4143 36.1658C25.3912 36.189 25.3674 36.2115 25.3432 36.2335C25.3189 36.2555 25.2941 36.2768 25.2689 36.2976C25.2435 36.3184 25.2177 36.3385 25.1914 36.358C25.1651 36.3775 25.1384 36.3963 25.1112 36.4145C25.0839 36.4327 25.0563 36.4502 25.0282 36.467C25.0001 36.4838 24.9717 36.5 24.9428 36.5154C24.9139 36.5309 24.8847 36.5456 24.8551 36.5595C24.8255 36.5736 24.7956 36.5868 24.7654 36.5993C24.7351 36.6119 24.7046 36.6237 24.6738 36.6347C24.643 36.6457 24.6119 36.656 24.5806 36.6655C24.5492 36.675 24.5177 36.6838 24.486 36.6918C24.4542 36.6997 24.4223 36.7069 24.3902 36.7133C24.3581 36.7197 24.3259 36.7253 24.2935 36.7302C24.2611 36.735 24.2286 36.739 24.196 36.7422C24.1635 36.7455 24.1308 36.7479 24.0982 36.7495C24.0655 36.7512 24.0328 36.752 24 36.752ZM25.9952 27.76C25.9939 27.7919 25.9919 27.8237 25.9891 27.8556C25.9863 27.8873 25.9827 27.919 25.9784 27.9507C25.9741 27.9823 25.969 28.0139 25.9632 28.0452C25.9574 28.0766 25.9508 28.1078 25.9435 28.1389C25.9362 28.17 25.9281 28.2008 25.9193 28.2315C25.9105 28.2622 25.901 28.2927 25.8907 28.323C25.8805 28.3532 25.8695 28.3831 25.8578 28.4129C25.8462 28.4425 25.8337 28.472 25.8206 28.5011C25.8075 28.5302 25.7938 28.559 25.7793 28.5874C25.7648 28.6159 25.7497 28.644 25.7339 28.6717C25.7181 28.6994 25.7016 28.7267 25.6845 28.7537C25.6673 28.7806 25.6496 28.8072 25.6312 28.8332C25.6128 28.8593 25.5938 28.885 25.5742 28.9102C25.5545 28.9353 25.5343 28.96 25.5135 28.9843C25.4927 29.0085 25.4714 29.0322 25.4494 29.0554C25.4275 29.0786 25.405 29.1012 25.382 29.1233C25.359 29.1455 25.3354 29.167 25.3114 29.188C25.2873 29.209 25.2628 29.2294 25.2377 29.2492C25.2127 29.269 25.1872 29.2882 25.1613 29.3069C25.1354 29.3255 25.109 29.3434 25.0822 29.3608C25.0553 29.3781 25.0282 29.3947 25.0005 29.4108C24.9729 29.4268 24.945 29.4422 24.9166 29.4569C24.8883 29.4716 24.8596 29.4856 24.8306 29.4989C24.8016 29.5123 24.7723 29.5249 24.7427 29.5368C24.7131 29.5487 24.6832 29.5599 24.653 29.5704C24.6229 29.5809 24.5925 29.5906 24.5618 29.5997C24.5312 29.6087 24.5004 29.6171 24.4694 29.6246C24.4384 29.6322 24.4072 29.639 24.3759 29.6451C24.3445 29.6511 24.3131 29.6565 24.2815 29.661C24.2499 29.6655 24.2182 29.6694 24.1864 29.6724C24.1546 29.6755 24.1228 29.6778 24.0909 29.6793C24.059 29.6808 24.0271 29.6816 23.9952 29.6816C23.9633 29.6816 23.9314 29.6808 23.8995 29.6793C23.8676 29.6778 23.8357 29.6755 23.804 29.6724C23.7722 29.6694 23.7405 29.6655 23.709 29.661C23.6774 29.6565 23.6459 29.6511 23.6145 29.6451C23.5832 29.639 23.552 29.6322 23.521 29.6246C23.49 29.6171 23.4592 29.6087 23.4285 29.5997C23.3979 29.5906 23.3675 29.5809 23.3374 29.5704C23.3072 29.5599 23.2774 29.5487 23.2477 29.5368C23.2181 29.5249 23.1888 29.5123 23.1598 29.4989C23.1308 29.4856 23.1022 29.4716 23.0738 29.4569C23.0454 29.4422 23.0175 29.4268 22.9899 29.4108C22.9623 29.3947 22.935 29.3781 22.9082 29.3608C22.8815 29.3434 22.8551 29.3255 22.8291 29.3069C22.8032 29.2882 22.7777 29.269 22.7527 29.2492C22.7276 29.2294 22.7031 29.209 22.6791 29.188C22.655 29.167 22.6314 29.1455 22.6084 29.1233C22.5854 29.1012 22.563 29.0786 22.541 29.0554C22.5191 29.0322 22.4977 29.0085 22.4769 28.9843C22.4561 28.96 22.4359 28.9353 22.4163 28.9102C22.3966 28.885 22.3777 28.8593 22.3592 28.8332C22.3409 28.8072 22.3231 28.7806 22.306 28.7537C22.2889 28.7267 22.2724 28.6994 22.2565 28.6717C22.2407 28.644 22.2256 28.6159 22.2111 28.5874C22.1966 28.559 22.1828 28.5302 22.1698 28.5011C22.1567 28.472 22.1443 28.4425 22.1326 28.4129C22.1209 28.3831 22.11 28.3532 22.0997 28.323C22.0894 28.2927 22.0799 28.2622 22.0711 28.2315C22.0623 28.2008 22.0543 28.17 22.0469 28.1389C22.0396 28.1078 22.033 28.0766 22.0272 28.0452C22.0214 28.0139 22.0163 27.9823 22.012 27.9507C22.0077 27.919 22.0041 27.8873 22.0013 27.8556C21.9985 27.8237 21.9965 27.7919 21.9952 27.76L20.8208 13.52C20.8207 13.4694 20.8219 13.4188 20.8244 13.3683C20.8268 13.3177 20.8307 13.2673 20.8358 13.217C20.8409 13.1666 20.8473 13.1165 20.855 13.0665C20.8627 13.0164 20.8717 12.9667 20.882 12.9171C20.8923 12.8676 20.9039 12.8183 20.9167 12.7694C20.9295 12.7205 20.9436 12.6719 20.9589 12.6237C20.9743 12.5754 20.9909 12.5277 21.0087 12.4803C21.0266 12.4329 21.0456 12.3861 21.0659 12.3397C21.0861 12.2933 21.1075 12.2475 21.1302 12.2023C21.1528 12.157 21.1766 12.1124 21.2015 12.0683C21.2265 12.0243 21.2525 11.981 21.2797 11.9383C21.3068 11.8956 21.3351 11.8537 21.3645 11.8125C21.3938 11.7712 21.4242 11.7308 21.4557 11.6912C21.4871 11.6515 21.5196 11.6127 21.553 11.5747C21.5865 11.5368 21.6209 11.4997 21.6563 11.4636C21.6917 11.4274 21.728 11.3921 21.7652 11.3579C21.8024 11.3235 21.8404 11.2902 21.8794 11.2579C21.9183 11.2256 21.958 11.1943 21.9986 11.164C22.0391 11.1337 22.0805 11.1045 22.1225 11.0764C22.1646 11.0483 22.2073 11.0213 22.2508 10.9954C22.2942 10.9695 22.3383 10.9447 22.3831 10.921C22.4278 10.8974 22.4731 10.875 22.519 10.8537C22.5649 10.8324 22.6114 10.8123 22.6583 10.7934C22.7053 10.7745 22.7527 10.7569 22.8005 10.7405C22.8484 10.7241 22.8967 10.7089 22.9453 10.695C22.9939 10.681 23.0429 10.6684 23.0922 10.657C23.1415 10.6456 23.1911 10.6355 23.2409 10.6267C23.2907 10.6178 23.3407 10.6103 23.391 10.6041C23.4412 10.5978 23.4915 10.5929 23.542 10.5893C23.5925 10.5857 23.643 10.5833 23.6936 10.5824C23.7442 10.5813 23.7947 10.5816 23.8453 10.5833C23.8959 10.5848 23.9464 10.5877 23.9968 10.592C24.0467 10.5902 24.0966 10.5896 24.1465 10.5902C24.1965 10.5908 24.2464 10.5927 24.2962 10.5957C24.346 10.5988 24.3958 10.603 24.4454 10.6085C24.495 10.614 24.5445 10.6207 24.5938 10.6286C24.6431 10.6365 24.6922 10.6456 24.741 10.6559C24.7899 10.6661 24.8385 10.6776 24.8868 10.6903C24.9351 10.703 24.9831 10.7168 25.0307 10.7318C25.0783 10.7468 25.1256 10.763 25.1724 10.7803C25.2192 10.7976 25.2656 10.8161 25.3115 10.8357C25.3575 10.8552 25.4029 10.8759 25.4478 10.8977C25.4927 10.9195 25.5371 10.9425 25.5809 10.9664C25.6247 10.9904 25.6679 11.0153 25.7105 11.0415C25.7531 11.0675 25.795 11.0946 25.8362 11.1227C25.8775 11.1509 25.9181 11.18 25.9579 11.2101C25.9977 11.2402 26.0368 11.2713 26.0751 11.3033C26.1135 11.3353 26.151 11.3682 26.1877 11.4021C26.2244 11.4359 26.2603 11.4706 26.2953 11.5062C26.3303 11.5418 26.3644 11.5783 26.3977 11.6155C26.4309 11.6528 26.4632 11.6908 26.4946 11.7297C26.526 11.7685 26.5564 11.8081 26.5858 11.8485C26.6152 11.8888 26.6437 11.9298 26.6711 11.9715C26.6986 12.0132 26.725 12.0556 26.7504 12.0986C26.7757 12.1416 26.8 12.1852 26.8233 12.2294C26.8465 12.2736 26.8687 12.3183 26.8897 12.3636C26.9108 12.4088 26.9308 12.4546 26.9496 12.5009C26.9684 12.5471 26.9861 12.5938 27.0026 12.6409C27.0192 12.688 27.0345 12.7355 27.0488 12.7834C27.063 12.8312 27.0761 12.8794 27.0879 12.9279C27.0998 12.9765 27.1105 13.0252 27.12 13.0742C27.1295 13.1232 27.1378 13.1724 27.1448 13.2219C27.1519 13.2713 27.1578 13.3209 27.1625 13.3706C27.1671 13.4203 27.1706 13.4701 27.1728 13.52L25.9984 27.76L25.9952 27.76Z"   fill="#FFAB00" >
</path>
</svg>
