<svg xmlns="http://www.w3.org/2000/svg" xmlns:xlink="http://www.w3.org/1999/xlink" width="18" height="18" viewBox="0 0 18 18" fill="none">
<path    stroke="rgba(88, 87, 92, 1)" stroke-width="1.5" stroke-linejoin="round"   d="M7.41683 11.7251L6.5475 11.8311C6.33836 11.8566 6.16081 11.6791 6.18631 11.4699L6.29231 10.6006C6.38878 9.80945 6.74741 9.07337 7.31099 8.50979L11.6491 4.17165L11.9671 3.85363C12.5737 3.24703 13.5572 3.24703 14.1638 3.85363C14.7704 4.46022 14.7704 5.4437 14.1638 6.05029L13.8458 6.36831L9.50767 10.7064C8.94408 11.27 8.208 11.6287 7.41683 11.7251ZM13.8458 6.36831L11.6491 4.17165">
</path>
<path    stroke="rgba(88, 87, 92, 1)" stroke-width="1.5" stroke-linejoin="round" stroke-linecap="round"  d="M15 9L15 12.4054C15 13.8384 13.8384 15 12.4054 15L5.59459 15C4.16164 15 3 13.8384 3 12.4054L3 5.59459C3 4.16164 4.16164 3 5.59459 3L9 3">
</path>
</svg>
