<svg xmlns="http://www.w3.org/2000/svg" xmlns:xlink="http://www.w3.org/1999/xlink" width="10.57403564453125" height="10.076171875" viewBox="0 0 10.57403564453125 10.076171875" fill="none">
<path     fill="#E4E4E6"  d="M10.3732 3.69559L6.77315 3.70346C6.68618 3.70365 6.60906 3.64762 6.58236 3.56485L5.47736 0.138551C5.41776 -0.0462659 5.15628 -0.0462659 5.09667 0.138551L3.99167 3.56485C3.96498 3.64762 3.88786 3.70365 3.80089 3.70346L0.200823 3.69559C0.00663292 3.69517 -0.0741698 3.94385 0.0831825 4.05765L3.00032 6.16735C3.07079 6.21832 3.10025 6.30898 3.0732 6.39163L1.95323 9.81307C1.89282 9.99762 2.10436 10.1513 2.26122 10.0368L5.16911 7.9144C5.23935 7.86313 5.33468 7.86313 5.40493 7.9144L8.31282 10.0368C8.46967 10.1513 8.68122 9.99762 8.6208 9.81307L7.50084 6.39163C7.47378 6.30898 7.50324 6.21832 7.57371 6.16735L10.4909 4.05765C10.6482 3.94385 10.5674 3.69517 10.3732 3.69559Z">
</path>
</svg>
