<svg xmlns="http://www.w3.org/2000/svg" xmlns:xlink="http://www.w3.org/1999/xlink" width="18" height="18" viewBox="0 0 18 18" fill="none">
<path d="M15.75 9C15.75 12.7279 12.7279 15.75 9 15.75C5.27208 15.75 2.25 12.7279 2.25 9C2.25 5.27208 5.27208 2.25 9 2.25C12.7279 2.25 15.75 5.27208 15.75 9Z" stroke="rgba(84, 83, 88, 1)" stroke-width="1.5"  stroke-linecap="round" >
</path>
<path   fill="rgba(84, 83, 88, 1)"  d="M13.5 9.75L10.5 9.75L10.5 9L10.5 9.75C9.25736 9.75 8.25 8.74264 8.25 7.5L9 7.5L8.25 7.5L8.25 4.5L9.75 4.5L9.75 7.5L9.75 7.5C9.75 7.91421 10.0858 8.25 10.5 8.25L10.5 8.25L13.5 8.25L13.5 9.75ZM9 5.25C8.58579 5.25 8.25 4.91421 8.25 4.5C8.25 4.08579 8.58579 3.75 9 3.75C9.41421 3.75 9.75 4.08579 9.75 4.5C9.75 4.91421 9.41421 5.25 9 5.25ZM13.5 9.75C13.0858 9.75 12.75 9.41421 12.75 9C12.75 8.58579 13.0858 8.25 13.5 8.25C13.9142 8.25 14.25 8.58579 14.25 9C14.25 9.41421 13.9142 9.75 13.5 9.75Z">
</path>
<path   fill="rgba(84, 83, 88, 1)"  d="M9.5625 12.375L9.5625 13.5L8.4375 13.5L8.4375 12.375L9.5625 12.375ZM9 13.125C8.68934 13.125 8.4375 12.7892 8.4375 12.375C8.4375 11.9608 8.68934 11.625 9 11.625C9.31066 11.625 9.5625 11.9608 9.5625 12.375C9.5625 12.7892 9.31066 13.125 9 13.125ZM9 14.25C8.68934 14.25 8.4375 13.9142 8.4375 13.5C8.4375 13.0858 8.68934 12.75 9 12.75C9.31066 12.75 9.5625 13.0858 9.5625 13.5C9.5625 13.9142 9.31066 14.25 9 14.25Z">
</path>
<path    stroke="rgba(84, 83, 88, 1)" stroke-width="1.5"  stroke-linecap="round"  d="M5.625 9L4.5 9">
</path>
</svg>
