<svg xmlns="http://www.w3.org/2000/svg" xmlns:xlink="http://www.w3.org/1999/xlink" width="16" height="16" viewBox="0 0 16 16" fill="none">
<path   fill-rule="evenodd"  fill="#4F7AF0"  d="M4 6.37989C4 4.23709 5.79069 2.5 7.99963 2.5C10.2086 2.5 11.9993 4.23709 11.9993 6.37989C11.9993 7.26927 11.6903 8.08981 11.171 8.74437C10.6742 9.3705 10.2423 9.96161 10.1036 10.5839L8.4249 10.5839L8.4249 9.23752L9.19048 8.24753C9.33141 8.06529 9.29336 7.80673 9.1055 7.67002C8.91763 7.53331 8.65109 7.57022 8.51016 7.75246L7.99975 8.41249L7.48961 7.75253C7.34872 7.57026 7.08219 7.5333 6.8943 7.66997C6.70641 7.80664 6.6683 8.06519 6.80919 8.24746L7.57444 9.23747L7.57444 10.5839L5.89568 10.5839C5.75692 9.96161 5.32506 9.3705 4.8283 8.74437C4.309 8.08981 4 7.26927 4 6.37989ZM5.94228 11.4089L5.94228 13.0875C5.94228 13.3153 6.13267 13.5 6.36751 13.5L9.63175 13.5C9.86659 13.5 10.057 13.3153 10.057 13.0875L10.057 11.4089L5.94228 11.4089Z">
</path>
</svg>
