<svg xmlns="http://www.w3.org/2000/svg" xmlns:xlink="http://www.w3.org/1999/xlink" width="24" height="24" viewBox="0 0 24 24" fill="none">

<path d="M12.8621 5.4153C12.5275 5.78231 12.5262 6.37609 12.868 6.75079L16.7932 11.0545L5.14944 11.0545C4.67482 11.0545 4.28999 11.4717 4.28999 11.9945C4.28999 12.5135 4.6779 12.9343 5.14944 12.9343L16.7932 12.9343L12.868 17.2381C12.5299 17.6087 12.5251 18.204 12.8621 18.5736C13.197 18.9406 13.7355 18.9453 14.078 18.5698L19.4652 12.663C19.8019 12.2937 19.8078 11.7015 19.4652 11.326L14.078 5.41914C13.7413 5.04992 13.1993 5.04567 12.8621 5.4153Z"   fill="#2353f4" >
</path>
<defs>
<mask id="mask-9_4842" style="mask-type:alpha" maskUnits="userSpaceOnUse">
<path d="M19.4652 12.663C19.8019 12.2937 19.8078 11.7015 19.4652 11.326L14.078 5.41914C13.7413 5.04992 13.1993 5.04567 12.8621 5.4153C12.5275 5.78231 12.5262 6.37609 12.868 6.75079L16.7932 11.0545L5.14944 11.0545C4.67482 11.0545 4.28999 11.4717 4.28999 11.9945C4.28999 12.5135 4.6779 12.9343 5.14944 12.9343L16.7932 12.9343L12.868 17.2381C12.5299 17.6087 12.5251 18.204 12.8621 18.5736C13.197 18.9406 13.7355 18.9453 14.078 18.5698L19.4652 12.663Z"   fill="#2353f4" >
</path>
</mask>
</defs>
</svg>
