<svg t="1720522713138" class="icon" viewBox="0 0 1024 1024" version="1.1" xmlns="http://www.w3.org/2000/svg" p-id="11030" width="256" height="256"><path d="M347.648 143.36c18.432-18.944 48.64-18.944 67.072-0.512 18.944 18.432 18.944 48.64 0.512 67.072L166.912 461.824h808.448c24.576 0 44.544 18.432 47.104 41.984l0.512 5.632c0 26.112-21.504 47.616-47.616 47.616H158.208L414.72 813.568c16.896 16.896 18.432 44.032 4.096 62.976l-4.096 4.096c-18.432 18.432-48.64 18.432-67.072 0l-332.8-332.8c-18.432-18.432-18.432-48.128 0-67.072l332.8-337.408z" fill="#ffffff" p-id="11031"></path></svg>