<svg xmlns="http://www.w3.org/2000/svg" width="14" height="14" fill="none" viewBox="0 0 14 14"><path fill="#fff" d="M10.921 2.026h1.198C13.16 2.026 14 2.87 14 3.91v8.208c0 1.04-.842 1.883-1.88 1.883H2.88A1.883 1.883 0 0 1 1 12.117V3.91c0-1.04.842-1.884 1.88-1.884h1.2v-.513a.53.53 0 0 1 .086-.285.53.53 0 0 1 .254-.198.53.53 0 0 1 .322-.008.53.53 0 0 1 .231.147.5.5 0 0 1 .133.344v.513h4.79v-.513a.5.5 0 0 1 .133-.344.52.52 0 0 1 .28-.16.5.5 0 0 1 .342.052.51.51 0 0 1 .271.452zm0 1.027v.513a.53.53 0 0 1-.073.264 1 1 0 0 1-.06.08.5.5 0 0 1-.405.168.5.5 0 0 1-.355-.168.4.4 0 0 1-.073-.102.5.5 0 0 1-.06-.217v-.538h-4.79v.513a.5.5 0 0 1-.133.344.5.5 0 0 1-.184.13.54.54 0 0 1-.246.036.514.514 0 0 1-.463-.51v-.513H2.881a.85.85 0 0 0-.838.69 1 1 0 0 0-.017.166v8.208a.84.84 0 0 0 .168.51.87.87 0 0 0 .438.31 1 1 0 0 0 .207.036h9.28a.84.84 0 0 0 .475-.144.84.84 0 0 0 .343-.464 1 1 0 0 0 .037-.248V3.91a1 1 0 0 0-.016-.167.8.8 0 0 0-.128-.31.8.8 0 0 0-.235-.236.85.85 0 0 0-.476-.144zm-.171 3.592a.53.53 0 0 1 .264.073.53.53 0 0 1 .21.244 1 1 0 0 1 .03.096.52.52 0 0 1-.178.497.6.6 0 0 1-.153.086.5.5 0 0 1-.173.03h-6.5a.5.5 0 0 1-.345-.133.5.5 0 0 1-.13-.184.53.53 0 0 1-.028-.296.514.514 0 0 1 .503-.413zM8.697 9.21a.53.53 0 0 1 .285.086.52.52 0 0 1 .213.302.53.53 0 0 1-.024.321.53.53 0 0 1-.189.23.6.6 0 0 1-.16.072 1 1 0 0 1-.1.014H4.25a.53.53 0 0 1-.264-.072.6.6 0 0 1-.116-.096.5.5 0 0 1-.103-.171.5.5 0 0 1 .056-.458.52.52 0 0 1 .302-.213.5.5 0 0 1 .125-.015z"/></svg>