<svg xmlns="http://www.w3.org/2000/svg" xmlns:xlink="http://www.w3.org/1999/xlink" width="16" height="16" viewBox="0 0 16 16" fill="none">
<path d="M8.1108 6.3533C7.55852 6.3533 7.1108 6.05387 7.1108 5.68455L7.1108 0.668748C7.1108 0.299431 7.55852 0 8.1108 0C8.66308 0 9.1108 0.299431 9.1108 0.668748L9.1108 5.68455C9.1108 6.05387 8.66308 6.3533 8.1108 6.3533ZM13.5434 9.6505C14.3551 7.19006 13.5713 4.46595 11.5929 2.87123C11.3447 2.66507 11.1982 2.35461 11.1932 2.02483C11.1927 1.6066 11.4193 1.224 11.7787 1.03564C12.1382 0.847281 12.5692 0.885315 12.8927 1.13405C15.6609 3.35421 16.7172 7.18553 15.4996 10.5903C14.282 13.9951 11.0737 16.1821 7.58108 15.9881C3.4515 15.7388 0.175999 12.2801 0.00511997 7.98847C-0.0865595 5.32065 1.06335 2.76981 3.09518 1.13405C3.27694 0.984626 3.5027 0.904634 3.73454 0.9072C4.0171 0.9072 4.28814 1.02387 4.48798 1.23139C4.68782 1.43877 4.79997 1.72025 4.79997 2.01366C4.79949 2.34661 4.6547 2.66144 4.40574 2.87123C2.42719 4.46595 1.64335 7.19006 2.45519 9.6505C3.26686 12.1109 5.49469 13.7638 7.99932 13.7638C10.5039 13.7638 12.7318 12.1109 13.5434 9.6505Z" fill-rule="evenodd"  fill="#FFFFFF" >
</path>
</svg>
