<svg xmlns="http://www.w3.org/2000/svg" width="16" height="16" fill="none"><path fill="#303D65" d="M11.25 3h-8.5a1.24 1.24 0 0 0-.793.284 1.25 1.25 0 0 0-.457.966v9.5c0 .69.561 1.25 1.25 1.25h8.5c.69 0 1.25-.56 1.25-1.25v-9.5c0-.689-.56-1.25-1.25-1.25m.25 10.75a.25.25 0 0 1-.25.25h-8.5a.25.25 0 0 1-.149-.05l-.01-.007a.2.2 0 0 1-.034-.034.3.3 0 0 1-.042-.075.2.2 0 0 1-.015-.072V4.25A.25.25 0 0 1 2.75 4h8.5a.25.25 0 0 1 .193.091l.008.01a.3.3 0 0 1 .03.053l.014.047a.3.3 0 0 1 .005.049z"/><path fill="#303D65" d="M13.25 1h-8.5a.501.501 0 0 0-.278.916A.5.5 0 0 0 4.75 2h8.5a.25.25 0 0 1 .22.132l.02.045a.2.2 0 0 1 .01.073v9.5a.5.5 0 0 0 .549.498.5.5 0 0 0 .353-.2.4.4 0 0 0 .05-.084.5.5 0 0 0 .038-.117.5.5 0 0 0 .01-.097v-9.5c0-.689-.56-1.25-1.25-1.25"/><path fill="#303D65" d="M9.5 5.625h-5a.5.5 0 0 0-.317.114.5.5 0 0 0-.168.265.5.5 0 0 0 .033.335.5.5 0 0 0 .216.227.5.5 0 0 0 .236.059h5a.5.5 0 0 0 .317-.114.5.5 0 0 0 .168-.265.5.5 0 0 0-.485-.621m0 2.5h-5a.5.5 0 0 0-.317.114.5.5 0 0 0-.168.265.5.5 0 0 0 .056.378.5.5 0 0 0 .172.172.5.5 0 0 0 .257.071h5a.5.5 0 0 0 .317-.114.5.5 0 0 0 .168-.265.5.5 0 0 0-.207-.537.5.5 0 0 0-.278-.084m-2 2.479h-3a.501.501 0 0 0-.298.902.4.4 0 0 0 .107.06.5.5 0 0 0 .191.038h3a.501.501 0 0 0 .298-.902.4.4 0 0 0-.107-.06.5.5 0 0 0-.191-.038"/></svg>