<svg xmlns="http://www.w3.org/2000/svg" xmlns:xlink="http://www.w3.org/1999/xlink" width="16" height="16" viewBox="0 0 16 16" fill="none">
<path d="M15.8319 3.0071C15.6624 2.9225 15.5893 3.08375 15.4903 3.1657C15.4566 3.19214 15.4278 3.22651 15.399 3.25823C15.1514 3.52784 14.8621 3.70497 14.4838 3.68382C13.9311 3.65211 13.4591 3.82922 13.0421 4.2601C12.9534 3.72876 12.6589 3.41155 12.2104 3.208C11.9754 3.10227 11.7384 2.99652 11.5739 2.76652C11.4594 2.60264 11.4283 2.42023 11.3707 2.24049C11.3343 2.1321 11.2979 2.02108 11.1755 2.00257C11.0421 1.98142 10.9901 2.0951 10.9378 2.19026C10.7293 2.57885 10.6482 3.0071 10.6565 3.44063C10.6744 4.41607 11.0788 5.19325 11.8818 5.74575C11.9731 5.80918 11.9966 5.87263 11.9678 5.96514C11.9132 6.15547 11.8477 6.34052 11.7904 6.53085C11.754 6.65246 11.6994 6.67888 11.5713 6.62602C11.1308 6.43833 10.7502 6.16076 10.4136 5.82506C9.84266 5.26197 9.32634 4.64076 8.68261 4.15437C8.53351 4.04213 8.3805 3.9355 8.22356 3.83451C7.56658 3.18421 8.3096 2.65023 8.48172 2.58678C8.66142 2.52069 8.54426 2.29335 7.96276 2.29599C7.38125 2.29863 6.84937 2.49691 6.17154 2.76125C6.07227 2.80089 5.96799 2.82997 5.86143 2.85378C5.24583 2.73481 4.60707 2.70839 3.93949 2.78504C2.68281 2.92779 1.67897 3.53315 0.94092 4.56674C0.0545853 5.80918 -0.154267 7.22081 0.10158 8.69323C0.369666 10.245 1.14709 11.5297 2.34125 12.5342C3.57973 13.5757 5.00588 14.086 6.63292 13.9882C7.62119 13.93 8.72133 13.7952 9.96246 12.7245C10.2756 12.8832 10.6042 12.9466 11.149 12.9942C11.569 13.0338 11.9731 12.973 12.2859 12.9069C12.776 12.8012 12.7419 12.3386 12.5649 12.254C11.1281 11.572 11.4435 11.8495 11.1569 11.6249C11.887 10.7446 12.9872 9.82991 13.4175 6.86658C13.4515 6.63131 13.4227 6.48328 13.4175 6.29295C13.4148 6.17664 13.4406 6.13168 13.5714 6.11848C13.9311 6.07618 14.2806 5.97572 14.6013 5.79598C15.532 5.27785 15.9076 4.42664 15.9963 3.40626C16.0096 3.2503 15.9937 3.08905 15.8319 3.0071ZM7.72015 12.1906C6.3281 11.075 5.65258 10.7076 5.37358 10.7234C5.11278 10.7393 5.15978 11.0433 5.21703 11.2415C5.27694 11.4372 5.35537 11.572 5.46491 11.7438C5.5404 11.8575 5.59269 12.0267 5.38914 12.1536C4.94067 12.4364 4.16124 12.0584 4.12485 12.0399C3.21733 11.4953 2.4584 10.7763 1.92389 9.79292C1.40759 8.84655 1.10806 7.83145 1.05841 6.74763C1.04516 6.48592 1.12096 6.39339 1.37615 6.3458C1.46002 6.32948 1.54442 6.31668 1.62935 6.30738C1.71429 6.29809 1.79947 6.29234 1.88489 6.29012C1.9703 6.28791 2.05568 6.28924 2.14099 6.29413C2.22629 6.29901 2.31123 6.30744 2.39585 6.31937C3.81705 6.53087 5.02707 7.17851 6.04114 8.2042C6.62001 8.78839 7.05788 9.48628 7.50931 10.1683C7.98889 10.8926 8.50521 11.5826 9.16219 12.1483C9.39419 12.3465 9.5792 12.4972 9.75659 12.6082C9.22208 12.669 8.33013 12.6822 7.72015 12.1906ZM8.38771 7.81559C8.38771 7.69928 8.47907 7.60675 8.5939 7.60675C8.61992 7.60721 8.64332 7.61162 8.66406 7.61997C8.66896 7.62185 8.6738 7.62393 8.67854 7.62617C8.68328 7.62842 8.68793 7.63084 8.69251 7.63344C8.69706 7.63604 8.70152 7.63881 8.70587 7.64175C8.71023 7.6447 8.71447 7.6478 8.71858 7.65105C8.72268 7.65432 8.72667 7.65773 8.73055 7.66127C8.7344 7.66485 8.73812 7.66854 8.74169 7.67239C8.74525 7.67624 8.74868 7.6802 8.75196 7.6843C8.75522 7.68842 8.75834 7.69264 8.76129 7.69697C8.76424 7.70132 8.76703 7.70576 8.76964 7.7103C8.77226 7.71486 8.77471 7.7195 8.77696 7.72424C8.7792 7.72897 8.78128 7.73378 8.78319 7.73867C8.78508 7.74356 8.78677 7.74852 8.7883 7.75355C8.78982 7.75857 8.79113 7.76363 8.79227 7.76875C8.79338 7.77389 8.79433 7.77905 8.79508 7.78424C8.79581 7.78944 8.79635 7.79463 8.7967 7.79987C8.79703 7.8051 8.79716 7.81036 8.79712 7.81559C8.79716 7.819 8.79712 7.82238 8.79701 7.82577C8.79687 7.82918 8.79666 7.83256 8.79637 7.83593C8.79608 7.83932 8.79572 7.84271 8.79525 7.84606C8.79479 7.84942 8.79425 7.85277 8.79363 7.85612C8.793 7.85947 8.79228 7.86278 8.79151 7.86607C8.79072 7.86938 8.78984 7.87267 8.78889 7.87592C8.78793 7.87919 8.78691 7.88243 8.78581 7.88562C8.78469 7.88884 8.7835 7.89201 8.78224 7.89517C8.78097 7.89832 8.77962 7.90144 8.77819 7.90452C8.77677 7.9076 8.77526 7.91066 8.7737 7.91366C8.77214 7.91666 8.77048 7.91963 8.76877 7.92255C8.76703 7.9255 8.76524 7.92838 8.76339 7.93121C8.76152 7.93406 8.75959 7.93685 8.75759 7.93958C8.75558 7.94234 8.75352 7.94503 8.75138 7.94767C8.74924 7.95032 8.74705 7.9529 8.74479 7.95544C8.74253 7.95798 8.7402 7.96046 8.73781 7.96287C8.73542 7.9653 8.73299 7.96766 8.73049 7.96995C8.72798 7.97226 8.72542 7.97449 8.72282 7.97667C8.72019 7.97884 8.71753 7.98094 8.71482 7.98298C8.7121 7.98502 8.70934 7.987 8.70653 7.98891C8.70369 7.99083 8.70082 7.99266 8.69793 7.99441C8.69502 7.99618 8.69209 7.99788 8.6891 7.99949C8.68612 8.00111 8.68307 8.00267 8.68 8.00413C8.67694 8.00559 8.67386 8.007 8.67071 8.00831C8.66757 8.00962 8.66441 8.01087 8.66121 8.01202C8.65801 8.01318 8.65479 8.01425 8.65155 8.01525C8.6483 8.01626 8.64502 8.01718 8.64172 8.01803C8.63843 8.01887 8.63511 8.01962 8.6318 8.0203C8.62844 8.02099 8.62511 8.02159 8.62175 8.02209C8.61838 8.02261 8.61501 8.02303 8.61163 8.02338C8.60824 8.02372 8.60485 8.02397 8.60146 8.02415C8.59806 8.02434 8.59465 8.02444 8.59126 8.02444C8.58787 8.02444 8.58447 8.02434 8.5811 8.02415C8.57773 8.02397 8.57434 8.02372 8.57098 8.02338C8.56761 8.02303 8.56423 8.02261 8.5609 8.02209C8.55755 8.02159 8.55421 8.02099 8.5509 8.0203C8.54758 8.01962 8.54426 8.01885 8.54099 8.01801C8.53771 8.01718 8.53445 8.01626 8.53122 8.01524C8.528 8.01423 8.52478 8.01316 8.5216 8.01198C8.51842 8.01083 8.51527 8.0096 8.51215 8.00827C8.50903 8.00696 8.50595 8.00556 8.5029 8.00407C8.49985 8.00261 8.49683 8.00105 8.49386 7.99944C8.49089 7.99782 8.48796 7.99611 8.48507 7.99434C8.48218 7.99257 8.47934 7.99074 8.47655 7.98883C8.47375 7.98693 8.47102 7.98494 8.46832 7.98289C8.46562 7.98085 8.46298 7.97875 8.46038 7.97655C8.45778 7.97438 8.45525 7.97215 8.45276 7.96984C8.45028 7.96753 8.44787 7.96516 8.4455 7.96274C8.44314 7.96031 8.44085 7.95783 8.4386 7.95529C8.43636 7.95277 8.43418 7.95017 8.43208 7.94751C8.42996 7.94488 8.42792 7.94218 8.42595 7.93943C8.42397 7.9367 8.42206 7.93389 8.42023 7.93104C8.4184 7.92821 8.41664 7.92532 8.41494 7.92238C8.41325 7.91945 8.41163 7.91649 8.41009 7.91347C8.40854 7.91047 8.40708 7.90743 8.40569 7.90433C8.40428 7.90125 8.40297 7.89813 8.40174 7.89498C8.40051 7.89184 8.39935 7.88866 8.39827 7.88545C8.39719 7.88225 8.39619 7.87902 8.39528 7.87575C8.39436 7.87252 8.39351 7.86925 8.39278 7.86594C8.39201 7.86264 8.39135 7.85933 8.39075 7.85599C8.39016 7.85266 8.38965 7.84931 8.38923 7.84596C8.38881 7.84261 8.38848 7.83924 8.38823 7.83586C8.38796 7.83251 8.38778 7.82912 8.38771 7.82573C8.38763 7.82237 8.38763 7.81898 8.38771 7.81559ZM10.4606 8.89941C10.3278 8.95494 10.1948 9.00253 10.0667 9.0078C9.8688 9.01838 9.65235 8.93644 9.53519 8.83598C9.3525 8.68001 9.22208 8.59277 9.16747 8.32049C9.14397 8.20418 9.15687 8.02444 9.17774 7.92134C9.22474 7.69928 9.17244 7.55654 9.01887 7.427C8.89377 7.32125 8.73455 7.29217 8.55982 7.29217C8.49461 7.29217 8.43472 7.26311 8.39037 7.23931C8.38769 7.23804 8.38503 7.23667 8.38241 7.23525C8.37979 7.23382 8.3772 7.23234 8.37466 7.23078C8.37211 7.22924 8.36961 7.22761 8.36714 7.22591C8.36469 7.22424 8.36226 7.22249 8.35989 7.22068C8.35752 7.21887 8.35521 7.217 8.35293 7.21508C8.35066 7.21316 8.34844 7.21117 8.34626 7.20913C8.34409 7.20709 8.34197 7.205 8.3399 7.20284C8.33784 7.20068 8.33584 7.19849 8.33389 7.19622C8.33192 7.19399 8.33005 7.19168 8.32822 7.18931C8.32639 7.18696 8.3246 7.18458 8.3229 7.18213C8.32121 7.17969 8.31957 7.17721 8.31799 7.17469C8.31641 7.17216 8.31488 7.1696 8.31344 7.16699C8.31199 7.16439 8.31062 7.16175 8.30931 7.15906C8.308 7.15638 8.30675 7.15367 8.30557 7.15094C8.3044 7.1482 8.3033 7.14543 8.30228 7.14264C8.30126 7.13985 8.30029 7.13702 8.29943 7.13418C8.29854 7.13133 8.29773 7.12846 8.297 7.12557C8.29624 7.12269 8.29559 7.1198 8.29501 7.11687C8.29441 7.11395 8.29391 7.11102 8.29349 7.10806C8.29305 7.10512 8.29268 7.10215 8.29241 7.09919C8.29212 7.09622 8.29191 7.09326 8.29179 7.09028C8.29166 7.08731 8.29162 7.08433 8.29164 7.08135C8.29166 7.07838 8.29177 7.0754 8.29195 7.07242C8.29212 7.06946 8.29237 7.06649 8.29272 7.06353C8.29305 7.06056 8.29345 7.05762 8.29393 7.05468C8.29441 7.05175 8.29497 7.04882 8.29563 7.0459C8.29624 7.04301 8.29696 7.04013 8.29775 7.03724C8.29854 7.03437 8.29939 7.03152 8.30033 7.02868C8.30126 7.02585 8.30226 7.02304 8.30334 7.02027C8.3044 7.01749 8.30554 7.01474 8.30677 7.01201C8.30798 7.00932 8.30927 7.00662 8.31062 7.00397C8.31199 7.00131 8.3134 6.99869 8.3149 6.99611C8.3331 6.95911 8.42181 6.86921 8.44266 6.85336C8.67995 6.71589 8.95366 6.76085 9.20652 6.86394C9.44118 6.96174 9.61825 7.14151 9.8741 7.39529C10.1349 7.70193 10.1819 7.78653 10.3302 8.01651C10.4477 8.19625 10.5546 8.38131 10.6274 8.59277C10.6721 8.72496 10.6145 8.83333 10.4606 8.89941Z"   fill="#4D6BFE" >
</path>
</svg>
