<svg xmlns="http://www.w3.org/2000/svg" width="14" height="14" fill="none"><path fill="#fff" fill-rule="evenodd" d="M3.185 0h7.717c.025 0 .055.009.08.009.024 0 .045.009.07.009.024 0 .054.008.078.008s.046.018.07.018.046.017.07.017.047.026.07.026.047.017.07.027l.07.035c.022.01.04.014.061.026.022.012.049.031.07.044s.04.021.061.035l.062.043.061.044c.02.016.034.036.053.053l.052.052.053.053.052.052.044.062.043.06q.019.03.035.062a1 1 0 0 1 .07.131c.011.023.026.047.036.07s.026.047.026.07.017.047.017.07.027.046.027.07.008.046.008.07.018.055.018.079c0 .025.008.045.008.07s.01.045.01.07v11.13c0 .025-.01.045-.01.07s-.008.046-.008.07-.018.054-.018.079c0 .024-.008.046-.008.07s-.027.046-.027.07-.017.046-.017.07c0 .023-.017.047-.027.07s-.024.047-.034.07a2 2 0 0 1-.07.131c-.013.021-.022.04-.036.061l-.043.061q-.021.032-.044.062-.026.027-.053.052-.025.027-.052.053-.026.027-.053.052-.025.027-.052.053l-.061.043q-.03.023-.062.044c-.02.014-.04.022-.06.035-.022.013-.049.032-.07.044-.023.012-.04.016-.062.026s-.047.026-.07.035-.047.027-.07.027-.046.026-.07.026-.046.017-.07.017-.046.018-.07.018-.054.008-.079.008c-.024 0-.045.01-.07.01-.024 0-.054.008-.079.008H3.186c-.025 0-.045-.009-.07-.009s-.046-.008-.07-.008-.054-.01-.079-.01c-.024 0-.046-.017-.07-.017s-.046-.017-.07-.017c-.023 0-.046-.027-.07-.027-.023 0-.047-.016-.07-.026l-.07-.035c-.022-.01-.048-.014-.07-.026s-.04-.031-.061-.044-.04-.021-.061-.035l-.062-.043q-.031-.021-.06-.044-.028-.026-.053-.053-.027-.025-.053-.052-.027-.026-.052-.053-.027-.025-.053-.052l-.044-.062-.043-.06c-.014-.021-.023-.04-.035-.062s-.032-.04-.044-.061c-.012-.022-.016-.048-.026-.07s-.026-.047-.035-.07-.027-.047-.027-.07-.026-.046-.026-.07-.017-.046-.017-.07-.018-.046-.018-.07-.008-.055-.008-.079-.01-.045-.01-.07-.008-.045-.008-.07V1.435c0-.025.009-.045.009-.07s.009-.045.009-.07c0-.024.008-.054.008-.079 0-.024.018-.046.018-.07s.017-.046.017-.07c0-.023.026-.046.026-.07 0-.023.017-.047.027-.07L1.9.866c.01-.022.014-.048.026-.07s.031-.04.044-.061.021-.04.035-.061l.043-.061.044-.063q.025-.026.052-.05.025-.027.052-.053.026-.027.053-.052L2.3.34l.061-.044.062-.043q.03-.019.061-.035c.021-.013.04-.032.061-.044.022-.012.048-.016.07-.026s.047-.026.07-.035.047-.027.07-.027.047-.026.07-.026.046-.017.07-.017.046-.018.07-.018.054-.008.079-.008c.024 0 .045-.01.07-.01S3.16 0 3.185 0m.079.753c-.013 0-.023.008-.035.008H3.15c-.012 0-.023.009-.035.009s-.023.009-.035.009-.023.008-.035.008-.023.018-.035.018-.024.009-.035.009S2.951.83 2.94.83s-.024.02-.035.02c-.01 0-.016.017-.026.017s-.025.018-.035.018-.025.026-.035.026-.017.017-.026.017c-.01 0-.018.027-.027.027S2.74.97 2.73.98c0 .009-.026.017-.026.026 0 .01-.026.017-.026.026 0 .01-.018.017-.018.027s-.026.024-.026.035c0 .01-.018.024-.018.035 0 .01-.017.015-.017.026s-.018.024-.018.035-.017.024-.017.035-.009.023-.009.035-.018.023-.018.035-.008.023-.008.035-.009.023-.009.035-.009.023-.009.035v.079c0 .012-.009.022-.009.035v10.972c0 .013.01.023.01.035v.079c0 .012.008.023.008.035s.009.023.009.035.009.023.009.035.017.023.017.035.009.024.009.035.017.024.017.035.018.024.018.035c0 .01.017.016.017.026s.018.025.018.035.026.025.026.035.018.017.018.026c0 .01.026.018.026.027s.026.017.026.026c.009.009.017.026.026.026.01 0 .017.027.027.027s.016.017.026.017.024.026.035.026c.01 0 .024.018.035.018.01 0 .015.017.026.017s.024.018.035.018.024.017.035.017.023.009.035.009.023.018.035.018.023.008.035.008.023.009.035.009.023.009.035.009h.079c.012 0 .022.008.035.008h7.569c.012 0 .022-.008.034-.008h.08c.012 0 .022-.009.034-.009s.023-.009.035-.009.023-.008.035-.008.024-.018.035-.018.024-.009.035-.009.024-.017.035-.017.024-.018.035-.018.016-.017.026-.017c.011 0 .025-.018.035-.018s.017-.026.027-.026.025-.018.035-.018.017-.026.026-.026c.01 0 .018-.017.026-.026s.027-.017.027-.026c0-.01.026-.017.026-.027s.017-.016.017-.026.027-.024.027-.035c0-.01.017-.024.017-.035 0-.01.018-.015.018-.026s.017-.024.017-.035.018-.024.018-.035.008-.023.008-.035.018-.023.018-.035.009-.023.009-.035.008-.023.008-.035V12.6c0-.012.009-.023.009-.035V1.435c0-.012-.009-.023-.009-.035v-.035c0-.012-.008-.023-.008-.035s-.01-.023-.01-.035-.017-.023-.017-.035-.008-.024-.008-.035-.018-.024-.018-.035-.018-.024-.018-.035c0-.01-.017-.016-.017-.026s-.018-.025-.018-.035-.026-.025-.026-.035-.017-.017-.017-.026c0-.01-.027-.018-.027-.027S11.376.99 11.367.98 11.35.954 11.34.954s-.017-.026-.026-.026c-.01 0-.025-.018-.035-.018s-.016-.026-.027-.026-.024-.018-.035-.018c-.01 0-.015-.017-.026-.017S11.167.83 11.156.83s-.023-.017-.035-.017c-.011 0-.023-.009-.035-.009-.011 0-.023-.018-.035-.018S11.028.78 11.016.78s-.023-.01-.035-.01-.022-.009-.035-.009h-.079c-.012 0-.022-.009-.035-.009zm2.08.76H8.75q.568 0 .568.438t-.568.438H5.345q-.356 0-.489-.172-.079-.103-.079-.266 0-.437.568-.437m2.312 9.924q0-.657-.656-.657t-.656.657.656.656.656-.656" opacity="1"/></svg>