<svg xmlns="http://www.w3.org/2000/svg" xmlns:xlink="http://www.w3.org/1999/xlink" width="16" height="16" viewBox="0 0 16 16" fill="none">
<path     fill="#FFFFFF"  d="M0 16L16 16L16 0L0 0L0 16Z">
</path>
<path d="M11.9558 4.33794C12.2101 4.59286 12.353 4.93829 12.353 5.29835L12.353 6.63961C13.1043 6.63961 13.7133 7.24865 13.7133 7.99995L13.7133 12.3529C13.7133 13.1042 13.1043 13.7133 12.353 13.7133L3.64703 13.7133C2.89572 13.7133 2.28668 13.1042 2.28668 12.3529L2.28668 6.63961C2.28668 5.88831 2.89572 5.27927 3.64703 5.27927L3.64703 3.64697C3.64703 2.89566 4.25607 2.28662 5.00737 2.28662L9.34128 2.28662C9.70133 2.28674 10.0468 2.42957 10.3017 2.68381L11.9558 4.33794ZM10.9933 5.2984L10.9933 6.63996L7.84765 6.63996C7.59969 6.63948 7.36543 6.52633 7.21085 6.33245L6.61219 5.58684C6.45767 5.39296 6.22335 5.27984 5.97544 5.27934L5.00668 5.27934L5.00668 3.64662L9.34157 3.64662L10.9933 5.2984Z" fill-rule="evenodd"  fill="#2353f4" >
</path>
</svg>
