<svg xmlns="http://www.w3.org/2000/svg" width="16" height="16" fill="none" viewBox="0 0 16 16"><path fill="#008df0" d="M15.637 11.102a.683.683 0 0 1-.194.911l-.072.044-6.432 3.58-.089.077a1.3 1.3 0 0 1-.248.151 1.2 1.2 0 0 1-.229.085 1.3 1.3 0 0 1-.24.044L8 16c-.312 0-.61-.103-.85-.287l-.089-.074-6.432-3.58a.8.8 0 0 1-.22-.19.68.68 0 0 1-.084-.694l.038-.073a.8.8 0 0 1 .133-.16.7.7 0 0 1 .144-.102.73.73 0 0 1 .377-.088.7.7 0 0 1 .244.05 1 1 0 0 1 .096.044l6.621 3.687.022.024.02-.024 6.622-3.686a.7.7 0 0 1 .269-.088.7.7 0 0 1 .213.003.8.8 0 0 1 .235.079 1 1 0 0 1 .144.1.6.6 0 0 1 .114.132zm0-3.498a.683.683 0 0 1-.194.911l-.072.044-6.432 3.58-.089.077a1.3 1.3 0 0 1-.248.15 1.2 1.2 0 0 1-.229.085 1.3 1.3 0 0 1-.24.045L8 12.502a1.4 1.4 0 0 1-.85-.288l-.089-.073L.63 8.56a.74.74 0 0 1-.274-.27.7.7 0 0 1-.071-.493 1 1 0 0 1 .041-.121l.038-.073a.7.7 0 0 1 .309-.278.73.73 0 0 1 .38-.07.8.8 0 0 1 .305.092l6.621 3.687.022.023.02-.023 6.622-3.686a.7.7 0 0 1 .304-.092.7.7 0 0 1 .316.042.8.8 0 0 1 .24.144.7.7 0 0 1 .134.161M7.999 0c.308 0 .603.095.845.27l.075.058 6.59 3.14.092.095a1.4 1.4 0 0 1 .239.333 1.42 1.42 0 0 1-.239 1.637l-.091.096-6.591 3.137-.075.06a1.4 1.4 0 0 1-.713.265l-.132.005a1.44 1.44 0 0 1-.842-.27l-.077-.06L.49 5.63l-.092-.096a1.5 1.5 0 0 1-.34-.585 1.4 1.4 0 0 1 .21-1.227 2 2 0 0 1 .13-.158l.092-.096L7.08.329l.075-.058a1.43 1.43 0 0 1 .714-.265L8 .001z"/></svg>