<svg xmlns="http://www.w3.org/2000/svg" width="16" height="16" fill="none"><path fill="#FFF" fill-rule="evenodd" d="M10.724 6.083c-2.297 0-4.11 1.571-4.11 3.5 0 1.933 1.813 3.51 4.11 3.51.48 0 .957-.13 1.44-.25l1.33.73-.37-1.21c.969-.727 1.7-1.691 1.7-2.78 0-1.93-1.932-3.5-4.1-3.5m1.385 1.87c.302 0 .54.247.54.55 0 .301-.238.54-.54.54a.544.544 0 0 1-.55-.54c0-.303.248-.55.55-.55m-2.117.553a.544.544 0 0 0-.54-.55.55.55 0 0 0-.55.55c0 .302.248.54.55.54s.54-.239.54-.54"/><path fill="#FFF" fill-rule="evenodd" d="M1.18 6.571c0 1.327.722 2.416 1.93 3.26l-.48 1.45 1.69-.85c.605.12 1.088.24 1.69.24q.228 0 .45-.02a3.6 3.6 0 0 1-.15-1.01c0-2.11 1.808-3.82 4.1-3.82.158 0 .317.013.47.03-.418-1.944-2.496-3.39-4.87-3.39-2.653 0-4.83 1.814-4.83 4.11m3.86-1.45a.654.654 0 0 0-.65-.66.663.663 0 0 0-.66.66c0 .363.298.65.66.65s.65-.287.65-.65m2.722-.66c.362 0 .65.298.65.66s-.288.65-.65.65a.654.654 0 0 1-.66-.65c0-.362.298-.66.66-.66"/></svg>