<svg xmlns="http://www.w3.org/2000/svg" xmlns:xlink="http://www.w3.org/1999/xlink" width="24" height="24" viewBox="0 0 24 24" fill="none">
<path d="M10.4 3.22476C10.4086 3.21591 10.4175 3.20727 10.4265 3.19885C10.4356 3.19043 10.4448 3.18224 10.4543 3.17429C10.4637 3.16633 10.4734 3.15861 10.4833 3.15114C10.4931 3.14366 10.5031 3.13644 10.5134 3.12946C10.5236 3.12249 10.534 3.11577 10.5446 3.10931C10.5551 3.10286 10.5658 3.09667 10.5767 3.09074C10.5876 3.08482 10.5986 3.07917 10.6098 3.0738C10.6209 3.06842 10.6322 3.06333 10.6436 3.05852C10.6551 3.05371 10.6666 3.04918 10.6782 3.04495C10.6899 3.04071 10.7016 3.03676 10.7135 3.03311C10.7253 3.02946 10.7372 3.0261 10.7493 3.02305C10.7613 3.01999 10.7734 3.01723 10.7855 3.01478C10.7977 3.01232 10.8099 3.01017 10.8221 3.00833C10.8344 3.00648 10.8467 3.00494 10.8591 3.0037C10.8714 3.00247 10.8838 3.00154 10.8961 3.00093C10.9085 3.00031 10.9209 3 10.9333 3C10.9457 3 10.9581 3.00031 10.9705 3.00093C10.9829 3.00154 10.9953 3.00247 11.0076 3.0037C11.02 3.00494 11.0322 3.00648 11.0445 3.00833C11.0568 3.01017 11.069 3.01232 11.0812 3.01478C11.0933 3.01723 11.1054 3.01999 11.1174 3.02305C11.1294 3.0261 11.1413 3.02946 11.1532 3.03311C11.165 3.03676 11.1768 3.04071 11.1884 3.04495C11.2001 3.04918 11.2116 3.05371 11.223 3.05852C11.2345 3.06333 11.2457 3.06842 11.2569 3.0738C11.2681 3.07917 11.2791 3.08482 11.29 3.09074C11.3008 3.09667 11.3116 3.10286 11.3221 3.10931C11.3327 3.11577 11.3431 3.12249 11.3533 3.12946C11.3635 3.13644 11.3735 3.14366 11.3834 3.15114C11.3933 3.15861 11.4029 3.16633 11.4124 3.17429C11.4218 3.18224 11.4311 3.19043 11.4402 3.19885C11.4492 3.20727 11.458 3.21591 11.4667 3.22476C11.4756 3.23317 11.4844 3.24179 11.4929 3.25063C11.5015 3.25948 11.5098 3.26853 11.5178 3.2778C11.5259 3.28706 11.5337 3.29652 11.5413 3.30618C11.5489 3.31584 11.5562 3.32568 11.5633 3.33571C11.5704 3.34575 11.5772 3.35595 11.5837 3.36632C11.5903 3.3767 11.5966 3.38723 11.6026 3.39792C11.6086 3.40861 11.6143 3.41945 11.6198 3.43043C11.6252 3.44142 11.6304 3.45253 11.6353 3.46377C11.6402 3.47502 11.6448 3.48638 11.6491 3.49785C11.6534 3.50933 11.6574 3.52091 11.6611 3.53259C11.6648 3.54426 11.6682 3.55603 11.6714 3.56788C11.6745 3.57973 11.6773 3.59165 11.6797 3.60365C11.6822 3.61564 11.6844 3.62769 11.6863 3.63979C11.6882 3.65189 11.6898 3.66404 11.691 3.67622C11.6923 3.6884 11.6932 3.70061 11.6938 3.71284C11.6945 3.72507 11.6948 3.73731 11.6948 3.74955C11.6948 3.7618 11.6945 3.77403 11.6938 3.78626C11.6932 3.7985 11.6923 3.8107 11.691 3.82288C11.6898 3.83507 11.6882 3.84721 11.6863 3.85931C11.6844 3.87142 11.6822 3.88346 11.6797 3.89546C11.6773 3.90745 11.6745 3.91937 11.6713 3.93122C11.6682 3.94307 11.6648 3.95484 11.6611 3.96652C11.6574 3.9782 11.6534 3.98977 11.6491 4.00125C11.6448 4.01272 11.6402 4.02409 11.6353 4.03533C11.6304 4.04657 11.6252 4.05769 11.6198 4.06867C11.6143 4.07965 11.6086 4.09049 11.6026 4.10118C11.5966 4.11187 11.5903 4.12241 11.5837 4.13278C11.5772 4.14316 11.5704 4.15336 11.5633 4.16339C11.5562 4.17342 11.5489 4.18326 11.5413 4.19292C11.5337 4.20258 11.5259 4.21204 11.5178 4.22131C11.5098 4.23057 11.5015 4.23962 11.4929 4.24847C11.4844 4.25731 11.4756 4.26594 11.4667 4.27434L10.476 5.24978L12 5.24978C16.4187 5.24978 20 8.7744 20 13.1249C20 17.4754 16.4187 21 12 21C7.58134 21 4 17.4754 4 13.1249C4 11.6995 4.38133 10.2753 5.14266 9.07484C5.29467 8.7744 5.828 8.62485 6.13332 8.84984C6.51466 9.07484 6.66667 9.52486 6.43866 9.89941C6.42 9.92952 6.4016 9.9598 6.38346 9.99023C6.36533 10.0207 6.34744 10.0513 6.32985 10.082C6.31224 10.1127 6.29491 10.1436 6.27784 10.1746C6.26076 10.2057 6.24397 10.2369 6.22746 10.2682C6.21094 10.2995 6.1947 10.331 6.17871 10.3626C6.16274 10.3942 6.14705 10.4259 6.13163 10.4578C6.11622 10.4896 6.10108 10.5216 6.08622 10.5538C6.07136 10.5859 6.05678 10.6182 6.04249 10.6506C6.0282 10.6829 6.01418 10.7155 6.00045 10.7481C5.98672 10.7807 5.97327 10.8134 5.96013 10.8463C5.94697 10.8792 5.9341 10.9121 5.92152 10.9452C5.90892 10.9783 5.89664 11.0114 5.88464 11.0447C5.87263 11.078 5.86092 11.1114 5.84951 11.1449C5.83808 11.1784 5.82696 11.212 5.81612 11.2457C5.80529 11.2794 5.79475 11.3131 5.78451 11.347C5.77427 11.3809 5.76432 11.4148 5.75467 11.4488C5.74502 11.4829 5.73567 11.517 5.72661 11.5512C5.71756 11.5854 5.7088 11.6196 5.70035 11.654C5.69189 11.6883 5.68373 11.7227 5.67586 11.7572C5.66801 11.7917 5.66046 11.8263 5.6532 11.8609C5.64595 11.8955 5.639 11.9302 5.63235 11.9649C5.6257 11.9997 5.61936 12.0344 5.61332 12.0693C5.60728 12.1041 5.60154 12.139 5.59611 12.1739C5.59068 12.2089 5.58555 12.2439 5.58073 12.2789C5.5759 12.314 5.57139 12.349 5.56718 12.3841C5.56298 12.4192 5.55908 12.4544 5.55548 12.4896C5.55188 12.5247 5.54859 12.5599 5.54562 12.5952C5.54263 12.6304 5.53995 12.6657 5.5376 12.7009C5.53523 12.7362 5.53317 12.7715 5.53142 12.8068C5.52967 12.8421 5.52823 12.8775 5.5271 12.9128C5.52597 12.9482 5.52514 12.9835 5.52462 13.0188C5.52411 13.0542 5.5239 13.0896 5.524 13.1249C5.524 16.6495 8.41866 19.5004 12 19.5004C15.5813 19.5004 18.476 16.6495 18.476 13.1249C18.476 9.6003 15.5813 6.74937 12 6.74937L8.648 6.74937C8.63568 6.74884 8.62337 6.74803 8.61109 6.74694C8.59878 6.74586 8.58653 6.74452 8.5743 6.74289C8.56207 6.74126 8.54989 6.73936 8.53775 6.73719C8.52561 6.73502 8.51352 6.73259 8.50149 6.72988C8.48946 6.72716 8.4775 6.7242 8.4656 6.72096C8.4537 6.71774 8.44188 6.71422 8.43014 6.71046C8.4184 6.7067 8.40676 6.70268 8.39518 6.69839C8.38362 6.69412 8.37218 6.68958 8.36082 6.68478C8.34946 6.68001 8.33823 6.67496 8.32709 6.66966C8.31597 6.66437 8.30498 6.65885 8.2941 6.65306C8.28322 6.64729 8.27248 6.64126 8.26187 6.635C8.25126 6.62876 8.2408 6.62228 8.23048 6.61555C8.22018 6.60882 8.21003 6.60187 8.20002 6.5947C8.19001 6.58754 8.18019 6.58014 8.17052 6.57254C8.16084 6.56494 8.15137 6.5571 8.14205 6.54907C8.13273 6.54103 8.12362 6.5328 8.11467 6.52437C8.10568 6.51597 8.09693 6.50736 8.0884 6.49851C8.07987 6.48966 8.07158 6.4806 8.0635 6.47133C8.05542 6.46208 8.0476 6.45262 8.04002 6.44296C8.03244 6.43329 8.02511 6.42345 8.01804 6.41342C8.01096 6.4034 8.00415 6.39319 7.99758 6.38281C7.99104 6.37244 7.98475 6.36191 7.97873 6.35121C7.97272 6.34054 7.96698 6.3297 7.96153 6.3187C7.95608 6.30773 7.9509 6.29662 7.94601 6.28536C7.94113 6.27413 7.93653 6.26276 7.93223 6.25127C7.92791 6.2398 7.9239 6.22824 7.9202 6.21655C7.9165 6.20488 7.91309 6.19311 7.90997 6.18126C7.90686 6.16941 7.90407 6.15748 7.90157 6.14549C7.89907 6.13351 7.89689 6.12146 7.89501 6.10935C7.89313 6.09724 7.89158 6.0851 7.89032 6.07291C7.88907 6.06075 7.88812 6.04853 7.8875 6.0363C7.88686 6.02407 7.88655 6.01183 7.88655 5.99958C7.88655 5.98735 7.88686 5.9751 7.8875 5.96287C7.88812 5.95063 7.88907 5.93844 7.89032 5.92624C7.89158 5.91408 7.89313 5.90194 7.89501 5.88982C7.89689 5.87773 7.89907 5.86568 7.90157 5.85368C7.90407 5.8417 7.90686 5.82978 7.90997 5.81791C7.91309 5.80607 7.9165 5.79431 7.9202 5.78262C7.9239 5.77095 7.92791 5.75937 7.93223 5.74788C7.93653 5.7364 7.94113 5.72506 7.94601 5.7138C7.9509 5.70257 7.95608 5.69145 7.96153 5.68047C7.96698 5.66949 7.97272 5.65865 7.97873 5.64795C7.98475 5.63728 7.99104 5.62675 7.99758 5.61636C8.00415 5.60599 8.01096 5.59578 8.01804 5.58574C8.02511 5.57572 8.03244 5.56587 8.04002 5.55621C8.0476 5.54655 8.05542 5.53708 8.0635 5.52782C8.07158 5.51857 8.07987 5.50952 8.0884 5.50066C8.09693 5.49183 8.10568 5.48319 8.11467 5.4748L10.4 3.22476ZM12.152 9.3753C12.1644 9.37526 12.1768 9.37551 12.1892 9.37606C12.2016 9.37664 12.214 9.37749 12.2263 9.37864C12.2387 9.3798 12.251 9.38127 12.2633 9.38302C12.2756 9.3848 12.2878 9.38686 12.3 9.38921C12.3122 9.39157 12.3243 9.39423 12.3363 9.39716C12.3484 9.40011 12.3604 9.40335 12.3723 9.40686C12.3841 9.4104 12.3959 9.41422 12.4076 9.41831C12.4193 9.4224 12.4309 9.42678 12.4424 9.43145C12.4539 9.43612 12.4653 9.44106 12.4765 9.44627C12.4878 9.4515 12.4989 9.45698 12.5098 9.46273C12.5208 9.46849 12.5317 9.47451 12.5423 9.48079C12.553 9.48709 12.5635 9.49362 12.5739 9.50041C12.5842 9.50721 12.5944 9.51425 12.6044 9.52154C12.6144 9.52884 12.6242 9.53636 12.6338 9.54413C12.6435 9.55191 12.6529 9.55989 12.6622 9.5681C12.6714 9.57634 12.6804 9.58479 12.6892 9.59346C12.6981 9.60212 12.7067 9.61099 12.7151 9.62007C12.7234 9.62916 12.7316 9.63844 12.7395 9.64792C12.7474 9.6574 12.7551 9.66707 12.7626 9.67691C12.77 9.68677 12.7772 9.6968 12.7842 9.707C12.7911 9.71721 12.7978 9.72758 12.8043 9.73811C12.8107 9.74864 12.8169 9.75932 12.8228 9.77014C12.8287 9.78098 12.8344 9.79194 12.8397 9.80304C12.8451 9.81415 12.8502 9.82538 12.855 9.83673C12.8598 9.84809 12.8644 9.85955 12.8686 9.87111C12.8729 9.88269 12.8769 9.89436 12.8805 9.90613C12.8842 9.91789 12.8876 9.92974 12.8907 9.94167C12.8938 9.95361 12.8966 9.9656 12.8991 9.97767C12.9016 9.98974 12.9038 10.0019 12.9057 10.014C12.9076 10.0262 12.9092 10.0384 12.9105 10.0507C12.9118 10.0629 12.9128 10.0752 12.9135 10.0875C12.9142 10.0998 12.9146 10.1121 12.9147 10.1244L12.9147 12.4499L15.276 12.4499C15.7333 12.4499 16.0387 12.7503 16.0387 13.2004C16.0387 13.6504 15.7333 13.9495 15.276 13.9495L12.152 13.9495C11.6947 13.9495 11.3907 13.6504 11.3907 13.2004L11.3907 10.1244C11.3907 9.67441 11.6947 9.3753 12.152 9.3753Z"   fill="#000000" >
</path>
</svg>
