<svg xmlns="http://www.w3.org/2000/svg" width="256" height="256" class="icon" viewBox="0 0 1024 1024"><path fill="currentColor" d="M576 928H192c-52.992 0-96-43.093-96-96V192c0-52.992 43.093-96 96-96h640c52.992 0 96 43.093 96 96v384.064c0 17.707-14.293 32-32 32s-32-14.293-32-32V192.021c0-17.706-14.4-32-32-32H192c-17.707 0-32 14.379-32 32V831.98c0 17.706 14.4 32 32 32h384c17.707 0 32 14.314 32 32C608 913.685 593.707 928 576 928M128 693.312a32.064 32.064 0 0 1-22.613-54.699l159.402-159.338a95.79 95.79 0 0 1 110.72-17.984l173.59 86.805c12.309 6.187 27.093 3.797 36.8-5.995L873.3 254.656a32.043 32.043 0 0 1 45.291 45.312L631.211 587.392a95.79 95.79 0 0 1-110.72 18.005L346.9 518.571a31.62 31.62 0 0 0-36.8 6.016L150.592 683.904c-6.187 6.315-14.4 9.387-22.592 9.387zm320-277.376c-52.907 0-96-43.093-96-96s43.093-96.021 96-96.021 96 43.093 96 96-43.093 96.021-96 96.021m0-128c-17.6 0-32 14.379-32 32 0 17.6 14.4 32 32 32s32-14.4 32-32c0-17.621-14.4-32-32-32M768 928c-17.707 0-32-14.293-32-32V703.979c0-17.707 14.293-32 32-32s32 14.293 32 32v192C800 913.685 785.707 928 768 928m128-128c-7.893 0-15.701-2.923-21.91-8.725L768 691.669l-106.09 99.712a31.936 31.936 0 0 1-45.227-1.408 31.957 31.957 0 0 1 1.408-45.205l112.213-105.387A48.56 48.56 0 0 1 768 621.44a48.5 48.5 0 0 1 37.696 17.92l112.213 105.387A31.957 31.957 0 0 1 896 800"/></svg>