<?xml version="1.0" standalone="no"?><!DOCTYPE svg PUBLIC "-//W3C//DTD SVG 1.1//EN" "http://www.w3.org/Graphics/SVG/1.1/DTD/svg11.dtd"><svg t="1721130460932" class="icon" viewBox="0 0 1024 1024" version="1.1" xmlns="http://www.w3.org/2000/svg" p-id="5952" data-spm-anchor-id="a313x.search_index.0.i0.5f053a8182ukYZ" xmlns:xlink="http://www.w3.org/1999/xlink" width="256" height="256"><path d="M513.99 207c52.93 0 96 43.07 96 96v200c0 52.93-43.07 96-96 96s-96-43.07-96-96V303c-0.01-52.93 43.06-96 96-96m0-64c-88.37 0-160 71.63-160 160v200c0 88.37 71.63 160 160 160s160-71.63 160-160V303c-0.01-88.37-71.64-160-160-160z" p-id="5953" data-spm-anchor-id="a313x.search_index.0.i5.5f053a8182ukYZ" class="selected" fill="#4AA061"></path><path d="M766.02 497.02c-16.16 0-29.76 12.06-31.75 28.1-6.12 49.19-28.26 94.68-63.87 130.29-42.31 42.31-98.56 65.61-158.39 65.61-59.83 0-116.08-23.3-158.39-65.61-35.61-35.61-57.76-81.1-63.87-130.29-2-16.04-15.59-28.1-31.75-28.1-19.23 0-34.14 16.84-31.76 35.92 16.46 132.3 122.66 236.73 255.77 250.51V817h-96c-17.67 0-32 14.33-32 32s14.33 32 32 32h256c17.67 0 32-14.33 32-32s-14.33-32-32-32h-96v-33.97c131.25-15.43 235.5-119.11 251.8-250.09 2.35-19.08-12.56-35.92-31.79-35.92z" p-id="5954" data-spm-anchor-id="a313x.search_index.0.i1.5f053a8182ukYZ" class="selected" fill="#4AA061"></path></svg>