<svg xmlns="http://www.w3.org/2000/svg" xmlns:xlink="http://www.w3.org/1999/xlink" width="16" height="16" viewBox="0 0 16 16" fill="none">
<path d="M7.59983 10.6666C7.6665 10.6666 7.6665 10.6666 7.59983 10.6666L11.3332 10.6666C12.0665 10.6666 12.6665 10.0666 12.6665 9.33325L12.6665 5.33325C12.6665 4.59992 12.0665 3.99992 11.3332 3.99992L4.6665 3.99992C3.93316 3.99992 3.33316 4.59992 3.33316 5.33325L3.33316 9.33325C3.33316 10.0666 3.93316 10.6666 4.6665 10.6666L4.99983 10.6666C5.19983 10.6666 5.33316 10.7999 5.33316 10.9999C5.33316 11.1999 5.19983 11.3333 4.99983 11.3333L4.6665 11.3333C3.53316 11.3333 2.6665 10.4666 2.6665 9.33325L2.6665 5.33325C2.6665 4.19992 3.53316 3.33325 4.6665 3.33325L11.3332 3.33325C12.4665 3.33325 13.3332 4.19992 13.3332 5.33325L13.3332 9.33325C13.3332 10.4666 12.4665 11.3333 11.3332 11.3333L7.73316 11.3333L5.13316 12.5999C4.99983 12.6666 4.79983 12.5999 4.6665 12.4666C4.59983 12.3333 4.6665 12.1333 4.79983 11.9999L7.4665 10.6666L7.59983 10.6666Z"   fill="#989898" >
</path>
<path d="M4.6665 7.3334C4.6665 7.34432 4.66677 7.35523 4.6673 7.36612C4.66783 7.37702 4.66863 7.3879 4.66971 7.39875C4.67078 7.40961 4.67212 7.42044 4.67372 7.43123C4.67532 7.44202 4.67718 7.45277 4.67932 7.46347C4.68144 7.47417 4.68383 7.48481 4.68647 7.4954C4.68913 7.50598 4.69204 7.51649 4.69521 7.52694C4.69837 7.53737 4.7018 7.54773 4.70547 7.558C4.70915 7.56827 4.71307 7.57845 4.71724 7.58853C4.72142 7.59861 4.72584 7.60859 4.7305 7.61845C4.73517 7.62831 4.74008 7.63804 4.74522 7.64767C4.75036 7.65729 4.75573 7.66678 4.76135 7.67614C4.76695 7.6855 4.77279 7.69472 4.77885 7.70379C4.78491 7.71287 4.79119 7.72178 4.79769 7.73055C4.80419 7.73931 4.8109 7.7479 4.81783 7.75634C4.82475 7.76477 4.83187 7.77302 4.83919 7.78111C4.84652 7.7892 4.85405 7.7971 4.86175 7.80481C4.86947 7.81253 4.87737 7.82005 4.88546 7.82737C4.89354 7.83471 4.9018 7.84183 4.91024 7.84875C4.91868 7.85567 4.92727 7.86238 4.93604 7.86887C4.9448 7.87537 4.95371 7.88165 4.96279 7.88772C4.97186 7.89378 4.98107 7.89962 4.99043 7.90523C4.99979 7.91084 5.00928 7.91621 5.01889 7.92136C5.02852 7.9265 5.03826 7.9314 5.04813 7.93606C5.05799 7.94073 5.06797 7.94515 5.07805 7.94933C5.08812 7.9535 5.0983 7.95743 5.10857 7.96111C5.11885 7.96478 5.12921 7.96821 5.13964 7.97137C5.15008 7.97454 5.16059 7.97745 5.17118 7.98009C5.18176 7.98275 5.19241 7.98514 5.20311 7.98726C5.21381 7.98939 5.22456 7.99125 5.23535 7.99286C5.24614 7.99446 5.25696 7.9958 5.26782 7.99687C5.27868 7.99794 5.28956 7.99874 5.30046 7.99928C5.31135 7.99981 5.32225 8.00008 5.33316 8.00008C5.34408 8.00008 5.35498 7.99981 5.36588 7.99928C5.37677 7.99874 5.38765 7.99794 5.3985 7.99687C5.40937 7.9958 5.4202 7.99446 5.43099 7.99286C5.44178 7.99125 5.45252 7.98939 5.46322 7.98726C5.47392 7.98514 5.48457 7.98275 5.49516 7.98009C5.50574 7.97745 5.51625 7.97454 5.52669 7.97137C5.53713 7.96821 5.54748 7.96478 5.55775 7.96111C5.56802 7.95743 5.5782 7.9535 5.58829 7.94933C5.59837 7.94515 5.60834 7.94073 5.61821 7.93606C5.62807 7.9314 5.63781 7.9265 5.64743 7.92136C5.65705 7.91621 5.66654 7.91084 5.67589 7.90523C5.68526 7.89962 5.69448 7.89378 5.70355 7.88772C5.71262 7.88165 5.72154 7.87537 5.7303 7.86887C5.73906 7.86238 5.74766 7.85567 5.7561 7.84875C5.76453 7.84183 5.7728 7.83471 5.78088 7.82737C5.78896 7.82005 5.79686 7.81253 5.80457 7.80481C5.81229 7.7971 5.81981 7.7892 5.82713 7.78111C5.83446 7.77302 5.84159 7.76477 5.8485 7.75634C5.85543 7.7479 5.86214 7.73931 5.86864 7.73055C5.87514 7.72178 5.88141 7.71287 5.88747 7.70379C5.89354 7.69472 5.89937 7.6855 5.90499 7.67614C5.91059 7.66678 5.91597 7.65729 5.92111 7.64767C5.92626 7.63804 5.93117 7.62831 5.93583 7.61845C5.94049 7.60859 5.94491 7.59861 5.94908 7.58853C5.95326 7.57845 5.95719 7.56827 5.96086 7.558C5.96454 7.54773 5.96796 7.53737 5.97113 7.52694C5.9743 7.51649 5.9772 7.50598 5.97985 7.4954C5.9825 7.48481 5.98489 7.47417 5.98702 7.46347C5.98916 7.45277 5.99102 7.44202 5.99261 7.43123C5.99422 7.42044 5.99556 7.40961 5.99663 7.39875C5.99769 7.3879 5.99849 7.37702 5.99903 7.36612C5.99957 7.35523 5.99983 7.34432 5.99983 7.3334C5.99983 7.3225 5.99957 7.3116 5.99903 7.3007C5.99849 7.28981 5.99769 7.27893 5.99663 7.26806C5.99556 7.25721 5.99422 7.24638 5.99261 7.23559C5.99102 7.2248 5.98916 7.21405 5.98702 7.20334C5.98489 7.19264 5.9825 7.182 5.97985 7.17142C5.9772 7.16084 5.9743 7.15033 5.97113 7.13989C5.96796 7.12945 5.96454 7.11909 5.96086 7.10881C5.95719 7.09854 5.95326 7.08836 5.94908 7.07828C5.94491 7.06821 5.94049 7.05824 5.93583 7.04837C5.93117 7.03851 5.92626 7.02876 5.92111 7.01914C5.91597 7.00952 5.91059 7.00004 5.90499 6.99067C5.89937 6.98132 5.89354 6.9721 5.88747 6.96303C5.88141 6.95396 5.87514 6.94504 5.86864 6.93628C5.86214 6.92752 5.85543 6.91892 5.8485 6.91048C5.84159 6.90204 5.83446 6.89378 5.82713 6.8857C5.81981 6.87762 5.81229 6.86972 5.80457 6.862C5.79686 6.85429 5.78896 6.84677 5.78088 6.83944C5.77279 6.83211 5.76452 6.82499 5.7561 6.81808C5.74766 6.81115 5.73906 6.80444 5.7303 6.79794C5.72154 6.79144 5.71262 6.78515 5.70355 6.77909C5.69448 6.77303 5.68526 6.7672 5.67589 6.76159C5.66654 6.75598 5.65705 6.7506 5.64743 6.74547C5.63781 6.74032 5.62807 6.73541 5.61821 6.73075C5.60834 6.72608 5.59837 6.72166 5.58829 6.71748C5.5782 6.71332 5.56802 6.70939 5.55775 6.70572C5.54748 6.70204 5.53713 6.69862 5.52669 6.69545C5.51625 6.69228 5.50574 6.68937 5.49516 6.68672C5.48458 6.68407 5.47393 6.68169 5.46322 6.67956C5.45252 6.67743 5.44178 6.67556 5.43099 6.67395C5.4202 6.67236 5.40937 6.67102 5.3985 6.66995C5.38765 6.66888 5.37677 6.66808 5.36588 6.66754C5.35498 6.66701 5.34408 6.66675 5.33316 6.66675C5.32225 6.66675 5.31135 6.66701 5.30046 6.66754C5.28956 6.66808 5.27868 6.66888 5.26782 6.66995C5.25696 6.67102 5.24614 6.67236 5.23535 6.67395C5.22456 6.67556 5.21381 6.67743 5.20311 6.67956C5.19241 6.68169 5.18176 6.68407 5.17118 6.68672C5.16059 6.68937 5.15008 6.69228 5.13964 6.69545C5.12921 6.69862 5.11885 6.70204 5.10857 6.70572C5.0983 6.70939 5.08812 6.71332 5.07805 6.71748C5.06797 6.72166 5.05799 6.72608 5.04813 6.73075C5.03826 6.73541 5.02852 6.74032 5.01889 6.74547C5.00928 6.7506 4.99979 6.75598 4.99043 6.76159C4.98107 6.7672 4.97186 6.77303 4.96279 6.77909C4.95371 6.78515 4.9448 6.79144 4.93604 6.79794C4.92727 6.80444 4.91868 6.81115 4.91024 6.81808C4.9018 6.82499 4.89354 6.83211 4.88546 6.83944C4.87737 6.84677 4.86947 6.85429 4.86175 6.862C4.85405 6.86972 4.84652 6.87762 4.83919 6.8857C4.83187 6.89378 4.82475 6.90204 4.81783 6.91048C4.8109 6.91892 4.80419 6.92752 4.79769 6.93628C4.79119 6.94504 4.78491 6.95396 4.77885 6.96303C4.77279 6.9721 4.76695 6.98132 4.76135 6.99067C4.75573 7.00004 4.75036 7.00952 4.74522 7.01914C4.74008 7.02876 4.73517 7.03851 4.7305 7.04837C4.72584 7.05824 4.72142 7.06821 4.71724 7.07828C4.71307 7.08836 4.70915 7.09854 4.70547 7.10881C4.7018 7.11909 4.69837 7.12945 4.69521 7.13989C4.69204 7.15033 4.68913 7.16084 4.68647 7.17142C4.68383 7.182 4.68144 7.19264 4.67932 7.20334C4.67718 7.21405 4.67531 7.2248 4.67371 7.23559C4.67211 7.24638 4.67078 7.25721 4.66971 7.26806C4.66863 7.27893 4.66783 7.28981 4.6673 7.3007C4.66677 7.3116 4.6665 7.3225 4.6665 7.3334Z"   fill="#989898" >
</path>
<path d="M7.3335 7.3334C7.3335 7.34432 7.33377 7.35523 7.33431 7.36612C7.33484 7.37702 7.33564 7.3879 7.33671 7.39875C7.33778 7.40961 7.33911 7.42044 7.34071 7.43123C7.34232 7.44202 7.34418 7.45277 7.34631 7.46347C7.34843 7.47417 7.35082 7.48481 7.35348 7.4954C7.35614 7.50598 7.35905 7.51649 7.36221 7.52694C7.36538 7.53737 7.3688 7.54773 7.37246 7.558C7.37614 7.56827 7.38007 7.57845 7.38425 7.58853C7.38842 7.59861 7.39285 7.60859 7.39751 7.61845C7.40218 7.62831 7.40708 7.63804 7.41221 7.64767C7.41736 7.65729 7.42274 7.66678 7.42836 7.67614C7.43396 7.6855 7.43979 7.69472 7.44586 7.70379C7.45192 7.71287 7.4582 7.72178 7.4647 7.73055C7.4712 7.73931 7.47791 7.7479 7.48482 7.75634C7.49175 7.76477 7.49888 7.77302 7.5062 7.78111C7.51352 7.7892 7.52104 7.7971 7.52876 7.80481C7.53648 7.81253 7.54438 7.82005 7.55246 7.82737C7.56055 7.83471 7.56881 7.84183 7.57725 7.84875C7.58567 7.85567 7.59427 7.86238 7.60303 7.86887C7.6118 7.87537 7.62072 7.88165 7.62979 7.88772C7.63887 7.89378 7.64808 7.89962 7.65743 7.90523C7.66679 7.91084 7.67628 7.91621 7.6859 7.92136C7.69553 7.9265 7.70527 7.9314 7.71514 7.93606C7.72499 7.94073 7.73496 7.94515 7.74504 7.94933C7.75513 7.9535 7.7653 7.95743 7.77557 7.96111C7.78584 7.96478 7.7962 7.96821 7.80665 7.97137C7.81709 7.97454 7.8276 7.97745 7.83818 7.98009C7.84877 7.98275 7.85941 7.98514 7.87011 7.98726C7.8808 7.98939 7.89155 7.99125 7.90234 7.99286C7.91314 7.99446 7.92397 7.9958 7.93482 7.99687C7.94568 7.99794 7.95655 7.99874 7.96745 7.99928C7.97836 7.99981 7.98926 8.00008 8.00017 8.00008C8.01107 8.00008 8.02198 7.99981 8.03289 7.99928C8.04378 7.99874 8.05466 7.99794 8.06551 7.99687C8.07636 7.9958 8.08719 7.99446 8.09798 7.99286C8.10878 7.99125 8.11953 7.98939 8.13023 7.98726C8.14093 7.98514 8.15157 7.98275 8.16215 7.98009C8.17274 7.97745 8.18325 7.97454 8.19368 7.97137C8.20413 7.96821 8.21449 7.96478 8.22476 7.96111C8.23503 7.95743 8.24521 7.9535 8.25529 7.94933C8.26536 7.94515 8.27533 7.94073 8.2852 7.93606C8.29506 7.9314 8.30481 7.9265 8.31443 7.92136C8.32406 7.91621 8.33355 7.91084 8.3429 7.90523C8.35226 7.89962 8.36147 7.89378 8.37054 7.88772C8.37962 7.88165 8.38854 7.87537 8.39731 7.86887C8.40607 7.86238 8.41467 7.85567 8.42311 7.84875C8.43153 7.84183 8.43979 7.83471 8.44787 7.82737C8.45595 7.82005 8.46386 7.81253 8.47157 7.80481C8.47929 7.7971 8.48681 7.7892 8.49414 7.78111C8.50146 7.77302 8.50858 7.76477 8.51551 7.75634C8.52243 7.7479 8.52914 7.73931 8.53564 7.73055C8.54214 7.72178 8.54842 7.71287 8.55448 7.70379C8.56054 7.69472 8.56638 7.6855 8.57198 7.67614C8.57759 7.66678 8.58298 7.65729 8.58812 7.64767C8.59326 7.63804 8.59816 7.62831 8.60282 7.61845C8.60749 7.60859 8.61191 7.59861 8.61609 7.58853C8.62027 7.57845 8.62419 7.56827 8.62786 7.558C8.63153 7.54773 8.63495 7.53737 8.63812 7.52694C8.64129 7.51649 8.6442 7.50598 8.64686 7.4954C8.6495 7.48481 8.65189 7.47417 8.65403 7.46347C8.65615 7.45277 8.65802 7.44202 8.65962 7.43123C8.66123 7.42044 8.66256 7.40961 8.66362 7.39875C8.66469 7.3879 8.6655 7.37702 8.66603 7.36612C8.66657 7.35523 8.66684 7.34432 8.66684 7.3334C8.66684 7.3225 8.66657 7.3116 8.66603 7.3007C8.6655 7.28981 8.66469 7.27893 8.66362 7.26806C8.66256 7.25721 8.66123 7.24638 8.65962 7.23559C8.65802 7.2248 8.65615 7.21405 8.65403 7.20334C8.65189 7.19264 8.6495 7.182 8.64686 7.17142C8.6442 7.16084 8.64129 7.15033 8.63812 7.13989C8.63495 7.12945 8.63153 7.11909 8.62786 7.10881C8.62419 7.09854 8.62027 7.08836 8.61609 7.07828C8.61191 7.06821 8.60749 7.05824 8.60282 7.04837C8.59816 7.03851 8.59326 7.02876 8.58812 7.01914C8.58298 7.00952 8.57759 7.00004 8.57198 6.99067C8.56638 6.98132 8.56054 6.9721 8.55448 6.96303C8.54842 6.95396 8.54214 6.94504 8.53564 6.93628C8.52914 6.92752 8.52243 6.91892 8.51551 6.91048C8.50858 6.90204 8.50146 6.89378 8.49414 6.8857C8.48681 6.87762 8.47929 6.86972 8.47157 6.862C8.46386 6.85429 8.45595 6.84677 8.44787 6.83944C8.43979 6.83211 8.43153 6.82499 8.42309 6.81808C8.41466 6.81115 8.40606 6.80444 8.39729 6.79794C8.38853 6.79144 8.37962 6.78515 8.37054 6.77909C8.36147 6.77303 8.35226 6.7672 8.3429 6.76159C8.33355 6.75598 8.32406 6.7506 8.31443 6.74547C8.30481 6.74032 8.29506 6.73541 8.2852 6.73075C8.27533 6.72608 8.26536 6.72166 8.25529 6.71748C8.24521 6.71332 8.23503 6.70939 8.22476 6.70572C8.21449 6.70204 8.20413 6.69862 8.19368 6.69545C8.18325 6.69228 8.17274 6.68937 8.16215 6.68672C8.15157 6.68407 8.14093 6.68169 8.13023 6.67956C8.11953 6.67743 8.10878 6.67556 8.09798 6.67395C8.08719 6.67236 8.07636 6.67102 8.06551 6.66995C8.05466 6.66888 8.04378 6.66808 8.03289 6.66754C8.02198 6.66701 8.01107 6.66675 8.00017 6.66675C7.98926 6.66675 7.97836 6.66701 7.96745 6.66754C7.95655 6.66808 7.94568 6.66888 7.93482 6.66995C7.92397 6.67102 7.91314 6.67236 7.90234 6.67395C7.89155 6.67556 7.8808 6.67743 7.87011 6.67956C7.85941 6.68169 7.84877 6.68407 7.83818 6.68672C7.8276 6.68937 7.81708 6.69228 7.80664 6.69545C7.7962 6.69862 7.78584 6.70204 7.77557 6.70572C7.7653 6.70939 7.75513 6.71332 7.74504 6.71748C7.73496 6.72166 7.72499 6.72608 7.71514 6.73075C7.70527 6.73541 7.69553 6.74032 7.6859 6.74547C7.67628 6.7506 7.66679 6.75598 7.65743 6.76159C7.64808 6.7672 7.63887 6.77303 7.62979 6.77909C7.62072 6.78515 7.6118 6.79144 7.60303 6.79794C7.59427 6.80444 7.58567 6.81115 7.57723 6.81808C7.5688 6.82499 7.56055 6.83211 7.55246 6.83944C7.54438 6.84677 7.53648 6.85429 7.52876 6.862C7.52104 6.86972 7.51352 6.87762 7.5062 6.8857C7.49888 6.89378 7.49175 6.90204 7.48482 6.91048C7.47791 6.91892 7.4712 6.92752 7.4647 6.93628C7.4582 6.94504 7.45192 6.95396 7.44586 6.96303C7.43979 6.9721 7.43396 6.98132 7.42836 6.99067C7.42274 7.00004 7.41736 7.00952 7.41221 7.01914C7.40708 7.02876 7.40218 7.03851 7.39751 7.04837C7.39285 7.05824 7.38842 7.06821 7.38425 7.07828C7.38007 7.08836 7.37614 7.09854 7.37246 7.10881C7.3688 7.11909 7.36538 7.12945 7.36221 7.13989C7.35905 7.15033 7.35614 7.16084 7.35348 7.17142C7.35082 7.182 7.34843 7.19264 7.34631 7.20334C7.34418 7.21405 7.34232 7.2248 7.34071 7.23559C7.33911 7.24638 7.33778 7.25721 7.33671 7.26806C7.33564 7.27893 7.33484 7.28981 7.33431 7.3007C7.33377 7.3116 7.3335 7.3225 7.3335 7.3334Z"   fill="#989898" >
</path>
<path d="M10 7.3334C10 7.34432 10.0003 7.35523 10.0008 7.36612C10.0013 7.37702 10.0021 7.3879 10.0032 7.39875C10.0043 7.40961 10.0056 7.42044 10.0072 7.43123C10.0088 7.44202 10.0107 7.45277 10.0128 7.46347C10.0149 7.47417 10.0173 7.48481 10.02 7.4954C10.0226 7.50598 10.0255 7.51649 10.0287 7.52694C10.0319 7.53737 10.0353 7.54773 10.039 7.558C10.0426 7.56827 10.0466 7.57845 10.0507 7.58853C10.0549 7.59861 10.0593 7.60859 10.064 7.61845C10.0687 7.62831 10.0736 7.63804 10.0787 7.64767C10.0839 7.65729 10.0892 7.66678 10.0948 7.67614C10.1005 7.6855 10.1063 7.69472 10.1124 7.70379C10.1184 7.71287 10.1247 7.72178 10.1312 7.73055C10.1377 7.73931 10.1444 7.7479 10.1513 7.75634C10.1582 7.76477 10.1654 7.77302 10.1727 7.78111C10.18 7.7892 10.1875 7.7971 10.1953 7.80481C10.203 7.81253 10.2109 7.82005 10.219 7.82737C10.2271 7.83471 10.2353 7.84183 10.2437 7.84875C10.2522 7.85567 10.2608 7.86238 10.2695 7.86887C10.2783 7.87537 10.2872 7.88165 10.2963 7.88772C10.3054 7.89378 10.3146 7.89962 10.3239 7.90523C10.3333 7.91084 10.3428 7.91621 10.3524 7.92136C10.362 7.9265 10.3718 7.9314 10.3816 7.93606C10.3915 7.94073 10.4015 7.94515 10.4115 7.94933C10.4216 7.9535 10.4318 7.95743 10.4421 7.96111C10.4523 7.96478 10.4627 7.96821 10.4731 7.97137C10.4836 7.97454 10.4941 7.97745 10.5047 7.98009C10.5153 7.98275 10.5259 7.98514 10.5366 7.98726C10.5473 7.98939 10.5581 7.99125 10.5688 7.99286C10.5796 7.99446 10.5905 7.9958 10.6013 7.99687C10.6122 7.99794 10.6231 7.99874 10.634 7.99928C10.6448 7.99981 10.6558 8.00008 10.6667 8.00008C10.6776 8.00008 10.6885 7.99981 10.6994 7.99928C10.7103 7.99874 10.7212 7.99794 10.732 7.99687C10.7429 7.9958 10.7537 7.99446 10.7645 7.99286C10.7753 7.99125 10.786 7.98939 10.7967 7.98726C10.8074 7.98514 10.8181 7.98275 10.8287 7.98009C10.8392 7.97745 10.8498 7.97454 10.8602 7.97137C10.8706 7.96821 10.881 7.96478 10.8913 7.96111C10.9015 7.95743 10.9117 7.9535 10.9218 7.94933C10.9319 7.94515 10.9418 7.94073 10.9517 7.93606C10.9616 7.9314 10.9713 7.9265 10.9809 7.92136C10.9906 7.91621 11 7.91084 11.0094 7.90523C11.0188 7.89962 11.028 7.89378 11.037 7.88772C11.0461 7.88165 11.055 7.87537 11.0638 7.86887C11.0726 7.86238 11.0812 7.85567 11.0896 7.84875C11.098 7.84183 11.1063 7.83471 11.1144 7.82737C11.1225 7.82005 11.1304 7.81253 11.1381 7.80481C11.1458 7.7971 11.1533 7.7892 11.1606 7.78111C11.168 7.77302 11.1751 7.76477 11.182 7.75634C11.1889 7.7479 11.1956 7.73931 11.2021 7.73055C11.2086 7.72178 11.2149 7.71287 11.221 7.70379C11.227 7.69472 11.2329 7.6855 11.2385 7.67614C11.2441 7.66678 11.2495 7.65729 11.2546 7.64767C11.2598 7.63804 11.2647 7.62831 11.2693 7.61845C11.274 7.60859 11.2784 7.59861 11.2826 7.58853C11.2868 7.57845 11.2907 7.56827 11.2944 7.558C11.298 7.54773 11.3015 7.53737 11.3046 7.52694C11.3078 7.51649 11.3107 7.50598 11.3134 7.4954C11.316 7.48481 11.3184 7.47417 11.3205 7.46347C11.3227 7.45277 11.3245 7.44202 11.3261 7.43123C11.3277 7.42044 11.3291 7.40961 11.3301 7.39875C11.3312 7.3879 11.332 7.37702 11.3325 7.36612C11.3331 7.35523 11.3333 7.34432 11.3333 7.3334C11.3333 7.3225 11.3331 7.3116 11.3325 7.3007C11.332 7.28981 11.3312 7.27893 11.3301 7.26806C11.3291 7.25721 11.3277 7.24638 11.3261 7.23559C11.3245 7.2248 11.3227 7.21405 11.3205 7.20334C11.3184 7.19264 11.316 7.182 11.3134 7.17142C11.3107 7.16084 11.3078 7.15033 11.3046 7.13989C11.3015 7.12945 11.298 7.11909 11.2944 7.10881C11.2907 7.09854 11.2868 7.08836 11.2826 7.07828C11.2784 7.06821 11.274 7.05824 11.2693 7.04837C11.2647 7.03851 11.2598 7.02876 11.2546 7.01914C11.2495 7.00952 11.2441 7.00004 11.2385 6.99067C11.2329 6.98132 11.227 6.9721 11.221 6.96303C11.2149 6.95396 11.2086 6.94504 11.2021 6.93628C11.1956 6.92752 11.1889 6.91892 11.182 6.91048C11.1751 6.90204 11.168 6.89378 11.1606 6.8857C11.1533 6.87762 11.1458 6.86972 11.1381 6.862C11.1304 6.85429 11.1225 6.84677 11.1144 6.83944C11.1063 6.83211 11.098 6.82499 11.0896 6.81808C11.0812 6.81115 11.0726 6.80444 11.0638 6.79794C11.055 6.79144 11.0461 6.78515 11.037 6.77909C11.028 6.77303 11.0188 6.7672 11.0094 6.76159C11 6.75598 10.9906 6.7506 10.9809 6.74547C10.9713 6.74032 10.9616 6.73541 10.9517 6.73075C10.9418 6.72608 10.9319 6.72166 10.9218 6.71748C10.9117 6.71332 10.9015 6.70939 10.8913 6.70572C10.881 6.70204 10.8706 6.69862 10.8602 6.69545C10.8498 6.69228 10.8392 6.68937 10.8287 6.68672C10.8181 6.68407 10.8074 6.68169 10.7967 6.67956C10.786 6.67743 10.7753 6.67556 10.7645 6.67395C10.7537 6.67236 10.7429 6.67102 10.732 6.66995C10.7212 6.66888 10.7103 6.66808 10.6994 6.66754C10.6885 6.66701 10.6776 6.66675 10.6667 6.66675C10.6558 6.66675 10.6448 6.66701 10.634 6.66754C10.6231 6.66808 10.6122 6.66888 10.6013 6.66995C10.5905 6.67102 10.5796 6.67236 10.5688 6.67395C10.5581 6.67556 10.5473 6.67743 10.5366 6.67956C10.5259 6.68169 10.5153 6.68407 10.5047 6.68672C10.4941 6.68937 10.4836 6.69228 10.4731 6.69545C10.4627 6.69862 10.4523 6.70204 10.4421 6.70572C10.4318 6.70939 10.4216 6.71332 10.4115 6.71748C10.4015 6.72166 10.3915 6.72608 10.3816 6.73075C10.3718 6.73541 10.362 6.74032 10.3524 6.74547C10.3428 6.7506 10.3333 6.75598 10.3239 6.76159C10.3146 6.7672 10.3054 6.77303 10.2963 6.77909C10.2872 6.78515 10.2783 6.79144 10.2695 6.79794C10.2608 6.80444 10.2522 6.81115 10.2437 6.81808C10.2353 6.82499 10.227 6.83211 10.219 6.83944C10.2109 6.84677 10.203 6.85429 10.1953 6.862C10.1875 6.86972 10.18 6.87762 10.1727 6.8857C10.1654 6.89378 10.1582 6.90204 10.1513 6.91048C10.1444 6.91892 10.1377 6.92752 10.1312 6.93628C10.1247 6.94504 10.1184 6.95396 10.1124 6.96303C10.1063 6.9721 10.1005 6.98132 10.0948 6.99067C10.0892 7.00004 10.0839 7.00952 10.0787 7.01914C10.0736 7.02876 10.0687 7.03851 10.064 7.04837C10.0593 7.05824 10.0549 7.06821 10.0507 7.07828C10.0466 7.08836 10.0426 7.09854 10.039 7.10881C10.0353 7.11909 10.0319 7.12945 10.0287 7.13989C10.0255 7.15033 10.0226 7.16084 10.02 7.17142C10.0173 7.182 10.0149 7.19264 10.0128 7.20334C10.0107 7.21405 10.0088 7.2248 10.0072 7.23559C10.0056 7.24638 10.0043 7.25721 10.0032 7.26806C10.0021 7.27893 10.0013 7.28981 10.0008 7.3007C10.0003 7.3116 10 7.3225 10 7.3334Z"   fill="#989898" >
</path>
</svg>
