<svg xmlns="http://www.w3.org/2000/svg" width="32" height="32" fill="none"><path fill="#3D3D3D" d="M15.2 21.333q.201 0 0 0h7.467c1.467 0 2.666-1.2 2.666-2.666v-8C25.334 9.2 24.134 8 22.668 8H9.334a2.675 2.675 0 0 0-2.667 2.667v8c0 1.466 1.2 2.666 2.667 2.666H10c.4 0 .667.267.667.667s-.267.667-.667.667h-.666c-2.267 0-4-1.734-4-4v-8c0-2.267 1.733-4 4-4h13.333c2.266 0 4 1.733 4 4v8c0 2.266-1.734 4-4 4h-7.2l-5.2 2.533c-.267.133-.667 0-.933-.267-.134-.266 0-.666.266-.933l5.334-2.667z"/><path fill="#3D3D3D" d="M9.334 14.667a1.35 1.35 0 0 0 .224.74 1.3 1.3 0 0 0 .263.29 1.4 1.4 0 0 0 .397.225 1.4 1.4 0 0 0 .514.076 1.4 1.4 0 0 0 .322-.055 1.4 1.4 0 0 0 .459-.246 1.3 1.3 0 0 0 .225-.236 1.3 1.3 0 0 0 .16-.284 1.4 1.4 0 0 0 .102-.51 1.4 1.4 0 0 0-.04-.324 1.3 1.3 0 0 0-.117-.305 1.4 1.4 0 0 0-.233-.314 1.3 1.3 0 0 0-.315-.233 1.3 1.3 0 0 0-.368-.132 1.3 1.3 0 0 0-.456-.011 1.3 1.3 0 0 0-.374.113 1.3 1.3 0 0 0-.326.218 1.3 1.3 0 0 0-.38.6 1.4 1.4 0 0 0-.057.388M14.667 14.667a1.3 1.3 0 0 0 .101.51 1.5 1.5 0 0 0 .123.23 1.3 1.3 0 0 0 .213.248 1.35 1.35 0 0 0 .765.338 1.4 1.4 0 0 0 .326-.008 1.4 1.4 0 0 0 .375-.113 1.332 1.332 0 0 0-.375-2.524 1.3 1.3 0 0 0-.455.01 1.3 1.3 0 0 0-.31.103 1.33 1.33 0 0 0-.764 1.206M20 14.667a1.3 1.3 0 0 0 .102.51 1.5 1.5 0 0 0 .123.23 1.3 1.3 0 0 0 .213.248 1.35 1.35 0 0 0 .765.338 1.4 1.4 0 0 0 .326-.008 1.4 1.4 0 0 0 .374-.113 1.332 1.332 0 0 0-.374-2.524 1.3 1.3 0 0 0-.456.01 1.3 1.3 0 0 0-.368.133 1.4 1.4 0 0 0-.314.233 1.35 1.35 0 0 0-.377.747 1.4 1.4 0 0 0-.014.196"/></svg>