<svg xmlns="http://www.w3.org/2000/svg" width="26" height="26" fill="none" viewBox="0 0 26 26"><path fill="#000" d="M13 0C3.511 0 0 8.302 0 12.957S3.375 26 12.725 26c0 0 2.324.041 2.324-2.055s-1.045-1.428-1.045-2.936c0-1.51 1.045-2.18 1.547-2.18.503 0 3.804.25 5.644-.463 1.836-.71 4.805-2.974 4.805-6.831C26 8.137 22.49 0 13 0M5.075 13.001a2.26 2.26 0 0 1-2.258-2.264 2.26 2.26 0 0 1 2.258-2.265 2.26 2.26 0 0 1 2.065 3.181 2.3 2.3 0 0 1-.548.76 2 2 0 0 1-.331.25 2.24 2.24 0 0 1-.963.327 2 2 0 0 1-.223.011m4.256-5.604a2.26 2.26 0 0 1-2.256-2.265A2.26 2.26 0 0 1 9.33 2.868a2.26 2.26 0 0 1 2.259 2.264A2.26 2.26 0 0 1 9.33 7.397m7.242 0a2.26 2.26 0 0 1-2.259-2.265 2.26 2.26 0 0 1 2.259-2.264 2.26 2.26 0 0 1 2.258 2.264 2.26 2.26 0 0 1-2.258 2.265m4.296 5.604a2.26 2.26 0 0 1-2.257-2.264 2.26 2.26 0 0 1 2.258-2.265 2.26 2.26 0 0 1 2.248 2.486 2.2 2.2 0 0 1-.086.435 2.27 2.27 0 0 1-.815 1.162 2.24 2.24 0 0 1-1.153.437q-.096.01-.194.01" opacity=".3"/></svg>