<svg xmlns="http://www.w3.org/2000/svg" xmlns:xlink="http://www.w3.org/1999/xlink" width="24" height="24" viewBox="0 0 24 24" fill="none">
<path d="M11.1857 18.4711C10.9374 18.7171 10.6298 18.8944 10.2924 18.9856L4.43426 20.5528C4.15889 20.6266 3.8651 20.5481 3.66359 20.3464C3.46192 20.1449 3.38337 19.8511 3.45723 19.5757L5.02436 13.7176C5.11682 13.3799 5.29555 13.0721 5.54278 12.8243L13.9533 4.41382C14.732 3.63544 15.9941 3.63544 16.7726 4.41382L19.5962 7.23736C20.3746 8.0159 20.3746 9.27802 19.5962 10.0567L11.1857 18.4711ZM15.6689 6.22141C15.9665 6.34527 16.1602 6.63591 16.1599 6.95799C16.1601 7.16852 16.077 7.37054 15.9287 7.51993L8.27218 15.1765C7.96055 15.4881 7.45531 15.4881 7.14368 15.1765C6.83205 14.8651 6.83205 14.3601 7.14368 14.0486L14.8001 6.39198C15.0287 6.1649 15.3715 6.09765 15.6689 6.22141Z" fill-rule="evenodd"  fill="#808080" >
</path>
</svg>
