<svg xmlns="http://www.w3.org/2000/svg" xmlns:xlink="http://www.w3.org/1999/xlink" width="16" height="16" viewBox="0 0 16 16" fill="none">
<path    stroke="rgba(140, 140, 140, 0.85)" stroke-width="1" stroke-linejoin="round" stroke-linecap="round"  d="M12.0001 12L12.0001 13.3333C12.0001 13.5101 11.9298 13.6797 11.8048 13.8047C11.6798 13.9298 11.5102 14 11.3334 14L3.33341 14C3.1566 14 2.98703 13.9298 2.86201 13.8047C2.73699 13.6797 2.66675 13.5101 2.66675 13.3333L2.66675 2.66667C2.66675 2.48986 2.73699 2.32029 2.86201 2.19526C2.98703 2.07024 3.1566 2 3.33341 2L10.0001 2">
</path>
<path    stroke="rgba(140, 140, 140, 0.85)" stroke-width="1" stroke-linejoin="round" stroke-linecap="round"  d="M2 5.33326L3.33333 5.33326M2 7.99992L3.33333 7.99992M2 10.6666L3.33333 10.6666M13.8067 5.12659L12.8733 4.19326C12.7487 4.07111 12.5812 4.00269 12.4067 4.00269C12.2322 4.00269 12.0646 4.07111 11.94 4.19326L8.66667 7.46659L8.66667 9.33326L10.5333 9.33326L13.8067 6.05992C13.9288 5.9353 13.9972 5.76776 13.9972 5.59326C13.9972 5.41876 13.9288 5.25121 13.8067 5.12659L13.8067 5.12659Z">
</path>
</svg>
