<svg width="16" height="16" viewBox="0 0 16 16" fill="none" xmlns="http://www.w3.org/2000/svg">
<rect width="16" height="16" rx="8" fill="#0065FB"/>
<path d="M10.0373 11.9638C8.53764 11.9638 7.18429 11.3484 5.97724 10.1538L5.79436 9.97285V10.009C4.40443 8.45249 3.96551 6.75113 4.00208 5.73756C4.03866 5.15837 4.33128 4.57919 4.7702 4.21719C5.06282 4.0362 5.20913 4 5.31886 4C5.35543 4 5.42859 4.0362 5.46516 4.0724C5.97724 4.68778 6.45274 5.37557 6.85509 6.09955C6.92825 6.20814 6.85509 6.49774 6.56248 6.75113L6.45274 6.85973C6.12355 7.11312 5.7212 7.47511 5.97724 7.9819C6.19671 8.45249 6.5259 8.88688 6.92825 9.24887C7.29402 9.68326 7.80609 10.009 8.35475 10.2262C8.4279 10.2624 8.50106 10.2624 8.57421 10.2624C8.93998 10.2624 9.15944 9.97285 9.30575 9.75566C9.34233 9.71946 9.37891 9.64706 9.41548 9.61086C9.59837 9.39367 9.74468 9.28507 9.89099 9.28507C9.92756 9.28507 9.96414 9.28507 10.0007 9.32127C10.6957 9.71946 11.3541 10.19 11.9759 10.6968C12.049 10.7692 11.9393 11.0226 11.8661 11.1312C11.5004 11.638 10.9517 11.9638 10.3299 12C10.2568 11.9638 10.147 11.9638 10.0373 11.9638Z" fill="white"/>
</svg>
