<svg xmlns="http://www.w3.org/2000/svg" width="16" height="16" fill="none" viewBox="0 0 16 16"><path fill="#008df0" d="M13.08 5.026c-.414.166-.822.35-1.231.527-.316.136-.437.049-.422-.306.035-.446.066-.893.108-1.338.015-.161-.005-.29-.116-.418-.298-.347-.58-.71-.866-1.068q-.281-.353.14-.466.654-.173 1.31-.33a.41.41 0 0 0 .29-.22c.226-.412.463-.816.7-1.22.148-.25.314-.25.464.004.242.409.475.824.725 1.228a.48.48 0 0 0 .253.195c.434.124.873.224 1.31.34.284.075.331.242.14.483-.285.36-.578.712-.854 1.078a.56.56 0 0 0-.107.333c.02.461.062.922.098 1.382.028.362-.101.463-.422.323-.41-.178-.816-.362-1.23-.53a.42.42 0 0 0-.29.003M9.532 6.932l.81-.001c.744-.001 1.478-.003 2.212.005.219.002.446.032.652.102.694.236 1.155 1.08 1 1.85-.368 1.833-.762 3.66-1.128 5.492-.101.51-.235.982-.657 1.303-.232.177-.473.317-.773.317q-2.911-.003-5.823-.001H3.68c-.038 0-.075-.005-.14-.01-.006-.087-.015-.17-.015-.255l.003-2.2q.004-2.935.004-5.869c0-.177.042-.241.22-.272 1.476-.252 2.704-1.681 2.819-3.256.031-.431.034-.863.208-1.275.454-1.071 1.685-1.122 2.342-.476.308.303.477.679.55 1.113.186 1.11.163 2.209-.124 3.298-.008.03-.007.062-.014.135M2.98 8.308c-.001-.45-.233-.711-.657-.72q-.84-.019-1.68 0c-.402.01-.64.268-.641.685q-.006 3.523 0 7.046c.001.43.25.675.665.678q.67.005 1.341.002h.224c.526-.002.749-.235.75-.789v-4.47z"/></svg>