<svg xmlns="http://www.w3.org/2000/svg" width="16" height="16" fill="none"><path fill="#FB6500" d="M10.613 11.844a.22.22 0 0 0 .031.336l.064.061c.41.41.667.915.773 1.444a.916.916 0 1 0 1.01-.968 2.8 2.8 0 0 1-1.567-.873.22.22 0 0 0-.31 0"/><path fill="#0082EF" d="M14.339 10.395a.9.9 0 0 0-.264.553 2.8 2.8 0 0 1-.872 1.568.219.219 0 1 0 .334.28c.402-.43.929-.722 1.506-.837a.917.917 0 1 0-.703-1.564z"/><path fill="#2DBC00" d="M11.752 7.804a.917.917 0 0 0 .552 1.56 2.8 2.8 0 0 1 1.57.872.219.219 0 1 0 .28-.335 2.8 2.8 0 0 1-.838-1.506.917.917 0 0 0-1.564-.59"/><path fill="#FC0" d="M11.304 9.24a.2.2 0 0 0-.043.045l-.061.062a2.8 2.8 0 0 1-1.444.773.913.913 0 0 0-.592 1.564.918.918 0 0 0 1.56-.552 2.82 2.82 0 0 1 .873-1.57.219.219 0 1 0-.293-.325z"/><path fill="#0082EF" d="M5.76 1.32c-1.645.177-3.141.883-4.212 1.981-.423.435-.767.92-1.023 1.443A5 5 0 0 0 0 6.98c0 .999.304 1.983.879 2.847.29.437.766.988 1.204 1.376v.001l-.198 1.556a1 1 0 0 0-.021.064q-.005.03-.008.063c0 .014-.004.03-.004.046a.3.3 0 0 0 .005.051.5.5 0 0 0 .752.387q.005 0 .007-.003l.033-.019.472-.237 1.408-.707a7.6 7.6 0 0 0 2.928.232 7.5 7.5 0 0 0 1.662-.388.916.916 0 0 1-.624-.957 6.2 6.2 0 0 1-2.599.255c-.048-.004-.096-.014-.144-.019a6 6 0 0 1-.933-.195.64.64 0 0 0-.5.051l-.04.02-1.158.683-.05.03c-.027.014-.04.02-.054.02a.08.08 0 0 1-.076-.08l.044-.18.052-.197.084-.32.094-.36a.49.49 0 0 0-.174-.54 5.1 5.1 0 0 1-1.169-1.216 4.05 4.05 0 0 1-.696-2.245c0-.61.139-1.2.413-1.76.206-.418.482-.807.822-1.156.88-.904 2.117-1.484 3.485-1.632a6.3 6.3 0 0 1 1.421.002c1.36.155 2.591.738 3.464 1.64.339.351.614.742.818 1.16A4 4 0 0 1 12.005 7q-.001.094-.006.186a.915.915 0 0 1 1.125.134q.021.022.041.048a5 5 0 0 0-.498-2.606 5.6 5.6 0 0 0-1.019-1.445c-1.064-1.099-2.552-1.807-4.19-1.993A7.7 7.7 0 0 0 5.76 1.32z"/></svg>