<svg xmlns="http://www.w3.org/2000/svg" xmlns:xlink="http://www.w3.org/1999/xlink" width="10.913330078125" height="10.9130859375" viewBox="0 0 10.913330078125 10.9130859375" fill="none">
<path d="M7.48633 0.938547C9.34803 2.33829 9.89577 4.89474 8.77105 6.93433L10.5323 8.69312C11.0404 9.20103 11.0404 10.0244 10.5323 10.5323C10.0244 11.0404 9.20103 11.0404 8.69312 10.5323L6.93433 8.77105C4.89474 9.89577 2.33829 9.34803 0.938547 7.48633C-0.461088 5.62462 -0.277308 3.01666 1.36962 1.36962C3.01666 -0.277308 5.62462 -0.461088 7.48633 0.938547ZM4.67667 8.05313C3.78111 8.05313 2.92222 7.69737 2.28903 7.06411C1.65577 6.43091 1.3 5.57203 1.3 4.67647C1.3 2.8116 2.8118 1.2998 4.67667 1.2998C6.54153 1.2998 8.05333 2.8116 8.05333 4.67647C8.05333 6.54133 6.54153 8.05313 4.67667 8.05313Z" fill-rule="evenodd"  fill="#B8B8B8" >
</path>
</svg>
