<svg xmlns="http://www.w3.org/2000/svg" width="16" height="16" fill="none" viewBox="0 0 16 16"><path fill="#008df0" d="M14.578 1H11.26c-.782 0-1.875.452-2.428 1.006L3.26 7.579a1.426 1.426 0 0 0 0 2.01l4.151 4.152a1.426 1.426 0 0 0 2.011 0l5.573-5.573C15.547 7.615 16 6.522 16 5.74V2.422C16 1.64 15.36 1 14.578 1m-1.896 4.74a1.422 1.422 0 1 1 0-2.844 1.422 1.422 0 0 1 0 2.844M1.166 8.92l5.072 5.071c-.537.284-1.221.2-1.672-.25L.415 9.59a1.426 1.426 0 0 1 0-2.011l5.573-5.573C6.541 1.452 7.634 1 8.416 1l-7.25 7.25a.475.475 0 0 0 0 .67"/></svg>