<svg xmlns="http://www.w3.org/2000/svg" xmlns:xlink="http://www.w3.org/1999/xlink" width="17.139892578125" height="17.1396484375" viewBox="0 0 17.139892578125 17.1396484375" fill="none">
<path d="M8.57 17.14C3.83696 17.14 0 13.303 0 8.57C0 3.83696 3.83696 0 8.57 0C10.8429 0 13.0228 0.902935 14.6298 2.51015C16.2371 4.1172 17.14 6.29706 17.14 8.57C17.14 13.303 13.303 17.14 8.57 17.14ZM8.57475 2.8604C8.96946 2.8604 9.28945 3.18029 9.28945 3.57484L9.28945 7.86153L12.5055 7.86153C12.9001 7.86153 13.2201 8.18135 13.2201 8.57596C13.2201 8.97051 12.9001 9.2904 12.5055 9.2904L9.28945 9.2904C8.50003 9.2904 7.8601 8.65068 7.8601 7.86153L7.8601 3.57484C7.8601 3.18029 8.18009 2.8604 8.57475 2.8604Z" fill-rule="evenodd"  fill="#808080" >
</path>
</svg>
