<svg xmlns="http://www.w3.org/2000/svg" width="12.001" height="12.002" fill="none"><path fill="#858597" d="M6.02 12.002a6 6 0 0 1-1.29-.14 5.97 5.97 0 0 1-3.77-2.62 5.98 5.98 0 0 1 .15-6.72.537.537 0 0 1 .75-.12.54.54 0 0 1 .13.75 4.9 4.9 0 0 0-.13 5.51 4.9 4.9 0 0 0 3.1 2.15 4.87 4.87 0 0 0 3.7-.67 4.937 4.937 0 0 0 1.48-6.81C8.673 1.049 5.623.394 3.34 1.862c-.25.16-.58.08-.74-.17a.534.534 0 0 1 .16-.74 6.005 6.005 0 0 1 8.29 1.8 6.007 6.007 0 0 1-1.8 8.29 5.96 5.96 0 0 1-3.23.96"/><path fill="#858597" fill-rule="evenodd" d="M6.54 4.008a.54.54 0 0 0-.54-.54.54.54 0 0 0-.54.54v2.07c0 .296.243.54.54.54.299 0 .54-.244.54-.54zM6.334 8.5a.69.69 0 0 1-.69 0 .68.68 0 0 1-.34-.59.684.684 0 1 1 1.37 0 .68.68 0 0 1-.34.59"/></svg>