<svg xmlns="http://www.w3.org/2000/svg" width="22" height="22" fill="none" viewBox="0 0 22 22"><path fill="#8d54ff" d="M15.545 8.344q0 .104-.218.36-.217.258-.467.608a7 7 0 0 0-.467.761 1.8 1.8 0 0 0-.218.845q0 .432.218.834a5.8 5.8 0 0 0 .934 1.276q.219.216.218.278v2.162q0 .35-.26.792a4.3 4.3 0 0 1-.643.834q-.384.39-.85.649-.468.257-.883.257H2.595q-.56 0-1.027-.196a2.6 2.6 0 0 1-.82-.545 2.5 2.5 0 0 1-.55-.824A2.7 2.7 0 0 1 0 15.405V6.533q0-.411.187-.854.186-.442.529-.813.342-.37.81-.618A2.16 2.16 0 0 1 2.552 4h10.315q.56 0 1.048.196.488.195.851.535.363.339.57.813.209.474.208 1.009zM22 6.41v9.409q0 .453-.238.803-.24.35-.717.35-.165 0-.425-.124a5 5 0 0 1-.519-.288 10 10 0 0 1-.488-.33 3 3 0 0 1-.332-.267 14 14 0 0 1-.82-.783 16 16 0 0 1-1.11-1.255 11 11 0 0 1-.986-1.442q-.425-.741-.425-1.358t.456-1.41q.457-.794 1.1-1.555a16 16 0 0 1 1.35-1.41q.705-.65 1.182-.978.188-.124.509-.299.322-.175.57-.175.56 0 .727.309t.166.762z"/></svg>