<svg width="16" height="16" viewBox="0 0 16 16" fill="none" xmlns="http://www.w3.org/2000/svg">
<rect width="16" height="16" rx="8" fill="#2DBC00"/>
<path d="M7.81956 6.44907C7.58371 6.44907 7.39203 6.26012 7.39203 6.02617C7.39203 5.79222 7.58371 5.60327 7.81956 5.60327C8.05541 5.60327 8.2471 5.79222 8.2471 6.02617C8.2471 6.26012 8.05541 6.44907 7.81956 6.44907ZM5.4102 6.44907C5.17434 6.44907 4.98266 6.26012 4.98266 6.02617C4.98266 5.79222 5.17434 5.60327 5.4102 5.60327C5.64605 5.60327 5.83773 5.79222 5.83773 6.02617C5.83773 6.26012 5.64605 6.44907 5.4102 6.44907ZM6.61446 4C4.61847 4 3 5.33415 3 6.97995C3 7.87811 3.48671 8.68629 4.24927 9.23271C4.31011 9.27606 4.35011 9.34641 4.35011 9.42739C4.35011 9.45356 4.34428 9.4781 4.33761 9.50346C4.27677 9.72841 4.17926 10.0875 4.1751 10.1047C4.1676 10.1333 4.15593 10.1619 4.15593 10.1922C4.15593 10.2577 4.2101 10.3116 4.27677 10.3116C4.30261 10.3116 4.32427 10.3018 4.34594 10.2896L5.13767 9.8372C5.19685 9.80367 5.26018 9.7824 5.32936 9.7824C5.36603 9.7824 5.40186 9.78812 5.43603 9.79794C5.80523 9.90264 6.2036 9.96154 6.61613 9.96154C6.6828 9.96154 6.74864 9.9599 6.81448 9.95663C6.73614 9.72432 6.6928 9.47974 6.6928 9.22616C6.6928 7.72514 8.16876 6.50797 9.98974 6.50797C10.0556 6.50797 10.0722 6.51042 10.1372 6.51288C9.86389 5.08875 8.41794 4 6.61446 4Z" fill="white"/>
<path d="M10.9923 8.80246C10.7848 8.80246 10.6165 8.63559 10.6165 8.43027C10.6165 8.22496 10.7848 8.05809 10.9923 8.05809C11.1999 8.05809 11.3682 8.22496 11.3682 8.43027C11.3682 8.63559 11.1999 8.80246 10.9923 8.80246ZM8.98384 8.80246C8.77632 8.80246 8.60797 8.63559 8.60797 8.43027C8.60797 8.22496 8.77632 8.05809 8.98384 8.05809C9.19136 8.05809 9.3597 8.22496 9.3597 8.43027C9.3597 8.63559 9.19136 8.80246 8.98384 8.80246ZM11.9591 11.1018C12.5941 10.6462 13 9.97301 13 9.22455C13 7.85277 11.6516 6.74112 9.98809 6.74112C8.32462 6.74112 6.97534 7.85277 6.97534 9.22455C6.97534 10.5963 8.32378 11.708 9.98809 11.708C10.3314 11.708 10.664 11.6597 10.9715 11.5722C10.9998 11.564 11.029 11.5591 11.0598 11.5591C11.1173 11.5591 11.1699 11.5763 11.2199 11.6049L11.8791 11.9812C11.8974 11.9918 11.9157 12 11.9374 12C11.9933 12 12.0383 11.9558 12.0383 11.901C12.0383 11.8765 12.0283 11.8519 12.0224 11.8282C12.0183 11.8143 11.9374 11.5141 11.8866 11.3276C11.8807 11.3063 11.8757 11.2859 11.8757 11.2646C11.8757 11.1975 11.9091 11.1387 11.9599 11.1027" fill="white"/>
</svg>
