<svg xmlns="http://www.w3.org/2000/svg" xmlns:xlink="http://www.w3.org/1999/xlink" width="16" height="16" viewBox="0 0 16 16" fill="none">
<path     fill="#FFFFFF"  d="M0 16L16 16L16 0L0 0L0 16Z">
</path>
<path d="M2.99221 5.2963C2.01002 7.06929 2.0666 9.23533 3.14008 10.9546L2.34281 12.8386C2.25878 13.0378 2.30375 13.268 2.45664 13.4209C2.60954 13.5737 2.83988 13.6188 3.03909 13.5347L4.92334 12.7376C6.93504 13.989 9.51769 13.8343 11.3654 12.3515C13.2132 10.8687 13.9231 8.38115 13.1363 6.1468C12.3494 3.91246 10.2374 2.41825 7.86802 2.41992C5.84091 2.42227 3.9744 3.52342 2.99221 5.2963ZM10.2618 6.27332C10.5554 6.27332 10.7933 6.51061 10.7933 6.80332C10.7933 7.09603 10.5554 7.33332 10.2618 7.33332L5.47819 7.33332C5.18463 7.33332 4.94667 7.09603 4.94667 6.80332C4.94667 6.51061 5.18463 6.27332 5.47819 6.27332L10.2618 6.27332ZM9.46667 9.19662C9.46667 8.90391 9.22861 8.66662 8.9349 8.66662L5.47845 8.66662C5.18474 8.66662 4.94667 8.90391 4.94667 9.19662C4.94667 9.48933 5.18474 9.72662 5.47845 9.72662L8.9349 9.72662C9.22861 9.72662 9.46667 9.48933 9.46667 9.19662Z" fill-rule="evenodd"  fill="#2353f4" >
</path>
</svg>
