<svg xmlns="http://www.w3.org/2000/svg" xmlns:xlink="http://www.w3.org/1999/xlink" width="40" height="31.4287109375" viewBox="0 0 40 31.4287109375" fill="none"><path d="M13.8504 21.3217C14.0469 21.3217 14.23 21.2681 14.3907 21.1744L22.0576 16.7082C22.4149 16.5474 22.6649 16.1767 22.6649 15.7479C22.6649 15.3549 22.4506 15.0066 22.1335 14.8234L14.6408 10.4555C14.4488 10.2322 14.163 10.0938 13.8504 10.0938C13.2655 10.0938 12.7966 10.5716 12.7966 11.1567L12.7966 11.2148L12.7832 11.2237L12.8011 20.1471C12.7966 20.1829 12.7966 20.2186 12.7966 20.2588C12.7966 20.8483 13.2699 21.3217 13.8504 21.3217Z"   fill="#FFFFFF" ></path><path d="M0.0136719 19.0796C0.0136719 19.1031 0.0142497 19.1266 0.0154046 19.15C0.0165594 19.1734 0.018289 19.1968 0.0205934 19.2201C0.0229004 19.2435 0.0257805 19.2668 0.0292336 19.29C0.0326867 19.3132 0.0367084 19.3363 0.041299 19.3593C0.0458892 19.3823 0.0510436 19.4052 0.0567622 19.428C0.0624807 19.4508 0.0687545 19.4734 0.0755837 19.4958C0.0824156 19.5183 0.089795 19.5405 0.0977222 19.5626C0.10565 19.5847 0.114116 19.6066 0.123121 19.6283C0.132126 19.6499 0.141658 19.6714 0.151717 19.6926C0.161778 19.7138 0.172355 19.7348 0.183447 19.7555C0.194539 19.7762 0.206134 19.7966 0.218232 19.8167C0.23033 19.8368 0.242916 19.8566 0.25599 19.8761C0.269062 19.8956 0.282607 19.9148 0.296625 19.9337C0.310642 19.9525 0.325116 19.971 0.340045 19.9891C0.354971 20.0073 0.370336 20.025 0.38614 20.0424C0.401942 20.0598 0.418161 20.0768 0.434799 20.0934C0.45144 20.11 0.468476 20.1261 0.485913 20.1419C0.50335 20.1577 0.521162 20.173 0.539349 20.1879C0.557541 20.2027 0.576085 20.2172 0.594987 20.2312C0.613889 20.2451 0.633121 20.2586 0.652683 20.2717C0.67225 20.2847 0.692125 20.2973 0.712308 20.3093C0.732491 20.3214 0.75296 20.3329 0.773711 20.344C0.794465 20.3551 0.815479 20.3656 0.836747 20.3756C0.85802 20.3857 0.879525 20.3952 0.901266 20.4041C0.923008 20.4131 0.944955 20.4216 0.967107 20.4295C0.989264 20.4374 1.0116 20.4447 1.03412 20.4516C1.05664 20.4584 1.07931 20.4646 1.10213 20.4703C1.12496 20.476 1.14791 20.4811 1.17099 20.4857C1.19407 20.4903 1.21725 20.4943 1.24053 20.4977C1.2638 20.5012 1.28715 20.5041 1.31057 20.5064C1.33399 20.5087 1.35745 20.5104 1.38095 20.5115C1.40445 20.5127 1.42797 20.5133 1.4515 20.5133C1.47503 20.5133 1.49855 20.5127 1.52205 20.5115C1.54555 20.5104 1.56901 20.5087 1.59242 20.5064C1.61585 20.5041 1.63921 20.5012 1.66248 20.4977C1.68576 20.4943 1.70894 20.4903 1.73201 20.4857C1.75508 20.4811 1.77803 20.476 1.80086 20.4703C1.82369 20.4646 1.84636 20.4584 1.86887 20.4516C1.89141 20.4447 1.91375 20.4374 1.93589 20.4295C1.95804 20.4216 1.97998 20.4131 2.00171 20.4041C2.02347 20.3952 2.04498 20.3857 2.06624 20.3756C2.08752 20.3656 2.10854 20.3551 2.12929 20.344C2.15004 20.3329 2.1705 20.3214 2.19068 20.3093C2.21087 20.2973 2.23074 20.2847 2.2503 20.2717C2.26989 20.2586 2.28913 20.2451 2.30803 20.2312C2.32691 20.2172 2.34544 20.2027 2.36363 20.1879C2.38181 20.173 2.39963 20.1577 2.41707 20.1419C2.43452 20.1261 2.45156 20.11 2.4682 20.0934C2.48484 20.0768 2.50107 20.0598 2.51687 20.0424C2.53265 20.025 2.54801 20.0073 2.56296 19.9891C2.57787 19.971 2.59234 19.9525 2.60636 19.9337C2.62038 19.9148 2.63392 19.8956 2.64699 19.8761C2.66006 19.8566 2.67266 19.8368 2.68477 19.8167C2.69686 19.7966 2.70845 19.7762 2.71955 19.7555C2.73063 19.7348 2.7412 19.7138 2.75126 19.6926C2.76132 19.6714 2.77086 19.6499 2.77988 19.6283C2.78887 19.6066 2.79734 19.5847 2.80529 19.5626C2.81321 19.5405 2.82057 19.5183 2.82739 19.4958C2.83424 19.4734 2.84052 19.4508 2.84624 19.428C2.85195 19.4052 2.8571 19.3823 2.86169 19.3593C2.86627 19.3363 2.87029 19.3132 2.87374 19.29C2.87719 19.2668 2.88008 19.2435 2.8824 19.2201C2.88469 19.1968 2.88642 19.1734 2.88758 19.15C2.88874 19.1266 2.88933 19.1031 2.88933 19.0796C2.88933 19.0562 2.88874 19.0327 2.88758 19.0093C2.88642 18.9859 2.88469 18.9625 2.8824 18.9391C2.88008 18.9158 2.87719 18.8925 2.87374 18.8693C2.87029 18.8461 2.86627 18.8229 2.86169 18.7999C2.8571 18.7769 2.85195 18.7541 2.84624 18.7313C2.84052 18.7085 2.83424 18.6859 2.82739 18.6635C2.82057 18.641 2.81321 18.6188 2.80529 18.5967C2.79734 18.5746 2.78887 18.5527 2.77988 18.531C2.77086 18.5093 2.76132 18.4879 2.75126 18.4667C2.74122 18.4455 2.73066 18.4245 2.71955 18.4038C2.70845 18.3831 2.69686 18.3627 2.68477 18.3426C2.67266 18.3225 2.66006 18.3026 2.64699 18.2831C2.63392 18.2636 2.62038 18.2445 2.60636 18.2256C2.59234 18.2068 2.57787 18.1883 2.56296 18.1701C2.54801 18.152 2.53265 18.1343 2.51687 18.1169C2.50107 18.0995 2.48484 18.0825 2.4682 18.0659C2.45156 18.0493 2.43452 18.0331 2.41707 18.0174C2.39966 18.0016 2.38184 17.9863 2.36363 17.9714C2.34544 17.9565 2.32691 17.9421 2.30803 17.9281C2.28913 17.9142 2.26989 17.9007 2.2503 17.8876C2.23074 17.8746 2.21087 17.862 2.19068 17.85C2.1705 17.8379 2.15004 17.8263 2.12929 17.8153C2.10854 17.8042 2.08752 17.7937 2.06624 17.7836C2.04498 17.7736 2.02347 17.7641 2.00171 17.7551C1.97998 17.7461 1.95804 17.7377 1.93589 17.7298C1.91375 17.7219 1.89141 17.7145 1.86887 17.7077C1.84636 17.7009 1.82369 17.6946 1.80086 17.689C1.77803 17.6832 1.75508 17.6781 1.73201 17.6736C1.70894 17.669 1.68576 17.6649 1.66248 17.6615C1.63921 17.6581 1.61585 17.6552 1.59242 17.6529C1.56901 17.6506 1.54555 17.6489 1.52205 17.6477C1.49855 17.6466 1.47503 17.646 1.4515 17.646C1.42797 17.646 1.40445 17.6466 1.38095 17.6477C1.35745 17.6489 1.33399 17.6506 1.31057 17.6529C1.28715 17.6552 1.2638 17.6581 1.24053 17.6615C1.21725 17.6649 1.19407 17.669 1.17099 17.6736C1.14791 17.6781 1.12496 17.6832 1.10213 17.689C1.07931 17.6946 1.05664 17.7009 1.03412 17.7077C1.0116 17.7145 0.989264 17.7219 0.967107 17.7298C0.944955 17.7377 0.923008 17.7461 0.901266 17.7551C0.879525 17.7641 0.85802 17.7736 0.836747 17.7836C0.815479 17.7937 0.794465 17.8042 0.773711 17.8153C0.75296 17.8263 0.732491 17.8379 0.712308 17.85C0.692125 17.862 0.67225 17.8746 0.652683 17.8876C0.633121 17.9007 0.613889 17.9142 0.594987 17.9281C0.576085 17.9421 0.557541 17.9565 0.539349 17.9714C0.521162 17.9863 0.50335 18.0016 0.485913 18.0174C0.468476 18.0331 0.451441 18.0493 0.434804 18.0659C0.418162 18.0825 0.401942 18.0995 0.38614 18.1169C0.370336 18.1343 0.354971 18.152 0.340045 18.1701C0.325116 18.1883 0.310642 18.2068 0.296625 18.2256C0.282607 18.2445 0.269062 18.2636 0.25599 18.2831C0.242916 18.3026 0.23033 18.3225 0.218232 18.3426C0.206137 18.3627 0.194542 18.3831 0.183447 18.4038C0.172355 18.4245 0.161778 18.4455 0.151717 18.4667C0.141658 18.4879 0.132126 18.5093 0.123121 18.531C0.114116 18.5527 0.10565 18.5746 0.0977222 18.5967C0.089795 18.6188 0.0824156 18.641 0.0755837 18.6635C0.0687545 18.6859 0.0624807 18.7085 0.0567622 18.7313C0.0510436 18.7541 0.0458892 18.7769 0.041299 18.7999C0.0367084 18.8229 0.0326867 18.8461 0.0292336 18.8693C0.0257805 18.8925 0.0229018 18.9158 0.0205978 18.9391C0.0182907 18.9625 0.0165594 18.9859 0.0154046 19.0093C0.0142497 19.0327 0.0136719 19.0562 0.0136719 19.0796Z"   fill="#FFFFFF" ></path><path d="M39.9912 10.6831C39.9957 10.6117 40.0002 10.5402 40.0002 10.4687C40.0002 8.90557 38.7275 7.64164 37.1602 7.64164C36.6378 7.64164 36.1466 7.78456 35.7224 8.0302L35.7001 8.0168L34.2935 8.82965L34.2935 5.94003C34.289 2.67525 31.6188 0 28.3502 0L5.93885 0C2.67471 0 0 2.67078 0 5.94003L0 13.345L0.00893047 13.345C0.00893047 14.1355 0.651934 14.7786 1.44676 14.7786C2.24158 14.7786 2.88458 14.1355 2.88458 13.345L2.89351 13.345L2.89351 5.71225C2.89351 4.14015 4.17952 2.85389 5.75131 2.85389L28.5333 2.85389C30.1051 2.85389 31.3911 4.14015 31.3911 5.71225L31.3911 25.761C31.3911 27.3331 30.1051 28.6193 28.5333 28.6193L5.75577 28.6193C4.18399 28.6193 2.89798 27.3331 2.89798 25.761L2.89798 24.8052C2.89798 24.0147 2.25498 23.3716 1.46015 23.3716C0.66533 23.3716 0.0223265 24.0147 0.0223265 24.8052L0.00446523 24.8052L0.00446523 25.4885C0.00446523 28.7578 2.67918 31.4286 5.94331 31.4286L28.3547 31.4286C31.6233 31.4286 34.2935 28.7578 34.2935 25.4885L34.2935 22.6257L35.7715 23.4787L35.776 23.4743C36.1868 23.702 36.6601 23.8316 37.1602 23.8316C38.7275 23.8316 40.0002 22.5632 40.0002 21.0045C40.0002 20.933 39.9957 20.8616 39.9912 20.7901L39.9912 10.6831ZM37.1513 19.8433C37.1379 20.1916 36.8432 20.473 36.4815 20.473C36.3609 20.473 36.2448 20.4417 36.1466 20.3837L34.2935 19.3252L34.2935 12.1034L36.1198 11.0672C36.2225 11.0002 36.3475 10.9645 36.4815 10.9645C36.8521 10.9645 37.1513 11.2593 37.1513 11.6165L37.1513 19.8433Z"   fill="#FFFFFF" ></path></svg>