<svg xmlns="http://www.w3.org/2000/svg" xmlns:xlink="http://www.w3.org/1999/xlink" width="40" height="40" viewBox="0 0 40 40" fill="none"><g opacity="0.8"><path d="M20 40C8.96801 40 0 31.024 0 19.996C0 8.96801 8.96801 0 20 0C31.028 0 40 8.97199 40 19.996C40 31.02 31.028 40 20 40ZM20 2.388C10.292 2.388 2.392 10.292 2.392 20C2.404 29.716 10.28 37.596 20 37.604C29.708 37.604 37.612 29.708 37.612 19.996C37.608 10.292 29.704 2.388 20 2.388Z"   fill="#FFFFFF" ></path><path d="M8.88867 21.5039C8.88867 21.5039 10.2527 10.1519 12.9046 10.3359C13.6727 10.3919 14.7207 11.7079 16.7807 16.7439C17.1046 17.5439 18.8327 20.3359 20.0807 18.2879C20.5727 17.4759 20.8447 15.8799 21.6646 15.6079C22.1007 15.4559 23.5007 15.8559 26.1087 21.4999L8.88867 21.4999L8.88867 21.5039ZM20.7927 8.87189C20.7927 9.59189 21.1767 10.2559 21.8007 10.6159C22.4246 10.9759 23.1927 10.9759 23.8167 10.6159C24.4407 10.2559 24.8246 9.59189 24.8246 8.87189C24.8246 8.15189 24.4407 7.48791 23.8167 7.12791C23.1927 6.76791 22.4246 6.76791 21.8007 7.12791C21.1767 7.48389 20.7927 8.15189 20.7927 8.87189ZM16.7127 30.1799L10.0327 30.1799C9.40066 30.1799 8.88867 29.6679 8.88867 29.0359C8.88867 28.4039 9.40066 27.8919 10.0327 27.8919L16.7127 27.8919C17.3446 27.8919 17.8567 28.4039 17.8567 29.0359C17.8567 29.6679 17.3446 30.1799 16.7127 30.1799ZM31.6567 26.0119L10.0327 26.0119C9.40066 26.0119 8.88867 25.4999 8.88867 24.8679C8.88867 24.2359 9.40066 23.7239 10.0327 23.7239L31.6527 23.7239C32.2846 23.7239 32.8007 24.2359 32.8007 24.8679C32.8007 25.4999 32.2887 26.0119 31.6567 26.0119Z"   fill="#FFFFFF" ></path></g></svg>