<svg height="150" viewBox="0 0 130 150" width="130" xmlns="http://www.w3.org/2000/svg" xmlns:xlink="http://www.w3.org/1999/xlink"><defs><filter id="a" height="370.8%" width="145.1%" x="-22.6%" y="-135.4%"><feGaussianBlur in="SourceGraphic" stdDeviation="8"/></filter><linearGradient id="b" x1="52.669974%" x2="47.330026%" y1="0%" y2="100%"><stop offset="0" stop-color="#2e5ef0"/><stop offset="1" stop-color="#0040ff" stop-opacity=".799609"/></linearGradient><linearGradient id="c" x1="127.048471%" x2="5.610552%" y1="-1.070241%" y2="83.0994%"><stop offset="0" stop-color="#295fff" stop-opacity=".596541"/><stop offset="1" stop-color="#fff"/></linearGradient><linearGradient id="d" x1="100%" x2="0%" y1="50%" y2="50%"><stop offset="0" stop-color="#fff" stop-opacity=".225528"/><stop offset="1" stop-color="#fff" stop-opacity=".378027"/></linearGradient><linearGradient id="e" x1="-19.002719%" x2="118.265468%" y1="56.253432%" y2="45.674741%"><stop offset="0" stop-color="#f5f7ff"/><stop offset=".999615009" stop-color="#d2ddff"/></linearGradient><linearGradient id="f" x1="70.346669%" x2="31.63109%" y1="17.094516%" y2="100%"><stop offset="0" stop-color="#2155ef"/><stop offset="1" stop-color="#d6e0ff" stop-opacity=".840117"/></linearGradient><path id="g" d="m27.6871042 1.47552167c2.6196391 1.15459503 5.0140837 2.95026309 7.0515398 5.25797855 2.0618213 2.33573247 3.7489339 5.18609288 4.9247442 8.40583518 1.183563 3.241861 1.8414262 6.8383581 1.8414262 10.6280251 0 3.7907728-.6578632 7.3880073-1.8414262 10.6298683-1.1758103 3.2197423-2.8629229 6.0701027-4.9247442 8.4054665-2.0374561 2.3077154-4.4319007 4.1030149-7.0515398 5.2572412-2.5790302 1.1369001-5.3692264 1.6489475-8.2476545 1.4225997-2.8293284-.2226614-5.4796086-1.1387433-7.8522722-2.5904659-2.33833057-1.4299726-4.41454959-3.3845265-6.13747174-5.7195216-1.70409442-2.3099274-3.06965881-5.0021392-4.00624623-7.946504-.93104986-2.9270384-1.44345953-6.1191324-1.44345953-9.4586842 0-3.3384459.51240967-6.5301713 1.44345953-9.4568411.93658742-2.9443647 2.30215181-5.6365766 4.00624623-7.94687256 1.72292215-2.33536382 3.79914117-4.28991772 6.13747174-5.72025894 2.3726636-1.4517226 5.0229438-2.36817318 7.8522722-2.59083455 2.8784281-.22671646 5.6686243.28606824 8.2476545 1.42296832z"/><filter id="h" height="122.8%" width="198.6%" x="-49.3%" y="-11.4%"><feGaussianBlur in="SourceGraphic" stdDeviation="3"/></filter><filter id="i" height="122.8%" width="120.7%" x="-10.3%" y="-11.4%"><feGaussianBlur in="SourceGraphic" stdDeviation="3"/></filter><linearGradient id="j" x1="68.400563%" x2="27.133999%" y1="10.037982%" y2="87.081218%"><stop offset="0" stop-color="#b1c5ff"/><stop offset="1" stop-color="#fff" stop-opacity=".4"/></linearGradient><path id="k" d="m84.6875767 34.9747982c2.6196391 1.154595 5.0140837 2.9502631 7.0515398 5.2579785 2.0618213 2.3357325 3.7489339 5.1860929 4.9247443 8.4058352 1.1835629 3.241861 1.8414261 6.8383581 1.8414261 10.6280251 0 3.7907728-.6578632 7.3880073-1.8414261 10.6298683-1.1758104 3.2197423-2.862923 6.0701027-4.9247443 8.4054665-2.0374561 2.3077154-4.4319007 4.1030148-7.0515398 5.2572412-2.5790302 1.1369001-5.3692264 1.6489475-8.2476545 1.4225997-2.8293283-.2226614-5.4796086-1.1387433-7.8522722-2.5904659-2.3383306-1.4299726-4.4145496-3.3845265-6.1374717-5.7195216-1.7040945-2.3099274-3.0696588-5.0021392-4.0062463-7.946504-.9310498-2.9270385-1.4434595-6.1191324-1.4434595-9.4586842 0-3.3384459.5124097-6.5301713 1.4434595-9.4568411.9365875-2.9443648 2.3021518-5.6365766 4.0062463-7.9468726 1.7229221-2.3353638 3.7991411-4.2899177 6.1374717-5.7202589 2.3726636-1.4517226 5.0229439-2.3681732 7.8522722-2.5908346 2.8784281-.2267164 5.6686243.2860683 8.2476545 1.4229684z"/><filter id="l" height="160.2%" width="174.7%" x="-37.3%" y="-28.1%"><feOffset dx="0" dy="1" in="SourceAlpha" result="shadowOffsetOuter1"/><feGaussianBlur in="shadowOffsetOuter1" result="shadowBlurOuter1" stdDeviation="5"/><feComposite in="shadowBlurOuter1" in2="SourceAlpha" operator="out" result="shadowBlurOuter1"/><feColorMatrix in="shadowBlurOuter1" type="matrix" values="0 0 0 0 0.28627451   0 0 0 0 0.453921569   0 0 0 0 0.956862745  0 0 0 0.244683539 0"/></filter><filter id="m" height="146.6%" width="157.8%" x="-28.9%" y="-21.3%"><feGaussianBlur in="SourceAlpha" result="shadowBlurInner1" stdDeviation="1.5"/><feOffset dx="1" dy="-1" in="shadowBlurInner1" result="shadowOffsetInner1"/><feComposite in="shadowOffsetInner1" in2="SourceAlpha" k2="-1" k3="1" operator="arithmetic" result="shadowInnerInner1"/><feColorMatrix in="shadowInnerInner1" type="matrix" values="0 0 0 0 1   0 0 0 0 1   0 0 0 0 1  0 0 0 0.603888665 0"/></filter><linearGradient id="n" x1="15.24867%" x2="66.11197%" y1="-12.386123%" y2="79.717383%"><stop offset="0" stop-color="#8eaaff"/><stop offset="1" stop-color="#fff" stop-opacity=".4"/></linearGradient><path id="o" d="m87.0004725 60.0652967v8.7068359c0 1.50616-1.2502237 2.7271439-2.7924528 2.7271439h-11.4150944c-1.5422291 0-2.7924528-1.2209839-2.7924528-2.7271439v-8.687068h4.1698113v7.3419227h8.6603774v-7.3616906zm-6.5164484-6.8133883v10.5607626h-3.7834571v-10.5607626zm3.7239956-7.7526319c1.5422291 0 2.7924528 1.2209839 2.7924528 2.7271439v8.7603317h-4.1698113v-7.4151864h-8.6603774v7.3538052h-4.1698113v-8.6989505c0-1.50616 1.2502237-2.7271439 2.7924528-2.7271439z"/><filter id="p" height="219.2%" width="282.4%" x="-91.2%" y="-55.8%"><feOffset dx="0" dy="1" in="SourceAlpha" result="shadowOffsetOuter1"/><feGaussianBlur in="shadowOffsetOuter1" result="shadowBlurOuter1" stdDeviation="5"/><feComposite in="shadowBlurOuter1" in2="SourceAlpha" operator="out" result="shadowBlurOuter1"/><feColorMatrix in="shadowBlurOuter1" type="matrix" values="0 0 0 0 0.28627451   0 0 0 0 0.453921569   0 0 0 0 0.956862745  0 0 0 0.244683539 0"/></filter><filter id="q" height="192.3%" width="241.2%" x="-70.6%" y="-42.3%"><feGaussianBlur in="SourceAlpha" result="shadowBlurInner1" stdDeviation="2"/><feOffset dx="0" dy="0" in="shadowBlurInner1" result="shadowOffsetInner1"/><feComposite in="shadowOffsetInner1" in2="SourceAlpha" k2="-1" k3="1" operator="arithmetic" result="shadowInnerInner1"/><feColorMatrix in="shadowInnerInner1" type="matrix" values="0 0 0 0 1   0 0 0 0 1   0 0 0 0 1  0 0 0 0.603888665 0"/></filter><mask id="r" fill="#fff"><use fill="#fff" fill-rule="evenodd" xlink:href="#g"/></mask></defs><g fill="none" fill-rule="evenodd"><path d="m0 0h130v130h-130z"/><ellipse cx="65" cy="109.318182" fill="#1a53f7" filter="url(#a)" opacity=".8" rx="53.181818" ry="8.863636"/><g transform="translate(11 11.465766)"><g fill-rule="nonzero"><path d="m76.2592593.557427c5.9319473-.4318409 10.7407407 5.2185909 10.7407407 12.6205926v59.4372171c0 4.1837402-2.7180137 7.2673037-6.0708536 6.8873318l-74.85829285-8.4835676c-3.35283983-.3799719-6.07085355-3.3966302-6.07085355-6.737895v-52.1221723c0-3.34126481 2.71801372-6.24776428 6.07085355-6.49184827z" fill="#fff"/><path d="m95.9283292 12.6437857v59.437217c0 4.1837402-2.7180138 7.2673037-6.0708536 6.8873319l-5.2525652-.5950979c1.455617-1.2188861 2.3950896-3.2983068 2.3950896-5.758v-59.4372171c0-6.80412272-4.0633295-12.12820566-9.3272495-12.60847138l7.5148379-.5463552c5.9319473-.43184089 10.7407408 5.2185909 10.7407408 12.62059268z" fill="url(#b)" fill-opacity=".8"/><path d="m76.2592593.557427c5.9319473-.4318409 10.7407407 5.2185909 10.7407407 12.6205926v59.4372171c0 4.1837402-2.7180137 7.2673037-6.0708536 6.8873318l-74.85829285-8.4835676c-3.35283983-.3799719-6.07085355-3.3966302-6.07085355-6.737895v-52.1221723c0-3.34126481 2.71801372-6.24776428 6.07085355-6.49184827z" fill="url(#c)"/><path d="m0 28.534234h87v3h-87z" fill="url(#d)"/></g><path d="m11 12.5372163c2.209139-.0849694 4 1.6561404 4 3.8888777s-1.790861 4.0717711-4 4.1075969c-.3703728.0060063-.7289885-.0379336-1.06937904-.1255314 1.76081284-.4526323 3.06937904-2.0735111 3.06937904-3.9820655 0-1.8304423-1.2036458-3.3304595-2.8546378-3.7647626.2753877-.0706306.561326-.1128335.8546378-.1241151zm13-.9998523c2.209139-.0923066 4 1.8683941 4 4.3793475 0 2.5109533-1.790861 4.5780336-4 4.616953-.3685508.0064929-.72546-.0426682-1.0643543-.1405055 1.7575565-.5104953 3.0643543-2.3315235 3.0643543-4.4764475 0-2.0603337-1.2057567-3.7501914-2.8589801-4.2393693.2760629-.0800496.5637873-.1276439.8589801-.1399782zm13-1.0002033c2.209139-.0892405 4 1.8732808 4 4.3834139 0 2.5101332-1.790861 4.5755006-4 4.6131272-.3674679.0062589-.7233625-.0428243-1.0613665-.1403267 1.7560435-.5109552 3.0613665-2.3297874 3.0613665-4.4728005 0-2.0617461-1.2081997-3.7540473-2.8640034-4.243402.2776157-.0803076.5670302-.1280153.8640034-.1400119z" fill="#5581ff"/><path d="m9 12.5372163c-2.209139.0849694-4 1.9240032-4 4.1075968 0 2.1835937 1.790861 3.9247036 4 3.8888778s4-1.8748596 4-4.1075969-1.790861-3.9738471-4-3.8888777zm13-.9998523c-2.209139.0923065-4 2.1593867-4 4.6169529s1.790861 4.4182669 4 4.3793476c2.209139-.0389194 4-2.1059997 4-4.616953 0-2.5109534-1.790861-4.4716541-4-4.3793475zm13-1.0002033c-2.209139.0892406-4 2.154608-4 4.6131272 0 2.4585193 1.790861 4.4210406 4 4.3834139 2.209139-.0376266 4-2.102994 4-4.6131272 0-2.5101331-1.790861-4.4726544-4-4.3834139z" fill="url(#e)"/><path d="m84.2245197 34.0417199c2.9487783 0 5.3486676.3350564 7.9181006 1.4599863 2.6098965 1.1424386 4.9957722 2.9192005 7.0255691 5.2029833 2.0540746 2.3111401 3.7347826 5.1314898 4.9056486 8.3173322 1.179328 3.2073634 1.834837 6.7663587 1.834837 10.5161251 0 3.750496-.655509 7.309856-1.834837 10.5175843-1.170866 3.1858424-2.851574 6.006192-4.9056486 8.3169673-2.0297969 2.2834181-4.4156726 4.0598153-7.0255691 5.2022538-2.569433 1.1245652-11.4290362 1.6836112-14.2971635 1.4592818l-.0117599-.0000336c2.409274.0048005 4.7418313-.5048075 6.9225598-1.4592482 2.6098965-1.1424385 4.9957722-2.9188357 7.0255691-5.2022538 2.0540749-2.3107753 3.7347821-5.1311249 4.9056489-8.3169673 1.1793275-3.2077283 1.8348364-6.7670883 1.8348364-10.5175843 0-3.7497664-.6555089-7.3087617-1.8348364-10.5161251-1.1708668-3.1858424-2.851574-6.0061921-4.9056489-8.3173322-2.0297969-2.2837828-4.4156726-4.0605447-7.0255691-5.2029833-2.1810303-.9548824-4.5139315-1.464809-6.92356-1.4599519.0035475.0006889.0081454.0003263.0127601-.0000344z" fill="url(#f)" fill-opacity=".9" fill-rule="nonzero"/><path d="m76.4399222 33.5518298c2.8784281-.2267164 5.6686243.2860683 8.2476545 1.4229684 2.6196391 1.154595 5.0140837 2.9502631 7.0515398 5.2579785 2.0618213 2.3357325 3.7489339 5.1860929 4.9247443 8.4058352 1.1835629 3.241861 1.8414261 6.8383581 1.8414261 10.6280251 0 3.7907728-.6578632 7.3880073-1.8414261 10.6298683-1.1758104 3.2197423-2.862923 6.0701027-4.9247443 8.4054665-2.0374561 2.3077154-4.4319007 4.1030148-7.0515398 5.2572412-2.5790302 1.1369001-5.3692264 1.6489475-8.2476545 1.4225997-2.8293283-.2226614-5.4796086-1.1387433-7.8522722-2.5904659-2.3383306-1.4299726-4.4145496-3.3845265-6.1374717-5.7195216-1.7040945-2.3099274-3.0696588-5.0021392-4.0062463-7.946504-.9310498-2.9270385-1.4434595-6.1191324-1.4434595-9.4586842 0-3.3384459.5124097-6.5301713 1.4434595-9.4568411.9365875-2.9443648 2.3021518-5.6365766 4.0062463-7.9468726 1.7229221-2.3353638 3.7991411-4.2899177 6.1374717-5.7202589 2.3726636-1.4517226 5.0229439-2.3681732 7.8522722-2.5908346" fill="#fff"/><g transform="translate(57.000473 33.499276)"><use fill="#fff" xlink:href="#g"/><g fill-rule="nonzero"><path d="m38.9278566-20.8554908v59.437217c0 4.1837402-2.7180137 7.2673037-6.0708535 6.8873319l-5.2525652-.5950979c1.455617-1.2188861 2.3950896-3.2983068 2.3950896-5.758v-59.4372171c0-6.8041227-4.0633295-12.1282057-9.3272495-12.6084714l7.5148379-.5463552c5.9319473-.4318409 10.7407407 5.2185909 10.7407407 12.6205927z" fill="url(#b)" fill-opacity=".8" filter="url(#h)" mask="url(#r)"/><path d="m19.2587868-32.9418495c5.9319473-.4318409 10.7407407 5.2185909 10.7407407 12.6205926v59.4372171c0 4.1837402-2.7180137 7.2673037-6.0708536 6.8873318l-74.8582929-8.4835676c-3.3528398-.3799719-6.0708535-3.3966302-6.0708535-6.737895v-52.1221723c0-3.3412648 2.7180137-6.2477643 6.0708535-6.4918483z" fill="url(#c)" filter="url(#i)" mask="url(#r)"/></g></g><use fill="#000" filter="url(#l)" xlink:href="#k"/><use fill="url(#j)" fill-opacity=".95" fill-rule="evenodd" xlink:href="#k"/><use fill="#000" filter="url(#m)" xlink:href="#k"/><path d="m82.1785067 64.4410386 2.9485019 2.9485019-6.1566627 6.1566627c-.9188872.9188871-2.8728914 1.2342909-5.1640372-1.4522683.1492888-.097635 1.4129941.1304466 1.5434406 0l5.952084-5.0961823-.6236395-1.0570089zm4.2925497-19.1958609 7.6969371 8.0716906c1.0905207 1.0905207 1.6067295 3.1647733.5417136 4.2297892l-7.1345114 7.7015291-1.9962076-1.827782 6.0099393-6.200592c1.0206403-1.0206403 1.0441784-2.667991.0845614-3.7633048l-.1307418-.1396395-8.0716906-8.0716906c-.1499177-.1499177-3.1490022-.1377834-3.3202693-.247222 1.0628577-.7011113 3.9232083-1.701475 6.3202693.247222z" fill="#5581ff"/><g transform="matrix(.70710678 .70710678 -.70710678 .70710678 64.357491 -38.374176)"><use fill="#000" filter="url(#p)" xlink:href="#o"/><use fill="url(#n)" fill-rule="evenodd" xlink:href="#o"/><use fill="#000" filter="url(#q)" xlink:href="#o"/></g></g></g></svg>