<svg xmlns="http://www.w3.org/2000/svg" width="50" height="50" viewBox="0 0 50 50" fill="none">
  <path d="M1 13C1 6.37258 6.37258 1 13 1H37C43.6274 1 49 6.37258 49 13V37C49 43.6274 43.6274 49 37 49H13C6.37258 49 1 43.6274 1 37V13Z" stroke="white" stroke-opacity="0.1"/>
  <path d="M31.2222 33H18.7778H17V31.2222V18.7777V17H18.7778H31.2222H32.1111H33V31.2222V33H31.2222ZM31.2222 18.7777H18.7778V31.2222H31.2222V18.7777ZM29.4445 22.3332H19.6667V20.5555H29.4445V22.3332ZM25.8889 25.8891H19.6667V24.1113H25.8889V25.8891ZM29.4445 29.4445H19.6667V27.6668H29.4445V29.4445Z" fill="white"/>
</svg>