<svg xmlns="http://www.w3.org/2000/svg" xmlns:xlink="http://www.w3.org/1999/xlink" width="24" height="24" viewBox="0 0 24 24" fill="none">
<path d="M3.17298 13.7557C2.82558 12.0099 3.00396 10.2004 3.68508 8.55588C4.3662 6.9114 5.51982 5.50578 6.99996 4.51686C8.47992 3.52776 10.22 3 12 3C14.387 3 16.6762 3.94824 18.3639 5.6361C20.0518 7.32378 21 9.61302 21 12C21 13.78 20.4722 15.5201 19.4831 17C18.4942 18.4802 17.0886 19.6338 15.4441 20.3149C13.7996 20.996 11.9901 21.1742 10.2443 20.827C8.49828 20.4798 6.89466 19.6226 5.6361 18.3639C4.37736 17.1053 3.5202 15.5017 3.17298 13.7557Z" stroke="rgba(0, 0, 0, 0.15)" stroke-width="2" stroke-linejoin="round" stroke-linecap="round" >
</path>
</svg>
