<svg xmlns="http://www.w3.org/2000/svg" width="14" height="14" viewBox="0 0 14 14" fill="none">
  <path opacity="0.8" d="M7.00033 1.16406C3.78033 1.16406 1.16699 3.7774 1.16699 6.9974C1.16699 8.3099 1.60449 9.52323 2.33949 10.4974C2.57866 10.1766 2.84699 9.87906 3.15033 9.6224C4.17699 8.7124 5.52449 8.16406 7.00033 8.16406C8.47616 8.16406 9.82366 8.7124 10.8503 9.6224C11.1537 9.87906 11.422 10.1766 11.6612 10.4974C12.3962 9.52323 12.8337 8.3099 12.8337 6.9974C12.8337 3.7774 10.2203 1.16406 7.00033 1.16406ZM7.00033 6.9974C6.03199 6.9974 5.25033 6.21573 5.25033 5.2474C5.25033 4.27906 6.03199 3.4974 7.00033 3.4974C7.96866 3.4974 8.75033 4.27906 8.75033 5.2474C8.75033 6.21573 7.96866 6.9974 7.00033 6.9974Z" fill="currentColor"/>
  <path opacity="0.5" d="M10.8504 11.3776C9.82372 12.2876 8.47622 12.8359 7.00039 12.8359C5.52456 12.8359 4.17706 12.2876 3.15039 11.3776C3.36622 11.0509 3.62872 10.7593 3.92039 10.5026C4.74289 9.77927 5.82206 9.33594 7.00039 9.33594C8.17872 9.33594 9.25789 9.77927 10.0804 10.5026C10.3721 10.7593 10.6346 11.0509 10.8504 11.3776Z" fill="currentColor"/>
</svg>