<?xml version="1.0" encoding="UTF-8"?>
<svg width="16px" height="16px" viewBox="0 0 16 16" version="1.1" xmlns="http://www.w3.org/2000/svg" xmlns:xlink="http://www.w3.org/1999/xlink">
    <g id="V1.0" stroke="none" stroke-width="1" fill="none" fill-rule="evenodd">
        <g id="首页" transform="translate(-46, -173)" fill-rule="nonzero">
            <g id="icon_辅助工具-面" transform="translate(46, 173)">
                <rect id="矩形" fill="currentColor" opacity="0" x="0" y="0" width="16" height="16"></rect>
                <path d="M7.38908875,7.6858925 C7.3520625,7.73259688 7.32,7.99376375 7.32,8.1327725 C7.32,8.5522925 7.65964875,8.86734812 8.07972688,8.86734812 C8.49924688,8.86734812 8.83972688,8.56501062 8.83972688,8.14547875 C8.83972688,8.00647 8.7930225,7.69086813 8.72779312,7.69086813 L7.38908875,7.68588063 L7.38908875,7.6858925 Z M9.55688188,7.69418125 C9.58894438,7.69418125 9.60027313,8.000675 9.60027313,8.1327725 C9.60027313,8.97235875 8.91959813,9.62762125 8.08,9.62762125 C7.240675,9.62762125 6.56,8.985065 6.56,8.14576375 C6.56,8.01338125 6.54590438,7.6828525 6.57740875,7.6828525 L2,7.66544375 L2,11.8819238 C2,12.72151 2.68040187,13.3308994 3.51972687,13.3308994 L12.6402731,13.3308994 C13.4798713,13.3308994 14.16,12.72151 14.16,11.8819119 L14.16,7.71711187 L9.55689375,7.69418125 L9.55688188,7.69418125 Z M12.6402731,3.65816562 L10.2909113,3.65816562 L10.2909113,2.7613775 C10.2909113,2.3418575 10.019805,2 9.6,2 L6.56,2 C6.13992187,2 5.86908875,2.3418575 5.86908875,2.7613775 L5.86908875,3.6581775 L3.51972687,3.6581775 C2.68040187,3.6581775 2,4.20232563 2,5.04163875 L2,6.92837438 L14.16,6.9745325 L14.16,5.04192375 C14.16,4.20232563 13.4798713,3.65816562 12.6402731,3.65816562 Z M9.4618225,3.65816563 L6.42181062,3.65816563 L6.42181062,3.14163875 C6.42181062,2.93187875 6.72996688,2.82907688 6.94,2.82907688 L9.22,2.82907688 C9.42976,2.82907688 9.4618225,2.93187875 9.4618225,3.14163875 L9.4618225,3.65816563 L9.4618225,3.65816563 Z" id="形状" fill="currentColor"></path>
            </g>
        </g>
    </g>
</svg>