<svg xmlns="http://www.w3.org/2000/svg" xmlns:xlink="http://www.w3.org/1999/xlink" width="32" height="32" viewBox="0 0 32 32" fill="none">
<path d="M1.33325 16C1.33325 16.2401 1.33914 16.4799 1.35092 16.7197C1.36269 16.9594 1.38035 17.1987 1.40387 17.4376C1.4274 17.6765 1.45678 17.9147 1.492 18.1521C1.52721 18.3895 1.56824 18.6259 1.61507 18.8613C1.6619 19.0968 1.71447 19.3309 1.77279 19.5637C1.83111 19.7966 1.89511 20.0278 1.96479 20.2575C2.03447 20.4872 2.10974 20.7151 2.19061 20.9411C2.27147 21.1671 2.35783 21.391 2.44968 21.6127C2.54154 21.8345 2.63878 22.0538 2.74141 22.2708C2.84404 22.4878 2.95192 22.7022 3.06507 22.9138C3.17822 23.1255 3.29649 23.3343 3.41989 23.5402C3.5433 23.7461 3.67169 23.9488 3.80504 24.1484C3.9384 24.348 4.07656 24.5442 4.21954 24.737C4.36252 24.9298 4.51016 25.1189 4.66241 25.3045C4.81472 25.49 4.97144 25.6717 5.13263 25.8496C5.29381 26.0274 5.45928 26.2012 5.629 26.3709C5.79875 26.5407 5.97253 26.7061 6.15038 26.8673C6.32825 27.0285 6.50994 27.1852 6.69547 27.3375C6.88103 27.4898 7.07019 27.6374 7.26297 27.7804C7.45578 27.9234 7.65197 28.0616 7.85153 28.1949C8.05113 28.3283 8.25385 28.4567 8.45972 28.58C8.66563 28.7035 8.87441 28.8217 9.0861 28.9349C9.29778 29.048 9.51213 29.1559 9.7291 29.2585C9.9461 29.3612 10.1655 29.4584 10.3872 29.5502C10.609 29.6421 10.8328 29.7285 11.0588 29.8093C11.2848 29.8902 11.5127 29.9655 11.7424 30.0352C11.9721 30.1048 12.2034 30.1688 12.4362 30.2272C12.6691 30.2855 12.9032 30.3381 13.1386 30.3849C13.374 30.4317 13.6104 30.4727 13.8479 30.5079C14.0853 30.5432 14.3234 30.5726 14.5623 30.5961C14.8012 30.6196 15.0405 30.6373 15.2803 30.649C15.52 30.6608 15.7599 30.6667 15.9999 30.6667C16.2399 30.6667 16.4798 30.6608 16.7196 30.649C16.9593 30.6373 17.1986 30.6196 17.4375 30.5961C17.6764 30.5726 17.9145 30.5432 18.152 30.5079C18.3894 30.4727 18.6258 30.4317 18.8612 30.3849C19.0967 30.3381 19.3308 30.2855 19.5636 30.2272C19.7965 30.1688 20.0277 30.1048 20.2574 30.0352C20.4871 29.9655 20.715 29.8902 20.941 29.8093C21.167 29.7285 21.3908 29.6421 21.6126 29.5502C21.8343 29.4584 22.0537 29.3612 22.2707 29.2585C22.4877 29.1559 22.702 29.048 22.9137 28.9349C23.1254 28.8217 23.3342 28.7035 23.5401 28.5801C23.746 28.4567 23.9487 28.3283 24.1483 28.1949C24.3478 28.0616 24.544 27.9234 24.7368 27.7804C24.9297 27.6374 25.1188 27.4898 25.3043 27.3375C25.4899 27.1852 25.6716 27.0285 25.8494 26.8673C26.0273 26.7061 26.2011 26.5407 26.3708 26.3709C26.5406 26.2012 26.706 26.0274 26.8672 25.8496C27.0284 25.6717 27.1851 25.49 27.3374 25.3045C27.4897 25.1189 27.6373 24.9297 27.7803 24.7369C27.9233 24.5442 28.0614 24.348 28.1948 24.1484C28.3282 23.9488 28.4565 23.7461 28.5799 23.5402C28.7033 23.3343 28.8216 23.1255 28.9348 22.9138C29.0479 22.7022 29.1558 22.4878 29.2584 22.2708C29.361 22.0538 29.4583 21.8345 29.5501 21.6127C29.642 21.391 29.7283 21.1671 29.8092 20.9411C29.8901 20.7151 29.9653 20.4872 30.035 20.2575C30.1047 20.0278 30.1687 19.7966 30.227 19.5637C30.2853 19.3309 30.3379 19.0968 30.3848 18.8613C30.4316 18.6259 30.4726 18.3895 30.5078 18.1521C30.5431 17.9147 30.5724 17.6765 30.5959 17.4376C30.6195 17.1987 30.6372 16.9594 30.6489 16.7197C30.6607 16.4799 30.6666 16.2401 30.6666 16C30.6666 15.76 30.6607 15.5201 30.6489 15.2804C30.6372 15.0406 30.6195 14.8013 30.5959 14.5624C30.5724 14.3236 30.5431 14.0854 30.5078 13.848C30.4726 13.6106 30.4316 13.3742 30.3848 13.1387C30.3379 12.9033 30.2854 12.6692 30.227 12.4363C30.1687 12.2035 30.1047 11.9722 30.035 11.7425C29.9653 11.5128 29.8901 11.285 29.8092 11.059C29.7283 10.833 29.642 10.6091 29.5501 10.3873C29.4583 10.1656 29.361 9.94622 29.2584 9.72922C29.1558 9.51225 29.0479 9.2979 28.9348 9.08622C28.8216 8.87453 28.7033 8.66575 28.5799 8.45984C28.4565 8.25397 28.3282 8.05125 28.1948 7.85166C28.0614 7.65209 27.9233 7.4559 27.7803 7.26309C27.6373 7.07031 27.4897 6.88116 27.3374 6.69559C27.1851 6.51006 27.0284 6.32837 26.8672 6.1505C26.706 5.97265 26.5406 5.79887 26.3708 5.62912C26.2011 5.4594 26.0273 5.29394 25.8494 5.13275C25.6716 4.97156 25.4899 4.81484 25.3043 4.66253C25.1188 4.51028 24.9297 4.36264 24.7368 4.21966C24.544 4.07669 24.3478 3.93852 24.1483 3.80516C23.9487 3.67181 23.746 3.54342 23.5401 3.42001C23.3342 3.29661 23.1254 3.17834 22.9137 3.0652C22.702 2.95205 22.4877 2.84416 22.2707 2.74153C22.0538 2.6389 21.8344 2.54166 21.6126 2.44981C21.3908 2.35795 21.167 2.27159 20.941 2.19073C20.715 2.10986 20.4871 2.03459 20.2574 1.96491C20.0277 1.89524 19.7965 1.83124 19.5636 1.77291C19.3308 1.71459 19.0967 1.66202 18.8612 1.61519C18.6258 1.56836 18.3894 1.52734 18.152 1.49212C17.9145 1.4569 17.6764 1.42753 17.4375 1.404C17.1986 1.38047 16.9593 1.36282 16.7196 1.35104C16.4798 1.33926 16.24 1.33337 15.9999 1.33337C15.7599 1.33337 15.52 1.33926 15.2803 1.35104C15.0405 1.36282 14.8012 1.38047 14.5623 1.404C14.3234 1.42753 14.0853 1.4569 13.8479 1.49212C13.6104 1.52734 13.374 1.56836 13.1386 1.61519C12.9032 1.66202 12.6691 1.71459 12.4362 1.77291C12.2034 1.83124 11.9721 1.89524 11.7424 1.96491C11.5127 2.03459 11.2848 2.10986 11.0588 2.19073C10.8328 2.27159 10.609 2.35795 10.3872 2.44981C10.1655 2.54166 9.9461 2.6389 9.7291 2.74153C9.51213 2.84416 9.29778 2.95205 9.0861 3.0652C8.87441 3.17834 8.66563 3.29661 8.45972 3.42001C8.25385 3.54342 8.05113 3.67181 7.85153 3.80516C7.65197 3.93852 7.45581 4.07669 7.263 4.21966C7.07019 4.36264 6.88103 4.51028 6.69547 4.66253C6.50994 4.81484 6.32825 4.97156 6.15038 5.13275C5.97253 5.29394 5.79875 5.4594 5.629 5.62912C5.45928 5.79887 5.29381 5.97265 5.13263 6.1505C4.97144 6.32837 4.81472 6.51006 4.66241 6.69559C4.51016 6.88116 4.36252 7.07031 4.21954 7.26309C4.07656 7.4559 3.9384 7.65209 3.80504 7.85166C3.67169 8.05125 3.5433 8.25397 3.41989 8.45984C3.29649 8.66575 3.17822 8.87453 3.06507 9.08622C2.95192 9.2979 2.84404 9.51225 2.74141 9.72922C2.63878 9.94622 2.54154 10.1656 2.44969 10.3873C2.35783 10.6091 2.27147 10.833 2.19061 11.059C2.10974 11.285 2.03447 11.5128 1.96479 11.7425C1.89511 11.9722 1.83111 12.2035 1.77279 12.4363C1.71447 12.6692 1.6619 12.9033 1.61507 13.1387C1.56824 13.3742 1.52722 13.6106 1.492 13.848C1.45678 14.0854 1.4274 14.3236 1.40388 14.5624C1.38035 14.8013 1.3627 15.0406 1.35092 15.2804C1.33914 15.5201 1.33325 15.76 1.33325 16Z"   fill="#FF6A00" >
</path>
<path d="M23.7506 7.33337L24.6666 8.23469L23.4866 9.39669C23.5312 9.45331 23.5746 9.51089 23.6167 9.56944C23.6588 9.62796 23.6995 9.68738 23.739 9.74772C23.7785 9.80803 23.8167 9.86919 23.8535 9.93119C23.8903 9.99316 23.9257 10.0559 23.9598 10.1195C23.9938 10.183 24.0264 10.2473 24.0577 10.3123C24.0889 10.3773 24.1187 10.4429 24.1471 10.5092C24.1754 10.5755 24.2023 10.6423 24.2277 10.7098C24.2531 10.7773 24.2771 10.8452 24.2995 10.9138C24.3219 10.9823 24.3428 11.0513 24.3623 11.1207C24.3817 11.1901 24.3996 11.26 24.4159 11.3302C24.4323 11.4004 24.447 11.4709 24.4603 11.5418C24.4735 11.6127 24.4852 11.6838 24.4954 11.7552C24.5055 11.8266 24.5141 11.8981 24.5211 11.9699C24.528 12.0416 24.5334 12.1135 24.5373 12.1855C24.5411 12.2575 24.5434 12.3295 24.5441 12.4016C24.5448 12.4737 24.5438 12.5458 24.5414 12.6178C24.5389 12.6899 24.5348 12.7619 24.5292 12.8337C24.5235 12.9056 24.5163 12.9773 24.5075 13.0489C24.4988 13.1204 24.4884 13.1918 24.4765 13.2629C24.4646 13.334 24.4511 13.4048 24.4361 13.4753C24.421 13.5458 24.4045 13.616 24.3864 13.6857C24.3683 13.7555 24.3487 13.8249 24.3275 13.8938C24.3063 13.9627 24.2837 14.0312 24.2596 14.0991C24.2354 14.167 24.2098 14.2344 24.1827 14.3012C24.1556 14.368 24.1271 14.4342 24.097 14.4997C24.067 14.5653 24.0356 14.6302 24.0028 14.6943C23.9699 14.7585 23.9357 14.822 23.9 14.8846C23.8644 14.9473 23.8274 15.0092 23.7891 15.0702C23.7507 15.1312 23.711 15.1914 23.6701 15.2507C23.6291 15.3101 23.5868 15.3684 23.5433 15.4259C23.4997 15.4834 23.4549 15.5398 23.4089 15.5953C23.3629 15.6508 23.3157 15.7053 23.2673 15.7587L23.0579 15.9787L21.5246 17.4914L17.2199 13.2547L13.8853 16.4927L13.8853 12.1254L15.1806 12.1254L15.1806 13.442L16.3033 12.3527L14.3433 10.426L15.8806 8.91737C15.9101 8.88831 15.9399 8.85961 15.9702 8.83128C16.0004 8.80297 16.0309 8.77502 16.0618 8.74744C16.0927 8.71985 16.1239 8.69266 16.1555 8.66584C16.187 8.63903 16.2189 8.6126 16.2511 8.58656C16.2833 8.56052 16.3158 8.53487 16.3487 8.50962C16.3815 8.4844 16.4146 8.45956 16.4481 8.43512C16.4815 8.41069 16.5152 8.38665 16.5493 8.36303C16.5833 8.33942 16.6176 8.31624 16.6522 8.29347C16.6868 8.2707 16.7216 8.24835 16.7568 8.22644C16.7919 8.2045 16.8273 8.18301 16.863 8.16197C16.8986 8.14091 16.9345 8.12028 16.9707 8.10009C17.0068 8.07993 17.0433 8.0602 17.0799 8.0409C17.1166 8.02162 17.1534 8.00277 17.1905 7.98437C17.2276 7.96598 17.265 7.94804 17.3025 7.93056C17.34 7.91308 17.3778 7.89607 17.4158 7.87953C17.4537 7.86297 17.4919 7.84687 17.5302 7.83125C17.5686 7.81562 17.6071 7.80047 17.6458 7.78578C17.6846 7.77109 17.7235 7.75688 17.7625 7.74316C17.8016 7.72943 17.8408 7.71618 17.8802 7.70341C17.9196 7.69063 17.9592 7.67834 17.9988 7.66653C18.0386 7.65472 18.0784 7.64339 18.1183 7.63256C18.1583 7.62173 18.1984 7.61137 18.2387 7.6015C18.2789 7.59164 18.3192 7.58228 18.3597 7.57341C18.4001 7.56455 18.4407 7.55618 18.4813 7.54828C18.522 7.54041 18.5627 7.53302 18.6036 7.52612C18.6444 7.51925 18.6853 7.51286 18.7263 7.50697C18.7673 7.50109 18.8083 7.49571 18.8495 7.49081C18.8906 7.48594 18.9318 7.48156 18.973 7.47769C19.0142 7.47381 19.0555 7.47044 19.0968 7.46756C19.1381 7.46469 19.1795 7.46232 19.2208 7.46047C19.2622 7.45859 19.3036 7.45724 19.345 7.45641C19.3864 7.45555 19.4278 7.45521 19.4693 7.45537C20.6159 7.45537 21.6993 7.83537 22.5693 8.49537L23.7506 7.33337ZM19.4693 8.73069C19.4412 8.73058 19.4132 8.73078 19.3852 8.73128C19.3572 8.7318 19.3292 8.73262 19.3012 8.73375C19.2731 8.73487 19.2452 8.73631 19.2172 8.73806C19.1892 8.73981 19.1613 8.74187 19.1333 8.74425C19.1054 8.7466 19.0775 8.74928 19.0497 8.75228C19.0218 8.75526 18.994 8.75855 18.9662 8.76216C18.9384 8.76576 18.9106 8.76966 18.8829 8.77387C18.8552 8.7781 18.8276 8.78263 18.8 8.78747C18.7724 8.7923 18.7448 8.79744 18.7173 8.80287C18.6898 8.80831 18.6624 8.81406 18.635 8.82012C18.6077 8.82616 18.5804 8.83251 18.5532 8.83916C18.5259 8.84582 18.4988 8.85278 18.4717 8.86003C18.4447 8.86728 18.4177 8.87483 18.3908 8.88269C18.3638 8.89054 18.3371 8.8987 18.3103 8.90716C18.2836 8.91561 18.257 8.92435 18.2305 8.93337C18.2039 8.94241 18.1775 8.95175 18.1512 8.96137C18.1249 8.971 18.0987 8.98091 18.0726 8.99112C18.0465 9.00133 18.0205 9.01182 17.9946 9.02259C17.9688 9.03338 17.943 9.04446 17.9174 9.05581C17.8918 9.06716 17.8663 9.0788 17.8409 9.09072C17.8155 9.10263 17.7903 9.11483 17.7652 9.12731C17.7401 9.13977 17.7152 9.15252 17.6903 9.16556C17.6655 9.17858 17.6409 9.19188 17.6163 9.20547C17.5918 9.21905 17.5675 9.2329 17.5433 9.247C17.519 9.26112 17.495 9.27551 17.4711 9.29016C17.4472 9.3048 17.4235 9.31971 17.3999 9.33487C17.3764 9.35006 17.353 9.3655 17.3298 9.38119C17.3065 9.39687 17.2835 9.41282 17.2607 9.42903C17.2378 9.44524 17.2151 9.4617 17.1926 9.4784C17.1701 9.49511 17.1478 9.51206 17.1257 9.52925C17.1035 9.54646 17.0816 9.5639 17.0598 9.58159C17.0381 9.59928 17.0166 9.61721 16.9953 9.63537L16.7959 9.81803L16.1739 10.426L21.5246 15.69L22.1426 15.078C22.1753 15.0461 22.2074 15.0135 22.239 14.9803C22.2705 14.9472 22.3014 14.9134 22.3317 14.8791C22.3619 14.8448 22.3915 14.8099 22.4205 14.7745C22.4495 14.739 22.4778 14.7031 22.5054 14.6666C22.533 14.6301 22.5599 14.5931 22.5862 14.5556C22.6124 14.5182 22.6379 14.4802 22.6627 14.4417C22.6875 14.4033 22.7116 14.3644 22.735 14.325C22.7583 14.2857 22.781 14.2459 22.8028 14.2057C22.8248 14.1655 22.8459 14.1249 22.8662 14.084C22.8866 14.043 22.9062 14.0017 22.925 13.9599C22.9438 13.9182 22.9618 13.8762 22.9791 13.8338C22.9963 13.7914 23.0128 13.7487 23.0284 13.7057C23.0441 13.6627 23.0589 13.6194 23.0729 13.5759C23.087 13.5323 23.1002 13.4885 23.1126 13.4445C23.125 13.4004 23.1366 13.3562 23.1473 13.3117C23.158 13.2672 23.1679 13.2225 23.177 13.1777C23.1861 13.1328 23.1943 13.0878 23.2017 13.0427C23.2091 12.9975 23.2157 12.9522 23.2213 12.9068C23.2271 12.8614 23.2319 12.8159 23.2359 12.7703C23.2399 12.7247 23.2431 12.6791 23.2453 12.6334C23.2476 12.5877 23.2491 12.542 23.2497 12.4962C23.2503 12.4505 23.25 12.4047 23.2488 12.359C23.2478 12.3132 23.2458 12.2675 23.2429 12.2219C23.2401 12.1762 23.2364 12.1306 23.2319 12.0851C23.2273 12.0395 23.2219 11.9941 23.2157 11.9487C23.2095 11.9034 23.2024 11.8582 23.1945 11.8132C23.1866 11.7681 23.1778 11.7232 23.1682 11.6784C23.1586 11.6337 23.1482 11.5891 23.1369 11.5448C23.1257 11.5004 23.1136 11.4563 23.1007 11.4124C23.0878 11.3685 23.074 11.3249 23.0595 11.2815C23.0449 11.2381 23.0296 11.195 23.0134 11.1522C22.9973 11.1094 22.9803 11.0669 22.9626 11.0247C22.3773 9.63537 20.9979 8.72937 19.4693 8.73069ZM10.7499 13.96L15.0579 18.1934L18.4026 14.9627L18.4026 19.3134L17.1066 19.3134L17.1066 18.0007L15.9746 19.094L17.9406 21.026L16.4033 22.534C16.3462 22.5899 16.2878 22.6444 16.2283 22.6976C16.1687 22.7507 16.1079 22.8025 16.0458 22.8528C15.9838 22.9032 15.9207 22.952 15.8564 22.9994C15.7921 23.0468 15.7267 23.0926 15.6603 23.137C15.5939 23.1813 15.5264 23.2241 15.458 23.2652C15.3896 23.3064 15.3203 23.346 15.25 23.384C15.1797 23.4219 15.1086 23.4582 15.0366 23.4928C14.9646 23.5275 14.8919 23.5604 14.8184 23.5916C14.7449 23.6229 14.6707 23.6524 14.5958 23.6802C14.5209 23.7079 14.4455 23.7339 14.3694 23.7582C14.2933 23.7825 14.2167 23.8049 14.1395 23.8256C14.0624 23.8463 13.9848 23.8652 13.9068 23.8822C13.8288 23.8993 13.7504 23.9145 13.6716 23.9279C13.5929 23.9413 13.5139 23.9529 13.4346 23.9626C13.3553 23.9723 13.2759 23.9802 13.1963 23.9862C13.1166 23.9922 13.0369 23.9964 12.9571 23.9987C12.8772 24.0009 12.7974 24.0013 12.7175 23.9999C12.6377 23.9985 12.5579 23.9952 12.4782 23.99C12.3985 23.9849 12.319 23.9779 12.2396 23.969C12.1602 23.9601 12.0811 23.9494 12.0022 23.9369C11.9234 23.9243 11.8448 23.9099 11.7666 23.8937C11.6884 23.8775 11.6106 23.8594 11.5333 23.8396C11.4559 23.8197 11.3791 23.7981 11.3027 23.7747C11.2264 23.7512 11.1506 23.726 11.0754 23.699C11.0003 23.6721 10.9258 23.6433 10.8519 23.6129C10.7781 23.5824 10.705 23.5503 10.6327 23.5164C10.5603 23.4826 10.4888 23.4471 10.4182 23.4098C10.3475 23.3727 10.2777 23.3338 10.2089 23.2934C10.14 23.2529 10.0721 23.2109 10.0052 23.1673C9.9383 23.1237 9.87245 23.0785 9.80766 23.0318C9.74287 22.9851 9.6792 22.937 9.61666 22.8873C9.5541 22.8377 9.49273 22.7866 9.43256 22.734L8.24925 23.9007L7.33325 22.9987L8.56056 21.7914L8.67591 21.9054C8.63285 21.8461 8.59112 21.7858 8.55072 21.7247C8.51035 21.6635 8.47135 21.6014 8.43372 21.5385C8.3961 21.4756 8.35989 21.4119 8.3251 21.3474C8.29031 21.2829 8.25696 21.2177 8.22506 21.1517C8.19319 21.0857 8.16279 21.019 8.13388 20.9516C8.10494 20.8843 8.07752 20.8163 8.05163 20.7477C8.02573 20.6792 8.00138 20.6101 7.97856 20.5404C7.95575 20.4707 7.93449 20.4006 7.91478 20.33C7.8951 20.2594 7.87698 20.1884 7.86044 20.117C7.8439 20.0456 7.82895 19.9739 7.8156 19.9018C7.80226 19.8297 7.79052 19.7574 7.78038 19.6848C7.77025 19.6122 7.76175 19.5394 7.75488 19.4664C7.74798 19.3935 7.74271 19.3204 7.73906 19.2472C7.73544 19.174 7.73344 19.1007 7.73306 19.0274C7.73269 18.9541 7.73394 18.8808 7.73681 18.8076C7.73969 18.7344 7.7442 18.6612 7.75035 18.5882C7.75649 18.5152 7.76425 18.4423 7.77363 18.3696C7.783 18.2969 7.79399 18.2245 7.8066 18.1522C7.8192 18.08 7.83341 18.0082 7.84922 17.9366C7.86503 17.865 7.88242 17.7938 7.90138 17.723C7.92035 17.6522 7.9409 17.5819 7.963 17.512C7.98511 17.4421 8.00875 17.3727 8.03394 17.3039C8.05913 17.2351 8.08584 17.1668 8.11406 17.0992C8.14227 17.0315 8.17198 16.9646 8.20319 16.8982C8.2344 16.8319 8.26706 16.7663 8.30119 16.7015C8.33531 16.6366 8.37087 16.5725 8.40785 16.5092C8.44482 16.4459 8.48319 16.3835 8.52294 16.3219C8.56271 16.2603 8.60381 16.1997 8.64625 16.1399C8.68871 16.0802 8.73248 16.0214 8.77757 15.9636C8.82263 15.9058 8.86896 15.849 8.91656 15.7933C8.96415 15.7376 9.01296 15.6829 9.063 15.6293C9.11302 15.5757 9.16421 15.5233 9.21656 15.472L10.7499 13.96ZM10.7499 15.7647L10.1326 16.3727C10.1035 16.4011 10.0749 16.43 10.0468 16.4594C10.0187 16.4888 9.99102 16.5187 9.96388 16.549C9.93675 16.5792 9.91014 16.61 9.88403 16.6412C9.85791 16.6724 9.83231 16.704 9.80725 16.736C9.78219 16.768 9.75767 16.8005 9.73369 16.8333C9.70969 16.8662 9.68625 16.8994 9.66338 16.933C9.64048 16.9667 9.61816 17.0007 9.59641 17.035C9.57464 17.0694 9.55345 17.1041 9.53285 17.1392C9.51224 17.1742 9.49222 17.2096 9.47278 17.2453C9.45337 17.2811 9.43453 17.3172 9.41628 17.3535C9.39806 17.3898 9.38043 17.4265 9.36341 17.4634C9.34639 17.5004 9.32998 17.5376 9.31419 17.5751C9.2984 17.6125 9.28324 17.6503 9.26872 17.6883C9.25418 17.7262 9.24027 17.7645 9.227 17.8029C9.21373 17.8414 9.20111 17.88 9.18913 17.9189C9.17715 17.9577 9.1658 17.9968 9.1551 18.0361C9.14441 18.0753 9.13438 18.1147 9.125 18.1543C9.11563 18.1939 9.1069 18.2336 9.09881 18.2735C9.09075 18.3133 9.08335 18.3533 9.07663 18.3934C9.06988 18.4335 9.0638 18.4737 9.05841 18.5141C9.05299 18.5544 9.04825 18.5947 9.04419 18.6352C9.04013 18.6757 9.03674 18.7162 9.03403 18.7568C9.03131 18.7974 9.02925 18.838 9.02788 18.8787C9.0265 18.9193 9.02581 18.96 9.02578 19.0006C9.02576 19.0413 9.02641 19.082 9.02772 19.1226C9.02905 19.1633 9.03106 19.2039 9.03372 19.2445C9.03639 19.2851 9.03973 19.3256 9.04375 19.3661C9.04775 19.4065 9.05244 19.4469 9.05781 19.4872C9.06317 19.5276 9.06919 19.5678 9.07588 19.6079C9.08256 19.648 9.08991 19.688 9.09791 19.7279C9.10593 19.7678 9.1146 19.8075 9.12394 19.8471C9.13327 19.8867 9.14326 19.9261 9.15391 19.9654C9.16482 20.0048 9.17638 20.044 9.18856 20.0831C9.20075 20.1221 9.21359 20.161 9.22706 20.1996C9.24052 20.2382 9.25462 20.2767 9.26935 20.3148C9.28407 20.353 9.29942 20.3909 9.31538 20.4286C9.33133 20.4662 9.34791 20.5037 9.3651 20.5408C9.38228 20.5779 9.40007 20.6147 9.41847 20.6513C9.43687 20.6878 9.45586 20.7241 9.47544 20.76C9.495 20.7959 9.51516 20.8315 9.53591 20.8667C9.55666 20.902 9.57798 20.9369 9.59988 20.9715C9.62175 21.0061 9.64419 21.0402 9.66719 21.0741C9.69021 21.1079 9.71377 21.1414 9.73788 21.1744C9.76196 21.2075 9.78659 21.2401 9.81175 21.2724C9.83694 21.3046 9.86264 21.3365 9.88885 21.3679C9.91506 21.3993 9.94177 21.4303 9.969 21.4608C9.99623 21.4913 10.0239 21.5214 10.0522 21.5511C10.0804 21.5807 10.1091 21.6098 10.1382 21.6385C10.1674 21.6672 10.197 21.6954 10.2271 21.7232C10.2572 21.7509 10.2877 21.7781 10.3187 21.8048C10.3497 21.8315 10.3811 21.8577 10.4129 21.8835C10.4447 21.9092 10.477 21.9343 10.5097 21.9589C10.5423 21.9836 10.5753 22.0077 10.6088 22.0312C10.6423 22.0548 10.6761 22.0778 10.7103 22.1002C10.7445 22.1227 10.7791 22.1446 10.814 22.1659C10.8489 22.1872 10.8842 22.208 10.9198 22.2281C10.9553 22.2483 10.9913 22.2679 11.0275 22.2869C11.0637 22.3059 11.1003 22.3243 11.1371 22.3421C11.1739 22.3598 11.2111 22.377 11.2485 22.3936C11.2859 22.4102 11.3235 22.4262 11.3614 22.4415C11.3994 22.4568 11.4375 22.4716 11.4759 22.4857C11.5143 22.4997 11.553 22.5132 11.5918 22.5261C11.6307 22.5389 11.6697 22.5511 11.709 22.5626C11.7482 22.5742 11.7877 22.5851 11.8273 22.5954C11.867 22.6059 11.9069 22.6158 11.947 22.625C11.9871 22.6342 12.0274 22.6428 12.0677 22.6508C12.1081 22.6587 12.1486 22.666 12.1892 22.6727C12.2298 22.6793 12.2705 22.6852 12.3113 22.6906C12.3521 22.6959 12.393 22.7006 12.4339 22.7046C12.4749 22.7086 12.5159 22.7119 12.5569 22.7146C12.598 22.7172 12.6391 22.7193 12.6802 22.7206C12.7213 22.722 12.7624 22.7226 12.8036 22.7227C12.8448 22.7227 12.8859 22.722 12.927 22.7207C12.9681 22.7194 13.0092 22.7175 13.0503 22.7148C13.0913 22.7122 13.1323 22.7089 13.1733 22.7049C13.2143 22.701 13.2551 22.6964 13.2959 22.6911C13.3367 22.6858 13.3774 22.6799 13.418 22.6733C13.4587 22.6667 13.4992 22.6594 13.5395 22.6515C13.5799 22.6436 13.6202 22.6351 13.6603 22.6259C13.7003 22.6167 13.7403 22.6068 13.7801 22.5963C13.8198 22.5859 13.8595 22.5747 13.8989 22.563C13.9383 22.5512 13.9775 22.5388 14.0166 22.5258C14.0556 22.5127 14.0944 22.4991 14.133 22.4848C14.1716 22.4705 14.2099 22.4556 14.248 22.4401C14.2861 22.4245 14.3239 22.4084 14.3615 22.3917C14.3991 22.3749 14.4364 22.3576 14.4734 22.3396C14.5104 22.3217 14.5472 22.3031 14.5836 22.284C14.62 22.2648 14.6561 22.2451 14.6919 22.2248C14.7277 22.2045 14.7631 22.1837 14.7983 22.1622C14.8333 22.1407 14.8681 22.1187 14.9025 22.0962C14.9369 22.0736 14.9709 22.0505 15.0046 22.0268C15.0383 22.0032 15.0715 21.9789 15.1044 21.9542C15.1373 21.9295 15.1697 21.9042 15.2018 21.8784C15.2338 21.8526 15.2654 21.8263 15.2967 21.7995C15.3279 21.7727 15.3586 21.7454 15.389 21.7176C15.4193 21.6897 15.4492 21.6615 15.4786 21.6327L16.0966 21.0247L10.7499 15.7647Z"   fill="#FFFFFF" >
</path>
</svg>
