<svg xmlns="http://www.w3.org/2000/svg" xmlns:xlink="http://www.w3.org/1999/xlink" width="11.32568359375" height="9.72698974609375" viewBox="0 0 11.32568359375 9.72698974609375" fill="none">
<path d="M10.7789 6.13266L0.546875 6.13266C0.244726 6.13266 0 6.37738 0 6.67953C0 6.79437 0.0355469 6.90101 0.0957031 6.98851C0.12168 7.05004 0.161328 7.10746 0.210547 7.15805L2.6209 9.56703C2.72754 9.67367 2.86699 9.72699 3.00781 9.72699C3.14863 9.72699 3.28808 9.67367 3.39473 9.56703C3.60801 9.35375 3.60801 9.00785 3.39473 8.7932L1.82519 7.22641L10.7775 7.22641C11.0797 7.22641 11.3244 6.98168 11.3244 6.67953C11.3244 6.37738 11.0811 6.13266 10.7789 6.13266ZM0.546875 3.59516L10.7789 3.59516C11.0811 3.59516 11.3258 3.35043 11.3258 3.04828C11.3258 2.93344 11.2902 2.8268 11.2301 2.7393C11.2109 2.69418 11.1836 2.65043 11.1508 2.60941L9.17929 0.200426C8.98789 -0.0333628 8.64336 -0.0675425 8.40957 0.123864C8.17578 0.315271 8.1416 0.659802 8.333 0.893591L9.64961 2.50141L0.546875 2.50141C0.244726 2.50141 0 2.74613 0 3.04828C0 3.35043 0.244726 3.59516 0.546875 3.59516Z"   fill="currentColor" >
</path>
</svg>
