<svg xmlns="http://www.w3.org/2000/svg" width="14" height="14" viewBox="0 0 14 14" fill="currentColor">
  <path opacity="0.5" d="M5.83333 12.25H3.5C2.5375 12.25 1.75 11.4625 1.75 10.5V3.5C1.75 2.5375 2.5375 1.75 3.5 1.75H10.5C11.4625 1.75 12.25 2.5375 12.25 3.5V5.25H11.0833V3.5C11.0833 3.17917 10.8208 2.91667 10.5 2.91667H3.5C3.17917 2.91667 2.91667 3.17917 2.91667 3.5V10.5C2.91667 10.8208 3.17917 11.0833 3.5 11.0833H5.83333V12.25Z" fill="white"/>
  <path opacity="0.5" d="M5.25004 6.41665C5.89437 6.41665 6.41671 5.89431 6.41671 5.24998C6.41671 4.60565 5.89437 4.08331 5.25004 4.08331C4.60571 4.08331 4.08337 4.60565 4.08337 5.24998C4.08337 5.89431 4.60571 6.41665 5.25004 6.41665Z" fill="white"/>
  <path d="M8.82583 7.58331H7.58333C7.2625 7.58331 7 7.84581 7 8.16664V10.5C7 10.8208 7.2625 11.0833 7.58333 11.0833H8.82583L11.4392 12.2033C11.8242 12.3666 12.25 12.0866 12.25 11.6666V6.99998C12.25 6.57998 11.8242 6.29998 11.4392 6.46331L8.82583 7.58331Z" fill="white"/>
</svg>