<svg xmlns="http://www.w3.org/2000/svg" xmlns:xlink="http://www.w3.org/1999/xlink" width="24" height="24" viewBox="0 0 24 24" fill="none">
<path d="M11.1479 5.41517C10.8108 5.04555 10.2687 5.0498 9.93202 5.41901L4.54479 11.3258C4.20224 11.7013 4.20811 12.2936 4.54479 12.6628L9.93202 18.5696C10.2746 18.9452 10.8131 18.9405 11.1479 18.5735C11.4849 18.2039 11.4801 17.6086 11.142 17.238L7.2168 12.9341L18.8606 12.9341C19.3321 12.9341 19.72 12.5134 19.72 11.9943C19.72 11.4716 19.3352 11.0544 18.8606 11.0544L7.2168 11.0544L11.142 6.75067C11.4838 6.37597 11.4826 5.78219 11.1479 5.41517Z"   fill="#787878" >
</path>
<defs>
<mask id="mask-3_1675" style="mask-type:alpha" maskUnits="userSpaceOnUse">
<path d="M18.86 12.93C19.3316 12.93 19.72 12.5091 19.72 11.99C19.72 11.4673 19.3347 11.05 18.86 11.05L7.22004 11.05L11.14 6.75001C11.4818 6.37532 11.4847 5.78703 11.15 5.42001C10.8129 5.05039 10.2667 5.0508 9.93004 5.42001L4.54004 11.33C4.19749 11.7055 4.20336 12.2908 4.54004 12.66L9.93004 18.57C10.2726 18.9455 10.8152 18.937 11.15 18.57C11.487 18.2004 11.4781 17.6106 11.14 17.24L7.22004 12.93L18.86 12.93Z"   fill="#787878" >
</path>
</mask>
</defs>
</svg>
