<svg xmlns="http://www.w3.org/2000/svg" xmlns:xlink="http://www.w3.org/1999/xlink" width="12" height="12" viewBox="0 0 12 12" fill="none">
<path d="M4.38945 6.19428C4.36994 6.0627 4.41586 5.92982 4.51248 5.8383L8.83168 1.93705C9.17589 1.62784 9.7022 1.64315 10.0279 1.97171C10.3502 2.29594 10.3654 2.81466 10.0626 3.15717L6.20263 7.50936C6.11368 7.61168 5.97974 7.6632 5.84516 7.64687C5.71052 7.63049 5.59285 7.54841 5.53107 7.42775C5.32876 7.02975 5.00683 6.70511 4.61045 6.4994C4.49143 6.43981 4.40896 6.32592 4.38945 6.19428ZM3.63135 6.88524C4.03786 6.88524 4.42745 7.04803 4.71311 7.33724C5.30885 7.94259 5.30885 8.91395 4.71311 9.51929C3.63135 10.6093 1.06975 9.83977 1.86578 9.55606C2.65614 9.27399 2.52865 8.95418 2.37467 8.5679C2.23558 8.21897 2.07487 7.81581 2.54955 7.33724C2.83524 7.04803 3.22484 6.88524 3.63135 6.88524Z" fill-rule="evenodd"  fill="currentColor" >
</path>
</svg>
