<svg xmlns="http://www.w3.org/2000/svg" xmlns:xlink="http://www.w3.org/1999/xlink" width="27.7506103515625" height="27.985809326171875" viewBox="0 0 27.7506103515625 27.985809326171875" fill="currentColor">
<path d="M27.2019 25.455L25.8173 25.455L25.8173 7.72527C25.8173 7.52622 25.7019 7.34139 25.5288 7.25608L17.5961 3.16131C17.2211 2.96226 16.774 3.2324 16.774 3.63051L16.774 25.455L15.8077 25.455L15.8077 0.530993C15.8077 0.161327 15.4183 -0.094595 15.0577 0.0333661L2.94231 4.29875C2.72596 4.36984 2.58173 4.58311 2.58173 4.79638L2.58173 25.4408L0.548077 25.4408C0.245192 25.4408 0 25.7252 0 26.0806L0 27.346C0 27.7014 0.245192 27.9858 0.548077 27.9858L27.2019 27.9858C27.5048 27.9858 27.75 27.7014 27.75 27.346L27.75 26.0806C27.7644 25.7394 27.5192 25.455 27.2019 25.455ZM19.6154 7.93854C19.6154 7.49778 19.9904 7.12812 20.4519 7.12812L21.9231 7.12812C22.3846 7.12812 22.7596 7.48356 22.7596 7.93854L22.7596 8.47882C22.7596 8.91957 22.3846 9.28924 21.9231 9.28924L20.4519 9.28924C19.9904 9.28924 19.6154 8.93379 19.6154 8.47882L19.6154 7.93854ZM19.6154 11.166C19.6154 10.7252 19.9904 10.3556 20.4519 10.3556L21.9231 10.3556C22.3846 10.3556 22.7596 10.711 22.7596 11.166L22.7596 11.7063C22.7596 12.147 22.3846 12.5167 21.9231 12.5167L20.4519 12.5167C19.9904 12.5167 19.6154 12.1613 19.6154 11.7063L19.6154 11.166ZM19.6154 14.3935C19.6154 13.9527 19.9904 13.5831 20.4519 13.5831L21.9231 13.5831C22.3846 13.5831 22.7596 13.9385 22.7596 14.3935L22.7596 14.9338C22.7596 15.3745 22.3846 15.7442 21.9231 15.7442L20.4519 15.7442C19.9904 15.7442 19.6154 15.3887 19.6154 14.9338L19.6154 14.3935ZM19.6154 17.692C19.6154 17.2513 19.9904 16.8816 20.4519 16.8816L21.9231 16.8816C22.3846 16.8816 22.7596 17.2371 22.7596 17.692L22.7596 18.2323C22.7596 18.6731 22.3846 19.0427 21.9231 19.0427L20.4519 19.0427C19.9904 19.0427 19.6154 18.6873 19.6154 18.2323L19.6154 17.692ZM19.6154 20.82C19.6154 20.3792 19.9904 20.0095 20.4519 20.0095L21.9231 20.0095C22.3846 20.0095 22.7596 20.365 22.7596 20.82L22.7596 21.3603C22.7596 21.801 22.3846 22.1707 21.9231 22.1707L20.4519 22.1707C19.9904 22.1707 19.6154 21.8152 19.6154 21.3603L19.6154 20.82ZM10.1394 4.79638C10.1394 4.35562 10.5144 3.98596 10.976 3.98596L12.4471 3.98596C12.9086 3.98596 13.2836 4.3414 13.2836 4.79638L13.2836 5.33666C13.2836 5.77741 12.9086 6.14708 12.4471 6.14708L10.976 6.14708C10.5144 6.14708 10.1394 5.79163 10.1394 5.33666L10.1394 4.79638ZM10.1394 7.93854C10.1394 7.49778 10.5144 7.12812 10.976 7.12812L12.4471 7.12812C12.9086 7.12812 13.2836 7.48356 13.2836 7.93854L13.2836 8.47882C13.2836 8.91957 12.9086 9.28924 12.4471 9.28924L10.976 9.28924C10.5144 9.28924 10.1394 8.93379 10.1394 8.47882L10.1394 7.93854ZM10.1394 11.166C10.1394 10.7252 10.5144 10.3556 10.976 10.3556L12.4471 10.3556C12.9086 10.3556 13.2836 10.711 13.2836 11.166L13.2836 11.7063C13.2836 12.147 12.9086 12.5167 12.4471 12.5167L10.976 12.5167C10.5144 12.5167 10.1394 12.1613 10.1394 11.7063L10.1394 11.166ZM10.1394 14.3935C10.1394 13.9527 10.5144 13.5831 10.976 13.5831L12.4471 13.5831C12.9086 13.5831 13.2836 13.9385 13.2836 14.3935L13.2836 14.9338C13.2836 15.3745 12.9086 15.7442 12.4471 15.7442L10.976 15.7442C10.5144 15.7442 10.1394 15.3887 10.1394 14.9338L10.1394 14.3935ZM10.1394 17.692C10.1394 17.2513 10.5144 16.8816 10.976 16.8816L12.4471 16.8816C12.9086 16.8816 13.2836 17.2371 13.2836 17.692L13.2836 18.2323C13.2836 18.6731 12.9086 19.0427 12.4471 19.0427L10.976 19.0427C10.5144 19.0427 10.1394 18.6873 10.1394 18.2323L10.1394 17.692ZM10.1394 20.82C10.1394 20.3792 10.5144 20.0095 10.976 20.0095L12.4471 20.0095C12.9086 20.0095 13.2836 20.365 13.2836 20.82L13.2836 21.3603C13.2836 21.801 12.9086 22.1707 12.4471 22.1707L10.976 22.1707C10.5144 22.1707 10.1394 21.8152 10.1394 21.3603L10.1394 20.82ZM5.17788 7.93854C5.17788 7.49778 5.55288 7.12812 6.01442 7.12812L7.48557 7.12812C7.94711 7.12812 8.32211 7.48356 8.32211 7.93854L8.32211 8.47882C8.32211 8.91957 7.94711 9.28924 7.48557 9.28924L6.01442 9.28924C5.55288 9.28924 5.17788 8.93379 5.17788 8.47882L5.17788 7.93854ZM5.17788 11.166C5.17788 10.7252 5.55288 10.3556 6.01442 10.3556L7.48557 10.3556C7.94711 10.3556 8.32211 10.711 8.32211 11.166L8.32211 11.7063C8.32211 12.147 7.94711 12.5167 7.48557 12.5167L6.01442 12.5167C5.55288 12.5167 5.17788 12.1613 5.17788 11.7063L5.17788 11.166ZM5.17788 14.3935C5.17788 13.9527 5.55288 13.5831 6.01442 13.5831L7.48557 13.5831C7.94711 13.5831 8.32211 13.9385 8.32211 14.3935L8.32211 14.9338C8.32211 15.3745 7.94711 15.7442 7.48557 15.7442L6.01442 15.7442C5.55288 15.7442 5.17788 15.3887 5.17788 14.9338L5.17788 14.3935ZM5.17788 17.692C5.17788 17.2513 5.55288 16.8816 6.01442 16.8816L7.48557 16.8816C7.94711 16.8816 8.32211 17.2371 8.32211 17.692L8.32211 18.2323C8.32211 18.6731 7.94711 19.0427 7.48557 19.0427L6.01442 19.0427C5.55288 19.0427 5.17788 18.6873 5.17788 18.2323L5.17788 17.692ZM5.17788 20.82C5.17788 20.3792 5.55288 20.0095 6.01442 20.0095L7.48557 20.0095C7.94711 20.0095 8.32211 20.365 8.32211 20.82L8.32211 21.3603C8.32211 21.801 7.94711 22.1707 7.48557 22.1707L6.01442 22.1707C5.55288 22.1707 5.17788 21.8152 5.17788 21.3603L5.17788 20.82Z"   fill="currentColor" >
</path>
</svg>
