<?xml version="1.0" encoding="UTF-8"?>
<svg width="16px" height="16px" viewBox="0 0 16 16" version="1.1" xmlns="http://www.w3.org/2000/svg" xmlns:xlink="http://www.w3.org/1999/xlink">
    <g id="V1.0" stroke="none" stroke-width="1" fill="none" fill-rule="evenodd">
        <g id="首页" transform="translate(-46, -128)" fill-rule="nonzero">
            <g id="对话2" transform="translate(46, 128)">
                <rect id="矩形" fill="currentColor" opacity="0" x="0" y="0" width="16" height="16"></rect>
                <path d="M4.03614857,11.8029143 C4.03614857,11.8029143 3.63182857,13.3789371 2.82318857,13.7730514 C2.82318857,13.7730514 6.46250286,13.3789371 7.27114286,11.8029143 L4.03614857,11.8029143 Z M12.9327086,2 L3.22750857,2 C2.55740571,2 2,2.48184 2,3.13435429 L2,11.0146857 C2,11.6674171 2.55740571,12.2057143 3.22750857,12.2057143 L12.9327086,12.2057143 C13.6025943,12.2057143 14.16,11.6674171 14.16,11.0146857 L14.16,3.13435429 C14.16,2.48184 13.6025943,2 12.9327086,2 Z M4.84500571,7.86285714 C4.39834286,7.86285714 4.03614857,7.50978286 4.03614857,7.07441143 C4.03614857,6.63925714 4.39812571,6.2864 4.84500571,6.2864 C5.29188571,6.2864 5.65386286,6.63925714 5.65386286,7.07441143 C5.65386286,7.50978286 5.29166857,7.86285714 4.84500571,7.86285714 Z M8.08,7.86285714 C7.63333714,7.86285714 7.27114286,7.50978286 7.27114286,7.07441143 C7.27114286,6.63925714 7.63312,6.2864 8.08,6.2864 C8.52709714,6.2864 8.88907429,6.63925714 8.88907429,7.07441143 C8.88907429,7.50978286 8.52709714,7.86285714 8.08,7.86285714 Z M11.3147771,7.86285714 C10.8681143,7.86285714 10.50592,7.50978286 10.50592,7.07441143 C10.50592,6.63925714 10.8681143,6.2864 11.3147771,6.2864 C11.7618743,6.2864 12.1236343,6.63925714 12.1236343,7.07441143 C12.1236343,7.50978286 11.7618743,7.86285714 11.3147771,7.86285714 Z" id="形状" fill="currentColor"></path>
            </g>
        </g>
    </g>
</svg>