<svg xmlns="http://www.w3.org/2000/svg" xmlns:xlink="http://www.w3.org/1999/xlink" width="24" height="24" viewBox="0 0 24 24" fill="none"><path d="M4.16576 15.3035C4.1882 15.3565 4.21117 15.4093 4.23469 15.4619C4.2582 15.5144 4.28225 15.5668 4.30683 15.6189C4.33141 15.6709 4.3565 15.7227 4.38214 15.7743C4.40776 15.8259 4.43389 15.8772 4.46056 15.9282C4.48723 15.9793 4.5144 16.03 4.5421 16.0805C4.56978 16.131 4.59798 16.1812 4.62669 16.2311C4.65538 16.2811 4.6846 16.3307 4.71432 16.38C4.74402 16.4293 4.77423 16.4783 4.80493 16.5271C4.83563 16.5758 4.86683 16.6242 4.89852 16.6722C4.9302 16.7203 4.96236 16.7681 4.99503 16.8155C5.02766 16.863 5.0608 16.91 5.09441 16.9568C5.12802 17.0036 5.16207 17.05 5.19662 17.0961C5.23116 17.1421 5.26616 17.1879 5.30164 17.2332C5.3371 17.2786 5.37303 17.3236 5.40943 17.3682C5.4458 17.4129 5.48263 17.4571 5.51991 17.501C5.55718 17.5449 5.59489 17.5884 5.63305 17.6315C5.6712 17.6747 5.70978 17.7174 5.74883 17.7598C5.78783 17.8021 5.82727 17.844 5.86716 17.8856C5.90703 17.9271 5.94732 17.9683 5.98803 18.009C6.02872 18.0497 6.06983 18.0901 6.11136 18.1299C6.15289 18.1698 6.1948 18.2093 6.23712 18.2484C6.27945 18.2874 6.32216 18.326 6.36526 18.3642C6.40836 18.4024 6.45184 18.4401 6.49571 18.4775C6.53956 18.5148 6.58381 18.5516 6.62844 18.588C6.67304 18.6244 6.71802 18.6604 6.76337 18.6959C6.8087 18.7314 6.85437 18.7664 6.90043 18.801C6.94648 18.8356 6.99289 18.8697 7.03962 18.9033C7.08636 18.9369 7.13342 18.9701 7.18086 19.0028C7.22825 19.0355 7.27599 19.0677 7.32406 19.0994C7.37211 19.1311 7.42048 19.1623 7.46919 19.1931C7.51789 19.2238 7.5669 19.254 7.61621 19.2838C7.6655 19.3135 7.71509 19.3428 7.76502 19.3715L7.76502 12.0865L4.51152 15.1208C4.41076 15.2148 4.29124 15.2757 4.16576 15.3038L4.16576 15.3035ZM3.69724 13.8288L8.61226 9.24526L4.00001 9.24526C3.9855 9.24526 3.97099 9.245 3.95674 9.24401C3.9189 9.35466 3.88336 9.46606 3.85013 9.57819C3.81687 9.69031 3.78596 9.80307 3.75738 9.91646C3.72881 10.0299 3.70258 10.1438 3.6787 10.2583C3.65484 10.3728 3.63335 10.4877 3.61423 10.6031C3.5951 10.7184 3.57837 10.8342 3.56405 10.9502C3.5497 11.0663 3.53777 11.1826 3.52823 11.2992C3.5187 11.4157 3.51159 11.5325 3.50688 11.6493C3.50217 11.7661 3.49987 11.8831 3.49999 12C3.49999 12.6278 3.56801 13.24 3.69724 13.8288ZM10.7772 9.24526C10.7602 9.27186 10.7416 9.29729 10.7214 9.32157C10.7012 9.3458 10.6796 9.3687 10.6565 9.39027L9.20075 10.7475C9.242 10.8403 9.26476 10.943 9.26476 11.051L9.26476 12.9153C9.34876 12.9537 9.42676 13.0085 9.49452 13.0795L11.0783 14.74L13.201 14.74L14.8017 13.0305L14.8017 10.7835L13.2038 9.21725C13.1388 9.23551 13.0705 9.24526 13 9.24526L10.7772 9.24526ZM9.26326 20.05C9.37318 20.0873 9.48385 20.1223 9.59525 20.1551C9.70662 20.1879 9.81863 20.2183 9.93127 20.2465C10.0439 20.2746 10.157 20.3005 10.2707 20.324C10.3844 20.3475 10.4986 20.3687 10.6131 20.3875C10.7277 20.4064 10.8426 20.4228 10.9578 20.437C11.0731 20.4511 11.1885 20.4628 11.3043 20.4722C11.42 20.4816 11.5358 20.4886 11.6518 20.4933C11.7679 20.4979 11.8839 20.5001 12 20.5C12.768 20.5 13.5123 20.3982 14.22 20.2073L9.26502 15.0123L9.26502 20C9.26502 20.0168 9.26427 20.0333 9.26326 20.05ZM15.7195 19.6453C15.7669 19.6221 15.8141 19.5985 15.8611 19.5745C15.908 19.5505 15.9548 19.526 16.0013 19.5011C16.0478 19.4762 16.0941 19.4509 16.1402 19.4252C16.1862 19.3994 16.232 19.3732 16.2776 19.3467C16.3232 19.3201 16.3685 19.293 16.4136 19.2656C16.4586 19.2382 16.5034 19.2103 16.548 19.1821C16.5925 19.1538 16.6368 19.1251 16.6808 19.096C16.7248 19.0669 16.7686 19.0374 16.8121 19.0075C16.8555 18.9776 16.8987 18.9473 16.9416 18.9166C16.9845 18.8859 17.0272 18.8548 17.0695 18.8233C17.1118 18.7918 17.1538 18.76 17.1956 18.7277C17.2373 18.6954 17.2788 18.6628 17.3199 18.6297C17.361 18.5967 17.4019 18.5633 17.4424 18.5295C17.4829 18.4957 17.5231 18.4615 17.563 18.427C17.6029 18.3924 17.6424 18.3575 17.6817 18.3223C17.7209 18.287 17.7598 18.2514 17.7984 18.2154C17.837 18.1794 17.8752 18.143 17.9131 18.1063C17.951 18.0696 17.9885 18.0325 18.0258 17.9952C18.063 17.9577 18.0999 17.92 18.1364 17.8819C18.1729 17.8438 18.209 17.8054 18.2448 17.7667C18.2806 17.7279 18.3161 17.6888 18.3511 17.6494C18.3862 17.61 18.4209 17.5703 18.4553 17.5302C18.4896 17.4901 18.5236 17.4498 18.5572 17.4091C18.5907 17.3684 18.624 17.3274 18.6568 17.2861C18.6896 17.2448 18.7221 17.2032 18.7542 17.1613C18.7862 17.1194 18.8179 17.0772 18.8491 17.0347C18.8804 16.9922 18.9113 16.9495 18.9418 16.9064C18.9723 16.8633 19.0024 16.82 19.0321 16.7764C19.0617 16.7328 19.091 16.6889 19.1199 16.6447C19.1488 16.6006 19.1772 16.5561 19.2053 16.5114C19.2333 16.4667 19.2609 16.4218 19.2881 16.3766C19.3153 16.3314 19.3421 16.286 19.3685 16.2402L12.5088 16.2402L15.6012 19.4828C15.6488 19.5327 15.6882 19.5875 15.7195 19.6453ZM20.0483 14.7417C20.0857 14.6316 20.1208 14.5208 20.1537 14.4092C20.1866 14.2976 20.2172 14.1854 20.2455 14.0726C20.2737 13.9598 20.2997 13.8464 20.3233 13.7325C20.3469 13.6186 20.3682 13.5042 20.3871 13.3895C20.406 13.2747 20.4225 13.1596 20.4367 13.0441C20.4509 12.9287 20.4627 12.813 20.4721 12.6971C20.4815 12.5811 20.4886 12.465 20.4932 12.3488C20.4979 12.2326 20.5001 12.1163 20.5 12C20.5 11.1408 20.3725 10.3113 20.1355 9.52951L15.2558 14.74L20 14.74C20.0163 14.74 20.0322 14.7405 20.0483 14.7415L20.0483 14.7417ZM4.63977 7.74526L11.7018 7.74526L8.42675 4.53575C8.39907 4.50866 8.37364 4.47962 8.35046 4.44861C8.32728 4.41758 8.30663 4.38498 8.28852 4.35076C8.24115 4.37382 8.19399 4.3973 8.14707 4.42126C8.10015 4.44519 8.05344 4.46956 8.00696 4.49438C7.96048 4.51918 7.91424 4.5444 7.86823 4.57009C7.82223 4.59573 7.77645 4.62181 7.73094 4.64832C7.68542 4.67483 7.64014 4.70176 7.59512 4.72911C7.55007 4.75644 7.5053 4.78421 7.4608 4.81238C7.41627 4.84055 7.37202 4.86912 7.32805 4.89814C7.28405 4.92711 7.24034 4.9565 7.19691 4.98631C7.15346 5.01612 7.11031 5.04631 7.06742 5.07692C7.02453 5.10753 6.98195 5.13852 6.93964 5.16992C6.89734 5.2013 6.85534 5.23309 6.81362 5.26524C6.7719 5.2974 6.73046 5.32995 6.68935 5.36291C6.64824 5.39584 6.60744 5.42914 6.56694 5.46284C6.52644 5.49652 6.48624 5.53058 6.44637 5.56501C6.40648 5.59944 6.36695 5.63424 6.32773 5.66942C6.2885 5.70458 6.24962 5.74009 6.21104 5.77599C6.17246 5.81187 6.13423 5.84811 6.09636 5.88472C6.05844 5.9213 6.02089 5.95824 5.98367 5.99553C5.94645 6.03282 5.90961 6.07046 5.87309 6.10843C5.83658 6.1464 5.80041 6.1847 5.7646 6.22334C5.72879 6.26197 5.69333 6.30095 5.65827 6.34025C5.62316 6.37953 5.58845 6.41916 5.55411 6.4591C5.51975 6.49904 5.48577 6.53928 5.45216 6.57985C5.41855 6.62042 5.38534 6.6613 5.35248 6.70248C5.31962 6.74366 5.28716 6.78514 5.25507 6.82693C5.22298 6.8687 5.1913 6.91079 5.16001 6.95316C5.1287 6.99554 5.09778 7.0382 5.06727 7.08113C5.03675 7.12407 5.00663 7.16729 4.97694 7.21079C4.94722 7.25429 4.9179 7.29807 4.889 7.34211C4.86008 7.38615 4.8316 7.43047 4.80352 7.47505C4.77542 7.5196 4.74774 7.56441 4.72051 7.60951C4.69325 7.6546 4.66641 7.69993 4.64 7.74552L4.63977 7.74526ZM9.80476 3.78626L14.8017 8.68325L14.8017 4.10824C14.8017 4.06324 14.8058 4.01951 14.8133 3.9765C14.7005 3.93703 14.5869 3.89996 14.4726 3.86529C14.3583 3.83062 14.2433 3.79837 14.1276 3.76854C14.0119 3.73873 13.8956 3.71137 13.7788 3.68646C13.6619 3.66155 13.5446 3.63912 13.4268 3.61917C13.309 3.59922 13.1908 3.58177 13.0723 3.56681C12.9538 3.55184 12.835 3.53939 12.7159 3.52945C12.5969 3.5195 12.4776 3.51207 12.3583 3.50716C12.2389 3.50226 12.1195 3.49987 12 3.49999C11.241 3.49999 10.505 3.59951 9.80502 3.78626L9.80476 3.78626ZM16.302 10.4675L16.302 11.429L19.4528 8.06401C19.4703 8.04526 19.489 8.02752 19.5078 8.01101C19.4848 7.96789 19.4614 7.92495 19.4377 7.88225C19.414 7.8395 19.3899 7.79698 19.3655 7.7547C19.341 7.71237 19.3162 7.67028 19.291 7.6284C19.2658 7.58652 19.2403 7.54484 19.2144 7.50341C19.1885 7.46197 19.1623 7.42074 19.1357 7.37975C19.1091 7.33876 19.0821 7.298 19.0549 7.25748C19.0276 7.21693 18.9999 7.17664 18.9719 7.13659C18.944 7.09651 18.9156 7.05671 18.887 7.01715C18.8583 6.97756 18.8293 6.93823 18.7999 6.89919C18.7706 6.86009 18.7409 6.82128 18.7109 6.78273C18.6809 6.74415 18.6505 6.70585 18.6199 6.66781C18.5892 6.62977 18.5582 6.59199 18.5269 6.55449C18.4956 6.51697 18.4639 6.47973 18.432 6.44277C18.4 6.40578 18.3677 6.3691 18.3351 6.3327C18.3026 6.29628 18.2697 6.26016 18.2365 6.2243C18.2032 6.18845 18.1697 6.15289 18.1359 6.11762C18.1021 6.08234 18.068 6.04737 18.0336 6.01269C17.9991 5.978 17.9644 5.94359 17.9294 5.90952C17.8944 5.87541 17.8591 5.84162 17.8235 5.80815C17.7879 5.77466 17.7521 5.74147 17.7159 5.70861C17.6798 5.67575 17.6433 5.6432 17.6066 5.61095C17.5699 5.5787 17.5329 5.54675 17.4956 5.51516C17.4584 5.48354 17.4208 5.45225 17.383 5.42129C17.3452 5.39033 17.3071 5.3597 17.2688 5.32939C17.2305 5.29906 17.1919 5.26909 17.1531 5.23944C17.1142 5.20979 17.0751 5.18047 17.0358 5.1515C16.9964 5.12251 16.9569 5.09387 16.917 5.06558C16.8772 5.03727 16.8371 5.00933 16.7968 4.98172C16.7565 4.95411 16.7159 4.92683 16.6751 4.89992C16.6343 4.87302 16.5933 4.84644 16.5521 4.82023C16.5109 4.79403 16.4694 4.76818 16.4277 4.74268C16.386 4.71718 16.3441 4.69203 16.302 4.66726L16.302 10.4678L16.302 10.4675ZM12 22C6.47727 22 2 17.5228 2 12C2 6.47727 6.47727 2 12 2C17.5228 2 22 6.47727 22 12C22 17.5228 17.5228 22 12 22Z"   fill="#000000" ></path></svg>