<svg xmlns="http://www.w3.org/2000/svg" xmlns:xlink="http://www.w3.org/1999/xlink" width="16" height="16" viewBox="0 0 16 16" fill="none">
<path d="M12.2961 5.38408L9.74406 5.38408L9.74406 2.33608C9.74406 1.64008 9.17606 1.08008 8.46406 1.08008C7.76006 1.08008 7.18406 1.64008 7.18406 2.33608L7.18406 5.38408L4.77606 5.38408C4.07206 5.38408 3.50406 5.93608 3.49606 6.62408L3.49606 7.74408L13.5601 7.74408L13.5601 6.64008C13.5601 5.95208 13.0001 5.38408 12.2961 5.38408C12.3041 5.38408 12.2961 5.38408 12.2961 5.38408ZM13.8321 11.5121C13.8321 13.5841 13.4001 14.9121 13.2081 14.9121L10.7681 14.9121C10.9601 14.5121 11.1041 14.0961 11.2161 13.6641C11.3521 13.1441 11.4161 12.6081 11.4241 12.0721C11.4321 11.7681 11.2001 11.5201 10.8881 11.5121C10.8561 11.5121 10.8241 11.5121 10.8001 11.5201C10.5281 11.5761 10.3361 11.8161 10.3441 12.0881C10.3361 13.0881 10.0561 14.0641 9.52006 14.9201L6.03206 14.9201C6.28806 14.5201 6.50406 14.0961 6.68006 13.6561C6.87206 13.1761 7.00806 12.6801 7.08806 12.1761C7.14406 11.8721 6.94406 11.5761 6.63206 11.5201C6.60806 11.5121 6.57606 11.5121 6.55206 11.5121C6.28006 11.5201 6.05606 11.7201 6.01606 11.9841C5.94406 12.4081 5.83206 12.8161 5.67206 13.2161C5.44006 13.8481 5.07206 14.4321 4.60006 14.9201L1.60006 14.9201C1.57606 14.9201 1.56006 14.8961 1.56006 14.8721C1.56006 14.8641 1.56006 14.8561 1.56806 14.8561C2.18406 13.8961 2.65606 12.8561 2.96806 11.7681C3.28006 10.7041 3.45606 9.60808 3.49606 8.49608L13.5681 8.49608C13.7761 9.48808 13.8641 10.5041 13.8321 11.5121Z"   fill="currentColor" >
</path>
</svg>
