<svg t="1742814107994" class="icon" viewBox="0 0 1024 1024" version="1.1" xmlns="http://www.w3.org/2000/svg" p-id="11496" width="200" height="200"><path d="M269.318491 304.432455c-14.266971 0-27.683944-6.499987-35.137929-17.085966-62.395874-88.95882-30.026939-205.221585 71.980854-259.636475s235.319524-26.187947 297.715398 62.772873c41.953915 59.801879 42.378914 135.018727 1.065998 195.378605-11.286977 17.270965-36.415926 23.214953-56.221886 13.185973-19.80396-9.84298-26.618946-31.757936-15.11997-49.0309 0.213-0.370999 0.426999-0.740999 0.851999-1.112998 38.118923-55.530888 17.250965-127.403742-46.424907-160.647675s-146.089705-15.04397-184.208627 40.486918c-25.554948 37.330925-25.341949 83.94583 0.638999 121.088755 11.925976 16.900966 5.749988 39.000921-13.629973 49.4019-6.497987 3.396993-13.930972 5.19399-21.507956 5.19999h-0.001z m580.512826 125.165747c35.633928 0 64.31087 30.755938 64.31087 68.152862v289.322415c0 74.798849-24.037951 133.080731-71.057856 173.516649-49.129901 42.145915-122.085753 63.408872-216.759562 63.408872-74.43085 0-129.886737-14.428971-180.069636-46.700906-47.020905-30.374939-86.449825-74.22885-136.421724-129.663737-21.930956-24.298951-46.599906-51.826895-74.43385-80.682837L128.706775 656.082744c-25.512948-26.388947-25.512948-71.001856 0-97.388803 12.019976-12.529975 28.046943-19.364961 44.913909-19.364961s32.892934 6.834986 44.910909 19.364961l102.264794 106.121785c1.854996 2.056996 4.646991 3.243993 7.589984 3.227994h0.212c5.691988 0 10.331979-3.986992 10.331979-9.112982V197.232671c0-31.514936 28.043943-57.902883 62.411874-58.851881h1.897996c35.423928 0.191 64.31087 26.007947 64.31087 57.901883v333.176327c0 4.93499 4.427991 9.111982 10.120979 9.111981 5.481989 0 10.11998-3.984992 10.11998-9.111981V390.87228c0-37.589924 28.886942-68.153862 64.31087-68.153862s64.31187 30.564938 64.31187 68.153862v180.920634c0 4.93699 4.426991 9.112982 10.119979 9.112982 5.482989 0 10.12098-3.986992 10.12098-9.112982v-120.739756c0-37.589924 28.885942-68.153862 64.31087-68.153862s64.31087 30.564938 64.31087 68.153862v152.633692c0 4.93699 4.427991 9.112982 10.12098 9.112981 5.481989 0 10.12098-3.986992 10.120979-9.112981V497.755064c0-37.589924 28.886942-68.153862 64.31087-68.153862z" fill="currentColor" p-id="11497"></path></svg>