<svg t="1727595728359" class="icon" viewBox="0 0 1024 1024" version="1.1" xmlns="http://www.w3.org/2000/svg" p-id="4248" width="256" height="256"><path d="M643.35 162.15h222.06v222.06H643.35V162.15m-52-64a12 12 0 0 0-12 12v326.06a12 12 0 0 0 12 12h326.06a12 12 0 0 0 12-12V110.15a12 12 0 0 0-12-12zM162 643.35h222.06v222.06H162V643.35m-52-64a12 12 0 0 0-12 12v326.06a12 12 0 0 0 12 12h326.06a12 12 0 0 0 12-12V591.35a12 12 0 0 0-12-12zM183.47 224.28h103.72A441.43 441.43 0 0 0 99.3 474a31.93 31.93 0 0 0 30.61 40.92h0.38a32 32 0 0 0 30.71-23.1C201.71 353.39 320.46 245.32 468.52 224a32 32 0 0 0 27.36-33.84c-1.15-16.91-15.66-29.83-32.61-29.83H182.81a32 32 0 0 0-32 32.9c0.49 17.38 15.19 31.05 32.66 31.05zM843.94 805.53H740.22a441.43 441.43 0 0 0 187.89-249.7 31.94 31.94 0 0 0-30.61-40.93h-0.38a32 32 0 0 0-30.66 23.1C825.7 676.42 707 784.49 558.89 805.86a32 32 0 0 0-27.36 33.84c1.15 16.91 15.66 29.83 32.61 29.83H844.6a32 32 0 0 0 32-32.9c-0.49-17.43-15.23-31.1-32.66-31.1z" p-id="4249"></path></svg>