<svg xmlns="http://www.w3.org/2000/svg" xmlns:xlink="http://www.w3.org/1999/xlink" width="19" height="19" viewBox="0 0 19 19" >
<path d="M10.2349 0.0902509C10.1693 0.075225 10.1033 0.0620613 10.037 0.0507601C9.9706 0.0394584 9.90394 0.0300378 9.83702 0.0224983C9.7701 0.0149586 9.70302 0.00931245 9.63578 0.00555976C9.56852 0.00180709 9.50121 -4.588e-05 9.43386 8.60978e-07C9.22025 8.60978e-07 9.00058 0.0166259 8.7724 0.0486884C8.54424 0.0819384 8.31728 0.143688 8.09032 0.2375C8.03061 0.262211 7.97176 0.288763 7.91379 0.317155C7.85582 0.345549 7.79883 0.375729 7.74283 0.407691C7.68683 0.439653 7.63193 0.473336 7.57814 0.508734C7.52434 0.544137 7.47175 0.581183 7.42038 0.619875C7.20313 0.782562 7.0053 0.993937 6.82932 1.25281C6.80438 1.28761 6.78022 1.32292 6.75684 1.35874C6.73348 1.39456 6.71091 1.43087 6.68916 1.46765C6.66741 1.50444 6.64647 1.54167 6.62639 1.57935C6.60629 1.61702 6.58704 1.65511 6.56863 1.69361C6.55023 1.7321 6.53269 1.77098 6.51602 1.81022C6.49935 1.84947 6.48356 1.88905 6.46865 1.92896C6.45375 1.96887 6.43973 2.0091 6.42661 2.04961C6.41349 2.09013 6.40127 2.13091 6.38997 2.17194C6.36657 2.25384 6.34474 2.33613 6.32447 2.41883C6.3042 2.50152 6.28548 2.58456 6.26836 2.66792C6.25123 2.75129 6.23568 2.83495 6.22175 2.91887C6.20779 3.00282 6.19542 3.08698 6.18467 3.17137C6.17392 3.25573 6.16476 3.34029 6.15719 3.42501C6.14963 3.50973 6.14369 3.59456 6.13935 3.67949C6.13501 3.76441 6.13229 3.84939 6.13118 3.93443C6.13006 4.01946 6.13057 4.10448 6.13267 4.1895C6.11291 4.21071 6.09423 4.23281 6.07662 4.25578C6.05902 4.27875 6.04258 4.3025 6.02731 4.32701C6.01205 4.35152 5.99799 4.3767 5.98517 4.40253C5.97237 4.42835 5.96084 4.45472 5.95062 4.48162C5.91421 4.57425 5.88994 4.68587 5.87538 4.81412C5.87388 4.8324 5.87289 4.85071 5.87242 4.86905C5.87194 4.88738 5.872 4.90571 5.87255 4.92402C5.8731 4.94236 5.87416 4.96065 5.87574 4.97893C5.87731 4.9972 5.87941 5.01542 5.88201 5.03359C5.88461 5.05175 5.88772 5.06983 5.89132 5.08781C5.89495 5.1058 5.89906 5.12369 5.90367 5.14147C5.90828 5.15922 5.9134 5.17687 5.91901 5.19437C5.9246 5.21186 5.93069 5.22921 5.93727 5.24637C5.94556 5.2786 5.95531 5.31041 5.96651 5.34178C5.97772 5.37316 5.99035 5.404 6.0044 5.43426C6.01844 5.46452 6.03383 5.49412 6.0506 5.52302C6.06736 5.55193 6.08542 5.58004 6.10476 5.60737C6.15816 5.67862 6.21884 5.74394 6.28681 5.80212C6.31605 5.82372 6.34698 5.8427 6.37958 5.85905C6.4122 5.8754 6.44601 5.88889 6.481 5.8995C6.52712 6.05744 6.57445 6.20587 6.62057 6.34481C6.66669 6.46475 6.71766 6.5835 6.77349 6.69987C6.78483 6.72542 6.79744 6.75036 6.81132 6.77467C6.82522 6.79899 6.84032 6.82256 6.85663 6.84538C6.87292 6.86822 6.89034 6.89019 6.90891 6.91132C6.92748 6.93246 6.94706 6.95261 6.96768 6.97181C7.12545 7.10125 7.2711 7.22831 7.39974 7.35419C7.40813 7.36263 7.4163 7.37124 7.42426 7.38005C7.43225 7.38885 7.44 7.39783 7.44757 7.40697C7.45514 7.41612 7.46248 7.42542 7.46961 7.4349C7.47672 7.44438 7.48362 7.45401 7.4903 7.46379C7.49697 7.47357 7.50342 7.48349 7.50964 7.49357C7.51586 7.50364 7.52183 7.51383 7.52758 7.52417C7.53332 7.5345 7.53882 7.54497 7.54408 7.55554C7.54933 7.56612 7.55434 7.57681 7.5591 7.5876C7.56386 7.59842 7.56835 7.60931 7.5726 7.62032C7.57685 7.63132 7.58085 7.64242 7.58458 7.6536C7.58832 7.66479 7.59179 7.67604 7.59499 7.68737C7.5982 7.69871 7.60116 7.7101 7.60383 7.72157C7.6065 7.73304 7.60893 7.74456 7.61107 7.75614C7.61322 7.76771 7.6151 7.77933 7.61669 7.79098C7.6183 7.80263 7.61963 7.81432 7.62069 7.82605C7.62175 7.83776 7.62255 7.8495 7.62306 7.86125C7.63156 7.99544 7.63641 8.13081 7.63762 8.265C7.6376 8.29478 7.63613 8.32447 7.63315 8.3541C7.63017 8.38373 7.62573 8.41314 7.61984 8.44234C7.61394 8.47155 7.60658 8.5004 7.59778 8.5289C7.589 8.5574 7.57882 8.58542 7.56723 8.61294C7.55373 8.64364 7.5389 8.67372 7.52272 8.70317C7.50655 8.73261 7.48912 8.76132 7.4704 8.78928C7.45169 8.81724 7.43176 8.84437 7.41065 8.87064C7.38952 8.89692 7.36728 8.92224 7.34392 8.94662C7.311 8.98034 7.27696 9.01292 7.24178 9.04441C7.20662 9.07588 7.17042 9.10616 7.13317 9.13525C7.09593 9.16434 7.05774 9.19218 7.01858 9.21877C6.97942 9.24535 6.93938 9.27061 6.8985 9.29456C6.83203 9.33564 6.76403 9.37409 6.69445 9.40992C6.62487 9.44573 6.55397 9.47879 6.48172 9.50913C6.40947 9.53945 6.3361 9.56693 6.26163 9.59157C6.18716 9.61623 6.11181 9.63795 6.03558 9.65675C5.71032 9.73987 5.39719 9.83487 5.09499 9.94175C4.79157 10.0486 4.52942 10.1911 4.30125 10.374C4.07429 10.5545 3.93714 10.8169 3.88981 11.1601C3.79757 11.7634 3.77573 12.2538 3.8267 12.635C3.87889 13.015 3.9505 13.2418 4.04273 13.3154C4.09856 13.3629 4.23328 13.4104 4.44689 13.4556C4.7054 13.5102 4.96634 13.5565 5.22728 13.5945C5.5671 13.6456 5.90936 13.6895 6.25161 13.7263C6.99711 13.8088 7.74433 13.8718 8.49326 13.9151C8.85129 13.9341 9.16442 13.9424 9.43264 13.9424C9.70329 13.9424 10.0213 13.9341 10.3878 13.9151C11.17 13.8762 11.95 13.8113 12.7278 13.7204C13.1222 13.6729 13.4802 13.6206 13.8006 13.5612C14.121 13.4995 14.3905 13.4377 14.6077 13.3724C14.8262 13.3071 14.9597 13.2418 15.0046 13.1777C15.0239 13.1433 15.0415 13.1081 15.0575 13.072C15.0733 13.036 15.0875 12.9993 15.0998 12.9619C15.1121 12.9245 15.1226 12.8867 15.1312 12.8483C15.1398 12.81 15.1466 12.7714 15.1515 12.7324C15.1842 12.5376 15.2 12.3286 15.2 12.1054C15.2 11.8833 15.1879 11.6636 15.1648 11.4451C15.1566 11.3521 15.1439 11.2597 15.1267 11.1678C15.1094 11.076 15.0878 10.9851 15.0616 10.8953C15.0571 10.8807 15.0523 10.8661 15.0471 10.8516C15.042 10.8371 15.0366 10.8228 15.0309 10.8085C15.0252 10.7942 15.0191 10.7801 15.0128 10.7661C15.0066 10.7521 15 10.7382 14.9931 10.7244C14.9863 10.7106 14.9791 10.697 14.9717 10.6835C14.9643 10.67 14.9566 10.6567 14.9487 10.6435C14.9407 10.6303 14.9325 10.6172 14.924 10.6044C14.9155 10.5915 14.9068 10.5788 14.8978 10.5662C14.8888 10.5537 14.8795 10.5414 14.87 10.5292C14.8605 10.517 14.8508 10.505 14.8408 10.4932C14.8308 10.4815 14.8206 10.4699 14.8101 10.4585C14.7996 10.4471 14.7889 10.4359 14.778 10.4249C14.7671 10.4139 14.7559 10.4032 14.7446 10.3926C14.7332 10.3821 14.7217 10.3718 14.7099 10.3617C14.6981 10.3516 14.6861 10.3417 14.674 10.3321C14.6618 10.3225 14.6494 10.3131 14.6369 10.3039C14.5838 10.2663 14.5295 10.2305 14.474 10.1964C14.4185 10.1624 14.3618 10.1303 14.3041 10.1C14.2464 10.0697 14.1876 10.0414 14.1279 10.0149C14.0682 9.98854 14.0077 9.96414 13.9463 9.94175C13.6834 9.84387 13.4164 9.75837 13.1453 9.68525C12.8874 9.61608 12.6346 9.53256 12.3867 9.43469C12.3313 9.41487 12.277 9.39266 12.2236 9.36806C12.1703 9.34347 12.1182 9.31659 12.0673 9.28742C12.0164 9.25825 11.967 9.22691 11.919 9.1934C11.871 9.15987 11.8246 9.12432 11.7799 9.08675C11.7469 9.05795 11.7155 9.02769 11.6855 8.99596C11.6555 8.96423 11.6271 8.93119 11.6003 8.8968C11.5735 8.86242 11.5485 8.82689 11.5251 8.79019C11.5018 8.75347 11.4803 8.71577 11.4607 8.67706C11.444 8.64324 11.429 8.60874 11.4156 8.57356C11.4022 8.53836 11.3905 8.50265 11.3805 8.46639C11.3705 8.43014 11.3623 8.39351 11.3558 8.35649C11.3494 8.31948 11.3447 8.28225 11.3417 8.24481C11.3332 8.10112 11.3417 7.95981 11.3697 7.82087C11.4073 7.58812 11.4813 7.42425 11.593 7.32569C11.7341 7.20436 11.8781 7.08641 12.025 6.97181C12.0459 6.95244 12.0659 6.93216 12.0849 6.91099C12.1039 6.8898 12.1218 6.86779 12.1387 6.84499C12.1556 6.82219 12.1714 6.79868 12.186 6.77443C12.2007 6.75018 12.2142 6.72533 12.2265 6.69987C12.2872 6.58469 12.3394 6.46594 12.3867 6.34481C12.434 6.20587 12.479 6.05744 12.5263 5.90069C12.5509 5.89282 12.575 5.88364 12.5986 5.87315C12.6222 5.86267 12.6451 5.85092 12.6674 5.83793C12.6896 5.82495 12.7111 5.81079 12.7317 5.79548C12.7524 5.78017 12.7721 5.76377 12.7909 5.74631C12.8117 5.72702 12.8316 5.70683 12.8506 5.68573C12.8695 5.66463 12.8875 5.64274 12.9044 5.62005C12.9213 5.59734 12.9371 5.57392 12.9518 5.54978C12.9664 5.52564 12.98 5.50091 12.9923 5.47556C13.0095 5.43899 13.025 5.40173 13.0386 5.36377C13.0523 5.32581 13.0641 5.28731 13.074 5.24825C13.084 5.20921 13.0921 5.1698 13.0983 5.13C13.1046 5.09022 13.1089 5.05023 13.1113 5.01006C13.116 4.97887 13.1194 4.94753 13.1215 4.91606C13.1235 4.88458 13.1243 4.85307 13.1237 4.82155C13.1231 4.79002 13.1211 4.75855 13.1178 4.72718C13.1146 4.6958 13.1099 4.66463 13.104 4.63362C13.0949 4.59015 13.0828 4.54753 13.0676 4.50576C13.0523 4.464 13.0341 4.42349 13.013 4.38425C13.0043 4.36633 12.9945 4.34898 12.9836 4.33222C12.9728 4.31547 12.9609 4.29944 12.948 4.28413C12.9351 4.26882 12.9213 4.25433 12.9066 4.24069C12.8919 4.22705 12.8764 4.21434 12.86 4.20256C12.86 3.82256 12.8358 3.44612 12.7909 3.07444C12.7651 2.90145 12.7325 2.72973 12.693 2.55927C12.6535 2.3888 12.6072 2.22011 12.5542 2.05319C12.5403 2.00867 12.5254 1.9645 12.5094 1.92067C12.4934 1.87684 12.4763 1.8334 12.4582 1.79036C12.4401 1.74732 12.421 1.70472 12.4008 1.66257C12.3806 1.62042 12.3594 1.57875 12.3373 1.53758C12.3151 1.49641 12.2919 1.45577 12.2678 1.41567C12.2436 1.37557 12.2185 1.33606 12.1925 1.29712C12.1664 1.25818 12.1394 1.21987 12.1115 1.18218C12.0836 1.1445 12.0548 1.10748 12.025 1.07112C11.9219 0.941687 11.7811 0.811062 11.6003 0.681625C11.4182 0.552187 11.2119 0.435812 10.9801 0.333687C10.8602 0.281428 10.738 0.234964 10.6135 0.194295C10.489 0.153628 10.3628 0.118947 10.2349 0.0902515L10.2349 0.0902509ZM12.4692 15.8234C15.592 15.238 17.813 13.7607 17.813 12.0282C17.813 11.0616 17.1212 10.1745 15.9683 9.47625L16.7863 8.67587C18.1674 9.58312 19 10.7528 19 12.0282C19 14.345 16.2607 16.3067 12.4692 16.9931L12.4692 15.8234ZM10.9849 16.6761L8.31242 19L8.31242 17.1831C3.76238 16.7912 0 14.6383 0 12.0294C0 10.8537 0.712424 9.77431 1.89818 8.90269L2.67978 9.70781C1.74162 10.3657 1.18697 11.1649 1.18697 12.0282C1.18697 14.0256 4.41776 15.6786 8.31242 16.0217L8.31242 14.3521L10.9849 16.6761Z"   fill="currentColor" >
</path>
</svg>
