<svg xmlns="http://www.w3.org/2000/svg" width="14" height="14" viewBox="0 0 14 14" fill="none">
  <path opacity="0.8" d="M5.25 1.75H2.91667C2.27233 1.75 1.75 2.27233 1.75 2.91667V5.25C1.75 5.89433 2.27233 6.41667 2.91667 6.41667H5.25C5.89433 6.41667 6.41667 5.89433 6.41667 5.25V2.91667C6.41667 2.27233 5.89433 1.75 5.25 1.75Z" fill="currentColor"/>
  <path opacity="0.5" d="M5.25 7.58594H2.91667C2.27233 7.58594 1.75 8.10827 1.75 8.7526V11.0859C1.75 11.7303 2.27233 12.2526 2.91667 12.2526H5.25C5.89433 12.2526 6.41667 11.7303 6.41667 11.0859V8.7526C6.41667 8.10827 5.89433 7.58594 5.25 7.58594Z" fill="currentColor"/>
  <path opacity="0.5" d="M12.2497 3.5H7.58301V4.66667H12.2497V3.5Z" fill="currentColor"/>
  <path opacity="0.8" d="M12.2497 9.33594H7.58301V10.5026H12.2497V9.33594Z" fill="currentColor"/>
</svg>