<svg xmlns="http://www.w3.org/2000/svg" width="14" height="14" viewBox="0 0 14 14" fill="none">
  <path opacity="0.2" d="M4.47324 10.3159H9.13096V12.0528C9.13096 12.5739 8.70466 13.0002 8.18363 13.0002H1.78913C1.2681 13.0002 0.841797 12.5739 0.841797 12.0528V5.65796C0.841797 5.13689 1.2681 4.71057 1.78913 4.71057H3.52591V9.36855C3.52591 9.88962 3.95221 10.3159 4.47324 10.3159Z" fill="white"/>
  <path opacity="0.5" d="M13.0001 1.94739V8.34224C13.0001 8.8633 12.5738 9.28963 12.0528 9.28963H5.65827C5.13724 9.28963 4.71094 8.8633 4.71094 8.34224V1.94739C4.71094 1.42632 5.13724 1 5.65827 1H12.0528C12.5738 1 13.0001 1.42632 13.0001 1.94739Z" fill="white"/>
</svg>