<svg xmlns="http://www.w3.org/2000/svg" xmlns:xlink="http://www.w3.org/1999/xlink" width="10" height="10" viewBox="0 0 10 10" fill="none">
<path     fill="#FFFFFF"  d="M2.945 2.62922L2.925 2.62922L2.905 2.63922L2.895 2.63922L2.875 2.64922L2.855 2.64922L2.835 2.65922L2.825 2.66922L2.805 2.67922L2.795 2.68922L2.775 2.69922L2.765 2.70922L2.745 2.71922L2.735 2.73922L2.725 2.74922L2.715 2.75922L2.695 2.77922L2.685 2.78922L2.675 2.80922L2.665 2.81922L2.665 2.83922L2.655 2.85922L2.645 2.86922L2.645 2.88922L2.635 2.90922L2.635 2.92922L2.625 2.94922L2.625 2.95922L2.625 2.97922L2.625 2.99922L2.625 6.99922L2.625 7.01922L2.625 7.03922L2.625 7.05922L2.635 7.06922L2.635 7.08922L2.645 7.10922L2.645 7.12922L2.655 7.13922L2.665 7.15922L2.665 7.17922L2.675 7.18922L2.685 7.20922L2.695 7.21922L2.715 7.23922L2.725 7.24922L2.735 7.26922L2.745 7.27922L2.765 7.28922L2.775 7.29922L2.795 7.30922L2.805 7.31922L2.825 7.32922L2.835 7.33922L2.855 7.34922L2.875 7.34922L2.895 7.35922L2.905 7.35922L2.925 7.36922L2.945 7.36922L2.965 7.36922L2.985 7.37922L2.995 7.37922L3.015 7.37922L3.035 7.36922L3.055 7.36922L3.075 7.36922L3.095 7.35922L3.105 7.35922L3.125 7.34922L3.145 7.34922L3.165 7.33922L3.175 7.32922L3.195 7.31922L3.205 7.30922L3.225 7.29922L3.235 7.28922L3.255 7.27922L3.265 7.26922L3.275 7.24922L3.285 7.23922L3.305 7.21922L3.315 7.20922L3.325 7.18922L3.335 7.17922L3.335 7.15922L3.345 7.13922L3.355 7.12922L3.355 7.10922L3.365 7.08922L3.365 7.06922L3.375 7.05922L3.375 7.03922L3.375 7.01922L3.375 6.99922L3.375 2.99922L3.375 2.97922L3.375 2.95922L3.375 2.94922L3.365 2.92922L3.365 2.90922L3.355 2.88922L3.355 2.86922L3.345 2.85922L3.335 2.83922L3.335 2.81922L3.325 2.80922L3.315 2.78922L3.305 2.77922L3.285 2.75922L3.275 2.74922L3.265 2.73922L3.255 2.71922L3.235 2.70922L3.225 2.69922L3.205 2.68922L3.195 2.67922L3.175 2.66922L3.165 2.65922L3.145 2.64922L3.125 2.64922L3.105 2.63922L3.095 2.63922L3.075 2.62922L3.055 2.62922L3.035 2.62922L3.015 2.62922L2.995 2.62922L2.985 2.62922L2.965 2.62922L2.945 2.62922Z">
</path>
<path     fill="#FFFFFF"  d="M8.215 0.249222L8.205 0.249222L8.205 0.259222L8.195 0.259222L8.185 0.259222L8.175 0.259222L8.165 0.269222L8.155 0.269222L8.155 0.279222L8.145 0.279222L8.135 0.279222L8.135 0.289222L8.125 0.289222L8.125 0.299222L8.115 0.299222L8.115 0.309222L8.105 0.309222L8.105 0.319222L8.095 0.319222L8.095 0.329222L8.085 0.329222L8.085 0.339222L8.075 0.349222L8.075 0.359222L7.695 1.10922L7.695 1.11922L7.685 1.13922L7.675 1.14922L7.665 1.15922L7.645 1.16922L7.635 1.17922L7.625 1.18922L7.605 1.19922L6.855 1.56922L6.845 1.57922L6.835 1.58922L6.825 1.58922L6.815 1.59922L6.805 1.60922L6.795 1.61922L6.795 1.62922L6.785 1.62922L6.785 1.63922L6.775 1.64922L6.775 1.65922L6.765 1.65922L6.765 1.66922L6.765 1.67922L6.755 1.68922L6.755 1.69922L6.755 1.70922L6.755 1.71922L6.755 1.72922L6.745 1.73922L6.745 1.74922L6.745 1.75922L6.755 1.76922L6.755 1.77922L6.755 1.78922L6.755 1.79922L6.755 1.80922L6.765 1.81922L6.765 1.82922L6.765 1.83922L6.775 1.83922L6.775 1.84922L6.775 1.85922L6.785 1.85922L6.785 1.86922L6.795 1.86922L6.795 1.87922L6.805 1.88922L6.815 1.89922L6.825 1.90922L6.835 1.90922L6.835 1.91922L6.845 1.91922L6.855 1.92922L7.605 2.29922L7.625 2.30922L7.635 2.31922L7.645 2.32922L7.665 2.33922L7.675 2.34922L7.685 2.35922L7.695 2.37922L7.695 2.38922L8.075 3.13922L8.075 3.14922L8.085 3.15922L8.085 3.16922L8.095 3.17922L8.105 3.18922L8.115 3.19922L8.125 3.20922L8.135 3.20922L8.135 3.21922L8.145 3.21922L8.155 3.22922L8.165 3.22922L8.175 3.23922L8.185 3.23922L8.195 3.23922L8.205 3.24922L8.215 3.24922L8.225 3.24922L8.235 3.24922L8.245 3.24922L8.255 3.24922L8.265 3.24922L8.275 3.24922L8.285 3.24922L8.295 3.24922L8.305 3.23922L8.315 3.23922L8.325 3.23922L8.335 3.22922L8.345 3.22922L8.355 3.21922L8.365 3.21922L8.365 3.20922L8.375 3.20922L8.385 3.19922L8.395 3.18922L8.405 3.17922L8.415 3.16922L8.415 3.15922L8.425 3.14922L8.425 3.13922L8.805 2.38922L8.805 2.37922L8.815 2.36922L8.825 2.34922L8.835 2.33922L8.855 2.32922L8.865 2.31922L8.875 2.30922L8.895 2.29922L9.635 1.92922L9.645 1.92922L9.655 1.91922L9.665 1.91922L9.665 1.90922L9.675 1.90922L9.685 1.89922L9.695 1.88922L9.705 1.87922L9.705 1.86922L9.715 1.86922L9.715 1.85922L9.725 1.85922L9.725 1.84922L9.725 1.83922L9.735 1.83922L9.735 1.82922L9.735 1.81922L9.745 1.80922L9.745 1.79922L9.745 1.78922L9.745 1.77922L9.745 1.76922L9.755 1.75922L9.755 1.74922L9.755 1.73922L9.745 1.72922L9.745 1.71922L9.745 1.70922L9.745 1.69922L9.745 1.68922L9.735 1.67922L9.735 1.66922L9.735 1.65922L9.725 1.65922L9.725 1.64922L9.715 1.63922L9.715 1.62922L9.705 1.62922L9.705 1.61922L9.695 1.60922L9.685 1.59922L9.675 1.58922L9.665 1.58922L9.655 1.57922L9.645 1.56922L9.635 1.56922L8.895 1.19922L8.875 1.18922L8.865 1.17922L8.855 1.16922L8.835 1.15922L8.825 1.14922L8.815 1.13922L8.805 1.11922L8.805 1.10922L8.425 0.359222L8.425 0.349222L8.415 0.339222L8.415 0.329222L8.405 0.329222L8.405 0.319222L8.395 0.319222L8.395 0.309222L8.385 0.309222L8.385 0.299222L8.375 0.299222L8.375 0.289222L8.365 0.289222L8.365 0.279222L8.355 0.279222L8.345 0.279222L8.345 0.269222L8.335 0.269222L8.325 0.259222L8.315 0.259222L8.305 0.259222L8.295 0.259222L8.295 0.249222L8.285 0.249222L8.275 0.249222L8.265 0.249222L8.255 0.249222L8.245 0.249222L8.235 0.249222L8.225 0.249222L8.215 0.249222Z">
</path>
<path     fill="#80B2FD"  d="M6.945 3.62922L6.925 3.62922L6.905 3.63922L6.895 3.63922L6.875 3.64922L6.855 3.64922L6.835 3.65922L6.825 3.66922L6.805 3.67922L6.795 3.68922L6.775 3.69922L6.765 3.70922L6.745 3.71922L6.735 3.73922L6.725 3.74922L6.715 3.75922L6.695 3.77922L6.685 3.78922L6.675 3.80922L6.665 3.81922L6.665 3.83922L6.655 3.85922L6.645 3.86922L6.645 3.88922L6.635 3.90922L6.635 3.92922L6.625 3.94922L6.625 3.95922L6.625 3.97922L6.625 3.99922L6.625 6.99922L6.625 7.01922L6.625 7.03922L6.625 7.05922L6.635 7.06922L6.635 7.08922L6.645 7.10922L6.645 7.12922L6.655 7.13922L6.665 7.15922L6.665 7.17922L6.675 7.18922L6.685 7.20922L6.695 7.21922L6.715 7.23922L6.725 7.24922L6.735 7.26922L6.745 7.27922L6.765 7.28922L6.775 7.29922L6.795 7.30922L6.805 7.31922L6.825 7.32922L6.835 7.33922L6.855 7.34922L6.875 7.34922L6.895 7.35922L6.905 7.35922L6.925 7.36922L6.945 7.36922L6.965 7.36922L6.985 7.37922L6.995 7.37922L7.015 7.37922L7.035 7.36922L7.055 7.36922L7.075 7.36922L7.095 7.35922L7.105 7.35922L7.125 7.34922L7.145 7.34922L7.165 7.33922L7.175 7.32922L7.195 7.31922L7.205 7.30922L7.225 7.29922L7.235 7.28922L7.255 7.27922L7.265 7.26922L7.275 7.24922L7.285 7.23922L7.305 7.21922L7.315 7.20922L7.325 7.18922L7.335 7.17922L7.335 7.15922L7.345 7.13922L7.355 7.12922L7.355 7.10922L7.365 7.08922L7.365 7.06922L7.375 7.05922L7.375 7.03922L7.375 7.01922L7.375 6.99922L7.375 3.99922L7.375 3.97922L7.375 3.95922L7.375 3.94922L7.365 3.92922L7.365 3.90922L7.355 3.88922L7.355 3.86922L7.345 3.85922L7.335 3.83922L7.335 3.81922L7.325 3.80922L7.315 3.78922L7.305 3.77922L7.285 3.75922L7.275 3.74922L7.265 3.73922L7.255 3.71922L7.235 3.70922L7.225 3.69922L7.205 3.68922L7.195 3.67922L7.175 3.66922L7.165 3.65922L7.145 3.64922L7.125 3.64922L7.105 3.63922L7.095 3.63922L7.075 3.62922L7.055 3.62922L7.035 3.62922L7.015 3.62922L6.995 3.62922L6.985 3.62922L6.965 3.62922L6.945 3.62922Z">
</path>
<path     fill="#FFFFFF"  d="M4.945 0.629222L4.925 0.629222L4.905 0.639222L4.895 0.639222L4.875 0.649222L4.855 0.649222L4.835 0.659222L4.825 0.669222L4.805 0.679222L4.795 0.689222L4.775 0.699222L4.765 0.709222L4.745 0.719222L4.735 0.739222L4.725 0.749222L4.715 0.759222L4.695 0.779222L4.685 0.789222L4.675 0.809222L4.665 0.819222L4.665 0.839222L4.655 0.859222L4.645 0.869222L4.645 0.889222L4.635 0.909222L4.635 0.929222L4.625 0.949222L4.625 0.959222L4.625 0.979222L4.625 0.999222L4.625 8.99922L4.625 9.01922L4.625 9.03922L4.625 9.05922L4.635 9.06922L4.635 9.08922L4.645 9.10922L4.645 9.12922L4.655 9.13922L4.665 9.15922L4.665 9.17922L4.675 9.18922L4.685 9.20922L4.695 9.21922L4.715 9.23922L4.725 9.24922L4.735 9.26922L4.745 9.27922L4.765 9.28922L4.775 9.29922L4.795 9.30922L4.805 9.31922L4.825 9.32922L4.835 9.33922L4.855 9.34922L4.875 9.34922L4.895 9.35922L4.905 9.35922L4.925 9.36922L4.945 9.36922L4.965 9.36922L4.985 9.37922L4.995 9.37922L5.015 9.37922L5.035 9.36922L5.055 9.36922L5.075 9.36922L5.095 9.35922L5.105 9.35922L5.125 9.34922L5.145 9.34922L5.165 9.33922L5.175 9.32922L5.195 9.31922L5.205 9.30922L5.225 9.29922L5.235 9.28922L5.255 9.27922L5.265 9.26922L5.275 9.24922L5.285 9.23922L5.305 9.21922L5.315 9.20922L5.325 9.18922L5.335 9.17922L5.335 9.15922L5.345 9.13922L5.355 9.12922L5.355 9.10922L5.365 9.08922L5.365 9.06922L5.375 9.05922L5.375 9.03922L5.375 9.01922L5.375 8.99922L5.375 0.999222L5.375 0.979222L5.375 0.959222L5.375 0.949222L5.365 0.929222L5.365 0.909222L5.355 0.889222L5.355 0.869222L5.345 0.859222L5.335 0.839222L5.335 0.819222L5.325 0.809222L5.315 0.789222L5.305 0.779222L5.285 0.759222L5.275 0.749222L5.265 0.739222L5.255 0.719222L5.235 0.709222L5.225 0.699222L5.205 0.689222L5.195 0.679222L5.175 0.669222L5.165 0.659222L5.145 0.649222L5.125 0.649222L5.105 0.639222L5.095 0.639222L5.075 0.629222L5.055 0.629222L5.035 0.629222L5.015 0.629222L4.995 0.629222L4.985 0.629222L4.965 0.629222L4.945 0.629222Z">
</path>
<path     fill="#80B2FD"  d="M0.945 3.62922L0.925 3.62922L0.905 3.63922L0.895 3.63922L0.875 3.64922L0.855 3.64922L0.835 3.65922L0.825 3.66922L0.805 3.67922L0.795 3.68922L0.775 3.69922L0.765 3.70922L0.745 3.71922L0.735 3.73922L0.725 3.74922L0.715 3.75922L0.695 3.77922L0.685 3.78922L0.675 3.80922L0.665 3.81922L0.665 3.83922L0.655 3.85922L0.645 3.86922L0.645 3.88922L0.635 3.90922L0.635 3.92922L0.625 3.94922L0.625 3.95922L0.625 3.97922L0.625 3.99922L0.625 5.99922L0.625 6.01922L0.625 6.03922L0.625 6.05922L0.635 6.06922L0.635 6.08922L0.645 6.10922L0.645 6.12922L0.655 6.13922L0.665 6.15922L0.665 6.17922L0.675 6.18922L0.685 6.20922L0.695 6.21922L0.715 6.23922L0.725 6.24922L0.735 6.26922L0.745 6.27922L0.765 6.28922L0.775 6.29922L0.795 6.30922L0.805 6.31922L0.825 6.32922L0.835 6.33922L0.855 6.34922L0.875 6.34922L0.895 6.35922L0.905 6.35922L0.925 6.36922L0.945 6.36922L0.965 6.36922L0.985 6.37922L0.995 6.37922L1.015 6.37922L1.035 6.36922L1.055 6.36922L1.075 6.36922L1.095 6.35922L1.105 6.35922L1.125 6.34922L1.145 6.34922L1.165 6.33922L1.175 6.32922L1.195 6.31922L1.205 6.30922L1.225 6.29922L1.235 6.28922L1.255 6.27922L1.265 6.26922L1.275 6.24922L1.285 6.23922L1.305 6.21922L1.315 6.20922L1.325 6.18922L1.335 6.17922L1.335 6.15922L1.345 6.13922L1.355 6.12922L1.355 6.10922L1.365 6.08922L1.365 6.06922L1.375 6.05922L1.375 6.03922L1.375 6.01922L1.375 5.99922L1.375 3.99922L1.375 3.97922L1.375 3.95922L1.375 3.94922L1.365 3.92922L1.365 3.90922L1.355 3.88922L1.355 3.86922L1.345 3.85922L1.335 3.83922L1.335 3.81922L1.325 3.80922L1.315 3.78922L1.305 3.77922L1.285 3.75922L1.275 3.74922L1.265 3.73922L1.255 3.71922L1.235 3.70922L1.225 3.69922L1.205 3.68922L1.195 3.67922L1.175 3.66922L1.165 3.65922L1.145 3.64922L1.125 3.64922L1.105 3.63922L1.095 3.63922L1.075 3.62922L1.055 3.62922L1.035 3.62922L1.015 3.62922L0.995 3.62922L0.985 3.62922L0.965 3.62922L0.945 3.62922Z">
</path>
<path     fill="#80B2FD"  d="M8.945 4.62922L8.925 4.62922L8.905 4.63922L8.895 4.63922L8.875 4.64922L8.855 4.64922L8.835 4.65922L8.825 4.66922L8.805 4.67922L8.795 4.68922L8.775 4.69922L8.765 4.70922L8.745 4.71922L8.735 4.73922L8.725 4.74922L8.715 4.75922L8.695 4.77922L8.685 4.78922L8.675 4.80922L8.665 4.81922L8.665 4.83922L8.655 4.85922L8.645 4.86922L8.645 4.88922L8.635 4.90922L8.635 4.92922L8.625 4.94922L8.625 4.95922L8.625 4.97922L8.625 4.99922L8.625 5.99922L8.625 6.01922L8.625 6.03922L8.625 6.05922L8.635 6.06922L8.635 6.08922L8.645 6.10922L8.645 6.12922L8.655 6.13922L8.665 6.15922L8.665 6.17922L8.675 6.18922L8.685 6.20922L8.695 6.21922L8.715 6.23922L8.725 6.24922L8.735 6.26922L8.745 6.27922L8.765 6.28922L8.775 6.29922L8.795 6.30922L8.805 6.31922L8.825 6.32922L8.835 6.33922L8.855 6.34922L8.875 6.34922L8.895 6.35922L8.905 6.35922L8.925 6.36922L8.945 6.36922L8.965 6.36922L8.985 6.37922L8.995 6.37922L9.015 6.37922L9.035 6.36922L9.055 6.36922L9.075 6.36922L9.095 6.35922L9.105 6.35922L9.125 6.34922L9.145 6.34922L9.165 6.33922L9.175 6.32922L9.195 6.31922L9.205 6.30922L9.225 6.29922L9.235 6.28922L9.255 6.27922L9.265 6.26922L9.275 6.24922L9.285 6.23922L9.305 6.21922L9.315 6.20922L9.325 6.18922L9.335 6.17922L9.335 6.15922L9.345 6.13922L9.355 6.12922L9.355 6.10922L9.365 6.08922L9.365 6.06922L9.375 6.05922L9.375 6.03922L9.375 6.01922L9.375 5.99922L9.375 4.99922L9.375 4.97922L9.375 4.95922L9.375 4.94922L9.365 4.92922L9.365 4.90922L9.355 4.88922L9.355 4.86922L9.345 4.85922L9.335 4.83922L9.335 4.81922L9.325 4.80922L9.315 4.78922L9.305 4.77922L9.285 4.75922L9.275 4.74922L9.265 4.73922L9.255 4.71922L9.235 4.70922L9.225 4.69922L9.205 4.68922L9.195 4.67922L9.175 4.66922L9.165 4.65922L9.145 4.64922L9.125 4.64922L9.105 4.63922L9.095 4.63922L9.075 4.62922L9.055 4.62922L9.035 4.62922L9.015 4.62922L8.995 4.62922L8.985 4.62922L8.965 4.62922L8.945 4.62922Z">
</path>
</svg>
