<?xml version="1.0" encoding="UTF-8"?>
<svg width="16px" height="17px" viewBox="0 0 16 17" version="1.1" xmlns="http://www.w3.org/2000/svg" xmlns:xlink="http://www.w3.org/1999/xlink">
    <title> 历史小@2x</title>
    <g id="V1.0" stroke="none" stroke-width="1" fill="none" fill-rule="evenodd">
        <g id="首页" transform="translate(-46, -307)" fill-rule="nonzero">
            <g id="-历史小" transform="translate(46, 307.8463)">
                <rect id="矩形" fill="currentColor" opacity="0" x="0" y="0" width="16" height="16"></rect>
                <path d="M8.08,14.16 C4.72232,14.16 2,11.43768 2,8.08 C2,4.72232 4.72232,2 8.08,2 C11.43768,2 14.16,4.72232 14.16,8.08 C14.16,11.43768 11.43768,14.16 8.08,14.16 Z M8.58667062,8.37841875 L8.58667062,5.5451625 C8.58667062,5.26952 8.35968,5.04 8.08,5.04 C7.79828937,5.04 7.57331889,5.26598125 7.57331889,5.54515062 L7.57331889,8.58819062 C7.57246877,8.72099207 7.62462816,8.84864859 7.71824,8.94284938 L9.15819062,10.3828 C9.25306991,10.4771016 9.38159795,10.5297357 9.51536799,10.5290757 C9.64913802,10.5284032 9.77713539,10.4744914 9.87107062,10.3792494 C10.0674934,10.1827797 10.0690719,9.86477941 9.87460937,9.66636938 L8.58667062,8.37843063 L8.58667062,8.37841875 Z" id="形状" fill="currentColor"></path>
            </g>
        </g>
    </g>
</svg>