<svg xmlns="http://www.w3.org/2000/svg" xmlns:xlink="http://www.w3.org/1999/xlink" width="24" height="24" viewBox="0 0 24 24" fill="none"><path d="M18.1819 4.39663L13.1434 9.42163L4.43435 9.42163C4.4096 9.42156 4.38485 9.42203 4.36015 9.42303C4.3354 9.42407 4.31072 9.42566 4.28609 9.42777C4.26143 9.4299 4.23682 9.43257 4.21228 9.43581C4.18774 9.43904 4.1633 9.44279 4.13895 9.44711C4.11457 9.45144 4.09031 9.45629 4.06617 9.46168C4.04201 9.4671 4.01798 9.47303 3.9941 9.4795C3.97022 9.48599 3.9465 9.493 3.92292 9.50052C3.89934 9.50807 3.87595 9.51611 3.85275 9.52468C3.82955 9.53326 3.80653 9.54235 3.78373 9.55196C3.76092 9.56157 3.73835 9.5717 3.71599 9.58229C3.69363 9.59293 3.67152 9.60404 3.64966 9.61562C3.6278 9.62724 3.60621 9.63932 3.5849 9.65188C3.56359 9.66444 3.54256 9.6775 3.52183 9.691C3.5011 9.7045 3.48067 9.71846 3.46054 9.73288C3.44043 9.74732 3.42066 9.76217 3.40122 9.77746C3.38177 9.79278 3.36267 9.80851 3.34392 9.82466C3.32518 9.84081 3.30681 9.85738 3.28879 9.87435C3.27079 9.89132 3.25317 9.90868 3.23594 9.92645C3.2187 9.94421 3.20189 9.96235 3.18548 9.98087C3.16906 9.99939 3.15306 10.0183 3.13748 10.0375C3.1219 10.0567 3.10676 10.0763 3.09206 10.0962C3.07735 10.1161 3.0631 10.1363 3.04931 10.1569C3.03551 10.1774 3.02217 10.1982 3.0093 10.2194C2.99644 10.2405 2.98405 10.2619 2.97213 10.2836C2.96022 10.3053 2.9488 10.3273 2.93786 10.3494C2.92694 10.3717 2.91651 10.3941 2.90657 10.4168C2.89665 10.4394 2.88724 10.4623 2.87833 10.4854C2.86942 10.5085 2.86103 10.5318 2.85316 10.5552C2.8453 10.5787 2.83796 10.6023 2.83115 10.6261C2.82434 10.6499 2.81806 10.6738 2.81231 10.6979C2.80657 10.722 2.80137 10.7462 2.7967 10.7704C2.79204 10.7948 2.78792 10.8192 2.78435 10.8436L1.37735 19.7791C1.37524 19.7925 1.37349 19.8058 1.37211 19.8193C1.37073 19.8327 1.36971 19.8462 1.36905 19.8597C1.36839 19.8732 1.3681 19.8866 1.36817 19.9001C1.36825 19.9136 1.36868 19.9271 1.36948 19.9406C1.37028 19.9541 1.37145 19.9675 1.37297 19.9809C1.3745 19.9944 1.37639 20.0077 1.37863 20.021C1.38088 20.0343 1.38349 20.0476 1.38645 20.0608C1.38942 20.0739 1.39273 20.087 1.3964 20.1C1.40007 20.113 1.40409 20.1259 1.40845 20.1386C1.41282 20.1514 1.41753 20.1641 1.42258 20.1766C1.42762 20.1891 1.43301 20.2015 1.43872 20.2137C1.44444 20.2259 1.45048 20.238 1.45685 20.2499C1.46322 20.2618 1.4699 20.2736 1.47691 20.2851C1.48391 20.2966 1.49122 20.308 1.49883 20.3191C1.50645 20.3303 1.51436 20.3412 1.52256 20.3519C1.53076 20.3627 1.53925 20.3732 1.54802 20.3834C1.5568 20.3937 1.56584 20.4037 1.57515 20.4135C1.58446 20.4233 1.59403 20.4328 1.60386 20.442C1.61369 20.4513 1.62376 20.4603 1.63407 20.469C1.64438 20.4777 1.65492 20.4861 1.66569 20.4943C1.67645 20.5024 1.68743 20.5103 1.69862 20.5178C1.70981 20.5254 1.7212 20.5326 1.73278 20.5395C1.74436 20.5465 1.75612 20.5531 1.76807 20.5594C1.78001 20.5657 1.79211 20.5717 1.80437 20.5773C1.81663 20.583 1.82904 20.5883 1.84159 20.5933C1.85413 20.5982 1.86681 20.6029 1.87961 20.6072C1.89241 20.6115 1.90531 20.6154 1.91833 20.619C1.93134 20.6226 1.94444 20.6259 1.95763 20.6287C1.97081 20.6316 1.98407 20.6342 1.9974 20.6363C2.01072 20.6385 2.0241 20.6403 2.03752 20.6418C2.05094 20.6432 2.06439 20.6443 2.07787 20.6451C2.09136 20.6458 2.10485 20.6461 2.11835 20.6461L20.5683 20.5966C20.5818 20.5966 20.5951 20.5962 20.6085 20.5954C20.6219 20.5947 20.6353 20.5936 20.6486 20.5921C20.662 20.5906 20.6752 20.5888 20.6885 20.5866C20.7017 20.5844 20.7149 20.5819 20.728 20.579C20.7411 20.5761 20.7541 20.5728 20.767 20.5692C20.7799 20.5656 20.7927 20.5617 20.8054 20.5574C20.8181 20.5532 20.8308 20.5485 20.8432 20.5436C20.8557 20.5386 20.868 20.5333 20.8802 20.5277C20.8924 20.5221 20.9044 20.5162 20.9162 20.5099C20.9281 20.5036 20.9398 20.497 20.9513 20.4902C20.9628 20.4833 20.9741 20.4761 20.9852 20.4686C20.9963 20.4611 21.0073 20.4533 21.018 20.4452C21.0287 20.4371 21.0392 20.4288 21.0494 20.4201C21.0597 20.4115 21.0697 20.4026 21.0795 20.3934C21.0892 20.3842 21.0988 20.3748 21.108 20.3651C21.1173 20.3554 21.1263 20.3455 21.1351 20.3353C21.1438 20.3251 21.1522 20.3147 21.1605 20.3041C21.1686 20.2935 21.1765 20.2826 21.1841 20.2716C21.1917 20.2605 21.199 20.2493 21.206 20.2378C21.213 20.2264 21.2197 20.2148 21.2261 20.203C21.2324 20.1912 21.2385 20.1792 21.2442 20.1671C21.2499 20.1549 21.2554 20.1427 21.2604 20.1302C21.2655 20.1178 21.2702 20.1053 21.2746 20.0926C21.279 20.0799 21.2831 20.0672 21.2868 20.0543C21.2905 20.0414 21.2939 20.0284 21.2969 20.0154C21.2999 20.0023 21.3026 19.9891 21.3049 19.9759C21.3072 19.9627 21.3091 19.9494 21.3108 19.9361C21.3124 19.9228 21.3136 19.9095 21.3145 19.8961C21.3153 19.8827 21.3159 19.8693 21.3161 19.8559C21.3162 19.8425 21.316 19.8291 21.3155 19.8157C21.3149 19.8023 21.314 19.7889 21.3127 19.7755C21.3115 19.7622 21.3098 19.7489 21.3078 19.7356L19.9834 10.8631C19.9801 10.8411 19.9764 10.8191 19.9722 10.7972C19.9681 10.7753 19.9635 10.7535 19.9584 10.7318C19.9534 10.7101 19.9478 10.6884 19.9419 10.667C19.9359 10.6455 19.9295 10.6241 19.9227 10.6029C19.9158 10.5817 19.9085 10.5606 19.9008 10.5397C19.8931 10.5188 19.885 10.498 19.8764 10.4774C19.8678 10.4568 19.8588 10.4364 19.8494 10.4162C19.84 10.396 19.8301 10.376 19.8199 10.3562C19.8096 10.3364 19.799 10.3168 19.7879 10.2975C19.7769 10.2781 19.7654 10.259 19.7535 10.2401C19.7417 10.2212 19.7294 10.2026 19.7168 10.1842C19.7042 10.1659 19.6912 10.1478 19.6778 10.1299C19.6644 10.1121 19.6507 10.0945 19.6366 10.0772C19.6225 10.06 19.608 10.043 19.5932 10.0263C19.5784 10.0097 19.5633 9.99332 19.5478 9.97726C19.5323 9.96123 19.5165 9.94553 19.5004 9.93013L21.6004 7.82263C22.8859 6.28663 19.6954 3.11113 18.1819 4.39663ZM13.3819 13.9276L11.8504 14.1496L12.0709 12.6181L18.1308 6.55513C18.1502 6.58909 18.1702 6.62272 18.1907 6.656C18.2112 6.68928 18.2322 6.72221 18.2538 6.75479C18.2754 6.78739 18.2976 6.8196 18.3203 6.85143C18.343 6.88328 18.3662 6.91473 18.3899 6.94578C18.4136 6.97686 18.4379 7.00752 18.4627 7.03775C18.4874 7.06801 18.5127 7.09785 18.5385 7.12724C18.5642 7.15665 18.5905 7.18562 18.6172 7.21414C18.6439 7.24267 18.6712 7.27072 18.6988 7.29833C18.7265 7.32596 18.7546 7.35311 18.7832 7.37978C18.8118 7.40645 18.8408 7.43263 18.8703 7.45832C18.8998 7.48403 18.9296 7.50922 18.96 7.5339C18.9903 7.55861 19.021 7.58279 19.0521 7.60646C19.0832 7.63014 19.1147 7.65329 19.1466 7.67589C19.1785 7.6985 19.2108 7.72058 19.2434 7.7421C19.276 7.76364 19.309 7.78461 19.3424 7.80505C19.3757 7.82549 19.4093 7.84534 19.4433 7.86463L13.3819 13.9276ZM18.4984 11.0776L19.6984 19.1041L3.00035 19.1431L4.27985 11.0596C4.28041 11.055 4.28116 11.0505 4.28215 11.046C4.28311 11.0415 4.28428 11.037 4.28566 11.0326C4.28702 11.0282 4.28857 11.0238 4.2903 11.0195C4.29204 11.0153 4.29398 11.0111 4.29609 11.0069C4.2982 11.0028 4.3005 10.9988 4.30298 10.9949C4.30545 10.991 4.30807 10.9872 4.31088 10.9836C4.31367 10.9799 4.31662 10.9763 4.31974 10.9729C4.32284 10.9695 4.32609 10.9662 4.32952 10.9631C4.33291 10.96 4.33645 10.957 4.34011 10.9542C4.34377 10.9514 4.34756 10.9487 4.35145 10.9462C4.35534 10.9437 4.35933 10.9414 4.36345 10.9393C4.36753 10.9372 4.37173 10.9352 4.37599 10.9334C4.38026 10.9317 4.38462 10.9301 4.38902 10.9287C4.39343 10.9273 4.39788 10.9262 4.40241 10.9252C4.40691 10.9242 4.41145 10.9234 4.41605 10.9228C4.42062 10.9222 4.42521 10.9218 4.42985 10.9216L11.6434 10.9216L10.8304 11.7346C10.8162 11.7489 10.8026 11.7636 10.7896 11.7789C10.7767 11.7943 10.7643 11.8101 10.7526 11.8263C10.7408 11.8427 10.7297 11.8594 10.7193 11.8765C10.7089 11.8937 10.6992 11.9112 10.6901 11.9292C10.6811 11.9471 10.6728 11.9654 10.6652 11.9839C10.6576 12.0025 10.6508 12.0214 10.6447 12.0405C10.6386 12.0596 10.6333 12.079 10.6287 12.0985C10.6241 12.1181 10.6204 12.1378 10.6174 12.1576L10.3174 14.2831L5.96735 14.2831C5.95507 14.2831 5.94279 14.2834 5.93055 14.284C5.91827 14.2847 5.90604 14.2855 5.89383 14.2867C5.88162 14.288 5.86945 14.2895 5.85731 14.2912C5.84517 14.2931 5.83308 14.2952 5.82103 14.2975C5.80898 14.2999 5.79703 14.3026 5.78512 14.3056C5.77322 14.3086 5.76138 14.3119 5.74964 14.3154C5.73787 14.319 5.72623 14.3229 5.71469 14.327C5.70312 14.3311 5.69168 14.3355 5.68034 14.3402C5.66899 14.3449 5.65777 14.3499 5.64668 14.3551C5.63557 14.3604 5.62462 14.3659 5.6138 14.3717C5.60297 14.3775 5.59228 14.3835 5.58178 14.3898C5.57123 14.3961 5.56087 14.4027 5.55068 14.4095C5.54046 14.4163 5.53043 14.4234 5.52059 14.4307C5.51072 14.438 5.50104 14.4456 5.49155 14.4534C5.48205 14.4612 5.47277 14.4692 5.46368 14.4774C5.45459 14.4857 5.4457 14.4941 5.43703 14.5028C5.42834 14.5115 5.41987 14.5204 5.41165 14.5295C5.4034 14.5385 5.39538 14.5479 5.3876 14.5573C5.3798 14.5668 5.37225 14.5765 5.36494 14.5864C5.35763 14.5962 5.35055 14.6063 5.34375 14.6165C5.33693 14.6267 5.33037 14.637 5.32406 14.6476C5.31773 14.6581 5.31169 14.6687 5.30592 14.6796C5.30011 14.6904 5.2946 14.7014 5.28935 14.7125C5.2841 14.7236 5.27913 14.7348 5.27445 14.7461C5.26973 14.7575 5.26533 14.7689 5.2612 14.7804C5.25705 14.792 5.25321 14.8037 5.24965 14.8154C5.24609 14.8272 5.2428 14.839 5.23983 14.8509C5.23683 14.8628 5.23416 14.8748 5.23177 14.8868C5.22937 14.8989 5.22727 14.9109 5.22546 14.9231C5.22366 14.9352 5.22216 14.9474 5.22096 14.9596C5.21974 14.9718 5.21885 14.9841 5.21827 14.9963C5.21766 15.0086 5.21735 15.0208 5.21735 15.0331C5.21735 15.0454 5.21766 15.0577 5.21827 15.0699C5.21885 15.0822 5.21974 15.0944 5.22096 15.1066C5.22216 15.1189 5.22366 15.131 5.22546 15.1432C5.22727 15.1553 5.22937 15.1674 5.23177 15.1794C5.23416 15.1915 5.23683 15.2034 5.23983 15.2154C5.2428 15.2273 5.24609 15.2391 5.24965 15.2508C5.25321 15.2626 5.25705 15.2743 5.2612 15.2858C5.26533 15.2974 5.26973 15.3088 5.27445 15.3201C5.27913 15.3315 5.2841 15.3427 5.28935 15.3538C5.2946 15.3649 5.30011 15.3759 5.30592 15.3867C5.31169 15.3975 5.31773 15.4082 5.32406 15.4187C5.33037 15.4292 5.33693 15.4396 5.34375 15.4498C5.35055 15.46 5.35763 15.47 5.36494 15.4799C5.37225 15.4898 5.3798 15.4994 5.3876 15.5089C5.39538 15.5184 5.4034 15.5277 5.41165 15.5368C5.41987 15.5459 5.42834 15.5548 5.43703 15.5634C5.4457 15.5721 5.45459 15.5806 5.46368 15.5888C5.47277 15.5971 5.48205 15.6051 5.49155 15.6129C5.50104 15.6207 5.51072 15.6282 5.52059 15.6355C5.53043 15.6429 5.54046 15.6499 5.55068 15.6567C5.56087 15.6635 5.57123 15.6701 5.58178 15.6764C5.59228 15.6827 5.60297 15.6888 5.6138 15.6946C5.62462 15.7004 5.63557 15.7059 5.64668 15.7111C5.65777 15.7164 5.66899 15.7213 5.68034 15.726C5.69168 15.7307 5.70312 15.7352 5.71469 15.7393C5.72623 15.7434 5.73787 15.7473 5.74964 15.7508C5.76138 15.7544 5.77322 15.7577 5.78512 15.7607C5.79703 15.7637 5.80898 15.7663 5.82103 15.7687C5.83308 15.7711 5.84517 15.7732 5.85731 15.775C5.86945 15.7768 5.88162 15.7783 5.89383 15.7795C5.90604 15.7807 5.91827 15.7816 5.93055 15.7822C5.94279 15.7828 5.95507 15.7831 5.96735 15.7831L11.0809 15.7831L13.8499 15.3841C13.8697 15.3812 13.8894 15.3775 13.909 15.373C13.9286 15.3685 13.948 15.3633 13.9671 15.3572C13.9863 15.3512 14.0052 15.3444 14.0238 15.3368C14.0424 15.3292 14.0606 15.3209 14.0786 15.3119C14.0965 15.3029 14.1141 15.2931 14.1313 15.2827C14.1484 15.2722 14.1651 15.2611 14.1814 15.2493C14.1977 15.2375 14.2134 15.2251 14.2287 15.2121C14.244 15.199 14.2587 15.1854 14.2729 15.1711L18.4503 10.9816C18.4559 10.9881 18.4611 10.9949 18.4658 11.0021C18.4704 11.0093 18.4746 11.0167 18.4783 11.0244C18.4819 11.0322 18.4851 11.0401 18.4877 11.0483C18.4903 11.0564 18.4923 11.0647 18.4939 11.0731L18.4984 11.0776Z"   fill="#000000" ></path></svg>