<svg xmlns="http://www.w3.org/2000/svg" xmlns:xlink="http://www.w3.org/1999/xlink" width="23.861328125" height="23.9482421875" viewBox="0 0 23.861328125 23.9482421875" fill="none"><path d="M10.2067 1.3467C14.6697 1.3467 14.9592 4.79142 14.9592 5.94316C14.9592 7.37686 14.5528 8.5181 14.2153 9.22294C13.8434 9.98777 13.4715 10.4212 13.461 10.4332C13.206 10.7196 13.254 11.141 13.5645 11.3765C13.8779 11.6104 14.3383 11.5669 14.5932 11.282C14.6697 11.198 16.4213 9.19444 16.4213 5.94316C16.4213 4.19906 15.9534 3.00682 14.9517 1.89558C13.8344 0.658352 12.1938 0 10.2067 0C6.41557 0 4.18556 2.05154 4.18556 5.81719C4.18556 7.45334 4.41502 8.61708 4.8874 9.8168C5.3643 11.0285 6.10214 12.1023 7.14141 13.1011L7.14141 14.3563C6.44855 14.4778 5.26983 14.7072 4.07759 15.0641C2.97832 15.3881 2.09204 15.751 1.44418 16.1454C0.485892 16.7258 0 19.3067 0 20.0505C0 21.2713 1.3677 22.303 4.18106 23.4172C6.07814 24.1687 8.23017 23.8927 8.30815 23.9123C8.37262 23.9302 8.43712 23.9377 8.5001 23.9377C8.82253 23.9377 9.11796 23.7398 9.20794 23.4429C9.31291 23.0828 9.08196 22.7139 8.69205 22.618C8.67405 22.612 6.54755 22.8954 4.74944 22.1801C2.32599 21.2188 1.46367 20.5004 1.46367 20.049C1.46367 19.6201 1.38119 17.4096 3.63068 16.7423C5.3403 16.2324 7.96772 15.5845 7.98572 15.5815C8.34262 15.532 8.60358 15.2486 8.60358 14.9187L8.60358 12.8296C8.60358 12.6512 8.5271 12.4817 8.38912 12.3542C6.44255 10.5696 5.64773 8.83003 5.64773 5.81869C5.64773 4.38802 6.05564 3.37723 6.747 2.60041C7.49381 1.76661 8.65755 1.3467 10.2067 1.3467ZM20.112 16.4498L15.613 16.4498C15.1991 16.4498 14.8632 16.7842 14.8632 17.1997C14.8632 17.6121 15.1991 17.9495 15.613 17.9495L20.112 17.9495C20.5259 17.9495 20.8619 17.6121 20.8619 17.1997C20.8619 16.7842 20.5259 16.4498 20.112 16.4498ZM20.8619 13.4505L14.8632 13.4505C13.2075 13.4505 11.8639 14.7927 11.8639 16.4498L11.8639 20.9488C11.8639 22.6045 13.2075 23.9482 14.8632 23.9482L20.8619 23.9482C22.5175 23.9482 23.8612 22.6045 23.8612 20.9488L23.8612 16.4498C23.8612 14.7927 22.5175 13.4505 20.8619 13.4505ZM22.3615 20.9488C22.3615 21.7781 21.6912 22.4485 20.8619 22.4485L14.8632 22.4485C14.0339 22.4485 13.3635 21.7781 13.3635 20.9488L13.3635 16.4498C13.3635 15.6205 14.0339 14.9502 14.8632 14.9502L20.8619 14.9502C21.6912 14.9502 22.3615 15.6205 22.3615 16.4498L22.3615 20.9488ZM18.6124 19.4492L15.613 19.4492C15.1991 19.4492 14.8632 19.7836 14.8632 20.199C14.8632 20.6114 15.1991 20.9488 15.613 20.9488L18.6124 20.9488C19.0263 20.9488 19.3622 20.6114 19.3622 20.199C19.3622 19.7836 19.0263 19.4492 18.6124 19.4492Z"   fill="#000000" ></path></svg>