<?xml version="1.0" encoding="UTF-8"?>
<svg width="16px" height="17px" viewBox="0 0 16 17" version="1.1" xmlns="http://www.w3.org/2000/svg" xmlns:xlink="http://www.w3.org/1999/xlink">
    <g id="V1.0" stroke="none" stroke-width="1" fill="none" fill-rule="evenodd">
        <g id="首页" transform="translate(-46, -262)" fill-rule="nonzero">
            <g id="知识" transform="translate(46, 262.8463)">
                <rect id="矩形" fill="currentColor" opacity="0" x="0" y="0" width="16" height="16"></rect>
                <path d="M7.54569088,2.78676264 C7.45120335,2.74315302 7.34944756,2.69954339 7.24769176,2.66320203 C6.0556953,2.28525193 4.2677006,1.87096048 2.48697417,2.03813072 C2.21077986,2.0672038 2,2.29978848 2,2.57598278 L2,12.3954171 C2,12.5480508 2.06541444,12.6861479 2.17443851,12.7879037 C2.28346257,12.8896595 2.428828,12.9405374 2.58146169,12.9332692 C4.30404195,12.8024403 6.01935394,13.0786346 7.53842261,13.7182424 L7.54569088,13.7255107 L7.54569088,2.78676264 Z M13.6728434,2.03813072 C11.8848487,1.87096048 10.096854,2.28525193 8.91212585,2.66320203 C8.81037006,2.69954339 8.70861426,2.74315302 8.61412674,2.78676264 L8.61412674,13.7109742 L8.62139501,13.7037059 C10.1404637,13.064098 11.8557757,12.795172 13.5783559,12.9187326 C13.7309896,12.9332692 13.876355,12.8823913 13.9853791,12.7733672 C14.0944032,12.6716114 14.1598176,12.526246 14.1598176,12.3808805 L14.1598176,2.57598278 C14.1670859,2.29252021 13.956306,2.05993553 13.6728434,2.03813072 L13.6728434,2.03813072 Z" id="形状" fill="currentColor"></path>
            </g>
        </g>
    </g>
</svg>