<svg xmlns="http://www.w3.org/2000/svg" xmlns:xlink="http://www.w3.org/1999/xlink" width="32" height="32" viewBox="0 0 32 32" fill="none">
<path d="M17.0001 2C8.71553 2 2 8.71553 2 17.0001C2 25.2845 8.71553 32 17.0001 32C25.2845 32 32 25.2845 32 17.0001C32 8.71553 25.2845 2 17.0001 2ZM23.9311 14.9912C23.9011 15.1216 23.8231 15.315 23.7152 15.5459L23.7182 15.5459L23.7061 15.5684C23.0762 16.9146 21.4326 19.556 21.4326 19.556L21.4251 19.5379L20.9451 20.3744L23.2592 20.3744L18.8382 26.2494L19.8429 22.2528L18.0208 22.2528L18.6537 19.61C18.1424 19.733 17.5364 19.9022 16.8196 20.1331C16.8196 20.1331 15.8508 20.6998 14.0272 19.0419C14.0272 19.0419 12.7974 17.9579 13.5113 17.6881C13.8142 17.5728 14.9824 17.4258 15.9018 17.3028C17.1465 17.135 17.9098 17.0451 17.9098 17.0451C17.9098 17.0451 14.0782 17.102 13.1694 16.9596C12.2605 16.8172 11.1073 15.3 10.8613 13.9673C10.8613 13.9673 10.4819 13.2358 11.6787 13.582C12.8755 13.9284 17.8288 14.9313 17.8288 14.9313C17.8288 14.9313 11.3877 12.957 10.9573 12.4742C10.5283 11.9945 9.69607 9.84479 9.80405 8.52566C9.80405 8.52566 9.85058 8.19583 10.1895 8.28573C10.1895 8.28573 14.9524 10.4595 18.2083 11.6513C21.4656 12.8431 24.297 13.4487 23.9311 14.9912L23.9311 14.9912Z"   fill="#3AA2EB" >
</path>
</svg>
