<svg xmlns="http://www.w3.org/2000/svg" width="14" height="14" viewBox="0 0 14 14" fill="none">
  <path opacity="0.5" d="M10.4997 5.25002V11.0834C10.4997 11.4042 10.2372 11.6667 9.91634 11.6667H4.08301C3.76217 11.6667 3.49967 11.4042 3.49967 11.0834V2.91669C3.49967 2.59585 3.76217 2.33335 4.08301 2.33335H7.58301V1.16669H4.08301C3.12051 1.16669 2.33301 1.95419 2.33301 2.91669V11.0834C2.33301 12.0459 3.12051 12.8334 4.08301 12.8334H9.91634C10.8788 12.8334 11.6663 12.0459 11.6663 11.0834V5.25002H10.4997Z" fill="currentColor"/>
  <path d="M11.6667 4.08335H9.33333C9.0125 4.08335 8.75 3.82085 8.75 3.50002V1.16669L11.6667 4.08335Z" fill="currentColor"/>
  <path d="M9.33366 7.58331H4.66699V8.74998H9.33366V7.58331Z" fill="currentColor"/>
  <path d="M9.33366 5.25H4.66699V6.41667H9.33366V5.25Z" fill="currentColor"/>
</svg>