<svg xmlns="http://www.w3.org/2000/svg" width="14" height="14" viewBox="0 0 14 14" fill="currentColor">
  <path d="M8.9192 6.0025L7.58336 7.33833V1.75H6.4167V7.34417L5.08086 6.00833L4.25836 6.83083L6.5917 9.16417C6.6442 9.21667 6.70253 9.26333 6.77836 9.2925C6.84836 9.32167 6.9242 9.33917 7.00003 9.33917C7.1517 9.33917 7.30336 9.28083 7.4142 9.17L9.74753 6.83667L8.92503 6.01417L8.9192 6.0025Z" fill="white"/>
  <path opacity="0.5" d="M10.5 12.25H3.5C2.5375 12.25 1.75 11.4625 1.75 10.5V7H2.91667V10.5C2.91667 10.8208 3.17917 11.0833 3.5 11.0833H10.5C10.8208 11.0833 11.0833 10.8208 11.0833 10.5V7H12.25V10.5C12.25 11.4625 11.4625 12.25 10.5 12.25Z" fill="white"/>
</svg>