<svg xmlns="http://www.w3.org/2000/svg" width="14" height="14" viewBox="0 0 14 14" fill="currentColor">
  <path opacity="0.5" d="M12.25 11.666H1.75V12.8327H12.25V11.666Z" fill="currentColor"/>
  <path d="M2.91647 10.4991C2.7648 10.4991 2.61313 10.4408 2.5023 10.3299C2.3623 10.1899 2.30397 9.99162 2.3448 9.80495L2.9048 7.01661C2.9748 6.67245 3.14397 6.35745 3.38897 6.10662L7.3148 2.18078C8.00897 1.48661 9.1348 1.48661 9.82897 2.18078L10.6515 3.00328C11.3456 3.69745 11.3456 4.82328 10.6515 5.51745L6.72563 9.44328C6.4748 9.69412 6.1598 9.85745 5.81563 9.92745L3.0273 10.4874C2.98647 10.4933 2.95147 10.4991 2.91063 10.4991H2.91647ZM4.01313 7.41912C3.84397 8.25328 4.5848 8.98828 5.41897 8.82495C5.6523 8.77828 5.8623 8.66745 6.03147 8.49828L9.42063 5.10912C9.8873 4.64245 9.8873 3.88995 9.42063 3.42328C8.95397 2.95661 8.20147 2.95661 7.7348 3.42328L4.34563 6.81245C4.17647 6.98162 4.06563 7.19161 4.01897 7.42495L4.01313 7.41912Z" fill="currentColor"/>
</svg>