<svg xmlns="http://www.w3.org/2000/svg" xmlns:xlink="http://www.w3.org/1999/xlink" width="24" height="24" viewBox="0 0 24 24" fill="none">
<path d="M20.0018 21.8182L3.99819 21.8182C3.96848 21.8181 3.9388 21.8173 3.90915 21.8157C3.87947 21.8142 3.84987 21.8119 3.82032 21.8089C3.79077 21.806 3.76131 21.8022 3.73194 21.7978C3.70258 21.7934 3.67333 21.7883 3.64421 21.7824C3.61508 21.7765 3.58612 21.77 3.55733 21.7627C3.52853 21.7554 3.49993 21.7474 3.47152 21.7388C3.44311 21.7301 3.41494 21.7207 3.38701 21.7107C3.35905 21.7006 3.33137 21.6899 3.30394 21.6785C3.27652 21.6671 3.24939 21.655 3.22254 21.6423C3.19572 21.6295 3.16922 21.6161 3.14304 21.6021C3.11686 21.5881 3.09104 21.5734 3.06558 21.5581C3.04011 21.5428 3.01504 21.5269 2.99035 21.5104C2.96566 21.4939 2.9414 21.4768 2.91755 21.4591C2.89371 21.4414 2.87031 21.4231 2.84736 21.4042C2.8244 21.3854 2.80193 21.366 2.77993 21.346C2.75793 21.3261 2.73642 21.3056 2.7154 21.2846C2.6944 21.2636 2.67393 21.2421 2.65397 21.2201C2.63404 21.1981 2.61464 21.1756 2.59578 21.1527C2.57694 21.1297 2.55865 21.1063 2.54094 21.0825C2.52323 21.0586 2.50612 21.0343 2.48961 21.0097C2.47309 20.985 2.45719 20.9599 2.44189 20.9344C2.42659 20.909 2.41193 20.8832 2.3979 20.857C2.38387 20.8308 2.37048 20.8043 2.35775 20.7775C2.34502 20.7506 2.33294 20.7235 2.32154 20.6961C2.31013 20.6686 2.2994 20.641 2.28935 20.613C2.27929 20.5851 2.26993 20.5569 2.26125 20.5285C2.25258 20.5001 2.2446 20.4715 2.23733 20.4427C2.23005 20.4139 2.22348 20.3849 2.21762 20.3558C2.21176 20.3267 2.20662 20.2974 2.20219 20.2681C2.19776 20.2387 2.19405 20.2092 2.19106 20.1797C2.18807 20.1501 2.18581 20.1205 2.18427 20.0909C2.18273 20.0612 2.18191 20.0315 2.18182 20.0018L2.18182 3.99819C2.18191 3.96848 2.18273 3.9388 2.18427 3.90915C2.18581 3.87947 2.18807 3.84987 2.19106 3.82032C2.19405 3.79077 2.19776 3.76131 2.20219 3.73194C2.20662 3.70258 2.21176 3.67333 2.21762 3.64421C2.22348 3.61508 2.23005 3.58612 2.23733 3.55733C2.2446 3.52853 2.25258 3.49993 2.26125 3.47152C2.26993 3.44311 2.27929 3.41494 2.28935 3.38701C2.2994 3.35905 2.31013 3.33137 2.32154 3.30394C2.33294 3.27652 2.34502 3.24939 2.35775 3.22254C2.37048 3.19572 2.38387 3.16922 2.3979 3.14304C2.41193 3.11686 2.42659 3.09104 2.44189 3.06558C2.45719 3.04011 2.47309 3.01504 2.48961 2.99035C2.50612 2.96566 2.52323 2.9414 2.54094 2.91755C2.55865 2.89371 2.57694 2.87031 2.59578 2.84736C2.61464 2.8244 2.63404 2.80193 2.65397 2.77993C2.67393 2.75793 2.6944 2.73642 2.7154 2.7154C2.73642 2.6944 2.75793 2.67393 2.77993 2.65397C2.80193 2.63404 2.8244 2.61464 2.84736 2.59578C2.87031 2.57694 2.89371 2.55865 2.91755 2.54094C2.9414 2.52323 2.96566 2.50612 2.99035 2.48961C3.01504 2.47309 3.04011 2.45719 3.06558 2.44189C3.09104 2.42659 3.11686 2.41193 3.14304 2.3979C3.16922 2.38387 3.19572 2.37048 3.22254 2.35775C3.24939 2.34502 3.27652 2.33294 3.30394 2.32154C3.33137 2.31013 3.35905 2.2994 3.38701 2.28935C3.41494 2.27929 3.44311 2.26993 3.47152 2.26125C3.49993 2.25258 3.52853 2.2446 3.55733 2.23733C3.58612 2.23005 3.61508 2.22348 3.64421 2.21762C3.67333 2.21176 3.70258 2.20662 3.73194 2.20219C3.76131 2.19776 3.79077 2.19405 3.82032 2.19106C3.84987 2.18807 3.87947 2.18581 3.90915 2.18427C3.9388 2.18273 3.96848 2.18191 3.99819 2.18182L12.2727 2.18182C12.2861 2.18183 12.2995 2.18217 12.3129 2.18283C12.3262 2.18349 12.3396 2.18448 12.3529 2.1858C12.3662 2.18712 12.3795 2.18876 12.3927 2.19073C12.406 2.1927 12.4192 2.195 12.4323 2.19761C12.4454 2.20023 12.4585 2.20317 12.4714 2.20643C12.4844 2.20968 12.4973 2.21326 12.5101 2.21715C12.523 2.22104 12.5357 2.22524 12.5483 2.22976C12.5609 2.23427 12.5734 2.23909 12.5857 2.24422C12.5981 2.24935 12.6103 2.25477 12.6224 2.2605C12.6345 2.26623 12.6465 2.27225 12.6583 2.27856C12.6701 2.28488 12.6817 2.29148 12.6932 2.29836C12.7047 2.30525 12.716 2.31241 12.7271 2.31985C12.7382 2.32729 12.7492 2.335 12.7599 2.34298C12.7707 2.35095 12.7812 2.35919 12.7916 2.36769C12.8019 2.37619 12.812 2.38493 12.822 2.39391C12.8319 2.40291 12.8415 2.41215 12.851 2.42162C12.8605 2.43107 12.8697 2.44076 12.8787 2.45068C12.8877 2.4606 12.8964 2.47074 12.9049 2.4811C12.9134 2.49144 12.9216 2.50199 12.9296 2.51274C12.9376 2.52349 12.9453 2.53444 12.9527 2.54558C12.9601 2.5567 12.9673 2.56801 12.9742 2.57949C12.981 2.59097 12.9877 2.60262 12.994 2.61444C13.0003 2.62623 13.0063 2.63818 13.012 2.65029C13.0177 2.66239 13.0231 2.67462 13.0283 2.687C13.0334 2.69936 13.0382 2.71184 13.0427 2.72445C13.0472 2.73706 13.0514 2.74976 13.0553 2.76256C13.0592 2.77537 13.0628 2.78827 13.066 2.80126C13.0693 2.81424 13.0722 2.8273 13.0748 2.84044C13.0774 2.85357 13.0797 2.86675 13.0817 2.87998C13.0836 2.89323 13.0853 2.90651 13.0866 2.91983C13.0879 2.93316 13.0889 2.94651 13.0895 2.95988C13.0902 2.97324 13.0905 2.98662 13.0905 3.00001C13.0905 3.0134 13.0902 3.02677 13.0895 3.04013C13.0889 3.05351 13.0879 3.06686 13.0866 3.08019C13.0853 3.0935 13.0836 3.10678 13.0817 3.12003C13.0797 3.13326 13.0774 3.14644 13.0748 3.15957C13.0722 3.17271 13.0693 3.18577 13.066 3.19876C13.0628 3.21174 13.0592 3.22464 13.0553 3.23745C13.0514 3.25025 13.0472 3.26295 13.0427 3.27556C13.0382 3.28817 13.0334 3.30065 13.0283 3.31301C13.0231 3.32539 13.0177 3.33762 13.012 3.34972C13.0063 3.36183 13.0003 3.37378 12.994 3.38558C12.9877 3.39739 12.981 3.40904 12.9742 3.42052C12.9673 3.43201 12.9601 3.44331 12.9527 3.45444C12.9453 3.46558 12.9376 3.47652 12.9296 3.48727C12.9216 3.49802 12.9134 3.50857 12.9049 3.51891C12.8964 3.52927 12.8877 3.53941 12.8787 3.54933C12.8697 3.55925 12.8605 3.56894 12.851 3.5784C12.8415 3.58786 12.8319 3.5971 12.822 3.6061C12.812 3.61508 12.8019 3.62383 12.7916 3.63233C12.7812 3.64083 12.7707 3.64906 12.7599 3.65703C12.7492 3.66501 12.7382 3.67273 12.7271 3.68016C12.716 3.6876 12.7047 3.69476 12.6932 3.70165C12.6817 3.70853 12.6701 3.71513 12.6583 3.72146C12.6465 3.72777 12.6345 3.73379 12.6224 3.73951C12.6103 3.74524 12.5981 3.75067 12.5857 3.75579C12.5734 3.76092 12.5609 3.76574 12.5483 3.77026C12.5357 3.77477 12.523 3.77897 12.5101 3.78287C12.4973 3.78676 12.4844 3.79033 12.4714 3.79358C12.4585 3.79684 12.4454 3.79978 12.4323 3.80239C12.4192 3.80501 12.406 3.80731 12.3927 3.80928C12.3795 3.81125 12.3662 3.81289 12.3529 3.8142C12.3396 3.81553 12.3262 3.81652 12.3129 3.81718C12.2995 3.81785 12.2861 3.81819 12.2727 3.81819L3.99819 3.81819C3.99525 3.81819 3.9923 3.81826 3.98935 3.8184C3.98641 3.81855 3.98347 3.81877 3.98054 3.81905C3.97761 3.81935 3.97469 3.81971 3.97177 3.82013C3.96886 3.82057 3.96597 3.82108 3.96308 3.82165C3.96019 3.82222 3.95731 3.82286 3.95445 3.82358C3.95159 3.8243 3.94876 3.82508 3.94594 3.82594C3.94311 3.82679 3.94032 3.82771 3.93755 3.82871C3.93477 3.82971 3.93202 3.83077 3.9293 3.8319C3.92658 3.83302 3.92389 3.83421 3.92122 3.83546C3.91856 3.83672 3.91594 3.83805 3.91334 3.83944C3.91073 3.84083 3.90817 3.84229 3.90565 3.8438C3.90312 3.84532 3.90063 3.84689 3.89818 3.84851C3.89574 3.85015 3.89333 3.85185 3.89096 3.8536C3.8886 3.85536 3.88628 3.85718 3.884 3.85904C3.88172 3.86091 3.87949 3.86284 3.87732 3.86483C3.87513 3.86679 3.873 3.86883 3.87092 3.87092C3.86883 3.873 3.86679 3.87513 3.86483 3.87732C3.86284 3.87949 3.86091 3.88172 3.85904 3.884C3.85718 3.88628 3.85536 3.8886 3.8536 3.89096C3.85185 3.89333 3.85015 3.89574 3.84851 3.89818C3.84689 3.90063 3.84532 3.90312 3.8438 3.90565C3.84229 3.90817 3.84083 3.91073 3.83944 3.91334C3.83805 3.91594 3.83672 3.91856 3.83546 3.92122C3.83421 3.92389 3.83302 3.92658 3.8319 3.9293C3.83077 3.93202 3.82971 3.93477 3.82871 3.93755C3.82772 3.94032 3.8268 3.94311 3.82594 3.94594C3.82508 3.94876 3.8243 3.95159 3.82358 3.95445C3.82286 3.95731 3.82222 3.96019 3.82165 3.96308C3.82108 3.96597 3.82057 3.96886 3.82013 3.97177C3.81971 3.97469 3.81935 3.97761 3.81905 3.98054C3.81877 3.98347 3.81855 3.98641 3.8184 3.98935C3.81826 3.9923 3.81819 3.99525 3.81819 3.99819L3.81819 20.0018C3.81819 20.0048 3.81826 20.0077 3.8184 20.0107C3.81855 20.0136 3.81877 20.0165 3.81905 20.0195C3.81935 20.0224 3.81971 20.0253 3.82013 20.0282C3.82057 20.0311 3.82108 20.034 3.82165 20.0369C3.82222 20.0398 3.82286 20.0427 3.82358 20.0456C3.8243 20.0484 3.82508 20.0513 3.82594 20.0541C3.8268 20.0569 3.82772 20.0597 3.82871 20.0625C3.82971 20.0652 3.83077 20.068 3.8319 20.0707C3.83302 20.0734 3.83421 20.0761 3.83546 20.0788C3.83672 20.0814 3.83805 20.0841 3.83944 20.0867C3.84083 20.0893 3.84229 20.0918 3.8438 20.0944C3.84532 20.0969 3.84689 20.0994 3.84851 20.1018C3.85015 20.1043 3.85185 20.1067 3.8536 20.109C3.85536 20.1114 3.85718 20.1137 3.85904 20.116C3.86091 20.1183 3.86284 20.1205 3.86483 20.1227C3.86679 20.1249 3.86883 20.127 3.87092 20.1291C3.873 20.1312 3.87513 20.1332 3.87732 20.1352C3.87949 20.1372 3.88172 20.1391 3.884 20.141C3.88628 20.1428 3.8886 20.1446 3.89096 20.1464C3.89333 20.1481 3.89574 20.1499 3.89818 20.1515C3.90063 20.1531 3.90312 20.1547 3.90565 20.1562C3.90817 20.1577 3.91073 20.1592 3.91334 20.1606C3.91594 20.1619 3.91856 20.1633 3.92122 20.1645C3.92389 20.1658 3.92658 20.167 3.9293 20.1681C3.93202 20.1692 3.93477 20.1703 3.93755 20.1713C3.94032 20.1723 3.94311 20.1732 3.94594 20.1741C3.94876 20.1749 3.95159 20.1757 3.95445 20.1764C3.95731 20.1771 3.96019 20.1778 3.96308 20.1784C3.96597 20.1789 3.96886 20.1794 3.97177 20.1799C3.97469 20.1803 3.97761 20.1807 3.98054 20.181C3.98347 20.1812 3.98641 20.1814 3.98935 20.1816C3.9923 20.1818 3.99525 20.1818 3.99819 20.1818L20.0018 20.1818C20.0048 20.1818 20.0077 20.1818 20.0107 20.1816C20.0136 20.1814 20.0165 20.1812 20.0195 20.181C20.0224 20.1807 20.0253 20.1803 20.0282 20.1799C20.0311 20.1794 20.034 20.1789 20.0369 20.1784C20.0398 20.1778 20.0427 20.1771 20.0456 20.1764C20.0484 20.1757 20.0513 20.1749 20.0541 20.1741C20.0569 20.1732 20.0597 20.1723 20.0625 20.1713C20.0652 20.1703 20.068 20.1692 20.0707 20.1681C20.0734 20.167 20.0761 20.1658 20.0788 20.1645C20.0814 20.1633 20.0841 20.1619 20.0867 20.1606C20.0893 20.1592 20.0918 20.1577 20.0944 20.1562C20.0969 20.1547 20.0994 20.1531 20.1018 20.1515C20.1043 20.1499 20.1067 20.1481 20.109 20.1464C20.1114 20.1446 20.1137 20.1428 20.116 20.141C20.1183 20.1391 20.1205 20.1372 20.1227 20.1352C20.1249 20.1332 20.127 20.1312 20.1291 20.1291C20.1312 20.127 20.1332 20.1249 20.1352 20.1227C20.1372 20.1205 20.1391 20.1183 20.141 20.116C20.1428 20.1137 20.1446 20.1114 20.1464 20.109C20.1482 20.1067 20.1499 20.1043 20.1515 20.1018C20.1531 20.0994 20.1547 20.0969 20.1562 20.0944C20.1577 20.0918 20.1592 20.0893 20.1606 20.0867C20.1619 20.0841 20.1633 20.0814 20.1645 20.0788C20.1658 20.0761 20.167 20.0734 20.1681 20.0707C20.1692 20.068 20.1703 20.0652 20.1713 20.0625C20.1723 20.0597 20.1732 20.0569 20.1741 20.0541C20.1749 20.0513 20.1757 20.0484 20.1764 20.0456C20.1772 20.0427 20.1778 20.0398 20.1784 20.0369C20.1789 20.034 20.1794 20.0311 20.1799 20.0282C20.1803 20.0253 20.1807 20.0224 20.181 20.0195C20.1813 20.0165 20.1815 20.0136 20.1816 20.0107C20.1818 20.0077 20.1818 20.0048 20.1818 20.0018L20.1818 11.1818C20.1818 11.1684 20.1821 11.1551 20.1828 11.1417C20.1835 11.1283 20.1844 11.115 20.1858 11.1016C20.1871 11.0883 20.1887 11.075 20.1907 11.0618C20.1926 11.0485 20.1949 11.0353 20.1975 11.0222C20.2001 11.0091 20.2031 10.996 20.2063 10.983C20.2096 10.97 20.2132 10.9571 20.217 10.9443C20.2209 10.9315 20.2251 10.9188 20.2296 10.9062C20.2342 10.8936 20.239 10.8811 20.2441 10.8687C20.2492 10.8563 20.2546 10.8441 20.2604 10.832C20.2661 10.8199 20.2721 10.8079 20.2784 10.7961C20.2847 10.7843 20.2913 10.7727 20.2982 10.7612C20.3051 10.7497 20.3123 10.7384 20.3197 10.7273C20.3271 10.7161 20.3348 10.7052 20.3428 10.6944C20.3508 10.6837 20.359 10.6731 20.3675 10.6628C20.376 10.6524 20.3848 10.6423 20.3938 10.6324C20.4028 10.6224 20.412 10.6127 20.4215 10.6033C20.4309 10.5938 20.4406 10.5846 20.4506 10.5756C20.4605 10.5666 20.4706 10.5578 20.481 10.5494C20.4913 10.5409 20.5019 10.5326 20.5126 10.5247C20.5234 10.5167 20.5343 10.509 20.5454 10.5015C20.5566 10.4941 20.5679 10.4869 20.5794 10.48C20.5909 10.4732 20.6025 10.4666 20.6143 10.4603C20.6261 10.4539 20.6381 10.4479 20.6502 10.4422C20.6623 10.4365 20.6745 10.431 20.6869 10.4259C20.6993 10.4208 20.7117 10.416 20.7244 10.4115C20.737 10.407 20.7497 10.4028 20.7625 10.3989C20.7753 10.395 20.7882 10.3914 20.8012 10.3882C20.8142 10.3849 20.8272 10.382 20.8404 10.3794C20.8535 10.3767 20.8667 10.3744 20.88 10.3725C20.8932 10.3705 20.9065 10.3689 20.9198 10.3676C20.9331 10.3663 20.9465 10.3653 20.9599 10.3646C20.9732 10.364 20.9866 10.3636 21 10.3636C21.0134 10.3636 21.0268 10.364 21.0401 10.3646C21.0535 10.3653 21.0669 10.3663 21.0802 10.3676C21.0935 10.3689 21.1068 10.3705 21.12 10.3725C21.1333 10.3744 21.1465 10.3767 21.1596 10.3794C21.1728 10.382 21.1858 10.3849 21.1988 10.3882C21.2118 10.3914 21.2247 10.395 21.2375 10.3989C21.2503 10.4028 21.263 10.407 21.2756 10.4115C21.2882 10.416 21.3007 10.4208 21.3131 10.4259C21.3255 10.431 21.3377 10.4365 21.3498 10.4422C21.3619 10.4479 21.3739 10.4539 21.3857 10.4603C21.3975 10.4666 21.4092 10.4732 21.4206 10.48C21.4321 10.4869 21.4434 10.4941 21.4545 10.5015C21.4657 10.509 21.4766 10.5167 21.4874 10.5247C21.4981 10.5326 21.5087 10.5409 21.519 10.5494C21.5294 10.5578 21.5395 10.5666 21.5494 10.5756C21.5594 10.5846 21.5691 10.5938 21.5785 10.6033C21.588 10.6127 21.5972 10.6224 21.6062 10.6324C21.6152 10.6423 21.624 10.6524 21.6325 10.6628C21.641 10.6731 21.6492 10.6837 21.6572 10.6944C21.6652 10.7052 21.6729 10.7161 21.6803 10.7273C21.6877 10.7384 21.6949 10.7497 21.7018 10.7612C21.7087 10.7727 21.7153 10.7843 21.7216 10.7961C21.7279 10.8079 21.7339 10.8199 21.7396 10.832C21.7454 10.8441 21.7508 10.8563 21.7559 10.8687C21.761 10.8811 21.7658 10.8936 21.7703 10.9062C21.7749 10.9188 21.7791 10.9315 21.783 10.9443C21.7868 10.9571 21.7904 10.97 21.7937 10.983C21.7969 10.996 21.7999 11.0091 21.8025 11.0222C21.8051 11.0353 21.8074 11.0485 21.8093 11.0618C21.8113 11.075 21.8129 11.0883 21.8142 11.1016C21.8156 11.115 21.8165 11.1283 21.8172 11.1417C21.8179 11.1551 21.8182 11.1684 21.8182 11.1818L21.8182 20.0018C21.8181 20.0315 21.8173 20.0612 21.8157 20.0909C21.8142 20.1205 21.8119 20.1501 21.8089 20.1797C21.806 20.2092 21.8022 20.2387 21.7978 20.2681C21.7934 20.2974 21.7883 20.3267 21.7824 20.3558C21.7765 20.3849 21.77 20.4139 21.7627 20.4427C21.7554 20.4715 21.7474 20.5001 21.7388 20.5285C21.7301 20.5569 21.7207 20.5851 21.7107 20.613C21.7006 20.641 21.6899 20.6686 21.6785 20.6961C21.6671 20.7235 21.655 20.7506 21.6423 20.7775C21.6295 20.8043 21.6161 20.8308 21.6021 20.857C21.5881 20.8832 21.5734 20.909 21.5581 20.9344C21.5428 20.9599 21.5269 20.985 21.5104 21.0097C21.4939 21.0343 21.4768 21.0586 21.4591 21.0825C21.4414 21.1063 21.4231 21.1297 21.4042 21.1527C21.3854 21.1756 21.366 21.1981 21.346 21.2201C21.3261 21.2421 21.3056 21.2636 21.2846 21.2846C21.2636 21.3056 21.2421 21.3261 21.2201 21.346C21.1981 21.366 21.1756 21.3854 21.1527 21.4042C21.1297 21.4231 21.1063 21.4414 21.0825 21.4591C21.0586 21.4768 21.0343 21.4939 21.0097 21.5104C20.985 21.5269 20.9599 21.5428 20.9344 21.5581C20.909 21.5734 20.8832 21.5881 20.857 21.6021C20.8308 21.6161 20.8043 21.6295 20.7775 21.6423C20.7506 21.655 20.7235 21.6671 20.6961 21.6785C20.6686 21.6899 20.641 21.7006 20.613 21.7107C20.5851 21.7207 20.5569 21.7301 20.5285 21.7388C20.5001 21.7474 20.4715 21.7554 20.4427 21.7627C20.4139 21.77 20.3849 21.7765 20.3558 21.7824C20.3267 21.7883 20.2974 21.7934 20.2681 21.7978C20.2387 21.8022 20.2092 21.806 20.1797 21.8089C20.1501 21.8119 20.1205 21.8142 20.0909 21.8157C20.0612 21.8173 20.0315 21.8181 20.0018 21.8182Z"   fill="#717171" >
</path>
<path d="M11.1818 13.6364C11.1684 13.6363 11.1551 13.636 11.1417 13.6353C11.1283 13.6346 11.115 13.6335 11.1017 13.6322C11.0884 13.6308 11.0751 13.6292 11.0619 13.6272C11.0486 13.6252 11.0355 13.6229 11.0223 13.6202C11.0092 13.6176 10.9962 13.6146 10.9832 13.6114C10.9702 13.6081 10.9573 13.6045 10.9446 13.6006C10.9318 13.5967 10.9191 13.5925 10.9065 13.5879C10.8939 13.5834 10.8814 13.5786 10.869 13.5735C10.8567 13.5683 10.8445 13.5629 10.8324 13.5572C10.8203 13.5514 10.8083 13.5454 10.7965 13.5391C10.7847 13.5328 10.7731 13.5262 10.7616 13.5194C10.7501 13.5125 10.7388 13.5053 10.7277 13.4979C10.7165 13.4905 10.7056 13.4828 10.6948 13.4748C10.6841 13.4669 10.6735 13.4586 10.6632 13.4502C10.6528 13.4417 10.6427 13.433 10.6327 13.424C10.6228 13.415 10.6131 13.4058 10.6036 13.3964C10.5941 13.387 10.5848 13.3773 10.5757 13.3674C10.5667 13.3576 10.5579 13.3475 10.5493 13.3371C10.5407 13.3268 10.5324 13.3163 10.5244 13.3056C10.5164 13.2949 10.5086 13.2839 10.5011 13.2728C10.4936 13.2617 10.4864 13.2504 10.4795 13.239C10.4725 13.2275 10.4659 13.2158 10.4595 13.2041C10.4531 13.1923 10.4471 13.1803 10.4413 13.1682C10.4355 13.1561 10.43 13.1439 10.4249 13.1315C10.4197 13.1191 10.4149 13.1066 10.4103 13.094C10.4058 13.0814 10.4015 13.0687 10.3976 13.0559C10.3937 13.0431 10.3901 13.0302 10.3868 13.0172C10.3835 13.0042 10.3806 12.9911 10.3779 12.978C10.3753 12.9648 10.373 12.9516 10.371 12.9384C10.369 12.9251 10.3674 12.9118 10.366 12.8985C10.3647 12.8851 10.3637 12.8718 10.3631 12.8584C10.3624 12.845 10.3621 12.8316 10.3621 12.8182C10.3621 12.8048 10.3624 12.7914 10.3631 12.778C10.3637 12.7646 10.3647 12.7513 10.366 12.7379C10.3674 12.7246 10.369 12.7113 10.371 12.698C10.373 12.6848 10.3753 12.6716 10.3779 12.6584C10.3806 12.6453 10.3835 12.6322 10.3868 12.6192C10.3901 12.6062 10.3937 12.5933 10.3976 12.5805C10.4015 12.5677 10.4058 12.555 10.4103 12.5424C10.4149 12.5298 10.4197 12.5173 10.4249 12.5049C10.43 12.4925 10.4355 12.4803 10.4413 12.4682C10.4471 12.4561 10.4531 12.4441 10.4595 12.4324C10.4659 12.4206 10.4725 12.4089 10.4795 12.3975C10.4864 12.386 10.4936 12.3747 10.5011 12.3636C10.5086 12.3525 10.5164 12.3416 10.5244 12.3308C10.5324 12.3201 10.5407 12.3096 10.5493 12.2993C10.5579 12.289 10.5667 12.2789 10.5757 12.269C10.5848 12.2591 10.5941 12.2494 10.6036 12.24L20.1491 2.69456C20.1587 2.68564 20.1684 2.67695 20.1784 2.6685C20.1884 2.66005 20.1986 2.65184 20.209 2.64387C20.2194 2.63591 20.23 2.6282 20.2407 2.62073C20.2515 2.61328 20.2624 2.60609 20.2735 2.59915C20.2846 2.59223 20.2959 2.58557 20.3073 2.57918C20.3187 2.57277 20.3303 2.56666 20.342 2.56083C20.3537 2.55498 20.3656 2.54943 20.3776 2.54416C20.3895 2.5389 20.4017 2.53392 20.4139 2.52923C20.4261 2.52455 20.4384 2.52016 20.4508 2.51606C20.4633 2.51197 20.4758 2.50817 20.4884 2.50467C20.501 2.50117 20.5137 2.49798 20.5265 2.49511C20.5393 2.49222 20.5521 2.48964 20.565 2.48737C20.5779 2.48511 20.5908 2.48315 20.6038 2.48149C20.6168 2.47984 20.6298 2.4785 20.6428 2.47748C20.6559 2.47645 20.669 2.47574 20.682 2.47535C20.6951 2.47496 20.7082 2.47487 20.7213 2.47509C20.7344 2.47533 20.7475 2.47587 20.7605 2.47673C20.7736 2.47759 20.7866 2.47877 20.7996 2.48025C20.8126 2.48173 20.8256 2.48353 20.8385 2.48564C20.8514 2.48773 20.8643 2.49015 20.8771 2.49288C20.8899 2.4956 20.9026 2.49862 20.9153 2.50195C20.9279 2.5053 20.9405 2.50894 20.953 2.51287C20.9655 2.51681 20.9778 2.52105 20.9901 2.52558C21.0024 2.53011 21.0146 2.53493 21.0266 2.54004C21.0387 2.54516 21.0506 2.55057 21.0624 2.55626C21.0742 2.56194 21.0858 2.56791 21.0973 2.57414C21.1088 2.58039 21.1202 2.58691 21.1314 2.59371C21.1425 2.60049 21.1536 2.60755 21.1644 2.61487C21.1753 2.62219 21.1859 2.62977 21.1964 2.63761C21.2069 2.64544 21.2172 2.65352 21.2273 2.66184C21.2374 2.67017 21.2473 2.67873 21.257 2.68753C21.2667 2.69633 21.2762 2.70535 21.2854 2.7146C21.2947 2.72387 21.3037 2.73334 21.3125 2.74303C21.3213 2.75272 21.3298 2.76261 21.3382 2.7727C21.3465 2.78281 21.3546 2.79311 21.3624 2.80359C21.3703 2.81408 21.3778 2.82475 21.3851 2.83561C21.3925 2.84645 21.3995 2.85747 21.4063 2.86866C21.4131 2.87984 21.4196 2.8912 21.4259 2.90271C21.4321 2.91421 21.4381 2.92585 21.4438 2.93763C21.4495 2.94943 21.4548 2.96135 21.46 2.9734C21.4651 2.98544 21.4699 2.99761 21.4744 3.00989C21.479 3.02217 21.4832 3.03456 21.4871 3.04704C21.4911 3.05952 21.4947 3.07209 21.4981 3.08475C21.5014 3.09741 21.5044 3.11013 21.5071 3.12293C21.5099 3.13574 21.5123 3.1486 21.5144 3.16151C21.5165 3.17443 21.5183 3.1874 21.5198 3.20041C21.5212 3.21341 21.5224 3.22645 21.5233 3.23951C21.5241 3.25257 21.5247 3.26564 21.5249 3.27872C21.5251 3.29181 21.5251 3.3049 21.5247 3.31798C21.5243 3.33105 21.5236 3.34412 21.5225 3.35719C21.5215 3.37023 21.5202 3.38325 21.5185 3.39623C21.5169 3.40922 21.5149 3.42216 21.5126 3.43505C21.5104 3.44794 21.5078 3.46077 21.5049 3.47353C21.502 3.4863 21.4988 3.49898 21.4953 3.51159C21.4918 3.52422 21.4881 3.53674 21.484 3.54916C21.4799 3.5616 21.4755 3.57393 21.4708 3.58615C21.4661 3.59837 21.4611 3.61047 21.4558 3.62245C21.4506 3.63444 21.445 3.64629 21.4392 3.65801C21.4333 3.66973 21.4273 3.6813 21.4209 3.69272C21.4145 3.70414 21.4078 3.7154 21.4009 3.72649C21.3939 3.7376 21.3867 3.74853 21.3793 3.75928C21.3718 3.77005 21.3641 3.78062 21.3561 3.79101C21.3482 3.80139 21.34 3.81158 21.3315 3.82158C21.3231 3.83158 21.3144 3.84136 21.3055 3.85092L11.76 13.3964C11.7505 13.4058 11.7408 13.415 11.7309 13.424C11.7209 13.433 11.7108 13.4417 11.7004 13.4502C11.6901 13.4586 11.6795 13.4669 11.6688 13.4748C11.658 13.4828 11.6471 13.4905 11.6359 13.4979C11.6248 13.5053 11.6135 13.5125 11.602 13.5194C11.5906 13.5262 11.5789 13.5328 11.5671 13.5391C11.5553 13.5454 11.5434 13.5514 11.5313 13.5572C11.5192 13.5629 11.5069 13.5683 11.4946 13.5735C11.4822 13.5786 11.4697 13.5834 11.4572 13.5879C11.4446 13.5925 11.4319 13.5967 11.4191 13.6006C11.4063 13.6045 11.3934 13.6081 11.3804 13.6114C11.3674 13.6146 11.3544 13.6176 11.3413 13.6202C11.3282 13.6229 11.315 13.6252 11.3018 13.6272C11.2885 13.6292 11.2753 13.6308 11.2619 13.6322C11.2486 13.6335 11.2353 13.6346 11.2219 13.6353C11.2086 13.636 11.1952 13.6363 11.1818 13.6364Z"   fill="#717171" >
</path>
</svg>
