<?xml version="1.0" encoding="UTF-8"?><svg version="1.1" width="28px" height="28px" viewBox="0 0 28.0 28.0" xmlns="http://www.w3.org/2000/svg" xmlns:xlink="http://www.w3.org/1999/xlink"><defs><clipPath id="i0"><path d="M1735,0 L1735,1080 L0,1080 L0,0 L1735,0 Z"></path></clipPath><clipPath id="i1"><path d="M13.4615385,17.5384569 C13.7589226,17.5384569 14,17.8656344 14,18.2692284 C14,18.6728224 13.7589226,19 13.4615385,19 L0.538461538,19 C0.241077442,19 0,18.6728224 0,18.2692284 C0,17.8656344 0.241077442,17.5384569 0.538461538,17.5384569 L13.4615385,17.5384569 Z M16.895141,0.785031368 L17.2400641,1.12971195 C18.2875,2.17642044 18.2875,3.87375921 17.2400641,4.92071128 L7.37151283,14.7829609 C6.88172107,15.2724363 6.26306733,15.612849 5.58746154,15.7646306 L2.11070514,16.5455819 C1.56628206,16.6681079 1.09079489,16.1607089 1.24864102,15.6255405 L2.23834615,12.271299 C2.41119381,11.6853031 2.7281843,11.1519868 3.16033333,10.7201145 L13.1017179,0.785031368 C14.1491538,-0.261677123 15.8477051,-0.261677123 16.895141,0.785031368 Z M12.3392821,3.61506607 L4.19461538,11.7541563 C3.93543891,12.0132491 3.74533106,12.3331673 3.64166667,12.6846721 L3.00346154,14.8462944 L5.26641025,14.337921 C5.67171075,14.2469009 6.04286358,14.0427409 6.3367436,13.7491626 L14.4083333,5.68266245 L12.3392821,3.61506607 Z M14.1362436,1.81882955 L13.3735641,2.58126789 L15.4426154,4.64886425 L16.2050513,3.8866695 C16.4336795,3.6582301 16.5621375,3.34828599 16.5621375,3.02508981 C16.5621375,2.70189364 16.4336795,2.39194953 16.2050513,2.16351013 L15.8603718,1.81882955 C15.3841501,1.34300524 14.6124653,1.34300524 14.1362436,1.81882955 Z"></path></clipPath></defs><g transform="translate(-257.0 -567.0)"><g clip-path="url(#i0)"><g transform="translate(257.0 567.0)"><g transform="translate(0.9999999999999947 1.0)"><g transform="translate(1.0 2.0)"><path d="M23,12.1640625 C23,13.0813079 23,14.4571759 23,16.2916667 C23,19.9965769 19.9965769,23 16.2916667,23 L6.70833333,23 C3.00342314,23 0,19.9965769 0,16.2916667 L0,6.70833333 C0,3.00342314 3.00342314,0 6.70833333,0 C8.60857928,0 10.0337637,0 10.9838867,0" stroke="#44444F" stroke-width="1.7" fill="none" stroke-linecap="round" stroke-miterlimit="10"></path><g transform="translate(3.999999999999991 4.085620730620576e-14)"><g clip-path="url(#i1)"><polygon points="0,0 18.025641,0 18.025641,19 0,19 0,0" stroke="none" fill="#44444F"></polygon></g></g></g></g></g></g></g></svg>