<svg t="1724232987040" class="icon" viewBox="0 0 1024 1024" version="1.1" xmlns="http://www.w3.org/2000/svg" p-id="19082" data-spm-anchor-id="a313x.search_index.0.i6.216a3a81r3SdIW" width="256" height="256"><path d="M912 941.44H96.64A96.64 96.64 0 0 1 0 845.44V160C0.32 106.88 43.52 64 96.64 64h279.68a96 96 0 0 1 72.96 33.28l56.96 64a29.44 29.44 0 0 0 24.32 11.52l379.52-3.84c53.12 0 96.32 42.88 96.64 96v576a96.64 96.64 0 0 1-94.72 100.48zM96.64 128a32.064 32.064 0 0 0-32.64 32v685.44a32 32 0 0 0 32.64 32h815.36a32.064 32.064 0 0 0 32.64-32v-576a32.64 32.64 0 0 0-32.64-32l-378.88 3.84a98.56 98.56 0 0 1-73.6-35.84l-56.32-64A33.28 33.28 0 0 0 376.32 128H96.64z" fill="currentColor" p-id="19083" data-spm-anchor-id="a313x.search_index.0.i10.216a3a81r3SdIW" class="selected"></path><path d="M394.048 320l-7.488 0.448A64 64 0 0 0 330.048 384l-0.064 112.448H320a64 64 0 0 0-51.328 102.208l154.496 207.552a64 64 0 0 0 99.84 3.584l165.44-192 4.352-5.568C721.6 570.88 692.352 512 640 512h-18.816l0.064-128a64 64 0 0 0-64-64h-163.2z m163.2 64v192H640l-165.504 192L320 560.448h74.048V384h163.2z" fill="currentColor" p-id="19084" data-spm-anchor-id="a313x.search_index.0.i7.216a3a81r3SdIW" class="selected"></path></svg>