<svg xmlns="http://www.w3.org/2000/svg" xmlns:xlink="http://www.w3.org/1999/xlink" width="32" height="32" viewBox="0 0 32 32" fill="none">
<path d="M16 0C24.8365 0 32 7.16353 32 16C32 24.8365 24.8365 32 16 32C7.16353 32 0 24.8365 0 16C0 7.16353 7.16353 0 16 0ZM7.00097 13.1747L7 13.396L7.01281 19.2088L7.00544 20.3682L7.01375 20.865L7.02287 21.0347L7.036 21.1517L7.03856 21.1661C7.04016 21.1752 7.04209 21.1832 7.044 21.1904C7.08081 21.3287 7.16031 21.448 7.28288 21.5589C7.39153 21.6571 7.52481 21.7438 7.72719 21.8554C8.71056 22.395 9.65359 22.7914 10.6144 23.0623C11.6093 23.3427 12.6358 23.4928 13.7434 23.5168C14.8878 23.5416 15.9558 23.4223 17.0002 23.1573C18.0002 22.9035 18.9907 22.5131 20.0371 21.969C20.8162 21.5637 21.6643 20.9304 22.4424 20.181L22.7183 19.9072L22.9835 19.6277L23.0912 19.5064L23.0301 19.5416L22.8043 19.6565L22.7222 19.6954C21.8457 20.1014 20.9352 20.2166 19.9205 20.0949L19.611 20.052L19.304 19.9976L19.2264 19.9816L19.148 19.965L18.8232 19.8882L18.7382 19.8662L18.6515 19.8432L18.2826 19.7383L18.2171 19.7187C18.1731 19.7056 18.1283 19.692 18.0824 19.6779L17.4017 19.4607L17.0699 19.3503L16.1 18.9997L15.6232 18.8205L15.2158 18.6618L14.9983 18.5725L14.7667 18.468L14.7448 18.457C14.7223 18.4457 14.7005 18.4333 14.6794 18.4197L14.3657 18.2631L13.5453 17.8786L13.035 17.6262L12.852 17.5309C11.9371 17.0483 11.0328 16.4773 10.1336 15.821C9.26594 15.1877 8.40816 14.4789 7.54625 13.6909L7.11472 13.2902L7.00097 13.1747ZM24.3048 12.9403L23.98 12.947L23.8557 12.9534C23.6114 12.9672 23.3684 12.9933 23.1268 13.0317C22.8851 13.0702 22.6461 13.1208 22.4096 13.1837C22.1932 13.242 21.9802 13.311 21.7706 13.3906C21.561 13.4702 21.356 13.5601 21.1554 13.6602C20.9502 13.7627 20.7503 13.8748 20.5559 13.9965C20.3615 14.1182 20.1733 14.2489 19.9914 14.3886L19.788 14.5485L19.7384 14.5885L19.6891 14.6293L19.4901 14.799L19.2798 14.9878L19.0469 15.2056L17.9574 16.2635L17.8848 16.3326C17.3576 16.8318 16.9643 17.1624 16.5118 17.4737L16.3331 17.5938L15.8614 17.899L15.7936 17.9417C15.7045 17.9977 15.62 18.0496 15.5402 18.0974L15.3048 18.2331L15.6493 18.3699L16.6629 18.7483L17.291 18.9715L18 19.2024L18.4017 19.3259L18.7598 19.428L18.8438 19.4504C18.9269 19.4725 19.007 19.4927 19.0853 19.5112L19.3891 19.5777L19.463 19.5922L19.5363 19.6057L19.8287 19.6522L19.9023 19.6618L19.9763 19.6712C20.9339 19.7862 21.7835 19.6718 22.6008 19.2755C23.647 18.768 24.1416 18.2496 24.8325 16.9866L25.0581 16.5621L25.4137 15.8674L25.5699 15.5669L25.6179 15.4752C26.0958 14.5699 26.4562 14.0163 26.9517 13.5047L27 13.455L26.8838 13.4104L26.7414 13.3594L26.4443 13.261L26.1902 13.1853L26.0757 13.1552C25.8387 13.096 25.5993 13.0491 25.3576 13.0143C25.1158 12.9795 24.8729 12.9572 24.6288 12.9472L24.3048 12.9403ZM10.3896 8.52L10.6744 8.72513L11.0778 9.02144L11.2394 9.14272C11.6962 9.48678 12.1408 9.84594 12.5733 10.2202C13.1845 10.7514 13.7658 11.3135 14.3173 11.9066C14.8293 12.455 15.2725 12.9622 15.681 13.4698C16.001 13.8672 16.305 14.271 16.603 14.6955L16.9528 15.2093L17.5179 16.108L17.8707 15.7806L18.4056 15.2683L18.7128 14.9802L19.1173 14.6101L19.211 14.5269C19.4689 14.2978 19.7358 14.0797 20.0115 13.8725C20.2342 13.7058 20.4995 13.5422 20.7936 13.3878C20.9981 13.2811 21.2066 13.183 21.4192 13.0934L21.7762 12.9523L21.9697 12.8882L21.965 12.8597L21.9544 12.8166C21.9099 12.6405 21.8349 12.4174 21.7355 12.1629L21.5933 11.8157L21.5603 11.7389C21.3379 11.2277 21.0713 10.6997 20.8717 10.3709L20.4706 9.75041L20.2493 9.42688L20.2117 9.37409C19.9133 8.95934 19.6768 8.70656 19.475 8.61409C19.3389 8.55153 19.2205 8.52769 19.0147 8.52225L18.7758 8.52225L18.6034 8.52481L10.455 8.52369L10.3896 8.52Z"   fill="#3370FF" >
</path>
</svg>
