<svg xmlns="http://www.w3.org/2000/svg" xmlns:xlink="http://www.w3.org/1999/xlink" width="20" height="20" viewBox="0 0 20 20" fill="none">
<path d="M5.12384 4.7619L11.4924 4.7619C11.4924 4.7619 13.2829 6.41237 13.2829 8.68094L10.2981 10.7428C10.2981 10.7428 8.70669 7.03046 5.12384 4.7619Z"   fill="#00DAB8" >
</path>
<path d="M16.6667 8.26859C16.6667 8.26859 14.4772 7.44287 13.0848 8.06193C11.6915 8.68097 11.0943 9.50574 10.4972 10.1248C9.70195 10.9495 8.3086 12.3934 7.1143 11.5686C5.92002 10.7429 11.8905 14.4562 11.8905 14.4562C11.8905 14.4562 14.38 13.0572 15.2734 10.7429C16.0696 8.68097 16.6667 8.26859 16.6667 8.26859Z"   fill="#0C3AA0" >
</path>
<path d="M3.33331 7.8562L3.33331 14.0429C3.33331 14.0429 5.52663 16.741 10.6962 15.281C12.8857 14.6619 14.6771 11.7743 14.6771 11.7743C14.6771 11.7743 12.0885 16.1057 3.33331 7.85716L3.33331 7.8562Z"   fill="#296DFF" >
</path>
</svg>
