<svg xmlns="http://www.w3.org/2000/svg" xmlns:xlink="http://www.w3.org/1999/xlink" width="21.75" height="20.25" viewBox="0 0 21.75 20.25" fill="none">
<path d="M20.25 3L8.90325 3L7.72275 0.79275C7.7148 0.77786 7.7066 0.763109 7.69816 0.7485C7.6897 0.733891 7.68101 0.71943 7.67208 0.705117C7.66315 0.69079 7.65396 0.676624 7.64456 0.662625C7.63514 0.648609 7.62548 0.634767 7.61562 0.621094C7.60573 0.607406 7.59562 0.59389 7.58529 0.580547C7.57495 0.567204 7.56438 0.554039 7.5536 0.541055C7.54282 0.528087 7.53183 0.51529 7.5206 0.502664C7.50937 0.490055 7.49796 0.47764 7.48631 0.465417C7.47469 0.453192 7.46285 0.441166 7.4508 0.42934C7.43876 0.417516 7.42652 0.405895 7.41408 0.394484C7.40166 0.383074 7.38905 0.371873 7.37623 0.360888C7.36341 0.349903 7.35042 0.339136 7.33723 0.328589C7.32405 0.318045 7.31069 0.307723 7.29717 0.297628C7.28365 0.287534 7.26996 0.277669 7.25611 0.268036C7.24226 0.258403 7.22824 0.249007 7.21406 0.239848C7.19988 0.230688 7.18554 0.221771 7.17108 0.213097C7.15659 0.204421 7.14197 0.195994 7.1272 0.187814C7.11246 0.179633 7.09755 0.171703 7.08253 0.164025C7.06751 0.156347 7.05234 0.148925 7.03706 0.14176C7.02178 0.134594 7.00638 0.127689 6.99087 0.121043C6.97535 0.1144 6.95972 0.108018 6.94399 0.1019C6.92827 0.0957825 6.91245 0.0899323 6.89651 0.0843497C6.88059 0.0787669 6.86456 0.073455 6.84846 0.0684143C6.83236 0.0633722 6.81616 0.0586043 6.7999 0.0541106C6.78363 0.0496151 6.7673 0.0453963 6.75089 0.0414541C6.73446 0.0375122 6.71798 0.033848 6.70146 0.030462C6.68494 0.0270762 6.66834 0.0239707 6.6517 0.0211456C6.63506 0.0183207 6.61837 0.0157769 6.60166 0.0135144C6.58493 0.0112535 6.56817 0.00927544 6.55139 0.00758011C6.53459 0.00588476 6.51778 0.00447302 6.50093 0.00334488C6.48408 0.00221837 6.46723 0.00137615 6.45037 0.000818252C6.4335 0.000260531 6.41662 -1.21594e-05 6.39975 3.57628e-07L1.5 3.57628e-07C0.67275 3.57628e-07 0 0.67275 0 1.5L0 18.75C0 19.5772 0.67275 20.25 1.5 20.25L20.25 20.25C21.0772 20.25 21.75 19.5772 21.75 18.75L21.75 4.5C21.75 3.67275 21.0772 3 20.25 3ZM1.5 1.5L6.39975 1.5L8.004 4.5L20.25 4.5L20.25 6.7965C20.2402 6.7965 20.2312 6.7935 20.2215 6.7935L1.52925 6.7935C1.5195 6.7935 1.5105 6.7965 1.5 6.7965L1.5 1.5ZM1.5 18.75L1.5 16.5L1.52925 8.2935L20.25 8.322L20.25 16.5L20.2515 16.5L20.2515 18.75L1.5 18.75Z"   fill="currentColor" >
</path>
</svg>
