<svg xmlns="http://www.w3.org/2000/svg" xmlns:xlink="http://www.w3.org/1999/xlink" width="24" height="24" viewBox="0 0 24 24" fill="none">
<path     fill="#000000"  d="M0 19.5L0 4.5C0 2.01472 2.01472 0 4.5 0L19.5 0C21.9853 0 24 2.01472 24 4.5L24 19.5C24 21.9853 21.9853 24 19.5 24L4.5 24C2.01472 24 0 21.9853 0 19.5Z">
</path>
<path   fill-rule="evenodd"  fill="#FFFFFF"  d="M12.0197 7.40998L16.0097 9.65998L16.0097 14.16L12.0197 16.41L8.03971 14.16L8.03971 9.65998L12.0197 7.40998Z">
</path>
<path   fill-rule="evenodd"  fill="#FFFFFF" fill-opacity="0.5" d="M15.9497 5.22999C15.9365 5.26575 15.9239 5.29464 15.9097 5.32999C15.8955 5.36536 15.8749 5.40505 15.8597 5.43999C15.8445 5.47494 15.8359 5.50549 15.8197 5.53999C15.8035 5.5745 15.7868 5.61596 15.7697 5.64999C15.7525 5.68402 15.7278 5.71647 15.7097 5.74999C15.6916 5.78353 15.6787 5.807 15.6597 5.83999C15.6406 5.873 15.6197 5.90752 15.5997 5.93999C15.5797 5.97244 15.5606 6.00812 15.5397 6.03999C15.5188 6.07188 15.4915 6.10872 15.4697 6.13999C15.4479 6.17126 15.4323 6.19933 15.4097 6.22999C15.387 6.26063 15.3632 6.29 15.3397 6.31999C15.3162 6.34999 15.284 6.38067 15.2597 6.40999C15.2353 6.43931 15.2148 6.47137 15.1897 6.49999C15.1645 6.5286 15.1356 6.55209 15.1097 6.57999C15.0837 6.60788 15.0664 6.63283 15.0397 6.65999C15.0129 6.68715 14.9872 6.7136 14.9597 6.73999L18.1397 8.53998L18.1397 13.25C18.1757 13.2342 18.2132 13.2247 18.2497 13.21C18.2861 13.1952 18.3228 13.1737 18.3597 13.16C18.3966 13.1462 18.4324 13.1427 18.4697 13.13C18.5069 13.1173 18.5421 13.1016 18.5797 13.09C18.6173 13.0783 18.6518 13.0706 18.6897 13.06C18.7276 13.0494 18.7715 13.03 18.8097 13.03C18.8479 13.03 18.8812 13 18.9197 13C18.9581 13 19.001 12.98 19.0397 12.98C19.0783 12.98 19.1208 12.95 19.1597 12.95C19.1985 12.95 19.2406 12.94 19.2797 12.94C19.3187 12.94 19.3505 12.92 19.3897 12.92C19.4288 12.92 19.4704 12.92 19.5097 12.92C19.5489 12.92 19.5903 12.91 19.6297 12.91C19.669 12.91 19.7003 12.9 19.7397 12.9C19.779 12.9 19.8203 12.9 19.8597 12.9C19.899 12.9 19.9403 12.9 19.9797 12.9L19.9797 7.49998L15.9497 5.22999Z">
</path>
<path   fill-rule="evenodd"  fill="#FFFFFF" fill-opacity="0.5" d="M8.13971 5.17999L4.03973 7.49998L4.03973 12.9C4.07907 12.9 4.12036 12.9 4.15973 12.9C4.19909 12.9 4.24037 12.9 4.27972 12.9C4.31908 12.9 4.3604 12.9 4.39972 12.9C4.43904 12.9 4.48047 12.91 4.51972 12.91C4.55897 12.91 4.60057 12.92 4.63972 12.92C4.67887 12.92 4.7107 12.94 4.74972 12.94C4.78874 12.94 4.83086 12.95 4.86972 12.95C4.90858 12.95 4.94106 12.98 4.97972 12.98C5.01839 12.98 5.06127 13 5.09972 13C5.13816 13 5.17153 13.03 5.20972 13.03C5.24791 13.03 5.29181 13.0494 5.32972 13.06C5.36763 13.0706 5.40213 13.0783 5.43972 13.09C5.47731 13.1016 5.51247 13.1173 5.54972 13.13C5.58697 13.1427 5.62284 13.1462 5.65972 13.16C5.69662 13.1737 5.74324 13.1952 5.77972 13.21C5.81619 13.2247 5.84367 13.2342 5.87972 13.25L5.87972 8.53998L9.11971 6.70999C9.09248 6.68336 9.06616 6.65737 9.03971 6.62999C9.01325 6.60258 8.98539 6.57811 8.95971 6.54999C8.93403 6.52184 8.90458 6.49883 8.87971 6.46999C8.85484 6.44114 8.83374 6.40954 8.80971 6.37999C8.78568 6.35044 8.76289 6.32021 8.73971 6.28999C8.71652 6.25977 8.69201 6.23086 8.66971 6.19999C8.64738 6.16914 8.62114 6.13147 8.59971 6.09999C8.57828 6.06851 8.56024 6.04207 8.53971 6.00999C8.51918 5.97791 8.49933 5.94263 8.47971 5.90999C8.46009 5.87735 8.43839 5.84318 8.41971 5.80999C8.40102 5.77678 8.38745 5.74369 8.36971 5.70999C8.35199 5.67629 8.33648 5.6342 8.31971 5.59999C8.30294 5.5658 8.2855 5.54464 8.26971 5.50999C8.25393 5.47533 8.23451 5.43509 8.21971 5.39999C8.20491 5.36491 8.19351 5.3355 8.17971 5.29999C8.16591 5.2645 8.15249 5.21587 8.13971 5.17999Z">
</path>
<path   fill-rule="evenodd"  fill="#FFFFFF" fill-opacity="0.5" d="M15.6897 16.85L12.0097 18.9199L8.32971 16.85C8.32971 16.8898 8.32971 16.9301 8.32971 16.97C8.32971 17.0098 8.32971 17.0401 8.32971 17.08C8.32971 17.1198 8.31971 17.1602 8.31971 17.2C8.31971 17.2397 8.30971 17.2803 8.30971 17.32C8.30971 17.3596 8.29971 17.4004 8.29971 17.4399C8.29971 17.4795 8.27971 17.5206 8.27971 17.5599C8.27971 17.5993 8.26971 17.6407 8.26971 17.6799C8.26971 17.7191 8.23971 17.751 8.23971 17.7899C8.23971 17.8289 8.20971 17.8713 8.20971 17.9099C8.20971 17.9486 8.19049 17.9816 8.17971 18.0199C8.16893 18.0583 8.16165 18.1019 8.14971 18.1399C8.13778 18.178 8.12277 18.2223 8.10971 18.2599C8.09663 18.2976 8.08391 18.3327 8.06971 18.3699C8.05551 18.4072 8.04502 18.4331 8.02971 18.4699C8.0144 18.5067 7.99615 18.5536 7.97971 18.5899C7.96329 18.6263 7.94724 18.6641 7.92971 18.6999L12.0097 20.9999L16.0997 18.6999C15.8405 18.1722 15.6897 17.5742 15.6897 16.95L15.6897 16.85Z">
</path>
<path   fill-rule="evenodd"  fill="#FFFFFF"  d="M12.0097 3C10.9931 3 10.1697 3.80639 10.1697 4.79999C10.1697 5.7936 10.9923 6.59999 12.0097 6.59999C13.0256 6.59999 13.8497 5.7936 13.8497 4.79999C13.8497 3.80639 13.0256 3 12.0097 3Z">
</path>
<path   fill-rule="evenodd"  fill="#FFFFFF"  d="M18.4397 14.21C17.4238 14.21 16.5997 15.0164 16.5997 16.01C16.5997 17.0035 17.4238 17.8099 18.4397 17.8099C19.4563 17.8099 20.2797 17.0035 20.2797 16.01C20.2797 15.0164 19.4563 14.21 18.4397 14.21Z">
</path>
<path   fill-rule="evenodd"  fill="#FFFFFF"  d="M5.55972 14.21C4.54308 14.21 3.71973 15.0164 3.71973 16.01C3.71973 17.0035 4.54308 17.8099 5.55972 17.8099C6.57563 17.8099 7.39971 17.0035 7.39971 16.01C7.39971 15.0164 6.57563 14.21 5.55972 14.21Z">
</path>
</svg>
