<svg xmlns="http://www.w3.org/2000/svg" width="24" height="24" viewBox="0 0 24 24" fill="none">
  <path d="M3.55 7.89L11.55 11.89C11.69 11.96 11.84 12 12 12C12.16 12 12.31 11.96 12.45 11.89L20.45 7.89C20.79 7.72 21 7.37 21 7C21 6.63 20.79 6.27 20.45 6.11L12.45 2.11C12.17 1.97 11.84 1.97 11.56 2.11L3.55 6.11C3.21 6.28 3 6.63 3 7C3 7.37 3.21 7.73 3.55 7.89Z" fill="currentColor"/>
  <path opacity="0.5" d="M19.5501 11.11L12.0001 14.89L4.45007 11.11C3.96007 10.86 3.35007 11.06 3.11007 11.56C2.87007 12.06 3.06007 12.65 3.56007 12.9L11.5601 16.9C11.7001 16.97 11.8501 17.01 12.0101 17.01C12.1701 17.01 12.3201 16.97 12.4601 16.9L20.4601 12.9C20.9501 12.65 21.1501 12.05 20.9101 11.56C20.6701 11.07 20.0601 10.86 19.5701 11.11H19.5501Z" fill="currentColor"/>
  <path opacity="0.5" d="M19.5496 16.11L11.9996 19.89L4.44958 16.11C3.95958 15.86 3.34958 16.06 3.10958 16.56C2.85958 17.05 3.05958 17.65 3.55958 17.9L11.5596 21.9C11.6996 21.97 11.8496 22.01 12.0096 22.01C12.1696 22.01 12.3196 21.97 12.4596 21.9L20.4596 17.9C20.9496 17.65 21.1496 17.05 20.9096 16.56C20.6596 16.07 20.0596 15.87 19.5696 16.11H19.5496Z" fill="currentColor"/>
</svg>