<svg xmlns="http://www.w3.org/2000/svg" width="28" height="28" viewBox="0 0 28 28" fill="none">
  <g filter="url(#filter0_d_1161_5953)">
    <rect x="6" y="4" width="16" height="16" rx="8" fill="white" fill-opacity="0.1" shape-rendering="crispEdges"/>
    <rect x="6.5" y="4.5" width="15" height="15" rx="7.5" stroke="white" stroke-opacity="0.03" shape-rendering="crispEdges"/>
  </g>
  <path opacity="0.5" d="M13.4479 14.4109H12.032L13.5881 12.8566C13.6155 12.8292 13.6372 12.7968 13.652 12.761C13.6668 12.7253 13.6744 12.687 13.6744 12.6483C13.6744 12.6097 13.6667 12.5714 13.6519 12.5357C13.6371 12.4999 13.6153 12.4675 13.588 12.4401C13.5606 12.4128 13.5281 12.3911 13.4923 12.3763C13.4565 12.3616 13.4182 12.354 13.3795 12.354C13.3408 12.354 13.3024 12.3616 13.2667 12.3764C13.2309 12.3912 13.1984 12.4129 13.1711 12.4403L11.5898 14.0186V12.6163C11.5898 12.5382 11.5587 12.4632 11.5034 12.408C11.4481 12.3527 11.3731 12.3217 11.2949 12.3217C11.2167 12.3217 11.1417 12.3527 11.0864 12.408C11.0311 12.4632 11 12.5382 11 12.6163V14.7057C11 14.8683 11.1319 15 11.2949 15H13.4468C13.525 15.0001 13.6001 14.9692 13.6555 14.914C13.7108 14.8589 13.742 14.784 13.7421 14.7059C13.7422 14.6277 13.7113 14.5528 13.6561 14.4974C13.6008 14.4421 13.5259 14.411 13.4477 14.4109H13.4479ZM16.7059 9.00057H14.5541C14.4758 9.00057 14.4008 9.03161 14.3455 9.08685C14.2902 9.14209 14.2592 9.21702 14.2592 9.29514C14.2592 9.37327 14.2902 9.44819 14.3455 9.50344C14.4008 9.55868 14.4758 9.58971 14.5541 9.58971H15.9694L14.413 11.1434C14.3857 11.1708 14.3639 11.2033 14.3491 11.239C14.3343 11.2747 14.3267 11.313 14.3267 11.3517C14.3267 11.3904 14.3343 11.4287 14.3491 11.4644C14.3639 11.5002 14.3857 11.5326 14.413 11.56C14.4404 11.5874 14.4729 11.6091 14.5087 11.6239C14.5445 11.6387 14.5828 11.6463 14.6216 11.6463C14.6603 11.6463 14.6986 11.6387 14.7344 11.6239C14.7702 11.6091 14.8027 11.5874 14.8301 11.56L16.4102 9.98143V11.3834C16.4102 11.4616 16.4413 11.5365 16.4966 11.5917C16.5519 11.647 16.6269 11.678 16.7051 11.678C16.7833 11.678 16.8583 11.647 16.9136 11.5917C16.9689 11.5365 17 11.4616 17 11.3834V9.29429C17.0001 9.25563 16.9926 9.21734 16.9778 9.1816C16.9631 9.14586 16.9414 9.11339 16.9141 9.08604C16.8867 9.0587 16.8542 9.03702 16.8185 9.02225C16.7827 9.00749 16.7444 8.99993 16.7057 9L16.7059 9.00057Z" fill="white"/>
  <defs>
    <filter id="filter0_d_1161_5953" x="0" y="0" width="28" height="28" filterUnits="userSpaceOnUse" color-interpolation-filters="sRGB">
      <feFlood flood-opacity="0" result="BackgroundImageFix"/>
      <feColorMatrix in="SourceAlpha" type="matrix" values="0 0 0 0 0 0 0 0 0 0 0 0 0 0 0 0 0 0 127 0" result="hardAlpha"/>
      <feOffset dy="2"/>
      <feGaussianBlur stdDeviation="3"/>
      <feComposite in2="hardAlpha" operator="out"/>
      <feColorMatrix type="matrix" values="0 0 0 0 0 0 0 0 0 0 0 0 0 0 0 0 0 0 0.12 0"/>
      <feBlend mode="normal" in2="BackgroundImageFix" result="effect1_dropShadow_1161_5953"/>
      <feBlend mode="normal" in="SourceGraphic" in2="effect1_dropShadow_1161_5953" result="shape"/>
    </filter>
  </defs>
</svg>