<svg xmlns="http://www.w3.org/2000/svg" xmlns:xlink="http://www.w3.org/1999/xlink" width="32" height="32" viewBox="0 0 32 32" fill="none">
<path d="M16 0C15.7381 0 15.4765 0.00642553 15.2149 0.0192771C14.9534 0.0321285 14.6923 0.0513803 14.4317 0.0770331C14.1712 0.102711 13.9113 0.134764 13.6523 0.173193C13.3933 0.211596 13.1354 0.256338 12.8785 0.307417C12.6217 0.358521 12.3663 0.415889 12.1123 0.479518C11.8583 0.543121 11.606 0.61294 11.3555 0.688968C11.1049 0.764974 10.8563 0.847075 10.6098 0.935279C10.3632 1.02351 10.119 1.11772 9.87707 1.21792C9.63517 1.31812 9.39582 1.42421 9.15911 1.53618C8.9224 1.64813 8.68859 1.76582 8.45764 1.88927C8.22673 2.01269 7.99895 2.14172 7.77436 2.27636C7.54977 2.41097 7.32861 2.55102 7.11088 2.6965C6.89315 2.84195 6.67914 2.99268 6.46883 3.14868C6.25847 3.30466 6.05211 3.4657 5.8497 3.63181C5.64729 3.79797 5.44906 3.96894 5.25505 4.14477C5.06103 4.32063 4.87146 4.50113 4.6863 4.6863C4.50113 4.87146 4.32063 5.06103 4.14477 5.25505C3.96894 5.44906 3.79797 5.64729 3.63181 5.8497C3.4657 6.05211 3.30466 6.25847 3.14868 6.46883C2.99268 6.67914 2.84195 6.89315 2.6965 7.11088C2.55102 7.32861 2.41097 7.54977 2.27636 7.77436C2.14172 7.99895 2.01269 8.22673 1.88927 8.45764C1.76582 8.68859 1.64813 8.9224 1.53618 9.15911C1.42421 9.39582 1.31812 9.63517 1.21792 9.87707C1.11772 10.119 1.02351 10.3632 0.935279 10.6098C0.847075 10.8563 0.764974 11.1049 0.688968 11.3555C0.61294 11.606 0.54311 11.8583 0.47948 12.1123C0.415877 12.3663 0.358521 12.6217 0.307417 12.8785C0.256338 13.1354 0.211584 13.3933 0.173155 13.6523C0.134751 13.9113 0.102711 14.1712 0.0770331 14.4317C0.0513803 14.6923 0.0321285 14.9534 0.0192771 15.2149C0.00642553 15.4765 0 15.7381 0 16C0 16.2619 0.00642553 16.5235 0.0192771 16.7851C0.0321285 17.0466 0.0513803 17.3077 0.0770331 17.5683C0.102711 17.8288 0.134751 18.0887 0.173155 18.3477C0.211584 18.6067 0.256338 18.8646 0.307417 19.1215C0.358521 19.3783 0.415877 19.6337 0.47948 19.8877C0.54311 20.1417 0.61294 20.394 0.688968 20.6445C0.764974 20.8951 0.847075 21.1437 0.935279 21.3902C1.02351 21.6368 1.11772 21.881 1.21792 22.1229C1.31812 22.3648 1.42421 22.6042 1.53618 22.8409C1.64813 23.0776 1.76582 23.3114 1.88927 23.5424C2.01269 23.7733 2.14172 24.0011 2.27636 24.2256C2.41097 24.4502 2.55102 24.6714 2.6965 24.8891C2.84195 25.1069 2.99268 25.3209 3.14868 25.5312C3.30466 25.7415 3.4657 25.9479 3.63181 26.1503C3.79797 26.3527 3.96894 26.5509 4.14477 26.745C4.32063 26.939 4.50113 27.1285 4.6863 27.3137C4.87146 27.4989 5.06103 27.6794 5.25505 27.8552C5.44906 28.0311 5.64729 28.202 5.8497 28.3682C6.05211 28.5343 6.25847 28.6953 6.46883 28.8513C6.67914 29.0073 6.89315 29.1581 7.11088 29.3035C7.32861 29.449 7.54977 29.589 7.77436 29.7236C7.99895 29.8583 8.22673 29.9873 8.45764 30.1107C8.68859 30.2342 8.9224 30.3519 9.15911 30.4638C9.39582 30.5758 9.63517 30.6819 9.87707 30.7821C10.119 30.8823 10.3632 30.9765 10.6098 31.0647C10.8563 31.1529 11.1049 31.235 11.3555 31.311C11.606 31.387 11.8583 31.4569 12.1123 31.5205C12.3663 31.5841 12.6217 31.6415 12.8785 31.6925C13.1354 31.7436 13.3933 31.7884 13.6523 31.8268C13.9113 31.8652 14.1712 31.8973 14.4317 31.923C14.6923 31.9486 14.9534 31.9679 15.2149 31.9807C15.4765 31.9936 15.7381 32 16 32C16.2619 32 16.5235 31.9936 16.7851 31.9807C17.0466 31.9679 17.3077 31.9486 17.5683 31.923C17.8288 31.8973 18.0887 31.8652 18.3477 31.8268C18.6067 31.7884 18.8646 31.7436 19.1215 31.6925C19.3783 31.6415 19.6337 31.5841 19.8877 31.5205C20.1417 31.4569 20.394 31.387 20.6445 31.311C20.8951 31.235 21.1437 31.1529 21.3902 31.0647C21.6368 30.9765 21.881 30.8823 22.1229 30.7821C22.3648 30.6819 22.6042 30.5758 22.8409 30.4638C23.0776 30.3519 23.3114 30.2342 23.5424 30.1107C23.7733 29.9873 24.0011 29.8583 24.2256 29.7236C24.4502 29.589 24.6714 29.449 24.8891 29.3035C25.1069 29.1581 25.3209 29.0073 25.5312 28.8513C25.7415 28.6953 25.9479 28.5343 26.1503 28.3682C26.3527 28.202 26.5509 28.0311 26.745 27.8552C26.939 27.6794 27.1285 27.4989 27.3137 27.3137C27.4989 27.1285 27.6794 26.939 27.8552 26.745C28.0311 26.5509 28.202 26.3527 28.3682 26.1503C28.5343 25.9479 28.6953 25.7415 28.8513 25.5312C29.0073 25.3209 29.1581 25.1069 29.3035 24.8891C29.449 24.6714 29.589 24.4502 29.7236 24.2256C29.8583 24.0011 29.9873 23.7733 30.1107 23.5424C30.2342 23.3114 30.3519 23.0776 30.4638 22.8409C30.5758 22.6042 30.6819 22.3648 30.7821 22.1229C30.8823 21.881 30.9765 21.6368 31.0647 21.3902C31.1529 21.1437 31.235 20.8951 31.311 20.6445C31.387 20.394 31.4569 20.1417 31.5205 19.8877C31.5841 19.6337 31.6415 19.3783 31.6925 19.1215C31.7436 18.8646 31.7884 18.6067 31.8268 18.3477C31.8652 18.0887 31.8973 17.8288 31.923 17.5683C31.9486 17.3077 31.9679 17.0466 31.9807 16.7851C31.9936 16.5235 32 16.2619 32 16C32 15.7381 31.9936 15.4765 31.9807 15.2149C31.9679 14.9534 31.9486 14.6923 31.923 14.4317C31.8973 14.1712 31.8652 13.9113 31.8268 13.6523C31.7884 13.3933 31.7436 13.1354 31.6925 12.8785C31.6415 12.6217 31.5841 12.3663 31.5205 12.1123C31.4569 11.8583 31.387 11.606 31.311 11.3555C31.235 11.1049 31.1529 10.8563 31.0647 10.6098C30.9765 10.3632 30.8823 10.119 30.7821 9.87707C30.6819 9.63517 30.5758 9.39582 30.4638 9.15911C30.3519 8.9224 30.2342 8.68859 30.1107 8.45764C29.9873 8.22673 29.8582 7.99895 29.7236 7.77436C29.589 7.54977 29.449 7.32861 29.3035 7.11088C29.158 6.89315 29.0073 6.67914 28.8513 6.46883C28.6953 6.25847 28.5343 6.05211 28.3682 5.8497C28.202 5.64729 28.0311 5.44906 27.8552 5.25505C27.6794 5.06103 27.4989 4.87146 27.3137 4.6863C27.1285 4.50113 26.939 4.32063 26.745 4.14477C26.5509 3.96894 26.3527 3.79797 26.1503 3.63181C25.9479 3.4657 25.7415 3.30466 25.5312 3.14868C25.3209 2.99268 25.1069 2.84195 24.8891 2.6965C24.6714 2.55102 24.4502 2.41097 24.2256 2.27636C24.0011 2.14172 23.7733 2.01269 23.5424 1.88927C23.3114 1.76582 23.0776 1.64813 22.8409 1.53618C22.6042 1.42421 22.3648 1.31812 22.1229 1.21792C21.881 1.11772 21.6368 1.02351 21.3902 0.935279C21.1437 0.847075 20.8951 0.764974 20.6445 0.688968C20.394 0.61294 20.1417 0.543121 19.8877 0.479518C19.6337 0.415889 19.3783 0.358521 19.1215 0.307417C18.8646 0.256338 18.6067 0.211596 18.3477 0.173193C18.0887 0.134764 17.8288 0.102711 17.5683 0.0770331C17.3077 0.0513803 17.0466 0.0321285 16.7851 0.0192771C16.5235 0.00642553 16.2619 0 16 0ZM16 8C16.0524 8 16.1047 8.00128 16.157 8.00384C16.2093 8.00644 16.2615 8.01028 16.3137 8.0154C16.3658 8.02056 16.4177 8.02696 16.4695 8.03464C16.5213 8.04232 16.5729 8.05128 16.6243 8.06148C16.6756 8.07169 16.7267 8.08317 16.7775 8.0959C16.8283 8.10862 16.8788 8.12259 16.9289 8.1378C16.979 8.15297 17.0287 8.16939 17.0781 8.18705C17.1273 8.20471 17.1762 8.22353 17.2246 8.2436C17.273 8.26363 17.3209 8.28483 17.3682 8.30723C17.4155 8.32963 17.4623 8.35316 17.5085 8.37786C17.5547 8.40252 17.6002 8.42835 17.6451 8.45527C17.6901 8.48219 17.7343 8.5102 17.7778 8.53931C17.8214 8.56841 17.8642 8.59853 17.9062 8.62974C17.9483 8.66096 17.9896 8.69315 18.03 8.72636C18.0705 8.7596 18.1102 8.79379 18.149 8.82895C18.1878 8.86412 18.2257 8.90023 18.2627 8.93727C18.2998 8.97428 18.3359 9.0122 18.371 9.05102C18.4062 9.08983 18.4404 9.12948 18.4736 9.16996C18.5069 9.21043 18.539 9.25169 18.5703 9.29375C18.6015 9.33581 18.6316 9.37861 18.6607 9.42218C18.6898 9.46574 18.7178 9.50994 18.7447 9.55486C18.7716 9.59977 18.7975 9.64533 18.8221 9.69153C18.8468 9.73773 18.8704 9.78449 18.8928 9.83181C18.9152 9.87914 18.9364 9.92703 18.9564 9.97541C18.9765 10.0238 18.9953 10.0727 19.013 10.122C19.0306 10.1712 19.047 10.221 19.0622 10.2711C19.0774 10.3212 19.0914 10.3717 19.1041 10.4225C19.1168 10.4733 19.1283 10.5244 19.1385 10.5757C19.1487 10.6271 19.1577 10.6787 19.1654 10.7305C19.173 10.7823 19.1794 10.8342 19.1846 10.8863C19.1897 10.9385 19.1936 10.9907 19.1962 11.043C19.1987 11.0953 19.2 11.1476 19.2 11.2C19.2 11.2524 19.1987 11.3047 19.1962 11.357C19.1936 11.4093 19.1897 11.4615 19.1846 11.5137C19.1794 11.5658 19.173 11.6177 19.1654 11.6695C19.1577 11.7213 19.1487 11.7729 19.1385 11.8243C19.1283 11.8756 19.1168 11.9267 19.1041 11.9775C19.0914 12.0283 19.0774 12.0788 19.0622 12.1289C19.047 12.179 19.0306 12.2287 19.013 12.278C18.9953 12.3273 18.9765 12.3762 18.9564 12.4246C18.9364 12.473 18.9152 12.5209 18.8928 12.5682C18.8704 12.6155 18.8468 12.6623 18.8221 12.7085C18.7975 12.7547 18.7716 12.8002 18.7447 12.8451C18.7178 12.8901 18.6898 12.9343 18.6607 12.9778C18.6316 13.0214 18.6015 13.0642 18.5703 13.1062C18.539 13.1483 18.5069 13.1896 18.4736 13.23C18.4404 13.2705 18.4062 13.3102 18.371 13.349C18.3359 13.3878 18.2998 13.4257 18.2627 13.4627C18.2257 13.4998 18.1878 13.5359 18.149 13.571C18.1102 13.6062 18.0705 13.6404 18.03 13.6736C17.9896 13.7069 17.9483 13.739 17.9062 13.7703C17.8642 13.8015 17.8214 13.8316 17.7778 13.8607C17.7343 13.8898 17.6901 13.9178 17.6451 13.9447C17.6002 13.9716 17.5547 13.9975 17.5085 14.0221C17.4623 14.0468 17.4155 14.0704 17.3682 14.0928C17.3209 14.1152 17.273 14.1364 17.2246 14.1564C17.1762 14.1765 17.1273 14.1953 17.0781 14.213C17.0287 14.2306 16.979 14.247 16.9289 14.2622C16.8788 14.2774 16.8283 14.2914 16.7775 14.3041C16.7267 14.3168 16.6756 14.3283 16.6243 14.3385C16.5729 14.3487 16.5213 14.3577 16.4695 14.3654C16.4177 14.373 16.3658 14.3794 16.3137 14.3846C16.2615 14.3897 16.2093 14.3936 16.157 14.3962C16.1047 14.3987 16.0524 14.4 16 14.4C15.9476 14.4 15.8953 14.3987 15.843 14.3962C15.7907 14.3936 15.7385 14.3897 15.6863 14.3846C15.6342 14.3794 15.5823 14.373 15.5305 14.3654C15.4787 14.3577 15.4271 14.3487 15.3757 14.3385C15.3243 14.3283 15.2733 14.3168 15.2225 14.3041C15.1717 14.2914 15.1212 14.2774 15.0711 14.2622C15.021 14.247 14.9712 14.2306 14.922 14.213C14.8727 14.1953 14.8238 14.1765 14.7754 14.1564C14.727 14.1364 14.6791 14.1152 14.6318 14.0928C14.5845 14.0704 14.5377 14.0468 14.4915 14.0221C14.4453 13.9975 14.3998 13.9716 14.3549 13.9447C14.3099 13.9178 14.2657 13.8898 14.2222 13.8607C14.1786 13.8316 14.1358 13.8015 14.0938 13.7703C14.0517 13.739 14.0104 13.7069 13.97 13.6736C13.9295 13.6404 13.8898 13.6062 13.851 13.571C13.8122 13.5359 13.7743 13.4998 13.7373 13.4627C13.7002 13.4257 13.6641 13.3878 13.629 13.349C13.5938 13.3102 13.5596 13.2705 13.5264 13.23C13.4931 13.1896 13.461 13.1483 13.4297 13.1062C13.3985 13.0642 13.3684 13.0214 13.3393 12.9778C13.3102 12.9343 13.2822 12.8901 13.2553 12.8451C13.2284 12.8002 13.2025 12.7547 13.1779 12.7085C13.1532 12.6623 13.1296 12.6155 13.1072 12.5682C13.0848 12.5209 13.0636 12.473 13.0436 12.4246C13.0235 12.3762 13.0047 12.3273 12.987 12.278C12.9694 12.2287 12.953 12.179 12.9378 12.1289C12.9226 12.0788 12.9086 12.0283 12.8959 11.9775C12.8832 11.9267 12.8717 11.8756 12.8615 11.8243C12.8513 11.7729 12.8423 11.7213 12.8346 11.6695C12.827 11.6177 12.8206 11.5658 12.8154 11.5137C12.8103 11.4615 12.8064 11.4093 12.8038 11.357C12.8013 11.3047 12.8 11.2524 12.8 11.2C12.8 11.1476 12.8013 11.0953 12.8038 11.043C12.8064 10.9907 12.8103 10.9385 12.8154 10.8863C12.8206 10.8342 12.827 10.7823 12.8346 10.7305C12.8423 10.6787 12.8513 10.6271 12.8615 10.5757C12.8717 10.5244 12.8832 10.4733 12.8959 10.4225C12.9086 10.3717 12.9226 10.3212 12.9378 10.2711C12.953 10.221 12.9694 10.1713 12.987 10.122C13.0047 10.0727 13.0235 10.0238 13.0436 9.97541C13.0636 9.92703 13.0848 9.87914 13.1072 9.83181C13.1296 9.78449 13.1532 9.73773 13.1779 9.69153C13.2025 9.64533 13.2284 9.59977 13.2553 9.55486C13.2822 9.50994 13.3102 9.46574 13.3393 9.42218C13.3684 9.37861 13.3985 9.33581 13.4297 9.29375C13.461 9.25169 13.4931 9.21043 13.5264 9.16996C13.5596 9.12948 13.5938 9.08983 13.629 9.05102C13.6641 9.0122 13.7002 8.97428 13.7373 8.93727C13.7743 8.90023 13.8122 8.86412 13.851 8.82895C13.8898 8.79379 13.9295 8.7596 13.97 8.72636C14.0104 8.69315 14.0517 8.66096 14.0938 8.62974C14.1358 8.59853 14.1786 8.56841 14.2222 8.53931C14.2657 8.5102 14.3099 8.48219 14.3549 8.45527C14.3998 8.42835 14.4453 8.40252 14.4915 8.37786C14.5377 8.35316 14.5845 8.32963 14.6318 8.30723C14.6791 8.28483 14.727 8.26363 14.7754 8.2436C14.8238 8.22353 14.8727 8.20471 14.922 8.18705C14.9713 8.16939 15.021 8.15297 15.0711 8.1378C15.1212 8.12259 15.1717 8.10862 15.2225 8.0959C15.2733 8.08317 15.3244 8.07169 15.3757 8.06148C15.4271 8.05128 15.4787 8.04232 15.5305 8.03464C15.5823 8.02696 15.6342 8.02056 15.6863 8.0154C15.7385 8.01028 15.7907 8.00644 15.843 8.00384C15.8953 8.00128 15.9476 8 16 8ZM23.3253 24L8.65542 24C8.4241 24 7.98072 23.4602 8 23.1904C8.00388 23.0654 8.01088 22.9406 8.02108 22.816C8.03125 22.6913 8.04454 22.5671 8.06099 22.4431C8.07741 22.3191 8.09695 22.1957 8.11962 22.0727C8.14228 21.9497 8.16803 21.8274 8.19684 21.7057C8.22568 21.5841 8.25757 21.4632 8.29247 21.3431C8.32737 21.223 8.36529 21.104 8.40621 20.9858C8.44714 20.8676 8.49104 20.7506 8.53784 20.6346C8.58468 20.5187 8.63437 20.404 8.68697 20.2906C8.73957 20.1771 8.79503 20.0651 8.85328 19.9545C8.91152 19.8438 8.97255 19.7347 9.03629 19.6271C9.10004 19.5196 9.16645 19.4137 9.23554 19.3095C9.30463 19.2053 9.37632 19.1029 9.45056 19.0023C9.52485 18.9017 9.60158 18.803 9.6808 18.7062C9.76005 18.6095 9.84164 18.5148 9.92564 18.4222C10.0096 18.3296 10.0959 18.2392 10.1845 18.1509C10.2731 18.0626 10.3638 17.9766 10.4567 17.8929C10.5496 17.8092 10.6445 17.7279 10.7415 17.649C10.8385 17.5701 10.9374 17.4937 11.0383 17.4198C11.1392 17.3459 11.2418 17.2745 11.3462 17.2058C11.4507 17.137 11.5568 17.0709 11.6646 17.0075C11.7724 16.9441 11.8817 16.8835 11.9925 16.8256C12.1033 16.7677 12.2155 16.7127 12.3291 16.6604C12.4427 16.6082 12.5576 16.5588 12.6737 16.5124C12.7898 16.466 12.907 16.4225 13.0253 16.382C13.1436 16.3414 13.2628 16.3039 13.383 16.2694C13.5031 16.2348 13.6241 16.2034 13.7459 16.1749C13.8677 16.1465 13.9901 16.1212 14.1131 16.0989C14.2361 16.0767 14.3597 16.0575 14.4837 16.0415C14.6077 16.0255 14.732 16.0126 14.8567 16.0028C14.9813 15.9931 15.1062 15.9864 15.2311 15.983C15.3561 15.9795 15.4811 15.9792 15.6061 15.982C15.7312 15.9849 15.856 15.9909 15.9807 16C20.241 16 23.6916 18.294 24 23.1904C24.0025 23.2027 24.0047 23.2151 24.0065 23.2276C24.0084 23.2401 24.0098 23.2526 24.011 23.2651C24.0121 23.2776 24.0129 23.2902 24.0133 23.3028C24.0137 23.3154 24.0138 23.328 24.0135 23.3406C24.0132 23.3532 24.0126 23.3658 24.0116 23.3784C24.0106 23.3909 24.0093 23.4035 24.0076 23.4159C24.0059 23.4284 24.0038 23.4409 24.0014 23.4532C23.9991 23.4656 23.9963 23.4779 23.9933 23.4901C23.9902 23.5024 23.9867 23.5145 23.983 23.5265C23.9793 23.5385 23.9752 23.5505 23.9707 23.5622C23.9663 23.574 23.9616 23.5857 23.9565 23.5973C23.9514 23.6088 23.946 23.6201 23.9403 23.6314C23.9346 23.6426 23.9286 23.6537 23.9222 23.6646C23.9159 23.6755 23.9093 23.6862 23.9023 23.6967C23.8954 23.7072 23.8882 23.7175 23.8806 23.7277C23.8732 23.7378 23.8654 23.7477 23.8573 23.7574C23.8492 23.7671 23.8409 23.7765 23.8323 23.7857C23.8237 23.7949 23.8148 23.8039 23.8058 23.8126C23.7966 23.8213 23.7873 23.8298 23.7777 23.838C23.7681 23.8462 23.7584 23.8541 23.7483 23.8617C23.7383 23.8694 23.7281 23.8768 23.7177 23.8838C23.7072 23.8909 23.6966 23.8977 23.6858 23.9041C23.675 23.9106 23.664 23.9168 23.6529 23.9227C23.6417 23.9285 23.6304 23.9341 23.6189 23.9393C23.6075 23.9445 23.5959 23.9494 23.5841 23.954C23.5724 23.9586 23.5605 23.9628 23.5485 23.9668C23.5366 23.9707 23.5245 23.9742 23.5123 23.9775C23.5002 23.9807 23.4879 23.9836 23.4755 23.9862C23.4632 23.9887 23.4508 23.9909 23.4383 23.9928C23.4259 23.9946 23.4133 23.9961 23.4008 23.9973C23.3883 23.9985 23.3757 23.9992 23.3631 23.9997C23.3505 24.0002 23.3379 24.0003 23.3253 24Z"   fill="#28C445" >
</path>
</svg>
