<svg xmlns="http://www.w3.org/2000/svg" xmlns:xlink="http://www.w3.org/1999/xlink" width="20.896484375" height="20.133056640625" viewBox="0 0 20.896484375 20.133056640625" fill="none"><path     fill="#000000"  d="M11.581 4.40728C11.651 4.40695 11.7207 4.41136 11.7901 4.4205C11.8595 4.42964 11.928 4.4434 11.9955 4.46182C13.3646 4.82728 12.9337 6.64364 12.9337 6.64364C12.9634 6.64898 12.9929 6.65512 13.0222 6.66204C13.0515 6.66893 13.0806 6.67659 13.1096 6.68503C13.1385 6.69347 13.1672 6.70266 13.1956 6.71259C13.224 6.72253 13.2522 6.73319 13.2801 6.74461C13.308 6.75602 13.3356 6.76816 13.3628 6.78103C13.39 6.79387 13.4169 6.80742 13.4435 6.82172C13.47 6.83597 13.4962 6.85092 13.5219 6.86658C13.5477 6.88221 13.573 6.8985 13.5979 6.91547C13.6228 6.93244 13.6472 6.95004 13.6712 6.9683C13.6951 6.98653 13.7186 7.0054 13.7416 7.0249C13.7646 7.04435 13.7871 7.06441 13.809 7.08508C13.8309 7.10573 13.8523 7.12694 13.8731 7.14874C13.8939 7.17051 13.9142 7.19283 13.9338 7.21568C13.9535 7.23851 13.9725 7.26183 13.9909 7.28569C14.0093 7.30952 14.0272 7.33383 14.0443 7.3586C14.0614 7.38335 14.0779 7.40857 14.0938 7.43421C14.1096 7.45983 14.1248 7.48587 14.1392 7.5123C14.1537 7.53872 14.1674 7.56551 14.1805 7.59267C14.1935 7.61981 14.2059 7.64728 14.2175 7.6751C14.2291 7.7029 14.24 7.73098 14.2502 7.75934C14.2603 7.78769 14.2697 7.81631 14.2783 7.84519C14.287 7.87404 14.2949 7.9031 14.302 7.93237C14.3091 7.96165 14.3155 7.99109 14.321 8.02071C14.3266 8.05031 14.3314 8.08005 14.3354 8.10991C14.3395 8.13977 14.3427 8.1697 14.3451 8.19975C14.3476 8.22975 14.3492 8.25982 14.3501 8.28996C14.351 8.32005 14.3511 8.35017 14.3504 8.38031C14.3497 8.41043 14.3482 8.4405 14.3459 8.47055C14.3436 8.50059 14.3405 8.53055 14.3367 8.56043C14.3328 8.59031 14.3282 8.62008 14.3228 8.6497C14.3173 8.67933 14.3111 8.70881 14.3042 8.73813C14.2972 8.76743 14.2895 8.79654 14.281 8.82546L13.0537 11.3182C13.0805 11.3227 13.1072 11.3279 13.1337 11.3336C13.1603 11.3394 13.1867 11.3458 13.213 11.3528C13.2392 11.3598 13.2653 11.3674 13.2912 11.3756C13.3171 11.3838 13.3428 11.3925 13.3683 11.4019C13.3938 11.4113 13.4191 11.4213 13.4441 11.4318C13.4692 11.4423 13.494 11.4534 13.5185 11.4651C13.543 11.4768 13.5672 11.4891 13.5912 11.5019C13.6152 11.5147 13.6388 11.528 13.6622 11.5419C13.6855 11.5558 13.7085 11.5702 13.7312 11.5852C13.7539 11.6002 13.7762 11.6156 13.7982 11.6316C13.8202 11.6476 13.8418 11.6641 13.863 11.6811C13.8842 11.698 13.905 11.7155 13.9254 11.7334C13.9458 11.7514 13.9658 11.7698 13.9853 11.7887C14.0049 11.8075 14.024 11.8268 14.0427 11.8466C14.0614 11.8663 14.0795 11.8865 14.0973 11.9071C14.115 11.9276 14.1323 11.9486 14.149 11.97C14.1658 11.9914 14.1821 12.0131 14.1978 12.0353C14.2136 12.0574 14.2288 12.0799 14.2436 12.1027C14.2583 12.1256 14.2725 12.1487 14.2861 12.1722C14.2998 12.1957 14.3129 12.2195 14.3255 12.2436C14.338 12.2677 14.35 12.292 14.3615 12.3167C14.3729 12.3413 14.3838 12.3662 14.3941 12.3914C14.4044 12.4165 14.4141 12.4419 14.4232 12.4675C14.4323 12.4931 14.4408 12.5189 14.4488 12.5448C14.4567 12.5708 14.464 12.597 14.4707 12.6233C14.4775 12.6496 14.4836 12.6761 14.4891 12.7027C14.4946 12.7293 14.4994 12.756 14.5037 12.7829C14.508 12.8097 14.5117 12.8366 14.5147 12.8636C14.5177 12.8906 14.5201 12.9177 14.5219 12.9448C14.5237 12.9719 14.5248 12.999 14.5253 13.0262C14.5259 13.0534 14.5258 13.0805 14.5251 13.1077C14.5243 13.1349 14.523 13.162 14.521 13.1891C14.5537 15.5346 13.5555 16.8818 12.3774 17.6509C12.3245 17.6853 12.2709 17.7187 12.2168 17.7511C12.1627 17.7835 12.108 17.8149 12.0528 17.8454C11.9975 17.8758 11.9417 17.9053 11.8854 17.9337C11.8291 17.9621 11.7723 17.9895 11.715 18.0159C11.6577 18.0423 11.5999 18.0677 11.5417 18.092C11.4835 18.1162 11.4249 18.1395 11.3658 18.1617C11.3068 18.1839 11.2473 18.205 11.1875 18.225C11.1277 18.245 11.0675 18.264 11.007 18.2819C10.9465 18.2997 10.8857 18.3165 10.8246 18.3322C10.7635 18.3478 10.7021 18.3624 10.6405 18.3758C10.5788 18.3893 10.517 18.4016 10.4549 18.4128C10.3928 18.424 10.3306 18.4341 10.2681 18.4431C10.2057 18.4521 10.1431 18.4599 10.0804 18.4666C10.0177 18.4733 9.95482 18.4789 9.89189 18.4834C9.82896 18.4878 9.76598 18.4911 9.70294 18.4933C9.63989 18.4954 9.57682 18.4965 9.51373 18.4964C9.47595 18.4963 9.43816 18.496 9.40041 18.4952C9.36263 18.4945 9.32484 18.4933 9.28711 18.4919C9.24935 18.4904 9.21162 18.4885 9.17391 18.4863C9.13617 18.4841 9.09848 18.4815 9.06084 18.4786C9.02316 18.4756 8.98554 18.4723 8.94795 18.4687C8.91033 18.465 8.87276 18.4609 8.83526 18.4565C8.79771 18.4521 8.76023 18.4473 8.72283 18.4422C8.68538 18.4371 8.64799 18.4316 8.61068 18.4258C8.57334 18.4199 8.53608 18.4137 8.49888 18.4071C8.46166 18.4005 8.42454 18.3936 8.38748 18.3863C8.35041 18.379 8.3134 18.3713 8.27648 18.3633C8.23955 18.3553 8.20273 18.3469 8.16598 18.3382C8.1292 18.3295 8.09252 18.3204 8.05596 18.311C8.01937 18.3015 7.98288 18.2917 7.94648 18.2816C7.91009 18.2715 7.87381 18.261 7.83762 18.2501C7.80143 18.2392 7.76534 18.228 7.72938 18.2165C7.69338 18.205 7.65752 18.1931 7.6218 18.1808C7.58604 18.1686 7.55044 18.156 7.51495 18.1431C7.47945 18.1301 7.44408 18.1169 7.40883 18.1032C7.37358 18.0896 7.33849 18.0757 7.30352 18.0614C7.26855 18.0471 7.23373 18.0324 7.19904 18.0174C7.16435 18.0025 7.1298 17.9872 7.09542 17.9715C7.06102 17.9559 7.0268 17.9399 6.99272 17.9236C6.95864 17.9073 6.9247 17.8906 6.89095 17.8737C6.8572 17.8567 6.82362 17.8394 6.7902 17.8218C6.75677 17.8042 6.72352 17.7862 6.69045 17.768C6.65735 17.7497 6.62447 17.7311 6.59175 17.7123C6.55903 17.6933 6.52652 17.6741 6.49418 17.6546C6.46184 17.6351 6.42968 17.6152 6.39773 17.5951C6.36577 17.5749 6.33398 17.5545 6.30244 17.5337C6.27089 17.5129 6.23953 17.4919 6.20838 17.4705C6.17721 17.4491 6.14627 17.4274 6.11555 17.4055C6.01106 17.3288 5.90759 17.2508 5.80516 17.1714C5.70274 17.092 5.60138 17.0113 5.50109 16.9292C5.40077 16.8471 5.30159 16.7637 5.2035 16.6791C5.10539 16.5944 5.00843 16.5084 4.91262 16.4212C4.81678 16.3339 4.72212 16.2454 4.62862 16.1557C4.53513 16.0659 4.44284 15.975 4.35176 15.8828C4.26066 15.7906 4.1708 15.6972 4.0822 15.6027C3.99356 15.5081 3.90621 15.4124 3.8201 15.3156C3.73399 15.2187 3.6492 15.1207 3.56569 15.0216C3.48218 14.9225 3.39998 14.8223 3.31913 14.7211C3.23827 14.6198 3.15874 14.5175 3.08058 14.4141C3.00239 14.3107 2.92561 14.2063 2.85021 14.101C2.77479 13.9956 2.7008 13.8892 2.62819 13.7819C2.55558 13.6745 2.48442 13.5662 2.41467 13.457C2.34492 13.3477 2.27664 13.2376 2.2098 13.1266C2.14297 13.0155 2.07761 12.9037 2.01372 12.7909C2.00122 12.7698 1.989 12.7486 1.97704 12.7272C1.96507 12.7058 1.95338 12.6843 1.94196 12.6626C1.93055 12.6409 1.91941 12.6191 1.90853 12.5972C1.89768 12.5752 1.88709 12.5531 1.87678 12.5309C1.86646 12.5086 1.85643 12.4863 1.84668 12.4638C1.83693 12.4413 1.82747 12.4187 1.8183 12.396C1.80913 12.3733 1.80024 12.3504 1.79163 12.3275C1.78303 12.3045 1.77473 12.2815 1.76671 12.2583C1.7587 12.2352 1.75097 12.2119 1.74353 12.1886C1.73611 12.1653 1.72898 12.1418 1.72214 12.1183C1.71529 12.0948 1.70875 12.0711 1.70252 12.0474C1.69627 12.0237 1.69032 12 1.68468 11.9761C1.67904 11.9523 1.6737 11.9284 1.66865 11.9044C1.66362 11.8804 1.65889 11.8564 1.65445 11.8323C1.65001 11.8082 1.64588 11.784 1.64205 11.7598C1.63824 11.7356 1.63472 11.7114 1.6315 11.6871C1.6283 11.6628 1.6254 11.6385 1.62278 11.6141C1.62019 11.5897 1.6179 11.5653 1.61592 11.5409C1.61393 11.5165 1.61226 11.492 1.6109 11.4676C1.60954 11.4431 1.60849 11.4186 1.60774 11.3941C1.60699 11.3696 1.60655 11.3451 1.60643 11.3206C1.6063 11.2961 1.60648 11.2716 1.60696 11.2471C1.60745 11.2226 1.60825 11.1981 1.60935 11.1737C1.61046 11.1492 1.61188 11.1247 1.6136 11.1003C1.61533 11.0758 1.61737 11.0514 1.61971 11.027C1.62204 11.0026 1.62468 10.9783 1.62764 10.954C1.63061 10.9296 1.63387 10.9054 1.63743 10.8811C1.641 10.8569 1.64487 10.8327 1.64906 10.8085C1.65323 10.7844 1.65771 10.7603 1.66251 10.7363C1.66729 10.7122 1.67238 10.6883 1.67777 10.6644C1.68316 10.6405 1.68885 10.6166 1.69485 10.5929C1.70084 10.5691 1.70713 10.5454 1.71372 10.5218C1.71714 10.5105 1.72078 10.4992 1.72464 10.4881C1.7285 10.4769 1.73258 10.4658 1.73688 10.4548C1.74116 10.4437 1.74567 10.4328 1.7504 10.422C1.75512 10.4111 1.76005 10.4003 1.76519 10.3897C1.77033 10.379 1.77568 10.3685 1.78125 10.3581C1.78681 10.3476 1.79257 10.3373 1.79852 10.3271C1.80449 10.3168 1.81065 10.3067 1.81701 10.2968C1.82337 10.2868 1.82992 10.2769 1.83665 10.2672C1.8434 10.2575 1.85033 10.2479 1.85744 10.2385C1.86457 10.229 1.87187 10.2197 1.87935 10.2106C1.88684 10.2014 1.8945 10.1924 1.90235 10.1835C1.91018 10.1747 1.91818 10.1659 1.92637 10.1574C1.93454 10.1489 1.94289 10.1405 1.9514 10.1323C1.9599 10.124 1.96856 10.116 1.97739 10.1081C1.98621 10.1002 1.99518 10.0925 2.0043 10.085C2.01343 10.0774 2.0227 10.0701 2.03212 10.063C2.04153 10.0558 2.05107 10.0488 2.06076 10.042C2.07045 10.0352 2.08027 10.0286 2.09022 10.0222C2.10016 10.0158 2.11022 10.0096 2.12041 10.0036C2.1306 9.99757 2.1409 9.99176 2.15132 9.98616C2.16173 9.98053 2.17225 9.97514 2.18289 9.96996C2.19352 9.96476 2.20424 9.95976 2.21505 9.95501C2.22588 9.95023 2.23679 9.94566 2.24779 9.94132C2.25879 9.93696 2.26988 9.93281 2.28105 9.92892C2.29221 9.92498 2.30344 9.9213 2.31475 9.91784C2.32607 9.91437 2.33744 9.91111 2.34888 9.90808C2.36032 9.90504 2.3718 9.90225 2.38336 9.89967C2.39489 9.89709 2.40649 9.89475 2.41812 9.89264C2.42974 9.89051 2.44144 9.88861 2.45316 9.88694C2.46485 9.88528 2.47659 9.88385 2.48838 9.88266C2.50015 9.88144 2.51191 9.88048 2.52373 9.87973C2.53554 9.87898 2.54735 9.87846 2.55919 9.8782C3.30647 9.8782 4.27737 10.7509 4.96465 11.5691C4.97529 11.5814 4.98623 11.5934 4.99753 11.6051C5.00878 11.6168 5.02036 11.6282 5.03227 11.6392C5.04415 11.6503 5.05631 11.6611 5.06878 11.6715C5.08123 11.682 5.09395 11.6921 5.10696 11.7018C5.11995 11.7116 5.13319 11.721 5.14669 11.73C5.16019 11.7391 5.17392 11.7478 5.18789 11.7561C5.20184 11.7645 5.21599 11.7724 5.23038 11.78C5.24477 11.7875 5.25933 11.7947 5.27409 11.8015C5.28886 11.8083 5.30379 11.8147 5.31891 11.8207C5.334 11.8267 5.34926 11.8323 5.36466 11.8375C5.38005 11.8427 5.39559 11.8475 5.41125 11.8518C5.42691 11.8562 5.44266 11.8601 5.45852 11.8637C5.47439 11.8672 5.49033 11.8703 5.50636 11.873C5.52239 11.8756 5.53847 11.8779 5.55464 11.8797C5.57079 11.8815 5.58698 11.8829 5.6032 11.8839C5.61942 11.8848 5.63564 11.8854 5.65191 11.8855C5.66112 11.8856 5.67033 11.8855 5.67956 11.8853C5.68877 11.8851 5.69798 11.8847 5.7072 11.8842C5.71638 11.8837 5.72559 11.8831 5.73478 11.8823C5.74395 11.8815 5.75311 11.8805 5.76227 11.8794C5.77141 11.8783 5.78055 11.877 5.78967 11.8756C5.79877 11.8742 5.80786 11.8727 5.81693 11.871C5.82598 11.8693 5.83502 11.8674 5.84402 11.8654C5.85302 11.8634 5.86198 11.8613 5.87091 11.859C5.87984 11.8567 5.88872 11.8543 5.89758 11.8517C5.90641 11.8491 5.91523 11.8464 5.92399 11.8435C5.93276 11.8406 5.94145 11.8376 5.95013 11.8345C5.95877 11.8313 5.96738 11.828 5.97595 11.8246C5.98448 11.8211 5.99299 11.8176 6.00143 11.8139C6.00987 11.8102 6.01823 11.8063 6.02655 11.8023C6.03485 11.7983 6.0431 11.7942 6.05128 11.79C6.05946 11.7857 6.06757 11.7813 6.07561 11.7768C6.08363 11.7723 6.09159 11.7676 6.09947 11.7628C6.10734 11.7581 6.11515 11.7531 6.12288 11.7481C6.13059 11.7431 6.13823 11.7379 6.14578 11.7326C6.15333 11.7273 6.16078 11.7219 6.16816 11.7164C6.17552 11.7109 6.18281 11.7052 6.19001 11.6994C6.19718 11.6937 6.20428 11.6878 6.21129 11.6818C6.21827 11.6758 6.22519 11.6696 6.23198 11.6634C6.23878 11.6572 6.24546 11.6509 6.25207 11.6444C6.25863 11.638 6.26513 11.6314 6.27152 11.6248C6.2779 11.6181 6.28416 11.6113 6.2903 11.6045C6.29644 11.5976 6.30248 11.5907 6.30844 11.5836C6.31434 11.5765 6.32016 11.5694 6.32585 11.5621C6.33152 11.5549 6.3371 11.5475 6.34256 11.5401C6.348 11.5327 6.35334 11.5251 6.35855 11.5175C6.36375 11.5099 6.36884 11.5023 6.37381 11.4945C6.37875 11.4867 6.38358 11.4788 6.38829 11.4709L10.0592 5.32364C10.069 5.30672 10.0791 5.28994 10.0895 5.27332C10.0999 5.2567 10.1105 5.24027 10.1215 5.22401C10.1324 5.20774 10.1435 5.19164 10.1549 5.17573C10.1663 5.15979 10.178 5.14406 10.1899 5.12855C10.2019 5.11298 10.214 5.09763 10.2264 5.08249C10.2388 5.06733 10.2515 5.05237 10.2644 5.03761C10.2773 5.02284 10.2904 5.00831 10.3037 4.99399C10.3171 4.97965 10.3306 4.96552 10.3444 4.95164C10.3582 4.93772 10.3722 4.92405 10.3865 4.9106C10.4007 4.89715 10.4152 4.88391 10.4298 4.87092C10.4445 4.85791 10.4593 4.84516 10.4744 4.83265C10.4895 4.82011 10.5047 4.80783 10.5202 4.7958C10.5356 4.78376 10.5513 4.77197 10.5671 4.76044C10.5829 4.74891 10.599 4.73761 10.6151 4.72659C10.6313 4.71558 10.6477 4.7048 10.6642 4.6943C10.6807 4.6838 10.6974 4.67355 10.7143 4.66359C10.7312 4.65361 10.7482 4.64391 10.7654 4.63448C10.7825 4.62504 10.7998 4.61587 10.8173 4.60702C10.8347 4.59813 10.8523 4.58953 10.8701 4.58123C10.8878 4.57289 10.9057 4.56485 10.9237 4.55712C10.9417 4.54936 10.9598 4.54191 10.978 4.53473C10.9962 4.52756 11.0145 4.52067 11.033 4.51411C11.0514 4.5075 11.07 4.50122 11.0887 4.49524C11.1073 4.48924 11.126 4.48352 11.1449 4.47813C11.1637 4.47274 11.1826 4.46763 11.2016 4.46285C11.2206 4.45805 11.2396 4.45355 11.2588 4.44937C11.2779 4.44518 11.2971 4.44129 11.3164 4.43773C11.3356 4.43414 11.355 4.43088 11.3743 4.42793C11.3937 4.42495 11.4131 4.4223 11.4325 4.41996C11.452 4.41762 11.4715 4.41558 11.491 4.41387C11.5105 4.41213 11.53 4.41073 11.5496 4.40965C11.5691 4.40855 11.5887 4.40775 11.6083 4.40728M11.6083 2.77092C11.5709 2.77127 11.5336 2.77223 11.4963 2.7738C11.459 2.77535 11.4217 2.77753 11.3845 2.7803C11.3472 2.78306 11.31 2.78644 11.2729 2.79042C11.2358 2.79438 11.1987 2.79895 11.1617 2.80413C11.1248 2.80929 11.0879 2.81508 11.0511 2.82145C11.0143 2.8278 10.9776 2.83477 10.941 2.84231C10.9044 2.84986 10.868 2.85799 10.8317 2.86673C10.7954 2.87545 10.7592 2.88478 10.7232 2.8947C10.6872 2.90459 10.6514 2.91506 10.6157 2.92612C10.58 2.93719 10.5446 2.94881 10.5093 2.96102C10.474 2.97321 10.4389 2.98598 10.404 2.99934C10.3691 3.01268 10.3344 3.02658 10.3 3.04104C10.2656 3.0555 10.2314 3.07052 10.1975 3.08609C10.1635 3.10165 10.1299 3.11777 10.0964 3.13444C10.063 3.15108 10.0298 3.16828 9.99698 3.18602C9.96413 3.20374 9.93155 3.22198 9.89927 3.24077C9.86698 3.25957 9.83501 3.27886 9.80337 3.29869C9.77173 3.31849 9.74039 3.33881 9.70941 3.35965C9.6784 3.38046 9.64774 3.40179 9.61746 3.42363C9.58713 3.44545 9.5572 3.46777 9.52763 3.49055C9.49805 3.51333 9.46884 3.5366 9.44002 3.56034C9.41116 3.58406 9.38271 3.60827 9.35468 3.63293C9.32662 3.65759 9.29899 3.68269 9.27176 3.70823C9.24452 3.73378 9.21771 3.75975 9.19132 3.78619C9.16491 3.81258 9.13894 3.83941 9.11341 3.86669C9.08789 3.89393 9.06281 3.92159 9.03818 3.94966C9.01355 3.97774 8.98938 4.0062 8.96566 4.03505C8.94195 4.06387 8.9187 4.0931 8.89594 4.12273C8.87316 4.1523 8.85089 4.18228 8.82909 4.21261C8.8073 4.24291 8.78599 4.27357 8.76518 4.3046C8.74437 4.33561 8.72407 4.36694 8.70429 4.39861C8.68448 4.43027 8.66522 4.46227 8.64647 4.49456L5.53737 9.74182C4.71919 8.94546 3.68283 8.23638 2.58647 8.23638C2.55483 8.23683 2.52323 8.23788 2.49166 8.23952C2.46007 8.24116 2.42852 8.24337 2.39702 8.24618C2.36552 8.24899 2.33409 8.25239 2.30273 8.25637C2.27135 8.26033 2.24006 8.26488 2.20886 8.27004C2.17766 8.27517 2.14656 8.28089 2.11556 8.28719C2.08457 8.29348 2.05371 8.30034 2.02298 8.3078C1.99223 8.31523 1.96164 8.32324 1.9312 8.33182C1.90076 8.3404 1.8705 8.34954 1.8404 8.35924C1.81031 8.36894 1.7804 8.37919 1.75068 8.39001C1.72096 8.40084 1.69146 8.41221 1.66216 8.42412C1.63286 8.43602 1.6038 8.44847 1.57497 8.46148C1.54613 8.47446 1.51754 8.48798 1.48921 8.50205C1.46089 8.51608 1.43283 8.53066 1.40505 8.54576C1.37725 8.56085 1.34975 8.57646 1.32255 8.59258C1.29535 8.60871 1.26845 8.62533 1.24185 8.64246C1.21526 8.65957 1.189 8.67717 1.16306 8.69526C1.13712 8.71336 1.11154 8.73192 1.0863 8.75098C1.06105 8.77001 1.03617 8.78953 1.01165 8.8095C0.98712 8.82947 0.962972 8.84988 0.939206 8.87076C0.915457 8.89162 0.892097 8.91293 0.869128 8.93468C0.846159 8.95641 0.823596 8.97855 0.801441 9.00115C0.779299 9.02369 0.757582 9.04669 0.736284 9.07008C0.714987 9.09344 0.694137 9.11721 0.67373 9.14137C0.653323 9.16551 0.63337 9.19005 0.61387 9.21497C0.59437 9.23986 0.575339 9.2651 0.556777 9.29072C0.53823 9.31631 0.520151 9.34226 0.502542 9.36855C0.484948 9.3948 0.467855 9.42141 0.451261 9.44833C0.434651 9.47524 0.418549 9.50245 0.402956 9.52997C0.387354 9.55748 0.372272 9.58526 0.35771 9.61333C0.343148 9.64141 0.329112 9.66975 0.315602 9.69834C0.302093 9.72694 0.28912 9.75576 0.276682 9.78485C0.264244 9.81391 0.252349 9.84321 0.241001 9.87274L0.208273 9.95456L0.181001 10.0418C0.170281 10.0787 0.160028 10.1156 0.150242 10.1527C0.140457 10.1898 0.131144 10.227 0.122302 10.2644C0.113461 10.3017 0.105094 10.3391 0.0972002 10.3767C0.0893065 10.4142 0.0818892 10.4519 0.0749487 10.4896C0.0680095 10.5274 0.0615488 10.5652 0.0555659 10.6031C0.0495846 10.641 0.0440838 10.6789 0.0390635 10.717C0.0340432 10.755 0.0295057 10.7931 0.025451 10.8313C0.0213963 10.8694 0.0178252 10.9076 0.0147377 10.9459C0.0116503 10.9841 0.00904709 11.0224 0.00692834 11.0607C0.00481116 11.099 0.00317913 11.1373 0.00203222 11.1757C0.000885488 11.214 0.000223696 11.2524 4.72069e-05 11.2907C-0.000127852 11.3291 0.000183105 11.3675 0.000979901 11.4058C0.00177687 11.4442 0.0030597 11.4825 0.00482834 11.5209C0.00659555 11.5592 0.00884789 11.5975 0.0115853 11.6358C0.0143244 11.674 0.0175472 11.7122 0.0212533 11.7504C0.0249595 11.7886 0.0291495 11.8267 0.0338229 11.8648C0.0384947 11.9029 0.0436486 11.9409 0.0492846 11.9789C0.0549206 12.0168 0.0610362 12.0547 0.0676315 12.0925C0.0742254 12.1303 0.0812979 12.168 0.0888495 12.2056C0.0963994 12.2432 0.104424 12.2808 0.112924 12.3182C0.121425 12.3556 0.130398 12.3929 0.139845 12.4301C0.14929 12.4672 0.159205 12.5043 0.169589 12.5412C0.179974 12.5782 0.190824 12.615 0.202139 12.6517C0.213457 12.6883 0.225236 12.7248 0.237476 12.7612C0.249717 12.7975 0.262418 12.8337 0.275576 12.8698C0.288734 12.9058 0.302346 12.9417 0.316413 12.9774C0.33048 13.0131 0.344998 13.0486 0.359965 13.0839C0.374932 13.1192 0.39034 13.1544 0.406191 13.1893C0.422051 13.2242 0.438347 13.259 0.455081 13.2935C0.471816 13.328 0.488988 13.3623 0.506597 13.3964C0.524206 13.4305 0.542245 13.4644 0.560714 13.498C0.579166 13.5316 0.59805 13.565 0.617362 13.5982C0.68794 13.7232 0.760144 13.8472 0.833972 13.9704C0.907816 14.0935 0.983262 14.2156 1.06031 14.3367C1.13735 14.4579 1.21599 14.5779 1.29621 14.697C1.37641 14.8161 1.45817 14.934 1.54148 15.051C1.62481 15.1679 1.70965 15.2836 1.79601 15.3983C1.88237 15.513 1.97023 15.6265 2.05959 15.7389C2.14893 15.8512 2.23975 15.9624 2.33203 16.0724C2.4243 16.1823 2.51801 16.2911 2.61314 16.3986C2.70827 16.506 2.80481 16.6123 2.90276 16.7173C3.00068 16.8222 3.09998 16.9259 3.20065 17.0282C3.30131 17.1306 3.40331 17.2316 3.50663 17.3313C3.60994 17.4309 3.71456 17.5292 3.82048 17.6261C3.92637 17.723 4.03355 17.8185 4.14197 17.9126C4.25039 18.0067 4.36003 18.0993 4.47089 18.1906C4.58175 18.2818 4.69378 18.3715 4.80701 18.4597C4.92021 18.548 5.03459 18.6348 5.15009 18.72C5.18951 18.7484 5.22919 18.7763 5.26915 18.804C5.30909 18.8315 5.3493 18.8587 5.3898 18.8856C5.43026 18.9124 5.47099 18.9388 5.51201 18.9648C5.553 18.9908 5.59425 19.0165 5.63573 19.0417C5.67722 19.0669 5.71896 19.0917 5.76094 19.1161C5.80291 19.1405 5.84513 19.1645 5.88757 19.1881C5.92999 19.2117 5.97267 19.2349 6.01556 19.2577C6.05845 19.2804 6.10155 19.3027 6.14489 19.3247C6.1882 19.3466 6.23175 19.3681 6.27548 19.3892C6.31922 19.4103 6.36316 19.4309 6.40732 19.4512C6.45145 19.4714 6.4958 19.4912 6.54033 19.5105C6.58486 19.5299 6.62955 19.5488 6.67446 19.5673C6.71934 19.5858 6.76441 19.6039 6.80967 19.6215C6.85491 19.6391 6.90033 19.6563 6.94591 19.673C6.99148 19.6898 7.03723 19.7061 7.08314 19.7219C7.12903 19.7378 7.17506 19.7532 7.22128 19.7681C7.26745 19.7831 7.31379 19.7976 7.36029 19.8116C7.40674 19.8257 7.45336 19.8393 7.50012 19.8525C7.54685 19.8656 7.5937 19.8783 7.6407 19.8905C7.68769 19.9028 7.7348 19.9146 7.78202 19.9259C7.82923 19.9372 7.87655 19.9481 7.92398 19.9585C7.9714 19.9689 8.01893 19.9788 8.06656 19.9883C8.11418 19.9978 8.16187 20.0068 8.20969 20.0154C8.25748 20.0239 8.30536 20.032 8.35331 20.0397C8.40127 20.0473 8.44929 20.0544 8.49738 20.0611C8.54548 20.0678 8.59362 20.0741 8.64185 20.0798C8.69004 20.0856 8.7383 20.0909 8.78662 20.0957C8.83495 20.1005 8.8833 20.1049 8.9317 20.1087C8.9801 20.1126 9.02855 20.116 9.07702 20.119C9.12548 20.1219 9.17398 20.1244 9.22249 20.1264C9.27101 20.1284 9.31952 20.1299 9.36809 20.131C9.41663 20.132 9.46516 20.1326 9.51373 20.1327C9.55535 20.1331 9.59695 20.1331 9.63858 20.1328C9.6802 20.1324 9.7218 20.1317 9.76343 20.1306C9.80501 20.1295 9.84661 20.128 9.88819 20.1262C9.92977 20.1243 9.97132 20.1221 10.0129 20.1194C10.0544 20.1168 10.0959 20.1138 10.1374 20.1105C10.1789 20.1071 10.2203 20.1033 10.2617 20.0992C10.3031 20.0951 10.3445 20.0906 10.3859 20.0857C10.4272 20.0809 10.4685 20.0756 10.5097 20.07C10.551 20.0644 10.5921 20.0583 10.6333 20.052C10.6744 20.0456 10.7155 20.0389 10.7565 20.0318C10.7975 20.0246 10.8384 20.0172 10.8793 20.0093C10.9202 20.0014 10.9609 19.9932 11.0017 19.9846C11.0424 19.976 11.083 19.9671 11.1236 19.9578C11.1641 19.9484 11.2046 19.9387 11.245 19.9286C11.2854 19.9186 11.3257 19.9081 11.3659 19.8974C11.4061 19.8866 11.4462 19.8754 11.4862 19.8639C11.5261 19.8523 11.566 19.8405 11.6058 19.8282C11.6456 19.816 11.6852 19.8034 11.7248 19.7904C11.7643 19.7774 11.8038 19.7641 11.8431 19.7504C11.8824 19.7367 11.9216 19.7227 11.9606 19.7083C11.9997 19.6939 12.0386 19.6792 12.0774 19.6641C12.1162 19.6489 12.1548 19.6335 12.1933 19.6177C12.2318 19.6019 12.2702 19.5858 12.3084 19.5693C12.3466 19.5528 12.3846 19.5359 12.4226 19.5187C12.4605 19.5015 12.4982 19.484 12.5358 19.4662C12.5734 19.4483 12.6108 19.4301 12.648 19.4115C12.6853 19.393 12.7224 19.3741 12.7593 19.3549C12.7962 19.3356 12.833 19.3161 12.8695 19.2962C12.9061 19.2763 12.9424 19.2561 12.9787 19.2355C13.0148 19.215 13.0508 19.1941 13.0867 19.1729C13.1225 19.1517 13.1581 19.1302 13.1935 19.1083C13.2289 19.0865 13.2642 19.0643 13.2992 19.0418C14.641 18.1691 16.2283 16.44 16.1846 13.1891C16.1854 13.1605 16.1858 13.1319 16.1858 13.1033C16.1859 13.0746 16.1856 13.046 16.1849 13.0174C16.1842 12.9888 16.1832 12.9602 16.1818 12.9316C16.1805 12.903 16.1787 12.8745 16.1766 12.846C16.1745 12.8174 16.1721 12.7889 16.1693 12.7604C16.1665 12.7319 16.1633 12.7035 16.1599 12.6751C16.1564 12.6467 16.1525 12.6184 16.1483 12.5901C16.1441 12.5617 16.1395 12.5335 16.1346 12.5053C16.1297 12.4771 16.1244 12.449 16.1188 12.4209C16.1132 12.3929 16.1072 12.3649 16.1009 12.337C16.0946 12.309 16.0879 12.2812 16.081 12.2535C16.074 12.2257 16.0666 12.1981 16.0589 12.1705C16.0512 12.1429 16.0432 12.1155 16.0349 12.0881C16.0265 12.0607 16.0178 12.0335 16.0087 12.0063C15.9997 11.9792 15.9903 11.9522 15.9806 11.9253C15.9709 11.8983 15.9608 11.8715 15.9504 11.8449C15.94 11.8182 15.9293 11.7917 15.9183 11.7653C15.9072 11.7389 15.8958 11.7126 15.8842 11.6865C15.8724 11.6604 15.8604 11.6344 15.8481 11.6086C15.8357 11.5828 15.8231 11.5571 15.8101 11.5316C15.7971 11.5061 15.7838 11.4808 15.7702 11.4556C15.7566 11.4305 15.7427 11.4055 15.7284 11.3806C15.7142 11.3558 15.6997 11.3312 15.6848 11.3067C15.67 11.2822 15.6548 11.258 15.6394 11.2339C15.6239 11.2098 15.6082 11.1859 15.5921 11.1622C15.5761 11.1385 15.5597 11.115 15.5431 11.0917C15.5265 11.0684 15.5096 11.0453 15.4924 11.0225C15.4752 10.9996 15.4577 10.977 15.4399 10.9545C15.4222 10.9321 15.4041 10.9099 15.3858 10.8879C15.3675 10.8659 15.3489 10.8442 15.33 10.8226C15.3112 10.8011 15.2921 10.7798 15.2727 10.7588C15.2533 10.7377 15.2336 10.7169 15.2137 10.6964L15.7592 9.5291L15.8246 9.39818L15.8628 9.25638C15.87 9.22922 15.8768 9.20198 15.8834 9.17468C15.8899 9.14735 15.8961 9.11998 15.902 9.09253C15.9079 9.06506 15.9135 9.03752 15.9187 9.00994C15.9239 8.98233 15.9288 8.95469 15.9334 8.92699C15.938 8.89929 15.9423 8.87151 15.9462 8.84372C15.9501 8.8159 15.9537 8.78805 15.957 8.76016C15.9602 8.73227 15.9631 8.70434 15.9657 8.67637C15.9683 8.64841 15.9706 8.62043 15.9725 8.59242C15.9745 8.56439 15.9761 8.53633 15.9774 8.5083C15.9786 8.48023 15.9796 8.45217 15.9802 8.42412C15.9808 8.39604 15.9811 8.36794 15.981 8.33986C15.9809 8.31178 15.9805 8.2837 15.9798 8.25562C15.9791 8.22755 15.978 8.19947 15.9767 8.17144C15.9753 8.14338 15.9735 8.11535 15.9715 8.08737C15.9695 8.05933 15.9671 8.03135 15.9644 8.00341C15.9616 7.97545 15.9586 7.94754 15.9552 7.91967C15.9518 7.89178 15.9481 7.86396 15.9441 7.83616C15.9401 7.80837 15.9357 7.78062 15.931 7.75294C15.9263 7.72523 15.9213 7.6976 15.916 7.67004C15.9106 7.64248 15.9049 7.61496 15.8989 7.58754C15.8929 7.56009 15.8866 7.53274 15.88 7.50546C15.8733 7.47818 15.8663 7.45097 15.8591 7.42385C15.8518 7.39671 15.8442 7.36969 15.8362 7.34276C15.8283 7.3158 15.82 7.28897 15.8115 7.26223C15.8029 7.23548 15.794 7.20884 15.7848 7.1823C15.7756 7.15577 15.7661 7.12933 15.7563 7.10304C15.7465 7.07674 15.7363 7.05054 15.7259 7.02448C15.7155 6.99841 15.7047 6.97247 15.6936 6.94666C15.6826 6.92084 15.6712 6.89517 15.6595 6.86962C15.6479 6.84408 15.6359 6.81867 15.6236 6.79341C15.6114 6.76814 15.5988 6.74301 15.5859 6.71808C15.5731 6.69309 15.5599 6.6683 15.5465 6.64364C15.5176 6.59461 15.4875 6.54637 15.4561 6.49894C15.4247 6.4515 15.392 6.40491 15.3582 6.3592C15.3243 6.31345 15.2893 6.26866 15.2531 6.22479C15.2169 6.18091 15.1795 6.13802 15.141 6.09612C15.1026 6.05421 15.063 6.01334 15.0224 5.97352C14.9817 5.93367 14.9401 5.89495 14.8974 5.85731C14.8548 5.81967 14.8112 5.7832 14.7666 5.74788C14.722 5.71254 14.6765 5.67839 14.6301 5.64546C14.628 5.60644 14.6252 5.56746 14.6216 5.52855C14.6179 5.48965 14.6136 5.45081 14.6084 5.41209C14.6033 5.37333 14.5974 5.3347 14.5908 5.29622C14.5841 5.25769 14.5767 5.21932 14.5685 5.18112C14.5604 5.14289 14.5515 5.10485 14.5418 5.067C14.5322 5.02912 14.5218 4.99146 14.5107 4.95401C14.4996 4.91653 14.4877 4.87929 14.4751 4.8423C14.4625 4.8053 14.4492 4.76857 14.4352 4.7321C14.4212 4.69563 14.4064 4.65944 14.391 4.62354C14.3756 4.58763 14.3594 4.55205 14.3426 4.5168C14.3258 4.48153 14.3082 4.44661 14.29 4.41204C14.2718 4.37744 14.2529 4.34325 14.2334 4.30943C14.2138 4.27559 14.1936 4.24214 14.1728 4.20909C14.1519 4.17605 14.1304 4.14345 14.1083 4.11124C14.0861 4.07904 14.0633 4.04728 14.04 4.01597C14.0166 3.98466 13.9926 3.95384 13.968 3.92346C13.9434 3.89309 13.9182 3.86323 13.8924 3.83386C13.8667 3.80447 13.8403 3.77559 13.8134 3.74726C13.7865 3.7189 13.7591 3.6911 13.7311 3.66384C13.7031 3.63656 13.6746 3.60984 13.6455 3.58371C13.6165 3.55755 13.587 3.53198 13.5569 3.507C13.5269 3.48199 13.4963 3.45759 13.4654 3.4338C13.4344 3.40999 13.4029 3.38681 13.371 3.36427C13.3391 3.34169 13.3068 3.31978 13.274 3.2985C13.2412 3.27719 13.2081 3.25655 13.1745 3.23655C13.1409 3.21656 13.1069 3.19725 13.0726 3.17859C13.0383 3.15991 13.0036 3.14194 12.9685 3.12464C12.9335 3.10734 12.8981 3.09073 12.8624 3.07481C12.8267 3.0589 12.7908 3.04369 12.7545 3.0292C12.7182 3.01469 12.6816 3.00091 12.6448 2.98784C12.608 2.97476 12.5709 2.96243 12.5336 2.95083C12.4963 2.9392 12.4587 2.92833 12.421 2.91818C12.353 2.90025 12.2844 2.88452 12.2154 2.87098C12.1464 2.85743 12.077 2.84609 12.0072 2.83697C11.9374 2.82785 11.8675 2.82096 11.7973 2.81632C11.7271 2.81166 11.6568 2.80924 11.5865 2.8091L11.6083 2.77092ZM20.8919 5.7L19.2119 5.7C19.2175 5.77819 19.2175 5.85637 19.2119 5.93456C19.2118 5.98634 19.2112 6.03811 19.2099 6.08988C19.2086 6.14163 19.2066 6.19338 19.2041 6.24511C19.2015 6.29681 19.1984 6.34849 19.1946 6.40015C19.1908 6.4518 19.1864 6.50339 19.1814 6.55493C19.1763 6.60647 19.1707 6.65794 19.1644 6.70933C19.1582 6.76073 19.1513 6.81206 19.1438 6.86332C19.1363 6.91455 19.1282 6.96569 19.1195 7.01674C19.1108 7.06776 19.1014 7.11869 19.0915 7.16953C19.0816 7.22034 19.071 7.27104 19.0599 7.32162C19.0487 7.37217 19.0369 7.42259 19.0246 7.47288C19.0122 7.52316 18.9993 7.57329 18.9857 7.62328C18.9721 7.67325 18.9579 7.72305 18.9432 7.77269C18.9284 7.82231 18.9131 7.87176 18.8971 7.92103C18.8812 7.9703 18.8646 8.01935 18.8475 8.06824C18.8304 8.11709 18.8126 8.16574 18.7943 8.21421C18.776 8.26263 18.7572 8.31084 18.7377 8.35884C18.7183 8.40684 18.6982 8.45459 18.6776 8.50209C18.657 8.5496 18.6359 8.59685 18.6142 8.64387C18.5924 8.69086 18.5701 8.73759 18.5473 8.78407C18.5244 8.83052 18.501 8.87672 18.4771 8.92263C18.4531 8.96852 18.4286 9.01413 18.4035 9.05946C18.3785 9.10479 18.3529 9.14979 18.3267 9.19451C18.3006 9.2392 18.2739 9.28359 18.2467 9.32766C18.2195 9.37172 18.1918 9.41543 18.1636 9.45883C18.1353 9.50224 18.1065 9.5453 18.0772 9.588C18.048 9.6307 18.0182 9.67305 17.9879 9.71505C17.9576 9.75705 17.9268 9.79868 17.8955 9.83993C17.8642 9.88118 17.8324 9.92205 17.8001 9.96255C17.7678 10.003 17.7351 10.0431 17.7019 10.0828C17.6686 10.1225 17.6349 10.1618 17.6007 10.2007C17.5665 10.2396 17.5319 10.2781 17.4968 10.3162C17.4617 10.3542 17.4261 10.3919 17.3901 10.4291L18.421 11.6127C18.5368 11.5111 18.6492 11.4059 18.7584 11.2972C18.8675 11.1885 18.9732 11.0765 19.0753 10.9612C19.1774 10.8458 19.2758 10.7274 19.3705 10.6058C19.4652 10.4843 19.5559 10.36 19.6428 10.2327C19.6753 10.1923 19.7025 10.1487 19.7246 10.1018C19.772 10.0237 19.8179 9.94491 19.8626 9.86526C19.9072 9.78562 19.9505 9.70526 19.9924 9.62416C20.0343 9.54307 20.0748 9.46127 20.1139 9.3788C20.153 9.29632 20.1908 9.21321 20.2271 9.12944C20.2634 9.04568 20.2982 8.96133 20.3317 8.87639C20.3651 8.79145 20.3971 8.70595 20.4276 8.61994C20.4581 8.5339 20.4872 8.44737 20.5148 8.36037C20.5424 8.27334 20.5685 8.18587 20.5931 8.09798C20.6177 8.01007 20.6409 7.92178 20.6625 7.83309C20.6841 7.74441 20.7042 7.65537 20.7228 7.566C20.7414 7.47661 20.7585 7.38696 20.7741 7.29701C20.7896 7.20705 20.8036 7.11684 20.8161 7.02642C20.8286 6.936 20.8395 6.84539 20.849 6.75459C20.8584 6.66377 20.8662 6.57283 20.8726 6.48178C20.8789 6.3907 20.8837 6.29955 20.8869 6.20833C20.8901 6.11709 20.8918 6.02583 20.8919 5.93456C20.8979 5.85637 20.8979 5.77819 20.8919 5.7ZM5.95191 0.32182C5.9096 0.366059 5.86781 0.410773 5.82652 0.455962C5.78522 0.501152 5.74444 0.546809 5.7042 0.592929C5.66393 0.639047 5.62423 0.685619 5.58504 0.732644C5.54585 0.779667 5.5072 0.827133 5.46909 0.875037C5.43098 0.92294 5.39341 0.971276 5.35643 1.02004C5.3194 1.06879 5.28295 1.11796 5.24707 1.16755C5.21116 1.21715 5.17587 1.26714 5.14113 1.31753C5.10638 1.36794 5.0722 1.41873 5.03862 1.4699C5.00501 1.52107 4.97201 1.57262 4.93959 1.62454C4.90716 1.67646 4.87535 1.72875 4.84413 1.7814C4.81289 1.83405 4.78226 1.88704 4.75226 1.9404C4.72223 1.99375 4.69282 2.04743 4.66404 2.10144C4.63523 2.15546 4.60706 2.20979 4.5795 2.26445C4.55194 2.31911 4.52501 2.37408 4.49871 2.42937C4.47239 2.48463 4.44673 2.54018 4.4217 2.59605C4.39664 2.65191 4.37224 2.70804 4.34848 2.76448C4.32471 2.82087 4.30158 2.87754 4.27913 2.93449C4.25665 2.99142 4.23483 3.04861 4.21366 3.10605C4.1925 3.16348 4.17199 3.22116 4.15214 3.27907C4.13227 3.33696 4.11307 3.39509 4.09455 3.45344C4.07602 3.51178 4.05816 3.57033 4.04098 3.62909C4.02377 3.68782 4.00723 3.74677 3.99138 3.8059C3.97554 3.86501 3.96035 3.9243 3.94584 3.98379C3.93134 4.04325 3.91751 4.10287 3.90438 4.16266C3.89121 4.22243 3.87877 4.28236 3.867 4.34245C3.85521 4.4025 3.8441 4.46271 3.8337 4.52304C3.82329 4.58334 3.81356 4.64376 3.80454 4.70433C3.79549 4.76487 3.78715 4.8255 3.77951 4.88625C3.77187 4.94698 3.76491 5.0078 3.75865 5.06869C3.75237 5.12958 3.74679 5.19052 3.74191 5.25155C3.73704 5.31255 3.73284 5.37363 3.72938 5.43476C3.72588 5.49586 3.72309 5.55701 3.72101 5.6182L5.40101 5.6182C5.40335 5.56476 5.40637 5.51135 5.41005 5.45798C5.41371 5.40462 5.41805 5.35132 5.42306 5.29807C5.42803 5.2448 5.43368 5.19162 5.44001 5.13851C5.44629 5.08537 5.45325 5.03234 5.46089 4.97941C5.46848 4.92645 5.47676 4.87362 5.48569 4.82088C5.49459 4.76812 5.50418 4.71551 5.5144 4.66301C5.52462 4.61051 5.53547 4.55812 5.547 4.50591C5.55851 4.45366 5.57067 4.40159 5.58347 4.34965C5.59627 4.29771 5.6097 4.24594 5.6238 4.19433C5.63787 4.14272 5.65259 4.0913 5.66794 4.04006C5.68327 3.98883 5.69925 3.93778 5.71589 3.88694C5.73248 3.83609 5.74973 3.78546 5.76759 3.73505C5.78545 3.68461 5.80392 3.63443 5.82302 3.58446C5.84212 3.53449 5.86184 3.48478 5.88218 3.4353C5.9025 3.38583 5.92343 3.33661 5.94499 3.28765C5.96653 3.23869 5.98868 3.19001 6.01144 3.14161C6.03417 3.09319 6.05752 3.04505 6.08145 2.99723C6.10538 2.94937 6.12989 2.90184 6.15502 2.85464C6.18014 2.80739 6.20583 2.76049 6.2321 2.7139C6.25835 2.6673 6.28519 2.62104 6.31261 2.5751C6.34003 2.52916 6.36799 2.48358 6.39654 2.43834C6.42509 2.39311 6.45417 2.34823 6.48382 2.30369C6.51345 2.25917 6.54366 2.21502 6.57441 2.17124C6.60513 2.12746 6.6364 2.08407 6.66823 2.04107C6.70001 1.99807 6.73235 1.95547 6.76523 1.91326C6.79809 1.87106 6.83147 1.82926 6.86536 1.78787C6.89925 1.7465 6.93363 1.70554 6.96855 1.66501C7.00345 1.62448 7.03884 1.58439 7.07475 1.54473C7.11066 1.50508 7.14703 1.46587 7.1839 1.4271C7.22074 1.38835 7.25808 1.35005 7.29591 1.31221C7.33371 1.27438 7.37198 1.23702 7.41073 1.20013C7.44945 1.16324 7.48863 1.12684 7.52829 1.09091L6.28465 0C6.16577 0.0990516 6.05487 0.206325 5.95191 0.32182Z"></path></svg>