<svg xmlns="http://www.w3.org/2000/svg" xmlns:xlink="http://www.w3.org/1999/xlink" width="24" height="24" viewBox="0 0 24 24" fill="none"><path d="M18.8655 4.125C20.0314 4.125 20.9573 5.09925 20.9985 6.29138L21 6.375L21 8.625C21.0001 8.63702 20.9998 8.64902 20.9993 8.66102C20.9988 8.67305 20.998 8.68502 20.9969 8.69698C20.9958 8.70895 20.9944 8.72088 20.9927 8.73279C20.991 8.74467 20.9891 8.75653 20.9868 8.76834C20.9846 8.78013 20.982 8.79187 20.9793 8.80357C20.9764 8.81527 20.9734 8.82687 20.97 8.8384C20.9666 8.84993 20.963 8.86137 20.9591 8.87273C20.9552 8.8841 20.951 8.89535 20.9465 8.90651C20.9421 8.91769 20.9374 8.92873 20.9324 8.93965C20.9274 8.95059 20.9221 8.9614 20.9166 8.97206C20.9111 8.98275 20.9054 8.9933 20.8993 9.0037C20.8933 9.01409 20.8871 9.02435 20.8805 9.03445C20.874 9.04455 20.8673 9.05449 20.8603 9.06427C20.8533 9.07404 20.8461 9.08365 20.8387 9.09309C20.8312 9.10252 20.8236 9.11175 20.8157 9.12082C20.8078 9.12989 20.7997 9.13875 20.7914 9.14742C20.783 9.15609 20.7745 9.16455 20.7658 9.17283C20.7571 9.1811 20.7482 9.18914 20.739 9.19699C20.7299 9.20482 20.7206 9.21244 20.7112 9.21982C20.7017 9.2272 20.6921 9.23438 20.6822 9.24129C20.6724 9.2482 20.6624 9.25491 20.6523 9.26135C20.6421 9.2678 20.6318 9.27398 20.6214 9.27994C20.611 9.28589 20.6004 9.29159 20.5897 9.29702C20.579 9.30246 20.5681 9.30764 20.5572 9.31256C20.5462 9.31748 20.5351 9.32215 20.524 9.32653C20.5128 9.33091 20.5015 9.33504 20.4901 9.33888C20.4787 9.34273 20.4672 9.34629 20.4557 9.34959C20.4441 9.3529 20.4325 9.3559 20.4208 9.35864C20.4091 9.36138 20.3974 9.36382 20.3855 9.366C20.3737 9.36818 20.3618 9.37005 20.3499 9.37167C20.338 9.37327 20.3261 9.37458 20.3141 9.37561C20.3021 9.37664 20.2901 9.37737 20.2781 9.37781C20.2661 9.37826 20.2541 9.37842 20.2421 9.3783C20.2301 9.37819 20.2181 9.37777 20.2061 9.37706C20.1941 9.37636 20.1821 9.37537 20.1702 9.37409C20.1582 9.3728 20.1463 9.37125 20.1345 9.3694C20.1226 9.36755 20.1108 9.36541 20.099 9.363C20.0872 9.36059 20.0755 9.35787 20.0639 9.35489C20.0522 9.35191 20.0407 9.34866 20.0292 9.34512C20.0177 9.34158 20.0063 9.33776 19.995 9.33368C19.9837 9.32958 19.9725 9.32522 19.9614 9.3206C19.9504 9.31598 19.9394 9.31111 19.9285 9.30595C19.9177 9.3008 19.9069 9.29538 19.8963 9.28973C19.8857 9.28406 19.8753 9.27813 19.865 9.27197C19.8547 9.2658 19.8445 9.25938 19.8345 9.25273C19.8245 9.24607 19.8147 9.23918 19.805 9.23205C19.7953 9.22493 19.7858 9.21757 19.7765 9.20998C19.7672 9.20241 19.758 9.1946 19.7491 9.18656C19.7402 9.17852 19.7314 9.1703 19.7229 9.16186C19.7143 9.1534 19.706 9.14475 19.6979 9.13591C19.6897 9.12708 19.6818 9.11803 19.6741 9.10882C19.6664 9.09959 19.6589 9.09019 19.6517 9.0806C19.6444 9.07102 19.6374 9.06124 19.6307 9.05133C19.6239 9.04141 19.6174 9.03134 19.6111 9.02109C19.6048 9.01085 19.5987 9.00047 19.5929 8.98995C19.5871 8.97942 19.5816 8.96876 19.5763 8.95795C19.571 8.94717 19.566 8.93627 19.5613 8.92523C19.5565 8.9142 19.552 8.90304 19.5478 8.89179C19.5436 8.88054 19.5396 8.8692 19.536 8.85776C19.5323 8.84632 19.5289 8.83479 19.5258 8.82319C19.5226 8.81159 19.5198 8.79991 19.5172 8.78817C19.5147 8.77643 19.5124 8.76464 19.5104 8.7528C19.5084 8.74095 19.5067 8.72906 19.5053 8.71713C19.5038 8.7052 19.5027 8.69323 19.5019 8.68125L19.5 8.625L19.5 6.8175L11.6865 12.4076C11.6791 12.4129 11.6717 12.418 11.6641 12.423C11.6566 12.428 11.649 12.4329 11.6412 12.4376C11.6335 12.4423 11.6257 12.4469 11.6178 12.4514C11.6099 12.4558 11.602 12.4601 11.5939 12.4642C11.5859 12.4684 11.5778 12.4724 11.5696 12.4763C11.5614 12.4801 11.5531 12.4838 11.5448 12.4874C11.5365 12.491 11.5281 12.4944 11.5196 12.4976C11.5112 12.5009 11.5027 12.504 11.4941 12.5069C11.4856 12.5099 11.4769 12.5127 11.4683 12.5153C11.4596 12.5179 11.4509 12.5204 11.4422 12.5227C11.4334 12.5251 11.4246 12.5272 11.4158 12.5292C11.407 12.5312 11.3981 12.5331 11.3892 12.5347C11.3803 12.5364 11.3714 12.538 11.3625 12.5393C11.3535 12.5407 11.3445 12.5419 11.3355 12.5429C11.3265 12.5439 11.3175 12.5448 11.3085 12.5455C11.2995 12.5462 11.2904 12.5468 11.2814 12.5471C11.2723 12.5475 11.2633 12.5478 11.2542 12.5478C11.2452 12.5479 11.2361 12.5477 11.2271 12.5475C11.218 12.5472 11.209 12.5468 11.2 12.5461C11.1909 12.5456 11.1819 12.5448 11.1729 12.5438C11.1639 12.5429 11.1549 12.5418 11.1459 12.5406C11.137 12.5393 11.1281 12.5379 11.1191 12.5363C11.1102 12.5347 11.1013 12.533 11.0925 12.5311C11.0836 12.5292 11.0748 12.5272 11.066 12.5249C11.0573 12.5227 11.0485 12.5203 11.0398 12.5178C11.0311 12.5153 11.0225 12.5126 11.0139 12.5097C11.0053 12.5069 10.9968 12.5039 10.9883 12.5007C10.9798 12.4976 10.9714 12.4943 10.963 12.4908C10.9546 12.4873 10.9463 12.4837 10.9381 12.48C10.9299 12.4762 10.9217 12.4723 10.9136 12.4682C10.9055 12.4642 10.8975 12.4599 10.8896 12.4556C10.8816 12.4513 10.8738 12.4468 10.866 12.4421L10.8124 12.4069L3 6.795L3 17.625C3 18.0319 3.27038 18.3439 3.58687 18.3727L3.6345 18.375L15.4039 18.375C15.4159 18.375 15.4279 18.3752 15.4399 18.3757C15.4519 18.3762 15.4639 18.377 15.4759 18.3781C15.4878 18.3792 15.4998 18.3806 15.5117 18.3823C15.5235 18.384 15.5354 18.3859 15.5472 18.3882C15.559 18.3904 15.5708 18.393 15.5824 18.3957C15.5941 18.3986 15.6057 18.4016 15.6173 18.405C15.6288 18.4084 15.6402 18.412 15.6516 18.4159C15.663 18.4198 15.6742 18.424 15.6854 18.4285C15.6966 18.4329 15.7076 18.4377 15.7185 18.4427C15.7295 18.4477 15.7403 18.4529 15.7509 18.4584C15.7616 18.4639 15.7722 18.4697 15.7826 18.4757C15.793 18.4817 15.8032 18.4879 15.8133 18.4945C15.8234 18.501 15.8334 18.5077 15.8431 18.5147C15.8529 18.5217 15.8625 18.5289 15.872 18.5363C15.8814 18.5438 15.8906 18.5514 15.8997 18.5593C15.9088 18.5672 15.9176 18.5753 15.9263 18.5836C15.935 18.592 15.9434 18.6005 15.9517 18.6092C15.96 18.6179 15.968 18.6268 15.9759 18.636C15.9837 18.6451 15.9913 18.6544 15.9987 18.6638C16.0061 18.6733 16.0133 18.6829 16.0202 18.6928C16.0271 18.7026 16.0338 18.7126 16.0402 18.7227C16.0467 18.7329 16.0529 18.7432 16.0588 18.7536C16.0648 18.764 16.0705 18.7746 16.0759 18.7853C16.0813 18.796 16.0865 18.8069 16.0914 18.8178C16.0964 18.8288 16.101 18.8399 16.1054 18.8511C16.1098 18.8622 16.1139 18.8735 16.1178 18.8849C16.1216 18.8963 16.1252 18.9078 16.1285 18.9193C16.1318 18.9309 16.1348 18.9425 16.1375 18.9542C16.1403 18.9659 16.1427 18.9776 16.1449 18.9895C16.1471 19.0013 16.1489 19.0132 16.1505 19.0251C16.1521 19.037 16.1535 19.0489 16.1545 19.0609C16.1555 19.0729 16.1562 19.0849 16.1567 19.0969C16.1571 19.1089 16.1573 19.1209 16.1572 19.1329C16.1571 19.1449 16.1566 19.1569 16.1559 19.1689C16.1552 19.1809 16.1543 19.1929 16.153 19.2048C16.1517 19.2168 16.1501 19.2287 16.1483 19.2405C16.1464 19.2524 16.1443 19.2642 16.1419 19.276C16.1395 19.2878 16.1367 19.2995 16.1338 19.3111C16.1308 19.3228 16.1275 19.3343 16.124 19.3458C16.1205 19.3573 16.1166 19.3687 16.1126 19.38C16.1085 19.3913 16.1041 19.4025 16.0995 19.4136C16.0949 19.4246 16.09 19.4356 16.0848 19.4465C16.0797 19.4573 16.0743 19.4681 16.0686 19.4787C16.0629 19.4893 16.057 19.4997 16.0508 19.51C16.0447 19.5203 16.0383 19.5305 16.0316 19.5405C16.0249 19.5505 16.0181 19.5603 16.0109 19.57C16.0038 19.5797 15.9964 19.5892 15.9889 19.5985C15.9813 19.6078 15.9735 19.617 15.9654 19.6259C15.9574 19.6348 15.9492 19.6436 15.9407 19.6521C15.9323 19.6607 15.9236 19.669 15.9148 19.6771C15.906 19.6853 15.8969 19.6932 15.8877 19.7009C15.8785 19.7086 15.8691 19.7161 15.8595 19.7233C15.8499 19.7306 15.8401 19.7376 15.8302 19.7443C15.8203 19.7511 15.8102 19.7576 15.8 19.764C15.7897 19.7702 15.7793 19.7763 15.7688 19.7821C15.7583 19.7879 15.7476 19.7934 15.7369 19.7987C15.726 19.804 15.7151 19.809 15.7041 19.8137C15.6931 19.8185 15.6819 19.823 15.6707 19.8272C15.6594 19.8314 15.6481 19.8354 15.6366 19.839C15.6252 19.8427 15.6137 19.8461 15.6021 19.8492C15.5905 19.8524 15.5788 19.8552 15.567 19.8578C15.5553 19.8603 15.5435 19.8626 15.5317 19.8646C15.5198 19.8666 15.5079 19.8683 15.496 19.8697C15.4841 19.8712 15.4721 19.8723 15.4601 19.8731L15.4039 19.875L3.6345 19.875C2.46863 19.875 1.54275 18.9007 1.5015 17.7086L1.5 17.625L1.5 6.375C1.5 5.17313 2.39925 4.1715 3.5535 4.1265L3.6345 4.125L18.8655 4.125ZM17.25 15.375C17.2623 15.375 17.2745 15.3753 17.2868 15.3759C17.2991 15.3765 17.3113 15.3774 17.3235 15.3786C17.3357 15.3798 17.3479 15.3813 17.36 15.3831C17.3722 15.3849 17.3843 15.387 17.3963 15.3894C17.4083 15.3918 17.4203 15.3945 17.4322 15.3975C17.4441 15.4005 17.456 15.4037 17.4677 15.4073C17.4795 15.4109 17.4911 15.4147 17.5027 15.4189C17.5142 15.423 17.5257 15.4274 17.537 15.4321C17.5484 15.4368 17.5596 15.4417 17.5707 15.447C17.5818 15.4522 17.5927 15.4578 17.6036 15.4636C17.6144 15.4694 17.625 15.4754 17.6356 15.4817C17.6461 15.488 17.6565 15.4946 17.6667 15.5014C17.6769 15.5082 17.6869 15.5153 17.6968 15.5226C17.7066 15.5299 17.7163 15.5374 17.7258 15.5452C17.7353 15.553 17.7446 15.561 17.7537 15.5693C17.7628 15.5775 17.7716 15.586 17.7803 15.5947C17.789 15.6034 17.7975 15.6122 17.8057 15.6213C17.814 15.6304 17.822 15.6397 17.8298 15.6492C17.8376 15.6587 17.8451 15.6684 17.8524 15.6782C17.8597 15.6881 17.8668 15.6981 17.8736 15.7083C17.8804 15.7185 17.887 15.7289 17.8933 15.7394C17.8996 15.75 17.9056 15.7606 17.9114 15.7714C17.9172 15.7823 17.9228 15.7932 17.928 15.8043C17.9332 15.8154 17.9382 15.8266 17.9429 15.838C17.9476 15.8493 17.952 15.8608 17.9561 15.8723C17.9603 15.8839 17.9641 15.8955 17.9677 15.9073C17.9713 15.919 17.9745 15.9309 17.9775 15.9428C17.9805 15.9547 17.9832 15.9667 17.9856 15.9787C17.988 15.9907 17.9901 16.0028 17.9919 16.015C17.9937 16.0271 17.9952 16.0393 17.9964 16.0515C17.9976 16.0637 17.9985 16.0759 17.9991 16.0882C17.9997 16.1005 18 16.1127 18 16.125C18 16.1373 17.9997 16.1495 17.9991 16.1618C17.9985 16.1741 17.9976 16.1863 17.9964 16.1985C17.9952 16.2107 17.9937 16.2229 17.9919 16.235C17.9901 16.2472 17.988 16.2593 17.9856 16.2713C17.9832 16.2833 17.9805 16.2953 17.9775 16.3072C17.9745 16.3191 17.9713 16.331 17.9677 16.3427C17.9641 16.3545 17.9603 16.3661 17.9561 16.3777C17.952 16.3892 17.9476 16.4007 17.9429 16.412C17.9382 16.4234 17.9332 16.4346 17.928 16.4457C17.9228 16.4568 17.9172 16.4677 17.9114 16.4786C17.9056 16.4894 17.8996 16.5 17.8933 16.5106C17.887 16.5211 17.8804 16.5315 17.8736 16.5417C17.8668 16.5519 17.8597 16.5619 17.8524 16.5718C17.8451 16.5816 17.8376 16.5913 17.8298 16.6008C17.822 16.6103 17.814 16.6196 17.8057 16.6287C17.7975 16.6378 17.789 16.6466 17.7803 16.6553C17.7716 16.664 17.7628 16.6725 17.7537 16.6807C17.7446 16.689 17.7353 16.697 17.7258 16.7048C17.7163 16.7126 17.7066 16.7201 17.6968 16.7274C17.6869 16.7347 17.6769 16.7418 17.6667 16.7486C17.6565 16.7554 17.6461 16.762 17.6356 16.7683C17.625 16.7746 17.6144 16.7806 17.6036 16.7864C17.5927 16.7922 17.5818 16.7978 17.5707 16.803C17.5596 16.8082 17.5484 16.8132 17.537 16.8179C17.5257 16.8226 17.5142 16.827 17.5027 16.8311C17.4911 16.8353 17.4795 16.8391 17.4677 16.8427C17.456 16.8463 17.4441 16.8495 17.4322 16.8525C17.4203 16.8555 17.4083 16.8582 17.3963 16.8606C17.3843 16.863 17.3722 16.8651 17.36 16.8669C17.3479 16.8687 17.3357 16.8702 17.3235 16.8714C17.3113 16.8726 17.2991 16.8735 17.2868 16.8741C17.2745 16.8747 17.2623 16.875 17.25 16.875L14.25 16.875C14.2377 16.875 14.2255 16.8747 14.2132 16.8741C14.2009 16.8735 14.1887 16.8726 14.1765 16.8714C14.1643 16.8702 14.1521 16.8687 14.14 16.8669C14.1278 16.8651 14.1157 16.863 14.1037 16.8606C14.0917 16.8582 14.0797 16.8555 14.0678 16.8525C14.0559 16.8495 14.044 16.8463 14.0323 16.8427C14.0205 16.8391 14.0089 16.8353 13.9973 16.8311C13.9858 16.827 13.9743 16.8226 13.963 16.8179C13.9516 16.8132 13.9404 16.8082 13.9293 16.803C13.9182 16.7978 13.9073 16.7922 13.8964 16.7864C13.8856 16.7806 13.875 16.7746 13.8644 16.7683C13.8539 16.762 13.8435 16.7554 13.8333 16.7486C13.8231 16.7418 13.8131 16.7347 13.8032 16.7274C13.7934 16.7201 13.7837 16.7126 13.7742 16.7048C13.7647 16.697 13.7554 16.689 13.7463 16.6807C13.7372 16.6725 13.7284 16.664 13.7197 16.6553C13.711 16.6466 13.7025 16.6378 13.6943 16.6287C13.686 16.6196 13.678 16.6103 13.6702 16.6008C13.6624 16.5913 13.6549 16.5816 13.6476 16.5718C13.6403 16.5619 13.6332 16.5519 13.6264 16.5417C13.6196 16.5315 13.613 16.5211 13.6067 16.5106C13.6004 16.5 13.5944 16.4894 13.5886 16.4786C13.5828 16.4677 13.5772 16.4568 13.572 16.4457C13.5667 16.4346 13.5618 16.4234 13.5571 16.412C13.5524 16.4007 13.548 16.3892 13.5439 16.3777C13.5397 16.3661 13.5359 16.3545 13.5323 16.3427C13.5287 16.331 13.5255 16.3191 13.5225 16.3072C13.5195 16.2953 13.5168 16.2833 13.5144 16.2713C13.512 16.2593 13.5099 16.2472 13.5081 16.235C13.5063 16.2229 13.5048 16.2107 13.5036 16.1985C13.5024 16.1863 13.5015 16.1741 13.5009 16.1618C13.5003 16.1495 13.5 16.1373 13.5 16.125C13.5 16.1127 13.5003 16.1005 13.5009 16.0882C13.5015 16.0759 13.5024 16.0637 13.5036 16.0515C13.5048 16.0393 13.5063 16.0271 13.5081 16.015C13.5099 16.0028 13.512 15.9907 13.5144 15.9787C13.5168 15.9667 13.5195 15.9547 13.5225 15.9428C13.5255 15.9309 13.5287 15.919 13.5323 15.9073C13.5359 15.8955 13.5397 15.8839 13.5439 15.8723C13.548 15.8608 13.5524 15.8493 13.5571 15.838C13.5618 15.8266 13.5667 15.8154 13.572 15.8043C13.5772 15.7932 13.5828 15.7823 13.5886 15.7714C13.5944 15.7606 13.6004 15.75 13.6067 15.7394C13.613 15.7289 13.6196 15.7185 13.6264 15.7083C13.6332 15.6981 13.6403 15.6881 13.6476 15.6782C13.6549 15.6684 13.6624 15.6587 13.6702 15.6492C13.678 15.6397 13.686 15.6304 13.6943 15.6213C13.7025 15.6122 13.711 15.6034 13.7197 15.5947C13.7284 15.586 13.7372 15.5775 13.7463 15.5693C13.7554 15.561 13.7647 15.553 13.7742 15.5452C13.7837 15.5374 13.7934 15.5299 13.8032 15.5226C13.8131 15.5153 13.8231 15.5082 13.8333 15.5014C13.8435 15.4946 13.8539 15.488 13.8644 15.4817C13.875 15.4754 13.8856 15.4694 13.8964 15.4636C13.9073 15.4578 13.9182 15.4522 13.9293 15.447C13.9404 15.4417 13.9516 15.4368 13.963 15.4321C13.9743 15.4274 13.9858 15.423 13.9973 15.4189C14.0089 15.4147 14.0205 15.4109 14.0323 15.4073C14.044 15.4037 14.0559 15.4005 14.0678 15.3975C14.0797 15.3945 14.0917 15.3918 14.1037 15.3894C14.1157 15.387 14.1278 15.3849 14.14 15.3831C14.1521 15.3813 14.1643 15.3798 14.1765 15.3786C14.1887 15.3774 14.2009 15.3765 14.2132 15.3759C14.2255 15.3753 14.2377 15.375 14.25 15.375L17.25 15.375ZM19.5 13.125C19.5123 13.125 19.5245 13.1253 19.5368 13.1259C19.5491 13.1265 19.5613 13.1274 19.5735 13.1286C19.5857 13.1298 19.5979 13.1313 19.61 13.1331C19.6222 13.1349 19.6343 13.137 19.6463 13.1394C19.6583 13.1418 19.6703 13.1445 19.6822 13.1475C19.6941 13.1505 19.706 13.1537 19.7177 13.1573C19.7295 13.1609 19.7411 13.1647 19.7527 13.1689C19.7642 13.173 19.7757 13.1774 19.787 13.1821C19.7983 13.1868 19.8096 13.1917 19.8207 13.197C19.8318 13.2022 19.8427 13.2078 19.8536 13.2136C19.8644 13.2194 19.875 13.2254 19.8856 13.2317C19.8961 13.238 19.9065 13.2446 19.9167 13.2514C19.9269 13.2582 19.9369 13.2653 19.9468 13.2726C19.9566 13.2799 19.9663 13.2874 19.9758 13.2952C19.9853 13.303 19.9946 13.311 20.0037 13.3193C20.0128 13.3275 20.0216 13.336 20.0303 13.3447C20.039 13.3534 20.0475 13.3622 20.0557 13.3713C20.064 13.3804 20.072 13.3897 20.0798 13.3992C20.0876 13.4087 20.0951 13.4184 20.1024 13.4282C20.1097 13.4381 20.1168 13.4481 20.1236 13.4583C20.1304 13.4685 20.137 13.4789 20.1433 13.4894C20.1496 13.5 20.1556 13.5106 20.1614 13.5214C20.1672 13.5323 20.1728 13.5432 20.178 13.5543C20.1832 13.5654 20.1882 13.5766 20.1929 13.588C20.1976 13.5993 20.202 13.6108 20.2061 13.6223C20.2103 13.6339 20.2141 13.6455 20.2177 13.6573C20.2213 13.669 20.2245 13.6809 20.2275 13.6928C20.2305 13.7047 20.2332 13.7167 20.2356 13.7287C20.238 13.7407 20.2401 13.7528 20.2419 13.765C20.2437 13.7771 20.2452 13.7893 20.2464 13.8015C20.2476 13.8137 20.2485 13.8259 20.2491 13.8382C20.2497 13.8505 20.25 13.8627 20.25 13.875C20.25 13.8873 20.2497 13.8995 20.2491 13.9118C20.2485 13.9241 20.2476 13.9363 20.2464 13.9485C20.2452 13.9607 20.2437 13.9729 20.2419 13.985C20.2401 13.9972 20.238 14.0093 20.2356 14.0213C20.2332 14.0333 20.2305 14.0453 20.2275 14.0572C20.2245 14.0691 20.2213 14.081 20.2177 14.0927C20.2141 14.1045 20.2103 14.1161 20.2061 14.1277C20.202 14.1392 20.1976 14.1507 20.1929 14.162C20.1882 14.1733 20.1832 14.1846 20.178 14.1957C20.1728 14.2068 20.1672 14.2177 20.1614 14.2286C20.1556 14.2394 20.1496 14.25 20.1433 14.2606C20.137 14.2711 20.1304 14.2815 20.1236 14.2917C20.1168 14.3019 20.1097 14.3119 20.1024 14.3218C20.0951 14.3316 20.0876 14.3413 20.0798 14.3508C20.072 14.3603 20.064 14.3696 20.0557 14.3787C20.0475 14.3878 20.039 14.3966 20.0303 14.4053C20.0216 14.414 20.0128 14.4225 20.0037 14.4307C19.9946 14.439 19.9853 14.447 19.9758 14.4548C19.9663 14.4626 19.9566 14.4701 19.9468 14.4774C19.9369 14.4847 19.9269 14.4918 19.9167 14.4986C19.9065 14.5054 19.8961 14.512 19.8856 14.5183C19.875 14.5246 19.8644 14.5306 19.8536 14.5364C19.8427 14.5422 19.8318 14.5478 19.8207 14.553C19.8096 14.5582 19.7983 14.5632 19.787 14.5679C19.7757 14.5726 19.7642 14.577 19.7527 14.5811C19.7411 14.5853 19.7295 14.5891 19.7177 14.5927C19.706 14.5963 19.6941 14.5995 19.6822 14.6025C19.6703 14.6055 19.6583 14.6082 19.6463 14.6106C19.6343 14.613 19.6222 14.6151 19.61 14.6169C19.5979 14.6187 19.5857 14.6202 19.5735 14.6214C19.5613 14.6226 19.5491 14.6235 19.5368 14.6241C19.5245 14.6247 19.5123 14.625 19.5 14.625L16.5 14.625C16.4877 14.625 16.4755 14.6247 16.4632 14.6241C16.4509 14.6235 16.4387 14.6226 16.4265 14.6214C16.4143 14.6202 16.4021 14.6187 16.39 14.6169C16.3778 14.6151 16.3657 14.613 16.3537 14.6106C16.3417 14.6082 16.3297 14.6055 16.3178 14.6025C16.3059 14.5995 16.294 14.5963 16.2823 14.5927C16.2705 14.5891 16.2589 14.5853 16.2473 14.5811C16.2358 14.577 16.2243 14.5726 16.213 14.5679C16.2016 14.5632 16.1904 14.5582 16.1793 14.553C16.1682 14.5478 16.1573 14.5422 16.1464 14.5364C16.1356 14.5306 16.125 14.5246 16.1144 14.5183C16.1039 14.512 16.0935 14.5054 16.0833 14.4986C16.0731 14.4918 16.0631 14.4847 16.0532 14.4774C16.0434 14.4701 16.0337 14.4626 16.0242 14.4548C16.0147 14.447 16.0054 14.439 15.9963 14.4307C15.9872 14.4225 15.9784 14.414 15.9697 14.4053C15.961 14.3966 15.9525 14.3878 15.9443 14.3787C15.936 14.3696 15.928 14.3603 15.9202 14.3508C15.9124 14.3413 15.9049 14.3316 15.8976 14.3218C15.8903 14.3119 15.8832 14.3019 15.8764 14.2917C15.8696 14.2815 15.863 14.2711 15.8567 14.2606C15.8504 14.25 15.8444 14.2394 15.8386 14.2286C15.8328 14.2177 15.8272 14.2068 15.822 14.1957C15.8167 14.1846 15.8118 14.1734 15.8071 14.162C15.8024 14.1507 15.798 14.1392 15.7939 14.1277C15.7897 14.1161 15.7859 14.1045 15.7823 14.0927C15.7787 14.081 15.7755 14.0691 15.7725 14.0572C15.7695 14.0453 15.7668 14.0333 15.7644 14.0213C15.762 14.0093 15.7599 13.9972 15.7581 13.985C15.7563 13.9729 15.7548 13.9607 15.7536 13.9485C15.7524 13.9363 15.7515 13.9241 15.7509 13.9118C15.7503 13.8995 15.75 13.8873 15.75 13.875C15.75 13.8627 15.7503 13.8505 15.7509 13.8382C15.7515 13.8259 15.7524 13.8137 15.7536 13.8015C15.7548 13.7893 15.7563 13.7771 15.7581 13.765C15.7599 13.7528 15.762 13.7407 15.7644 13.7287C15.7668 13.7167 15.7695 13.7047 15.7725 13.6928C15.7755 13.6809 15.7787 13.669 15.7823 13.6573C15.7859 13.6455 15.7897 13.6339 15.7939 13.6223C15.798 13.6108 15.8024 13.5993 15.8071 13.588C15.8118 13.5766 15.8167 13.5654 15.822 13.5543C15.8272 13.5432 15.8328 13.5323 15.8386 13.5214C15.8444 13.5106 15.8504 13.5 15.8567 13.4894C15.863 13.4789 15.8696 13.4685 15.8764 13.4583C15.8832 13.4481 15.8903 13.4381 15.8976 13.4282C15.9049 13.4184 15.9124 13.4087 15.9202 13.3992C15.928 13.3897 15.936 13.3804 15.9443 13.3713C15.9525 13.3622 15.961 13.3534 15.9697 13.3447C15.9784 13.336 15.9872 13.3275 15.9963 13.3193C16.0054 13.311 16.0147 13.303 16.0242 13.2952C16.0337 13.2874 16.0434 13.2799 16.0532 13.2726C16.0631 13.2653 16.0731 13.2582 16.0833 13.2514C16.0935 13.2446 16.1039 13.238 16.1144 13.2317C16.125 13.2254 16.1356 13.2194 16.1464 13.2136C16.1573 13.2078 16.1682 13.2022 16.1793 13.197C16.1904 13.1917 16.2016 13.1868 16.213 13.1821C16.2243 13.1774 16.2358 13.173 16.2473 13.1689C16.2589 13.1647 16.2705 13.1609 16.2823 13.1573C16.294 13.1537 16.3059 13.1505 16.3178 13.1475C16.3297 13.1445 16.3417 13.1418 16.3537 13.1394C16.3657 13.137 16.3778 13.1349 16.39 13.1331C16.4021 13.1313 16.4143 13.1298 16.4265 13.1286C16.4387 13.1274 16.4509 13.1265 16.4632 13.1259C16.4755 13.1253 16.4877 13.125 16.5 13.125L19.5 13.125ZM21.75 10.875C21.7623 10.875 21.7745 10.8753 21.7868 10.8759C21.7991 10.8765 21.8113 10.8774 21.8235 10.8786C21.8357 10.8798 21.8479 10.8813 21.86 10.8831C21.8722 10.8849 21.8843 10.887 21.8963 10.8894C21.9083 10.8918 21.9203 10.8945 21.9322 10.8975C21.9441 10.9005 21.956 10.9037 21.9677 10.9073C21.9795 10.9109 21.9911 10.9147 22.0027 10.9189C22.0142 10.923 22.0257 10.9274 22.037 10.9321C22.0484 10.9368 22.0596 10.9417 22.0707 10.947C22.0818 10.9522 22.0927 10.9578 22.1036 10.9636C22.1144 10.9694 22.125 10.9754 22.1356 10.9817C22.1461 10.988 22.1565 10.9946 22.1667 11.0014C22.1769 11.0082 22.1869 11.0153 22.1968 11.0226C22.2066 11.0299 22.2163 11.0374 22.2258 11.0452C22.2353 11.053 22.2446 11.061 22.2537 11.0693C22.2628 11.0775 22.2716 11.086 22.2803 11.0947C22.289 11.1034 22.2975 11.1122 22.3057 11.1213C22.314 11.1304 22.322 11.1397 22.3298 11.1492C22.3376 11.1587 22.3451 11.1684 22.3524 11.1782C22.3597 11.1881 22.3668 11.1981 22.3736 11.2083C22.3804 11.2185 22.387 11.2289 22.3933 11.2394C22.3996 11.25 22.4056 11.2606 22.4114 11.2714C22.4172 11.2823 22.4228 11.2932 22.428 11.3043C22.4332 11.3154 22.4382 11.3266 22.4429 11.338C22.4476 11.3493 22.452 11.3608 22.4561 11.3723C22.4603 11.3839 22.4641 11.3955 22.4677 11.4073C22.4713 11.419 22.4745 11.4309 22.4775 11.4428C22.4805 11.4547 22.4832 11.4667 22.4856 11.4787C22.488 11.4907 22.4901 11.5028 22.4919 11.515C22.4937 11.5271 22.4952 11.5393 22.4964 11.5515C22.4976 11.5637 22.4985 11.5759 22.4991 11.5882C22.4997 11.6005 22.5 11.6127 22.5 11.625C22.5 11.6373 22.4997 11.6495 22.4991 11.6618C22.4985 11.6741 22.4976 11.6863 22.4964 11.6985C22.4952 11.7107 22.4937 11.7229 22.4919 11.735C22.4901 11.7472 22.488 11.7593 22.4856 11.7713C22.4832 11.7833 22.4805 11.7953 22.4775 11.8072C22.4745 11.8191 22.4713 11.831 22.4677 11.8427C22.4641 11.8545 22.4603 11.8661 22.4561 11.8777C22.452 11.8892 22.4476 11.9007 22.4429 11.912C22.4382 11.9234 22.4332 11.9346 22.428 11.9457C22.4228 11.9568 22.4172 11.9677 22.4114 11.9786C22.4056 11.9894 22.3996 12 22.3933 12.0106C22.387 12.0211 22.3804 12.0315 22.3736 12.0417C22.3668 12.0519 22.3597 12.0619 22.3524 12.0718C22.3451 12.0816 22.3376 12.0913 22.3298 12.1008C22.322 12.1103 22.314 12.1196 22.3057 12.1287C22.2975 12.1378 22.289 12.1466 22.2803 12.1553C22.2716 12.164 22.2628 12.1725 22.2537 12.1807C22.2446 12.189 22.2353 12.197 22.2258 12.2048C22.2163 12.2126 22.2066 12.2201 22.1968 12.2274C22.1869 12.2347 22.1769 12.2418 22.1667 12.2486C22.1565 12.2554 22.1461 12.262 22.1356 12.2683C22.125 12.2746 22.1144 12.2806 22.1036 12.2864C22.0927 12.2922 22.0818 12.2978 22.0707 12.303C22.0596 12.3082 22.0484 12.3132 22.037 12.3179C22.0257 12.3226 22.0142 12.327 22.0027 12.3311C21.9911 12.3353 21.9795 12.3391 21.9677 12.3427C21.956 12.3463 21.9441 12.3495 21.9322 12.3525C21.9203 12.3555 21.9083 12.3582 21.8963 12.3606C21.8843 12.363 21.8722 12.3651 21.86 12.3669C21.8479 12.3687 21.8357 12.3702 21.8235 12.3714C21.8113 12.3726 21.7991 12.3735 21.7868 12.3741C21.7745 12.3747 21.7623 12.375 21.75 12.375L18.75 12.375C18.7377 12.375 18.7255 12.3747 18.7132 12.3741C18.7009 12.3735 18.6887 12.3726 18.6765 12.3714C18.6643 12.3702 18.6521 12.3687 18.64 12.3669C18.6278 12.3651 18.6157 12.363 18.6037 12.3606C18.5917 12.3582 18.5797 12.3555 18.5678 12.3525C18.5559 12.3495 18.544 12.3463 18.5323 12.3427C18.5205 12.3391 18.5089 12.3353 18.4973 12.3311C18.4858 12.327 18.4743 12.3226 18.463 12.3179C18.4516 12.3132 18.4404 12.3082 18.4293 12.303C18.4182 12.2978 18.4073 12.2922 18.3964 12.2864C18.3856 12.2806 18.375 12.2746 18.3644 12.2683C18.3539 12.262 18.3435 12.2554 18.3333 12.2486C18.3231 12.2418 18.3131 12.2347 18.3032 12.2274C18.2934 12.2201 18.2837 12.2126 18.2742 12.2048C18.2647 12.197 18.2554 12.189 18.2463 12.1807C18.2372 12.1725 18.2284 12.164 18.2197 12.1553C18.211 12.1466 18.2025 12.1378 18.1943 12.1287C18.186 12.1196 18.178 12.1103 18.1702 12.1008C18.1624 12.0913 18.1549 12.0816 18.1476 12.0718C18.1403 12.0619 18.1332 12.0519 18.1264 12.0417C18.1196 12.0315 18.113 12.0211 18.1067 12.0106C18.1004 12 18.0944 11.9894 18.0886 11.9786C18.0828 11.9677 18.0772 11.9568 18.072 11.9457C18.0667 11.9346 18.0618 11.9234 18.0571 11.912C18.0524 11.9007 18.048 11.8892 18.0439 11.8777C18.0397 11.8661 18.0359 11.8545 18.0323 11.8427C18.0287 11.831 18.0255 11.8191 18.0225 11.8072C18.0195 11.7953 18.0168 11.7833 18.0144 11.7713C18.012 11.7593 18.0099 11.7472 18.0081 11.735C18.0063 11.7229 18.0048 11.7107 18.0036 11.6985C18.0024 11.6863 18.0015 11.6741 18.0009 11.6618C18.0003 11.6495 18 11.6373 18 11.625C18 11.6127 18.0003 11.6005 18.0009 11.5882C18.0015 11.5759 18.0024 11.5637 18.0036 11.5515C18.0048 11.5393 18.0063 11.5271 18.0081 11.515C18.0099 11.5028 18.012 11.4907 18.0144 11.4787C18.0168 11.4667 18.0195 11.4547 18.0225 11.4428C18.0255 11.4309 18.0287 11.419 18.0323 11.4073C18.0359 11.3955 18.0397 11.3839 18.0439 11.3723C18.048 11.3608 18.0524 11.3493 18.0571 11.338C18.0618 11.3266 18.0667 11.3154 18.072 11.3043C18.0772 11.2932 18.0828 11.2823 18.0886 11.2714C18.0944 11.2606 18.1004 11.25 18.1067 11.2394C18.113 11.2289 18.1196 11.2185 18.1264 11.2083C18.1332 11.1981 18.1403 11.1881 18.1476 11.1782C18.1549 11.1684 18.1624 11.1587 18.1702 11.1492C18.178 11.1397 18.186 11.1304 18.1943 11.1213C18.2025 11.1122 18.211 11.1034 18.2197 11.0947C18.2284 11.086 18.2372 11.0775 18.2463 11.0693C18.2554 11.061 18.2647 11.053 18.2742 11.0452C18.2837 11.0374 18.2934 11.0299 18.3032 11.0226C18.3131 11.0153 18.3231 11.0082 18.3333 11.0014C18.3435 10.9946 18.3539 10.988 18.3644 10.9817C18.375 10.9754 18.3856 10.9694 18.3964 10.9636C18.4073 10.9578 18.4182 10.9522 18.4293 10.947C18.4404 10.9417 18.4516 10.9368 18.463 10.9321C18.4743 10.9274 18.4858 10.923 18.4973 10.9189C18.5089 10.9147 18.5205 10.9109 18.5323 10.9073C18.544 10.9037 18.5559 10.9005 18.5678 10.8975C18.5797 10.8945 18.5917 10.8918 18.6037 10.8894C18.6157 10.887 18.6278 10.8849 18.64 10.8831C18.6521 10.8813 18.6643 10.8798 18.6765 10.8786C18.6887 10.8774 18.7009 10.8765 18.7132 10.8759C18.7255 10.8753 18.7377 10.875 18.75 10.875L21.75 10.875ZM18.5884 5.625L3.94163 5.625L11.2507 10.875L18.5884 5.625Z"   fill="#000000" ></path></svg>