<svg xmlns="http://www.w3.org/2000/svg" width="14" height="14" viewBox="0 0 14 14" fill="currentColor">
  <path d="M2.07083 4.60244L6.7375 6.93578C6.81917 6.97661 6.90667 6.99994 7 6.99994C7.09333 6.99994 7.18083 6.97661 7.2625 6.93578L11.9292 4.60244C12.1275 4.50327 12.25 4.29911 12.25 4.08328C12.25 3.86744 12.1275 3.65744 11.9292 3.56411L7.2625 1.23078C7.09917 1.14911 6.90667 1.14911 6.74333 1.23078L2.07083 3.56411C1.8725 3.66328 1.75 3.86744 1.75 4.08328C1.75 4.29911 1.8725 4.50911 2.07083 4.60244Z" fill="white"/>
  <path opacity="0.5" d="M11.4042 6.48087L7 8.68587L2.59583 6.48087C2.31 6.33504 1.95417 6.45171 1.81417 6.74337C1.67417 7.03504 1.785 7.37921 2.07667 7.52504L6.74333 9.85837C6.825 9.89921 6.9125 9.92254 7.00583 9.92254C7.09917 9.92254 7.18667 9.89921 7.26833 9.85837L11.935 7.52504C12.2208 7.37921 12.3375 7.02921 12.1975 6.74337C12.0575 6.45754 11.7017 6.33504 11.4158 6.48087H11.4042Z" fill="white"/>
  <path opacity="0.5" d="M11.4042 9.39753L7 11.6025L2.59583 9.39753C2.31 9.2517 1.95417 9.36836 1.81417 9.66003C1.66833 9.94586 1.785 10.2959 2.07667 10.4417L6.74333 12.775C6.825 12.8159 6.9125 12.8392 7.00583 12.8392C7.09917 12.8392 7.18667 12.8159 7.26833 12.775L11.935 10.4417C12.2208 10.2959 12.3375 9.94586 12.1975 9.66003C12.0517 9.3742 11.7017 9.25753 11.4158 9.39753H11.4042Z" fill="white"/>
</svg>