<svg xmlns="http://www.w3.org/2000/svg" xmlns:xlink="http://www.w3.org/1999/xlink" width="16" height="16" viewBox="0 0 16 16" fill="none"><path d="M8.46667 2.86667L8.46667 4.11111L2.24444 4.11111L2.24444 12.4396L3.34131 11.5778L12.2 11.5778L12.2 7.22222L13.4444 7.22222L13.4444 12.2C13.4444 12.5437 13.1659 12.8222 12.8222 12.8222L3.77172 12.8222L1 15L1 3.48889C1 3.14525 1.27858 2.86667 1.62222 2.86667L8.46667 2.86667ZM11.5778 2.86667L11.5778 1L12.8222 1L12.8222 2.86667L14.6889 2.86667L14.6889 4.11111L12.8222 4.11111L12.8222 5.97778L11.5778 5.97778L11.5778 4.11111L9.71111 4.11111L9.71111 2.86667L11.5778 2.86667Z"   fill="currentColor" ></path></svg>