<?xml version="1.0" encoding="UTF-8"?>
<svg width="16px" height="16px" viewBox="0 0 16 16" version="1.1" xmlns="http://www.w3.org/2000/svg" xmlns:xlink="http://www.w3.org/1999/xlink">
    <g id="V1.0" stroke="none" stroke-width="1" fill="none" fill-rule="evenodd">
        <g id="首页" transform="translate(-46, -83)" fill-rule="nonzero">
            <g transform="translate(46, 83)">
                <rect id="矩形" fill="currentColor" opacity="0" x="0" y="0" width="16" height="16"></rect>
                <path d="M8.68032813,1.84367188 L13.569,5.3525 C14.0487397,5.69682626 14.3333281,6.25115455 14.3333281,6.84167187 L14.3333281,12.5 C14.3333281,13.5125 13.5125,14.3333281 12.5,14.3333281 L10,14.3333281 L10,11.6666719 C10,10.5621719 9.1045,9.66667187 8,9.66667187 C6.8955,9.66667187 6,10.5621719 6,11.6666719 L6,14.3333281 L3.5,14.3333281 C2.4875,14.3333281 1.66667188,13.5125 1.66667188,12.5 L1.66667188,6.84182812 C1.66667188,6.25125567 1.95121556,5.6968584 2.431,5.3525 L7.31967187,1.84367188 C7.72627018,1.55180899 8.27372982,1.55180899 8.68032813,1.84367188 L8.68032813,1.84367188 Z" id="路径" fill="currentColor"></path>
            </g>
        </g>
    </g>
</svg>