<svg xmlns="http://www.w3.org/2000/svg" width="14" height="14" viewBox="0 0 14 14" fill="none">
  <path d="M6.65618 0.578253C6.81123 0.317487 7.18877 0.317488 7.34382 0.578253L7.81618 1.37271C7.93758 1.57689 8.20912 1.6309 8.39942 1.48872L9.13985 0.935506C9.38288 0.753924 9.73169 0.898403 9.77514 1.19865L9.90753 2.1134C9.94155 2.34849 10.1718 2.50231 10.402 2.44378L11.2977 2.21602C11.5918 2.14127 11.8587 2.40823 11.784 2.70225L11.5562 3.59803C11.4977 3.82825 11.6515 4.05845 11.8866 4.09247L12.8013 4.22486C13.1016 4.26831 13.2461 4.61712 13.0645 4.86015L12.5113 5.60058C12.3691 5.79088 12.4231 6.06242 12.6273 6.18382L13.4217 6.65618C13.6825 6.81123 13.6825 7.18877 13.4217 7.34382L12.6273 7.81618C12.4231 7.93758 12.3691 8.20912 12.5113 8.39942L13.0645 9.13985C13.2461 9.38288 13.1016 9.73169 12.8013 9.77514L11.8866 9.90753C11.6515 9.94155 11.4977 10.1718 11.5562 10.402L11.784 11.2977C11.8587 11.5918 11.5918 11.8587 11.2977 11.784L10.402 11.5562C10.1718 11.4977 9.94155 11.6515 9.90753 11.8866L9.77514 12.8013C9.73169 13.1016 9.38288 13.2461 9.13985 13.0645L8.39942 12.5113C8.20912 12.3691 7.93758 12.4231 7.81618 12.6273L7.34382 13.4217C7.18877 13.6825 6.81123 13.6825 6.65618 13.4217L6.18382 12.6273C6.06242 12.4231 5.79088 12.3691 5.60058 12.5113L4.86015 13.0645C4.61712 13.2461 4.26831 13.1016 4.22486 12.8013L4.09247 11.8866C4.05845 11.6515 3.82825 11.4977 3.59803 11.5562L2.70225 11.784C2.40823 11.8587 2.14127 11.5918 2.21602 11.2977L2.44378 10.402C2.50231 10.1718 2.34849 9.94155 2.1134 9.90753L1.19865 9.77514C0.898403 9.73169 0.753924 9.38288 0.935506 9.13985L1.48872 8.39942C1.6309 8.20912 1.57688 7.93758 1.37271 7.81618L0.578253 7.34382C0.317487 7.18877 0.317488 6.81123 0.578253 6.65618L1.37271 6.18382C1.57689 6.06242 1.6309 5.79088 1.48872 5.60058L0.935506 4.86015C0.753924 4.61711 0.898403 4.26831 1.19865 4.22486L2.1134 4.09247C2.34849 4.05845 2.50231 3.82825 2.44378 3.59803L2.21602 2.70225C2.14127 2.40823 2.40823 2.14127 2.70225 2.21602L3.59803 2.44378C3.82825 2.50231 4.05845 2.34849 4.09247 2.1134L4.22486 1.19865C4.26831 0.898403 4.61712 0.753924 4.86015 0.935506L5.60058 1.48872C5.79088 1.6309 6.06242 1.57689 6.18382 1.37271L6.65618 0.578253Z" fill="#FFAE3E"/>
  <path d="M9.72785 5.19603C9.8118 5.26789 9.82156 5.39422 9.74964 5.47812L6.66888 9.07235C6.59306 9.1608 6.45798 9.16599 6.3756 9.08361L4.28791 6.99591C4.2098 6.91781 4.2098 6.79118 4.28791 6.71307L4.71209 6.28888C4.7902 6.21078 4.91683 6.21078 4.99494 6.28888L6.31896 7.61291C6.40134 7.69529 6.53642 7.6901 6.61223 7.60164L8.99004 4.82754C9.06189 4.74371 9.18808 4.73396 9.27195 4.80576L9.72785 5.19603Z" fill="white"/>
</svg>