<svg xmlns="http://www.w3.org/2000/svg" width="14" height="14" viewBox="0 0 14 14" fill="   ">
  <path d="M10.5002 5.24996V11.0833C10.5002 11.4041 10.2377 11.6666 9.91683 11.6666H4.0835C3.76266 11.6666 3.50016 11.4041 3.50016 11.0833V2.91663C3.50016 2.59579 3.76266 2.33329 4.0835 2.33329H7.5835V1.16663H4.0835C3.121 1.16663 2.3335 1.95413 2.3335 2.91663V11.0833C2.3335 12.0458 3.121 12.8333 4.0835 12.8333H9.91683C10.8793 12.8333 11.6668 12.0458 11.6668 11.0833V5.24996H10.5002Z" fill="currentColor"/>
  <path d="M11.6667 4.08329H9.33333C9.0125 4.08329 8.75 3.82079 8.75 3.49996V1.16663L11.6667 4.08329Z" fill="currentColor"/>
  <path d="M8.75 7.58329H7.58333V6.41663H6.41667V7.58329H5.25V8.74996H6.41667V9.91663H7.58333V8.74996H8.75V7.58329Z" fill="white"/>
</svg>