<svg xmlns="http://www.w3.org/2000/svg" width="14" height="14" viewBox="0 0 14 14" fill="none">
  <g opacity="0.8">
    <path d="M11.1242 2.87323C10.0742 1.8174 8.61592 1.16406 7.00008 1.16406C3.78008 1.16406 1.16675 3.7774 1.16675 6.9974C1.16675 8.6074 1.82008 10.0657 2.87591 11.1216C3.93175 12.1774 5.39008 12.8307 7.00008 12.8307C8.61008 12.8307 10.0742 12.1774 11.1242 11.1216C12.1801 10.0657 12.8334 8.6074 12.8334 6.9974C12.8334 5.3874 12.1801 3.92906 11.1242 2.87323ZM7.42591 9.73323C7.29175 9.85573 7.13425 9.91406 6.94758 9.91406C6.76091 9.91406 6.60925 9.8499 6.47508 9.7274C6.34675 9.6049 6.27675 9.4474 6.27675 9.2549C6.27675 9.0624 6.34675 8.9049 6.47508 8.7824C6.60342 8.6599 6.76091 8.60156 6.94758 8.60156C7.13425 8.60156 7.30341 8.6599 7.43175 8.7824C7.56008 8.91073 7.62425 9.06823 7.62425 9.2549C7.62425 9.44156 7.55425 9.61073 7.42591 9.73323ZM8.55758 6.69406C8.47592 6.78156 8.23092 7.00906 7.87508 7.32406C7.74675 7.42906 7.64758 7.55156 7.57758 7.69156C7.50175 7.84323 7.46675 8.00073 7.46675 8.17573V8.3449H6.43425V8.17573C6.43425 7.84906 6.48675 7.58656 6.59758 7.37656C6.70258 7.16073 7.00008 6.83406 7.53092 6.36156L7.61842 6.25656C7.74675 6.09906 7.81675 5.92406 7.81675 5.74323C7.81675 5.5099 7.74675 5.32323 7.61258 5.1774C7.48425 5.04906 7.28592 4.97906 7.03508 4.97906C6.70842 4.97906 6.48675 5.07823 6.35258 5.27073C6.23008 5.4399 6.16592 5.6849 6.16592 6.00573V6.0699H5.14508V6.00573C5.14508 5.39323 5.31425 4.9324 5.67008 4.59406C6.02008 4.25573 6.49841 4.08073 7.08758 4.08073C7.61841 4.08073 8.05008 4.22656 8.37092 4.5124C8.69758 4.79823 8.86092 5.1949 8.86092 5.69073C8.86092 6.0874 8.76175 6.42573 8.55758 6.69406Z" fill="currentColor"/>
  </g>
</svg>