<svg xmlns="http://www.w3.org/2000/svg" width="14" height="14" viewBox="0 0 14 14" fill="none">
  <path opacity="0.5" d="M2.91667 2.91667L11.0833 2.91667L11.0833 11.0833L2.91667 11.0833L2.91667 2.91667ZM1.75 2.91667L1.75 11.0833C1.75 11.725 2.275 12.25 2.91667 12.25L11.0833 12.25C11.725 12.25 12.25 11.725 12.25 11.0833L12.25 2.91667C12.25 2.275 11.725 1.75 11.0833 1.75L2.91667 1.75C2.275 1.75 1.75 2.275 1.75 2.91667Z" fill="currentColor"/>
  <path d="M4.0835 8.75002L4.0835 9.91669L8.75016 9.91669L8.75016 8.75002L4.0835 8.75002Z" fill="currentColor"/>
  <path d="M4.0835 4.08333L4.0835 5.25L8.75016 5.25L8.75016 4.08333L4.0835 4.08333Z" fill="currentColor"/>
  <path d="M4.0835 6.41665L4.0835 7.58331L9.91683 7.58331L9.91683 6.41665L4.0835 6.41665Z" fill="currentColor"/>
</svg>