<svg xmlns="http://www.w3.org/2000/svg" width="14" height="14" viewBox="0 0 14 14" fill="none">
  <path opacity="0.5" d="M10.5 12.25H3.5C2.5375 12.25 1.75 11.4625 1.75 10.5V6.41669H2.91667V10.5C2.91667 10.8209 3.17917 11.0834 3.5 11.0834H10.5C10.8208 11.0834 11.0833 10.8209 11.0833 10.5V6.41669H12.25V10.5C12.25 11.4625 11.4625 12.25 10.5 12.25Z" fill="currentColor"/>
  <path opacity="0.5" d="M9.91683 8.16669H4.0835V9.33335H9.91683V8.16669Z" fill="currentColor"/>
  <path d="M11.6669 5.25H2.33352C2.11185 5.25 1.91352 5.1275 1.81435 4.92917C1.71519 4.73083 1.73852 4.4975 1.86685 4.31667L3.61685 1.98333C3.72769 1.8375 3.90269 1.75 4.08352 1.75H9.91685C10.0977 1.75 10.2727 1.8375 10.3835 1.98333L12.1335 4.31667C12.2677 4.49167 12.2852 4.73083 12.186 4.92917C12.0869 5.1275 11.8827 5.25 11.6669 5.25Z" fill="currentColor"/>
</svg>