<svg xmlns="http://www.w3.org/2000/svg" xmlns:xlink="http://www.w3.org/1999/xlink" width="200" height="200" viewBox="0 0 200 200" fill="none">
<path d="M104.02 200C75.6566 200 53.4463 153.286 53.4463 93.6221C53.4463 37.6246 73.7701 0 104.02 0C134.27 0 154.593 37.6246 154.593 93.6221C154.593 153.286 132.362 200 104.02 200ZM104.02 10.2476C80.2658 10.2476 63.6939 44.5492 63.6939 93.6221C63.6939 151.12 84.5322 189.752 104.02 189.752C123.507 189.752 144.324 151.163 144.324 93.6221C144.324 44.5492 127.752 10.2476 104.02 10.2476Z"   fill="#000000" >
</path>
<path d="M53.5752 168.314C37.4748 168.314 25.7051 163.297 19.7237 153.822C4.45951 129.917 31.8793 86.0543 82.1742 53.9393C107.643 37.6889 131.74 29.092 151.935 29.092C168.379 29.092 181.327 35.1592 188.381 46.243C204.674 71.7547 183.9 109.122 136.692 139.265C108.05 157.423 77.0074 168.314 53.5752 168.314ZM151.935 39.3397C133.97 39.3397 111.202 47.5936 87.6195 62.6006C39.1684 93.5364 17.8371 131.89 28.2991 148.355C33.4444 156.394 44.8496 158.088 53.5107 158.088C75.0779 158.088 104.041 147.819 131.011 130.604C172.387 104.17 192.368 71.7547 179.591 51.7526C173.138 41.4836 160.939 39.3397 151.935 39.3397Z"   fill="#000000" >
</path>
<path d="M155.558 168.314C132.105 168.314 101.062 157.423 72.5054 139.2C25.3192 109.058 4.54527 71.6905 20.8171 46.1786C27.8489 35.1593 40.798 29.0278 57.2626 29.0278C77.372 29.0278 101.469 37.6032 126.938 53.8751C177.233 86.0329 204.652 129.853 189.388 153.757C183.343 163.297 171.637 168.314 155.558 168.314ZM57.2626 39.3397C48.1728 39.3397 35.9956 41.4837 29.3924 51.7099C16.5294 71.712 36.596 104.127 77.9724 130.561C104.942 147.712 133.927 158.045 155.494 158.045C164.069 158.045 175.539 156.351 180.684 148.29C191.168 131.89 169.815 93.5364 121.364 62.5362C97.953 47.5937 75.1638 39.3397 57.2626 39.3397Z"   fill="#000000" >
</path>
<path d="M85.6685 99.1961C85.6685 99.5094 85.6761 99.8225 85.6915 100.135C85.7069 100.448 85.7299 100.761 85.7607 101.073C85.7914 101.384 85.8297 101.695 85.8757 102.005C85.9217 102.315 85.9752 102.624 86.0364 102.931C86.0975 103.238 86.1661 103.544 86.2423 103.848C86.3183 104.152 86.4019 104.454 86.4929 104.754C86.5838 105.053 86.682 105.351 86.7876 105.646C86.8932 105.941 87.006 106.233 87.1259 106.522C87.2457 106.812 87.3726 107.098 87.5065 107.381C87.6405 107.665 87.7813 107.944 87.929 108.221C88.0768 108.497 88.2312 108.77 88.3923 109.038C88.5534 109.307 88.7209 109.572 88.895 109.832C89.069 110.093 89.2493 110.349 89.436 110.6C89.6226 110.852 89.8153 111.099 90.0142 111.341C90.2129 111.583 90.4174 111.821 90.6278 112.053C90.8383 112.285 91.0543 112.512 91.2759 112.733C91.4974 112.955 91.7242 113.171 91.9563 113.381C92.1885 113.592 92.4257 113.796 92.6679 113.995C92.9101 114.194 93.157 114.387 93.4087 114.573C93.6604 114.76 93.9164 114.94 94.1769 115.114C94.4374 115.288 94.702 115.456 94.9708 115.617C95.2395 115.778 95.5121 115.932 95.7884 116.08C96.0647 116.228 96.3444 116.369 96.6276 116.503C96.911 116.637 97.1974 116.764 97.4868 116.883C97.7763 117.003 98.0685 117.116 98.3634 117.222C98.6584 117.327 98.9559 117.425 99.2558 117.516C99.5555 117.607 99.8574 117.691 100.161 117.767C100.465 117.843 100.771 117.912 101.078 117.973C101.386 118.034 101.694 118.088 102.004 118.133C102.314 118.179 102.625 118.218 102.937 118.248C103.248 118.279 103.561 118.302 103.874 118.318C104.187 118.333 104.5 118.341 104.813 118.341C105.126 118.341 105.44 118.333 105.752 118.318C106.066 118.302 106.378 118.279 106.69 118.248C107.001 118.218 107.312 118.179 107.622 118.133C107.932 118.088 108.241 118.034 108.548 117.973C108.855 117.912 109.161 117.843 109.465 117.767C109.769 117.691 110.071 117.607 110.37 117.516C110.67 117.425 110.968 117.327 111.263 117.222C111.558 117.116 111.85 117.003 112.139 116.883C112.429 116.764 112.715 116.637 112.999 116.503C113.282 116.369 113.561 116.228 113.838 116.08C114.114 115.932 114.387 115.778 114.655 115.617C114.924 115.456 115.189 115.288 115.449 115.114C115.71 114.94 115.966 114.76 116.217 114.573C116.469 114.387 116.716 114.194 116.958 113.995C117.2 113.796 117.438 113.592 117.67 113.381C117.902 113.171 118.129 112.955 118.35 112.733C118.572 112.512 118.788 112.285 118.998 112.053C119.209 111.821 119.413 111.583 119.612 111.341C119.811 111.099 120.004 110.852 120.19 110.6C120.377 110.349 120.557 110.093 120.731 109.832C120.905 109.572 121.073 109.307 121.234 109.038C121.395 108.77 121.55 108.497 121.697 108.221C121.845 107.944 121.986 107.665 122.12 107.381C122.254 107.098 122.381 106.812 122.5 106.522C122.62 106.233 122.733 105.941 122.839 105.646C122.944 105.351 123.042 105.053 123.133 104.754C123.224 104.454 123.308 104.152 123.384 103.848C123.46 103.544 123.529 103.238 123.59 102.931C123.651 102.624 123.705 102.315 123.75 102.005C123.796 101.695 123.835 101.384 123.866 101.073C123.896 100.761 123.919 100.448 123.935 100.135C123.95 99.8225 123.958 99.5094 123.958 99.1961C123.958 98.8827 123.95 98.5694 123.935 98.2563C123.92 97.9432 123.897 97.6307 123.867 97.3188C123.836 97.0068 123.798 96.6958 123.752 96.3856C123.706 96.0756 123.653 95.7668 123.592 95.4592C123.531 95.1518 123.463 94.846 123.387 94.5418C123.311 94.2378 123.227 93.9358 123.136 93.6358C123.046 93.3358 122.948 93.0382 122.842 92.743C122.737 92.4478 122.624 92.1554 122.504 91.8657C122.384 91.5761 122.258 91.2896 122.124 91.0061C121.99 90.7226 121.849 90.4427 121.701 90.1663C121.554 89.8897 121.4 89.617 121.238 89.3481C121.077 89.0791 120.91 88.8142 120.736 88.5536C120.562 88.2929 120.382 88.0367 120.195 87.7848C120.008 87.5329 119.816 87.2857 119.617 87.0434C119.418 86.8011 119.213 86.5637 119.003 86.3313C118.793 86.099 118.577 85.872 118.355 85.6502C118.133 85.4285 117.907 85.2124 117.675 85.0018C117.442 84.7913 117.205 84.5865 116.963 84.3876C116.721 84.1886 116.474 83.9958 116.222 83.809C115.97 83.6222 115.714 83.4417 115.453 83.2674C115.193 83.0932 114.928 82.9255 114.659 82.7643C114.39 82.6031 114.118 82.4486 113.842 82.3008C113.565 82.153 113.285 82.0121 113.002 81.878C112.718 81.7439 112.432 81.6168 112.142 81.4969C111.853 81.3769 111.561 81.264 111.266 81.1585C110.97 81.0527 110.673 80.9543 110.373 80.8633C110.073 80.7723 109.771 80.6887 109.467 80.6125C109.163 80.5364 108.857 80.4677 108.55 80.4065C108.242 80.3453 107.933 80.2917 107.623 80.2458C107.313 80.1997 107.002 80.1612 106.69 80.1305C106.378 80.0998 106.066 80.0767 105.753 80.0614C105.44 80.046 105.127 80.0383 104.813 80.0383C104.5 80.0383 104.186 80.046 103.873 80.0614C103.56 80.0767 103.248 80.0998 102.936 80.1305C102.624 80.1612 102.313 80.1997 102.003 80.2458C101.693 80.2917 101.384 80.3453 101.076 80.4065C100.769 80.4677 100.463 80.5364 100.159 80.6125C99.8553 80.6887 99.5533 80.7723 99.2534 80.8633C98.9534 80.9543 98.6559 81.0527 98.3608 81.1585C98.0657 81.264 97.7733 81.3769 97.4837 81.4969C97.1941 81.6168 96.9077 81.7439 96.6243 81.878C96.341 82.0121 96.0611 82.153 95.7847 82.3008C95.5084 82.4486 95.2358 82.6031 94.9669 82.7643C94.6981 82.9255 94.4334 83.0932 94.1728 83.2674C93.9122 83.4417 93.6561 83.6222 93.4044 83.809C93.1527 83.9958 92.9057 84.1886 92.6634 84.3876C92.4212 84.5865 92.184 84.7913 91.9519 85.0018C91.7196 85.2124 91.4927 85.4285 91.2712 85.6502C91.0496 85.872 90.8336 86.099 90.6231 86.3313C90.4127 86.5637 90.2082 86.8011 90.0095 87.0434C89.8106 87.2857 89.6179 87.5329 89.4314 87.7848C89.2448 88.0367 89.0644 88.2929 88.8903 88.5536C88.7164 88.8142 88.5489 89.0791 88.3878 89.3481C88.2267 89.617 88.0724 89.8897 87.9247 90.1663C87.7772 90.4427 87.6364 90.7226 87.5024 91.0061C87.3686 91.2896 87.2418 91.5761 87.122 91.8657C87.0022 92.1554 86.8895 92.4478 86.7841 92.743C86.6787 93.0382 86.5806 93.3358 86.4898 93.6358C86.3989 93.9358 86.3155 94.2378 86.2396 94.5418C86.1635 94.846 86.095 95.1518 86.0341 95.4592C85.9732 95.7668 85.9198 96.0756 85.8739 96.3856C85.8281 96.6958 85.7899 97.0068 85.7595 97.3188C85.729 97.6307 85.7062 97.9432 85.6909 98.2563C85.6758 98.5694 85.6683 98.8827 85.6685 99.1961Z"   fill="#FFFFFF" >
</path>
<path d="M104.771 123.464C104.373 123.464 103.977 123.453 103.58 123.433C103.184 123.413 102.788 123.383 102.393 123.344C101.998 123.304 101.604 123.255 101.211 123.196C100.819 123.137 100.428 123.068 100.039 122.99C99.6494 122.912 99.2622 122.824 98.8774 122.727C98.4923 122.63 98.11 122.524 97.7303 122.408C97.3505 122.292 96.9738 122.167 96.6002 122.032C96.2266 121.898 95.8566 121.755 95.49 121.602C95.1235 121.45 94.7609 121.288 94.4022 121.118C94.0436 120.947 93.6893 120.769 93.3395 120.581C92.9896 120.393 92.6446 120.197 92.3045 119.992C91.9643 119.788 91.6292 119.575 91.2994 119.354C90.9696 119.133 90.6454 118.904 90.327 118.667C90.0085 118.43 89.696 118.185 89.3895 117.933C89.0829 117.68 88.7828 117.421 88.4889 117.154C88.1951 116.887 87.9081 116.612 87.6278 116.331C87.3474 116.05 87.0742 115.762 86.808 115.468C86.5419 115.173 86.2831 114.872 86.0316 114.565C85.7802 114.258 85.5365 113.944 85.3004 113.625C85.0643 113.306 84.8363 112.981 84.6162 112.651C84.396 112.32 84.1841 111.985 83.9805 111.644C83.7768 111.303 83.5817 110.957 83.3949 110.607C83.2083 110.257 83.0304 109.902 82.8611 109.543C82.6919 109.184 82.5315 108.821 82.3801 108.454C82.2287 108.087 82.0863 107.716 81.9529 107.342C81.8197 106.968 81.6957 106.591 81.5809 106.211C81.4662 105.831 81.3608 105.448 81.2649 105.063C81.1689 104.678 81.0824 104.29 81.0055 103.901C80.9285 103.511 80.8611 103.12 80.8033 102.727C80.7455 102.335 80.6974 101.941 80.659 101.546C80.6206 101.15 80.5919 100.754 80.5729 100.358C80.5538 99.9613 80.5445 99.5647 80.5449 99.1676C80.5455 98.7705 80.5557 98.3738 80.5756 97.9771C80.5955 97.5807 80.6252 97.185 80.6647 96.7898C80.704 96.3947 80.753 96.001 80.8117 95.6082C80.8705 95.2156 80.9388 94.8246 81.0166 94.4353C81.0945 94.046 81.1818 93.6589 81.2787 93.2738C81.3756 92.8888 81.4818 92.5064 81.5975 92.1266C81.7132 91.7468 81.8382 91.37 81.9723 90.9963C82.1064 90.6226 82.2496 90.2525 82.402 89.8859C82.5542 89.5193 82.7154 89.1566 82.8855 88.7979C83.0556 88.4391 83.2344 88.0848 83.4219 87.7348C83.6094 87.3848 83.8054 87.0396 84.01 86.6994C84.2144 86.3591 84.427 86.0239 84.6479 85.6939C84.8688 85.3641 85.0977 85.0398 85.3344 84.7211C85.5712 84.4025 85.8157 84.0898 86.0678 83.7832C86.32 83.4764 86.5796 83.1761 86.8465 82.8822C87.1133 82.5884 87.3872 82.3011 87.6682 82.0205C87.9492 81.74 88.2369 81.4667 88.5312 81.2004C88.8257 80.934 89.1264 80.6749 89.4336 80.4232C89.7408 80.1717 90.0538 79.9278 90.3729 79.6916C90.692 79.4553 91.0167 79.227 91.3469 79.0066C91.6772 78.7865 92.0128 78.5744 92.3535 78.3705C92.6941 78.1667 93.0396 77.9714 93.3899 77.7844C93.7401 77.5975 94.0948 77.4193 94.4539 77.2498C94.8129 77.0804 95.1759 76.9199 95.5428 76.7682C95.9097 76.6165 96.2802 76.4739 96.6541 76.3404C97.0279 76.207 97.4049 76.0828 97.785 75.9678C98.1649 75.8528 98.5475 75.7472 98.9326 75.651C99.3179 75.5548 99.7053 75.468 100.095 75.3908C100.484 75.3136 100.875 75.246 101.268 75.1881C101.661 75.13 102.055 75.0816 102.45 75.043C102.845 75.0044 103.241 74.9755 103.637 74.9563C104.034 74.937 104.431 74.9275 104.828 74.9277C105.225 74.928 105.621 74.938 106.018 74.9576C106.415 74.9773 106.81 75.0067 107.205 75.0459C107.601 75.085 107.994 75.1337 108.387 75.1922C108.78 75.2507 109.171 75.3187 109.56 75.3965C109.949 75.4741 110.337 75.5613 110.722 75.658C111.107 75.7546 111.489 75.8606 111.869 75.976C112.249 76.0915 112.626 76.2161 113 76.35C113.373 76.484 113.744 76.627 114.11 76.7791C114.477 76.9312 114.84 77.0922 115.199 77.2621C115.558 77.432 115.912 77.6106 116.262 77.7979C116.612 77.9852 116.957 78.181 117.298 78.3852C117.638 78.5895 117.974 78.802 118.304 79.0227C118.634 79.2434 118.958 79.472 119.277 79.7086C119.596 79.9452 119.908 80.1895 120.215 80.4414C120.522 80.6934 120.823 80.9527 121.117 81.2195C121.411 81.4862 121.698 81.76 121.979 82.0408C122.26 82.3216 122.533 82.6091 122.8 82.9033C123.066 83.1976 123.325 83.4982 123.577 83.8053C123.829 84.1122 124.073 84.4251 124.309 84.7441C124.546 85.063 124.774 85.3876 124.995 85.7178C125.215 86.0479 125.428 86.3832 125.632 86.7238C125.836 87.0645 126.031 87.4098 126.218 87.76C126.405 88.1101 126.584 88.4646 126.754 88.8236C126.923 89.1826 127.084 89.5455 127.236 89.9123C127.388 90.2791 127.53 90.6494 127.664 91.0232C127.798 91.3971 127.922 91.774 128.038 92.1539C128.153 92.5339 128.259 92.9164 128.355 93.3016C128.452 93.6866 128.538 94.0738 128.616 94.4633C128.693 94.8527 128.761 95.2438 128.819 95.6365C128.878 96.0293 128.926 96.423 128.965 96.8182C129.004 97.2133 129.033 97.6092 129.053 98.0057C129.072 98.4023 129.082 98.799 129.082 99.1961C129.081 99.5936 129.071 99.9908 129.052 100.388C129.032 100.785 129.002 101.181 128.963 101.577C128.923 101.972 128.874 102.367 128.816 102.76C128.757 103.153 128.689 103.545 128.611 103.934C128.533 104.324 128.446 104.712 128.349 105.097C128.252 105.483 128.146 105.866 128.03 106.246C127.914 106.626 127.789 107.004 127.655 107.378C127.521 107.752 127.377 108.123 127.225 108.49C127.072 108.857 126.911 109.22 126.741 109.579C126.57 109.938 126.391 110.293 126.204 110.644C126.016 110.994 125.82 111.34 125.615 111.68C125.41 112.021 125.197 112.357 124.976 112.687C124.755 113.017 124.526 113.342 124.289 113.661C124.052 113.98 123.807 114.293 123.555 114.601C123.302 114.908 123.042 115.208 122.775 115.503C122.508 115.797 122.234 116.084 121.952 116.365C121.671 116.646 121.383 116.92 121.088 117.187C120.793 117.453 120.492 117.713 120.185 117.964C119.877 118.216 119.564 118.461 119.244 118.697C118.925 118.934 118.599 119.162 118.269 119.383C117.938 119.603 117.602 119.816 117.261 120.02C116.92 120.224 116.574 120.419 116.223 120.606C115.872 120.794 115.517 120.972 115.158 121.142C114.798 121.311 114.435 121.472 114.067 121.624C113.7 121.775 113.329 121.918 112.955 122.052C112.58 122.185 112.203 122.31 111.822 122.425C111.442 122.54 111.059 122.646 110.673 122.742C110.287 122.838 109.9 122.925 109.51 123.002C109.12 123.079 108.728 123.147 108.335 123.205C107.942 123.263 107.547 123.311 107.151 123.35C106.756 123.388 106.359 123.417 105.962 123.436C105.565 123.455 105.168 123.465 104.771 123.464ZM104.771 85.1967C104.541 85.1963 104.312 85.2016 104.082 85.2125C103.853 85.2234 103.624 85.24 103.395 85.2621C103.167 85.2844 102.939 85.3122 102.712 85.3455C102.485 85.3788 102.258 85.4178 102.033 85.4623C101.808 85.5067 101.584 85.5567 101.361 85.6123C101.138 85.6678 100.917 85.7287 100.697 85.7949C100.477 85.8613 100.259 85.9331 100.043 86.0102C99.8265 86.0872 99.6122 86.1696 99.4 86.2572C99.1878 86.3447 98.9778 86.4374 98.7701 86.5354C98.5624 86.6333 98.3573 86.7363 98.1547 86.8443C97.9521 86.9523 97.7522 87.0652 97.5551 87.183C97.3581 87.3009 97.164 87.4234 96.9729 87.5508C96.7819 87.6781 96.594 87.81 96.4094 87.9465C96.2249 88.0831 96.0438 88.2242 95.8662 88.3697C95.6885 88.5152 95.5145 88.6649 95.3442 88.8189C95.174 88.973 95.0076 89.1311 94.8449 89.2932C94.6824 89.4554 94.524 89.6215 94.3697 89.7914C94.2153 89.9615 94.0652 90.1352 93.9194 90.3125C93.7735 90.4898 93.6321 90.6706 93.4951 90.8549C93.3583 91.0393 93.226 91.2268 93.0982 91.4176C92.9705 91.6083 92.8475 91.8021 92.7293 91.999C92.6111 92.1959 92.4977 92.3955 92.3893 92.5979C92.2809 92.8003 92.1776 93.0053 92.0793 93.2127C91.9809 93.4203 91.8876 93.63 91.7996 93.842C91.7116 94.0541 91.6288 94.2682 91.5514 94.4844C91.4739 94.7006 91.4018 94.9184 91.335 95.1381C91.2682 95.3578 91.2068 95.5789 91.1508 95.8016C91.0948 96.0244 91.0443 96.2482 90.9994 96.4734C90.9545 96.6986 90.9151 96.9246 90.8813 97.1518C90.8474 97.3789 90.8192 97.6066 90.7967 97.8352C90.774 98.0637 90.757 98.2926 90.7455 98.5219C90.7342 98.7514 90.7285 98.9809 90.7283 99.2104C90.7282 99.4398 90.7337 99.6693 90.7449 99.8988C90.756 100.128 90.7727 100.357 90.7951 100.586C90.8177 100.814 90.8457 101.042 90.8793 101.269C90.9129 101.496 90.952 101.722 90.9967 101.947C91.0414 102.173 91.0915 102.397 91.1473 102.62C91.203 102.842 91.2641 103.063 91.3307 103.283C91.3973 103.503 91.4693 103.721 91.5465 103.937C91.6238 104.153 91.7064 104.368 91.7941 104.58C91.882 104.792 91.975 105.002 92.073 105.209C92.1712 105.417 92.2744 105.622 92.3826 105.824C92.4908 106.027 92.6039 106.227 92.7219 106.424C92.84 106.621 92.9628 106.815 93.0903 107.005C93.2178 107.196 93.35 107.384 93.4867 107.569C93.6235 107.753 93.7647 107.934 93.9104 108.112C94.0559 108.289 94.2059 108.463 94.3602 108.633C94.5143 108.803 94.6726 108.969 94.835 109.132C94.9973 109.294 95.1636 109.452 95.3336 109.606C95.5038 109.761 95.6776 109.911 95.8551 110.056C96.0326 110.202 96.2136 110.343 96.3981 110.48C96.5824 110.617 96.7701 110.749 96.9612 110.876C97.152 111.004 97.346 111.127 97.543 111.245C97.7399 111.363 97.9396 111.476 98.1422 111.584C98.3447 111.692 98.5497 111.795 98.7572 111.893C98.9648 111.992 99.1747 112.085 99.3869 112.172C99.599 112.26 99.8132 112.343 100.03 112.42C100.246 112.497 100.464 112.569 100.683 112.636C100.903 112.702 101.124 112.764 101.347 112.819C101.57 112.875 101.794 112.925 102.019 112.97C102.244 113.015 102.471 113.054 102.698 113.087C102.925 113.121 103.153 113.149 103.381 113.171C103.61 113.194 103.838 113.211 104.068 113.222C104.297 113.233 104.527 113.238 104.756 113.238C104.986 113.238 105.215 113.232 105.445 113.221C105.674 113.21 105.903 113.193 106.131 113.17C106.36 113.147 106.588 113.119 106.815 113.085C107.042 113.052 107.268 113.012 107.493 112.967C107.718 112.922 107.942 112.872 108.165 112.816C108.388 112.76 108.609 112.698 108.829 112.632C109.048 112.565 109.266 112.493 109.482 112.415C109.698 112.338 109.912 112.255 110.125 112.167C110.337 112.079 110.546 111.986 110.754 111.887C110.961 111.789 111.166 111.686 111.369 111.577C111.571 111.469 111.771 111.355 111.968 111.237C112.164 111.119 112.358 110.996 112.549 110.868C112.74 110.741 112.927 110.608 113.112 110.471C113.296 110.334 113.477 110.193 113.654 110.047C113.831 109.901 114.005 109.751 114.175 109.597C114.345 109.443 114.511 109.284 114.673 109.121C114.836 108.959 114.994 108.793 115.148 108.622C115.302 108.452 115.451 108.278 115.597 108.1C115.742 107.923 115.883 107.742 116.02 107.557C116.156 107.372 116.288 107.185 116.416 106.994C116.543 106.803 116.666 106.609 116.784 106.412C116.901 106.214 117.014 106.014 117.122 105.812C117.23 105.609 117.333 105.404 117.431 105.196C117.529 104.989 117.622 104.779 117.709 104.566C117.797 104.354 117.879 104.14 117.956 103.924C118.034 103.707 118.105 103.489 118.172 103.27C118.238 103.05 118.299 102.829 118.354 102.606C118.41 102.383 118.46 102.159 118.504 101.934C118.549 101.708 118.588 101.482 118.621 101.255C118.654 101.028 118.682 100.8 118.704 100.571C118.727 100.343 118.743 100.114 118.754 99.8846C118.765 99.6551 118.77 99.4256 118.77 99.1961C118.77 98.967 118.763 98.7381 118.752 98.5094C118.74 98.2807 118.723 98.0525 118.701 97.8246C118.678 97.5967 118.649 97.3695 118.616 97.143C118.582 96.9166 118.542 96.691 118.497 96.4664C118.452 96.2418 118.402 96.0186 118.346 95.7965C118.29 95.5744 118.229 95.3537 118.162 95.1346C118.096 94.9156 118.024 94.6982 117.946 94.4826C117.869 94.2671 117.786 94.0536 117.698 93.842C117.611 93.6305 117.518 93.4213 117.42 93.2143C117.322 93.0074 117.219 92.8029 117.111 92.601C117.003 92.3992 116.889 92.2001 116.772 92.0037C116.654 91.8072 116.531 91.6138 116.404 91.4234C116.277 91.2331 116.145 91.046 116.008 90.8621C115.872 90.6781 115.731 90.4977 115.586 90.3207C115.44 90.1438 115.291 89.9705 115.137 89.8008C114.983 89.6311 114.825 89.4653 114.663 89.3033C114.501 89.1413 114.336 88.9835 114.166 88.8297C113.996 88.6759 113.823 88.5263 113.646 88.3809C113.469 88.2355 113.288 88.0947 113.104 87.9582C112.921 87.8218 112.734 87.6898 112.543 87.5625C112.353 87.4353 112.159 87.3128 111.963 87.1949C111.767 87.0771 111.567 86.9641 111.366 86.8561C111.164 86.748 110.959 86.6449 110.752 86.5469C110.545 86.4488 110.336 86.3559 110.125 86.268C109.913 86.1802 109.699 86.0977 109.484 86.0203C109.268 85.943 109.051 85.871 108.832 85.8043C108.613 85.7376 108.392 85.6764 108.17 85.6205C107.948 85.5647 107.725 85.5142 107.5 85.4691C107.276 85.4242 107.05 85.3848 106.824 85.351C106.597 85.3171 106.37 85.2888 106.142 85.266C105.914 85.2432 105.686 85.2261 105.457 85.2146C105.229 85.2031 105 85.1971 104.771 85.1967Z"   fill="#000000" >
</path>
<path d="M34.6446 142.266C34.6429 142.474 34.636 142.683 34.6241 142.891C34.6122 143.099 34.5952 143.306 34.5729 143.513C34.5509 143.721 34.5237 143.927 34.4913 144.133C34.4593 144.339 34.422 144.544 34.3796 144.748C34.3374 144.952 34.2901 145.155 34.2378 145.357C34.1854 145.558 34.1284 145.759 34.0663 145.958C34.0042 146.157 33.9374 146.354 33.8655 146.55C33.7938 146.745 33.7175 146.939 33.6362 147.131C33.555 147.323 33.4692 147.513 33.3786 147.7C33.288 147.888 33.1929 148.073 33.0933 148.256C32.9937 148.439 32.8897 148.62 32.7812 148.798C32.6728 148.976 32.5601 149.151 32.4429 149.323C32.3261 149.496 32.2048 149.665 32.0794 149.832C31.954 149.998 31.8247 150.161 31.6913 150.322C31.5581 150.482 31.4208 150.639 31.2798 150.792C31.1388 150.945 30.994 151.095 30.8456 151.242C30.6974 151.388 30.5454 151.53 30.3899 151.669C30.2347 151.808 30.0761 151.943 29.914 152.074C29.7521 152.205 29.587 152.332 29.4187 152.455C29.2505 152.578 29.0794 152.697 28.9054 152.812C28.7313 152.926 28.5546 153.037 28.3752 153.143C28.1957 153.249 28.0138 153.35 27.8295 153.447C27.645 153.544 27.4582 153.637 27.2693 153.725C27.0804 153.812 26.8894 153.896 26.6965 153.974C26.5034 154.053 26.3085 154.126 26.1119 154.195C25.9153 154.264 25.7171 154.329 25.5174 154.388C25.3176 154.447 25.1165 154.501 24.914 154.551C24.7116 154.6 24.508 154.645 24.3035 154.684C24.0988 154.724 23.8933 154.758 23.6871 154.787C23.4807 154.817 23.2738 154.841 23.0664 154.86C22.8588 154.88 22.651 154.894 22.4428 154.903C22.2346 154.912 22.0263 154.916 21.8179 154.915C21.6095 154.913 21.4012 154.907 21.1931 154.896C20.9851 154.884 20.7774 154.868 20.5703 154.846C20.363 154.825 20.1563 154.798 19.9504 154.767C19.7444 154.735 19.5393 154.698 19.3352 154.656C19.131 154.615 18.928 154.568 18.7261 154.516C18.5242 154.465 18.3237 154.408 18.1246 154.347C17.9255 154.285 17.728 154.219 17.5322 154.148C17.3363 154.076 17.1423 154 16.9502 153.92C16.7581 153.839 16.568 153.754 16.3801 153.664C16.1921 153.574 16.0065 153.479 15.8232 153.38C15.6399 153.281 15.4591 153.177 15.2809 153.069C15.1026 152.961 14.9271 152.849 14.7544 152.733C14.5816 152.616 14.4119 152.495 14.245 152.371C14.0782 152.246 13.9146 152.117 13.754 151.984C13.5935 151.851 13.4364 151.714 13.2826 151.574C13.1288 151.433 12.9785 151.289 12.8318 151.141C12.685 150.993 12.542 150.841 12.4027 150.686C12.2634 150.531 12.1279 150.373 11.9964 150.211C11.8648 150.05 11.7373 149.885 11.6139 149.717C11.4904 149.55 11.3711 149.379 11.256 149.205C11.1409 149.031 11.0301 148.855 10.9236 148.676C10.8172 148.497 10.7152 148.315 10.6176 148.131C10.52 147.947 10.427 147.76 10.3386 147.571C10.2502 147.383 10.1664 147.192 10.0874 146.999C10.0083 146.806 9.93398 146.612 9.86445 146.415C9.79491 146.219 9.73023 146.021 9.67038 145.821C9.61055 145.622 9.55565 145.421 9.50568 145.218C9.45569 145.016 9.41069 144.813 9.37068 144.608C9.33066 144.404 9.29568 144.198 9.26573 143.992C9.23577 143.786 9.21089 143.579 9.19109 143.372C9.17127 143.164 9.15655 142.956 9.14693 142.748C9.13729 142.54 9.13276 142.332 9.13335 142.123C9.13392 141.915 9.1396 141.707 9.15038 141.499C9.16118 141.29 9.17706 141.083 9.19802 140.875C9.21898 140.668 9.24501 140.461 9.2761 140.255C9.3072 140.049 9.34332 139.844 9.38447 139.64C9.42562 139.436 9.47176 139.232 9.52286 139.03C9.57397 138.828 9.62999 138.628 9.69093 138.428C9.75187 138.229 9.81765 138.032 9.88827 137.835C9.9589 137.639 10.0343 137.445 10.1144 137.253C10.1946 137.061 10.2794 136.87 10.3689 136.682C10.4583 136.494 10.5523 136.308 10.6509 136.124C10.7495 135.941 10.8525 135.76 10.96 135.581C11.0675 135.403 11.1792 135.227 11.2953 135.054C11.4113 134.881 11.5316 134.71 11.656 134.543C11.7804 134.376 11.9088 134.212 12.0413 134.051C12.1737 133.89 12.31 133.733 12.4502 133.579C12.5904 133.424 12.7342 133.274 12.8818 133.127C13.0293 132.98 13.1804 132.836 13.335 132.696C13.4896 132.556 13.6475 132.421 13.8088 132.289C13.97 132.157 14.1344 132.029 14.3019 131.905C14.4694 131.781 14.6398 131.661 14.8132 131.545C14.9866 131.43 15.1627 131.319 15.3416 131.212C15.5204 131.105 15.7018 131.002 15.8856 130.904C16.0695 130.806 16.2556 130.712 16.4441 130.624C16.6325 130.534 16.823 130.45 17.0156 130.371C17.2082 130.291 17.4026 130.216 17.5988 130.146C17.7951 130.076 17.9929 130.011 18.1924 129.95C18.3918 129.89 18.5926 129.834 18.7948 129.784C18.9969 129.733 19.2002 129.688 19.4046 129.647C19.6091 129.607 19.8144 129.571 20.0205 129.541C20.2266 129.51 20.4334 129.484 20.6408 129.464C20.8481 129.444 21.0558 129.428 21.264 129.418C21.4721 129.408 21.6804 129.403 21.8888 129.403C22.0982 129.405 22.3074 129.411 22.5164 129.423C22.7255 129.435 22.9342 129.452 23.1424 129.475C23.3506 129.497 23.5581 129.524 23.765 129.556C23.9719 129.588 24.1779 129.626 24.383 129.668C24.5881 129.711 24.792 129.758 24.9947 129.81C25.1976 129.862 25.3989 129.92 25.5988 129.982C25.7988 130.044 25.9972 130.111 26.1939 130.183C26.3905 130.255 26.5853 130.331 26.7783 130.413C26.9713 130.494 27.1621 130.58 27.351 130.671C27.5397 130.761 27.7262 130.856 27.9101 130.956C28.0942 131.056 28.2758 131.16 28.4549 131.269C28.6339 131.377 28.8103 131.49 28.9837 131.608C29.1571 131.725 29.3276 131.846 29.4952 131.972C29.6628 132.097 29.8272 132.227 29.9884 132.361C30.1497 132.494 30.3077 132.632 30.462 132.773C30.6167 132.914 30.7677 133.059 30.9151 133.208C31.0626 133.357 31.2063 133.509 31.3462 133.665C31.4864 133.82 31.6226 133.979 31.7546 134.142C31.887 134.304 32.0151 134.47 32.1394 134.638C32.2636 134.807 32.3835 134.978 32.4993 135.153C32.6151 135.327 32.7267 135.505 32.8337 135.684C32.9407 135.864 33.0435 136.047 33.1417 136.232C33.2399 136.417 33.3335 136.604 33.4226 136.793C33.5116 136.983 33.5962 137.174 33.6759 137.368C33.7556 137.562 33.8306 137.757 33.9007 137.954C33.971 138.152 34.0362 138.351 34.0966 138.551C34.1571 138.752 34.2128 138.953 34.2632 139.157C34.314 139.36 34.3595 139.564 34.4001 139.77C34.4407 139.975 34.4765 140.181 34.5069 140.388C34.5376 140.596 34.563 140.803 34.5833 141.012C34.6038 141.22 34.6192 141.429 34.6294 141.638C34.6395 141.847 34.6446 142.057 34.6446 142.266Z"   fill="#FFFFFF" >
</path>
<path d="M21.889 160.146C21.5959 160.146 21.3029 160.139 21.0101 160.125C20.7172 160.111 20.425 160.09 20.1333 160.061C19.8415 160.033 19.5506 159.998 19.2607 159.955C18.9707 159.912 18.6819 159.862 18.3944 159.806C18.1068 159.749 17.8209 159.685 17.5365 159.614C17.2521 159.543 16.9696 159.465 16.689 159.38C16.4084 159.295 16.1301 159.204 15.854 159.105C15.5779 159.007 15.3044 158.902 15.0335 158.79C14.7626 158.678 14.4946 158.56 14.2295 158.435C13.9644 158.309 13.7025 158.178 13.4439 158.04C13.1852 157.902 12.9301 157.758 12.6786 157.607C12.4271 157.457 12.1793 157.301 11.9355 157.138C11.6916 156.975 11.4519 156.807 11.2163 156.632C10.9807 156.458 10.7496 156.278 10.5228 156.092C10.2961 155.906 10.074 155.715 9.8567 155.518C9.63936 155.322 9.42697 155.12 9.21953 154.913C9.01211 154.706 8.80988 154.493 8.61287 154.277C8.41586 154.06 8.2243 153.838 8.03818 153.611C7.85207 153.385 7.67162 153.154 7.49684 152.919C7.32205 152.683 7.15316 152.444 6.99014 152.2C6.82711 151.957 6.67018 151.709 6.51932 151.458C6.36846 151.207 6.22387 150.952 6.08553 150.693C5.94719 150.435 5.81527 150.173 5.68979 149.908C5.56429 149.644 5.44538 149.376 5.33305 149.105C5.22072 148.834 5.1151 148.561 5.01619 148.285C4.91729 148.009 4.82521 147.731 4.73996 147.45C4.65473 147.17 4.57643 146.888 4.50506 146.603C4.43369 146.319 4.36934 146.033 4.31201 145.746C4.25468 145.458 4.20444 145.169 4.16129 144.88C4.11815 144.59 4.08215 144.299 4.05328 144.007C4.02443 143.716 4.00275 143.423 3.98824 143.13C3.97374 142.838 3.96643 142.545 3.96631 142.252C3.96619 141.959 3.97327 141.666 3.98754 141.373C4.00181 141.08 4.02326 140.788 4.0519 140.496C4.08052 140.204 4.11628 139.914 4.1592 139.624C4.20212 139.334 4.25212 139.045 4.30922 138.758C4.36632 138.47 4.43044 138.184 4.50158 137.9C4.57273 137.615 4.65081 137.333 4.73582 137.052C4.82083 136.772 4.91268 136.494 5.01137 136.218C5.11007 135.942 5.21547 135.668 5.32758 135.397C5.4397 135.127 5.5584 134.859 5.68367 134.594C5.80895 134.329 5.94064 134.067 6.07879 133.808C6.21693 133.55 6.36133 133.295 6.51197 133.044C6.66264 132.792 6.81938 132.544 6.98221 132.301C7.14502 132.057 7.31373 131.817 7.48832 131.582C7.66291 131.347 7.84316 131.116 8.02912 130.889C8.21506 130.662 8.40645 130.44 8.60328 130.223C8.80012 130.006 9.00217 129.794 9.20943 129.586C9.4167 129.379 9.62893 129.177 9.84611 128.98C10.0633 128.784 10.2852 128.592 10.5118 128.406C10.7384 128.22 10.9694 128.04 11.2048 127.865C11.4403 127.691 11.6799 127.522 11.9236 127.359C12.1673 127.196 12.4149 127.04 12.6663 126.889C12.9178 126.738 13.1728 126.594 13.4313 126.456C13.6898 126.318 13.9516 126.186 14.2166 126.061C14.4815 125.935 14.7495 125.817 15.0203 125.705C15.2911 125.593 15.5645 125.487 15.8405 125.388C16.1165 125.29 16.3948 125.198 16.6753 125.113C16.9558 125.028 17.2382 124.95 17.5226 124.879C17.807 124.808 18.0929 124.743 18.3804 124.686C18.6679 124.629 18.9566 124.579 19.2466 124.536C19.5365 124.493 19.8274 124.458 20.119 124.429C20.4107 124.4 20.703 124.379 20.9958 124.365C21.2885 124.35 21.5815 124.343 21.8747 124.344C22.1678 124.344 22.4607 124.351 22.7534 124.365C23.0461 124.38 23.3384 124.402 23.6302 124.43C23.9218 124.459 24.2126 124.495 24.5024 124.538C24.7925 124.582 25.0812 124.632 25.3687 124.689C25.656 124.747 25.9419 124.811 26.2263 124.882C26.5104 124.954 26.7929 125.032 27.0733 125.117C27.3538 125.202 27.6319 125.294 27.9079 125.393C28.1839 125.492 28.4571 125.598 28.7278 125.71C28.9985 125.822 29.2663 125.941 29.5313 126.067C29.7962 126.192 30.0579 126.324 30.3163 126.463C30.5747 126.601 30.8294 126.746 31.0808 126.896C31.3321 127.047 31.5796 127.204 31.8231 127.367C32.0667 127.53 32.3062 127.699 32.5415 127.874C32.7769 128.049 33.0079 128.229 33.2343 128.415C33.4606 128.601 33.6823 128.793 33.8993 128.99C34.1163 129.187 34.3284 129.389 34.5356 129.597C34.7427 129.804 34.9446 130.016 35.1413 130.234C35.338 130.451 35.5292 130.673 35.7149 130.9C35.9007 131.127 36.0808 131.358 36.2552 131.594C36.4296 131.829 36.5979 132.069 36.7606 132.313C36.9233 132.556 37.0798 132.804 37.2304 133.056C37.3808 133.307 37.5249 133.562 37.6628 133.821C37.8009 134.08 37.9323 134.341 38.0573 134.607C38.1825 134.872 38.3009 135.14 38.4128 135.411C38.5247 135.682 38.63 135.955 38.7284 136.231C38.8269 136.507 38.9185 136.786 39.0032 137.066C39.088 137.347 39.1659 137.629 39.2368 137.914C39.3077 138.198 39.3716 138.484 39.4284 138.771C39.4853 139.059 39.5351 139.348 39.5778 139.638C39.6206 139.928 39.6562 140.219 39.6845 140.51C39.7128 140.802 39.7341 141.094 39.7481 141.387C39.7622 141.68 39.769 141.973 39.7687 142.266C39.7683 142.559 39.7606 142.851 39.746 143.143C39.7313 143.435 39.7097 143.727 39.6806 144.018C39.6517 144.309 39.6155 144.599 39.5724 144.888C39.5292 145.178 39.4788 145.466 39.4216 145.753C39.3642 146.04 39.2999 146.325 39.2286 146.609C39.1573 146.892 39.079 147.174 38.9938 147.454C38.9089 147.734 38.8169 148.011 38.7181 148.287C38.6194 148.562 38.514 148.835 38.4019 149.105C38.2897 149.375 38.1712 149.643 38.046 149.907C37.9208 150.171 37.7892 150.432 37.6511 150.69C37.513 150.948 37.3688 151.202 37.2185 151.453C37.0679 151.704 36.9114 151.951 36.7487 152.194C36.5862 152.438 36.4179 152.677 36.2435 152.911C36.069 153.146 35.8892 153.377 35.7036 153.603C35.5179 153.829 35.3269 154.051 35.1304 154.267C34.9341 154.484 34.7323 154.696 34.5255 154.903C34.3187 155.11 34.1069 155.311 33.8901 155.508C33.6735 155.704 33.452 155.895 33.2259 156.081C32.9999 156.266 32.7694 156.446 32.5345 156.62C32.2995 156.795 32.0604 156.963 31.8173 157.126C31.5741 157.289 31.3271 157.445 31.0763 157.595C30.8253 157.746 30.571 157.89 30.3132 158.028C30.0552 158.166 29.794 158.298 29.5296 158.423C29.2653 158.548 28.9979 158.667 28.7278 158.779C28.4577 158.891 28.1849 158.997 27.9095 159.095C27.6343 159.194 27.3565 159.286 27.0767 159.371C26.7968 159.456 26.5151 159.534 26.2313 159.606C25.9476 159.677 25.6624 159.741 25.3755 159.799C25.0886 159.856 24.8007 159.906 24.5114 159.949C24.2222 159.993 23.9319 160.029 23.6407 160.058C23.3497 160.087 23.0581 160.109 22.7659 160.123C22.4737 160.138 22.1814 160.145 21.889 160.146ZM21.889 134.634C21.764 134.634 21.6391 134.637 21.5144 134.643C21.3896 134.649 21.2651 134.658 21.1407 134.671C21.0165 134.683 20.8926 134.698 20.769 134.717C20.6455 134.735 20.5224 134.756 20.3999 134.781C20.2774 134.805 20.1556 134.832 20.0345 134.863C19.9132 134.893 19.7929 134.926 19.6733 134.962C19.5539 134.999 19.4353 135.038 19.3177 135.08C19.2001 135.122 19.0836 135.167 18.9682 135.215C18.8528 135.263 18.7387 135.313 18.6257 135.367C18.5128 135.42 18.4013 135.476 18.2911 135.535C18.181 135.594 18.0723 135.656 17.9652 135.72C17.8581 135.784 17.7526 135.851 17.6487 135.92C17.5449 135.989 17.4428 136.061 17.3424 136.136C17.2421 136.21 17.1437 136.287 17.0471 136.366C16.9506 136.446 16.856 136.527 16.7635 136.611C16.6709 136.695 16.5805 136.781 16.4922 136.869C16.4038 136.958 16.3178 137.048 16.2339 137.141C16.15 137.233 16.0684 137.328 15.9892 137.424C15.9099 137.521 15.8331 137.619 15.7587 137.719C15.6843 137.82 15.6124 137.922 15.543 138.026C15.4736 138.13 15.4068 138.235 15.3426 138.342C15.2784 138.45 15.2169 138.558 15.158 138.668C15.0991 138.778 15.0429 138.89 14.9896 139.003C14.9361 139.116 14.8855 139.23 14.8377 139.345C14.7899 139.461 14.745 139.577 14.7029 139.695C14.6608 139.812 14.6217 139.931 14.5854 140.051C14.5492 140.17 14.5159 140.29 14.4855 140.411C14.4552 140.533 14.4278 140.655 14.4034 140.777C14.3791 140.9 14.3577 141.022 14.3394 141.146C14.3211 141.27 14.3058 141.394 14.2935 141.518C14.2813 141.642 14.2721 141.767 14.266 141.892C14.2598 142.016 14.2568 142.141 14.2568 142.266C14.2568 142.391 14.2598 142.516 14.266 142.641C14.2721 142.765 14.2813 142.89 14.2935 143.014C14.3058 143.138 14.3211 143.262 14.3394 143.386C14.3577 143.509 14.3791 143.633 14.4034 143.755C14.4278 143.877 14.4552 143.999 14.4855 144.12C14.5159 144.242 14.5492 144.362 14.5854 144.481C14.6217 144.601 14.6608 144.719 14.7029 144.837C14.745 144.955 14.7899 145.071 14.8377 145.187C14.8855 145.302 14.9361 145.416 14.9896 145.529C15.0429 145.642 15.0991 145.754 15.158 145.864C15.2169 145.974 15.2784 146.083 15.3426 146.19C15.4068 146.297 15.4736 146.402 15.543 146.506C15.6124 146.61 15.6843 146.712 15.7587 146.812C15.8331 146.913 15.9099 147.011 15.9892 147.108C16.0684 147.204 16.15 147.299 16.2339 147.391C16.3178 147.484 16.4038 147.574 16.4922 147.663C16.5805 147.751 16.6709 147.837 16.7635 147.921C16.856 148.005 16.9506 148.086 17.0471 148.166C17.1437 148.245 17.2421 148.322 17.3424 148.396C17.4428 148.471 17.5449 148.543 17.6487 148.612C17.7526 148.681 17.8581 148.748 17.9652 148.812C18.0723 148.877 18.181 148.938 18.2911 148.997C18.4013 149.056 18.5128 149.112 18.6257 149.165C18.7387 149.219 18.8528 149.269 18.9682 149.317C19.0836 149.365 19.2001 149.41 19.3177 149.452C19.4353 149.494 19.5539 149.533 19.6733 149.569C19.7929 149.606 19.9132 149.639 20.0345 149.669C20.1556 149.7 20.2774 149.727 20.3999 149.752C20.5224 149.776 20.6455 149.797 20.769 149.816C20.8926 149.834 21.0165 149.849 21.1407 149.861C21.2651 149.874 21.3896 149.883 21.5144 149.889C21.6391 149.895 21.764 149.898 21.889 149.898C22.0138 149.898 22.1386 149.895 22.2634 149.889C22.3881 149.883 22.5127 149.874 22.637 149.861C22.7612 149.849 22.8851 149.834 23.0087 149.816C23.1323 149.797 23.2553 149.776 23.3778 149.752C23.5003 149.727 23.6222 149.7 23.7433 149.669C23.8646 149.639 23.9849 149.606 24.1044 149.569C24.2239 149.533 24.3425 149.494 24.4601 149.452C24.5776 149.41 24.6942 149.365 24.8097 149.317C24.9251 149.269 25.0392 149.219 25.1521 149.165C25.2649 149.112 25.3765 149.056 25.4866 148.997C25.5968 148.938 25.7054 148.877 25.8126 148.812C25.9198 148.748 26.0253 148.681 26.129 148.612C26.2329 148.543 26.3351 148.471 26.4353 148.396C26.5356 148.322 26.6341 148.245 26.7306 148.166C26.8272 148.086 26.9218 148.005 27.0144 147.921C27.1069 147.837 27.1974 147.751 27.2856 147.663C27.3739 147.574 27.4601 147.484 27.5438 147.391C27.6278 147.299 27.7095 147.204 27.7886 147.108C27.8679 147.011 27.9446 146.913 28.019 146.812C28.0935 146.712 28.1653 146.61 28.2347 146.506C28.304 146.402 28.371 146.297 28.4353 146.19C28.4995 146.083 28.561 145.974 28.6198 145.864C28.6786 145.754 28.7349 145.642 28.7882 145.529C28.8415 145.416 28.8923 145.302 28.9401 145.187C28.988 145.071 29.0329 144.955 29.0749 144.837C29.1169 144.719 29.1562 144.601 29.1923 144.481C29.2286 144.362 29.262 144.242 29.2923 144.12C29.3226 143.999 29.3499 143.877 29.3743 143.755C29.3987 143.633 29.42 143.509 29.4384 143.386C29.4567 143.262 29.472 143.138 29.4843 143.014C29.4966 142.89 29.5058 142.765 29.5118 142.641C29.5179 142.516 29.521 142.391 29.521 142.266C29.521 142.141 29.5179 142.016 29.5118 141.892C29.5058 141.767 29.4966 141.642 29.4843 141.518C29.472 141.394 29.4567 141.27 29.4384 141.146C29.42 141.022 29.3987 140.9 29.3743 140.777C29.3499 140.655 29.3226 140.533 29.2923 140.411C29.262 140.29 29.2286 140.17 29.1923 140.051C29.1562 139.931 29.1169 139.812 29.0749 139.695C29.0329 139.577 28.988 139.461 28.9401 139.345C28.8923 139.23 28.8415 139.116 28.7882 139.003C28.7349 138.89 28.6786 138.778 28.6198 138.668C28.561 138.558 28.4995 138.45 28.4353 138.342C28.371 138.235 28.304 138.13 28.2347 138.026C28.1653 137.922 28.0935 137.82 28.019 137.719C27.9446 137.619 27.8679 137.521 27.7886 137.424C27.7095 137.328 27.6278 137.233 27.5438 137.141C27.4601 137.048 27.3739 136.958 27.2856 136.869C27.1974 136.781 27.1069 136.695 27.0144 136.611C26.9218 136.527 26.8272 136.446 26.7306 136.366C26.6341 136.287 26.5356 136.21 26.4353 136.136C26.3351 136.061 26.2329 135.989 26.129 135.92C26.0253 135.851 25.9198 135.784 25.8126 135.72C25.7054 135.656 25.5968 135.594 25.4866 135.535C25.3765 135.476 25.2649 135.42 25.1521 135.367C25.0392 135.313 24.9251 135.263 24.8097 135.215C24.6942 135.167 24.5776 135.122 24.4601 135.08C24.3425 135.038 24.2239 134.999 24.1044 134.962C23.9849 134.926 23.8646 134.893 23.7433 134.863C23.6222 134.832 23.5003 134.805 23.3778 134.781C23.2553 134.756 23.1323 134.735 23.0087 134.717C22.8851 134.698 22.7612 134.683 22.637 134.671C22.5127 134.658 22.3881 134.649 22.2634 134.643C22.1386 134.637 22.0138 134.634 21.889 134.634Z"   fill="#000000" >
</path>
<path d="M190.91 156.608C190.91 156.819 190.905 157.029 190.895 157.24C190.884 157.45 190.869 157.66 190.848 157.869C190.828 158.079 190.802 158.288 190.771 158.496C190.74 158.704 190.704 158.911 190.663 159.118C190.622 159.324 190.576 159.53 190.525 159.734C190.474 159.938 190.417 160.141 190.356 160.342C190.295 160.544 190.229 160.744 190.158 160.942C190.087 161.14 190.012 161.336 189.931 161.531C189.85 161.725 189.765 161.918 189.675 162.108C189.585 162.298 189.491 162.486 189.391 162.672C189.292 162.858 189.188 163.041 189.08 163.221C188.972 163.402 188.859 163.58 188.742 163.755C188.625 163.93 188.504 164.102 188.379 164.271C188.253 164.44 188.124 164.606 187.991 164.769C187.857 164.931 187.719 165.091 187.578 165.247C187.437 165.403 187.292 165.555 187.143 165.704C186.994 165.853 186.842 165.998 186.685 166.139C186.529 166.281 186.37 166.418 186.207 166.552C186.045 166.685 185.879 166.815 185.71 166.94C185.541 167.066 185.368 167.187 185.193 167.304C185.018 167.421 184.841 167.533 184.66 167.641C184.479 167.75 184.296 167.853 184.111 167.953C183.925 168.052 183.737 168.147 183.547 168.236C183.357 168.327 183.164 168.412 182.97 168.492C182.775 168.573 182.579 168.649 182.381 168.719C182.182 168.791 181.983 168.857 181.781 168.918C181.58 168.979 181.377 169.035 181.173 169.086C180.968 169.137 180.763 169.183 180.557 169.224C180.35 169.265 180.143 169.301 179.934 169.332C179.726 169.363 179.517 169.389 179.308 169.41C179.098 169.43 178.889 169.446 178.678 169.456C178.468 169.466 178.258 169.471 178.047 169.471C177.837 169.471 177.626 169.466 177.416 169.456C177.206 169.446 176.996 169.43 176.786 169.41C176.577 169.389 176.368 169.363 176.16 169.332C175.951 169.302 175.744 169.265 175.538 169.224C175.331 169.183 175.126 169.137 174.922 169.086C174.717 169.035 174.515 168.979 174.313 168.918C174.112 168.857 173.912 168.791 173.714 168.719C173.515 168.649 173.319 168.573 173.125 168.492C172.93 168.412 172.738 168.327 172.547 168.236C172.357 168.147 172.169 168.052 171.983 167.953C171.798 167.853 171.615 167.75 171.434 167.641C171.254 167.533 171.076 167.421 170.901 167.304C170.726 167.187 170.554 167.066 170.384 166.94C170.215 166.815 170.05 166.685 169.887 166.552C169.724 166.418 169.565 166.281 169.409 166.139C169.253 165.998 169.1 165.853 168.951 165.704C168.803 165.555 168.658 165.403 168.516 165.247C168.375 165.091 168.237 164.931 168.104 164.769C167.97 164.606 167.841 164.44 167.715 164.271C167.59 164.102 167.469 163.93 167.352 163.755C167.235 163.58 167.122 163.402 167.014 163.221C166.906 163.041 166.802 162.858 166.703 162.672C166.604 162.486 166.509 162.298 166.419 162.108C166.329 161.918 166.244 161.725 166.163 161.531C166.083 161.336 166.007 161.14 165.936 160.942C165.865 160.744 165.799 160.544 165.738 160.342C165.677 160.141 165.621 159.938 165.569 159.734C165.518 159.53 165.472 159.324 165.431 159.118C165.39 158.911 165.354 158.704 165.323 158.496C165.292 158.288 165.267 158.079 165.246 157.869C165.225 157.66 165.21 157.45 165.2 157.24C165.189 157.029 165.184 156.819 165.184 156.608C165.184 156.398 165.189 156.188 165.2 155.977C165.21 155.767 165.225 155.557 165.246 155.348C165.267 155.138 165.292 154.929 165.323 154.721C165.354 154.513 165.39 154.305 165.431 154.099C165.472 153.893 165.518 153.687 165.569 153.483C165.621 153.279 165.677 153.076 165.738 152.874C165.799 152.673 165.865 152.473 165.936 152.275C166.007 152.077 166.083 151.88 166.163 151.686C166.244 151.491 166.329 151.299 166.419 151.109C166.509 150.918 166.604 150.73 166.703 150.545C166.802 150.359 166.906 150.176 167.014 149.996C167.122 149.815 167.235 149.637 167.352 149.462C167.469 149.287 167.59 149.115 167.715 148.946C167.841 148.777 167.97 148.611 168.104 148.448C168.237 148.286 168.375 148.126 168.516 147.97C168.658 147.814 168.803 147.662 168.951 147.513C169.1 147.364 169.253 147.219 169.409 147.078C169.565 146.936 169.724 146.799 169.887 146.665C170.05 146.532 170.216 146.402 170.385 146.277C170.554 146.151 170.726 146.03 170.901 145.913C171.076 145.796 171.254 145.684 171.434 145.575C171.615 145.467 171.798 145.364 171.983 145.264C172.169 145.165 172.357 145.07 172.547 144.98C172.738 144.89 172.93 144.805 173.125 144.724C173.319 144.644 173.515 144.568 173.714 144.497C173.912 144.426 174.112 144.36 174.313 144.299C174.515 144.238 174.717 144.182 174.922 144.131C175.126 144.08 175.331 144.034 175.538 143.992C175.744 143.951 175.951 143.915 176.16 143.885C176.368 143.854 176.577 143.828 176.786 143.807C176.996 143.787 177.206 143.771 177.416 143.761C177.626 143.75 177.837 143.745 178.047 143.745C178.258 143.744 178.469 143.747 178.68 143.756C178.891 143.764 179.101 143.778 179.311 143.797C179.521 143.817 179.731 143.841 179.94 143.87C180.149 143.9 180.357 143.935 180.564 143.974C180.771 144.014 180.977 144.059 181.182 144.109C181.387 144.16 181.591 144.215 181.793 144.275C181.995 144.335 182.196 144.4 182.395 144.47C182.594 144.54 182.791 144.615 182.986 144.695C183.182 144.775 183.375 144.86 183.566 144.95C183.757 145.039 183.946 145.133 184.132 145.232C184.319 145.331 184.502 145.434 184.684 145.542C184.865 145.65 185.044 145.763 185.219 145.88C185.395 145.997 185.567 146.118 185.737 146.243C185.907 146.369 186.073 146.498 186.237 146.632C186.4 146.766 186.56 146.903 186.716 147.045C186.873 147.186 187.025 147.332 187.175 147.481C187.324 147.63 187.469 147.783 187.611 147.939C187.752 148.096 187.89 148.256 188.024 148.419C188.158 148.582 188.287 148.749 188.412 148.918C188.538 149.088 188.659 149.261 188.776 149.436C188.893 149.612 189.005 149.791 189.113 149.972C189.221 150.153 189.325 150.337 189.424 150.523C189.522 150.71 189.617 150.898 189.706 151.089C189.796 151.281 189.88 151.474 189.96 151.669C190.04 151.864 190.115 152.061 190.185 152.261C190.255 152.46 190.321 152.66 190.381 152.862C190.441 153.065 190.496 153.268 190.546 153.473C190.596 153.678 190.641 153.884 190.681 154.091C190.721 154.299 190.756 154.507 190.785 154.716C190.815 154.925 190.839 155.134 190.858 155.344C190.877 155.555 190.891 155.765 190.9 155.976C190.909 156.187 190.912 156.397 190.91 156.608Z"   fill="#FFFFFF" >
</path>
<path d="M178.155 174.488C177.862 174.488 177.57 174.481 177.277 174.467C176.985 174.452 176.693 174.431 176.402 174.402C176.111 174.373 175.821 174.338 175.531 174.295C175.242 174.252 174.953 174.202 174.667 174.145C174.38 174.088 174.094 174.023 173.81 173.952C173.526 173.881 173.244 173.803 172.965 173.718C172.684 173.633 172.407 173.542 172.131 173.443C171.856 173.344 171.583 173.239 171.312 173.127C171.042 173.015 170.775 172.897 170.51 172.772C170.246 172.646 169.984 172.515 169.726 172.377C169.468 172.239 169.214 172.095 168.963 171.944C168.712 171.794 168.465 171.638 168.221 171.475C167.978 171.312 167.739 171.144 167.504 170.97C167.269 170.795 167.038 170.615 166.812 170.43C166.586 170.244 166.364 170.053 166.147 169.856C165.931 169.66 165.719 169.458 165.512 169.251C165.305 169.045 165.103 168.833 164.907 168.616C164.71 168.399 164.519 168.177 164.333 167.951C164.148 167.725 163.968 167.494 163.793 167.259C163.619 167.024 163.451 166.785 163.288 166.542C163.126 166.299 162.969 166.051 162.819 165.8C162.668 165.549 162.524 165.295 162.386 165.037C162.248 164.779 162.117 164.518 161.992 164.253C161.867 163.989 161.748 163.721 161.636 163.451C161.524 163.18 161.419 162.907 161.32 162.632C161.222 162.356 161.13 162.079 161.045 161.799C160.96 161.519 160.882 161.237 160.811 160.953C160.74 160.669 160.676 160.384 160.618 160.097C160.561 159.81 160.511 159.521 160.468 159.232C160.425 158.942 160.39 158.652 160.361 158.361C160.332 158.07 160.311 157.778 160.297 157.486C160.282 157.193 160.275 156.901 160.275 156.608C160.275 156.316 160.282 156.023 160.297 155.731C160.311 155.439 160.332 155.147 160.361 154.856C160.39 154.565 160.425 154.274 160.468 153.985C160.511 153.696 160.561 153.407 160.618 153.12C160.676 152.833 160.74 152.548 160.811 152.264C160.882 151.98 160.96 151.698 161.045 151.418C161.13 151.138 161.222 150.861 161.32 150.585C161.419 150.309 161.524 150.037 161.636 149.766C161.748 149.496 161.867 149.228 161.992 148.964C162.117 148.699 162.248 148.438 162.386 148.18C162.524 147.922 162.668 147.667 162.819 147.416C162.969 147.165 163.126 146.918 163.288 146.675C163.451 146.432 163.619 146.192 163.793 145.957C163.968 145.722 164.148 145.492 164.333 145.266C164.519 145.04 164.71 144.818 164.907 144.601C165.103 144.384 165.305 144.173 165.512 143.966C165.719 143.759 165.931 143.557 166.147 143.36C166.364 143.164 166.586 142.973 166.812 142.787C167.038 142.602 167.269 142.422 167.504 142.247C167.739 142.073 167.978 141.905 168.221 141.742C168.465 141.579 168.712 141.423 168.963 141.273C169.214 141.122 169.468 140.978 169.726 140.84C169.984 140.702 170.246 140.57 170.51 140.445C170.775 140.32 171.042 140.202 171.312 140.09C171.583 139.978 171.856 139.872 172.131 139.774C172.407 139.675 172.684 139.584 172.965 139.499C173.244 139.414 173.526 139.336 173.81 139.264C174.094 139.193 174.38 139.129 174.667 139.072C174.953 139.015 175.242 138.965 175.531 138.922C175.821 138.879 176.111 138.844 176.402 138.815C176.693 138.786 176.985 138.765 177.277 138.75C177.57 138.736 177.862 138.729 178.155 138.729C178.447 138.729 178.74 138.736 179.032 138.75C179.324 138.765 179.616 138.786 179.907 138.815C180.198 138.844 180.489 138.879 180.778 138.922C181.068 138.965 181.356 139.015 181.643 139.072C181.93 139.129 182.215 139.193 182.499 139.264C182.783 139.336 183.065 139.414 183.345 139.499C183.625 139.584 183.903 139.675 184.178 139.774C184.454 139.872 184.727 139.978 184.997 140.09C185.267 140.202 185.535 140.32 185.799 140.445C186.064 140.57 186.325 140.702 186.583 140.84C186.841 140.978 187.096 141.122 187.347 141.273C187.598 141.423 187.845 141.579 188.088 141.742C188.331 141.905 188.571 142.073 188.806 142.247C189.041 142.422 189.271 142.602 189.498 142.787C189.724 142.973 189.945 143.164 190.162 143.36C190.379 143.557 190.591 143.759 190.798 143.966C191.004 144.173 191.206 144.384 191.403 144.601C191.599 144.818 191.79 145.04 191.976 145.266C192.162 145.492 192.342 145.722 192.516 145.957C192.69 146.192 192.858 146.432 193.021 146.675C193.184 146.918 193.34 147.165 193.491 147.416C193.641 147.667 193.785 147.922 193.923 148.18C194.061 148.438 194.193 148.699 194.318 148.964C194.443 149.228 194.561 149.496 194.673 149.766C194.785 150.037 194.891 150.309 194.989 150.585C195.088 150.861 195.18 151.138 195.265 151.418C195.35 151.698 195.428 151.98 195.498 152.264C195.57 152.548 195.634 152.833 195.692 153.12C195.748 153.407 195.797 153.696 195.84 153.985C195.883 154.274 195.919 154.565 195.948 154.856C195.976 155.147 195.998 155.439 196.012 155.731C196.026 156.023 196.033 156.316 196.033 156.608C196.033 156.901 196.026 157.193 196.012 157.485C195.998 157.778 195.975 158.069 195.946 158.36C195.917 158.651 195.881 158.942 195.838 159.231C195.795 159.52 195.745 159.808 195.688 160.095C195.631 160.382 195.566 160.667 195.494 160.951C195.423 161.235 195.345 161.516 195.26 161.796C195.175 162.076 195.083 162.354 194.984 162.629C194.885 162.905 194.78 163.177 194.668 163.448C194.556 163.718 194.437 163.985 194.312 164.249C194.186 164.514 194.055 164.775 193.917 165.033C193.779 165.291 193.635 165.545 193.484 165.796C193.334 166.047 193.177 166.294 193.015 166.537C192.852 166.78 192.684 167.019 192.509 167.254C192.335 167.489 192.155 167.719 191.969 167.946C191.784 168.172 191.593 168.393 191.396 168.61C191.2 168.826 190.998 169.038 190.791 169.245C190.584 169.452 190.373 169.654 190.156 169.85C189.939 170.047 189.718 170.238 189.492 170.423C189.266 170.609 189.035 170.789 188.8 170.963C188.565 171.137 188.326 171.306 188.083 171.468C187.84 171.631 187.593 171.787 187.342 171.938C187.091 172.089 186.837 172.233 186.579 172.371C186.321 172.509 186.06 172.64 185.795 172.765C185.531 172.891 185.264 173.009 184.994 173.122C184.724 173.234 184.451 173.339 184.175 173.438C183.9 173.536 183.622 173.628 183.342 173.714C183.063 173.799 182.781 173.877 182.497 173.948C182.213 174.019 181.928 174.084 181.641 174.141C181.354 174.198 181.066 174.249 180.777 174.292C180.488 174.335 180.198 174.371 179.907 174.4C179.615 174.429 179.324 174.451 179.032 174.466C178.74 174.48 178.447 174.488 178.155 174.488ZM178.155 148.976C178.03 148.976 177.905 148.979 177.78 148.986C177.655 148.992 177.531 149.001 177.407 149.013C177.282 149.025 177.158 149.041 177.035 149.059C176.911 149.077 176.788 149.099 176.666 149.123C176.543 149.147 176.421 149.175 176.3 149.205C176.179 149.235 176.059 149.269 175.939 149.305C175.82 149.341 175.701 149.38 175.583 149.423C175.466 149.465 175.349 149.509 175.234 149.557C175.119 149.605 175.004 149.656 174.892 149.709C174.779 149.763 174.667 149.819 174.557 149.878C174.447 149.936 174.338 149.998 174.231 150.062C174.124 150.126 174.018 150.193 173.915 150.263C173.811 150.332 173.709 150.404 173.608 150.478C173.508 150.553 173.409 150.63 173.313 150.709C173.216 150.788 173.122 150.87 173.029 150.953C172.937 151.037 172.846 151.123 172.758 151.212C172.67 151.3 172.584 151.39 172.5 151.483C172.416 151.576 172.334 151.67 172.255 151.767C172.176 151.863 172.099 151.962 172.025 152.062C171.95 152.162 171.878 152.264 171.809 152.368C171.739 152.472 171.673 152.578 171.608 152.685C171.544 152.792 171.483 152.901 171.424 153.011C171.365 153.121 171.309 153.232 171.255 153.345C171.202 153.458 171.151 153.572 171.104 153.688C171.056 153.803 171.011 153.92 170.969 154.037C170.927 154.155 170.887 154.273 170.851 154.393C170.815 154.513 170.782 154.633 170.751 154.754C170.721 154.875 170.694 154.997 170.669 155.12C170.645 155.242 170.624 155.365 170.605 155.489C170.587 155.612 170.572 155.736 170.559 155.86C170.547 155.985 170.538 156.109 170.532 156.234C170.526 156.359 170.523 156.484 170.523 156.608C170.523 156.733 170.526 156.858 170.532 156.983C170.538 157.108 170.547 157.232 170.559 157.356C170.572 157.481 170.587 157.605 170.605 157.728C170.624 157.852 170.645 157.975 170.669 158.098C170.694 158.22 170.721 158.342 170.751 158.463C170.782 158.584 170.815 158.704 170.851 158.824C170.887 158.943 170.927 159.062 170.969 159.18C171.011 159.297 171.056 159.414 171.103 159.529C171.151 159.645 171.202 159.759 171.255 159.872C171.309 159.985 171.365 160.096 171.424 160.206C171.483 160.316 171.544 160.425 171.608 160.532C171.673 160.639 171.739 160.745 171.809 160.849C171.878 160.952 171.95 161.055 172.025 161.155C172.099 161.255 172.176 161.354 172.255 161.45C172.334 161.547 172.416 161.641 172.5 161.734C172.584 161.826 172.67 161.917 172.758 162.005C172.846 162.094 172.937 162.18 173.029 162.264C173.122 162.347 173.216 162.429 173.313 162.508C173.409 162.587 173.508 162.664 173.608 162.739C173.709 162.813 173.811 162.885 173.915 162.954C174.018 163.024 174.124 163.09 174.231 163.155C174.338 163.219 174.447 163.281 174.557 163.339C174.667 163.398 174.779 163.455 174.892 163.508C175.004 163.561 175.119 163.612 175.234 163.66C175.349 163.707 175.466 163.752 175.583 163.794C175.701 163.836 175.82 163.876 175.939 163.912C176.059 163.948 176.179 163.981 176.3 164.012C176.421 164.042 176.543 164.07 176.666 164.094C176.788 164.118 176.911 164.14 177.035 164.158C177.158 164.176 177.282 164.191 177.407 164.204C177.531 164.216 177.655 164.225 177.78 164.231C177.905 164.237 178.03 164.24 178.155 164.241C178.28 164.24 178.404 164.237 178.529 164.231C178.654 164.225 178.778 164.216 178.903 164.204C179.027 164.191 179.151 164.176 179.275 164.158C179.398 164.14 179.521 164.118 179.644 164.094C179.766 164.07 179.888 164.042 180.009 164.012C180.13 163.981 180.251 163.948 180.37 163.912C180.49 163.876 180.608 163.836 180.726 163.794C180.843 163.752 180.96 163.707 181.075 163.66C181.191 163.612 181.305 163.561 181.418 163.508C181.531 163.455 181.642 163.398 181.752 163.339C181.863 163.281 181.971 163.219 182.078 163.155C182.186 163.09 182.291 163.024 182.395 162.954C182.499 162.885 182.601 162.813 182.701 162.739C182.801 162.664 182.9 162.587 182.996 162.508C183.093 162.429 183.188 162.347 183.28 162.264C183.373 162.18 183.463 162.094 183.551 162.005C183.64 161.917 183.726 161.826 183.81 161.734C183.893 161.641 183.975 161.547 184.054 161.45C184.134 161.354 184.21 161.255 184.285 161.155C184.359 161.055 184.431 160.952 184.5 160.849C184.57 160.745 184.637 160.639 184.701 160.532C184.765 160.425 184.827 160.316 184.886 160.206C184.944 160.096 185.001 159.985 185.054 159.872C185.107 159.759 185.158 159.645 185.206 159.529C185.254 159.414 185.299 159.297 185.341 159.18C185.383 159.062 185.422 158.943 185.458 158.824C185.494 158.704 185.528 158.584 185.558 158.463C185.588 158.342 185.616 158.22 185.64 158.097C185.665 157.975 185.686 157.852 185.704 157.728C185.723 157.605 185.738 157.481 185.75 157.356C185.762 157.232 185.772 157.108 185.778 156.983C185.784 156.858 185.787 156.733 185.787 156.608C185.786 156.484 185.783 156.359 185.777 156.234C185.77 156.11 185.761 155.985 185.748 155.861C185.736 155.737 185.72 155.613 185.701 155.49C185.683 155.366 185.661 155.243 185.637 155.121C185.612 154.999 185.584 154.877 185.554 154.756C185.523 154.635 185.49 154.515 185.453 154.395C185.417 154.276 185.378 154.158 185.335 154.04C185.293 153.923 185.248 153.806 185.2 153.691C185.152 153.576 185.101 153.462 185.048 153.349C184.994 153.236 184.938 153.125 184.879 153.015C184.82 152.905 184.759 152.796 184.694 152.689C184.63 152.582 184.563 152.477 184.494 152.373C184.425 152.27 184.353 152.168 184.278 152.067C184.204 151.967 184.127 151.869 184.048 151.773C183.969 151.676 183.887 151.582 183.803 151.489C183.719 151.397 183.633 151.306 183.545 151.218C183.457 151.13 183.367 151.044 183.274 150.96C183.182 150.876 183.087 150.794 182.991 150.715C182.894 150.636 182.796 150.559 182.696 150.485C182.596 150.41 182.493 150.339 182.39 150.269C182.286 150.2 182.181 150.133 182.074 150.069C181.967 150.004 181.858 149.943 181.748 149.884C181.638 149.825 181.527 149.769 181.414 149.715C181.301 149.662 181.187 149.611 181.072 149.563C180.957 149.515 180.84 149.47 180.723 149.428C180.606 149.386 180.487 149.346 180.368 149.31C180.249 149.273 180.128 149.24 180.007 149.209C179.886 149.179 179.764 149.151 179.642 149.127C179.52 149.102 179.397 149.08 179.274 149.062C179.15 149.043 179.026 149.028 178.902 149.015C178.778 149.002 178.653 148.993 178.529 148.987C178.404 148.98 178.28 148.977 178.155 148.976Z"   fill="#000000" >
</path>
<path d="M90.4494 19.4876C90.4494 19.696 90.4443 19.9042 90.434 20.1123C90.4238 20.3205 90.4086 20.5283 90.3881 20.7357C90.3678 20.943 90.3424 21.1498 90.3117 21.356C90.2812 21.5622 90.2457 21.7674 90.2051 21.9717C90.1645 22.1761 90.1189 22.3794 90.0684 22.5816C90.0178 22.7837 89.9623 22.9845 89.902 23.184C89.8416 23.3834 89.7764 23.5813 89.7063 23.7775C89.6361 23.9738 89.5613 24.1682 89.4816 24.3607C89.4021 24.5533 89.3178 24.7438 89.2289 24.9322C89.1398 25.1208 89.0463 25.307 88.9482 25.4908C88.8502 25.6747 88.7477 25.856 88.6406 26.0348C88.5338 26.2137 88.4225 26.3897 88.3068 26.5631C88.1912 26.7366 88.0715 26.9071 87.9475 27.0747C87.8234 27.242 87.6955 27.4063 87.5637 27.5676C87.4316 27.729 87.2957 27.8868 87.1561 28.0415C87.0162 28.1959 86.8727 28.3469 86.7256 28.4946C86.5785 28.6422 86.4277 28.786 86.2736 28.9262C86.1195 29.0665 85.9619 29.2028 85.801 29.3352C85.64 29.4676 85.476 29.5959 85.309 29.7204C85.1418 29.8448 84.9717 29.9651 84.7986 30.0811C84.6254 30.1971 84.4496 30.309 84.2711 30.4165C84.0926 30.5239 83.9115 30.6268 83.7279 30.7254C83.5443 30.8239 83.3585 30.918 83.1703 31.0077C82.982 31.0971 82.7917 31.1819 82.5994 31.262C82.4071 31.342 82.2129 31.4174 82.0168 31.4881C81.8207 31.5588 81.623 31.6247 81.4238 31.6856C81.2245 31.7465 81.0238 31.8024 80.8219 31.8536C80.6198 31.9047 80.4166 31.9508 80.2123 31.992C80.008 32.0331 79.8029 32.0692 79.5969 32.1002C79.3908 32.1313 79.1841 32.1573 78.9768 32.1784C78.7695 32.1993 78.5618 32.2151 78.3537 32.226C78.1455 32.2368 77.9372 32.2424 77.7289 32.243C77.5206 32.2436 77.3123 32.2391 77.1041 32.2295C76.8959 32.2198 76.6881 32.2051 76.4807 32.1854C76.2732 32.1655 76.0664 32.1407 75.8602 32.1108C75.6539 32.0807 75.4486 32.0458 75.2441 32.0057C75.0396 31.9657 74.8361 31.9208 74.6338 31.8708C74.4316 31.8208 74.2307 31.7659 74.0311 31.7061C73.8314 31.6461 73.6334 31.5815 73.4369 31.512C73.2404 31.4424 73.0458 31.368 72.8531 31.2891C72.6603 31.21 72.4695 31.1262 72.2809 31.0377C72.092 30.9493 71.9056 30.8563 71.7215 30.7588C71.5374 30.6612 71.3557 30.5592 71.1766 30.4528C70.9975 30.3463 70.8212 30.2356 70.6475 30.1206C70.4736 30.0053 70.3028 29.886 70.135 29.7625C69.9671 29.6391 69.8024 29.5116 69.6408 29.3801C69.4792 29.2485 69.3209 29.1129 69.1658 28.9737C69.0109 28.8342 68.8595 28.6913 68.7115 28.5446C68.5635 28.3979 68.4192 28.2477 68.2787 28.0938C68.1381 27.9399 68.0013 27.7829 67.8684 27.6223C67.7354 27.4618 67.6065 27.2983 67.4816 27.1315C67.3568 26.9645 67.2361 26.7948 67.1195 26.6221C67.003 26.4493 66.8908 26.2737 66.7828 26.0955C66.6749 25.9172 66.5714 25.7365 66.4723 25.5531C66.3732 25.3699 66.2786 25.1843 66.1885 24.9963C66.0985 24.8084 66.0132 24.6183 65.9326 24.4262C65.8519 24.2341 65.7759 24.0401 65.7047 23.8441C65.6336 23.6483 65.5673 23.4508 65.5057 23.2517C65.4442 23.0527 65.3876 22.8522 65.3359 22.6504C65.2842 22.4484 65.2376 22.2454 65.1959 22.0412C65.1541 21.837 65.1174 21.632 65.0857 21.426C65.0541 21.22 65.0275 21.0134 65.0059 20.8062C64.9844 20.599 64.968 20.3913 64.9566 20.1832C64.9452 19.9751 64.9389 19.7668 64.9377 19.5584C64.9365 19.35 64.9405 19.1418 64.9496 18.9336C64.9586 18.7254 64.9727 18.5176 64.992 18.3101C65.0113 18.1026 65.0356 17.8957 65.0648 17.6894C65.0943 17.4831 65.1287 17.2776 65.1682 17.073C65.2076 16.8684 65.252 16.6648 65.3014 16.4624C65.3509 16.26 65.4052 16.0588 65.4645 15.8591C65.5237 15.6593 65.5878 15.4611 65.6568 15.2644C65.7259 15.0678 65.7996 14.873 65.8781 14.68C65.9566 14.4869 66.0398 14.2959 66.1277 14.107C66.2156 13.9181 66.3081 13.7314 66.4051 13.547C66.5021 13.3625 66.6036 13.1806 66.7096 13.0012C66.8156 12.8217 66.9259 12.645 67.0404 12.471C67.155 12.2969 67.2738 12.1258 67.3969 11.9576C67.5199 11.7894 67.647 11.6243 67.7781 11.4623C67.9091 11.3004 68.0441 11.1417 68.183 10.9863C68.3219 10.8309 68.4645 10.6791 68.6107 10.5307C68.7571 10.3823 68.907 10.2376 69.0603 10.0966C69.2137 9.95554 69.3705 9.81833 69.5307 9.68499C69.6908 9.55165 69.8541 9.42229 70.0205 9.29694C70.187 9.17159 70.3565 9.0504 70.5289 8.93335C70.7013 8.81632 70.8765 8.70356 71.0545 8.59511C71.2324 8.48664 71.4128 8.38261 71.5959 8.283C71.779 8.18339 71.9643 8.08832 72.152 7.99778C72.3397 7.90726 72.5295 7.82139 72.7215 7.74017C72.9133 7.65894 73.107 7.58246 73.3027 7.51073C73.4984 7.439 73.6957 7.37211 73.8945 7.31005C74.0935 7.24798 74.2938 7.19082 74.4955 7.13858C74.6973 7.08634 74.9003 7.03908 75.1043 6.99679C75.3083 6.95448 75.5133 6.9172 75.7191 6.88495C75.925 6.8527 76.1315 6.8255 76.3387 6.80337C76.546 6.78125 76.7537 6.76421 76.9617 6.75226C77.1697 6.74029 77.3779 6.73343 77.5863 6.73169C77.7957 6.73168 78.005 6.73678 78.2141 6.747C78.4233 6.75721 78.6321 6.77252 78.8404 6.79294C79.0489 6.81334 79.2567 6.83882 79.4639 6.86938C79.671 6.89994 79.8773 6.93554 80.0826 6.97616C80.2881 7.0168 80.4924 7.06243 80.6955 7.11304C80.8988 7.16365 81.1006 7.21918 81.3012 7.27964C81.5016 7.34011 81.7005 7.40543 81.8979 7.47562C82.0951 7.5458 82.2906 7.62075 82.4842 7.70048C82.6778 7.78021 82.8693 7.86461 83.0588 7.9537C83.2484 8.04278 83.4356 8.13643 83.6205 8.23466C83.8054 8.33289 83.9878 8.43557 84.1678 8.54271C84.3477 8.64984 84.525 8.7613 84.6994 8.87708C84.8738 8.99288 85.0455 9.11286 85.2141 9.23702C85.3826 9.36118 85.5482 9.48938 85.7105 9.62163C85.8728 9.75388 86.0318 9.89001 86.1875 10.03C86.3432 10.17 86.4955 10.3138 86.6441 10.4612C86.7928 10.6087 86.9379 10.7597 87.0791 10.9142C87.2205 11.0687 87.358 11.2266 87.4916 11.3879C87.6252 11.5491 87.7547 11.7135 87.8803 11.8811C88.0059 12.0487 88.1273 12.2192 88.2445 12.3927C88.3619 12.5662 88.4748 12.7425 88.5834 12.9215C88.692 13.1005 88.7961 13.282 88.8959 13.4662C88.9957 13.6503 89.091 13.8367 89.1816 14.0255C89.2723 14.2142 89.3582 14.4051 89.4397 14.598C89.5211 14.791 89.5977 14.9858 89.6693 15.1825C89.7412 15.3792 89.8082 15.5775 89.8703 15.7775C89.9326 15.9775 89.9898 16.1788 90.042 16.3816C90.0943 16.5844 90.1416 16.7883 90.184 16.9934C90.2264 17.1984 90.2637 17.4044 90.2959 17.6113C90.3281 17.8182 90.3555 18.0258 90.3777 18.234C90.3998 18.4422 90.417 18.6509 90.4289 18.8599C90.4408 19.069 90.4477 19.2782 90.4494 19.4876Z"   fill="#FFFFFF" >
</path>
<path d="M77.6936 37.3673C77.4006 37.3673 77.1077 37.3601 76.8149 37.3456C76.5222 37.3313 76.2301 37.3097 75.9386 37.281C75.6469 37.2522 75.3562 37.2165 75.0663 37.1733C74.7765 37.1304 74.4878 37.0804 74.2003 37.0231C73.9129 36.9659 73.6271 36.9019 73.3429 36.8306C73.0586 36.7593 72.7763 36.6812 72.4958 36.596C72.2155 36.511 71.9373 36.419 71.6614 36.3202C71.3855 36.2216 71.1122 36.1161 70.8415 36.004C70.5708 35.8917 70.303 35.7729 70.038 35.6478C69.7731 35.5224 69.5115 35.3905 69.253 35.2524C68.9946 35.1144 68.7397 34.9698 68.4884 34.8192C68.2371 34.6685 67.9896 34.5116 67.746 34.3489C67.5024 34.186 67.2629 34.0173 67.0274 33.8427C66.7921 33.6681 66.5613 33.4878 66.3349 33.3019C66.1083 33.1159 65.8865 32.9245 65.6694 32.7276C65.4524 32.531 65.2403 32.3288 65.0331 32.1216C64.8258 31.9144 64.6238 31.7021 64.427 31.4849C64.2303 31.2679 64.039 31.046 63.8532 30.8194C63.6674 30.5929 63.4873 30.3618 63.3128 30.1265C63.1382 29.8911 62.9695 29.6515 62.8067 29.4077C62.6441 29.164 62.4875 28.9165 62.3368 28.6651C62.1863 28.4138 62.042 28.1587 61.9038 27.9003C61.7658 27.6419 61.6342 27.3802 61.5089 27.1151C61.3838 26.8501 61.2651 26.5823 61.153 26.3116C61.0409 26.0407 60.9356 25.7675 60.837 25.4915C60.7383 25.2155 60.6465 24.9374 60.5616 24.6569C60.4766 24.3765 60.3985 24.094 60.3274 23.8099C60.2563 23.5257 60.1923 23.2397 60.1353 22.9522C60.0781 22.6649 60.0281 22.3763 59.9853 22.0862C59.9423 21.7964 59.9065 21.5056 59.878 21.214C59.8494 20.9225 59.8279 20.6303 59.8136 20.3376C59.7994 20.0449 59.7924 19.752 59.7925 19.4589C59.7926 19.1659 59.7999 18.8731 59.8144 18.5804C59.8288 18.2877 59.8505 17.9955 59.8794 17.7039C59.9082 17.4123 59.9442 17.1216 59.9874 16.8317C60.0305 16.5419 60.0807 16.2533 60.138 15.9659C60.1953 15.6785 60.2596 15.3927 60.331 15.1085C60.4023 14.8242 60.4806 14.5419 60.5657 14.2615C60.6509 13.9812 60.7429 13.703 60.8417 13.4272C60.9407 13.1513 61.0463 12.878 61.1585 12.6074C61.2707 12.3367 61.3895 12.0689 61.5149 11.8041C61.6405 11.5393 61.7724 11.2777 61.9106 11.0193C62.0489 10.7609 62.1935 10.5061 62.3442 10.2548C62.495 10.0036 62.6519 9.75615 62.8147 9.51258C62.9776 9.26902 63.1464 9.02959 63.3212 8.79432C63.4959 8.55904 63.6763 8.3282 63.8624 8.10178C64.0483 7.87537 64.2398 7.65365 64.4368 7.43664C64.6337 7.21963 64.8358 7.00758 65.0431 6.80049C65.2505 6.59342 65.4628 6.39154 65.68 6.19486C65.8973 5.9982 66.1192 5.80699 66.3458 5.62123C66.5725 5.43547 66.8036 5.25537 67.039 5.08096C67.2745 4.90654 67.5142 4.73803 67.7579 4.57537C68.0017 4.41273 68.2493 4.25617 68.5007 4.10568C68.7521 3.9552 69.0071 3.81098 69.2657 3.67301C69.5242 3.53504 69.7859 3.40351 70.0509 3.2784C70.316 3.15329 70.5839 3.03475 70.8546 2.9228C71.1254 2.81085 71.3989 2.70561 71.6749 2.60708C71.9508 2.50856 72.229 2.41687 72.5095 2.332C72.7901 2.24714 73.0725 2.16921 73.3567 2.09821C73.6411 2.02722 73.927 1.96325 74.2144 1.9063C74.5019 1.84934 74.7905 1.79948 75.0804 1.7567C75.3704 1.71392 75.6612 1.67828 75.9528 1.64979C76.2444 1.62129 76.5365 1.59997 76.8292 1.58582C77.1219 1.57167 77.4148 1.56471 77.7079 1.56495C78.0009 1.56518 78.2937 1.57261 78.5864 1.58722C78.8791 1.60184 79.1712 1.62363 79.4628 1.65259C79.7544 1.68156 80.0452 1.71766 80.3351 1.7609C80.6249 1.80414 80.9136 1.85446 81.2009 1.91188C81.4882 1.96929 81.7739 2.03372 82.0581 2.10516C82.3423 2.17662 82.6247 2.255 82.905 2.3403C83.1853 2.42561 83.4634 2.51775 83.7392 2.61672C84.0151 2.71568 84.2884 2.82136 84.5589 2.93376C84.8296 3.04614 85.0974 3.1651 85.362 3.29063C85.6269 3.41616 85.8884 3.54813 86.1468 3.68648C86.4052 3.82486 86.6599 3.96949 86.911 4.12037C87.1622 4.27127 87.4095 4.42824 87.653 4.59127C87.8966 4.75432 88.1358 4.92322 88.3712 5.09801C88.6063 5.27281 88.837 5.45326 89.0634 5.63938C89.2897 5.82551 89.5114 6.01707 89.7284 6.21406C89.9454 6.41109 90.1573 6.6133 90.3642 6.8207C90.5712 7.02812 90.7729 7.24051 90.9696 7.45783C91.1663 7.67516 91.3573 7.89717 91.5431 8.12389C91.7288 8.35061 91.9087 8.58174 92.0829 8.81729C92.2573 9.05285 92.4257 9.29254 92.5882 9.53635C92.7509 9.78018 92.9073 10.0279 93.0577 10.2794C93.2081 10.5309 93.3522 10.7859 93.4901 11.0445C93.6278 11.3031 93.7593 11.5649 93.8843 11.8299C94.0093 12.095 94.1276 12.3629 94.2395 12.6338C94.3515 12.9046 94.4565 13.1781 94.555 13.4541C94.6534 13.7301 94.745 14.0084 94.8298 14.2889C94.9146 14.5694 94.9923 14.8519 95.0632 15.1362C95.1341 15.4205 95.198 15.7064 95.2548 15.9939C95.3116 16.2814 95.3614 16.5701 95.404 16.86C95.4468 17.1499 95.4823 17.4407 95.5106 17.7324C95.539 18.024 95.5603 18.3162 95.5743 18.6089C95.5882 18.9016 95.595 19.1945 95.5948 19.4875C95.5944 19.7803 95.5868 20.0729 95.5722 20.3652C95.5575 20.6576 95.5356 20.9495 95.5065 21.2407C95.4774 21.5319 95.4413 21.8224 95.3981 22.112C95.355 22.4015 95.3046 22.6897 95.2472 22.9769C95.1897 23.2638 95.1253 23.5493 95.0538 23.8333C94.9825 24.1171 94.9042 24.3991 94.8188 24.6792C94.7335 24.9593 94.6415 25.237 94.5427 25.5126C94.4438 25.7882 94.3382 26.061 94.2259 26.3313C94.1136 26.6019 93.9948 26.8692 93.8694 27.1337C93.744 27.3983 93.6122 27.6597 93.4741 27.9177C93.3358 28.1757 93.1913 28.4302 93.0407 28.6812C92.8901 28.9321 92.7333 29.1794 92.5704 29.4226C92.4077 29.6659 92.239 29.905 92.0644 30.1399C91.8897 30.3749 91.7095 30.6056 91.5237 30.8317C91.338 31.0579 91.1466 31.2794 90.9499 31.4962C90.7532 31.713 90.5513 31.9249 90.344 32.1317C90.1368 32.3386 89.9249 32.5403 89.7079 32.7368C89.4909 32.9331 89.269 33.1241 89.0427 33.3099C88.8163 33.4954 88.5856 33.6753 88.3503 33.8497C88.1151 34.0239 87.8759 34.1923 87.6323 34.3548C87.3888 34.5173 87.1415 34.6737 86.8903 34.8241C86.6392 34.9747 86.3845 35.1188 86.1263 35.2567C85.8681 35.3946 85.6065 35.5261 85.3419 35.6511C85.0772 35.7763 84.8097 35.8948 84.5392 36.0067C84.2687 36.1187 83.9954 36.2237 83.7198 36.3224C83.4442 36.421 83.1663 36.5126 82.8862 36.5976C82.606 36.6825 82.3239 36.7604 82.0399 36.8315C81.756 36.9026 81.4704 36.9667 81.1833 37.0237C80.8962 37.081 80.6079 37.131 80.3183 37.1737C80.0286 37.2167 79.7382 37.2524 79.4468 37.2812C79.1555 37.3099 78.8636 37.3313 78.5712 37.3458C78.2789 37.3601 77.9864 37.3673 77.6936 37.3673ZM77.6936 11.8554C77.5686 11.8554 77.4438 11.8585 77.319 11.8646C77.1943 11.8707 77.0698 11.8799 76.9454 11.8922C76.8212 11.9044 76.6973 11.9197 76.5737 11.938C76.4502 11.9564 76.3271 11.9777 76.2046 12.0021C76.0821 12.0264 75.9603 12.0538 75.8392 12.0842C75.7179 12.1145 75.5976 12.1478 75.478 12.1841C75.3585 12.2203 75.2399 12.2595 75.1224 12.3016C75.0048 12.3437 74.8883 12.3886 74.7729 12.4364C74.6575 12.4842 74.5433 12.5348 74.4304 12.5882C74.3175 12.6416 74.206 12.6978 74.0958 12.7566C73.9856 12.8155 73.877 12.8771 73.7698 12.9412C73.6627 13.0055 73.5572 13.0723 73.4534 13.1417C73.3495 13.2111 73.2474 13.283 73.1472 13.3574C73.0468 13.4318 72.9483 13.5086 72.8519 13.5878C72.7553 13.6671 72.6606 13.7487 72.5681 13.8325C72.4756 13.9164 72.3852 14.0025 72.2968 14.0908C72.2085 14.1791 72.1224 14.2696 72.0386 14.3621C71.9547 14.4547 71.8731 14.5492 71.7938 14.6458C71.7147 14.7423 71.6378 14.8408 71.5634 14.9411C71.489 15.0414 71.4171 15.1435 71.3478 15.2474C71.2784 15.3512 71.2116 15.4567 71.1474 15.5638C71.083 15.671 71.0214 15.7796 70.9626 15.8898C70.9037 15.9999 70.8476 16.1115 70.7942 16.2244C70.7409 16.3373 70.6903 16.4515 70.6425 16.5669C70.5947 16.6823 70.5497 16.7988 70.5075 16.9164C70.4655 17.034 70.4263 17.1525 70.3901 17.2721C70.3538 17.3916 70.3205 17.5119 70.2901 17.6331C70.2598 17.7543 70.2325 17.8761 70.2081 17.9986C70.1837 18.1211 70.1624 18.2441 70.144 18.3677C70.1257 18.4912 70.1104 18.6152 70.0981 18.7395C70.0859 18.8638 70.0767 18.9883 70.0706 19.113C70.0645 19.2378 70.0614 19.3626 70.0614 19.4875C70.0614 19.6125 70.0645 19.7373 70.0706 19.862C70.0767 19.9868 70.0859 20.1113 70.0981 20.2357C70.1104 20.3599 70.1257 20.4838 70.144 20.6073C70.1624 20.7309 70.1837 20.854 70.2081 20.9765C70.2325 21.0989 70.2598 21.2208 70.2901 21.3419C70.3205 21.4632 70.3538 21.5835 70.3901 21.703C70.4263 21.8226 70.4655 21.9411 70.5075 22.0587C70.5497 22.1763 70.5947 22.2927 70.6425 22.4081C70.6903 22.5235 70.7409 22.6378 70.7942 22.7507C70.8476 22.8636 70.9037 22.9751 70.9626 23.0853C71.0214 23.1954 71.083 23.304 71.1474 23.4112C71.2116 23.5185 71.2784 23.6239 71.3478 23.7276C71.4171 23.8315 71.489 23.9337 71.5634 24.0339C71.6378 24.1343 71.7147 24.2327 71.7938 24.3292C71.8731 24.4259 71.9547 24.5204 72.0386 24.613C72.1224 24.7056 72.2085 24.796 72.2968 24.8843C72.3852 24.9726 72.4756 25.0587 72.5681 25.1425C72.6606 25.2265 72.7553 25.3081 72.8519 25.3872C72.9483 25.4665 73.0468 25.5433 73.1472 25.6177C73.2474 25.6921 73.3495 25.764 73.4534 25.8333C73.5572 25.9026 73.6627 25.9696 73.7698 26.0339C73.877 26.0981 73.9856 26.1597 74.0958 26.2185C74.206 26.2772 74.3175 26.3335 74.4304 26.3868C74.5433 26.4401 74.6575 26.4909 74.7729 26.5388C74.8883 26.5866 75.0048 26.6315 75.1224 26.6735C75.2399 26.7155 75.3585 26.7548 75.478 26.7909C75.5976 26.8272 75.7179 26.8606 75.8392 26.8909C75.9603 26.9212 76.0821 26.9485 76.2046 26.9729C76.3271 26.9974 76.4502 27.0187 76.5737 27.037C76.6973 27.0554 76.8212 27.0706 76.9454 27.0829C77.0698 27.0952 77.1943 27.1044 77.319 27.1104C77.4438 27.1165 77.5686 27.1196 77.6936 27.1196C77.8185 27.1196 77.9433 27.1165 78.0681 27.1104C78.1928 27.1044 78.3174 27.0952 78.4417 27.0829C78.5659 27.0706 78.6898 27.0554 78.8134 27.037C78.937 27.0187 79.06 26.9974 79.1825 26.9729C79.305 26.9485 79.4269 26.9212 79.548 26.8909C79.6692 26.8606 79.7896 26.8272 79.9091 26.7909C80.0286 26.7548 80.1472 26.7155 80.2647 26.6735C80.3823 26.6315 80.4987 26.5866 80.6142 26.5388C80.7296 26.4909 80.8438 26.4401 80.9567 26.3868C81.0696 26.3335 81.1812 26.2772 81.2913 26.2185C81.4015 26.1597 81.5101 26.0981 81.6173 26.0339C81.7245 25.9696 81.83 25.9026 81.9337 25.8333C82.0376 25.764 82.1397 25.6921 82.2399 25.6177C82.3403 25.5433 82.4388 25.4665 82.5353 25.3872C82.6319 25.3081 82.7265 25.2265 82.819 25.1425C82.9114 25.0587 83.0019 24.9726 83.0903 24.8843C83.1786 24.796 83.2647 24.7056 83.3485 24.613C83.4323 24.5204 83.514 24.4259 83.5933 24.3292C83.6726 24.2327 83.7493 24.1343 83.8237 24.0339C83.8981 23.9337 83.97 23.8315 84.0394 23.7276C84.1087 23.6239 84.1755 23.5185 84.2397 23.4112C84.304 23.304 84.3657 23.1954 84.4245 23.0853C84.4833 22.9751 84.5396 22.8636 84.5929 22.7507C84.6462 22.6378 84.6968 22.5235 84.7446 22.4081C84.7925 22.2927 84.8376 22.1763 84.8796 22.0587C84.9216 21.9411 84.9608 21.8226 84.997 21.703C85.0333 21.5835 85.0667 21.4632 85.097 21.3419C85.1272 21.2208 85.1546 21.0989 85.179 20.9765C85.2034 20.854 85.2247 20.7309 85.2431 20.6073C85.2614 20.4838 85.2767 20.3599 85.289 20.2357C85.3013 20.1113 85.3104 19.9868 85.3165 19.862C85.3226 19.7373 85.3257 19.6125 85.3257 19.4875C85.3261 19.3625 85.3233 19.2376 85.3175 19.1127C85.3118 18.9879 85.3028 18.8632 85.2909 18.7388C85.279 18.6144 85.264 18.4903 85.2458 18.3666C85.2278 18.2429 85.2067 18.1198 85.1825 17.9971C85.1585 17.8745 85.1313 17.7525 85.1013 17.6312C85.071 17.5098 85.038 17.3893 85.0019 17.2696C84.9657 17.15 84.9269 17.0313 84.8849 16.9135C84.8429 16.7957 84.7981 16.6791 84.7505 16.5635C84.7028 16.448 84.6522 16.3337 84.5989 16.2206C84.5456 16.1075 84.4895 15.9958 84.4308 15.8855C84.372 15.7752 84.3106 15.6664 84.2464 15.5592C84.1821 15.4519 84.1153 15.3462 84.046 15.2423C83.9767 15.1383 83.9048 15.0361 83.8304 14.9356C83.756 14.8352 83.6792 14.7366 83.5999 14.64C83.5206 14.5433 83.439 14.4487 83.3552 14.3561C83.2712 14.2634 83.1851 14.1729 83.0966 14.0845C83.0081 13.9961 82.9177 13.91 82.8251 13.826C82.7323 13.7421 82.6378 13.6605 82.5411 13.5812C82.4444 13.502 82.346 13.4251 82.2454 13.3507C82.145 13.2763 82.0429 13.2044 81.9388 13.135C81.8349 13.0657 81.7292 12.9989 81.622 12.9347C81.5147 12.8706 81.406 12.8091 81.2956 12.7503C81.1853 12.6915 81.0735 12.6354 80.9604 12.5821C80.8474 12.5288 80.7331 12.4783 80.6177 12.4306C80.5021 12.383 80.3855 12.3382 80.2677 12.2962C80.1499 12.2543 80.0312 12.2153 79.9114 12.1792C79.7917 12.1432 79.6712 12.1101 79.5499 12.0799C79.4286 12.0498 79.3067 12.0227 79.1841 11.9985C79.0614 11.9744 78.9382 11.9533 78.8146 11.9352C78.6909 11.9172 78.5668 11.9022 78.4423 11.8902C78.3179 11.8783 78.1933 11.8694 78.0685 11.8636C77.9436 11.8578 77.8186 11.8551 77.6936 11.8554Z"   fill="#000000" >
</path>
</svg>
