<svg xmlns="http://www.w3.org/2000/svg" xmlns:xlink="http://www.w3.org/1999/xlink" width="80" height="80" viewBox="0 0 80 80" fill="none">
<path d="M28.4134 0.105362C28.7668 -0.0965828 29.2338 -0.00823133 29.8144 0.370416C30.395 0.749066 30.9377 1.59471 31.4426 2.90735C31.5941 3.31124 31.9475 4.18213 32.5028 5.52002C33.0581 6.85791 33.7144 8.25891 34.4717 9.72305C34.8756 10.4803 35.3805 11.2377 35.9863 11.9949C36.5922 12.7522 37.2359 13.4464 37.9174 14.0774C38.599 14.7085 39.2932 15.226 40 15.6299C40.7069 16.0338 41.3631 16.2358 41.969 16.2358C42.4738 16.2358 43.0418 16.0465 43.6729 15.6678C44.304 15.2891 44.9477 14.8222 45.604 14.2668C46.2603 13.7114 46.8662 13.1182 47.4215 12.4871C47.9769 11.8561 48.4565 11.2629 48.8604 10.7075C49.2138 10.2027 49.5924 9.52109 49.9963 8.66281C50.4002 7.80454 50.7914 6.93364 51.1701 6.05013C51.5487 5.16663 51.8643 4.37146 52.1167 3.66465C52.3692 2.95784 52.5459 2.52871 52.6468 2.37725C52.7983 2.02384 53.0507 1.55684 53.4041 0.97625C53.7575 0.395659 54.2119 0.130607 54.7673 0.181093C55.1711 0.181093 55.4488 0.269445 55.6002 0.446146C55.7517 0.622848 55.7769 0.988875 55.676 1.54423C55.6255 1.94812 55.4362 2.59182 55.108 3.47533C54.7798 4.35884 54.4643 5.40643 54.1614 6.6181C53.9595 7.27442 53.7828 8.05695 53.6313 8.9657L53.0255 11.5405C52.8741 12.4493 52.7351 13.2697 52.609 14.0017C52.4827 14.7338 52.3944 15.2513 52.3439 15.5542C52.243 16.1601 52.0915 16.7785 51.8895 17.4095C51.6876 18.0406 51.7129 18.6843 51.9652 19.3406C52.2682 20.1484 52.773 20.7291 53.4798 21.0824C53.7827 21.2844 54.1362 21.4359 54.5401 21.5368C54.3887 22.0922 54.2119 22.6475 54.01 23.2029C53.8585 23.7077 53.6944 24.263 53.5177 24.8689C53.341 25.4748 53.1769 26.1059 53.0255 26.7622C52.8741 27.4185 52.7351 28.0495 52.609 28.6554C52.4827 29.2612 52.3691 29.8418 52.2682 30.3972C52.1168 31.003 52.0158 31.5836 51.9652 32.139C51.7129 31.8866 51.3847 31.773 50.9808 31.7982C50.5769 31.8234 50.1225 31.8865 49.6177 31.9875C49.1128 32.038 48.4187 32.1768 47.5351 32.404C46.6516 32.6312 45.503 32.9467 44.0894 33.3506C43.3826 33.5526 42.8146 33.6787 42.3855 33.7293C41.9564 33.7798 41.5904 33.7798 41.2874 33.7293C40.9845 33.6787 40.6816 33.6156 40.3787 33.5399C40.0758 33.4642 39.7476 33.3759 39.3941 33.2749C39.0408 33.1739 38.5991 33.0603 38.0689 32.9341C37.5388 32.8079 36.9961 32.6691 36.4407 32.5176C35.8854 32.3661 35.3552 32.2273 34.8504 32.1011C34.3455 31.9749 33.9164 31.8866 33.563 31.836C32.8562 31.7855 32.4019 31.8108 32.1998 31.9118C32.0484 32.0127 31.9474 32.1137 31.8969 32.2147L31.594 30.5486C31.493 30.0438 31.3921 29.5263 31.2911 28.9962C31.1902 28.4661 31.0891 27.9234 30.9882 27.368C30.8368 26.8127 30.6727 26.2068 30.4959 25.5505C30.3192 24.8941 30.1552 24.2631 30.0037 23.6573C29.8018 22.9505 29.5998 22.2184 29.3979 21.4611C29.5998 21.4611 29.8018 21.4106 30.0037 21.3096C30.3571 21.1581 30.8115 20.7795 31.3668 20.1737C31.9222 19.6183 32.1494 19.0125 32.0484 18.3562C31.9475 17.6998 31.8465 17.0941 31.7455 16.5387C31.695 16.2358 31.5814 15.6047 31.4047 14.6455C31.228 13.6862 31.026 12.6386 30.7988 11.5027C30.5716 10.3667 30.3444 9.29391 30.1173 8.28414C29.8901 7.27442 29.726 6.56762 29.6251 6.16373C29.4737 5.35595 29.2591 4.53554 28.9813 3.70252C28.7037 2.86949 28.5144 2.32677 28.4134 2.07434C28.3124 1.82191 28.1862 1.48112 28.0348 1.05198C27.8834 0.62285 28.0095 0.307311 28.4134 0.105366L28.4134 0.105362ZM41.969 36.5312C42.6758 36.5817 43.6098 36.4681 44.7709 36.1905C45.9322 35.9128 47.068 35.6225 48.1787 35.3196C49.4914 34.9662 50.8546 34.537 52.2682 34.0322C52.6216 35.2943 53.0507 36.607 53.5555 37.9702C53.9594 39.1313 54.4391 40.4945 54.9944 42.0595C55.5498 43.6246 56.1557 45.2149 56.8119 46.8305C57.2159 47.8907 57.7712 49.2791 58.478 50.9956C59.1848 52.7121 59.8916 54.416 60.5984 56.1073C61.3053 57.7987 61.9742 59.3132 62.6052 60.6511C63.2363 61.989 63.6781 62.7841 63.9305 63.0366C64.183 63.289 64.5868 63.5793 65.1422 63.9075C65.6976 64.2357 65.9752 64.5765 65.9752 64.9298C65.9752 65.5357 65.584 66.0153 64.8014 66.3687C64.0189 66.7221 62.6431 67.1008 60.6741 67.5046C59.6644 67.6561 58.3266 67.8328 56.6605 68.0348C54.9944 68.2367 53.2526 68.426 51.4352 68.6027C49.6177 68.7794 47.8506 68.9309 46.1341 69.0571C44.4176 69.1833 43.0292 69.2464 41.969 69.2464C40.7573 69.2464 39.2175 69.1707 37.3494 69.0192C35.4815 68.8677 33.5756 68.6784 31.6319 68.4512C29.6882 68.2241 27.8959 68.0095 26.2551 67.8076C24.6143 67.6056 23.4153 67.4289 22.658 67.2774C21.5472 67.0755 20.4996 66.823 19.5152 66.5202C18.5307 66.2173 17.988 65.7629 17.887 65.157C17.8365 64.9551 17.887 64.7405 18.0384 64.5134C18.1899 64.2862 18.3919 64.0716 18.6443 63.8696C18.8967 63.6677 19.1491 63.491 19.4016 63.3395C19.654 63.188 19.8812 63.0366 20.0831 62.8852C20.2851 62.7337 20.6385 62.1026 21.1434 60.9919C21.6482 59.8812 22.2035 58.5938 22.8094 57.1297C23.4152 55.6655 24.0337 54.1763 24.6648 52.6616C25.2959 51.147 25.8134 49.9102 26.2173 48.9509C26.8231 47.5877 27.429 46.0353 28.0348 44.2935C28.6406 42.5517 29.2212 40.9236 29.7765 39.409C30.3823 37.642 30.9882 35.8497 31.5941 34.0322C31.8465 34.1332 32.1494 34.2341 32.5028 34.3351C32.7552 34.4361 33.0834 34.5497 33.4873 34.6759C33.8912 34.8021 34.2951 34.9157 34.6989 35.0166C35.1533 35.1681 35.7087 35.3322 36.365 35.5089C37.0213 35.6856 37.7029 35.8497 38.4097 36.0012C39.1166 36.1527 39.7855 36.2788 40.4165 36.3798C41.0476 36.4808 41.5651 36.5312 41.969 36.5312Z"   fill="currentColor" >
</path>
</svg>
