<svg xmlns="http://www.w3.org/2000/svg" xmlns:xlink="http://www.w3.org/1999/xlink" width="24" height="24" viewBox="0 0 24 24" fill="none"><path d="M14.5705 9.563C14.96 7.823 15.232 6.5645 15.387 5.78502C15.777 3.82249 14.7642 2 12.757 2C10.947 2 10.038 2.8995 9.502 4.69752L9.48824 4.75002C9.16649 6.2045 8.67449 7.33201 8.02323 8.13875C8.00214 8.16495 7.9807 8.19085 7.9589 8.21649C7.9371 8.24209 7.91495 8.2674 7.89245 8.29243C7.86998 8.31744 7.84715 8.34214 7.82397 8.36654C7.80081 8.39091 7.77733 8.41501 7.75352 8.43877C7.72968 8.46251 7.70554 8.48593 7.68109 8.50904C7.65665 8.53213 7.63188 8.55488 7.6068 8.57734C7.58172 8.59974 7.55634 8.62182 7.53067 8.64357C7.50501 8.6653 7.47904 8.68667 7.45279 8.7077C7.42652 8.72872 7.39998 8.74939 7.37317 8.76971C7.34634 8.79001 7.31924 8.80993 7.29189 8.8295C7.26454 8.84907 7.23691 8.86827 7.20904 8.88709C7.18115 8.90588 7.153 8.92433 7.12462 8.9424C7.09623 8.96045 7.06762 8.97809 7.03874 8.99537C7.00989 9.01264 6.98078 9.02952 6.95146 9.04599C6.92214 9.06247 6.89259 9.07855 6.86284 9.09425C6.83308 9.10991 6.8031 9.12519 6.77291 9.14005C6.74275 9.15491 6.71238 9.16934 6.68181 9.18338C6.65123 9.19742 6.62048 9.21104 6.58954 9.22423C6.5586 9.23743 6.52748 9.2502 6.49619 9.26258C6.4649 9.27491 6.43345 9.28684 6.40183 9.29834C6.37021 9.30983 6.33845 9.32089 6.30655 9.33153C6.27463 9.34217 6.24257 9.35237 6.21039 9.36212C6.17821 9.37187 6.14589 9.3812 6.11343 9.39008C6.08099 9.39896 6.04844 9.4074 6.01577 9.41539C5.98307 9.42338 5.9503 9.43093 5.91742 9.43806C5.88454 9.44513 5.85159 9.45179 5.81852 9.458C5.78545 9.46421 5.75231 9.46998 5.71909 9.47527C5.68588 9.48057 5.6526 9.48542 5.61925 9.48983C5.5859 9.49423 5.55248 9.49817 5.51903 9.50166C5.48559 9.50513 5.45207 9.50818 5.41853 9.51076C5.38499 9.51334 5.35143 9.51545 5.31784 9.51713C5.28423 9.5188 5.25063 9.52002 5.21699 9.52077L4.7035 9.53176C3.47898 9.55801 2.5 10.566 2.5 11.8008L2.5 19.25C2.5 20.7687 3.72123 22 5.22798 22L14.8965 22C16.8825 22 18.6552 20.7445 19.329 18.8613L21.3375 13.246C21.8485 11.8173 21.114 10.2413 19.6968 9.72601C19.6227 9.6991 19.5477 9.67545 19.4716 9.65509C19.3955 9.63472 19.3187 9.6177 19.2411 9.60406C19.1635 9.5904 19.0855 9.58013 19.0071 9.57329C18.9286 9.56642 18.85 9.563 18.7712 9.563L14.5705 9.563ZM12.756 3.49999C13.676 3.49999 14.1505 4.355 13.9252 5.4905C13.7478 6.3845 13.41 7.93801 12.9123 10.1468C12.8065 10.616 13.1597 11.063 13.6368 11.063L18.7617 11.063C18.9048 11.063 19.0467 11.088 19.1815 11.1372C19.8247 11.3713 20.1582 12.0878 19.9263 12.7373L17.9207 18.3522C17.4605 19.6413 16.2492 20.5 14.8923 20.5L5.23825 20.5C4.55425 20.5 4 19.9403 4 19.25L4 11.8008C4 11.382 4.3315 11.0403 4.74599 11.0315L5.2585 11.0205C5.30554 11.0194 5.35253 11.0177 5.39952 11.0154C5.44652 11.0131 5.49344 11.0101 5.54034 11.0065C5.58723 11.0028 5.63409 10.9986 5.68087 10.9937C5.72767 10.9888 5.77438 10.9833 5.82102 10.9771C5.86764 10.9709 5.91419 10.9641 5.96064 10.9567C6.00709 10.9493 6.05343 10.9412 6.09967 10.9325C6.14591 10.9238 6.19202 10.9145 6.23798 10.9045C6.28396 10.8946 6.3298 10.884 6.37548 10.8728C6.42116 10.8616 6.4667 10.8498 6.51205 10.8373C6.55743 10.8249 6.60262 10.8118 6.64764 10.7982C6.69266 10.7845 6.73748 10.7702 6.78208 10.7553C6.8267 10.7404 6.87112 10.7249 6.91532 10.7089C6.95952 10.6927 7.00349 10.676 7.04725 10.6587C7.09101 10.6415 7.13451 10.6235 7.17775 10.6051C7.22102 10.5866 7.26402 10.5675 7.30675 10.5479C7.3495 10.5282 7.39197 10.508 7.43416 10.4872C7.47634 10.4664 7.51825 10.445 7.55985 10.423C7.60145 10.4011 7.64275 10.3786 7.68374 10.3555C7.72473 10.3324 7.76542 10.3088 7.80576 10.2846C7.84612 10.2604 7.88613 10.2357 7.9258 10.2104C7.96548 10.1852 8.00481 10.1594 8.04379 10.133C8.08277 10.1067 8.12137 10.0798 8.15959 10.0524C8.19784 10.025 8.23572 9.99709 8.2732 9.96868C8.31067 9.94025 8.34777 9.91133 8.38445 9.88189C8.42116 9.85245 8.45744 9.82252 8.49332 9.7921C8.5292 9.76168 8.56466 9.73077 8.5997 9.69938C8.63474 9.66798 8.66934 9.63612 8.70351 9.60378C8.73768 9.57144 8.77141 9.53865 8.80469 9.50541C8.83797 9.47216 8.87078 9.43845 8.90315 9.40433C8.93552 9.37018 8.96739 9.33561 8.9988 9.30059C9.03023 9.26558 9.06116 9.23014 9.09161 9.1943C9.12206 9.15845 9.15203 9.12216 9.18149 9.08551C9.9865 8.087 10.5677 6.758 10.9362 5.10402C11.2992 3.8985 11.7082 3.49999 12.7563 3.49999L12.756 3.49999Z"   fill="#000000" ></path></svg>