<svg t="1742442456291" class="icon" viewBox="0 0 1024 1024" version="1.1" xmlns="http://www.w3.org/2000/svg" p-id="23196" width="200" height="200"><path d="M580.267 650.665c17.066 17.068 17.066 51.201 0 68.268l-204.8 204.802c-17.065 17.065-51.2 17.065-68.267 0L102.4 718.933c-17.066-17.065-17.066-51.198 0-68.268l204.8-204.798c17.065-17.066 51.2-17.066 68.267 0 17.067 17.065 17.066 51.2 0 68.265L320 569.599c-38.4 38.4-38.4 98.136 0 136.533 38.4 38.4 98.133 38.4 136.533 0L512 650.665c17.066-17.066 51.2-17.066 68.267 0zM716.8 100.267l204.8 209.066c17.067 17.066 17.067 51.2 0 68.267L716.8 582.4c-17.065 17.065-51.2 17.065-68.267 0-17.067-17.066-17.066-51.201 0-68.269L704 454.4c38.4-38.4 38.4-98.133 0-136.533-38.4-38.4-98.133-38.4-136.533 0L512 373.333c-17.066 17.066-51.2 17.066-68.267 0-17.067-17.066-17.066-51.2 0-68.267l204.8-204.8c17.067-17.066 51.2-17.066 68.267 0.001zM426.667 659.198l234.667-230.399c17.067-17.067 17.067-42.667 0-59.733-17.066-17.067-42.666-17.067-59.733 0l-234.668 230.4c-17.066 17.066-17.066 42.666 0 59.732 8.533 8.535 17.066 12.801 29.866 12.801s21.333-4.266 29.868-12.801z" p-id="23197"></path></svg>