<svg xmlns="http://www.w3.org/2000/svg" width="24" height="24" viewBox="0 0 24 24" fill="none">
  <path opacity="0.5" d="M12 21H7C5.35 21 4 19.65 4 18V6C4 4.35 5.35 3 7 3H17C18.65 3 20 4.35 20 6V13H18V6C18 5.45 17.55 5 17 5H7C6.45 5 6 5.45 6 6V18C6 18.55 6.45 19 7 19H12V21Z" fill="currentColor"/>
  <path opacity="0.5" d="M16 11H8V13H16V11Z" fill="currentColor"/>
  <path opacity="0.5" d="M16 7H8V9H16V7Z" fill="currentColor"/>
  <path d="M17 21C18.6569 21 20 19.6569 20 18C20 16.3431 18.6569 15 17 15C15.3431 15 14 16.3431 14 18C14 19.6569 15.3431 21 17 21Z" fill="currentColor"/>
</svg>