<svg xmlns="http://www.w3.org/2000/svg" width="24" height="24" viewBox="0 0 24 24" fill="none">
  <path opacity="0.5" d="M16 7H8V9H16V7Z" fill="currentColor"/>
  <path opacity="0.5" d="M17 3H7C5.35 3 4 4.35 4 6V18C4 19.65 5.35 21 7 21H12V19H7C6.45 19 6 18.55 6 18V6C6 5.45 6.45 5 7 5H17C17.55 5 18 5.45 18 6V13H20V6C20 4.35 18.65 3 17 3Z" fill="currentColor"/>
  <path d="M18 15C18 12.79 16.21 11 14 11C11.79 11 10 12.79 10 15C10 17.21 11.79 19 14 19C14.74 19 15.42 18.78 16.02 18.43L18.29 20.7L19.7 19.29L17.43 17.02C17.78 16.43 18 15.74 18 15ZM12 15C12 13.9 12.9 13 14 13C15.1 13 16 13.9 16 15C16 16.1 15.1 17 14 17C12.9 17 12 16.1 12 15Z" fill="currentColor"/>
</svg>