<svg xmlns="http://www.w3.org/2000/svg" xmlns:xlink="http://www.w3.org/1999/xlink" width="16" height="16" viewBox="0 0 16 16" fill="none"><path   fill-rule="evenodd"  fill="currentColor"  d="M7.5 2C7.65603 2 7.78 2.12397 7.78 2.28L7.78 3.14C10.5223 3.28303 12.727 5.4777 12.87 8.22L13.72 8.22C13.876 8.22 14 8.34397 14 8.5C14 8.65603 13.876 8.78 13.72 8.78L12.87 8.78C12.727 11.5223 10.5223 13.727 7.78 13.87L7.78 14.72C7.78 14.876 7.65603 15 7.5 15C7.34397 15 7.22 14.876 7.22 14.72L7.22 13.87C4.4777 13.727 2.28303 11.5223 2.14 8.78L1.28 8.78C1.12397 8.78 1 8.65603 1 8.5C1 8.34397 1.12397 8.22 1.28 8.22L2.14 8.22C2.28303 5.4777 4.4777 3.28303 7.22 3.14L7.22 2.28C7.22 2.12397 7.34397 2 7.5 2ZM7.506 3.6963C10.1595 3.6963 12.306 5.85276 12.306 8.5063C12.306 11.1598 10.1595 13.3063 7.506 13.3063C4.85246 13.3063 2.696 11.1598 2.696 8.5063C2.696 5.85276 4.85246 3.6963 7.506 3.6963ZM7.4973 5.9575C8.90211 5.9575 10.0473 7.09269 10.0473 8.4975C10.0473 9.90231 8.90211 11.0475 7.4973 11.0475C6.09249 11.0475 4.9573 9.90231 4.9573 8.4975C4.9573 7.09269 6.09249 5.9575 7.4973 5.9575ZM7.5027 6.5229C8.59533 6.5229 9.4827 7.41027 9.4827 8.5029C9.4827 9.59553 8.59533 10.4829 7.5027 10.4829C6.41007 10.4829 5.5227 9.59553 5.5227 8.5029C5.5227 7.41027 6.41007 6.5229 7.5027 6.5229Z"></path></svg>