<svg xmlns="http://www.w3.org/2000/svg" width="14" height="14" viewBox="0 0 14 14" fill="none">
  <path opacity="0.5" d="M10.4997 1.75H7.58301C6.62051 1.75 5.83301 2.5375 5.83301 3.5V6.41667H9.33301V7.58333H5.83301V10.5C5.83301 11.4625 6.62051 12.25 7.58301 12.25H10.4997C11.4622 12.25 12.2497 11.4625 12.2497 10.5V3.5C12.2497 2.5375 11.4622 1.75 10.4997 1.75Z" fill="#0065FB"/>
  <path opacity="0.8" d="M5.83382 7.58219H3.73965L4.49798 8.33469C4.72548 8.56219 4.72548 8.93552 4.49798 9.16302C4.38131 9.27385 4.23548 9.33219 4.08382 9.33219C3.93215 9.33219 3.78631 9.27385 3.66965 9.16302L1.91965 7.41302C1.69215 7.18552 1.69215 6.81219 1.91965 6.58469L3.66965 4.83469C3.89715 4.60719 4.27048 4.60719 4.49798 4.83469C4.72548 5.06219 4.72548 5.43552 4.49798 5.66302L3.73965 6.41552H5.83382V7.58219Z" fill="#0065FB"/>
</svg>