<svg xmlns="http://www.w3.org/2000/svg" width="14" height="14" viewBox="0 0 14 14" fill="none">
  <path opacity="0.5" d="M10.5002 1.75H7.5835C6.621 1.75 5.8335 2.5375 5.8335 3.5V6.41667H9.3335V7.58333H5.8335V10.5C5.8335 11.4625 6.621 12.25 7.5835 12.25H10.5002C11.4627 12.25 12.2502 11.4625 12.2502 10.5V3.5C12.2502 2.5375 11.4627 1.75 10.5002 1.75Z" fill="currentColor"/>
  <path opacity="0.8" d="M5.83333 7.58219H3.73916L4.49749 8.33469C4.72499 8.56219 4.72499 8.93552 4.49749 9.16302C4.38083 9.27385 4.23499 9.33219 4.08333 9.33219C3.93166 9.33219 3.78583 9.27385 3.66916 9.16302L1.91916 7.41302C1.69166 7.18552 1.69166 6.81219 1.91916 6.58469L3.66916 4.83469C3.89666 4.60719 4.26999 4.60719 4.49749 4.83469C4.72499 5.06219 4.72499 5.43552 4.49749 5.66302L3.73916 6.41552H5.83333V7.58219Z" fill="currentColor"/>
</svg>