<svg xmlns="http://www.w3.org/2000/svg" width="14" height="14" viewBox="0 0 14 14" fill="none">
  <path opacity="0.5" d="M3.5 11.0833C3.5 12.0458 4.2875 12.8333 5.25 12.8333H8.75C9.7125 12.8333 10.5 12.0458 10.5 11.0833V8.75H3.5V11.0833Z" fill="white"/>
  <path opacity="0.5" d="M8.75 5.83325H5.25C4.2875 5.83325 3.5 6.62075 3.5 7.58325H10.5C10.5 6.62075 9.7125 5.83325 8.75 5.83325Z" fill="white"/>
  <path d="M9.33333 4.08341H9.91667C10.2375 4.08341 10.5 3.82091 10.5 3.50008C10.5 3.17925 10.2375 2.91675 9.91667 2.91675H9.33333V2.33341C9.33333 1.69175 8.80833 1.16675 8.16667 1.16675H5.83333C5.19167 1.16675 4.66667 1.69175 4.66667 2.33341V4.66675H9.33333V4.08341Z" fill="white"/>
</svg>