<svg xmlns="http://www.w3.org/2000/svg" width="14" height="14" viewBox="0 0 14 14" fill="currentColor">
  <path d="M10.5 3.50001H7.8225L6.83083 2.50251C6.72 2.39751 6.57417 2.33334 6.41667 2.33334H3.5C2.5375 2.33334 1.75 3.12084 1.75 4.08334V9.91668C1.75 10.8792 2.5375 11.6667 3.5 11.6667H10.5C11.4625 11.6667 12.25 10.8792 12.25 9.91668V5.25001C12.25 4.28751 11.4625 3.50001 10.5 3.50001ZM4.08333 6.70834C4.08333 6.22418 4.47417 5.83334 4.95833 5.83334C5.4425 5.83334 5.83333 6.22418 5.83333 6.70834C5.83333 7.19251 5.4425 7.58334 4.95833 7.58334C4.47417 7.58334 4.08333 7.19251 4.08333 6.70834ZM9.91667 9.33334H5.25L9.91667 5.83334V9.33334Z" fill="currentColor"/>
</svg>