<svg xmlns="http://www.w3.org/2000/svg" width="14" height="14" viewBox="0 0 14 14" fill="none">
  <path opacity="0.5" d="M2.33333 3.5H3.5V10.5H2.33333C2.0125 10.5 1.75 10.2375 1.75 9.91667V4.08333C1.75 3.7625 2.0125 3.5 2.33333 3.5Z" fill="white"/>
  <path opacity="0.5" d="M10.5 3.5H11.6667C11.9875 3.5 12.25 3.7625 12.25 4.08333V9.91667C12.25 10.2375 11.9875 10.5 11.6667 10.5H10.5V3.5Z" fill="white"/>
  <path d="M9.33333 2.33325H4.66667C4.3445 2.33325 4.08333 2.59442 4.08333 2.91659V11.0833C4.08333 11.4054 4.3445 11.6666 4.66667 11.6666H9.33333C9.6555 11.6666 9.91667 11.4054 9.91667 11.0833V2.91659C9.91667 2.59442 9.6555 2.33325 9.33333 2.33325Z" fill="white"/>
</svg>