<svg xmlns="http://www.w3.org/2000/svg" width="14" height="14" viewBox="0 0 14 14" fill="currentColor">
  <path opacity="0.5" d="M2.91667 1.75H11.0833C11.725 1.75 12.25 2.275 12.25 2.91667V3.5H1.75V2.91667C1.75 2.275 2.275 1.75 2.91667 1.75Z" fill="currentColor"/>
  <path d="M12.25 11.083C12.25 11.7247 11.7247 12.25 11.083 12.25H2.91699C2.27533 12.25 1.75 11.7247 1.75 11.083V4.66699H12.25V11.083ZM6.7373 6.73145C6.35233 6.47503 5.83301 6.74924 5.83301 7.21582V9.70117C5.83328 10.1676 6.35241 10.447 6.7373 10.1846L8.60449 8.94238C8.94825 8.70907 8.94812 8.2022 8.60449 7.97461L6.7373 6.73145Z" fill="currentColor"/>
</svg>