<svg xmlns="http://www.w3.org/2000/svg" width="14" height="14" viewBox="0 0 14 14" fill="currentColor">
  <path opacity="0.5" d="M5.83333 1.75H2.33333C2.01117 1.75 1.75 2.01117 1.75 2.33333V4.66667C1.75 4.98883 2.01117 5.25 2.33333 5.25H5.83333C6.1555 5.25 6.41667 4.98883 6.41667 4.66667V2.33333C6.41667 2.01117 6.1555 1.75 5.83333 1.75Z" fill="currentColor"/>
  <path d="M5.83333 6.25H2.33333C2.01117 6.25 1.75 6.51117 1.75 6.83333V11.5C1.75 11.8222 2.01117 12.0833 2.33333 12.0833H5.83333C6.1555 12.0833 6.41667 11.8222 6.41667 11.5V6.83333C6.41667 6.51117 6.1555 6.25 5.83333 6.25Z" fill="currentColor"/>
  <path opacity="0.5" d="M11.5 8.58331H8C7.67784 8.58331 7.41667 8.84448 7.41667 9.16665V11.5C7.41667 11.8221 7.67784 12.0833 8 12.0833H11.5C11.8222 12.0833 12.0833 11.8221 12.0833 11.5V9.16665C12.0833 8.84448 11.8222 8.58331 11.5 8.58331Z" fill="currentColor"/>
  <path d="M11.5 1.75H8C7.67784 1.75 7.41667 2.01117 7.41667 2.33333V7C7.41667 7.32217 7.67784 7.58333 8 7.58333H11.5C11.8222 7.58333 12.0833 7.32217 12.0833 7V2.33333C12.0833 2.01117 11.8222 1.75 11.5 1.75Z" fill="currentColor"/>
</svg>