<svg xmlns="http://www.w3.org/2000/svg" width="14" height="14" viewBox="0 0 14 14" fill="currentColor">
  <path d="M7 7.58333C5.39 7.58333 4.08334 6.27667 4.08334 4.66667C4.08334 3.05667 5.39 1.75 7 1.75C8.61 1.75 9.91667 3.05667 9.91667 4.66667C9.91667 6.27667 8.61 7.58333 7 7.58333Z" fill="white"/>
  <path opacity="0.5" d="M11.6667 12.25H2.33333C2.0125 12.25 1.75 11.9875 1.75 11.6667C1.75 9.70666 4.05417 8.16666 7 8.16666C9.94583 8.16666 12.25 9.70666 12.25 11.6667C12.25 11.9875 11.9875 12.25 11.6667 12.25Z" fill="white"/>
  <path opacity="0.5" d="M11.375 8.38824C11.2817 8.38824 11.2 8.32991 11.1708 8.24241L10.9667 7.69991L10.4242 7.49574C10.3367 7.46658 10.2783 7.38491 10.2783 7.29158C10.2783 7.19824 10.3367 7.11658 10.4242 7.08741L10.9667 6.88324L11.1708 6.34074C11.235 6.17158 11.515 6.17158 11.5792 6.34074L11.7833 6.88324L12.3258 7.08741C12.4133 7.11658 12.4717 7.19824 12.4717 7.29158C12.4717 7.38491 12.4133 7.46658 12.3258 7.49574L11.7833 7.69991L11.5792 8.24241C11.55 8.32991 11.4683 8.38824 11.375 8.38824Z" fill="white"/>
  <path d="M2 4.66699C1.832 4.66699 1.68 4.56221 1.624 4.401L1.256 3.4015L0.264 3.03072C0.104 2.9743 0 2.82115 0 2.65188C0 2.48261 0.104 2.32946 0.264 2.27304L1.256 1.90226L1.624 0.90276C1.736 0.588403 2.256 0.588403 2.376 0.90276L2.744 1.90226L3.736 2.27304C3.896 2.32946 4 2.48261 4 2.65188C4 2.82115 3.896 2.9743 3.736 3.03072L2.744 3.4015L2.376 4.401C2.32 4.56221 2.168 4.66699 2 4.66699Z" fill="white"/>
</svg>