<svg xmlns="http://www.w3.org/2000/svg" width="14" height="14" viewBox="0 0 14 14" fill="currentColor">
  <path opacity="0.5" fill-rule="evenodd" clip-rule="evenodd" d="M10.9259 12.8333H3.07419C2.37419 12.8333 1.83169 12.2208 1.91919 11.5208L1.95419 11.2292C2.17586 9.47916 3.66336 8.16083 5.42502 8.16083H8.58086C10.3484 8.16083 11.8359 9.47333 12.0517 11.2292L12.0867 11.5208C12.1742 12.215 11.6317 12.8333 10.9317 12.8333H10.9259Z" fill="currentColor"/>
  <path d="M6.99992 7.00002C8.61075 7.00002 9.91659 5.69418 9.91659 4.08335C9.91659 2.47252 8.61075 1.16669 6.99992 1.16669C5.38909 1.16669 4.08325 2.47252 4.08325 4.08335C4.08325 5.69418 5.38909 7.00002 6.99992 7.00002Z" fill="currentColor"/>
</svg>