<svg xmlns="http://www.w3.org/2000/svg" width="14" height="14" viewBox="0 0 14 14" fill=" ">
  <path d="M10.5001 2.33331H2.33341C1.69175 2.33331 1.16675 2.85831 1.16675 3.49998V9.33331C1.16675 9.97498 1.69175 10.5 2.33341 10.5H7.00008V8.16665C7.00008 7.52498 7.52508 6.99998 8.16675 6.99998H11.6667V3.49998C11.6667 2.85831 11.1417 2.33331 10.5001 2.33331Z" fill="currentColor"/>
  <path opacity="0.5" d="M12.2501 8.16669H8.75008C8.42792 8.16669 8.16675 8.42785 8.16675 8.75002V11.0834C8.16675 11.4055 8.42792 11.6667 8.75008 11.6667H12.2501C12.5722 11.6667 12.8334 11.4055 12.8334 11.0834V8.75002C12.8334 8.42785 12.5722 8.16669 12.2501 8.16669Z" fill="currentColor"/>
</svg>