<svg xmlns="http://www.w3.org/2000/svg" width="14" height="14" viewBox="0 0 14 14" fill="none">
<path opacity="0.8" d="M11.0834 1.75H2.91675C1.95425 1.75 1.16675 2.5375 1.16675 3.5V9.33333C1.16675 10.2958 1.95425 11.0833 2.91675 11.0833H5.83342L7.00008 12.25L8.16675 11.0833H11.0834C12.0459 11.0833 12.8334 10.2958 12.8334 9.33333V3.5C12.8334 2.5375 12.0459 1.75 11.0834 1.75ZM4.66675 7C4.34591 7 4.08342 6.7375 4.08342 6.41667C4.08342 6.09583 4.34591 5.83333 4.66675 5.83333C4.98758 5.83333 5.25008 6.09583 5.25008 6.41667C5.25008 6.7375 4.98758 7 4.66675 7ZM7.00008 7C6.67925 7 6.41675 6.7375 6.41675 6.41667C6.41675 6.09583 6.67925 5.83333 7.00008 5.83333C7.32092 5.83333 7.58342 6.09583 7.58342 6.41667C7.58342 6.7375 7.32092 7 7.00008 7ZM9.33342 7C9.01258 7 8.75008 6.7375 8.75008 6.41667C8.75008 6.09583 9.01258 5.83333 9.33342 5.83333C9.65425 5.83333 9.91675 6.09583 9.91675 6.41667C9.91675 6.7375 9.65425 7 9.33342 7Z" fill="black"/>
</svg>