<svg xmlns="http://www.w3.org/2000/svg" width="14" height="14" viewBox="0 0 14 14" fill="currentColor">
  <path opacity="0.5" d="M5.83333 12.25H3.5C2.5375 12.25 1.75 11.4625 1.75 10.5V3.5C1.75 2.5375 2.5375 1.75 3.5 1.75H10.5C11.4625 1.75 12.25 2.5375 12.25 3.5V5.25H11.0833V3.5C11.0833 3.17917 10.8208 2.91667 10.5 2.91667H3.5C3.17917 2.91667 2.91667 3.17917 2.91667 3.5V10.5C2.91667 10.8208 3.17917 11.0833 3.5 11.0833H5.83333V12.25Z" fill="currentColor"/>
  <path opacity="0.5" d="M5.25 6.41666C5.89433 6.41666 6.41667 5.89433 6.41667 5.24999C6.41667 4.60566 5.89433 4.08333 5.25 4.08333C4.60567 4.08333 4.08333 4.60566 4.08333 5.24999C4.08333 5.89433 4.60567 6.41666 5.25 6.41666Z" fill="currentColor"/>
  <path d="M12.25 6.41667H7V7.58334H12.25V6.41667Z" fill="white"/>
  <path d="M12.25 8.75H7V9.91667H12.25V8.75Z" fill="currentColor"/>
  <path d="M12.25 11.0833H7V12.25H12.25V11.0833Z" fill="currentColor"/>
</svg>