<svg xmlns="http://www.w3.org/2000/svg" width="14" height="14" viewBox="0 0 14 14" fill="currentColor">
  <g opacity="0.5">
    <path d="M5.25 12.8333H2.91667C1.95417 12.8333 1.16667 12.0458 1.16667 11.0833V8.75H2.33333V11.0833C2.33333 11.4042 2.59583 11.6667 2.91667 11.6667H5.25V12.8333Z" fill="currentColor"/>
    <path d="M12.8333 5.24999H11.6667V2.91666C11.6667 2.59582 11.4042 2.33332 11.0833 2.33332H8.75V1.16666H11.0833C12.0458 1.16666 12.8333 1.95416 12.8333 2.91666V5.24999Z" fill="currentColor"/>
    <path opacity="0.5" d="M7.58333 2.91667V5.25H6.41667C5.775 5.25 5.25 5.775 5.25 6.41667V7.58333H2.91667C2.275 7.58333 1.75 7.05833 1.75 6.41667V2.91667C1.75 2.275 2.275 1.75 2.91667 1.75H6.41667C7.05833 1.75 7.58333 2.275 7.58333 2.91667Z" fill="currentColor"/>
    <path d="M11.0833 6.41666H7.58333C6.939 6.41666 6.41667 6.93899 6.41667 7.58332V11.0833C6.41667 11.7277 6.939 12.25 7.58333 12.25H11.0833C11.7277 12.25 12.25 11.7277 12.25 11.0833V7.58332C12.25 6.93899 11.7277 6.41666 11.0833 6.41666Z" fill="currentColor"/>
  </g>
</svg>