<svg xmlns="http://www.w3.org/2000/svg" width="14" height="14" viewBox="0 0 14 14" fill="none">
  <path opacity="0.5" d="M6.41667 12.25H3.5C2.5375 12.25 1.75 11.4625 1.75 10.5V3.5C1.75 2.5375 2.5375 1.75 3.5 1.75H10.5C11.4625 1.75 12.25 2.5375 12.25 3.5V5.25H11.0833V3.5C11.0833 3.17917 10.8208 2.91667 10.5 2.91667H3.5C3.17917 2.91667 2.91667 3.17917 2.91667 3.5V10.5C2.91667 10.8208 3.17917 11.0833 3.5 11.0833H6.41667V12.25Z" fill="currentColor"/>
  <path opacity="0.5" d="M5.25 6.41666C5.89433 6.41666 6.41667 5.89433 6.41667 5.24999C6.41667 4.60566 5.89433 4.08333 5.25 4.08333C4.60567 4.08333 4.08333 4.60566 4.08333 5.24999C4.08333 5.89433 4.60567 6.41666 5.25 6.41666Z" fill="currentColor"/>
  <path d="M9.91667 9.33334C10.7221 9.33334 11.375 8.68042 11.375 7.87501C11.375 7.06959 10.7221 6.41667 9.91667 6.41667C9.11125 6.41667 8.45833 7.06959 8.45833 7.87501C8.45833 8.68042 9.11125 9.33334 9.91667 9.33334Z" fill="currentColor"/>
  <path fill-rule="evenodd" clip-rule="evenodd" d="M8.9425 9.91667C8.19 9.91667 7.58333 10.5233 7.58333 11.2758C7.58333 11.8125 8.02083 12.25 8.5575 12.25H11.2817C11.8183 12.25 12.2558 11.8125 12.2558 11.2758C12.2558 10.5233 11.6492 9.91667 10.8967 9.91667H8.9425Z" fill="currentColor"/>
</svg>