<svg xmlns="http://www.w3.org/2000/svg" width="14" height="14" viewBox="0 0 14 14" fill="none">
  <path opacity="0.5" d="M9.91667 1.75H4.08333C3.12083 1.75 2.33333 2.5375 2.33333 3.5V10.5C2.33333 11.4625 3.12083 12.25 4.08333 12.25H7V11.0833H4.08333C3.7625 11.0833 3.5 10.8208 3.5 10.5V5.19167C4.64333 4.95833 5.54167 4.06 5.775 2.91667H9.91667C10.2375 2.91667 10.5 3.17917 10.5 3.5V7.58333H11.6667V3.5C11.6667 2.5375 10.8792 1.75 9.91667 1.75Z" fill="currentColor"/>
  <path d="M10.5 8.75008C10.5 7.46091 9.45583 6.41675 8.16667 6.41675C6.8775 6.41675 5.83333 7.46091 5.83333 8.75008C5.83333 10.0392 6.8775 11.0834 8.16667 11.0834C8.59833 11.0834 8.995 10.9551 9.345 10.7509L10.6692 12.0751L11.4917 11.2526L10.1675 9.92841C10.3717 9.58425 10.5 9.18175 10.5 8.75008ZM7 8.75008C7 8.10841 7.525 7.58341 8.16667 7.58341C8.80833 7.58341 9.33333 8.10841 9.33333 8.75008C9.33333 9.39175 8.80833 9.91675 8.16667 9.91675C7.525 9.91675 7 9.39175 7 8.75008Z" fill="currentColor"/>
</svg>