<svg xmlns="http://www.w3.org/2000/svg" width="14" height="14" viewBox="0 0 14 14" fill="currentColor">
  <path opacity="0.5" d="M5.83333 12.25H3.5C2.5375 12.25 1.75 11.4625 1.75 10.5V3.5C1.75 2.5375 2.5375 1.75 3.5 1.75H10.5C11.4625 1.75 12.25 2.5375 12.25 3.5V5.83333H11.0833V3.5C11.0833 3.17917 10.8208 2.91667 10.5 2.91667H3.5C3.17917 2.91667 2.91667 3.17917 2.91667 3.5V10.5C2.91667 10.8208 3.17917 11.0833 3.5 11.0833H5.83333V12.25Z" fill="currentColor"/>
  <path opacity="0.5" d="M5.25 6.41667C5.89433 6.41667 6.41667 5.89433 6.41667 5.25C6.41667 4.60567 5.89433 4.08334 5.25 4.08334C4.60567 4.08334 4.08333 4.60567 4.08333 5.25C4.08333 5.89433 4.60567 6.41667 5.25 6.41667Z" fill="currentColor"/>
  <path fill-rule="evenodd" clip-rule="evenodd" d="M7 12.0925V7.15167C7 6.69667 7.49583 6.41667 7.88083 6.65L11.9992 9.1175C12.3783 9.345 12.3783 9.89333 11.9992 10.115L7.88083 12.5825C7.49 12.8158 7 12.5358 7 12.0808V12.0925Z" fill="currentColor"/>
</svg>