<svg xmlns="http://www.w3.org/2000/svg" xmlns:xlink="http://www.w3.org/1999/xlink" width="12" height="12" viewBox="0 0 12 12" fill="none"><path d="M6.63083 7.06144L6.63083 7.90472C5.8853 7.64273 5.05822 7.75679 4.41259 8.21065C3.767 8.66452 3.38323 9.40168 3.38339 10.1877L2.57153 10.1873C2.57129 9.18878 3.03592 8.24637 3.83 7.63482C4.62408 7.02324 5.65818 6.81141 6.63083 7.06102L6.63083 7.06144Z"   fill="#FFFFFF" ></path><path d="M5.8233 1.71436C7.16896 1.71436 8.2533 2.79677 8.2533 4.13436C8.2533 5.47194 7.16896 6.55436 5.8233 6.55436C4.47764 6.55436 3.3833 5.47194 3.3833 4.13436C3.3833 2.79677 4.47764 1.71436 5.8233 1.71436ZM5.8151 2.52126C6.7122 2.52126 7.4451 3.23953 7.4451 4.13126C7.4451 5.02298 6.7122 5.75126 5.8151 5.75126C4.918 5.75126 4.1951 5.02298 4.1951 4.13126C4.1951 3.23953 4.918 2.52126 5.8151 2.52126Z" fill-rule="evenodd"  fill="#FFFFFF" ></path><g opacity="0.5"><path d="M8.99874 10.2859L7.27637 8.57384L8.99874 6.86182L9.57272 7.43278L8.83026 8.17035L10.2859 8.17035L10.2859 8.97733L8.83026 8.97733L9.57272 9.71491L8.99874 10.2859Z"   fill="#FFFFFF" ></path></g></svg>