<svg xmlns="http://www.w3.org/2000/svg" width="14" height="14" viewBox="0 0 14 14" fill="none">
  <path opacity="0.5" d="M9.91667 12.25H4.08333C3.12083 12.25 2.33333 11.4625 2.33333 10.5V3.5C2.33333 2.5375 3.12083 1.75 4.08333 1.75H7V2.91667H4.08333C3.7625 2.91667 3.5 3.17917 3.5 3.5V10.5C3.5 10.8208 3.7625 11.0833 4.08333 11.0833H9.91667C10.2375 11.0833 10.5 10.8208 10.5 10.5V6.41667H11.6667V10.5C11.6667 11.4625 10.8792 12.25 9.91667 12.25Z" fill="currentColor"/>
  <path d="M9.33333 8.75H4.66667V9.91667H9.33333V8.75Z" fill="currentColor"/>
  <path d="M9.33333 6.4165H4.66667V7.58317H9.33333V6.4165Z" fill="currentColor"/>
  <path d="M9.91667 5.25C10.8832 5.25 11.6667 4.4665 11.6667 3.5C11.6667 2.5335 10.8832 1.75 9.91667 1.75C8.95017 1.75 8.16667 2.5335 8.16667 3.5C8.16667 4.4665 8.95017 5.25 9.91667 5.25Z" fill="currentColor"/>
</svg>