<svg xmlns="http://www.w3.org/2000/svg" width="14" height="14" viewBox="0 0 14 14" fill="none">
  <path opacity="0.5" d="M9.33333 4.66666H4.66667V5.83332H9.33333V4.66666Z" fill="currentColor"/>
  <path opacity="0.5" d="M5.83333 12.25H3.5C2.5375 12.25 1.75 11.4625 1.75 10.5V3.5C1.75 2.5375 2.5375 1.75 3.5 1.75H10.5C11.4625 1.75 12.25 2.5375 12.25 3.5V7H11.0833V3.5C11.0833 3.17917 10.8208 2.91667 10.5 2.91667H3.5C3.17917 2.91667 2.91667 3.17917 2.91667 3.5V10.5C2.91667 10.8208 3.17917 11.0833 3.5 11.0833H5.83333V12.25Z" fill="currentColor"/>
  <path d="M11.375 8.16668H10.0333L9.5375 7.66501C9.47916 7.61251 9.40916 7.58334 9.3275 7.58334H7.86916C7.385 7.58334 6.99416 7.97418 6.99416 8.45834V11.375C6.99416 11.8533 7.385 12.25 7.86916 12.25H11.3692C11.8533 12.25 12.2442 11.8533 12.2442 11.375V9.04168C12.2442 8.55751 11.8533 8.16668 11.3692 8.16668H11.375Z" fill="currentColor"/>
</svg>