<svg xmlns="http://www.w3.org/2000/svg" width="14" height="14" viewBox="0 0 14 14" fill="none">
  <path d="M5.33333 2V4.77778H2V3.11111C2 2.5 2.5 2 3.11111 2H5.33333Z" fill="black"/>
  <path opacity="0.5" d="M11.9999 5.88892H6.44434V8.11114H11.9999V5.88892Z" fill="black"/>
  <path opacity="0.5" d="M5.33333 5.88892H2V8.11114H5.33333V5.88892Z" fill="black"/>
  <path d="M5.33333 9.22223V12H3.11111C2.5 12 2 11.5 2 10.8889V9.22223H5.33333Z" fill="black"/>
  <path d="M11.9999 9.22223V10.8889C11.9999 11.5 11.4999 12 10.8888 12H6.44434V9.22223H11.9999Z" fill="black"/>
  <path d="M11.9999 3.11111V4.77778H6.44434V2H10.8888C11.4999 2 11.9999 2.5 11.9999 3.11111Z" fill="black"/>
</svg>