<svg xmlns="http://www.w3.org/2000/svg" xmlns:xlink="http://www.w3.org/1999/xlink" width="14" height="14" viewBox="0 0 14 14" fill="none"><path d="M7.00016 7.58333C5.39016 7.58333 4.0835 6.27667 4.0835 4.66667C4.0835 3.05667 5.39016 1.75 7.00016 1.75C8.61016 1.75 9.91683 3.05667 9.91683 4.66667C9.91683 6.27667 8.61016 7.58333 7.00016 7.58333Z"  style="mix-blend-mode:normal" fill="#FFFFFF" ></path><g opacity="0.5"><path d="M11.6667 12.2503L2.33333 12.2503C2.0125 12.2503 1.75 11.9878 1.75 11.667C1.75 9.70699 4.05417 8.16699 7 8.16699C9.94583 8.16699 12.25 9.70699 12.25 11.667C12.25 11.9878 11.9875 12.2503 11.6667 12.2503Z"  style="mix-blend-mode:normal" fill="#FFFFFF" ></path></g><g opacity="0.5"><path d="M11.375 8.38824C11.2817 8.38824 11.2 8.32991 11.1708 8.24241L10.9667 7.69991L10.4242 7.49574C10.3367 7.46658 10.2783 7.38491 10.2783 7.29158C10.2783 7.19824 10.3367 7.11658 10.4242 7.08741L10.9667 6.88324L11.1708 6.34074C11.235 6.17158 11.515 6.17158 11.5792 6.34074L11.7833 6.88324L12.3258 7.08741C12.4133 7.11658 12.4717 7.19824 12.4717 7.29158C12.4717 7.38491 12.4133 7.46658 12.3258 7.49574L11.7833 7.69991L11.5792 8.24241C11.55 8.32991 11.4683 8.38824 11.375 8.38824Z"  style="mix-blend-mode:normal" fill="#FFFFFF" ></path></g><path d="M2 4.66699C1.832 4.66699 1.68 4.56221 1.624 4.401L1.256 3.4015L0.264 3.03072C0.104 2.9743 0 2.82115 0 2.65188C0 2.48261 0.104 2.32946 0.264 2.27304L1.256 1.90226L1.624 0.90276C1.736 0.588403 2.256 0.588403 2.376 0.90276L2.744 1.90226L3.736 2.27304C3.896 2.32946 4 2.48261 4 2.65188C4 2.82115 3.896 2.9743 3.736 3.03072L2.744 3.4015L2.376 4.401C2.32 4.56221 2.168 4.66699 2 4.66699Z"  style="mix-blend-mode:normal" fill="#FFFFFF" ></path></svg>