<svg xmlns="http://www.w3.org/2000/svg" width="14" height="14" viewBox="0 0 14 14" fill="none">
  <path d="M2.07083 4.60235L6.7375 6.93568C6.81917 6.97652 6.90667 6.99985 7 6.99985C7.09333 6.99985 7.18083 6.97652 7.2625 6.93568L11.9292 4.60235C12.1275 4.50318 12.25 4.29902 12.25 4.08318C12.25 3.86735 12.1275 3.65735 11.9292 3.56402L7.2625 1.23068C7.09917 1.14902 6.90667 1.14902 6.74333 1.23068L2.07083 3.56402C1.8725 3.66318 1.75 3.86735 1.75 4.08318C1.75 4.29902 1.8725 4.50902 2.07083 4.60235Z" fill="white"/>
  <path opacity="0.5" d="M11.4042 6.48075L7 8.68575L2.59583 6.48075C2.31 6.33492 1.95417 6.45159 1.81417 6.74325C1.67417 7.03492 1.785 7.37909 2.07667 7.52492L6.74333 9.85825C6.825 9.89908 6.9125 9.92242 7.00583 9.92242C7.09917 9.92242 7.18667 9.89908 7.26833 9.85825L11.935 7.52492C12.2208 7.37909 12.3375 7.02909 12.1975 6.74325C12.0575 6.45742 11.7017 6.33492 11.4158 6.48075H11.4042Z" fill="white"/>
  <path opacity="0.5" d="M11.4042 9.3975L7 11.6025L2.59583 9.3975C2.31 9.25167 1.95417 9.36833 1.81417 9.66C1.66833 9.94583 1.785 10.2958 2.07667 10.4417L6.74333 12.775C6.825 12.8158 6.9125 12.8392 7.00583 12.8392C7.09917 12.8392 7.18667 12.8158 7.26833 12.775L11.935 10.4417C12.2208 10.2958 12.3375 9.94583 12.1975 9.66C12.0517 9.37417 11.7017 9.2575 11.4158 9.3975H11.4042Z" fill="white"/>
</svg>