<svg xmlns="http://www.w3.org/2000/svg" width="14" height="14" viewBox="0 0 14 14" fill="none">
  <path d="M12.25 6.41675H7V7.58341H12.25V6.41675Z" fill="currentColor"/>
  <path d="M12.25 8.75H7V9.91667H12.25V8.75Z" fill="currentColor"/>
  <path d="M12.25 11.0833H7V12.2499H12.25V11.0833Z" fill="currentColor"/>
  <path opacity="0.5" d="M10.5 1.75H3.5C2.5375 1.75 1.75 2.5375 1.75 3.5V10.5C1.75 11.4625 2.5375 12.25 3.5 12.25H5.83333V11.0833H3.5C3.17917 11.0833 2.91667 10.8208 2.91667 10.5V6.41667H4.66667C5.62917 6.41667 6.41667 5.62917 6.41667 4.66667V2.91667H10.5C10.8208 2.91667 11.0833 3.17917 11.0833 3.5V5.25H12.25V3.5C12.25 2.5375 11.4625 1.75 10.5 1.75ZM5.25 4.66667C5.25 4.9875 4.9875 5.25 4.66667 5.25H2.91667V3.5C2.91667 3.17917 3.17917 2.91667 3.5 2.91667H5.25V4.66667Z" fill="currentColor"/>
</svg>