<svg xmlns="http://www.w3.org/2000/svg" width="14" height="14" viewBox="0 0 14 14" fill="currentColor">
  <path d="M8.16667 4.08331H3.5C2.5375 4.08331 1.75 4.87081 1.75 5.83331V10.5C1.75 11.4625 2.5375 12.25 3.5 12.25H8.16667C9.12917 12.25 9.91667 11.4625 9.91667 10.5V5.83331C9.91667 4.87081 9.12917 4.08331 8.16667 4.08331ZM8.16667 6.99998H6.41667V10.5H5.25V6.99998H3.5V5.83331H8.16667V6.99998Z" fill="currentColor"/>
  <path opacity="0.5" d="M12.25 10.5H11.0833V3.5C11.0833 3.17917 10.8208 2.91667 10.5 2.91667H3.5V1.75H10.5C11.4625 1.75 12.25 2.5375 12.25 3.5V10.5Z" fill="currentColor"/>
</svg>