<svg xmlns="http://www.w3.org/2000/svg" width="14" height="14" viewBox="0 0 14 14" fill="currentColor">
  <g opacity="0.5">
    <path opacity="0.5" d="M4.66667 12.25H3.5C2.5375 12.25 1.75 11.4625 1.75 10.5V3.5C1.75 2.5375 2.5375 1.75 3.5 1.75H10.5C11.4625 1.75 12.25 2.5375 12.25 3.5V4.08333H11.0833V3.5C11.0833 3.17917 10.8208 2.91667 10.5 2.91667H3.5C3.17917 2.91667 2.91667 3.17917 2.91667 3.5V10.5C2.91667 10.8208 3.17917 11.0833 3.5 11.0833H4.66667V12.25Z" fill="currentColor"/>
    <path d="M11.0833 5.25H7C6.35567 5.25 5.83333 5.77233 5.83333 6.41667V11.0833C5.83333 11.7277 6.35567 12.25 7 12.25H11.0833C11.7277 12.25 12.25 11.7277 12.25 11.0833V6.41667C12.25 5.77233 11.7277 5.25 11.0833 5.25Z" fill="currentColor"/>
  </g>
</svg>