<svg xmlns="http://www.w3.org/2000/svg" width="14" height="14" viewBox="0 0 14 14" fill="none">
  <path d="M2.91667 5.83333H1.75V3.5C1.75 2.5375 2.5375 1.75 3.5 1.75H7V2.91667H3.5C3.17917 2.91667 2.91667 3.17917 2.91667 3.5V5.83333Z" fill="currentColor"/>
  <path d="M10.5 12.25H7.58333V11.0833H10.5C10.8208 11.0833 11.0833 10.8208 11.0833 10.5V8.75H12.25V10.5C12.25 11.4625 11.4625 12.25 10.5 12.25Z" fill="currentColor"/>
  <g opacity="0.5">
    <path d="M9.91667 4.66667C10.7221 4.66667 11.375 4.01375 11.375 3.20833C11.375 2.40292 10.7221 1.75 9.91667 1.75C9.11125 1.75 8.45833 2.40292 8.45833 3.20833C8.45833 4.01375 9.11125 4.66667 9.91667 4.66667Z" fill="currentColor"/>
    <path fill-rule="evenodd" clip-rule="evenodd" d="M8.9425 5.25C8.19 5.25 7.58333 5.85667 7.58333 6.60917C7.58333 7.14583 8.02083 7.58333 8.5575 7.58333H11.2817C11.8183 7.58333 12.2558 7.14583 12.2558 6.60917C12.2558 5.85667 11.6492 5.25 10.8967 5.25H8.9425Z" fill="currentColor"/>
  </g>
  <path d="M4.08333 9.33334C4.88875 9.33334 5.54167 8.68042 5.54167 7.87501C5.54167 7.06959 4.88875 6.41667 4.08333 6.41667C3.27792 6.41667 2.625 7.06959 2.625 7.87501C2.625 8.68042 3.27792 9.33334 4.08333 9.33334Z" fill="currentColor"/>
  <path fill-rule="evenodd" clip-rule="evenodd" d="M3.10917 9.91667C2.35667 9.91667 1.75 10.5233 1.75 11.2758C1.75 11.8125 2.1875 12.25 2.72417 12.25H5.44833C5.985 12.25 6.4225 11.8125 6.4225 11.2758C6.4225 10.5233 5.81583 9.91667 5.06333 9.91667H3.10917Z" fill="currentColor"/>
</svg>