<svg xmlns="http://www.w3.org/2000/svg" width="14" height="14" viewBox="0 0 14 14" fill="none">
  <path d="M9.91675 12.8333H2.91675C1.94841 12.8333 1.16675 12.0516 1.16675 11.0833V4.08331C1.16675 3.11498 1.94841 2.33331 2.91675 2.33331H7.00008V4.08331C7.00008 5.69331 8.30675 6.99998 9.91675 6.99998H11.6667V11.0833C11.6667 12.0516 10.8851 12.8333 9.91675 12.8333Z" fill="#0065FB"/>
  <path opacity="0.5" d="M10.5001 5.83335C11.7887 5.83335 12.8334 4.78868 12.8334 3.50002C12.8334 2.21136 11.7887 1.16669 10.5001 1.16669C9.21142 1.16669 8.16675 2.21136 8.16675 3.50002C8.16675 4.78868 9.21142 5.83335 10.5001 5.83335Z" fill="#0065FB"/>
</svg>