<svg xmlns="http://www.w3.org/2000/svg" width="14" height="14" viewBox="0 0 14 14" fill="none">
  <path d="M3.26086 3.15575L2.11169 4.30492C1.90752 4.50909 1.88419 4.83575 2.05919 5.06908L3.50586 6.99992V11.0833C3.50586 11.4041 3.76836 11.6666 4.08919 11.6666H9.92252C10.2434 11.6666 10.5059 11.4041 10.5059 11.0833V6.99992L11.9525 5.06908C12.1275 4.83575 12.1042 4.50909 11.9 4.30492L10.7509 3.15575C10.22 2.62492 9.50836 2.33325 8.76169 2.33325L7.65919 3.06825C7.26836 3.33075 6.75502 3.33075 6.36419 3.06825L5.26169 2.33325C4.51502 2.33325 3.79752 2.63075 3.27252 3.15575H3.26086Z" fill="white"/>
</svg>