<svg xmlns="http://www.w3.org/2000/svg" width="14" height="14" viewBox="0 0 14 14" fill="currentColor">
  <g opacity="0.5">
    <path opacity="0.5" d="M3.20833 3.49999C3.6925 3.49999 4.08333 3.89083 4.08333 4.37499C4.08333 4.85916 3.6925 5.25 3.20833 5.25C2.72417 5.25 2.33333 4.85916 2.33333 4.37499C2.33333 3.89083 2.72417 3.49999 3.20833 3.49999ZM3.20833 2.33333C2.0825 2.33333 1.16667 3.24916 1.16667 4.37499C1.16667 5.50083 2.0825 6.41666 3.20833 6.41666C4.33417 6.41666 5.25 5.50083 5.25 4.37499C5.25 3.24916 4.33417 2.33333 3.20833 2.33333Z" fill="currentColor"/>
    <path d="M12.7808 2.67166C12.6875 2.46749 12.4775 2.33333 12.25 2.33333H9.85248C9.35665 2.33333 8.88415 2.54333 8.55165 2.91083L4.14165 7.81083C4.49748 7.99166 4.78915 8.27749 4.98165 8.62166L5.92082 7.58333H8.74998C8.91915 7.58333 9.08248 7.50749 9.19332 7.37916L12.6933 3.29583C12.8392 3.12083 12.8742 2.88166 12.7808 2.67166Z" fill="currentColor"/>
    <path d="M3.20833 8.74999C3.6925 8.74999 4.08333 9.14083 4.08333 9.62499C4.08333 10.1092 3.6925 10.5 3.20833 10.5C2.72417 10.5 2.33333 10.1092 2.33333 9.62499C2.33333 9.14083 2.72417 8.74999 3.20833 8.74999ZM3.20833 7.58333C2.0825 7.58333 1.16667 8.49916 1.16667 9.62499C1.16667 10.7508 2.0825 11.6667 3.20833 11.6667C4.33417 11.6667 5.25 10.7508 5.25 9.62499C5.25 8.49916 4.33417 7.58333 3.20833 7.58333Z" fill="currentColor"/>
    <path opacity="0.5" d="M12.25 11.6667H9.8525C9.35667 11.6667 8.88417 11.4508 8.55167 11.0833L7.175 9.7475C6.94167 9.52583 6.93584 9.1525 7.16334 8.925C7.385 8.69167 7.75834 8.68583 7.98584 8.91333L9.39167 10.2783C9.53167 10.43 9.68334 10.5 9.8525 10.5H10.8383L10.0858 9.7475C9.85834 9.52 9.85834 9.1525 10.0858 8.925C10.3133 8.6975 10.6808 8.6975 10.9083 8.925L12.6583 10.675C12.8275 10.8442 12.8742 11.095 12.7867 11.3108C12.6992 11.5267 12.4833 11.6725 12.25 11.6725V11.6667Z" fill="currentColor"/>
  </g>
</svg>