<svg xmlns="http://www.w3.org/2000/svg" width="14" height="14" viewBox="0 0 14 14" fill="currentColor">
  <path opacity="0.5" d="M8.16667 1.75V2.91667H5.25V10.2083C5.25 9.3975 4.77167 8.69167 4.08333 8.37083V2.33333C4.08333 2.0125 4.34583 1.75 4.66667 1.75H8.16667Z" fill="white"/>
  <path opacity="0.5" d="M12.25 5.83334V10.2083C12.25 9.39751 11.7717 8.69168 11.0833 8.37084V5.83334H12.25Z" fill="white"/>
  <path d="M11.3333 4.66678C11.1653 4.66678 11.0133 4.56199 10.9573 4.40078L10.5893 3.40129L9.59733 3.03051C9.43733 2.97408 9.33333 2.82093 9.33333 2.65167C9.33333 2.4824 9.43733 2.32925 9.59733 2.27282L10.5893 1.90204L10.9573 0.902547C11.0693 0.588189 11.5893 0.588189 11.7093 0.902547L12.0773 1.90204L13.0693 2.27282C13.2293 2.32925 13.3333 2.4824 13.3333 2.65167C13.3333 2.82093 13.2293 2.97408 13.0693 3.03051L12.0773 3.40129L11.7093 4.40078C11.6533 4.56199 11.5013 4.66678 11.3333 4.66678Z" fill="white"/>
  <path d="M3.20833 12.25C2.0825 12.25 1.16667 11.3342 1.16667 10.2083C1.16667 9.08249 2.0825 8.16666 3.20833 8.16666C4.33417 8.16666 5.25 9.08249 5.25 10.2083C5.25 11.3342 4.33417 12.25 3.20833 12.25Z" fill="white"/>
  <path d="M10.2083 12.25C9.0825 12.25 8.16667 11.3342 8.16667 10.2083C8.16667 9.08249 9.0825 8.16666 10.2083 8.16666C11.3342 8.16666 12.25 9.08249 12.25 10.2083C12.25 11.3342 11.3342 12.25 10.2083 12.25Z" fill="white"/>
</svg>