<svg xmlns="http://www.w3.org/2000/svg" xmlns:xlink="http://www.w3.org/1999/xlink" width="24" height="24" viewBox="0 0 24 24" fill="none">
<path d="M11.1884 3.42993L12.8215 3.42993C13.2724 3.42993 13.6379 3.79536 13.6379 4.24605L13.6379 7.31471L15.0628 7.31471C15.3937 7.31446 15.6921 7.51388 15.8182 7.81974C15.9444 8.12561 15.8733 8.47732 15.6384 8.71025L12.5806 11.7626C12.2621 12.079 11.7478 12.079 11.4293 11.7626L8.3715 8.71025C8.13652 8.47732 8.06545 8.12561 8.19162 7.81974C8.31771 7.51388 8.61617 7.31446 8.94709 7.31471L10.3719 7.31471L10.3719 4.24605C10.3719 3.79536 10.7375 3.42993 11.1884 3.42993ZM3.42993 12.4102C3.42993 11.2836 4.34349 10.3703 5.47045 10.3703L7.25781 10.3703C7.80646 10.361 8.29101 10.7259 8.4331 11.2557C8.83674 12.8973 10.3091 14.0514 11.9999 14.0514C13.6908 14.0514 15.1631 12.8973 15.5668 11.2557C15.7089 10.7259 16.1934 10.361 16.7421 10.3703L18.2397 10.3703C19.6559 10.3703 20.5699 11.2843 20.5699 12.4102L20.5699 18.5301C20.5699 19.6568 19.6564 20.5701 18.5294 20.5701L5.47045 20.5701C4.34349 20.5701 3.42993 19.6568 3.42993 18.5301L3.42993 12.4102Z" fill-rule="evenodd"  fill="#FFFFFF" >
</path>
</svg>
