<?xml version="1.0" encoding="UTF-8"?>
<svg width="16px" height="17px" viewBox="0 0 16 17" version="1.1" xmlns="http://www.w3.org/2000/svg" xmlns:xlink="http://www.w3.org/1999/xlink">
    <title>其他@2x</title>
    <g id="V1.0" stroke="none" stroke-width="1" fill="none" fill-rule="evenodd">
        <g id="首页" transform="translate(-46, -352)" fill-rule="nonzero">
            <g id="其他" transform="translate(46, 352.8463)">
                <rect id="矩形" fill="currentColor" opacity="0" x="0" y="0" width="16" height="16"></rect>
                <path d="M4.25953125,1.91999983 L4.64,1.91999983 C5.34551396,1.9197513 6.02221701,2.19984132 6.52117865,2.69862713 C7.0201403,3.19741295 7.30046875,3.87401724 7.30046875,4.57953125 L7.30046875,7.61953142 L4.26046875,7.61953142 C3.55495479,7.61977995 2.87825174,7.33968993 2.3792901,6.84090412 C1.88032845,6.3421183 1.6,5.66551401 1.6,4.96 L1.6,4.57953125 C1.6,3.1107127 2.7907127,1.91999983 4.25953125,1.91999983 L4.25953125,1.91999983 Z M4.25953125,8.37953125 L7.29953142,8.37953125 L7.29953142,11.4195313 C7.29977993,12.1249911 7.01973281,12.8016468 6.52101458,13.3005994 C6.02229636,13.7995521 5.34577236,14.0799172 4.6403125,14.08 L4.25953125,14.08 C2.7907127,14.08 1.59999983,12.8892873 1.59999983,11.4204688 L1.59999983,11.04 C1.5997513,10.334486 1.87984132,9.65778299 2.37862713,9.15882135 C2.87741295,8.6598597 3.55401724,8.37953125 4.25953125,8.37953125 Z M10.72,1.92 L11.1004688,1.92 C12.5692873,1.92 13.7600002,3.1107127 13.7600002,4.57953125 L13.7600002,4.96 C13.7602487,5.66551396 13.4801587,6.34221701 12.9813729,6.84117865 C12.482587,7.3401403 11.8059828,7.62046875 11.1004688,7.62046875 L8.06046858,7.62046875 L8.06046858,4.58046875 C8.06022007,3.87500893 8.34026719,3.19835325 8.83898542,2.69940059 C9.33770364,2.20044794 10.0142276,1.92008285 10.7196875,1.92 L10.72,1.92 L10.72,1.92 Z M8.05953125,8.37953108 L11.0995312,8.37953108 C11.8052077,8.37928245 12.4820529,8.65950114 12.9810415,9.15848975 C13.4800301,9.65747837 13.7602488,10.3343236 13.7600002,11.04 L13.7600002,11.4204688 C13.7600002,12.8892873 12.5692873,14.0800002 11.1004687,14.0800002 L10.72,14.0800002 C10.014486,14.0802487 9.33778299,13.8001587 8.83882135,13.3013729 C8.3398597,12.802587 8.05953125,12.1259828 8.05953125,11.4204688 L8.05953125,8.37953108 L8.05953125,8.37953108 Z" id="形状" fill="currentColor"></path>
            </g>
        </g>
    </g>
</svg>