<svg xmlns="http://www.w3.org/2000/svg" xmlns:xlink="http://www.w3.org/1999/xlink" width="21" height="18.00146484375" viewBox="0 0 21 18.00146484375" fill="none"><path d="M18 0L3 0C1.344 0 0 1.344 0 3L0 12C0 13.656 1.344 15 3 15L5.9955 15L5.9955 16.533C5.9955 17.0955 6.3105 17.601 6.8145 17.85C7.023 17.9505 7.245 18.0015 7.4655 18.0015C7.782 18.0015 8.0955 17.898 8.358 17.697L11.8605 15L18 15C19.656 15 21 13.656 21 12L21 3C21 1.344 19.656 0 18 0ZM19.5 12C19.5 12.8295 18.8295 13.5 18 13.5L11.6115 13.4985C11.4465 13.4985 11.286 13.5525 11.1555 13.653L7.494 16.5345L7.494 14.2485C7.494 13.8345 7.158 13.5 6.7455 13.5L3 13.5C2.1705 13.5 1.5 12.8295 1.5 12L1.5 3C1.5 2.1705 2.1705 1.5 3 1.5L18 1.5C18.8295 1.5 19.5 2.1705 19.5 3L19.5 12ZM6 6C5.1705 6 4.5 6.6705 4.5 7.5C4.5 8.3295 5.1705 9 6 9C6.8295 9 7.5 8.3295 7.5 7.5C7.5 6.6705 6.8295 6 6 6ZM10.5 6C9.6705 6 9 6.6705 9 7.5C9 8.3295 9.6705 9 10.5 9C11.3295 9 12 8.3295 12 7.5C12 6.6705 11.3295 6 10.5 6ZM15 6C14.1705 6 13.5 6.6705 13.5 7.5C13.5 8.3295 14.1705 9 15 9C15.8295 9 16.5 8.3295 16.5 7.5C16.5 6.6705 15.8295 6 15 6Z"   fill="#272636" ></path></svg>