<svg xmlns="http://www.w3.org/2000/svg" width="14" height="14" viewBox="0 0 14 14" fill="none">
  <path d="M11 2.51969V8.57593C11 8.75703 10.9404 8.91676 10.8223 9.05737C10.7042 9.19798 10.5547 9.30709 10.3748 9.3847C10.1938 9.46232 10.014 9.51969 9.83625 9.55793C9.65746 9.59505 9.49059 9.6153 9.33347 9.6153C9.17635 9.6153 9.00948 9.59618 8.83069 9.55793C8.6519 9.52081 8.47203 9.46232 8.29216 9.3847C8.11228 9.30709 7.96275 9.19798 7.84464 9.05737C7.72653 8.91676 7.66694 8.75591 7.66694 8.57593C7.66694 8.39595 7.72653 8.2351 7.84464 8.09449C7.96275 7.95388 8.11228 7.84589 8.29216 7.76715C8.47311 7.68954 8.65299 7.63217 8.83069 7.59393C9.00948 7.55681 9.17635 7.53656 9.33347 7.53656C9.69863 7.53656 10.0313 7.60742 10.3336 7.74691V4.84589L6.33306 6.12711V9.96063C6.33306 10.1406 6.27347 10.3015 6.15536 10.4421C6.03725 10.5827 5.88771 10.6907 5.70784 10.7694C5.52689 10.847 5.34701 10.9044 5.16931 10.9426C4.99052 10.9798 4.82365 11 4.66653 11C4.50941 11 4.34254 10.9809 4.16375 10.9426C3.98497 10.9055 3.80509 10.847 3.62522 10.7694C3.44535 10.6918 3.29581 10.5827 3.17771 10.4421C3.0596 10.3015 3 10.1406 3 9.96063C3 9.77953 3.0596 9.6198 3.17771 9.47919C3.29581 9.33858 3.44535 9.2306 3.62522 9.15186C3.80618 9.07424 3.98605 9.01687 4.16375 8.97863C4.34254 8.94151 4.50941 8.92126 4.66653 8.92126C5.03169 8.92126 5.36435 8.99213 5.66667 9.13161V3.90326C5.66667 3.7919 5.69917 3.68954 5.76527 3.5973C5.83137 3.50506 5.91697 3.44094 6.02099 3.40495L10.3542 2.02137C10.3954 2.00675 10.4441 2 10.4994 2C10.6381 2 10.7573 2.04949 10.8537 2.15073C10.9523 2.25309 11 2.37683 11 2.51969Z" fill="currentColor"/>
</svg>