<svg xmlns="http://www.w3.org/2000/svg" xmlns:xlink="http://www.w3.org/1999/xlink" width="12.860054016113281" height="17.1300048828125" viewBox="0 0 12.860054016113281 17.1300048828125" fill="none">
<path d="M10.7671 0.0413936L4.5633 1.42704C3.77961 1.60194 3.22084 2.29553 3.21685 3.09841L3.21685 12.0841C3.21634 12.419 2.98319 12.7085 2.65616 12.7805L1.72034 12.9876C0.773968 13.1767 0.0706548 13.9749 0.00236821 14.9376C-0.0286244 15.5889 0.245679 16.2173 0.744262 16.6375C1.24284 17.0576 1.90873 17.2214 2.54543 17.0804L3.35973 16.8983C4.31561 16.6892 4.99848 15.8447 5.00259 14.8662L5.00259 6.18061C5.00311 5.84572 5.23626 5.55623 5.56329 5.48411L10.2064 4.45203C10.4176 4.4056 10.6384 4.45716 10.8071 4.59249C10.9757 4.72782 11.0739 4.93218 11.0743 5.14853L11.0743 10.3555C11.0737 10.6904 10.8406 10.9799 10.5135 11.0519L9.5778 11.2591C8.63734 11.4462 7.9357 12.2354 7.85983 13.1912C7.82884 13.8425 8.10314 14.4708 8.60172 14.891C9.1003 15.3112 9.76619 15.475 10.4028 15.334L11.2172 15.1519C12.1731 14.9428 12.8559 14.0983 12.8601 13.1198L12.8601 1.71636C12.8597 1.1951 12.6225 0.702269 12.2156 0.376628C11.8086 0.0509864 11.2758 -0.0723496 10.7671 0.0413936Z"   fill="currentColor" >
</path>
</svg>
