<svg xmlns="http://www.w3.org/2000/svg" xmlns:xlink="http://www.w3.org/1999/xlink" width="13.999395370483398" height="14" viewBox="0 0 13.999395370483398 14" fill="none"><g opacity="0.5"><g opacity="0"><rect x="0.072265625" y="0.07080078125" width="13.8582763671875" height="13.8582763671875"  style="mix-blend-mode:normal" fill="#000000" ></rect></g><path fill-rule="evenodd"  fill="rgba(0, 0, 0, 1)" style="mix-blend-mode:normal" d="M11.9006 6.30051C13.0603 5.1408 13.0603 3.26053 11.9006 2.10082C10.7409 0.941109 8.86065 0.941112 7.70093 2.10083L2.10136 7.7004C0.941646 8.86011 0.941643 10.7404 2.10135 11.9001C3.26107 13.0598 5.14133 13.0598 6.30105 11.9001L11.9006 6.30051ZM8.40803 2.80793C9.17723 2.03874 10.4243 2.03874 11.1935 2.80793C11.9627 3.57712 11.9627 4.82422 11.1935 5.59341L5.59394 11.193C4.82475 11.9622 3.57765 11.9622 2.80846 11.193C2.03927 10.4238 2.03927 9.17669 2.80846 8.4075L8.40803 2.80793Z"></path><path fill-rule="evenodd"  fill="rgba(0, 0, 0, 1)" style="mix-blend-mode:normal" d="M7.70046 11.8992C8.86018 13.0589 10.7404 13.0589 11.9002 11.8992C13.0599 10.7394 13.0599 8.85918 11.9002 7.69947L6.30058 2.0999C5.14086 0.940181 3.2606 0.940178 2.10089 2.09989C0.941175 3.2596 0.941177 5.13987 2.10089 6.29958L7.70046 11.8992ZM11.193 8.40657C11.9622 9.17576 11.9622 10.4229 11.1931 11.1921C10.4239 11.9612 9.17676 11.9612 8.40757 11.192L2.808 5.59248C2.03881 4.82329 2.0388 3.57618 2.80799 2.807C3.57718 2.03781 4.82429 2.03781 5.59348 2.807L11.193 8.40657Z"></path><path fill-rule="evenodd"  fill="rgba(0, 0, 0, 1)" style="mix-blend-mode:normal" d="M6.99953 11.1994L11.1992 6.99976L6.99953 2.80007L2.79984 6.99976L6.99953 11.1994ZM6.99954 4.21428L9.78501 6.99975L6.99953 9.78523L4.21406 6.99976L6.99954 4.21428Z"></path><circle cx="8.9801025390625" cy="6.9998779296875" transform="rotate(90.00000366707562 7.990234375 6.010009765625)" r="0.9898681640625"  style="mix-blend-mode:normal" fill="#000000" ></circle></g></svg>