<svg xmlns="http://www.w3.org/2000/svg" xmlns:xlink="http://www.w3.org/1999/xlink" width="14" height="14" viewBox="0 0 14 14" fill="none"><g opacity="0.5"><g opacity="0"><rect x="0" y="0" width="14" height="14"  style="mix-blend-mode:normal" fill="#000000" ></rect></g><path fill-rule="evenodd"  fill="rgba(0, 0, 0, 1)" style="mix-blend-mode:normal" d="M10 1L4 1C2.34315 1 1 2.34315 1 4L1 10C1 11.6569 2.34315 13 4 13L10 13C11.6569 13 13 11.6569 13 10L13 4C13 2.34315 11.6569 1 10 1ZM2 4C2 2.89543 2.89543 2 4 2L10 2C11.1046 2 12 2.89543 12 4L12 10C12 11.1046 11.1046 12 10 12L4 12C2.89543 12 2 11.1046 2 10L2 4Z"></path><path   fill="rgba(0, 0, 0, 1)" style="mix-blend-mode:normal" d="M4 9.5L10 9.5L10 10.5L4 10.5L4 9.5Z"></path><path fill-rule="evenodd"  fill="rgba(0, 0, 0, 1)" style="mix-blend-mode:normal" d="M7 6.33L9 7.44333L10 8L10 1L4 1L4 8L5 7.44333L7 6.33ZM5 6.29883L5 2L9 2L9 6.29883L7 5.1855L5 6.29883Z"></path></g></svg>