<svg t="1739764099825" class="icon" viewBox="0 0 1024 1024" version="1.1" xmlns="http://www.w3.org/2000/svg" p-id="5828" width="256" height="256"><path d="M483.744 579.949l0.424-0.418c14.09-13.64 36.569-13.5 50.487 0.418l0.418 0.424c13.64 14.09 13.5 36.569-0.418 50.487l-57.2 57.202 210.67 210.67 210.607-210.606-210.671-210.671-57.165 57.165-0.425 0.418c-14.09 13.64-36.569 13.5-50.487-0.418-14.059-14.059-14.059-36.853 0-50.912l61.053-61.052 0.784-0.772c26.028-25.198 67.557-24.936 93.27 0.777l218.434 218.435 0.772 0.784c25.198 26.029 24.946 67.557-0.766 93.27L735.15 953.53l-0.784 0.772c-26.03 25.198-67.558 24.936-93.27-0.777L422.66 735.091l-0.771-0.784c-25.199-26.03-24.947-67.558 0.766-93.27l61.088-61.088z m249.975-191.644c-5.144-19.205 6.255-38.944 25.46-44.088l105.785-28.333 0.576-0.15c19.023-4.765 38.42 6.597 43.512 25.61 5.144 19.206-6.255 38.945-25.46 44.089l-105.785 28.333-0.576 0.149c-19.023 4.766-38.42-6.597-43.512-25.61zM387.574 734.449c19.014 5.093 30.376 24.49 25.61 43.512l-0.149 0.576-28.333 105.785c-5.144 19.205-24.883 30.604-44.088 25.46-19.013-5.092-30.376-24.489-25.61-43.511l0.15-0.577 28.332-105.784c5.144-19.205 24.883-30.604 44.088-25.46z m-95.707-53.227l0.424-0.418c14.09-13.64 36.57-13.5 50.487 0.418 14.06 14.059 14.06 36.852 0 50.911l-92.042 92.043-0.425 0.417c-14.089 13.64-36.569 13.501-50.487-0.417-14.059-14.059-14.059-36.853 0-50.912l92.043-92.042z m481.397-481.398c14.06-14.059 36.853-14.059 50.912 0 13.918 13.918 14.057 36.398 0.417 50.487l-0.417 0.425-92.043 92.042c-14.059 14.06-36.852 14.06-50.911 0-13.919-13.918-14.058-36.397-0.418-50.487l0.418-0.424 92.042-92.043zM288.85 70.47c25.713-25.712 67.241-25.964 93.27-0.766l0.784 0.772L601.34 288.909c25.713 25.713 25.975 67.242 0.777 93.27l-0.772 0.784-61.052 61.053c-14.06 14.059-36.853 14.059-50.912 0-13.918-13.918-14.058-36.398-0.418-50.487l0.418-0.425 57.165-57.165-210.67-210.67-210.607 210.606 210.67 210.67 57.202-57.2c13.918-13.919 36.397-14.058 50.487-0.418l0.424 0.418c13.919 13.918 14.058 36.398 0.418 50.487l-0.418 0.424-61.088 61.088c-25.712 25.713-67.24 25.965-93.27 0.766l-0.784-0.771L70.475 382.904c-25.713-25.712-25.975-67.24-0.777-93.27l0.771-0.784L288.85 70.47z m393.805 44.479c19.014 5.092 30.376 24.49 25.61 43.512l-0.15 0.576-28.332 105.785c-5.144 19.205-24.883 30.604-44.088 25.46-19.013-5.092-30.376-24.49-25.61-43.512l0.15-0.576 28.332-105.785c5.144-19.205 24.883-30.604 44.088-25.46zM114.217 683.386c-5.143-19.205 6.256-38.944 25.461-44.088l105.785-28.333 0.576-0.15c19.022-4.765 38.42 6.597 43.512 25.61 5.143 19.206-6.256 38.945-25.46 44.089l-105.785 28.332-0.577 0.15c-19.022 4.766-38.42-6.597-43.512-25.61z" fill="currentColor" p-id="5829"></path></svg>