<svg viewBox="0 0 48 48" focusable="false" data-icon="brush-bold" width="1em" height="1em" fill="currentColor" aria-hidden="true"><path d="M35.07 4.05a5.77 5.77 0 018.13 8.13L23.94 34.5c-.14 2.23-1.2 4.44-3.4 6.3-2.74 2.3-6.42 2.78-9.19 2.74a21.7 21.7 0 01-3.68-.37 12.75 12.75 0 01-1.78-.48h-.01c-.1-.05-.47-.2-.8-.52-.31-.32-.47-.7-.5-.8h-.01a12.7 12.7 0 01-.48-1.78c-.2-.98-.35-2.27-.37-3.69-.04-2.75.44-6.43 2.73-9.17 1.85-2.23 4.07-3.3 6.31-3.43L35.07 4.05zm-9.22 22.11L21.1 21.4l-3.47 2.99a12.25 12.25 0 015.24 5.24l3-3.47zm2.62-3.03l11.7-13.56a1.77 1.77 0 00-2.49-2.5l-13.56 11.7 4.35 4.36zM13.72 27.3c-1.3-.14-2.77.27-4.2 1.98-1.37 1.65-1.83 4.14-1.8 6.56a17.73 17.73 0 00.33 3.17c.02.1.1.17.19.19l.18.03c.77.15 1.83.29 3 .3 2.41.04 4.9-.42 6.53-1.8 1.71-1.44 2.12-2.91 1.99-4.22a7.02 7.02 0 00-2.13-4.08 7.06 7.06 0 00-4.09-2.13z"></path></svg>