<svg xmlns="http://www.w3.org/2000/svg" width="14" height="14" viewBox="0 0 14 14" fill="none">
  <path d="M7 1.75C4.10083 1.75 1.75 4.10083 1.75 7C1.75 9.89917 4.10083 12.25 7 12.25C9.89917 12.25 12.25 9.89917 12.25 7C12.25 4.10083 9.89917 1.75 7 1.75ZM9.04167 4.66667C9.52583 4.66667 9.91667 5.0575 9.91667 5.54167C9.91667 6.02583 9.52583 6.41667 9.04167 6.41667C8.5575 6.41667 8.16667 6.02583 8.16667 5.54167C8.16667 5.0575 8.5575 4.66667 9.04167 4.66667ZM4.95833 4.66667C5.4425 4.66667 5.83333 5.0575 5.83333 5.54167C5.83333 6.02583 5.4425 6.41667 4.95833 6.41667C4.47417 6.41667 4.08333 6.02583 4.08333 5.54167C4.08333 5.0575 4.47417 4.66667 4.95833 4.66667ZM7 10.7917C5.22667 10.7917 3.79167 9.35667 3.79167 7.58333H10.2083C10.2083 9.35667 8.77333 10.7917 7 10.7917Z" fill="white"/>
</svg>