<svg xmlns="http://www.w3.org/2000/svg" xmlns:xlink="http://www.w3.org/1999/xlink" width="22" height="22" viewBox="0 0 22 22" fill="none"><g opacity="0.9"><path d="M5.9 3.9L5.9 19.1L15.4 19.1L15.4 3.9L5.9 3.9ZM4.95 2L16.35 2C16.8747 2 17.3 2.42533 17.3 2.95L17.3 20.05C17.3 20.5747 16.8747 21 16.35 21L4.95 21C4.42533 21 4 20.5747 4 20.05L4 2.95C4 2.42533 4.42533 2 4.95 2ZM10.65 16.25C11.1747 16.25 11.6 16.6753 11.6 17.2C11.6 17.7247 11.1747 18.15 10.65 18.15C10.1253 18.15 9.7 17.7247 9.7 17.2C9.7 16.6753 10.1253 16.25 10.65 16.25Z"   fill="#000000" ></path></g></svg>