<?xml version="1.0" encoding="UTF-8"?><svg version="1.1" width="28px" height="28px" viewBox="0 0 28.0 28.0" xmlns="http://www.w3.org/2000/svg" xmlns:xlink="http://www.w3.org/1999/xlink"><defs><clipPath id="i0"><path d="M1735,0 L1735,1080 L0,1080 L0,0 L1735,0 Z"></path></clipPath><clipPath id="i1"><path d="M18.5968109,0 C22.6833713,0 26,3.3166287 26,7.40318907 C26,7.87699317 25.5854214,8.29157175 25.1116173,8.29157175 C24.6378132,8.29157175 24.2232346,7.87699317 24.2232346,7.40318907 C24.2232346,4.32346241 21.6765376,1.77676538 18.5968109,1.77676538 L7.40318907,1.77676538 C4.32346241,1.77676538 1.77676538,4.32346241 1.77676538,7.40318907 L1.77676538,18.5968109 C1.77676538,21.6765376 4.32346241,24.2232346 7.40318907,24.2232346 L18.5968109,24.2232346 C21.6765376,24.2232346 24.2232346,21.6765376 24.2232346,18.5968109 L24.2232346,14.3917995 C24.2232346,13.9179954 24.6378132,13.5034169 25.1116173,13.5034169 C25.5854214,13.5034169 26,13.9179954 26,14.3917995 L26,18.5968109 C26,22.6833713 22.6833713,26 18.5968109,26 L7.40318907,26 C3.3166287,26 0,22.6833713 0,18.5968109 L0,7.40318907 C0,3.3166287 3.3166287,0 7.40318907,0 L18.5968109,0 Z M25.1116173,9.77220957 C25.5854214,9.77220957 26,10.1867882 26,10.6605923 L26,11.1936219 C26,11.667426 25.5854214,12.0820046 25.1116173,12.0820046 C24.6378132,12.0820046 24.2232346,11.667426 24.2232346,11.1936219 L24.2232346,10.6605923 C24.2232346,10.1867882 24.6378132,9.77220957 25.1116173,9.77220957 Z"></path></clipPath><clipPath id="i2"><path d="M20.26144,6.79545455 L25.696191,11.4045455 C26.0585077,11.7 26.1188938,12.2909091 25.7565771,12.6454545 C25.5754187,12.8818182 25.2734881,13 25.0319436,13 C24.8507853,13 24.6092408,12.9409091 24.4280824,12.7636364 L18.9933314,8.15454545 C18.4498563,7.68181818 17.5440644,7.68181818 17.0005893,8.21363636 L15.9740253,9.15909091 C15.6117085,9.51363636 15.0078473,9.45454545 14.7059167,9.1 C14.3436,8.74545455 14.4039861,8.15454545 14.7663028,7.85909091 L15.853253,6.85454545 C17.0609755,5.73181818 18.9933314,5.67272727 20.26144,6.79545455 Z M8.84846282,7.91818182 L10.8412049,9.69090909 C11.38468,10.2227273 12.2904718,10.2227273 12.8339469,9.69090909 C13.1962636,9.33636364 13.8001249,9.39545455 14.1020555,9.75 C14.4643722,10.1045455 14.4039861,10.6954545 14.0416693,10.9909091 C12.7735608,12.1727273 10.8412049,12.1727273 9.57309629,10.9909091 L7.58035425,9.21818182 C7.03687915,8.74545455 6.19147344,8.68636364 5.64799834,9.15909091 L1.48135589,12.6454545 C1.30019753,12.7636364 1.05865304,12.8818182 0.87749467,12.8818182 C0.63595018,12.8818182 0.394405691,12.7636364 0.213247323,12.5863636 C-0.0886832885,12.2318182 -0.0886832885,11.6409091 0.334019568,11.3454545 L4.50066201,7.85909091 C5.76877058,6.79545455 7.64074038,6.85454545 8.84846282,7.91818182 Z M7.64074038,0 C9.04471772,0 10.1769575,1.10795455 10.1769575,2.48181818 C10.1769575,3.85568182 9.04471772,4.96363636 7.64074038,4.96363636 C6.23676303,4.96363636 5.10452324,3.85568182 5.10452324,2.48181818 C5.10452324,1.10795455 6.23676303,0 7.64074038,0 Z"></path></clipPath></defs><g transform="translate(-415.0 -567.0)"><g clip-path="url(#i0)"><g transform="translate(415.0 567.0)"><g transform="translate(1.0 1.0)"><g clip-path="url(#i1)"><polygon points="0,0 26,0 26,26 0,26 0,0" stroke="none" fill="#333333"></polygon></g><g transform="translate(0.0 5.0)"><g clip-path="url(#i2)"><polygon points="2.77555756e-17,0 26,0 26,13 2.77555756e-17,13 2.77555756e-17,0" stroke="none" fill="#333333"></polygon></g></g></g></g></g></g></svg>