<svg xmlns="http://www.w3.org/2000/svg" xmlns:xlink="http://www.w3.org/1999/xlink" width="72" height="72" viewBox="0 0 72 72" fill="none">
<path d="M36.0005 61.71C21.8014 61.71 10.2905 50.1992 10.2905 36C10.2905 21.8009 21.8014 10.29 36.0005 10.29C42.8193 10.29 49.3589 12.9988 54.1801 17.8205C59.0017 22.6416 61.7105 29.1812 61.7105 36C61.7105 50.1992 50.1996 61.71 36.0005 61.71ZM33.06 24.39C32.4831 23.9486 31.695 23.8812 31.05 24.21C30.405 24.5391 30 25.2144 30 25.95L30 43.05C30 43.7857 30.405 44.461 31.05 44.79C31.695 45.1189 32.4831 45.0515 33.06 44.61L44.25 36.06C44.7294 35.6932 45 35.1114 45 34.5C45 33.8887 44.7294 33.3069 44.25 32.94L33.06 24.39Z" fill-rule="evenodd"  fill="currentColor" >
</path>
</svg>
