<svg xmlns="http://www.w3.org/2000/svg" width="14" height="14" viewBox="0 0 14 14" fill="none">
  <path d="M11.1245 2.87323C10.0745 1.8174 8.61616 1.16406 7.00033 1.16406C3.78033 1.16406 1.16699 3.7774 1.16699 6.9974C1.16699 8.6074 1.82033 10.0657 2.87616 11.1216C3.93199 12.1774 5.39033 12.8307 7.00033 12.8307C8.61033 12.8307 10.0745 12.1774 11.1245 11.1216C12.1803 10.0657 12.8337 8.6074 12.8337 6.9974C12.8337 5.3874 12.1803 3.92906 11.1245 2.87323ZM7.42616 9.73323C7.29199 9.85573 7.13449 9.91406 6.94783 9.91406C6.76116 9.91406 6.60949 9.8499 6.47533 9.7274C6.34699 9.6049 6.27699 9.4474 6.27699 9.2549C6.27699 9.0624 6.34699 8.9049 6.47533 8.7824C6.60366 8.6599 6.76116 8.60156 6.94783 8.60156C7.13449 8.60156 7.30366 8.6599 7.43199 8.7824C7.56033 8.91073 7.62449 9.06823 7.62449 9.2549C7.62449 9.44156 7.55449 9.61073 7.42616 9.73323ZM8.55783 6.69406C8.47616 6.78156 8.23116 7.00906 7.87533 7.32406C7.74699 7.42906 7.64783 7.55156 7.57783 7.69156C7.50199 7.84323 7.46699 8.00073 7.46699 8.17573V8.3449H6.43449V8.17573C6.43449 7.84906 6.48699 7.58656 6.59783 7.37656C6.70283 7.16073 7.00033 6.83406 7.53116 6.36156L7.61866 6.25656C7.74699 6.09906 7.81699 5.92406 7.81699 5.74323C7.81699 5.5099 7.74699 5.32323 7.61283 5.1774C7.48449 5.04906 7.28616 4.97906 7.03533 4.97906C6.70866 4.97906 6.48699 5.07823 6.35283 5.27073C6.23033 5.4399 6.16616 5.6849 6.16616 6.00573V6.0699H5.14533V6.00573C5.14533 5.39323 5.31449 4.9324 5.67033 4.59406C6.02033 4.25573 6.49866 4.08073 7.08783 4.08073C7.61866 4.08073 8.05033 4.22656 8.37116 4.5124C8.69783 4.79823 8.86116 5.1949 8.86116 5.69073C8.86116 6.0874 8.76199 6.42573 8.55783 6.69406Z" fill="currentColor"/>
</svg>