<svg xmlns="http://www.w3.org/2000/svg" width="24" height="24" viewBox="0 0 24 24" fill="none">
  <path opacity="0.5" d="M12 2C17.5228 2 22 6.47725 22 12C22 17.5227 17.5228 22 12 22C10.1911 22.0027 8.41556 21.5125 6.86426 20.582C6.70797 20.4894 6.55131 20.3975 6.39426 20.3062L3.94726 20.9737C3.38726 21.1262 2.87376 20.6125 3.02651 20.0527L3.69301 17.6085C3.43501 17.1705 3.26601 16.8767 3.18201 16.72C2.40378 15.2686 1.99766 13.6469 2.00001 12C2.00001 6.47725 6.47726 2 12 2ZM12 15.75C11.8011 15.75 11.6103 15.829 11.4697 15.9697C11.329 16.1103 11.25 16.3011 11.25 16.5C11.25 16.6989 11.329 16.8897 11.4697 17.0303C11.6103 17.171 11.8011 17.25 12 17.25C12.1989 17.25 12.3897 17.171 12.5303 17.0303C12.671 16.8897 12.75 16.6989 12.75 16.5C12.75 16.3011 12.671 16.1103 12.5303 15.9697C12.3897 15.829 12.1989 15.75 12 15.75ZM11.941 7C10.8063 7 9.76726 7.56625 9.16101 8.48625C9.00166 8.72786 8.87568 8.9899 8.78651 9.26525C8.72531 9.45454 8.74181 9.6604 8.83239 9.83753C8.92297 10.0147 9.08021 10.1485 9.26951 10.2097C9.4588 10.2709 9.66466 10.2544 9.84179 10.1639C10.0189 10.0733 10.1528 9.91604 10.214 9.72675C10.2613 9.5805 10.3285 9.44075 10.4138 9.3115C10.7438 8.8105 11.3135 8.5 11.941 8.5C12.944 8.5 13.75 9.2875 13.75 10.25C13.75 11.2125 12.9438 12 11.9408 12C11.7418 12 11.5511 12.079 11.4104 12.2197C11.2698 12.3603 11.1908 12.5511 11.1908 12.75V14.25C11.1908 14.4489 11.2698 14.6397 11.4104 14.7803C11.5511 14.921 11.7418 15 11.9408 15C12.1397 15 12.3304 14.921 12.4711 14.7803C12.6117 14.6397 12.6908 14.4489 12.6908 14.25V13.416C14.155 13.0827 15.25 11.7945 15.25 10.25C15.25 8.451 13.7645 7 11.9408 7H11.941Z" fill="currentColor"/>
</svg>