<svg xmlns="http://www.w3.org/2000/svg" width="16" height="16" viewBox="0 0 16 16" fill="none">
  <rect opacity="0.1" width="16" height="16" rx="8" fill="white"/>
  <path d="M6 6.79999C6 6.39999 6.08 6.07999 6.16 5.87999C6.24 5.67999 6.4 5.47999 6.6 5.31999C6.8 5.11999 7 4.99999 7.28 4.91999C7.52 4.83999 7.76 4.79999 8.04 4.79999C8.6 4.79999 9.04 4.95999 9.44 5.27999C9.8 5.59999 10 5.99999 10 6.51999C10 6.75999 9.92 6.95999 9.84 7.15999C9.76 7.35999 9.56 7.59999 9.24 7.87999C8.92 8.15999 8.8 8.35999 8.68 8.47999C8.56 8.59999 8.52 8.75999 8.44 8.91999C8.36 9.07999 8.4 9.19999 8.4 9.59999H7.6C7.6 9.19999 7.64 8.99999 7.68 8.79999C7.72 8.59999 7.8 8.43999 7.92 8.27999C8.04 8.11999 8.16 7.91999 8.44 7.63999C8.72 7.35999 8.92 7.15999 9 7.03999C9.08 6.91999 9.16 6.71999 9.16 6.43999C9.16 6.15999 9.04 5.95999 8.84 5.75999C8.64 5.55999 8.36 5.43999 8 5.43999C7.2 5.43999 6.8 5.99999 6.8 6.79999H6ZM8.4 11.2H7.6V10.4H8.4V11.2Z" fill="white"/>
</svg>