<svg xmlns="http://www.w3.org/2000/svg" xmlns:xlink="http://www.w3.org/1999/xlink" width="24" height="24" viewBox="0 0 24 24" fill="none">
<path d="M12.868 6.75079L16.7933 11.0545L5.14949 11.0545C4.67486 11.0545 4.29004 11.4717 4.29004 11.9945C4.29004 12.5135 4.67795 12.9343 5.14949 12.9343L16.7933 12.9343L12.868 17.2381C12.53 17.6087 12.5252 18.204 12.8622 18.5736C13.197 18.9406 13.7355 18.9453 14.0781 18.5698L19.4653 12.663C19.802 12.2937 19.8078 11.7015 19.4653 11.326L14.0781 5.41914C13.7414 5.04992 13.1993 5.04567 12.8622 5.4153C12.5275 5.78231 12.5263 6.37609 12.868 6.75079Z"   fill="#022541" >
</path>
<defs>
<mask id="mask-178_887" style="mask-type:alpha" maskUnits="userSpaceOnUse">
<path d="M19.4653 11.326L14.0781 5.41914C13.7414 5.04992 13.1993 5.04567 12.8622 5.4153C12.5275 5.78231 12.5263 6.37609 12.868 6.75079L16.7933 11.0545L5.14949 11.0545C4.67486 11.0545 4.29004 11.4717 4.29004 11.9945C4.29004 12.5135 4.67795 12.9343 5.14949 12.9343L16.7933 12.9343L12.868 17.2381C12.53 17.6087 12.5252 18.204 12.8622 18.5736C13.197 18.9406 13.7355 18.9453 14.0781 18.5698L19.4653 12.663C19.802 12.2937 19.8078 11.7015 19.4653 11.326Z"   fill="#000000" >
</path>
</mask>
</defs>
</svg>
