<svg xmlns="http://www.w3.org/2000/svg" width="14" height="14" viewBox="0 0 14 14" fill="currentColor">
  <path opacity="0.5" d="M2.33366 6.99999C2.33366 6.67782 2.07249 6.41666 1.75033 6.41666C1.42816 6.41666 1.16699 6.67782 1.16699 6.99999V9.33332C1.16699 9.65549 1.42816 9.91666 1.75033 9.91666C2.07249 9.91666 2.33366 9.65549 2.33366 9.33332V6.99999Z" fill="white"/>
  <path opacity="0.5" d="M12.8337 6.99999C12.8337 6.67782 12.5725 6.41666 12.2503 6.41666C11.9282 6.41666 11.667 6.67782 11.667 6.99999V9.33332C11.667 9.65549 11.9282 9.91666 12.2503 9.91666C12.5725 9.91666 12.8337 9.65549 12.8337 9.33332V6.99999Z" fill="white"/>
  <path opacity="0.5" d="M8.16634 2.91667C8.16634 3.34833 7.92717 3.71583 7.58301 3.92V4.66667H6.41634V3.92C6.07217 3.71583 5.83301 3.34833 5.83301 2.91667C5.83301 2.275 6.35801 1.75 6.99967 1.75C7.64134 1.75 8.16634 2.275 8.16634 2.91667Z" fill="white"/>
  <path d="M10.5003 4.66666H3.50033C3.17949 4.66666 2.91699 4.92916 2.91699 5.24999V11.0833C2.91699 11.4042 3.17949 11.6667 3.50033 11.6667H10.5003C10.8212 11.6667 11.0837 11.4042 11.0837 11.0833V5.24999C11.0837 4.92916 10.8212 4.66666 10.5003 4.66666ZM4.95866 8.74999C4.47449 8.74999 4.08366 8.35916 4.08366 7.87499C4.08366 7.39082 4.47449 6.99999 4.95866 6.99999C5.44283 6.99999 5.83366 7.39082 5.83366 7.87499C5.83366 8.35916 5.44283 8.74999 4.95866 8.74999ZM9.04199 8.74999C8.55783 8.74999 8.16699 8.35916 8.16699 7.87499C8.16699 7.39082 8.55783 6.99999 9.04199 6.99999C9.52616 6.99999 9.91699 7.39082 9.91699 7.87499C9.91699 8.35916 9.52616 8.74999 9.04199 8.74999Z" fill="white"/>
</svg>