<svg t="1724232872421" class="icon" viewBox="0 0 1024 1024" version="1.1" xmlns="http://www.w3.org/2000/svg" p-id="14637" width="256" height="256"><path d="M944 384h-86.8c-3.2-8.4-6.8-17.2-10.4-25.6l61.2-61.2c6.4-6.4 6.4-16.4 0-22.8L749.6 116c-6.4-6.4-16.4-6.4-22.8 0l-61.2 61.6-25.6-10.8V80c0-8.8-7.2-16-16-16H400c-8.8 0-16 7.2-16 16v86.8l-25.6 10.4-61.2-61.2c-6.4-6.4-16.4-6.4-22.8 0L116 274.4c-6.4 6.4-6.4 16.4 0 22.8l61.6 61.2c-3.6 8.4-7.2 17.2-10.8 25.6H80c-8.8 0-16 7.2-16 16v224c0 8.8 7.2 16 16 16h86.8c3.2 8.4 6.8 17.2 10.4 25.6L116 726.8c-6.4 6.4-6.4 16.4 0 22.8L274.4 908c6.4 6.4 16.4 6.4 22.8 0l61.6-61.6 25.6 10.4V944c0 8.8 7.2 16 16 16h96c8.8 0 16-7.2 16-16v-32c0-8.8-7.2-16-16-16H448v-86.8c-36-7.6-70-22-100.8-42l-46 46.4-15.2 15.2-90.8-90.4 15.2-15.2 46-46c-20-30.8-34-65.2-41.6-101.2H128V448h86.8c7.6-36 22-70 42-100.8l-46.4-46-15.2-15.2 90.4-90.8 15.2 15.2 46.4 46.4c30.8-20 64.8-34.4 100.8-42V128h128v86.8c36 7.6 70 22 100.8 42l46-46 15.2-15.2 90.4 90.4-15.2 15.2-46 46c20 30.8 34.4 64.8 42 100.8H896v48c0 8.8 7.2 16 16 16h32c8.8 0 16-7.2 16-16v-96c0-8.8-7.2-16-16-16z m0 512H592c-8.8 0-16 7.2-16 16v32c0 8.8 7.2 16 16 16h352c8.8 0 16-7.2 16-16v-32c0-8.8-7.2-16-16-16z" p-id="14638"></path><path d="M944 736H592c-8.8 0-16 7.2-16 16v32c0 8.8 7.2 16 16 16h352c8.8 0 16-7.2 16-16v-32c0-8.8-7.2-16-16-16z m0-160H592c-8.8 0-16 7.2-16 16v32c0 8.8 7.2 16 16 16h352c8.8 0 16-7.2 16-16v-32c0-8.8-7.2-16-16-16z" p-id="14639"></path><path d="M525.6 416.8c42 6 75.2 39.2 81.2 81.2 0.8 8 7.6 14 15.6 14h32.4c8.8 0 16-7.2 16-16v-1.6c-10-88-88.8-151.2-176.8-141.2S342.8 442 352.8 530c8.4 74.4 66.8 132.8 141.2 141.2 8.8 0.8 16.8-5.6 17.6-14.4v-34c0-8-5.6-14.8-13.6-16-52.4-7.6-88.8-56.4-81.2-108.8s56.4-88.8 108.8-81.2z" p-id="14640"></path></svg>