<svg xmlns="http://www.w3.org/2000/svg" width="24" height="24" viewBox="0 0 24 24" fill="none">
  <path opacity="0.5" d="M18.0002 7.00001V4.00001H18.4995C18.776 4.00001 19 3.77648 19 3.50001V2.50001C18.9997 2.43404 18.9865 2.36878 18.9612 2.30795C18.9359 2.24712 18.8989 2.19191 18.8524 2.14548C18.806 2.09905 18.7509 2.06231 18.6903 2.03735C18.6298 2.01239 18.5649 1.9997 18.4995 2.00001H5.50167C5.43615 1.99955 5.37118 2.01212 5.31049 2.03701C5.2498 2.0619 5.19457 2.09862 5.14797 2.14506C5.10137 2.19151 5.06431 2.24677 5.03892 2.30767C5.01353 2.36858 5.00031 2.43394 5 2.50001V3.50001C5 3.77648 5.224 4.00001 5.5005 4.00001H5.99983V7.00001C5.99519 7.45749 6.09469 7.90994 6.29068 8.32255C6.48667 8.73516 6.77392 9.09693 7.13033 9.38001L10.4005 12L7.13033 14.62C6.77392 14.9031 6.48667 15.2648 6.29068 15.6775C6.09469 16.0901 5.99519 16.5425 5.99983 17V20H5.50167C5.43625 19.9997 5.37141 20.0124 5.31085 20.0373C5.25029 20.0623 5.1952 20.099 5.14873 20.1455C5.10225 20.1919 5.0653 20.2471 5.03998 20.3079C5.01466 20.3688 5.00147 20.434 5.00117 20.5V21.5C5.00117 21.7765 5.22517 22 5.50167 22H18.4983C18.7748 22 18.9988 21.7765 18.9988 21.5V20.5C18.9985 20.434 18.9853 20.3688 18.96 20.3079C18.9347 20.2471 18.8978 20.1919 18.8513 20.1455C18.8048 20.099 18.7497 20.0623 18.6892 20.0373C18.6286 20.0124 18.5638 19.9997 18.4983 20H17.999V17C17.9976 16.5493 17.8952 16.1047 17.6995 15.6995C17.5037 15.2943 17.2196 14.9389 16.8685 14.66L13.5995 12L16.8697 9.38001C17.593 8.80354 18.0107 7.92471 18.0002 7.00001ZM15.6202 16.14C15.749 16.2406 15.8511 16.3718 15.9174 16.5218C15.9838 16.6719 16.0123 16.8361 16.0005 17H7.99833C7.99918 16.8495 8.03385 16.7011 8.09972 16.566C8.16559 16.4309 8.26096 16.3126 8.37867 16.22L12 13.28L15.6202 16.14ZM16.0005 7.00001C15.9997 7.15055 15.965 7.29894 15.8991 7.43403C15.8332 7.56912 15.7379 7.68741 15.6202 7.78001L14.1502 9.00001H9.84983L8.37983 7.82001C8.25674 7.72332 8.1581 7.5986 8.092 7.45608C8.02589 7.31355 7.99419 7.15726 7.9995 7.00001V4.00001H16.0005V7.00001Z" fill="currentColor"/>
</svg>