<svg width="40" height="40" viewBox="0 0 40 40" fill="none" xmlns="http://www.w3.org/2000/svg">
<path opacity="0.05" d="M0 20C0 8.95431 8.95431 0 20 0C31.0457 0 40 8.95431 40 20C40 31.0457 31.0457 40 20 40C8.95431 40 0 31.0457 0 20Z" fill="#0065FB"/>
<path opacity="0.5" d="M22 14H24C25.1046 14 26 14.8954 26 16V18M18 14H16C14.8954 14 14 14.8954 14 16V18M26 22V24C26 25.1046 25.1046 26 24 26H22M14 22V24C14 25.1046 14.8954 26 16 26H18M13.5 20H14.5M25.5 20H26.5" stroke="#0065FB" stroke-width="1.2"/>
<path d="M16 20H24" stroke="#0065FB" stroke-width="3"/>
</svg>
