<svg xmlns="http://www.w3.org/2000/svg" xmlns:xlink="http://www.w3.org/1999/xlink" width="36" height="36" viewBox="0 0 36 36" fill="currentColor">
<path d="M32.1891 9.95085C30.0527 10.7606 31.098 11.567 31.098 11.567C31.098 11.567 32.0021 11.9212 32.7347 14.2607C33.2515 15.911 32.5162 18.6784 32.1891 19.1092C31.862 19.5401 31.5343 14.3685 30.0069 13.722C28.4794 13.0754 29.7885 13.722 29.4613 15.338C29.1342 16.9542 29.2429 18.6783 27.279 20.1867C25.315 21.6951 28.1517 17.7087 27.279 15.3381C26.4062 12.9675 23.7871 15.5538 23.46 20.1867C23.2654 22.9382 23.1099 24.6953 23.0157 25.6739L28.9157 31.4999L10.9115 31.4999L19.0952 21.8029L19.9201 22.6172C20.4688 21.0552 21.6974 17.6402 22.3688 16.4155C23.2884 14.7378 24.0056 14.2607 24.0056 14.2607C24.0056 14.2607 25.7984 12.5366 22.9144 12.6445C20.1864 12.7464 17.4584 14.7993 17.4584 14.7993C17.4584 14.7993 18.8247 11.0004 21.2776 10.4895C23.3247 10.0633 24.0054 10.4895 24.0054 10.4895C24.0054 10.4895 22.2068 7.99736 20.1864 8.87329C16.6013 10.4279 21.48 6.56443 23.4599 7.25721C25.8522 8.09422 26.1878 9.41203 26.1878 9.41203C26.1878 9.41203 26.297 4.99438 25.6422 4.56354C24.9874 4.13263 28.6818 5.94867 28.9158 8.33455C29.0208 9.40679 31.0487 7.05755 34.9172 8.33455C36.7015 8.92375 36.5949 8.28101 32.1891 9.95085ZM16.72 13.2258C15.7274 12.7738 14.7989 13.9576 14.7989 13.9576C14.7989 13.9576 15.1435 13.7604 16.1559 13.9944C17.3685 14.2754 17.9967 16.135 17.9967 16.135C17.9967 16.135 16.668 15.103 15.3125 15.0173C13.8799 14.9256 14.7476 15.7858 14.7476 15.7858C14.7476 15.7858 14.8989 16.1635 15.5325 16.8522C16.2609 17.6434 16.7941 21.3609 16.7941 21.3609L15.1223 23.4221C15.1223 23.4221 15.0386 20.9154 14.9391 18.665C14.8389 16.415 13.5713 15.1267 13.1051 16.2635C12.639 17.401 13.996 19.3712 13.0396 18.6136C12.0833 17.856 12.1611 17.0222 12.0199 16.234C11.8792 15.4464 12.5388 15.1507 11.7704 15.4433C11.0022 15.7363 10.7687 18.2385 10.6121 18.0255C10.455 17.8119 9.92709 16.4735 10.1353 15.6605C10.414 14.5705 11.5285 14.3916 11.5285 14.3916C11.5285 14.3916 12.2521 14.0575 10.7364 13.5862C8.50132 12.8916 8.23959 12.9365 9.40162 12.7659C11.4076 12.4719 12.3192 13.3657 12.3864 12.8469C12.535 11.6937 14.3972 10.863 14.0658 11.0635C13.7339 11.2635 13.7286 13.4062 13.7286 13.4062C13.7286 13.4062 13.9132 12.7717 15.1144 12.3983C16.1085 12.0895 18.4827 14.0276 16.72 13.2258L16.72 13.2258ZM14.1851 25.0352L8.18374 31.5L0 31.5L9.27493 15.8769L14.1851 25.0352L14.1851 25.0352Z"   fill="currentColor" >
</path>
</svg>
