<svg xmlns="http://www.w3.org/2000/svg" width="14" height="14" viewBox="0 0 14 14" fill="none">
  <g opacity="0.8">
    <path d="M10.5 1.75H3.5C2.5375 1.75 1.75 2.5375 1.75 3.5V10.5C1.75 11.4625 2.5375 12.25 3.5 12.25H10.5C11.4625 12.25 12.25 11.4625 12.25 10.5V3.5C12.25 2.5375 11.4625 1.75 10.5 1.75ZM7.8925 5.83333L7.0175 8.8725C6.9825 8.98333 6.95917 9.1 6.9475 9.21667C6.9475 9.25167 6.95917 9.28083 6.9825 9.30417C7 9.3275 7.035 9.345 7.06417 9.345C7.11667 9.345 7.16917 9.32167 7.21 9.28083C7.39083 9.11167 7.5425 8.91917 7.67083 8.70917L7.81667 8.79667C7.385 9.54917 6.93 9.9225 6.44583 9.9225C6.2825 9.92833 6.125 9.87583 6.0025 9.765C5.89167 9.66 5.83333 9.52 5.83917 9.36833C5.83917 9.23417 5.86833 9.09417 5.90917 8.96583L6.50417 6.92417C6.55083 6.77833 6.58 6.6325 6.59167 6.48083C6.59167 6.41667 6.5625 6.3525 6.51 6.31167C6.44583 6.25917 6.37 6.23583 6.28833 6.24167C6.2475 6.24167 6.195 6.24167 6.13083 6.24167L6.18917 6.0725L7.63583 5.83917H7.8925V5.83333ZM7.58333 5.25C7.2625 5.25 7 4.9875 7 4.66667C7 4.34583 7.2625 4.08333 7.58333 4.08333C7.90417 4.08333 8.16667 4.34583 8.16667 4.66667C8.16667 4.9875 7.90417 5.25 7.58333 5.25Z" fill="currentColor"/>
  </g>
</svg>