<svg xmlns="http://www.w3.org/2000/svg" xmlns:xlink="http://www.w3.org/1999/xlink" width="24" height="24" viewBox="0 0 24 24" fill="none">
<path d="M12.5003 12.06L12.5003 5.5C12.5003 5.22387 12.2764 5 12.0003 5C11.7242 5 11.4936 5.22387 11.4936 5.5L11.4936 12.0667C10.6356 12.2894 10.0002 13.0687 10.0002 14C10.0002 14.9327 10.6366 15.7187 11.5003 15.94C11.5003 15.9608 11.4936 15.9791 11.4936 16L11.4936 18.5001C11.4936 18.7762 11.7242 19.0001 12.0003 19.0001C12.2764 19.0001 12.5003 18.7762 12.5003 18.5001L12.5003 16C12.5003 15.9794 12.4937 15.9605 12.4937 15.94C13.3592 15.7199 14.0004 14.9337 14.0004 14C14.0004 13.0673 13.364 12.2815 12.5003 12.06ZM12.707 14.7067C12.6935 14.7202 12.6813 14.734 12.667 14.7467C12.6528 14.7594 12.6353 14.7682 12.6203 14.78C12.6054 14.7919 12.5893 14.809 12.5737 14.82C12.5581 14.831 12.5432 14.8366 12.527 14.8467C12.5108 14.8568 12.4971 14.8709 12.4803 14.88C12.4636 14.8892 12.4443 14.8985 12.427 14.9067C12.4097 14.9149 12.3914 14.9195 12.3737 14.9267C12.356 14.9339 12.3384 14.9467 12.3203 14.9467C12.3022 14.9467 12.2854 14.9667 12.267 14.9667C12.2486 14.9667 12.2323 14.98 12.2137 14.98C12.195 14.98 12.1725 14.9867 12.1537 14.9867C12.1348 14.9867 12.1193 14.9934 12.1003 14.9934C12.0813 14.9934 12.0594 15 12.0403 15C12.0212 15 11.9994 15 11.9803 15C11.9612 15 11.946 15 11.927 15C11.9079 15 11.8859 14.9934 11.867 14.9934C11.848 14.9934 11.8324 14.98 11.8136 14.98C11.7949 14.98 11.7722 14.9667 11.7536 14.9667C11.7351 14.9667 11.7185 14.9534 11.7003 14.9534C11.6821 14.9534 11.6648 14.9401 11.647 14.9334C11.6291 14.9267 11.6111 14.9211 11.5936 14.9134C11.5762 14.9056 11.5573 14.8954 11.5403 14.8867C11.5233 14.878 11.5101 14.8697 11.4936 14.86C11.4772 14.8504 11.4628 14.844 11.447 14.8334C11.4311 14.8228 11.4155 14.8115 11.4003 14.8C11.385 14.7885 11.3682 14.7724 11.3536 14.76C11.3391 14.7477 11.3208 14.7399 11.3069 14.7267C11.2931 14.7135 11.28 14.7006 11.2669 14.6867C11.2539 14.6728 11.2458 14.6547 11.2336 14.64C11.2214 14.6254 11.205 14.6087 11.1936 14.5934C11.1822 14.578 11.1774 14.5627 11.1669 14.5467C11.1565 14.5308 11.1432 14.5166 11.1336 14.5C11.1241 14.4835 11.1155 14.4638 11.1069 14.4467C11.0984 14.4297 11.0879 14.4176 11.0803 14.4C11.0727 14.3825 11.0603 14.3646 11.0603 14.3467C11.0603 14.3288 11.0403 14.3117 11.0403 14.2934C11.0403 14.2751 11.0269 14.2519 11.0269 14.2334C11.0269 14.2148 11.0136 14.1988 11.0136 14.18C11.0136 14.1613 11.0069 14.139 11.0069 14.12C11.0069 14.1011 11.0003 14.0858 11.0003 14.0667C11.0003 14.0476 11.0003 14.0258 11.0003 14.0067C11.0003 13.9876 11.0003 13.9724 11.0003 13.9534C11.0003 13.9343 11.0069 13.9124 11.0069 13.8934C11.0069 13.8744 11.0136 13.8589 11.0136 13.84C11.0136 13.8212 11.0269 13.7987 11.0269 13.78C11.0269 13.7614 11.0403 13.7451 11.0403 13.7267C11.0403 13.7084 11.0536 13.6914 11.0536 13.6734C11.0536 13.6553 11.0663 13.6377 11.0736 13.62C11.0809 13.6024 11.092 13.5839 11.1003 13.5667C11.1086 13.5495 11.1177 13.5301 11.1269 13.5134C11.1362 13.4967 11.1434 13.4828 11.1536 13.4667C11.1638 13.4506 11.1758 13.4356 11.1869 13.42C11.1981 13.4045 11.2083 13.3882 11.2203 13.3734C11.2323 13.3585 11.2475 13.3409 11.2603 13.3267C11.2731 13.3125 11.2867 13.3001 11.3003 13.2867C11.3139 13.2733 11.3259 13.2593 11.3403 13.2467C11.3546 13.2341 11.3719 13.2251 11.3869 13.2134C11.402 13.2016 11.4179 13.1909 11.4336 13.18C11.4493 13.1692 11.464 13.1567 11.4803 13.1467C11.4966 13.1368 11.5101 13.129 11.527 13.12C11.5438 13.111 11.563 13.1014 11.5803 13.0934C11.5976 13.0853 11.6159 13.0737 11.6336 13.0667C11.6514 13.0597 11.6688 13.0534 11.687 13.0534C11.7051 13.0534 11.7219 13.0334 11.7403 13.0334C11.7588 13.0334 11.7749 13.02 11.7936 13.02C11.8123 13.02 11.8348 13.0134 11.8536 13.0134C11.8725 13.0134 11.888 13.0067 11.907 13.0067C11.926 13.0067 11.9479 13 11.967 13C11.9861 13 12.0079 13 12.027 13C12.0461 13 12.0613 13 12.0803 13C12.0993 13 12.1214 13.0067 12.1403 13.0067C12.1592 13.0067 12.1749 13.02 12.1937 13.02C12.2124 13.02 12.2352 13.0334 12.2537 13.0334C12.2722 13.0334 12.2888 13.0467 12.307 13.0467C12.3252 13.0467 12.3425 13.0598 12.3603 13.0667C12.3781 13.0736 12.3963 13.0788 12.4137 13.0867C12.4311 13.0946 12.4501 13.1045 12.467 13.1134C12.4839 13.1222 12.4973 13.1302 12.5137 13.14C12.53 13.1498 12.5446 13.1626 12.5603 13.1734C12.5761 13.1841 12.5919 13.1951 12.607 13.2067C12.6222 13.2183 12.6392 13.2276 12.6537 13.24C12.6681 13.2525 12.68 13.2668 12.6937 13.28C12.7074 13.2933 12.7207 13.306 12.7337 13.32C12.7466 13.3341 12.7616 13.3519 12.7737 13.3667C12.7858 13.3815 12.7958 13.3979 12.807 13.4134C12.8183 13.4288 12.83 13.444 12.8403 13.46C12.8507 13.4761 12.8576 13.4901 12.867 13.5067C12.8764 13.5233 12.8852 13.5429 12.8937 13.56C12.9021 13.5772 12.9129 13.5891 12.9204 13.6067C12.9278 13.6243 12.9404 13.6421 12.9404 13.66C12.9404 13.678 12.9604 13.7017 12.9604 13.72C12.9604 13.7384 12.9737 13.7548 12.9737 13.7734C12.9737 13.792 12.987 13.8079 12.987 13.8267C12.987 13.8455 12.9937 13.8677 12.9937 13.8867C12.9937 13.9057 13.0004 13.921 13.0004 13.94C13.0004 13.9591 13.0004 13.9809 13.0004 14C13.0004 14.0164 13.0004 14.0304 13.0004 14.0467C13.0004 14.0631 12.9937 14.0837 12.9937 14.1C12.9937 14.1163 12.987 14.1305 12.987 14.1467C12.987 14.1629 12.9804 14.1773 12.9804 14.1934C12.9804 14.2094 12.967 14.2242 12.967 14.24C12.967 14.2559 12.9604 14.2777 12.9604 14.2934C12.9604 14.309 12.9404 14.3246 12.9404 14.34C12.9404 14.3555 12.927 14.3649 12.927 14.38C12.927 14.3952 12.914 14.4119 12.907 14.4267C12.9 14.4415 12.8881 14.4589 12.8803 14.4734C12.8726 14.4878 12.8688 14.4993 12.8603 14.5134C12.8519 14.5274 12.8428 14.5398 12.8337 14.5534C12.8246 14.567 12.8101 14.5802 12.8003 14.5934C12.7906 14.6065 12.7841 14.6207 12.7737 14.6334C12.7633 14.646 12.7514 14.6613 12.7403 14.6734C12.7293 14.6855 12.7186 14.6952 12.707 14.7067ZM7.49344 7.06001C7.49344 7.03926 7.50011 7.02096 7.50011 7.00001L7.50011 5.5C7.50011 5.49183 7.50011 5.4815 7.50011 5.47334C7.50011 5.46517 7.49344 5.46147 7.49344 5.45334C7.49344 5.4452 7.49344 5.43475 7.49344 5.42667C7.49344 5.41858 7.48678 5.40802 7.48678 5.4C7.48678 5.39198 7.48678 5.38793 7.48678 5.38C7.48678 5.37207 7.48011 5.36116 7.48011 5.35333C7.48011 5.34551 7.46678 5.34103 7.46678 5.33333C7.46678 5.32564 7.46011 5.31422 7.46011 5.30667C7.46011 5.29912 7.45344 5.29406 7.45344 5.28667C7.45344 5.27928 7.44011 5.27388 7.44011 5.26667C7.44011 5.25946 7.42677 5.24701 7.42677 5.24C7.42677 5.23299 7.41344 5.2268 7.41344 5.22C7.41344 5.2132 7.40011 5.2 7.40011 5.2L7.38677 5.18L7.36677 5.16667L7.35344 5.14667L7.33344 5.12667L7.31344 5.11333L7.3001 5.1C7.3001 5.1 7.2869 5.08667 7.2801 5.08667C7.2733 5.08667 7.26045 5.07333 7.25343 5.07333C7.24643 5.07333 7.24065 5.06 7.23343 5.06C7.22623 5.06 7.22084 5.04667 7.21343 5.04667C7.20606 5.04667 7.20099 5.04 7.19343 5.04C7.18587 5.04 7.17447 5.02667 7.16676 5.02667C7.15907 5.02667 7.15459 5.02 7.14676 5.02C7.13895 5.02 7.12803 5.01333 7.12009 5.01333C7.11217 5.01333 7.10812 5.01333 7.10009 5.01333C7.09208 5.01333 7.08152 5.00667 7.07343 5.00667C7.06535 5.00667 7.0549 5 7.04676 5C7.03863 5 7.03493 5 7.02676 5C7.0186 5 7.00828 5 7.00009 5C6.99192 5 6.98159 5 6.97342 5C6.96526 5 6.96158 5 6.95342 5C6.94529 5 6.93485 5.00667 6.92675 5.00667C6.91867 5.00667 6.90812 5.01333 6.90008 5.01333C6.89207 5.01333 6.88802 5.01333 6.88008 5.01333C6.87216 5.01333 6.86124 5.02 6.85342 5.02C6.8456 5.02 6.84112 5.02667 6.83341 5.02667C6.82573 5.02667 6.81431 5.04 6.80675 5.04C6.7992 5.04 6.79415 5.04667 6.78675 5.04667C6.77937 5.04667 6.77396 5.06 6.76674 5.06C6.75953 5.06 6.74709 5.07333 6.74008 5.07333C6.73308 5.07333 6.72689 5.08667 6.72008 5.08667C6.71329 5.08667 6.70008 5.1 6.70008 5.1L6.68007 5.11333L6.66674 5.12667L6.64674 5.14667L6.62674 5.16667L6.6134 5.18L6.60007 5.2C6.60007 5.2 6.58674 5.2132 6.58674 5.22C6.58674 5.2268 6.5734 5.23299 6.5734 5.24C6.5734 5.24701 6.56007 5.25946 6.56007 5.26667C6.56007 5.27388 6.54673 5.27928 6.54673 5.28667C6.54673 5.29406 6.54007 5.29912 6.54007 5.30667C6.54007 5.31422 6.52673 5.32564 6.52673 5.33333C6.52673 5.34103 6.52007 5.34551 6.52007 5.35333C6.52007 5.36116 6.5134 5.37207 6.5134 5.38C6.5134 5.38793 6.50673 5.39198 6.50673 5.4C6.50673 5.40802 6.50673 5.41858 6.50673 5.42667C6.50673 5.43475 6.50007 5.4452 6.50007 5.45334C6.50007 5.46147 6.50007 5.46517 6.50007 5.47334C6.50007 5.4815 6.50007 5.49183 6.50007 5.5L6.50007 7.00001C6.50007 7.02123 6.50007 7.04558 6.50007 7.06667C5.63642 7.28793 5 8.06721 5 9.00002C5 9.93282 5.63643 10.7185 6.50007 10.94C6.50007 10.9605 6.50007 10.9795 6.50007 11L6.50007 18.5001C6.50007 18.5082 6.50007 18.5186 6.50007 18.5267C6.50007 18.5349 6.50007 18.5386 6.50007 18.5467C6.50007 18.5549 6.50673 18.5653 6.50673 18.5734C6.50673 18.5815 6.50673 18.5921 6.50673 18.6001C6.50673 18.6081 6.5134 18.6121 6.5134 18.6201C6.5134 18.628 6.52007 18.6389 6.52007 18.6467C6.52007 18.6545 6.52673 18.659 6.52673 18.6667C6.52673 18.6744 6.54007 18.6858 6.54007 18.6934C6.54007 18.7009 6.54673 18.706 6.54673 18.7134C6.54673 18.7208 6.56007 18.7262 6.56007 18.7334C6.56007 18.7406 6.5734 18.7531 6.5734 18.7601C6.5734 18.7671 6.58674 18.7733 6.58674 18.7801C6.58674 18.7869 6.60007 18.8001 6.60007 18.8001L6.6134 18.8201L6.62674 18.8334L6.64674 18.8534L6.66674 18.8734L6.68007 18.8867L6.70008 18.9001C6.70008 18.9001 6.71329 18.9134 6.72008 18.9134C6.72689 18.9134 6.73308 18.9267 6.74008 18.9267C6.74709 18.9267 6.75954 18.9401 6.76674 18.9401C6.77396 18.9401 6.77936 18.9534 6.78675 18.9534C6.79414 18.9534 6.7992 18.9601 6.80675 18.9601C6.81431 18.9601 6.82573 18.9734 6.83341 18.9734C6.84112 18.9734 6.8456 18.9801 6.85342 18.9801C6.86124 18.9801 6.87215 18.9867 6.88008 18.9867C6.88802 18.9867 6.89207 18.9867 6.90008 18.9867C6.9081 18.9867 6.91866 18.9934 6.92675 18.9934C6.93485 18.9934 6.94529 19.0001 6.95342 19.0001C6.96156 19.0001 6.96526 19.0001 6.97342 19.0001C6.98159 19.0001 6.99192 19.0001 7.00009 19.0001C7.00828 19.0001 7.0186 19.0001 7.02676 19.0001C7.03493 19.0001 7.03863 19.0001 7.04676 19.0001C7.0549 19.0001 7.06533 18.9934 7.07343 18.9934C7.08152 18.9934 7.09208 18.9867 7.10009 18.9867C7.10812 18.9867 7.11217 18.9867 7.12009 18.9867C7.12803 18.9867 7.13895 18.9801 7.14676 18.9801C7.15459 18.9801 7.15907 18.9734 7.16676 18.9734C7.17447 18.9734 7.18588 18.9601 7.19343 18.9601C7.20099 18.9601 7.20604 18.9534 7.21343 18.9534C7.22082 18.9534 7.22623 18.9401 7.23343 18.9401C7.24065 18.9401 7.24642 18.9267 7.25343 18.9267C7.26045 18.9267 7.27332 18.9134 7.2801 18.9134C7.28691 18.9134 7.3001 18.9001 7.3001 18.9001L7.31344 18.8867L7.33344 18.8734L7.35344 18.8534L7.36677 18.8334L7.38677 18.8201L7.40011 18.8001C7.40011 18.8001 7.41344 18.7869 7.41344 18.7801C7.41344 18.7733 7.42677 18.7671 7.42677 18.7601C7.42677 18.7531 7.44011 18.7406 7.44011 18.7334C7.44011 18.7262 7.45344 18.7208 7.45344 18.7134C7.45344 18.706 7.46011 18.7009 7.46011 18.6934C7.46011 18.6858 7.46678 18.6744 7.46678 18.6667C7.46678 18.659 7.48011 18.6545 7.48011 18.6467C7.48011 18.6389 7.48678 18.628 7.48678 18.6201C7.48678 18.6121 7.48678 18.6081 7.48678 18.6001C7.48678 18.5921 7.49344 18.5815 7.49344 18.5734C7.49344 18.5653 7.49344 18.5549 7.49344 18.5467C7.49344 18.5386 7.50011 18.5349 7.50011 18.5267C7.50011 18.5186 7.50011 18.5082 7.50011 18.5001L7.50011 11C7.50011 10.9797 7.49344 10.9602 7.49344 10.94C8.35889 10.7199 9.00018 9.93366 9.00018 9.00002C9.00018 8.06637 8.359 7.28002 7.49344 7.06001ZM7.70679 9.70668C7.69329 9.72018 7.68104 9.73398 7.66678 9.74669C7.65253 9.7594 7.63507 9.77483 7.62012 9.78668C7.60516 9.79856 7.58907 9.80902 7.57345 9.82002C7.55784 9.83102 7.543 9.84327 7.52678 9.85335C7.51056 9.86345 7.49689 9.87088 7.48011 9.88002C7.46336 9.88916 7.44404 9.89853 7.42677 9.90668C7.40951 9.91486 7.39114 9.91953 7.37344 9.92669C7.35575 9.93386 7.3382 9.94669 7.3201 9.94669C7.30202 9.94669 7.28517 9.96669 7.26677 9.96669C7.24836 9.96669 7.2321 9.98002 7.21343 9.98002C7.19477 9.98002 7.1723 9.98669 7.15343 9.98669C7.13457 9.98669 7.11909 9.99335 7.10009 9.99335C7.08109 9.99335 7.05917 10 7.04009 10C7.02101 10 6.99918 10 6.98009 10C6.96099 10 6.9458 10 6.92675 10C6.90772 10 6.88569 9.99335 6.86675 9.99335C6.84781 9.99335 6.83218 9.98002 6.81341 9.98002C6.79466 9.98002 6.77194 9.97335 6.75341 9.97335C6.73489 9.97335 6.71831 9.95335 6.70008 9.95335C6.68186 9.95335 6.66462 9.94675 6.64674 9.94002C6.62886 9.9333 6.61087 9.9211 6.5934 9.91335C6.57597 9.90562 6.55706 9.90209 6.54007 9.89335C6.52308 9.88463 6.50986 9.86971 6.4934 9.86002C6.47694 9.85035 6.46261 9.84398 6.44673 9.83335C6.43085 9.82276 6.41531 9.81152 6.40006 9.80002C6.38482 9.78852 6.36796 9.77905 6.35339 9.76669C6.33883 9.75434 6.32055 9.73986 6.30672 9.72668C6.29289 9.71353 6.27977 9.70062 6.26672 9.68668C6.25367 9.67275 6.24563 9.65467 6.23339 9.64002C6.22116 9.62536 6.20476 9.61536 6.19339 9.60002C6.18201 9.58469 6.1772 9.56265 6.16672 9.54668C6.15624 9.53073 6.14294 9.51656 6.13338 9.50002C6.12383 9.48349 6.1153 9.47041 6.10672 9.45335C6.09813 9.4363 6.08764 9.41755 6.08005 9.40002C6.07245 9.3825 6.06005 9.36462 6.06005 9.34668C6.06005 9.32876 6.04005 9.31163 6.04005 9.29335C6.04005 9.27508 6.02671 9.25191 6.02671 9.23335C6.02671 9.21479 6.01338 9.1988 6.01338 9.18002C6.01338 9.16123 6.00671 9.14564 6.00671 9.12668C6.00671 9.10774 6.00004 9.08574 6.00004 9.06668C6.00004 9.04764 6.00004 9.02578 6.00004 9.00668C6.00004 8.98759 6.00004 8.97243 6.00004 8.95335C6.00004 8.93429 6.00671 8.91235 6.00671 8.89335C6.00671 8.87438 6.01338 8.85886 6.01338 8.84002C6.01338 8.82117 6.02671 8.79864 6.02671 8.78001C6.02671 8.76139 6.04005 8.74506 6.04005 8.72668C6.04005 8.70834 6.05338 8.69138 6.05338 8.67335C6.05338 8.65532 6.06608 8.63767 6.07338 8.62001C6.08069 8.60239 6.09175 8.58388 6.10005 8.56668C6.10835 8.54949 6.11743 8.53004 6.12672 8.51335C6.13599 8.49666 6.14317 8.48281 6.15338 8.46668C6.1636 8.45055 6.1756 8.43554 6.18672 8.42001C6.19784 8.4045 6.20806 8.38822 6.22005 8.37335C6.23205 8.3585 6.24723 8.34084 6.26006 8.32668C6.27288 8.31254 6.28645 8.30007 6.30006 8.28668C6.31367 8.27329 6.3257 8.25927 6.34006 8.24668C6.35442 8.2341 6.37168 8.2251 6.38673 8.21335C6.40178 8.2016 6.4177 8.19089 6.4334 8.18001C6.44911 8.16914 6.46377 8.15663 6.48007 8.14668C6.49637 8.13674 6.5099 8.12901 6.52673 8.12001C6.54358 8.11101 6.56275 8.10138 6.58007 8.09335C6.59741 8.08533 6.61565 8.08038 6.63341 8.07335C6.65117 8.06635 6.66862 8.05334 6.68674 8.05334C6.70488 8.05334 6.72164 8.03335 6.74008 8.03335C6.75852 8.03335 6.77472 8.02001 6.79341 8.02001C6.81212 8.02001 6.83454 8.01334 6.85342 8.01334C6.87232 8.01334 6.88775 8.00668 6.90675 8.00668C6.92578 8.00668 6.94767 8.00001 6.96675 8.00001C6.98585 8.00001 7.00766 8.00001 7.02676 8.00001C7.04585 8.00001 7.06106 8.00668 7.08009 8.00668C7.09912 8.00668 7.12119 8.01334 7.14009 8.01334C7.159 8.01334 7.17471 8.02001 7.19343 8.02001C7.21217 8.02001 7.23495 8.03335 7.25343 8.03335C7.27192 8.03335 7.28858 8.04668 7.30677 8.04668C7.32496 8.04668 7.34229 8.0598 7.3601 8.06668C7.37793 8.07355 7.39606 8.08547 7.41344 8.09335C7.43085 8.10124 7.44987 8.10449 7.46678 8.11335C7.48368 8.1222 7.49707 8.1302 7.51344 8.14001C7.52982 8.14982 7.54433 8.16261 7.56011 8.17335C7.57591 8.1841 7.59164 8.19505 7.60678 8.20668C7.62194 8.2183 7.639 8.23421 7.65345 8.24668C7.66792 8.25915 7.67973 8.26673 7.69345 8.28001C7.70717 8.29329 7.72052 8.30598 7.73345 8.32001C7.74641 8.33406 7.76135 8.35193 7.77346 8.36668C7.78558 8.38144 7.79556 8.39791 7.80679 8.41335C7.81804 8.42878 7.82978 8.44398 7.84013 8.46001C7.85047 8.47608 7.85739 8.49007 7.86679 8.50668C7.8762 8.52331 7.88502 8.54289 7.89346 8.56001C7.90191 8.57714 7.91269 8.59577 7.92013 8.61335C7.9276 8.63094 7.94013 8.64871 7.94013 8.66668C7.94013 8.68467 7.96013 8.7017 7.96013 8.72001C7.96013 8.73834 7.97346 8.75475 7.97346 8.77335C7.97346 8.79194 7.9868 8.80787 7.9868 8.82668C7.9868 8.84549 7.99347 8.86771 7.99347 8.88668C7.99347 8.90565 8.00013 8.92762 8.00013 8.94668C8.00013 8.96574 8.00013 8.98092 8.00013 9.00002C8.00013 9.01639 8.00013 9.037 8.00013 9.05335C8.00013 9.06971 7.99347 9.08373 7.99347 9.10002C7.99347 9.11633 7.9868 9.1305 7.9868 9.14668C7.9868 9.16289 7.98013 9.17729 7.98013 9.19335C7.98013 9.20941 7.9668 9.23081 7.9668 9.24668C7.9668 9.26257 7.96013 9.27768 7.96013 9.29335C7.96013 9.30902 7.94013 9.32461 7.94013 9.34002C7.94013 9.35544 7.9268 9.37156 7.9268 9.38668C7.9268 9.40181 7.91381 9.41189 7.9068 9.42668C7.8998 9.4415 7.88786 9.45893 7.88013 9.47335C7.87241 9.48779 7.86856 9.49932 7.86013 9.51335C7.85169 9.52738 7.84258 9.54642 7.83346 9.56002C7.82435 9.57363 7.80991 9.58689 7.80012 9.60002C7.79034 9.61314 7.78386 9.62073 7.77346 9.63335C7.76305 9.64599 7.75115 9.66126 7.74012 9.67335C7.7291 9.68546 7.71841 9.69514 7.70679 9.70668ZM19.0006 9.00002C19.0006 8.06603 18.3596 7.28002 17.4939 7.06001C17.4939 7.03923 17.4939 7.02091 17.4939 7.00001L17.4939 5.5C17.4939 5.49183 17.4939 5.4815 17.4939 5.47334C17.4939 5.46517 17.4939 5.46147 17.4939 5.45334C17.4939 5.4452 17.4872 5.43475 17.4872 5.42667C17.4872 5.41858 17.4872 5.40802 17.4872 5.4C17.4872 5.39198 17.4806 5.38793 17.4806 5.38C17.4806 5.37207 17.4739 5.36116 17.4739 5.35333C17.4739 5.34551 17.4672 5.34103 17.4672 5.33333C17.4672 5.32564 17.4606 5.31422 17.4606 5.30667C17.4606 5.29911 17.4472 5.29406 17.4472 5.28667C17.4472 5.27928 17.4339 5.27388 17.4339 5.26667C17.4339 5.25946 17.4272 5.24701 17.4272 5.24C17.4272 5.23299 17.4139 5.2268 17.4139 5.22C17.4139 5.2132 17.4005 5.2 17.4005 5.2L17.3805 5.18L17.3672 5.16667L17.3472 5.14667L17.3339 5.12667L17.3139 5.11333L17.2939 5.1C17.2939 5.1 17.2807 5.08667 17.2739 5.08667C17.2671 5.08667 17.2609 5.07333 17.2539 5.07333C17.2469 5.07333 17.2411 5.06 17.2339 5.06C17.2267 5.06 17.2146 5.04667 17.2072 5.04667C17.1998 5.04667 17.1948 5.04 17.1872 5.04C17.1797 5.04 17.1749 5.02667 17.1672 5.02667C17.1595 5.02667 17.1484 5.02 17.1405 5.02C17.1327 5.02 17.1285 5.01333 17.1205 5.01333C17.1126 5.01333 17.1019 5.01333 17.0939 5.01333C17.0859 5.01333 17.0753 5.00667 17.0672 5.00667C17.0591 5.00667 17.0553 5 17.0472 5C17.0391 5 17.0287 5 17.0205 5C17.0124 5 17.002 5 16.9939 5C16.9857 5 16.982 5 16.9739 5C16.9657 5 16.9553 5 16.9472 5C16.9391 5 16.9286 5.00667 16.9205 5.00667C16.9124 5.00667 16.9086 5.01333 16.9005 5.01333C16.8925 5.01333 16.8818 5.01333 16.8739 5.01333C16.8659 5.01333 16.8617 5.02 16.8539 5.02C16.846 5.02 16.8349 5.02667 16.8272 5.02667C16.8195 5.02667 16.8148 5.04 16.8072 5.04C16.7996 5.04 16.7879 5.04667 16.7805 5.04667C16.7731 5.04667 16.7677 5.06 16.7605 5.06C16.7533 5.06 16.7475 5.07333 16.7405 5.07333C16.7335 5.07333 16.7273 5.08667 16.7205 5.08667C16.7137 5.08667 16.7005 5.1 16.7005 5.1L16.6805 5.11333L16.6605 5.12667L16.6405 5.14667L16.6272 5.16667L16.6072 5.18L16.5938 5.2C16.5938 5.2 16.5805 5.2132 16.5805 5.22C16.5805 5.2268 16.5672 5.23299 16.5672 5.24C16.5672 5.24701 16.5538 5.25946 16.5538 5.26667C16.5538 5.27388 16.5472 5.27928 16.5472 5.28667C16.5472 5.29406 16.5338 5.29911 16.5338 5.30667C16.5338 5.31422 16.5272 5.32564 16.5272 5.33333C16.5272 5.34103 16.5205 5.34551 16.5205 5.35333C16.5205 5.36116 16.5138 5.37207 16.5138 5.38C16.5138 5.38793 16.5072 5.39198 16.5072 5.4C16.5072 5.40802 16.5005 5.41858 16.5005 5.42667C16.5005 5.43475 16.5005 5.4452 16.5005 5.45334C16.5005 5.46147 16.4938 5.46517 16.4938 5.47334C16.4938 5.4815 16.4938 5.49183 16.4938 5.5L16.4938 7.00001C16.4938 7.02126 16.5005 7.04563 16.5005 7.06667C15.6369 7.28793 15.0004 8.06721 15.0004 9.00002C15.0004 9.93282 15.6369 10.7187 16.5005 10.94C16.5005 10.9608 16.4938 10.9791 16.4938 11L16.4938 18.5001C16.4938 18.5082 16.4938 18.5186 16.4938 18.5267C16.4938 18.5349 16.5005 18.5386 16.5005 18.5467C16.5005 18.5549 16.5005 18.5653 16.5005 18.5734C16.5005 18.5815 16.5072 18.5921 16.5072 18.6001C16.5072 18.6081 16.5138 18.6121 16.5138 18.6201C16.5138 18.628 16.5205 18.6389 16.5205 18.6467C16.5205 18.6545 16.5272 18.659 16.5272 18.6667C16.5272 18.6744 16.5338 18.6858 16.5338 18.6934C16.5338 18.7009 16.5472 18.706 16.5472 18.7134C16.5472 18.7208 16.5538 18.7262 16.5538 18.7334C16.5538 18.7406 16.5672 18.7531 16.5672 18.7601C16.5672 18.7671 16.5805 18.7733 16.5805 18.7801C16.5805 18.7869 16.5938 18.8001 16.5938 18.8001L16.6072 18.8201L16.6272 18.8334L16.6405 18.8534L16.6605 18.8734L16.6805 18.8867L16.7005 18.9001C16.7005 18.9001 16.7137 18.9134 16.7205 18.9134C16.7273 18.9134 16.7335 18.9267 16.7405 18.9267C16.7475 18.9267 16.7533 18.9401 16.7605 18.9401C16.7677 18.9401 16.7731 18.9534 16.7805 18.9534C16.7879 18.9534 16.7996 18.9601 16.8072 18.9601C16.8148 18.9601 16.8195 18.9734 16.8272 18.9734C16.8349 18.9734 16.846 18.9801 16.8539 18.9801C16.8617 18.9801 16.8659 18.9867 16.8739 18.9867C16.8818 18.9867 16.8925 18.9867 16.9005 18.9867C16.9086 18.9867 16.9124 18.9934 16.9205 18.9934C16.9286 18.9934 16.9391 19.0001 16.9472 19.0001C16.9553 19.0001 16.9657 19.0001 16.9739 19.0001C16.982 19.0001 16.9857 19.0001 16.9939 19.0001C17.0021 19.0001 17.0124 19.0001 17.0205 19.0001C17.0287 19.0001 17.0391 19.0001 17.0472 19.0001C17.0553 19.0001 17.0591 18.9934 17.0672 18.9934C17.0753 18.9934 17.0859 18.9867 17.0939 18.9867C17.1019 18.9867 17.1126 18.9867 17.1205 18.9867C17.1285 18.9867 17.1327 18.9801 17.1405 18.9801C17.1484 18.9801 17.1595 18.9734 17.1672 18.9734C17.1749 18.9734 17.1797 18.9601 17.1872 18.9601C17.1948 18.9601 17.1998 18.9534 17.2072 18.9534C17.2146 18.9534 17.2267 18.9401 17.2339 18.9401C17.2411 18.9401 17.2469 18.9267 17.2539 18.9267C17.2609 18.9267 17.2671 18.9134 17.2739 18.9134C17.2807 18.9134 17.2939 18.9001 17.2939 18.9001L17.3139 18.8867L17.3339 18.8734L17.3472 18.8534L17.3672 18.8334L17.3805 18.8201L17.3939 18.8001C17.3939 18.8001 17.4139 18.7869 17.4139 18.7801C17.4139 18.7733 17.4272 18.7671 17.4272 18.7601C17.4272 18.7531 17.4339 18.7406 17.4339 18.7334C17.4339 18.7262 17.4472 18.7208 17.4472 18.7134C17.4472 18.706 17.4606 18.7009 17.4606 18.6934C17.4606 18.6858 17.4672 18.6744 17.4672 18.6667C17.4672 18.659 17.4739 18.6545 17.4739 18.6467C17.4739 18.6389 17.4806 18.628 17.4806 18.6201C17.4806 18.6121 17.4872 18.6081 17.4872 18.6001C17.4872 18.5921 17.4872 18.5815 17.4872 18.5734C17.4872 18.5653 17.4939 18.5549 17.4939 18.5467C17.4939 18.5386 17.4939 18.5349 17.4939 18.5267C17.4939 18.5186 17.4939 18.5082 17.4939 18.5001L17.4939 11C17.4939 10.9794 17.4939 10.9605 17.4939 10.94C18.3597 10.72 19.0006 9.93396 19.0006 9.00002ZM17.7072 9.70668C17.6937 9.72018 17.6815 9.73398 17.6672 9.74669C17.653 9.7594 17.6355 9.77483 17.6206 9.78668C17.6056 9.79856 17.5895 9.80902 17.5739 9.82002C17.5583 9.83102 17.5434 9.84327 17.5272 9.85335C17.511 9.86345 17.4973 9.87089 17.4806 9.88002C17.4638 9.88916 17.4445 9.89853 17.4272 9.90668C17.41 9.91484 17.3916 9.91953 17.3739 9.92669C17.3562 9.93384 17.3386 9.94669 17.3205 9.94669C17.3025 9.94669 17.2856 9.96669 17.2672 9.96669C17.2488 9.96669 17.2325 9.98002 17.2139 9.98002C17.1952 9.98002 17.1727 9.98669 17.1539 9.98669C17.135 9.98669 17.1195 9.99335 17.1005 9.99335C17.0815 9.99335 17.0596 10 17.0405 10C17.0215 10 16.9996 10 16.9805 10C16.9614 10 16.9462 10 16.9272 10C16.9082 10 16.8861 9.99335 16.8672 9.99335C16.8483 9.99335 16.8326 9.98002 16.8139 9.98002C16.7951 9.98002 16.7724 9.97335 16.7539 9.97335C16.7353 9.97335 16.7188 9.95335 16.7005 9.95335C16.6823 9.95335 16.6651 9.94675 16.6472 9.94002C16.6293 9.9333 16.6113 9.9211 16.5938 9.91335C16.5764 9.90562 16.5575 9.90207 16.5405 9.89335C16.5235 9.88463 16.5103 9.86971 16.4938 9.86002C16.4774 9.85035 16.463 9.84398 16.4472 9.83335C16.4313 9.82276 16.4158 9.81152 16.4005 9.80002C16.3853 9.78852 16.3684 9.77238 16.3538 9.76002C16.3393 9.74767 16.321 9.73987 16.3072 9.72668C16.2933 9.71353 16.2802 9.70062 16.2672 9.68668C16.2541 9.67275 16.2461 9.65467 16.2338 9.64002C16.2216 9.62536 16.2052 9.6087 16.1938 9.59335C16.1825 9.57802 16.1776 9.56265 16.1672 9.54668C16.1567 9.53073 16.1434 9.51656 16.1338 9.50002C16.1243 9.48349 16.1158 9.47041 16.1072 9.45335C16.0986 9.4363 16.0881 9.41755 16.0805 9.40002C16.0729 9.3825 16.0605 9.36462 16.0605 9.34668C16.0605 9.32878 16.0405 9.31163 16.0405 9.29335C16.0405 9.27508 16.0272 9.25191 16.0272 9.23335C16.0272 9.21479 16.0138 9.19881 16.0138 9.18002C16.0138 9.16123 16.0072 9.13897 16.0072 9.12002C16.0072 9.10106 16.0005 9.08574 16.0005 9.06668C16.0005 9.04764 16.0005 9.02578 16.0005 9.00668C16.0005 8.98759 16.0005 8.97243 16.0005 8.95335C16.0005 8.93429 16.0072 8.91235 16.0072 8.89335C16.0072 8.87436 16.0138 8.85886 16.0138 8.84002C16.0138 8.82117 16.0272 8.79864 16.0272 8.78001C16.0272 8.76139 16.0405 8.74504 16.0405 8.72668C16.0405 8.70832 16.0538 8.69138 16.0538 8.67335C16.0538 8.65533 16.0665 8.63767 16.0738 8.62001C16.0811 8.60239 16.0922 8.58388 16.1005 8.56668C16.1088 8.54949 16.1179 8.53004 16.1272 8.51335C16.1364 8.49666 16.1436 8.48281 16.1538 8.46668C16.164 8.45055 16.176 8.43554 16.1872 8.42001C16.1983 8.4045 16.2085 8.38821 16.2205 8.37335C16.2325 8.3585 16.2477 8.34084 16.2605 8.32668C16.2733 8.31254 16.2869 8.30009 16.3005 8.28668C16.3141 8.2733 16.3262 8.25927 16.3405 8.24668C16.3549 8.2341 16.3721 8.2251 16.3872 8.21335C16.4022 8.20161 16.4182 8.19089 16.4338 8.18001C16.4496 8.16914 16.4642 8.15663 16.4805 8.14668C16.4968 8.13674 16.5103 8.12901 16.5272 8.12001C16.544 8.11101 16.5632 8.10138 16.5805 8.09335C16.5978 8.08533 16.6161 8.08036 16.6338 8.07335C16.6516 8.06633 16.6691 8.05334 16.6872 8.05334C16.7053 8.05334 16.7221 8.03335 16.7405 8.03335C16.759 8.03335 16.7752 8.02001 16.7939 8.02001C16.8126 8.02001 16.835 8.01334 16.8539 8.01334C16.8727 8.01334 16.8882 8.00668 16.9072 8.00668C16.9262 8.00668 16.9481 8.00001 16.9672 8.00001C16.9863 8.00001 17.0081 8.00001 17.0272 8.00001C17.0463 8.00001 17.0615 8.00668 17.0805 8.00668C17.0996 8.00668 17.1216 8.01334 17.1405 8.01334C17.1595 8.01334 17.1752 8.02001 17.1939 8.02001C17.2126 8.02001 17.2354 8.03335 17.2539 8.03335C17.2724 8.03335 17.289 8.04668 17.3072 8.04668C17.3254 8.04668 17.3427 8.0598 17.3605 8.06668C17.3784 8.07355 17.3965 8.08547 17.4139 8.09335C17.4313 8.10124 17.4503 8.10449 17.4672 8.11335C17.4841 8.12222 17.4975 8.1302 17.5139 8.14001C17.5303 8.14984 17.5448 8.16261 17.5606 8.17335C17.5763 8.1841 17.5921 8.19505 17.6072 8.20668C17.6224 8.2183 17.6394 8.23421 17.6539 8.24668C17.6684 8.25915 17.6802 8.26673 17.6939 8.28001C17.7076 8.29329 17.721 8.31265 17.7339 8.32668C17.7468 8.34073 17.7618 8.35193 17.7739 8.36668C17.786 8.38144 17.796 8.39791 17.8072 8.41335C17.8185 8.42878 17.8302 8.44397 17.8406 8.46001C17.8509 8.47606 17.8578 8.49007 17.8672 8.50668C17.8766 8.52331 17.8855 8.54289 17.8939 8.56001C17.9023 8.57714 17.9131 8.59577 17.9206 8.61335C17.928 8.63094 17.9406 8.64871 17.9406 8.66668C17.9406 8.68467 17.9606 8.7017 17.9606 8.72001C17.9606 8.73833 17.9739 8.75475 17.9739 8.77335C17.9739 8.79194 17.9872 8.80787 17.9872 8.82668C17.9872 8.84549 17.9939 8.86771 17.9939 8.88668C17.9939 8.90565 18.0006 8.92762 18.0006 8.94668C18.0006 8.96574 18.0006 8.98092 18.0006 9.00002C18.0006 9.01639 18.0006 9.037 18.0006 9.05335C18.0006 9.06971 17.9939 9.08373 17.9939 9.10002C17.9939 9.11633 17.9872 9.1305 17.9872 9.14668C17.9872 9.16289 17.9806 9.17729 17.9806 9.19335C17.9806 9.20941 17.9672 9.23081 17.9672 9.24668C17.9672 9.26257 17.9606 9.27768 17.9606 9.29335C17.9606 9.30902 17.9406 9.32461 17.9406 9.34002C17.9406 9.35544 17.9272 9.37156 17.9272 9.38668C17.9272 9.40181 17.9143 9.4119 17.9072 9.42668C17.9002 9.4415 17.8883 9.45893 17.8806 9.47335C17.8729 9.48779 17.869 9.49932 17.8606 9.51335C17.8521 9.52738 17.843 9.54642 17.8339 9.56002C17.8248 9.57361 17.8103 9.58689 17.8006 9.60002C17.7908 9.61316 17.7843 9.62073 17.7739 9.63335C17.7635 9.64599 17.7516 9.66126 17.7406 9.67335C17.7295 9.68546 17.7188 9.69515 17.7072 9.70668Z"   fill="currentColor" >
</path>
</svg>
