<svg xmlns="http://www.w3.org/2000/svg" xmlns:xlink="http://www.w3.org/1999/xlink" width="14.000152587890625" height="14" viewBox="0 0 14.000152587890625 14" fill="none"><g opacity="0.8"><path d="M2.3132 0C2.95191 0 3.53023 0.258924 3.94885 0.677558C4.36748 1.09619 4.62641 1.67449 4.62641 2.3132C4.62641 2.95191 4.36748 3.53024 3.94885 3.94885C3.53021 4.36748 2.95191 4.62641 2.3132 4.62641C1.67449 4.62641 1.09619 4.36748 0.677558 3.94885C0.258924 3.53022 0 2.95191 0 2.3132C0 1.67449 0.258924 1.09621 0.677558 0.677558C1.09619 0.258924 1.67449 0 2.3132 0ZM3.21729 1.40912C2.98596 1.17781 2.66627 1.0347 2.3132 1.0347C1.96009 1.0347 1.64045 1.17781 1.40912 1.40912C1.17779 1.64049 1.0347 1.96014 1.0347 2.3132C1.0347 2.66631 1.17779 2.98596 1.40912 3.21729C1.64049 3.44862 1.96014 3.59171 2.3132 3.59171C2.66631 3.59171 2.98596 3.44862 3.21729 3.21729C3.44862 2.98596 3.59171 2.66629 3.59171 2.3132C3.59171 1.96009 3.44862 1.64045 3.21729 1.40912ZM6.46607 2.83053C6.18037 2.83053 5.94873 2.59891 5.94871 2.31318C5.94871 2.02748 6.18033 1.79583 6.46607 1.79583L12.6421 1.79583C12.9278 1.79583 13.1594 2.02743 13.1594 2.31318C13.1594 2.59889 12.9278 2.83053 12.6421 2.83053L6.46607 2.83053ZM2.3132 9.37357C2.95191 9.37357 3.53023 9.6325 3.94885 10.0512C4.36748 10.4698 4.62641 11.0481 4.62641 11.6868C4.62641 12.3255 4.36748 12.9038 3.94885 13.3224C3.53021 13.7411 2.95191 14 2.3132 14C1.67449 14 1.09619 13.7411 0.677558 13.3224C0.258924 12.9038 0 12.3255 0 11.6868C0 11.0481 0.258924 10.4698 0.677558 10.0512C1.09619 9.6325 1.67449 9.37357 2.3132 9.37357ZM3.21729 10.7827C2.98596 10.5514 2.66627 10.4083 2.3132 10.4083C1.96009 10.4083 1.64045 10.5514 1.40912 10.7827C1.17779 11.0141 1.0347 11.3337 1.0347 11.6868C1.0347 12.0399 1.17779 12.3595 1.40912 12.5909C1.64049 12.8222 1.96014 12.9653 2.3132 12.9653C2.66631 12.9653 2.98596 12.8222 3.21729 12.5909C3.44862 12.3595 3.59171 12.0399 3.59171 11.6868C3.59171 11.3337 3.44862 11.014 3.21729 10.7827ZM6.46607 12.2041C6.18037 12.2041 5.94873 11.9725 5.94871 11.6868C5.94871 11.401 6.18033 11.1694 6.46607 11.1694L12.6421 11.1694C12.9278 11.1694 13.1594 11.401 13.1594 11.6868C13.1594 11.9725 12.9278 12.2041 12.6421 12.2041L6.46607 12.2041ZM10.8462 5.72145C10.4931 5.72145 10.1735 5.86456 9.94216 6.09589C9.71083 6.32724 9.56772 6.64689 9.56772 6.99996C9.56772 7.35307 9.71083 7.67272 9.94216 7.90404C10.1735 8.13537 10.4932 8.27847 10.8462 8.27847C11.1993 8.27847 11.519 8.13537 11.7503 7.90404C11.9816 7.67272 12.1248 7.35305 12.1248 6.99996C12.1248 6.64685 11.9816 6.32722 11.7503 6.09589C11.519 5.86456 11.1993 5.72145 10.8462 5.72145ZM9.21058 5.36431C9.62924 4.94568 10.2075 4.68675 10.8462 4.68675C11.485 4.68675 12.0633 4.94568 12.4819 5.36431C12.9005 5.78297 13.1594 6.36125 13.1594 6.99996C13.1594 7.63869 12.9005 8.21699 12.4819 8.6356C12.0632 9.05424 11.485 9.31318 10.8462 9.31318C10.2075 9.31318 9.62924 9.05424 9.21058 8.6356C8.79195 8.21697 8.53302 7.63869 8.53302 6.99996C8.53302 6.36125 8.79195 5.78297 9.21058 5.36431ZM6.69337 6.48265C6.97908 6.48265 7.21072 6.71425 7.21072 7C7.21072 7.28571 6.9791 7.51735 6.69337 7.51735L0.517348 7.51735C0.231642 7.51735 0 7.28573 0 7C0 6.71429 0.2316 6.48265 0.517348 6.48265L6.69337 6.48265Z"   fill="#333333" ></path></g></svg>