<svg xmlns="http://www.w3.org/2000/svg" xmlns:xlink="http://www.w3.org/1999/xlink" width="24" height="24" viewBox="0 0 24 24">
<path d="M10.0221 5.78339C10.0221 4.36875 8.87137 3.21802 7.45673 3.21802C6.04212 3.21802 4.89136 4.36875 4.89136 5.78339C4.89136 7.19803 6.04212 8.34877 7.45673 8.34877C8.87137 8.34877 10.0221 7.19803 10.0221 5.78339Z"   fill="currentColor" >
</path>
<path d="M6.13112 8.55724C4.26941 9.14796 3.0542 10.945 3.0542 12.8982L3.0542 15.995C3.0542 16.147 3.17851 16.2713 3.33043 16.2713L4.81907 16.2713L4.81907 20.011C4.81907 20.1387 4.92259 20.2422 5.05025 20.2422L9.88248 20.2422C10.0101 20.2422 10.1137 20.1387 10.1137 20.011L10.1137 16.2713L11.2627 16.2713C11.6014 16.2713 11.8785 15.9941 11.8785 15.6554L11.8785 12.6244C11.8785 9.82859 8.9886 7.65056 6.13112 8.55724Z"   fill="currentColor" >
</path>
<path d="M19.4286 6.63849C19.4286 5.22385 18.2779 4.07312 16.8632 4.07312C15.4485 4.07312 14.2979 5.22385 14.2979 6.63849C14.2979 8.05313 15.4485 9.20387 16.8632 9.20387C18.2779 9.20387 19.4286 8.05313 19.4286 6.63849Z"   fill="currentColor" >
</path>
<path d="M20.9531 16.6924L19.6571 11.5993C19.3756 10.2118 18.1331 9.20386 16.7029 9.20386C15.2728 9.20386 14.0302 10.2118 13.7596 11.5521L12.4528 16.6924C12.3897 16.9451 12.4448 17.2123 12.6027 17.419C12.7605 17.6261 13.0039 17.7493 13.264 17.7551C13.264 17.7551 13.9008 17.7684 14.4031 17.7706C14.565 18.2553 14.8064 18.9678 15.0249 19.6598C15.1346 20.007 15.4578 20.2422 15.8219 20.2422L17.5894 20.2422C17.9506 20.2422 18.2709 20.0085 18.3796 19.6641C18.5985 18.9704 18.841 18.2367 19.0036 17.751C19.5055 17.7489 20.1419 17.7453 20.1419 17.7453C20.402 17.7395 20.6454 17.6212 20.8032 17.4141C20.9611 17.2074 21.0161 16.9451 20.9531 16.6924Z"   fill="currentColor" >
</path>
</svg>
