<svg xmlns="http://www.w3.org/2000/svg" xmlns:xlink="http://www.w3.org/1999/xlink" width="80" height="80" viewBox="0 0 80 80" fill="none">
<path d="M71.9959 28.0959L61.1662 37.6758C61.9053 38.4935 62.6475 39.3509 63.392 40.2505L74.5323 31.0291C73.6912 30.0135 72.8459 29.0366 71.9959 28.0959ZM5.51837 33.694L18.0496 40.9127L18.0373 40.9334C18.0507 40.9108 18.8623 39.5358 20.3447 37.6124L7.72423 30.3426C6.41564 32.1631 5.66759 33.435 5.51837 33.694ZM40.8976 20.7506C40.971 20.7506 41.0437 20.7488 41.1171 20.7456C43.9913 20.6113 46.8273 17.7583 49.421 12.4388C45.4609 11.2409 41.4675 10.8046 37.4878 11.1419C35.2796 11.3288 33.0857 11.7542 30.9185 12.4134C33.0563 15.8603 36.9577 20.7506 40.8976 20.7506ZM69.7076 25.6645C65.1413 21.0134 60.467 17.4445 55.7558 15.0204C54.7023 14.4786 53.6445 13.9927 52.5835 13.5607C51.1859 16.4874 49.6913 18.813 48.1198 20.5001C46.0124 22.763 43.707 23.9673 41.2671 24.0794C41.1402 24.0852 41.0124 24.0882 40.8851 24.0882C37.4835 24.0882 34.0652 22.0013 30.7181 17.8796C29.4377 16.3031 28.416 14.7257 27.724 13.5632C26.3254 14.1457 24.9408 14.8269 23.5744 15.607C20.159 17.5566 16.8545 20.1224 13.7527 23.2327C12.217 24.7726 10.887 26.2876 9.76782 27.6684L22.5117 35.0092C22.6678 34.8358 22.8283 34.6609 22.9916 34.4854L22.9916 64.2224L57.7546 64.2224L57.7546 34.1795C58.1241 34.5286 58.4941 34.8858 58.8648 35.2557L69.7076 25.6645Z"   fill="currentColor" >
</path>
</svg>
