<svg xmlns="http://www.w3.org/2000/svg" xmlns:xlink="http://www.w3.org/1999/xlink" width="16" height="16" viewBox="0 0 16 16" fill="none"><path   fill-rule="evenodd"  fill="currentColor"  d="M6.63 3.9965C6.4752 3.23584 5.8064 2.6665 5 2.6665C4.1936 2.6665 3.5248 3.23584 3.37 3.9965L2.33 3.9965C2.1452 3.9965 2 4.1525 2 4.3365C2 4.5205 2.1452 4.6665 2.33 4.6665L3.37 4.6665C3.5248 5.42717 4.1936 5.9965 5 5.9965C5.8064 5.9965 6.4752 5.42717 6.63 4.6665L13.67 4.6665C13.8548 4.6665 14 4.5205 14 4.3365C14 4.1525 13.8548 3.9965 13.67 3.9965L6.63 3.9965ZM6 4.3335C6 3.7813 5.5522 3.3335 5 3.3335C4.4478 3.3335 4 3.7813 4 4.3335C4 4.8857 4.4478 5.3335 5 5.3335C5.5522 5.3335 6 4.8857 6 4.3335ZM12.63 7.33C12.4752 6.56934 11.8064 6 11 6C10.1936 6 9.5248 6.56934 9.37 7.33L2.33 7.33C2.1452 7.33 2 7.486 2 7.67C2 7.854 2.1452 8 2.33 8L9.37 8C9.5248 8.76067 10.1936 9.33 11 9.33C11.8064 9.33 12.4752 8.76067 12.63 8L13.67 8C13.8548 8 14 7.854 14 7.67C14 7.486 13.8548 7.33 13.67 7.33L12.63 7.33ZM11 6.6665C11.5522 6.6665 12 7.1143 12 7.6665C12 8.2187 11.5522 8.6665 11 8.6665C10.4478 8.6665 10 8.2187 10 7.6665C10 7.1143 10.4478 6.6665 11 6.6665ZM8.63 10.6635C8.4752 9.90284 7.8064 9.3335 7 9.3335C6.1936 9.3335 5.5236 9.90284 5.37 10.6635L2.33 10.6635C2.1452 10.6635 2 10.8195 2 11.0035C2 11.1875 2.1452 11.3335 2.33 11.3335L5.37 11.3335C5.5236 12.0942 6.1936 12.6635 7 12.6635C7.8064 12.6635 8.4752 12.0942 8.63 11.3335L13.67 11.3335C13.8548 11.3335 14 11.1875 14 11.0035C14 10.8195 13.8548 10.6635 13.67 10.6635L8.63 10.6635ZM7 10C7.5522 10 8 10.4478 8 11C8 11.5522 7.5522 12 7 12C6.4478 12 6 11.5522 6 11C6 10.4478 6.4478 10 7 10Z"></path></svg>