<svg xmlns="http://www.w3.org/2000/svg" xmlns:xlink="http://www.w3.org/1999/xlink" width="24" height="24" viewBox="0 0 24 24" fill="none"><path d="M6.75 19.5L2.25 19.5C1.8 19.5 1.5 19.2 1.5 18.75C1.5 18.3 1.8 18 2.25 18L6 18L6 13.875L1.8 11.1C1.65 10.95 1.5 10.725 1.5 10.5L1.5 5.25C1.5 4.8 1.8 4.5 2.25 4.5L6.75 4.5C7.2 4.5 7.5 4.8 7.5 5.25C7.5 5.7 7.2 6 6.75 6L3 6L3 10.125L7.2 12.9C7.35 13.05 7.5 13.275 7.5 13.5L7.5 18.75C7.5 19.2 7.2 19.5 6.75 19.5ZM14.25 19.5L9.75 19.5C9.3 19.5 9 19.2 9 18.75L9 5.25C9 4.8 9.3 4.5 9.75 4.5L14.25 4.5C14.7 4.5 15 4.8 15 5.25L15 18.75C15 19.2 14.7 19.5 14.25 19.5ZM10.5 18L13.5 18L13.5 6L10.5 6L10.5 18ZM17.25 19.5C16.8 19.5 16.5 19.2 16.5 18.75L16.5 5.25C16.5 4.8 16.8 4.5 17.25 4.5L21.75 4.5C22.2 4.5 22.5 4.8 22.5 5.25L22.5 12C22.5 12.45 22.2 12.75 21.75 12.75L18 12.75L18 18.75C18 19.2 17.7 19.5 17.25 19.5ZM18 11.25L21 11.25L21 6L18 6L18 11.25Z"   fill="#000000" ></path></svg>