<svg xmlns="http://www.w3.org/2000/svg" width="17" height="16" viewBox="0 0 17 16" fill="none"><path d="M5.70479 1.60146C5.40804 0.799513 4.27378 0.799513 3.97703 1.60146L3.58317 2.66586C3.51163 2.85919 3.35919 3.01163 3.16586 3.08317L2.10146 3.47703C1.29951 3.77378 1.29951 4.90804 2.10146 5.20479L3.16586 5.59865C3.35919 5.67019 3.51163 5.82262 3.58317 6.01596L3.97703 7.08036C4.27378 7.88231 5.40804 7.88231 5.70479 7.08036L6.09865 6.01596C6.17019 5.82262 6.32262 5.67019 6.51596 5.59865L7.58036 5.20479C8.38231 4.90804 8.38231 3.77378 7.58036 3.47703L6.51596 3.08317C6.32262 3.01163 6.17019 2.85919 6.09865 2.66586L5.70479 1.60146Z" fill="url(#paint0_linear_50287_272636)"></path><path d="M11.4439 5.53867C11.0885 4.57802 9.72973 4.57802 9.37426 5.53867L8.8468 6.9641C8.60976 7.60469 8.10469 8.10976 7.4641 8.3468L6.03867 8.87426C5.07802 9.22973 5.07802 10.5885 6.03867 10.9439L7.4641 11.4714C8.10469 11.7084 8.60976 12.2135 8.8468 12.8541L9.37426 14.2795C9.72973 15.2402 11.0885 15.2402 11.4439 14.2795L11.9714 12.8541C12.2084 12.2135 12.7135 11.7084 13.3541 11.4714L14.7795 10.9439C15.7402 10.5885 15.7402 9.22973 14.7795 8.87426L13.3541 8.3468C12.7135 8.10976 12.2084 7.60469 11.9714 6.9641L11.4439 5.53867Z" fill="url(#paint1_linear_50287_272636)"></path><defs><linearGradient id="paint0_linear_50287_272636" x1="1" y1="2" x2="12.5" y2="11.5" gradientUnits="userSpaceOnUse"><stop stop-color="#0DFF05"></stop><stop offset="1" stop-color="#26FBFF"></stop></linearGradient><linearGradient id="paint1_linear_50287_272636" x1="1" y1="2" x2="12.5" y2="11.5" gradientUnits="userSpaceOnUse"><stop stop-color="#0DFF05"></stop><stop offset="1" stop-color="#26FBFF"></stop></linearGradient></defs></svg>