<svg xmlns="http://www.w3.org/2000/svg" width="20" height="20" viewBox="0 0 20 20" fill="currentColor">
  <path d="M0 10C0 4.47715 4.47715 0 10 0C15.5228 0 20 4.47715 20 10C20 15.5228 15.5228 20 10 20C4.47715 20 0 15.5228 0 10Z" fill="currentColor" fill-opacity="0.2"/>
  <path d="M10 0.5C15.2467 0.5 19.5 4.7533 19.5 10C19.5 15.2467 15.2467 19.5 10 19.5C4.7533 19.5 0.5 15.2467 0.5 10C0.5 4.7533 4.7533 0.5 10 0.5Z" stroke="currentColor" stroke-opacity="0.3"/>
  <path opacity="1" d="M7 10L9 12L13 8" stroke="white"/>
</svg>