<svg xmlns="http://www.w3.org/2000/svg" xmlns:xlink="http://www.w3.org/1999/xlink" width="24" height="24" viewBox="0 0 24 24" fill="none"><path d="M21.691 11.6647L14.4699 4.33115L14.4652 4.32646C12.8199 2.70459 11.6293 1.53271 9.56914 1.53271L6.27383 1.53271C4.27227 1.53271 3.06758 1.90068 2.36445 2.72568C1.60742 3.61631 1.50195 5.03193 1.50195 6.43115L1.50195 9.93506C1.50195 10.9194 1.60508 11.5124 1.86758 12.0491C2.13711 12.5952 2.57773 13.078 3.29727 13.7788L11.4395 21.7405C11.9152 22.2046 12.6066 22.4366 13.2957 22.4366C13.9824 22.4366 14.6715 22.2069 15.1473 21.7452L21.698 15.3655C22.1785 14.9015 22.4527 14.2312 22.4527 13.5233C22.4551 12.8132 22.1762 12.1358 21.691 11.6647ZM20.4254 14.053L13.8746 20.4304C13.7387 20.564 13.5254 20.639 13.2934 20.639C13.0613 20.639 12.8504 20.5616 12.7145 20.4304L4.57227 12.4616C3.35586 11.2851 3.32773 11.1632 3.32773 9.92803L3.32773 6.42646C3.32773 4.99678 3.38867 4.29131 3.75664 3.8835C4.15273 3.44521 4.97773 3.3585 6.26914 3.3585L9.55508 3.3585C10.8254 3.3585 11.5848 4.05693 13.1832 5.63662L13.8465 6.2835L20.3996 12.9608L20.402 12.9632C20.5449 13.0991 20.6246 13.2983 20.6246 13.5233C20.6246 13.7366 20.552 13.9312 20.4254 14.053Z"   fill="#000000" ></path><path d="M7.79492 5.13989C6.32773 5.13989 5.13477 6.33286 5.13477 7.80005C5.13477 9.26724 6.32773 10.4602 7.79492 10.4602C9.26211 10.4602 10.4551 9.26724 10.4551 7.80005C10.4551 6.33286 9.26211 5.13989 7.79492 5.13989ZM7.79492 8.58521C7.36133 8.58521 7.00977 8.23364 7.00977 7.80005C7.00977 7.36646 7.36133 7.01489 7.79492 7.01489C8.22852 7.01489 8.58008 7.36646 8.58008 7.80005C8.58008 8.23364 8.22852 8.58521 7.79492 8.58521Z"   fill="#000000" ></path></svg>