<svg xmlns="http://www.w3.org/2000/svg" xmlns:xlink="http://www.w3.org/1999/xlink" width="24" height="24" viewBox="0 0 24 24" fill="none">
<path     fill="#FFFFFF"  d="M0 24L24 24L24 0L0 0L0 24Z">
</path>
<path d="M19 6L19 11.38C19 11.8223 18.8223 12.2468 18.51 12.56L12.56 18.51C11.9093 19.1606 10.8507 19.1606 10.2 18.51L5.49 13.8C4.83942 13.1493 4.83942 12.0907 5.49 11.44L11.44 5.49C11.7532 5.17766 12.1777 5 12.62 5L18 5C18.5522 5 19 5.44784 19 6ZM16.6718 8.6619C16.6718 9.01547 16.5318 9.36191 16.2818 9.6119C16.0318 9.86192 15.6854 10.0019 15.3318 10.0019C14.5955 10.0019 14.0018 9.39816 14.0018 8.6619C14.0018 7.92564 14.5955 7.3319 15.3318 7.3319C16.0681 7.3319 16.6718 7.92564 16.6718 8.6619Z" fill-rule="evenodd"  fill="currentColor" >
</path>
</svg>
