<svg xmlns="http://www.w3.org/2000/svg" width="14" height="14" viewBox="0 0 14 14" fill="none">
  <path opacity="0.8" d="M6.99967 5.2474C8.12726 5.2474 9.04134 4.33331 9.04134 3.20573C9.04134 2.07815 8.12726 1.16406 6.99967 1.16406C5.87209 1.16406 4.95801 2.07815 4.95801 3.20573C4.95801 4.33331 5.87209 5.2474 6.99967 5.2474Z" fill="currentColor"/>
  <path opacity="0.8" d="M3.20866 12.2474C4.33624 12.2474 5.25033 11.3333 5.25033 10.2057C5.25033 9.07815 4.33624 8.16406 3.20866 8.16406C2.08108 8.16406 1.16699 9.07815 1.16699 10.2057C1.16699 11.3333 2.08108 12.2474 3.20866 12.2474Z" fill="currentColor"/>
  <path opacity="0.8" d="M10.7917 12.2474C11.9192 12.2474 12.8333 11.3333 12.8333 10.2057C12.8333 9.07815 11.9192 8.16406 10.7917 8.16406C9.66409 8.16406 8.75 9.07815 8.75 10.2057C8.75 11.3333 9.66409 12.2474 10.7917 12.2474Z" fill="currentColor"/>
  <path opacity="0.5" d="M10.7796 7.67385L11.9463 7.61552C11.8704 6.05802 11.0479 4.60552 9.74711 3.74219L9.09961 4.71052C10.0971 5.37552 10.7271 6.48385 10.7854 7.67385H10.7796Z" fill="currentColor"/>
  <path opacity="0.5" d="M4.90038 4.71052L4.25288 3.74219C2.95204 4.61135 2.12954 6.05802 2.05371 7.61552L3.22038 7.67385C3.27871 6.48385 3.90871 5.37552 4.90621 4.71052H4.90038Z" fill="currentColor"/>
  <path opacity="0.5" d="M5.46569 11.3438L4.99902 12.4112C5.63486 12.6913 6.31152 12.8312 6.99986 12.8312C7.68819 12.8312 8.36486 12.6913 9.00069 12.4112L8.53402 11.3438C7.55402 11.7754 6.44569 11.7754 5.46569 11.3438Z" fill="currentColor"/>
</svg>