<svg xmlns="http://www.w3.org/2000/svg" xmlns:xlink="http://www.w3.org/1999/xlink" width="16" height="16" viewBox="0 0 16 16" fill="none"><path d="M8 2C11.3137 2 14 4.68629 14 8C14 11.3137 11.3137 14 8 14C6.9788 14 6.01715 13.7449 5.17537 13.2949L2 14L2.70577 10.8258C2.25537 9.98378 2 9.02168 2 8C2 4.68629 4.68629 2 8 2ZM8 3.2C5.34903 3.2 3.2 5.34903 3.2 8C3.2 8.80082 3.39538 9.57086 3.76392 10.2598L3.97371 10.6521L3.58067 12.4198L5.34913 12.0271L5.74111 12.2366C6.42989 12.6048 7.19954 12.8 8 12.8C10.651 12.8 12.8 10.651 12.8 8C12.8 5.34903 10.651 3.2 8 3.2ZM8.6 5L8.6 8L11 8L11 9.2L7.4 9.2L7.4 5L8.6 5Z"   fill="currentColor" ></path></svg>