<svg xmlns="http://www.w3.org/2000/svg" xmlns:xlink="http://www.w3.org/1999/xlink" width="24" height="24" viewBox="0 0 24 24" fill="none">
<path d="M17.5545 14.314L18.5061 15.8075C18.7118 16.1311 18.7248 16.5412 18.5397 16.877C18.3546 17.2129 18.001 17.4211 17.6175 17.42L6.04904 17.42C5.66614 17.4199 5.31373 17.2112 5.12946 16.8755C4.94518 16.5399 4.95844 16.1306 5.1639 15.8075L6.10495 14.3245C6.199 14.1761 6.25436 14.0066 6.26584 13.8313L6.61566 8.67556C6.80307 5.801 9.27338 3.61509 12.1498 3.77862C14.8201 3.98078 16.9246 6.13461 17.0649 8.80851L17.3936 13.8208C17.4051 13.9961 17.4605 14.1656 17.5545 14.314ZM10.0218 18.8226C10.1451 18.607 10.3739 18.4727 10.6228 18.47L13.047 18.47C13.2959 18.4727 13.5247 18.607 13.648 18.8226C13.7713 19.0382 13.7705 19.3029 13.646 19.5179C13.2682 20.1574 12.5793 20.55 11.8349 20.55C11.0905 20.55 10.4016 20.1574 10.0238 19.5179C9.89931 19.3029 9.89854 19.0382 10.0218 18.8226Z" fill-rule="evenodd"  fill="currentColor" >
</path>
</svg>
