<svg xmlns="http://www.w3.org/2000/svg" xmlns:xlink="http://www.w3.org/1999/xlink" width="24" height="24" viewBox="0 0 24 24" fill="none">
<path d="M10.2656 2.625L13.7812 2.625C14.4063 2.625 14.7188 2.9375 14.7188 3.5625C14.7188 4.1875 14.4063 4.5 13.7812 4.5L10.2656 4.5C9.64062 4.5 9.32812 4.1875 9.32812 3.5625C9.32812 2.9375 9.64062 2.625 10.2656 2.625Z"   fill="#727D8F" >
</path>
<path d="M11.4609 1.5L12.5859 1.5C13.2109 1.5 13.5234 1.8125 13.5234 2.4375C13.5234 3.0625 13.2109 3.375 12.5859 3.375L11.4609 3.375C10.8359 3.375 10.5234 3.0625 10.5234 2.4375C10.5234 1.8125 10.8359 1.5 11.4609 1.5Z"   fill="#727D8F" >
</path>
<path d="M20.2969 22.5L3.70312 22.5C3.67934 22.5 3.65559 22.4994 3.63185 22.4982C3.6081 22.497 3.5844 22.4952 3.56074 22.4928C3.53709 22.4905 3.5135 22.4876 3.48998 22.4841C3.46647 22.4805 3.44306 22.4765 3.41974 22.4718C3.39643 22.4671 3.37325 22.4619 3.3502 22.4561C3.32714 22.4503 3.30423 22.444 3.28148 22.4371C3.25873 22.4302 3.23617 22.4227 3.2138 22.4147C3.19142 22.4066 3.16925 22.3981 3.14728 22.389C3.12533 22.3798 3.10361 22.3702 3.08212 22.36C3.06064 22.3498 3.03941 22.3391 3.01845 22.3279C2.99749 22.3167 2.97682 22.305 2.95643 22.2928C2.93604 22.2805 2.91596 22.2678 2.8962 22.2546C2.87643 22.2414 2.857 22.2277 2.83791 22.2135C2.81881 22.1994 2.80008 22.1847 2.7817 22.1696C2.76333 22.1546 2.74534 22.139 2.72773 22.1231C2.71012 22.1071 2.69291 22.0907 2.67609 22.0739C2.65928 22.0571 2.64289 22.0399 2.62692 22.0223C2.61095 22.0047 2.59543 21.9867 2.58035 21.9683C2.56526 21.9499 2.55063 21.9312 2.53648 21.9121C2.5223 21.893 2.50861 21.8736 2.49539 21.8538C2.48219 21.834 2.46947 21.814 2.45723 21.7936C2.445 21.7732 2.43327 21.7525 2.42205 21.7316C2.41085 21.7106 2.40016 21.6894 2.38997 21.6679C2.3798 21.6464 2.37016 21.6247 2.36105 21.6027C2.35194 21.5808 2.34337 21.5586 2.33535 21.5362C2.32733 21.5138 2.31986 21.4913 2.31294 21.4685C2.30602 21.4458 2.29967 21.4229 2.29387 21.3998C2.28808 21.3768 2.28285 21.3536 2.27819 21.3303C2.27354 21.3069 2.26945 21.2835 2.26594 21.26C2.26243 21.2365 2.2595 21.2129 2.25715 21.1893C2.25479 21.1656 2.25302 21.1419 2.25183 21.1181C2.25064 21.0944 2.25003 21.0706 2.25 21.0469L2.25 4.45312C2.25003 4.42934 2.25064 4.40559 2.25183 4.38185C2.25302 4.3581 2.25479 4.3344 2.25715 4.31074C2.2595 4.28709 2.26243 4.2635 2.26594 4.23998C2.26945 4.21647 2.27354 4.19306 2.27819 4.16974C2.28285 4.14643 2.28808 4.12325 2.29387 4.1002C2.29967 4.07714 2.30602 4.05423 2.31294 4.03148C2.31986 4.00873 2.32733 3.98617 2.33535 3.9638C2.34337 3.94142 2.35194 3.91925 2.36105 3.89728C2.37016 3.87533 2.3798 3.85361 2.38997 3.83212C2.40016 3.81064 2.41085 3.78941 2.42205 3.76845C2.43327 3.74749 2.445 3.72682 2.45723 3.70643C2.46947 3.68604 2.48219 3.66596 2.49539 3.6462C2.50861 3.62643 2.5223 3.607 2.53648 3.58791C2.55063 3.56881 2.56526 3.55008 2.58035 3.5317C2.59543 3.51333 2.61095 3.49534 2.62692 3.47773C2.64289 3.46012 2.65928 3.44291 2.67609 3.42609C2.69291 3.40928 2.71012 3.39289 2.72773 3.37692C2.74534 3.36095 2.76333 3.34543 2.7817 3.33035C2.80008 3.31526 2.81881 3.30063 2.83791 3.28648C2.857 3.2723 2.87643 3.25861 2.8962 3.24539C2.91596 3.23219 2.93604 3.21947 2.95643 3.20723C2.97682 3.195 2.99749 3.18327 3.01845 3.17205C3.03941 3.16085 3.06064 3.15016 3.08212 3.13997C3.10361 3.1298 3.12533 3.12016 3.14728 3.11105C3.16925 3.10194 3.19142 3.09337 3.2138 3.08536C3.23617 3.07733 3.25873 3.06985 3.28148 3.06293C3.30423 3.05602 3.32714 3.04967 3.3502 3.04387C3.37325 3.03808 3.39643 3.03285 3.41974 3.0282C3.44306 3.02354 3.46647 3.01945 3.48998 3.01594C3.5135 3.01244 3.53709 3.00951 3.56074 3.00715C3.5844 3.00479 3.6081 3.00302 3.63185 3.00183C3.65559 3.00064 3.67934 3.00003 3.70312 3L8.27344 3C8.28572 3 8.29798 3.0003 8.31023 3.00091C8.32249 3.00151 8.33475 3.00241 8.34696 3.00361C8.35917 3.00481 8.37134 3.00631 8.38348 3.00811C8.39562 3.00992 8.40771 3.01202 8.41976 3.01441C8.43178 3.0168 8.44376 3.01949 8.45566 3.02248C8.46757 3.02546 8.47941 3.02873 8.49115 3.0323C8.50289 3.03586 8.51454 3.03971 8.52609 3.04385C8.53765 3.04798 8.54911 3.05239 8.56045 3.05709C8.5718 3.06178 8.58302 3.06675 8.59411 3.072C8.6052 3.07725 8.61616 3.08277 8.62699 3.08857C8.6378 3.09435 8.64848 3.1004 8.65901 3.10671C8.66953 3.11302 8.67991 3.11959 8.69011 3.1264C8.7003 3.13321 8.71033 3.14027 8.7202 3.14759C8.73007 3.1549 8.73975 3.16245 8.74924 3.17025C8.75873 3.17803 8.76801 3.18605 8.77711 3.1943C8.7862 3.20253 8.79509 3.21099 8.80376 3.21968C8.81245 3.22835 8.82091 3.23723 8.82914 3.24633C8.83739 3.25542 8.84541 3.26471 8.85319 3.2742C8.86099 3.28369 8.86854 3.29337 8.87585 3.30323C8.88316 3.31309 8.89022 3.32313 8.89704 3.33333C8.90386 3.34353 8.91042 3.3539 8.91673 3.36443C8.92303 3.37496 8.92908 3.38563 8.93487 3.39645C8.94066 3.40727 8.94619 3.41824 8.95144 3.42933C8.95666 3.44042 8.96163 3.45164 8.96634 3.46298C8.97105 3.47433 8.97546 3.48578 8.97959 3.49734C8.98373 3.50889 8.98758 3.52054 8.99114 3.53229C8.9947 3.54404 8.99798 3.55587 9.00096 3.56777C9.00394 3.57968 9.00663 3.59165 9.00902 3.60368C9.01141 3.61573 9.01352 3.62782 9.01533 3.63996C9.01713 3.6521 9.01863 3.66427 9.01983 3.67648C9.02102 3.68869 9.02194 3.70094 9.02252 3.7132C9.02313 3.72545 9.02344 3.73772 9.02344 3.75C9.02344 3.76228 9.02313 3.77455 9.02252 3.7868C9.02194 3.79906 9.02102 3.81131 9.01983 3.82352C9.01863 3.83573 9.01713 3.8479 9.01533 3.86004C9.01352 3.87218 9.01141 3.88427 9.00902 3.89632C9.00663 3.90835 9.00394 3.92032 9.00096 3.93223C8.99798 3.94413 8.9947 3.95596 8.99114 3.96771C8.98758 3.97946 8.98373 3.99111 8.97959 4.00266C8.97546 4.01422 8.97105 4.02567 8.96634 4.03702C8.96163 4.04836 8.95666 4.05958 8.95144 4.07067C8.94619 4.08176 8.94066 4.09273 8.93487 4.10355C8.92908 4.11437 8.92303 4.12504 8.91673 4.13557C8.91042 4.1461 8.90386 4.15647 8.89704 4.16667C8.89022 4.17687 8.88316 4.18691 8.87585 4.19677C8.86854 4.20663 8.86099 4.21631 8.85319 4.2258C8.84541 4.23529 8.83739 4.24458 8.82914 4.25367C8.82091 4.26277 8.81245 4.27165 8.80376 4.28032C8.79509 4.28901 8.7862 4.29747 8.77711 4.3057C8.76801 4.31395 8.75873 4.32197 8.74924 4.32975C8.73975 4.33755 8.73007 4.3451 8.7202 4.35241C8.71033 4.35973 8.7003 4.36679 8.69011 4.3736C8.67991 4.38041 8.66953 4.38698 8.65901 4.39329C8.64848 4.3996 8.6378 4.40565 8.62699 4.41143C8.61616 4.41723 8.6052 4.42275 8.59411 4.428C8.58302 4.43325 8.5718 4.43822 8.56045 4.44291C8.54911 4.44761 8.53765 4.45202 8.52609 4.45615C8.51454 4.46029 8.50289 4.46414 8.49115 4.4677C8.47941 4.47127 8.46757 4.47454 8.45566 4.47752C8.44376 4.48051 8.43178 4.4832 8.41976 4.48559C8.40771 4.48798 8.39562 4.49008 8.38348 4.49189C8.37134 4.49369 8.35917 4.49519 8.34696 4.49639C8.33475 4.49759 8.32249 4.49849 8.31023 4.49909C8.29798 4.4997 8.28572 4.5 8.27344 4.5L3.75 4.5L3.75 21L20.25 21L20.25 4.5L15.7734 4.5C15.7612 4.5 15.7489 4.4997 15.7366 4.49909C15.7244 4.49849 15.7121 4.49759 15.6999 4.49639C15.6877 4.49519 15.6755 4.49369 15.6634 4.49189C15.6513 4.49008 15.6392 4.48798 15.6271 4.48559C15.6151 4.4832 15.6031 4.48051 15.5912 4.47752C15.5793 4.47454 15.5675 4.47127 15.5557 4.4677C15.544 4.46414 15.5323 4.46029 15.5208 4.45615C15.5092 4.45202 15.4978 4.44761 15.4864 4.44291C15.4751 4.43822 15.4639 4.43325 15.4528 4.428C15.4417 4.42275 15.4307 4.41723 15.4199 4.41143C15.4091 4.40565 15.3984 4.3996 15.3879 4.39329C15.3773 4.38698 15.367 4.38041 15.3568 4.3736C15.3465 4.36679 15.3365 4.35973 15.3267 4.35241C15.3168 4.3451 15.3071 4.33755 15.2976 4.32975C15.2881 4.32197 15.2789 4.31395 15.2698 4.3057C15.2607 4.29747 15.2518 4.28901 15.2431 4.28032C15.2344 4.27165 15.226 4.26277 15.2177 4.25367C15.2095 4.24458 15.2015 4.23529 15.1937 4.2258C15.1859 4.21631 15.1783 4.20663 15.171 4.19677C15.1637 4.18691 15.1567 4.17687 15.1498 4.16667C15.143 4.15647 15.1365 4.1461 15.1301 4.13557C15.1238 4.12504 15.1178 4.11437 15.112 4.10355C15.1062 4.09273 15.1007 4.08176 15.0954 4.07067C15.0902 4.05958 15.0852 4.04836 15.0805 4.03702C15.0758 4.02567 15.0714 4.01422 15.0673 4.00266C15.0631 3.99111 15.0593 3.97946 15.0557 3.96771C15.0522 3.95596 15.0489 3.94413 15.0459 3.93223C15.0429 3.92032 15.0402 3.90835 15.0379 3.89632C15.0355 3.88427 15.0334 3.87218 15.0315 3.86004C15.0297 3.8479 15.0282 3.83573 15.027 3.82352C15.0259 3.81131 15.0249 3.79906 15.0244 3.7868C15.0237 3.77455 15.0234 3.76228 15.0234 3.75C15.0234 3.73772 15.0237 3.72545 15.0244 3.7132C15.0249 3.70094 15.0259 3.68869 15.027 3.67648C15.0282 3.66427 15.0297 3.6521 15.0315 3.63996C15.0334 3.62782 15.0355 3.61573 15.0379 3.60368C15.0402 3.59165 15.0429 3.57968 15.0459 3.56777C15.0489 3.55587 15.0522 3.54404 15.0557 3.53229C15.0593 3.52054 15.0631 3.50889 15.0673 3.49734C15.0714 3.48578 15.0758 3.47433 15.0805 3.46298C15.0852 3.45164 15.0902 3.44042 15.0954 3.42933C15.1007 3.41824 15.1062 3.40727 15.112 3.39645C15.1178 3.38563 15.1238 3.37496 15.1301 3.36443C15.1365 3.3539 15.143 3.34353 15.1498 3.33333C15.1567 3.32313 15.1637 3.31309 15.171 3.30323C15.1783 3.29337 15.1859 3.28369 15.1937 3.2742C15.2015 3.26471 15.2095 3.25542 15.2177 3.24633C15.226 3.23723 15.2344 3.22835 15.2431 3.21968C15.2518 3.21099 15.2607 3.20253 15.2698 3.1943C15.2789 3.18605 15.2881 3.17803 15.2976 3.17025C15.3071 3.16245 15.3168 3.1549 15.3267 3.14759C15.3365 3.14027 15.3465 3.13321 15.3568 3.1264C15.367 3.11959 15.3773 3.11302 15.3879 3.10671C15.3984 3.1004 15.4091 3.09435 15.4199 3.08857C15.4307 3.08277 15.4417 3.07725 15.4528 3.072C15.4639 3.06675 15.4751 3.06178 15.4864 3.05709C15.4978 3.05239 15.5092 3.04798 15.5208 3.04385C15.5323 3.03971 15.544 3.03586 15.5557 3.0323C15.5675 3.02873 15.5793 3.02546 15.5912 3.02248C15.6031 3.01949 15.6151 3.0168 15.6271 3.01441C15.6392 3.01202 15.6513 3.00992 15.6634 3.00811C15.6755 3.00631 15.6877 3.00481 15.6999 3.00361C15.7121 3.00241 15.7244 3.00151 15.7366 3.00091C15.7489 3.0003 15.7612 3 15.7734 3L20.2969 3C20.3207 3.00003 20.3444 3.00064 20.3681 3.00183C20.3919 3.00302 20.4156 3.00479 20.4393 3.00715C20.4629 3.00951 20.4865 3.01244 20.51 3.01594C20.5335 3.01945 20.5569 3.02354 20.5803 3.0282C20.6036 3.03285 20.6268 3.03808 20.6498 3.04387C20.6729 3.04967 20.6958 3.05602 20.7185 3.06293C20.7413 3.06985 20.7638 3.07733 20.7862 3.08536C20.8086 3.09337 20.8308 3.10194 20.8527 3.11105C20.8747 3.12016 20.8964 3.1298 20.9179 3.13997C20.9394 3.15016 20.9606 3.16086 20.9816 3.17208C21.0025 3.18328 21.0232 3.195 21.0436 3.20723C21.064 3.21947 21.084 3.23219 21.1038 3.24539C21.1236 3.25861 21.143 3.2723 21.1621 3.28648C21.1812 3.30063 21.1999 3.31526 21.2183 3.33035C21.2367 3.34543 21.2547 3.36095 21.2723 3.37692C21.2899 3.39289 21.3071 3.40928 21.3239 3.42609C21.3407 3.44291 21.3571 3.46012 21.3731 3.47773C21.389 3.49534 21.4046 3.51333 21.4196 3.5317C21.4347 3.55008 21.4494 3.56881 21.4635 3.58791C21.4777 3.607 21.4914 3.62643 21.5046 3.6462C21.5178 3.66596 21.5305 3.68604 21.5428 3.70643C21.555 3.72682 21.5667 3.74749 21.5779 3.76845C21.5891 3.78941 21.5998 3.81064 21.61 3.83212C21.6202 3.85361 21.6298 3.87534 21.639 3.8973C21.6481 3.91926 21.6566 3.94142 21.6647 3.9638C21.6727 3.98617 21.6802 4.00873 21.6871 4.03148C21.694 4.05423 21.7003 4.07714 21.7061 4.1002C21.7119 4.12325 21.7171 4.14643 21.7218 4.16974C21.7265 4.19306 21.7305 4.21647 21.7341 4.23998C21.7376 4.2635 21.7405 4.28709 21.7428 4.31074C21.7452 4.3344 21.747 4.3581 21.7482 4.38185C21.7494 4.40559 21.75 4.42934 21.75 4.45312L21.75 21.0469C21.75 21.0707 21.7494 21.0944 21.7482 21.1181C21.747 21.1419 21.7452 21.1656 21.7428 21.1893C21.7405 21.2129 21.7376 21.2365 21.7341 21.26C21.7305 21.2835 21.7265 21.3069 21.7218 21.3303C21.7171 21.3536 21.7119 21.3768 21.7061 21.3998C21.7003 21.4229 21.694 21.4458 21.6871 21.4685C21.6802 21.4913 21.6727 21.5138 21.6646 21.5362C21.6566 21.5586 21.6481 21.5808 21.639 21.6027C21.6298 21.6247 21.6202 21.6464 21.61 21.6679C21.5998 21.6894 21.5891 21.7106 21.5779 21.7316C21.5667 21.7525 21.555 21.7732 21.5428 21.7936C21.5305 21.814 21.5178 21.834 21.5046 21.8538C21.4914 21.8736 21.4777 21.893 21.4635 21.9121C21.4494 21.9312 21.4347 21.9499 21.4196 21.9683C21.4046 21.9867 21.389 22.0047 21.3731 22.0223C21.3571 22.0399 21.3407 22.0571 21.3239 22.0739C21.3071 22.0907 21.2899 22.1071 21.2723 22.1231C21.2547 22.139 21.2367 22.1546 21.2183 22.1696C21.1999 22.1847 21.1812 22.1994 21.1621 22.2135C21.143 22.2277 21.1236 22.2414 21.1038 22.2546C21.084 22.2678 21.064 22.2805 21.0436 22.2928C21.0232 22.305 21.0025 22.3167 20.9816 22.3279C20.9606 22.3391 20.9394 22.3498 20.9179 22.36C20.8964 22.3702 20.8747 22.3798 20.8527 22.389C20.8308 22.3981 20.8086 22.4066 20.7862 22.4146C20.7638 22.4227 20.7413 22.4302 20.7185 22.4371C20.6958 22.444 20.6729 22.4503 20.6498 22.4561C20.6268 22.4619 20.6036 22.4671 20.5803 22.4718C20.5569 22.4765 20.5335 22.4805 20.51 22.4841C20.4865 22.4876 20.4629 22.4905 20.4393 22.4928C20.4156 22.4952 20.3919 22.497 20.3681 22.4982C20.3444 22.4994 20.3207 22.5 20.2969 22.5Z"   fill="#727D8F" >
</path>
<path d="M10.5235 16.5C10.5112 16.5 10.499 16.4997 10.4867 16.4992C10.4745 16.4986 10.4622 16.4977 10.45 16.4965C10.4378 16.4953 10.4256 16.4938 10.4134 16.492C10.4013 16.4902 10.3892 16.4881 10.3772 16.4858C10.3651 16.4834 10.3531 16.4807 10.3412 16.4777C10.3293 16.4747 10.3175 16.4715 10.3057 16.4679C10.294 16.4644 10.2823 16.4605 10.2708 16.4564C10.2592 16.4522 10.2478 16.4478 10.2364 16.4431C10.2251 16.4384 10.2139 16.4335 10.2028 16.4282C10.1917 16.423 10.1807 16.4174 10.1699 16.4116C10.159 16.4059 10.1484 16.3998 10.1378 16.3935C10.1273 16.3872 10.1169 16.3806 10.1067 16.3738C10.0965 16.367 10.0865 16.3599 10.0766 16.3526C10.0668 16.3452 10.0571 16.3377 10.0476 16.3299C10.0381 16.3221 10.0289 16.3141 10.0198 16.3058C10.0107 16.2975 10.0018 16.2891 9.99314 16.2804L6.99314 13.2804C6.98445 13.2717 6.97599 13.2628 6.96776 13.2537C6.95951 13.2446 6.95149 13.2353 6.94371 13.2259C6.93591 13.2164 6.92836 13.2067 6.92105 13.1968C6.91373 13.187 6.90667 13.1769 6.89986 13.1667C6.89303 13.1565 6.88647 13.1461 6.88017 13.1356C6.87386 13.1251 6.86781 13.1144 6.86201 13.1036C6.85623 13.0928 6.85071 13.0818 6.84546 13.0707C6.84021 13.0596 6.83523 13.0484 6.83053 13.037C6.82584 13.0257 6.82143 13.0143 6.81729 13.0027C6.81315 12.9912 6.8093 12.9795 6.80573 12.9677C6.80217 12.956 6.7989 12.9442 6.79591 12.9323C6.79295 12.9203 6.79026 12.9084 6.78785 12.8963C6.78546 12.8843 6.78337 12.8722 6.78157 12.8601C6.77976 12.8479 6.77825 12.8357 6.77705 12.8235C6.77584 12.8113 6.77495 12.7991 6.77435 12.7868C6.77374 12.7745 6.77344 12.7623 6.77344 12.75C6.77344 12.7377 6.77374 12.7255 6.77435 12.7132C6.77495 12.7009 6.77584 12.6887 6.77705 12.6765C6.77825 12.6643 6.77976 12.6521 6.78157 12.6399C6.78337 12.6278 6.78546 12.6157 6.78785 12.6037C6.79026 12.5916 6.79295 12.5797 6.79591 12.5678C6.7989 12.5558 6.80217 12.544 6.80573 12.5323C6.80931 12.5205 6.81316 12.5089 6.81729 12.4973C6.82143 12.4857 6.82584 12.4743 6.83053 12.463C6.83523 12.4516 6.84021 12.4404 6.84546 12.4293C6.85071 12.4182 6.85623 12.4072 6.86201 12.3964C6.86781 12.3856 6.87386 12.3749 6.88017 12.3644C6.88647 12.3539 6.89303 12.3435 6.89986 12.3333C6.90667 12.3231 6.91373 12.313 6.92105 12.3032C6.92836 12.2933 6.93591 12.2836 6.94371 12.2742C6.95149 12.2647 6.95951 12.2554 6.96776 12.2463C6.97601 12.2372 6.98447 12.2283 6.99314 12.2196C7.00183 12.2109 7.01072 12.2025 7.01981 12.1942C7.02891 12.186 7.03819 12.178 7.04768 12.1702C7.05716 12.1624 7.06684 12.1548 7.0767 12.1475C7.08655 12.1402 7.09659 12.1332 7.10681 12.1263C7.11701 12.1195 7.12738 12.1129 7.13791 12.1066C7.14844 12.1003 7.15912 12.0943 7.16995 12.0885C7.18076 12.0827 7.19173 12.0772 7.20284 12.0719C7.21393 12.0667 7.22515 12.0617 7.23649 12.057C7.24784 12.0523 7.25928 12.0479 7.27083 12.0438C7.28239 12.0396 7.29405 12.0358 7.3058 12.0322C7.31755 12.0286 7.32937 12.0254 7.34128 12.0224C7.35319 12.0194 7.36516 12.0167 7.37719 12.0143C7.38923 12.0119 7.40133 12.0098 7.41347 12.008C7.42561 12.0062 7.43779 12.0047 7.45001 12.0035C7.46223 12.0023 7.47447 12.0014 7.48673 12.0008C7.49899 12.0002 7.51125 11.9999 7.52353 11.9999C7.53581 11.9999 7.54808 12.0002 7.56033 12.0008C7.57259 12.0014 7.58484 12.0023 7.59705 12.0035C7.60927 12.0047 7.62145 12.0062 7.63359 12.008C7.64573 12.0098 7.65783 12.0119 7.66988 12.0143C7.68191 12.0167 7.69387 12.0194 7.70578 12.0224C7.71769 12.0254 7.72952 12.0286 7.74127 12.0322C7.75302 12.0358 7.76467 12.0396 7.77623 12.0438C7.78778 12.0479 7.79923 12.0523 7.81057 12.057C7.82191 12.0617 7.83313 12.0667 7.84423 12.0719C7.85534 12.0772 7.8663 12.0827 7.87711 12.0885C7.88794 12.0943 7.89862 12.1003 7.90915 12.1066C7.91968 12.1129 7.93005 12.1195 7.94025 12.1263C7.95047 12.1332 7.96051 12.1402 7.97037 12.1475C7.98023 12.1548 7.9899 12.1624 7.99938 12.1702C8.00887 12.178 8.01816 12.186 8.02725 12.1942C8.03634 12.2025 8.04523 12.2109 8.05392 12.2196L10.5235 14.6895L15.9931 9.21961C16.0018 9.21092 16.0107 9.20246 16.0198 9.19423C16.0289 9.18598 16.0382 9.17796 16.0477 9.17018C16.0572 9.16238 16.0668 9.15483 16.0767 9.14752C16.0866 9.14021 16.0966 9.13314 16.1068 9.12633C16.117 9.1195 16.1274 9.11294 16.1379 9.10664C16.1484 9.10033 16.1591 9.09428 16.17 9.08848C16.1808 9.0827 16.1917 9.07718 16.2028 9.07193C16.2139 9.06668 16.2251 9.06171 16.2365 9.057C16.2478 9.05231 16.2593 9.0479 16.2708 9.04376C16.2824 9.03964 16.2941 9.03578 16.3058 9.0322C16.3175 9.02864 16.3294 9.02537 16.3413 9.02238C16.3532 9.01942 16.3652 9.01673 16.3772 9.01432C16.3892 9.01193 16.4013 9.00984 16.4135 9.00804C16.4256 9.00623 16.4378 9.00473 16.45 9.00354C16.4622 9.00232 16.4745 9.00142 16.4867 9.00082C16.499 9.00021 16.5112 8.99991 16.5235 8.99991C16.5358 8.99991 16.5481 9.00021 16.5603 9.00082C16.5726 9.00142 16.5848 9.00232 16.5971 9.00354C16.6093 9.00473 16.6215 9.00623 16.6336 9.00804C16.6457 9.00984 16.6578 9.01193 16.6699 9.01432C16.6819 9.01673 16.6939 9.01942 16.7058 9.02238C16.7177 9.02537 16.7295 9.02864 16.7413 9.0322C16.753 9.03577 16.7647 9.03962 16.7762 9.04376C16.7878 9.0479 16.7992 9.05231 16.8106 9.057C16.8219 9.06171 16.8331 9.06668 16.8442 9.07193C16.8553 9.07718 16.8663 9.0827 16.8771 9.08848C16.8879 9.09428 16.8986 9.10033 16.9091 9.10664C16.9197 9.11294 16.9301 9.1195 16.9403 9.12633C16.9505 9.13314 16.9605 9.14021 16.9704 9.14752C16.9802 9.15483 16.9899 9.16238 16.9994 9.17018C17.0089 9.17796 17.0182 9.18598 17.0273 9.19423C17.0364 9.20246 17.0452 9.21092 17.0539 9.21961C17.0626 9.2283 17.0711 9.23719 17.0793 9.24628C17.0876 9.25538 17.0956 9.26467 17.1034 9.27415C17.1112 9.28364 17.1187 9.29331 17.126 9.30317C17.1333 9.31302 17.1404 9.32306 17.1472 9.33328C17.154 9.34349 17.1606 9.35385 17.1669 9.36438C17.1732 9.37492 17.1793 9.3856 17.1851 9.39642C17.1908 9.40725 17.1964 9.41821 17.2016 9.42931C17.2069 9.4404 17.2118 9.45162 17.2165 9.46296C17.2212 9.47431 17.2256 9.48575 17.2298 9.4973C17.2339 9.50886 17.2378 9.52052 17.2413 9.53227C17.2449 9.54402 17.2482 9.55585 17.2511 9.56775C17.2541 9.57966 17.2568 9.59163 17.2592 9.60366C17.2616 9.61571 17.2637 9.6278 17.2655 9.63994C17.2673 9.65208 17.2688 9.66426 17.27 9.67648C17.2712 9.6887 17.2721 9.70094 17.2727 9.71321C17.2733 9.72546 17.2736 9.73772 17.2736 9.75C17.2736 9.76228 17.2733 9.77455 17.2727 9.7868C17.2721 9.79906 17.2712 9.81131 17.27 9.82353C17.2688 9.83574 17.2673 9.84792 17.2655 9.86006C17.2637 9.87221 17.2616 9.8843 17.2592 9.89635C17.2568 9.90838 17.2541 9.92035 17.2511 9.93225C17.2482 9.94416 17.2449 9.95599 17.2413 9.96774C17.2378 9.97949 17.2339 9.99114 17.2298 10.0027C17.2256 10.0143 17.2212 10.0257 17.2165 10.037C17.2118 10.0484 17.2069 10.0596 17.2016 10.0707C17.1964 10.0818 17.1908 10.0928 17.1851 10.1036C17.1793 10.1144 17.1732 10.1251 17.1669 10.1356C17.1606 10.1461 17.154 10.1565 17.1472 10.1667C17.1404 10.1769 17.1333 10.187 17.126 10.1968C17.1187 10.2067 17.1112 10.2164 17.1034 10.2259C17.0956 10.2353 17.0876 10.2446 17.0793 10.2537C17.0711 10.2628 17.0626 10.2717 17.0539 10.2804L11.0539 16.2804C11.0452 16.2891 11.0364 16.2975 11.0273 16.3058C11.0182 16.3141 11.0089 16.3221 10.9994 16.3299C10.9899 16.3377 10.9803 16.3452 10.9704 16.3526C10.9605 16.3599 10.9505 16.367 10.9403 16.3738C10.9301 16.3806 10.9197 16.3872 10.9092 16.3935C10.8987 16.3998 10.888 16.4059 10.8772 16.4116C10.8664 16.4174 10.8554 16.423 10.8443 16.4282C10.8332 16.4335 10.822 16.4384 10.8106 16.4431C10.7993 16.4478 10.7878 16.4522 10.7763 16.4564C10.7647 16.4605 10.7531 16.4644 10.7413 16.4679C10.7296 16.4715 10.7177 16.4747 10.7058 16.4777C10.6939 16.4807 10.6819 16.4834 10.6699 16.4858C10.6579 16.4881 10.6458 16.4902 10.6336 16.492C10.6215 16.4938 10.6093 16.4953 10.5971 16.4965C10.5848 16.4977 10.5726 16.4986 10.5604 16.4992C10.5481 16.4997 10.5358 16.5 10.5235 16.5Z"   fill="#727D8F" >
</path>
</svg>
