<svg xmlns="http://www.w3.org/2000/svg" xmlns:xlink="http://www.w3.org/1999/xlink" width="24" height="24" viewBox="0 0 24 24" fill="none">
<path d="M5.25 7.5L11.25 7.5C11.7495 7.5 12 7.7505 12 8.25C12 8.7495 11.7495 9 11.25 9L5.25 9C4.7505 9 4.5 8.7495 4.5 8.25C4.5 7.7505 4.7505 7.5 5.25 7.5ZM5.25 10.5L9.75 10.5C10.2495 10.5 10.5 10.7505 10.5 11.25C10.5 11.7495 10.2495 12 9.75 12L5.25 12C4.7505 12 4.5 11.7495 4.5 11.25C4.5 10.7505 4.7505 10.5 5.25 10.5ZM5.25 13.5L8.25 13.5C8.7495 13.5 9 13.7505 9 14.25C9 14.7495 8.7495 15 8.25 15L5.25 15C4.7505 15 4.5 14.7495 4.5 14.25C4.5 13.7505 4.7505 13.5 5.25 13.5Z"   fill="#727D8F" >
</path>
<path d="M15.75 22.5L3.75 22.5C3.71317 22.5 3.67638 22.4991 3.63961 22.4973C3.60283 22.4955 3.56611 22.4928 3.52945 22.4892C3.49281 22.4856 3.45628 22.4811 3.41986 22.4756C3.38344 22.4702 3.34716 22.464 3.31104 22.4568C3.27493 22.4496 3.23902 22.4415 3.2033 22.4326C3.16758 22.4236 3.1321 22.4138 3.09687 22.4031C3.06162 22.3924 3.02666 22.3809 2.99201 22.3685C2.95734 22.3561 2.92298 22.3428 2.88895 22.3287C2.85494 22.3146 2.82129 22.2997 2.78801 22.284C2.75471 22.2682 2.72183 22.2517 2.68936 22.2343C2.65689 22.2169 2.62486 22.1988 2.59327 22.1799C2.56169 22.161 2.53059 22.1413 2.49996 22.1208C2.46935 22.1003 2.43926 22.0792 2.40968 22.0572C2.3801 22.0353 2.35108 22.0126 2.32261 21.9893C2.29415 21.9659 2.26627 21.9419 2.23899 21.9171C2.21171 21.8924 2.18505 21.867 2.15901 21.841C2.13297 21.8149 2.10759 21.7883 2.08286 21.761C2.05813 21.7337 2.03409 21.7058 2.01073 21.6774C1.98737 21.6489 1.96472 21.6199 1.94278 21.5903C1.92085 21.5607 1.89965 21.5306 1.87919 21.5C1.85873 21.4694 1.83904 21.4383 1.82011 21.4067C1.80118 21.3751 1.78304 21.3431 1.76568 21.3106C1.74832 21.2782 1.73177 21.2453 1.71602 21.212C1.70028 21.1787 1.68536 21.1451 1.67127 21.111C1.65718 21.077 1.64393 21.0427 1.63153 21.008C1.61912 20.9733 1.60757 20.9384 1.59688 20.9031C1.58619 20.8679 1.57638 20.8324 1.56743 20.7967C1.55848 20.761 1.55042 20.7251 1.54323 20.689C1.53605 20.6528 1.52975 20.6166 1.52435 20.5801C1.51895 20.5437 1.51444 20.5072 1.51084 20.4705C1.50723 20.4339 1.50452 20.3972 1.50271 20.3604C1.5009 20.3236 1.5 20.2868 1.5 20.25L1.5 3.75C1.5 3.71317 1.5009 3.67638 1.50271 3.63961C1.50452 3.60283 1.50723 3.56611 1.51084 3.52945C1.51444 3.49281 1.51895 3.45628 1.52435 3.41986C1.52976 3.38344 1.53605 3.34716 1.54323 3.31104C1.55042 3.27493 1.55848 3.23902 1.56743 3.2033C1.57638 3.16758 1.58619 3.1321 1.59688 3.09687C1.60757 3.06162 1.61912 3.02666 1.63153 2.99201C1.64393 2.95734 1.65718 2.92298 1.67127 2.88895C1.68536 2.85494 1.70028 2.82129 1.71602 2.78801C1.73177 2.75471 1.74832 2.72183 1.76568 2.68936C1.78304 2.65689 1.80118 2.62486 1.82011 2.59327C1.83904 2.56169 1.85873 2.53059 1.87919 2.49996C1.89965 2.46935 1.92085 2.43926 1.94278 2.40968C1.96472 2.3801 1.98737 2.35108 2.01073 2.32262C2.03409 2.29415 2.05813 2.26627 2.08286 2.23899C2.10759 2.21171 2.13297 2.18505 2.15901 2.15901C2.18505 2.13297 2.21171 2.10759 2.23899 2.08286C2.26627 2.05813 2.29415 2.03409 2.32262 2.01073C2.35108 1.98737 2.3801 1.96472 2.40968 1.94278C2.43926 1.92085 2.46935 1.89965 2.49996 1.87919C2.53059 1.85873 2.56169 1.83904 2.59327 1.82011C2.62486 1.80118 2.65689 1.78304 2.68936 1.76568C2.72183 1.74832 2.75471 1.73177 2.78801 1.71602C2.82129 1.70028 2.85494 1.68536 2.88895 1.67127C2.92298 1.65718 2.95734 1.64393 2.99201 1.63153C3.02666 1.61912 3.06162 1.60757 3.09687 1.59688C3.1321 1.58619 3.16758 1.57638 3.2033 1.56743C3.23902 1.55848 3.27493 1.55042 3.31104 1.54323C3.34716 1.53605 3.38344 1.52975 3.41986 1.52435C3.45628 1.51895 3.49281 1.51444 3.52945 1.51084C3.56611 1.50723 3.60283 1.50452 3.63961 1.50271C3.67638 1.5009 3.71317 1.5 3.75 1.5L16.5 1.5C16.5368 1.5 16.5736 1.5009 16.6104 1.50271C16.6472 1.50452 16.6839 1.50723 16.7205 1.51084C16.7572 1.51444 16.7937 1.51895 16.8301 1.52435C16.8666 1.52976 16.9028 1.53605 16.939 1.54323C16.9751 1.55042 17.011 1.55848 17.0467 1.56743C17.0824 1.57638 17.1179 1.58619 17.1531 1.59688C17.1884 1.60757 17.2233 1.61912 17.258 1.63153C17.2927 1.64393 17.327 1.65718 17.361 1.67127C17.3951 1.68536 17.4287 1.70028 17.462 1.71602C17.4953 1.73177 17.5282 1.74832 17.5606 1.76568C17.5931 1.78304 17.6252 1.80118 17.6567 1.82011C17.6883 1.83904 17.7194 1.85873 17.75 1.87919C17.7806 1.89965 17.8107 1.92085 17.8403 1.94278C17.8699 1.96472 17.8989 1.98737 17.9274 2.01073C17.9559 2.03409 17.9837 2.05813 18.011 2.08286C18.0383 2.10759 18.0649 2.13297 18.091 2.15901C18.117 2.18505 18.1424 2.21171 18.1671 2.23899C18.1919 2.26627 18.2159 2.29415 18.2393 2.32262C18.2626 2.35108 18.2853 2.3801 18.3072 2.40968C18.3292 2.43926 18.3503 2.46935 18.3708 2.49996C18.3913 2.53059 18.411 2.56169 18.4299 2.59327C18.4488 2.62486 18.467 2.65689 18.4843 2.68936C18.5017 2.72183 18.5182 2.75471 18.534 2.78801C18.5497 2.82129 18.5646 2.85494 18.5787 2.88895C18.5928 2.92298 18.6061 2.95734 18.6185 2.99201C18.6309 3.02666 18.6424 3.06162 18.6531 3.09687C18.6638 3.1321 18.6736 3.16758 18.6826 3.2033C18.6915 3.23902 18.6996 3.27493 18.7068 3.31104C18.714 3.34716 18.7202 3.38344 18.7256 3.41986C18.7311 3.45628 18.7356 3.49281 18.7392 3.52945C18.7428 3.56611 18.7455 3.60283 18.7473 3.63961C18.7491 3.67638 18.75 3.71317 18.75 3.75L18.75 10.5L17.25 10.5L17.25 3.75C17.25 3.73772 17.2497 3.72545 17.2491 3.7132C17.2485 3.70094 17.2476 3.68869 17.2464 3.67648C17.2452 3.66427 17.2437 3.6521 17.2419 3.63996C17.2401 3.62782 17.238 3.61573 17.2356 3.60368C17.2332 3.59165 17.2305 3.57968 17.2275 3.56777C17.2245 3.55587 17.2213 3.54404 17.2177 3.53229C17.2141 3.52054 17.2103 3.50889 17.2061 3.49734C17.202 3.48578 17.1976 3.47433 17.1929 3.46298C17.1882 3.45164 17.1832 3.44042 17.178 3.42933C17.1727 3.41824 17.1672 3.40727 17.1614 3.39645C17.1556 3.38563 17.1496 3.37496 17.1433 3.36443C17.137 3.3539 17.1304 3.34353 17.1236 3.33333C17.1168 3.32313 17.1097 3.31309 17.1024 3.30323C17.0951 3.29337 17.0876 3.28369 17.0798 3.2742C17.072 3.26471 17.064 3.25542 17.0557 3.24633C17.0475 3.23723 17.039 3.22835 17.0303 3.21968C17.0216 3.21099 17.0128 3.20253 17.0037 3.1943C16.9946 3.18605 16.9853 3.17803 16.9758 3.17025C16.9663 3.16245 16.9566 3.1549 16.9468 3.14759C16.9369 3.14027 16.9269 3.13321 16.9167 3.1264C16.9065 3.11959 16.8961 3.11302 16.8856 3.10671C16.875 3.1004 16.8644 3.09435 16.8536 3.08857C16.8427 3.08277 16.8318 3.07725 16.8207 3.072C16.8096 3.06675 16.7983 3.06178 16.787 3.05709C16.7757 3.05239 16.7642 3.04798 16.7527 3.04385C16.7411 3.03971 16.7295 3.03586 16.7177 3.0323C16.706 3.02873 16.6941 3.02546 16.6822 3.02248C16.6703 3.01949 16.6583 3.0168 16.6463 3.01441C16.6343 3.01202 16.6222 3.00992 16.61 3.00811C16.5979 3.00631 16.5857 3.00481 16.5735 3.00361C16.5613 3.00241 16.5491 3.00151 16.5368 3.00091C16.5245 3.0003 16.5123 3 16.5 3L3.75 3C3.73772 3 3.72545 3.0003 3.7132 3.00091C3.70094 3.00151 3.68869 3.00241 3.67648 3.00361C3.66427 3.00481 3.6521 3.00631 3.63996 3.00811C3.62782 3.00992 3.61573 3.01202 3.60368 3.01441C3.59165 3.0168 3.57968 3.01949 3.56777 3.02248C3.55587 3.02546 3.54404 3.02873 3.53229 3.0323C3.52054 3.03586 3.50889 3.03971 3.49734 3.04385C3.48578 3.04798 3.47433 3.05239 3.46298 3.05709C3.45164 3.06178 3.44042 3.06675 3.42933 3.072C3.41824 3.07725 3.40727 3.08277 3.39645 3.08857C3.38563 3.09435 3.37496 3.1004 3.36443 3.10671C3.3539 3.11302 3.34353 3.11959 3.33333 3.1264C3.32313 3.13321 3.31309 3.14027 3.30323 3.14759C3.29337 3.1549 3.28369 3.16245 3.2742 3.17025C3.26471 3.17803 3.25542 3.18605 3.24633 3.1943C3.23723 3.20253 3.22835 3.21099 3.21968 3.21968C3.21099 3.22835 3.20253 3.23723 3.1943 3.24633C3.18605 3.25542 3.17803 3.26471 3.17025 3.2742C3.16245 3.28369 3.1549 3.29337 3.14759 3.30323C3.14027 3.31309 3.13321 3.32313 3.1264 3.33333C3.11959 3.34353 3.11302 3.3539 3.10671 3.36443C3.1004 3.37496 3.09435 3.38563 3.08857 3.39645C3.08277 3.40727 3.07725 3.41824 3.072 3.42933C3.06675 3.44042 3.06178 3.45164 3.05709 3.46298C3.05239 3.47433 3.04798 3.48578 3.04385 3.49734C3.03971 3.50889 3.03586 3.52054 3.0323 3.53229C3.02873 3.54404 3.02546 3.55587 3.02248 3.56777C3.01949 3.57968 3.0168 3.59165 3.01441 3.60368C3.01202 3.61573 3.00992 3.62782 3.00811 3.63996C3.00631 3.6521 3.00481 3.66427 3.00361 3.67648C3.00241 3.68869 3.00151 3.70094 3.00091 3.7132C3.0003 3.72545 3 3.73772 3 3.75L3 20.25C3 20.2623 3.0003 20.2745 3.00091 20.2868C3.00151 20.2991 3.00241 20.3113 3.00361 20.3235C3.00481 20.3357 3.00631 20.3479 3.00811 20.36C3.00992 20.3722 3.01202 20.3843 3.01441 20.3963C3.0168 20.4083 3.01949 20.4203 3.02248 20.4322C3.02546 20.4441 3.02873 20.456 3.0323 20.4677C3.03586 20.4795 3.03971 20.4911 3.04385 20.5027C3.04798 20.5142 3.05239 20.5257 3.05709 20.537C3.06178 20.5484 3.06675 20.5596 3.072 20.5707C3.07725 20.5818 3.08277 20.5927 3.08857 20.6036C3.09435 20.6144 3.1004 20.625 3.10671 20.6356C3.11302 20.6461 3.11959 20.6565 3.1264 20.6667C3.13321 20.6769 3.14027 20.6869 3.14759 20.6968C3.1549 20.7066 3.16245 20.7163 3.17025 20.7258C3.17803 20.7353 3.18605 20.7446 3.1943 20.7537C3.20253 20.7628 3.21099 20.7716 3.21968 20.7803C3.22835 20.789 3.23723 20.7975 3.24633 20.8057C3.25542 20.814 3.26471 20.822 3.2742 20.8297C3.28369 20.8376 3.29337 20.8451 3.30323 20.8524C3.31309 20.8597 3.32313 20.8668 3.33333 20.8736C3.34353 20.8804 3.3539 20.887 3.36443 20.8933C3.37496 20.8996 3.38563 20.9056 3.39645 20.9114C3.40727 20.9172 3.41824 20.9227 3.42933 20.928C3.44042 20.9332 3.45164 20.9382 3.46298 20.9429C3.47433 20.9476 3.48578 20.952 3.49734 20.9561C3.50889 20.9603 3.52054 20.9641 3.53229 20.9677C3.54404 20.9713 3.55587 20.9745 3.56777 20.9775C3.57968 20.9805 3.59165 20.9832 3.60368 20.9856C3.61573 20.988 3.62782 20.9901 3.63996 20.9919C3.6521 20.9937 3.66427 20.9952 3.67648 20.9964C3.68869 20.9976 3.70094 20.9985 3.7132 20.9991C3.72545 20.9997 3.73772 21 3.75 21L15.75 21L15.75 22.5Z"   fill="#727D8F" >
</path>
<path d="M16.125 22.5C16.0207 22.5 15.9164 22.4974 15.8122 22.4923C15.708 22.4872 15.604 22.4795 15.5001 22.4693C15.3963 22.4591 15.2928 22.4463 15.1896 22.431C15.0864 22.4157 14.9836 22.3979 14.8813 22.3775C14.779 22.3571 14.6772 22.3343 14.576 22.3089C14.4748 22.2836 14.3743 22.2558 14.2744 22.2255C14.1746 22.1952 14.0756 22.1625 13.9773 22.1273C13.8791 22.0922 13.7818 22.0546 13.6854 22.0147C13.589 21.9748 13.4936 21.9325 13.3993 21.8879C13.305 21.8433 13.2119 21.7964 13.1198 21.7473C13.0278 21.6981 12.9371 21.6467 12.8476 21.593C12.7581 21.5394 12.67 21.4836 12.5832 21.4256C12.4965 21.3677 12.4112 21.3076 12.3274 21.2454C12.2436 21.1833 12.1614 21.1191 12.0807 21.0529C12.0001 20.9868 11.9211 20.9186 11.8438 20.8486C11.7665 20.7785 11.691 20.7066 11.6172 20.6328C11.5434 20.559 11.4715 20.4835 11.4014 20.4062C11.3314 20.3289 11.2632 20.2499 11.1971 20.1693C11.1309 20.0886 11.0667 20.0064 11.0045 19.9226C10.9424 19.8388 10.8823 19.7535 10.8244 19.6668C10.7664 19.58 10.7106 19.4919 10.657 19.4024C10.6033 19.3129 10.5519 19.2222 10.5027 19.1302C10.4536 19.0381 10.4067 18.945 10.3621 18.8507C10.3175 18.7564 10.2752 18.661 10.2353 18.5646C10.1953 18.4682 10.1578 18.3709 10.1227 18.2727C10.0875 18.1744 10.0548 18.0754 10.0245 17.9756C9.99422 17.8757 9.9664 17.7752 9.94104 17.674C9.9157 17.5728 9.89284 17.471 9.87248 17.3687C9.85214 17.2664 9.83431 17.1636 9.819 17.0604C9.80369 16.9572 9.79092 16.8537 9.7807 16.7499C9.77047 16.646 9.7628 16.542 9.75769 16.4378C9.75256 16.3336 9.75 16.2293 9.75 16.125C9.75 16.0207 9.75256 15.9164 9.75769 15.8122C9.7628 15.708 9.77047 15.604 9.7807 15.5001C9.79092 15.3963 9.80369 15.2928 9.819 15.1896C9.83431 15.0864 9.85214 14.9836 9.87248 14.8813C9.89284 14.779 9.9157 14.6772 9.94104 14.576C9.9664 14.4748 9.99422 14.3743 10.0245 14.2744C10.0548 14.1746 10.0875 14.0756 10.1227 13.9773C10.1578 13.8791 10.1953 13.7818 10.2353 13.6854C10.2752 13.589 10.3175 13.4936 10.3621 13.3993C10.4067 13.305 10.4536 13.2119 10.5027 13.1198C10.5519 13.0278 10.6033 12.9371 10.657 12.8476C10.7106 12.7581 10.7664 12.67 10.8244 12.5832C10.8823 12.4965 10.9424 12.4112 11.0046 12.3274C11.0667 12.2436 11.1309 12.1614 11.1971 12.0807C11.2632 12.0001 11.3314 11.9211 11.4014 11.8438C11.4715 11.7665 11.5434 11.691 11.6172 11.6172C11.691 11.5434 11.7665 11.4715 11.8438 11.4014C11.9211 11.3314 12.0001 11.2632 12.0807 11.1971C12.1614 11.1309 12.2436 11.0667 12.3274 11.0045C12.4112 10.9424 12.4965 10.8823 12.5832 10.8244C12.67 10.7664 12.7581 10.7106 12.8476 10.657C12.9371 10.6033 13.0278 10.5519 13.1198 10.5027C13.2119 10.4536 13.305 10.4067 13.3993 10.3621C13.4936 10.3175 13.589 10.2752 13.6854 10.2353C13.7818 10.1953 13.8791 10.1578 13.9773 10.1227C14.0756 10.0875 14.1746 10.0548 14.2744 10.0245C14.3743 9.99422 14.4748 9.9664 14.576 9.94104C14.6772 9.9157 14.779 9.89284 14.8813 9.87248C14.9836 9.85214 15.0864 9.83431 15.1896 9.819C15.2928 9.80369 15.3963 9.79092 15.5001 9.7807C15.604 9.77047 15.708 9.7628 15.8122 9.75769C15.9164 9.75256 16.0207 9.75 16.125 9.75C16.2293 9.75 16.3336 9.75256 16.4378 9.75769C16.542 9.7628 16.646 9.77047 16.7499 9.7807C16.8537 9.79092 16.9572 9.80369 17.0604 9.819C17.1636 9.83431 17.2664 9.85214 17.3687 9.87248C17.471 9.89284 17.5728 9.9157 17.674 9.94104C17.7752 9.9664 17.8757 9.99422 17.9756 10.0245C18.0754 10.0548 18.1744 10.0875 18.2727 10.1227C18.3709 10.1578 18.4682 10.1953 18.5646 10.2353C18.661 10.2752 18.7564 10.3175 18.8507 10.3621C18.945 10.4067 19.0381 10.4536 19.1302 10.5027C19.2222 10.5519 19.3129 10.6033 19.4024 10.657C19.4919 10.7106 19.58 10.7664 19.6668 10.8244C19.7535 10.8823 19.8388 10.9424 19.9226 11.0046C20.0064 11.0667 20.0886 11.1309 20.1693 11.1971C20.2499 11.2632 20.3289 11.3314 20.4062 11.4014C20.4835 11.4715 20.559 11.5434 20.6328 11.6172C20.7066 11.691 20.7785 11.7665 20.8486 11.8438C20.9186 11.9211 20.9868 12.0001 21.0529 12.0807C21.1191 12.1614 21.1833 12.2436 21.2454 12.3274C21.3076 12.4112 21.3677 12.4965 21.4256 12.5832C21.4836 12.67 21.5394 12.7581 21.593 12.8476C21.6467 12.9371 21.6981 13.0278 21.7473 13.1198C21.7964 13.2119 21.8433 13.305 21.8879 13.3993C21.9325 13.4936 21.9748 13.589 22.0147 13.6854C22.0546 13.7818 22.0922 13.8791 22.1273 13.9773C22.1625 14.0756 22.1952 14.1746 22.2255 14.2744C22.2558 14.3743 22.2836 14.4748 22.3089 14.576C22.3343 14.6772 22.3571 14.779 22.3775 14.8813C22.3979 14.9836 22.4157 15.0864 22.431 15.1896C22.4463 15.2928 22.4591 15.3963 22.4693 15.5001C22.4795 15.604 22.4872 15.708 22.4923 15.8122C22.4974 15.9164 22.5 16.0207 22.5 16.125C22.5 16.2293 22.4974 16.3336 22.4923 16.4378C22.4872 16.542 22.4795 16.646 22.4693 16.7499C22.4591 16.8537 22.4463 16.9572 22.431 17.0604C22.4157 17.1636 22.3979 17.2664 22.3775 17.3687C22.3571 17.471 22.3343 17.5728 22.3089 17.674C22.2836 17.7752 22.2558 17.8757 22.2255 17.9756C22.1952 18.0754 22.1625 18.1744 22.1273 18.2727C22.0922 18.3709 22.0546 18.4682 22.0147 18.5646C21.9748 18.661 21.9325 18.7564 21.8879 18.8507C21.8433 18.945 21.7964 19.0381 21.7473 19.1302C21.6981 19.2222 21.6467 19.3129 21.593 19.4024C21.5394 19.4919 21.4836 19.58 21.4256 19.6668C21.3677 19.7535 21.3076 19.8388 21.2454 19.9226C21.1833 20.0064 21.1191 20.0886 21.0529 20.1693C20.9868 20.2499 20.9186 20.3289 20.8486 20.4062C20.7785 20.4835 20.7066 20.559 20.6328 20.6328C20.559 20.7066 20.4835 20.7785 20.4062 20.8486C20.3289 20.9186 20.2499 20.9868 20.1693 21.0529C20.0886 21.1191 20.0064 21.1833 19.9226 21.2454C19.8388 21.3076 19.7535 21.3677 19.6668 21.4256C19.58 21.4836 19.4919 21.5394 19.4024 21.593C19.3129 21.6467 19.2222 21.6981 19.1302 21.7473C19.0381 21.7964 18.945 21.8433 18.8507 21.8879C18.7564 21.9325 18.661 21.9748 18.5646 22.0147C18.4682 22.0546 18.3709 22.0922 18.2727 22.1273C18.1744 22.1625 18.0754 22.1952 17.9756 22.2255C17.8757 22.2558 17.7752 22.2836 17.674 22.3089C17.5728 22.3343 17.471 22.3571 17.3687 22.3775C17.2664 22.3979 17.1636 22.4157 17.0604 22.431C16.9572 22.4463 16.8537 22.4591 16.7499 22.4693C16.646 22.4795 16.542 22.4872 16.4378 22.4923C16.3336 22.4974 16.2293 22.5 16.125 22.5ZM16.125 11.25C16.0452 11.25 15.9655 11.252 15.8858 11.2559C15.8061 11.2598 15.7266 11.2657 15.6472 11.2735C15.5678 11.2813 15.4886 11.2911 15.4097 11.3028C15.3308 11.3145 15.2522 11.3281 15.1739 11.3437C15.0957 11.3592 15.0179 11.3767 14.9405 11.3961C14.8631 11.4155 14.7862 11.4368 14.7099 11.4599C14.6335 11.4831 14.5578 11.5081 14.4827 11.535C14.4075 11.5619 14.3331 11.5906 14.2594 11.6211C14.1857 11.6516 14.1128 11.6839 14.0407 11.718C13.9686 11.7522 13.8973 11.788 13.8269 11.8256C13.7566 11.8632 13.6872 11.9025 13.6188 11.9436C13.5503 11.9846 13.4829 12.0273 13.4166 12.0716C13.3503 12.1159 13.2851 12.1618 13.221 12.2094C13.1569 12.2569 13.094 12.306 13.0323 12.3566C12.9707 12.4072 12.9103 12.4593 12.8512 12.5129C12.792 12.5664 12.7343 12.6214 12.6779 12.6779C12.6214 12.7343 12.5664 12.792 12.5129 12.8512C12.4593 12.9103 12.4072 12.9707 12.3566 13.0323C12.306 13.094 12.2569 13.1569 12.2094 13.221C12.1618 13.2851 12.1159 13.3503 12.0716 13.4166C12.0273 13.4829 11.9846 13.5503 11.9436 13.6188C11.9025 13.6872 11.8632 13.7566 11.8256 13.8269C11.788 13.8973 11.7522 13.9685 11.718 14.0407C11.6839 14.1128 11.6516 14.1857 11.6211 14.2594C11.5906 14.3331 11.5619 14.4075 11.535 14.4827C11.5081 14.5578 11.4831 14.6335 11.4599 14.7099C11.4368 14.7862 11.4155 14.8631 11.3961 14.9405C11.3767 15.0179 11.3592 15.0957 11.3437 15.1739C11.3281 15.2522 11.3145 15.3308 11.3028 15.4097C11.2911 15.4886 11.2813 15.5678 11.2735 15.6472C11.2657 15.7266 11.2598 15.8061 11.2559 15.8858C11.252 15.9655 11.25 16.0452 11.25 16.125C11.25 16.2048 11.252 16.2845 11.2559 16.3642C11.2598 16.4439 11.2657 16.5234 11.2735 16.6028C11.2813 16.6822 11.2911 16.7614 11.3028 16.8403C11.3145 16.9192 11.3281 16.9978 11.3437 17.0761C11.3592 17.1543 11.3767 17.2321 11.3961 17.3095C11.4155 17.3869 11.4368 17.4638 11.4599 17.5401C11.4831 17.6165 11.5081 17.6922 11.535 17.7673C11.5619 17.8425 11.5906 17.9169 11.6211 17.9906C11.6516 18.0643 11.6839 18.1372 11.718 18.2093C11.7522 18.2814 11.788 18.3527 11.8256 18.4231C11.8632 18.4934 11.9025 18.5628 11.9436 18.6312C11.9846 18.6997 12.0273 18.7671 12.0716 18.8334C12.1159 18.8997 12.1618 18.9649 12.2094 19.029C12.2569 19.0931 12.306 19.156 12.3566 19.2177C12.4072 19.2793 12.4593 19.3397 12.5129 19.3988C12.5664 19.458 12.6214 19.5157 12.6779 19.5721C12.7343 19.6286 12.792 19.6836 12.8512 19.7371C12.9103 19.7907 12.9707 19.8428 13.0323 19.8934C13.094 19.944 13.1569 19.9931 13.221 20.0406C13.2851 20.0882 13.3503 20.1341 13.4166 20.1784C13.4829 20.2227 13.5503 20.2654 13.6188 20.3064C13.6872 20.3475 13.7566 20.3868 13.8269 20.4244C13.8973 20.462 13.9685 20.4979 14.0407 20.532C14.1128 20.5661 14.1857 20.5984 14.2594 20.6289C14.3331 20.6595 14.4075 20.6881 14.4827 20.715C14.5578 20.7419 14.6335 20.7669 14.7099 20.7901C14.7862 20.8132 14.8631 20.8345 14.9405 20.8539C15.0179 20.8733 15.0957 20.8908 15.1739 20.9063C15.2522 20.9219 15.3308 20.9355 15.4097 20.9472C15.4886 20.9589 15.5678 20.9687 15.6472 20.9765C15.7266 20.9843 15.8061 20.9902 15.8858 20.9941C15.9655 20.998 16.0452 21 16.125 21C16.2048 21 16.2845 20.998 16.3642 20.9941C16.4439 20.9902 16.5234 20.9843 16.6028 20.9765C16.6822 20.9687 16.7614 20.9589 16.8403 20.9472C16.9192 20.9355 16.9978 20.9219 17.0761 20.9063C17.1543 20.8908 17.2321 20.8733 17.3095 20.8539C17.3869 20.8345 17.4638 20.8132 17.5401 20.7901C17.6165 20.7669 17.6922 20.7419 17.7673 20.715C17.8425 20.6881 17.9169 20.6595 17.9906 20.6289C18.0643 20.5984 18.1372 20.5661 18.2093 20.532C18.2814 20.4978 18.3527 20.462 18.4231 20.4244C18.4934 20.3868 18.5628 20.3474 18.6312 20.3064C18.6997 20.2654 18.7671 20.2227 18.8334 20.1784C18.8997 20.1341 18.9649 20.0882 19.029 20.0406C19.0931 19.9931 19.156 19.944 19.2177 19.8934C19.2793 19.8428 19.3397 19.7907 19.3988 19.7371C19.458 19.6836 19.5157 19.6286 19.5721 19.5721C19.6286 19.5157 19.6836 19.458 19.7371 19.3988C19.7907 19.3397 19.8428 19.2793 19.8934 19.2177C19.944 19.156 19.9931 19.0931 20.0406 19.029C20.0882 18.9649 20.1341 18.8997 20.1784 18.8334C20.2227 18.7671 20.2654 18.6997 20.3064 18.6312C20.3475 18.5628 20.3868 18.4934 20.4244 18.423C20.462 18.3527 20.4979 18.2814 20.532 18.2093C20.5661 18.1372 20.5984 18.0643 20.6289 17.9906C20.6595 17.9169 20.6881 17.8425 20.715 17.7673C20.7419 17.6922 20.7669 17.6165 20.7901 17.5401C20.8132 17.4638 20.8345 17.3869 20.8539 17.3095C20.8733 17.2321 20.8908 17.1543 20.9063 17.0761C20.9219 16.9978 20.9355 16.9192 20.9472 16.8403C20.9589 16.7614 20.9687 16.6822 20.9765 16.6028C20.9843 16.5234 20.9902 16.4439 20.9941 16.3642C20.998 16.2845 21 16.2048 21 16.125C21 16.0452 20.998 15.9655 20.9941 15.8858C20.9902 15.8061 20.9843 15.7266 20.9765 15.6472C20.9687 15.5678 20.9589 15.4886 20.9472 15.4097C20.9355 15.3308 20.9219 15.2522 20.9063 15.1739C20.8908 15.0957 20.8733 15.0179 20.8539 14.9405C20.8345 14.8631 20.8132 14.7862 20.7901 14.7099C20.7669 14.6335 20.7419 14.5578 20.715 14.4827C20.6881 14.4075 20.6595 14.3331 20.6289 14.2594C20.5984 14.1857 20.5661 14.1128 20.532 14.0407C20.4978 13.9686 20.462 13.8973 20.4244 13.8269C20.3868 13.7566 20.3474 13.6872 20.3064 13.6188C20.2654 13.5503 20.2227 13.4829 20.1784 13.4166C20.1341 13.3503 20.0882 13.2851 20.0406 13.221C19.9931 13.1569 19.944 13.094 19.8934 13.0323C19.8428 12.9707 19.7907 12.9103 19.7371 12.8512C19.6836 12.792 19.6286 12.7343 19.5721 12.6779C19.5157 12.6214 19.458 12.5664 19.3988 12.5129C19.3397 12.4593 19.2793 12.4072 19.2177 12.3566C19.156 12.306 19.0931 12.2569 19.029 12.2094C18.9649 12.1618 18.8997 12.1159 18.8334 12.0716C18.7671 12.0273 18.6997 11.9846 18.6312 11.9436C18.5628 11.9025 18.4934 11.8632 18.423 11.8256C18.3527 11.788 18.2814 11.7522 18.2093 11.718C18.1372 11.6839 18.0643 11.6516 17.9906 11.6211C17.9169 11.5906 17.8425 11.5619 17.7673 11.535C17.6922 11.5081 17.6165 11.4831 17.5401 11.4599C17.4638 11.4368 17.3869 11.4155 17.3095 11.3961C17.2321 11.3767 17.1543 11.3592 17.0761 11.3437C16.9978 11.3281 16.9192 11.3145 16.8403 11.3028C16.7614 11.2911 16.6822 11.2813 16.6028 11.2735C16.5234 11.2657 16.4439 11.2598 16.3642 11.2559C16.2845 11.252 16.2048 11.25 16.125 11.25Z"   fill="#727D8F" >
</path>
<path d="M18.75 17.25L15 17.25L15 12.75C15 12.7377 15.0003 12.7255 15.0009 12.7132C15.0015 12.7009 15.0024 12.6887 15.0036 12.6765C15.0048 12.6643 15.0063 12.6521 15.0081 12.64C15.0099 12.6278 15.012 12.6157 15.0144 12.6037C15.0168 12.5916 15.0195 12.5797 15.0225 12.5678C15.0255 12.5559 15.0287 12.544 15.0323 12.5323C15.0359 12.5205 15.0397 12.5089 15.0439 12.4973C15.048 12.4858 15.0524 12.4743 15.0571 12.463C15.0618 12.4516 15.0668 12.4404 15.072 12.4293C15.0773 12.4182 15.0828 12.4073 15.0886 12.3964C15.0944 12.3856 15.1004 12.3749 15.1067 12.3644C15.113 12.3539 15.1196 12.3435 15.1264 12.3333C15.1332 12.3231 15.1403 12.3131 15.1476 12.3032C15.1549 12.2934 15.1625 12.2837 15.1702 12.2742C15.178 12.2647 15.186 12.2554 15.1943 12.2463C15.2025 12.2372 15.211 12.2284 15.2197 12.2197C15.2284 12.211 15.2372 12.2025 15.2463 12.1943C15.2554 12.186 15.2647 12.178 15.2742 12.1702C15.2837 12.1625 15.2934 12.1549 15.3032 12.1476C15.3131 12.1403 15.3231 12.1332 15.3333 12.1264C15.3435 12.1196 15.3539 12.113 15.3644 12.1067C15.375 12.1004 15.3856 12.0943 15.3964 12.0885C15.4073 12.0828 15.4182 12.0773 15.4293 12.072C15.4404 12.0668 15.4516 12.0618 15.463 12.0571C15.4743 12.0524 15.4858 12.048 15.4973 12.0439C15.5089 12.0397 15.5205 12.0359 15.5323 12.0323C15.544 12.0287 15.5559 12.0255 15.5678 12.0225C15.5797 12.0195 15.5916 12.0168 15.6037 12.0144C15.6157 12.012 15.6278 12.0099 15.64 12.0081C15.6521 12.0063 15.6643 12.0048 15.6765 12.0036C15.6887 12.0024 15.7009 12.0015 15.7132 12.0009C15.7255 12.0003 15.7377 12 15.75 12C15.7623 12 15.7745 12.0003 15.7868 12.0009C15.7991 12.0015 15.8113 12.0024 15.8235 12.0036C15.8357 12.0048 15.8479 12.0063 15.86 12.0081C15.8722 12.0099 15.8843 12.012 15.8963 12.0144C15.9084 12.0168 15.9203 12.0195 15.9322 12.0225C15.9441 12.0255 15.956 12.0287 15.9677 12.0323C15.9795 12.0359 15.9911 12.0397 16.0027 12.0439C16.0142 12.048 16.0257 12.0524 16.037 12.0571C16.0483 12.0618 16.0596 12.0668 16.0707 12.072C16.0818 12.0773 16.0927 12.0828 16.1036 12.0886C16.1144 12.0944 16.125 12.1004 16.1356 12.1067C16.1461 12.113 16.1565 12.1196 16.1667 12.1264C16.1769 12.1332 16.1869 12.1403 16.1968 12.1476C16.2066 12.1549 16.2163 12.1625 16.2258 12.1702C16.2353 12.178 16.2446 12.186 16.2537 12.1943C16.2628 12.2025 16.2716 12.211 16.2803 12.2197C16.289 12.2284 16.2975 12.2372 16.3057 12.2463C16.314 12.2554 16.322 12.2647 16.3298 12.2742C16.3375 12.2837 16.3451 12.2934 16.3524 12.3032C16.3597 12.3131 16.3668 12.3231 16.3736 12.3333C16.3804 12.3435 16.387 12.3539 16.3933 12.3644C16.3996 12.3749 16.4056 12.3856 16.4114 12.3964C16.4172 12.4073 16.4228 12.4182 16.428 12.4293C16.4332 12.4404 16.4382 12.4516 16.4429 12.463C16.4476 12.4743 16.452 12.4858 16.4561 12.4973C16.4603 12.5089 16.4641 12.5205 16.4677 12.5323C16.4713 12.544 16.4745 12.5559 16.4775 12.5678C16.4805 12.5797 16.4832 12.5916 16.4856 12.6037C16.488 12.6157 16.4901 12.6278 16.4919 12.64C16.4937 12.6521 16.4952 12.6643 16.4964 12.6765C16.4976 12.6887 16.4985 12.7009 16.4991 12.7132C16.4997 12.7255 16.5 12.7377 16.5 12.75L16.5 15.75L18.75 15.75C18.7623 15.75 18.7745 15.7503 18.7868 15.7509C18.7991 15.7515 18.8113 15.7524 18.8235 15.7536C18.8357 15.7548 18.8479 15.7563 18.86 15.7581C18.8722 15.7599 18.8843 15.762 18.8963 15.7644C18.9083 15.7668 18.9203 15.7695 18.9322 15.7725C18.9441 15.7755 18.956 15.7787 18.9677 15.7823C18.9795 15.7859 18.9911 15.7897 19.0027 15.7939C19.0142 15.798 19.0257 15.8024 19.037 15.8071C19.0484 15.8118 19.0596 15.8167 19.0707 15.822C19.0818 15.8272 19.0927 15.8328 19.1036 15.8386C19.1144 15.8444 19.125 15.8504 19.1356 15.8567C19.1461 15.863 19.1565 15.8696 19.1667 15.8764C19.1769 15.8832 19.1869 15.8903 19.1968 15.8976C19.2066 15.9049 19.2163 15.9124 19.2258 15.9202C19.2353 15.928 19.2446 15.936 19.2537 15.9443C19.2628 15.9525 19.2716 15.961 19.2803 15.9697C19.289 15.9784 19.2975 15.9872 19.3057 15.9963C19.314 16.0054 19.322 16.0147 19.3298 16.0242C19.3376 16.0337 19.3451 16.0434 19.3524 16.0532C19.3597 16.0631 19.3668 16.0731 19.3736 16.0833C19.3804 16.0935 19.387 16.1039 19.3933 16.1144C19.3996 16.125 19.4056 16.1356 19.4114 16.1464C19.4172 16.1573 19.4227 16.1682 19.428 16.1793C19.4332 16.1904 19.4382 16.2016 19.4429 16.213C19.4476 16.2243 19.452 16.2358 19.4561 16.2473C19.4603 16.2589 19.4641 16.2705 19.4677 16.2823C19.4713 16.294 19.4745 16.3059 19.4775 16.3178C19.4805 16.3297 19.4832 16.3417 19.4856 16.3537C19.488 16.3657 19.4901 16.3778 19.4919 16.39C19.4937 16.4021 19.4952 16.4143 19.4964 16.4265C19.4976 16.4387 19.4985 16.4509 19.4991 16.4632C19.4997 16.4755 19.5 16.4877 19.5 16.5C19.5 16.5123 19.4997 16.5245 19.4991 16.5368C19.4985 16.5491 19.4976 16.5613 19.4964 16.5735C19.4952 16.5857 19.4937 16.5979 19.4919 16.61C19.4901 16.6222 19.488 16.6343 19.4856 16.6463C19.4832 16.6583 19.4805 16.6703 19.4775 16.6822C19.4745 16.6941 19.4713 16.706 19.4677 16.7177C19.4641 16.7295 19.4603 16.7411 19.4561 16.7527C19.452 16.7642 19.4476 16.7757 19.4429 16.787C19.4382 16.7984 19.4332 16.8096 19.428 16.8207C19.4227 16.8318 19.4172 16.8427 19.4114 16.8536C19.4056 16.8644 19.3996 16.875 19.3933 16.8856C19.387 16.8961 19.3804 16.9065 19.3736 16.9167C19.3668 16.9269 19.3597 16.9369 19.3524 16.9468C19.3451 16.9566 19.3376 16.9663 19.3298 16.9758C19.322 16.9853 19.314 16.9946 19.3057 17.0037C19.2975 17.0128 19.289 17.0216 19.2803 17.0303C19.2716 17.039 19.2628 17.0475 19.2537 17.0557C19.2446 17.064 19.2353 17.072 19.2258 17.0798C19.2163 17.0876 19.2066 17.0951 19.1968 17.1024C19.1869 17.1097 19.1769 17.1168 19.1667 17.1236C19.1565 17.1304 19.1461 17.137 19.1356 17.1433C19.125 17.1496 19.1144 17.1556 19.1036 17.1614C19.0927 17.1672 19.0818 17.1727 19.0707 17.178C19.0596 17.1832 19.0484 17.1882 19.037 17.1929C19.0257 17.1976 19.0142 17.202 19.0027 17.2061C18.9911 17.2103 18.9795 17.2141 18.9677 17.2177C18.956 17.2213 18.9441 17.2245 18.9322 17.2275C18.9203 17.2305 18.9083 17.2332 18.8963 17.2356C18.8843 17.238 18.8722 17.2401 18.86 17.2419C18.8479 17.2437 18.8357 17.2452 18.8235 17.2464C18.8113 17.2476 18.7991 17.2485 18.7868 17.2491C18.7745 17.2497 18.7623 17.25 18.75 17.25Z"   fill="#727D8F" >
</path>
</svg>
