<svg xmlns="http://www.w3.org/2000/svg" xmlns:xlink="http://www.w3.org/1999/xlink" width="16" height="16" viewBox="0 0 16 16" fill="none"><path   fill-rule="evenodd"  fill="currentColor"  d="M14.0034 3.67C14.0034 2.75029 13.254 2 12.3334 2C11.8899 2 11.4819 2.17664 11.1834 2.46C11.1679 2.46 11.1434 2.49 11.1434 2.49L2.50344 11.15C1.85017 11.8044 1.84897 12.8644 2.50344 13.52C3.15551 14.172 4.21256 14.172 4.86344 13.52L12.0734 6.29C12.1166 6.25518 12.1934 6.18 12.1934 6.18C12.1934 6.18 12.2303 6.14041 12.2434 6.12L13.5134 4.85C13.5134 4.85 13.5427 4.82561 13.5534 4.81C13.8327 4.51223 14.0034 4.11185 14.0034 3.67ZM7.33004 2.33C7.33004 2.1458 7.18404 2 7.00004 2C6.81604 2 6.67004 2.1458 6.67004 2.33L6.67004 2.67L6.33004 2.67C6.14584 2.67 6.00004 2.816 6.00004 3C6.00004 3.184 6.14584 3.33 6.33004 3.33L6.67004 3.33L6.67004 3.67C6.67004 3.8542 6.81604 4 7.00004 4C7.18404 4 7.33004 3.8542 7.33004 3.67L7.33004 3.33L7.67004 3.33C7.85424 3.33 8.00004 3.184 8.00004 3C8.00004 2.816 7.85424 2.67 7.67004 2.67L7.33004 2.67L7.33004 2.33ZM12.3332 2.6665C12.8854 2.6665 13.3332 3.1143 13.3332 3.6665C13.3332 4.2187 12.8854 4.6665 12.3332 4.6665C11.781 4.6665 11.3332 4.2187 11.3332 3.6665C11.3332 3.1143 11.781 2.6665 12.3332 2.6665ZM12.1034 5.3199C11.3676 5.21836 10.7858 4.63618 10.6834 3.8999L10.3434 4.2399C10.3321 4.25633 10.3179 4.27515 10.3034 4.2899C9.91031 4.68385 9.91947 5.3149 10.3134 5.7099C10.675 6.07077 11.2405 6.10516 11.6334 5.7999L12.1034 5.3199ZM9.83994 6.1866C9.57043 5.91724 9.40769 5.5771 9.35994 5.2266L2.96994 11.6166C2.5766 12.0109 2.58579 12.6515 2.97994 13.0466C3.37166 13.4377 3.99903 13.4385 4.38994 13.0466L10.7699 6.6566C10.4276 6.6063 10.1038 6.45028 9.83994 6.1866ZM14.6632 7.6635C14.6632 7.4793 14.5172 7.3335 14.3332 7.3335C14.1492 7.3335 14.0032 7.4793 14.0032 7.6635L14.0032 8.0035L13.6632 8.0035C13.479 8.0035 13.3332 8.1495 13.3332 8.3335C13.3332 8.5175 13.479 8.6635 13.6632 8.6635L14.0032 8.6635L14.0032 9.0035C14.0032 9.1877 14.1492 9.3335 14.3332 9.3335C14.5172 9.3335 14.6632 9.1877 14.6632 9.0035L14.6632 8.6635L15.0032 8.6635C15.1874 8.6635 15.3332 8.5175 15.3332 8.3335C15.3332 8.1495 15.1874 8.0035 15.0032 8.0035L14.6632 8.0035L14.6632 7.6635ZM11.33 10.33C11.33 10.146 11.184 10 11 10C10.816 10 10.67 10.146 10.67 10.33L10.67 10.67L10.33 10.67C10.1458 10.67 10 10.8162 10 11C10 11.184 10.1458 11.33 10.33 11.33L10.67 11.33L10.67 11.71C10.67 11.894 10.816 12.04 11 12.04C11.184 12.04 11.33 11.894 11.33 11.71L11.33 11.33L11.67 11.33C11.8542 11.33 12 11.184 12 11C12 10.8162 11.8542 10.67 11.67 10.67L11.33 10.67L11.33 10.33Z"></path></svg>