<?xml version="1.0" encoding="UTF-8"?>
<svg width="16px" height="16px" viewBox="0 0 16 16" version="1.1" xmlns="http://www.w3.org/2000/svg" xmlns:xlink="http://www.w3.org/1999/xlink">
    <g id="V1.0" stroke="none" stroke-width="1" fill="none" fill-rule="evenodd">
        <g id="首页" transform="translate(-46, -218)" fill-rule="nonzero">
            <g id="好友" transform="translate(46, 218)">
                <rect id="矩形" fill="currentColor" opacity="0" x="0" y="0" width="15.8462519" height="15.8462519"></rect>
                <path d="M7.6288516,9.70001421 C7.61277467,9.78838583 7.59268841,9.85667119 7.56859282,9.90487029 C7.54449723,9.95306939 7.48826363,10.0052857 7.39989201,10.0615193 C7.1910266,10.1900556 6.96608823,10.2944883 6.72507688,10.3748175 C6.48406553,10.4551466 6.25310524,10.5435183 6.032196,10.6399323 C5.81128676,10.7363464 5.6184864,10.86287 5.45379492,11.0195032 C5.28910343,11.1761364 5.18667936,11.3990662 5.14652268,11.6882924 C5.13045368,11.7766561 5.12041055,11.8630152 5.11639329,11.9473695 C5.11237604,12.0317239 5.10635413,12.1100484 5.09832755,12.1823431 C5.09028512,12.1984121 5.08224665,12.2124686 5.07421215,12.2245124 C5.06617764,12.2365562 5.0581471,12.2506166 5.05012052,12.2666935 C4.73682241,12.24259 4.41950309,12.2144732 4.09816255,12.1823431 C3.77682201,12.150213 3.48158965,12.1140617 3.21246546,12.0738892 C2.94334127,12.0337167 2.71640219,11.9935521 2.53164822,11.9533954 C2.34689425,11.9132387 2.23040979,11.8730662 2.18219484,11.8328779 C2.10989223,11.7766522 2.05566725,11.6079553 2.01951991,11.3267873 C1.98337256,11.0456193 1.99742898,10.6800969 2.06168917,10.2302202 C2.10186169,9.98118223 2.20428973,9.79039049 2.36897329,9.65784495 C2.53365685,9.5252994 2.72846583,9.4208667 2.95340025,9.34454684 C3.17833466,9.26822697 3.40929496,9.19793299 3.64628113,9.13366488 C3.8832673,9.06939677 4.09414529,8.98102911 4.27891511,8.86856191 C4.42352034,8.77216371 4.53397496,8.68379605 4.61027897,8.60345893 C4.68658299,8.52312182 4.74081193,8.44078004 4.77296579,8.35643359 C4.80511966,8.27208715 4.8211847,8.18572812 4.82116093,8.0973565 C4.82113716,8.00898488 4.81712387,7.91258272 4.80912106,7.80815001 C4.79305205,7.64748371 4.73882311,7.52096008 4.64643424,7.42857913 C4.55404537,7.33619818 4.45162129,7.24180465 4.33916201,7.14539852 C4.2748939,7.105226 4.22066892,7.0409579 4.17648707,6.9525942 C4.13230523,6.8642305 4.09414529,6.77586285 4.06200728,6.68749123 C4.02987719,6.59109303 3.9977471,6.48264307 3.965617,6.36214136 C3.91740998,6.34607235 3.86920692,6.3219728 3.82100782,6.28984271 C3.7808353,6.2577047 3.73865811,6.20950163 3.69447627,6.14523353 C3.65029442,6.08096542 3.6081212,5.99259776 3.5679566,5.88013055 C3.527792,5.76766335 3.511723,5.66122202 3.51974958,5.56080656 C3.52777616,5.46039111 3.54786242,5.37403208 3.58000836,5.30172947 C3.61213845,5.21336577 3.6563203,5.14106316 3.7125539,5.08482163 C3.7045194,4.82775713 3.71657115,4.56667537 3.74870917,4.30157636 C3.78083926,4.08466852 3.83305561,3.8516996 3.90535822,3.6026696 C3.97766084,3.35363959 4.08611079,3.12870122 4.23070809,2.92785447 C4.35924431,2.73505807 4.50384953,2.57840901 4.66452376,2.4579073 C4.82519799,2.33740559 4.98786896,2.24300809 5.15253668,2.17471481 C5.31720439,2.10642152 5.48390054,2.06022709 5.65262512,2.0361315 C5.8213497,2.01203591 5.98603326,2 6.1466758,2 C6.54834553,2 6.90985066,2.08435041 7.2311912,2.25305122 C7.55253174,2.42175203 7.7935312,2.6025046 7.95418958,2.79530892 C8.05862229,2.93187172 8.12490298,3.05839535 8.15303167,3.17487981 C8.18116036,3.29136427 8.21931237,3.42592636 8.2674877,3.57856609 C8.11485589,3.66692978 7.95218492,3.79747066 7.77947478,3.97018873 C7.60676464,4.14290679 7.4561375,4.31763348 7.32759336,4.49436879 C7.16691913,4.71930321 7.04641742,4.96834114 6.96608823,5.24148257 C6.88575903,5.51462401 6.82550818,5.76767523 6.78533566,6.00063623 C6.74516314,6.28180425 6.72507688,6.56297226 6.72507688,6.84414028 C6.6608167,6.91644289 6.6126176,6.99678001 6.58047958,7.08515163 C6.54834949,7.16548082 6.52826323,7.2598704 6.5202208,7.36832035 C6.51217837,7.47677031 6.52824738,7.59526735 6.56842782,7.72381149 C6.60860034,7.86037429 6.65278615,7.96480699 6.70098525,8.0371096 C6.74918435,8.10941222 6.7933662,8.16564582 6.8335308,8.20581042 C6.8817299,8.25400952 6.92993296,8.28613961 6.97813998,8.30220069 C7.01027007,8.43073691 7.04240017,8.55123862 7.07453026,8.66370583 C7.10666827,8.76011195 7.14482821,8.85852274 7.18901005,8.95893819 C7.2331919,9.05935364 7.28741688,9.13366092 7.35168499,9.18186002 C7.40791859,9.23006704 7.4521044,9.2702356 7.48424242,9.30236569 C7.51638043,9.33449578 7.54248861,9.36462121 7.56256694,9.39274197 C7.58264528,9.42086274 7.59469308,9.45902267 7.59871033,9.50722177 C7.60272758,9.55542087 7.61277071,9.61968502 7.62883972,9.70001421 L7.6288516,9.70001421 Z M14.0515461,11.9172283 C14.0836841,12.0297034 14.1097923,12.1662741 14.1298706,12.3269404 C14.1499489,12.4876067 14.16,12.6502856 14.16,12.8149771 C14.16,12.9796686 14.1479562,13.134309 14.1238447,13.2788984 C14.0997333,13.4234878 14.0635859,13.5319417 14.0154027,13.6042602 C13.9832647,13.6524593 13.8888711,13.7006584 13.7322221,13.7488575 C13.575573,13.7970566 13.380764,13.8412384 13.1477951,13.881403 C12.9148262,13.9215676 12.6577538,13.9597275 12.3765778,13.9958828 C12.0954019,14.0320381 11.8122252,14.0621635 11.5270479,14.0862591 C11.2418706,14.1103547 10.9667244,14.1304409 10.7016096,14.1465179 C10.4364947,14.1625948 10.2035298,14.1706095 10.0027147,14.1706095 C9.80189966,14.1706095 9.57093937,14.1625591 9.30983384,14.146506 C9.04872831,14.1304528 8.77759946,14.1103705 8.49644729,14.0862591 C8.21529511,14.0621476 7.93814435,14.0360395 7.66499498,14.0079345 C7.39184562,13.9798296 7.14079907,13.9476956 6.91185533,13.9115324 C6.68291158,13.8753692 6.49011122,13.8392179 6.33345424,13.8030785 C6.17679726,13.766939 6.07838647,13.7327964 6.03822188,13.7006504 C5.97396169,13.6444168 5.92174534,13.475716 5.88157282,13.194548 C5.8414003,12.91338 5.85345206,12.5518788 5.91772809,12.1100445 C5.95790061,11.852972 6.06032469,11.6601677 6.22500032,11.5316315 C6.38967596,11.4030953 6.58448891,11.2986626 6.80943917,11.2183334 C7.03438943,11.1380042 7.26534973,11.0677102 7.50232005,11.0074514 C7.73929037,10.9471927 7.95016441,10.8568203 8.13494215,10.7363345 C8.27954737,10.6399283 8.39000596,10.5515607 8.4663179,10.4712315 C8.54262984,10.3909023 8.5988674,10.3105652 8.63503059,10.2302202 C8.67119378,10.1498751 8.68926746,10.0655287 8.68925161,9.97718082 C8.68923576,9.88883297 8.68521851,9.78841356 8.67719985,9.67592258 C8.66113085,9.51524835 8.60489724,9.38872076 8.50849904,9.29633981 C8.41210084,9.20395886 8.30766814,9.11358258 8.19520093,9.02521096 C8.13896733,8.97701186 8.08875564,8.90873046 8.04456587,8.82036677 C8.0003761,8.73200307 7.96222013,8.64363541 7.93009796,8.55526379 C7.89795994,8.45885767 7.86582589,8.35040375 7.8336958,8.22990204 C7.7854967,8.21384096 7.73729363,8.18974141 7.68908661,8.15760339 C7.64892201,8.1254733 7.60674879,8.0772742 7.56256694,8.01300609 C7.5183851,7.94873799 7.47620791,7.86037033 7.43603539,7.74790312 C7.39586287,7.63543591 7.37979783,7.52899458 7.38784026,7.42857913 C7.39588268,7.32816368 7.41596894,7.24581794 7.44809903,7.18154191 C7.48022913,7.10121271 7.52441097,7.0289101 7.58064458,6.96463407 C7.57261007,6.70756956 7.58465787,6.4464878 7.61678796,6.18138879 C7.64892598,5.95645438 7.6991337,5.72147683 7.76741114,5.47645616 C7.83568857,5.23143548 7.94213387,5.00449244 8.08674701,4.79562703 C8.21528323,4.60282271 8.35988449,4.44617366 8.5205508,4.32567987 C8.68121711,4.20518608 8.84590066,4.11079254 9.01460148,4.04249926 C9.18330229,3.97420598 9.3520031,3.92801154 9.52070391,3.90391595 C9.68940472,3.87982037 9.85007499,3.86777257 10.0027147,3.86777257 C10.412419,3.86777257 10.7779374,3.95211902 11.09927,4.1208119 C11.4206026,4.28950479 11.6575888,4.47025736 11.8102285,4.6630696 C11.9869638,4.87997744 12.1175047,5.12298949 12.2018511,5.39210575 C12.2861976,5.66122202 12.3484571,5.91226461 12.3886296,6.14523353 C12.4288021,6.41837496 12.4448711,6.69151244 12.4368366,6.96464596 C12.4770091,6.99677605 12.5131604,7.0409579 12.5452905,7.0971915 C12.5693861,7.14539852 12.591477,7.20765801 12.6115633,7.28396995 C12.6316496,7.36028189 12.6336582,7.45467542 12.6175892,7.56715055 C12.6015202,7.71175578 12.5693861,7.82824024 12.521187,7.91660393 C12.4729879,8.00496763 12.4247849,8.07325299 12.3765778,8.12146001 C12.3203442,8.17769361 12.2560801,8.21384096 12.1837854,8.22990204 C12.1516474,8.35040375 12.1195133,8.45885767 12.0873832,8.55526379 C12.0552452,8.64362749 12.0150767,8.73199515 11.9668776,8.82036677 C11.9186785,8.90873839 11.8664621,8.97300253 11.8102285,9.01315921 C11.7459683,9.06939281 11.6877261,9.11759587 11.6355018,9.15776839 C11.5832775,9.19794091 11.5370831,9.24011413 11.4969185,9.28428806 C11.4567539,9.32846198 11.4226152,9.37866971 11.3945024,9.43491123 C11.3663895,9.49115276 11.3442986,9.55943812 11.3282296,9.63976731 C11.3121606,9.74420002 11.3061347,9.85064135 11.3101519,9.9590913 C11.3141692,10.0675413 11.3402774,10.1739865 11.3884765,10.2784272 C11.4366756,10.3828678 11.5150001,10.4832833 11.6234501,10.5796735 C11.7319,10.6760638 11.8825272,10.7604142 12.0753315,10.8327247 C12.2440323,10.9050274 12.4308068,10.9672868 12.6356549,11.0195032 C12.8405031,11.0717195 13.0373247,11.133979 13.2261197,11.2062816 C13.4149146,11.2785843 13.5836155,11.3709692 13.7322221,11.4834364 C13.8808287,11.5959036 13.98727,11.7405048 14.0515461,11.9172402 L14.0515461,11.9172283 Z" id="形状" fill="currentColor"></path>
            </g>
        </g>
    </g>
</svg>