<svg xmlns="http://www.w3.org/2000/svg" xmlns:xlink="http://www.w3.org/1999/xlink" width="36" height="36" viewBox="0 0 36 36" fill="currentColor">
<path d="M25.0027 10.4296L11.0009 10.4296L11.0009 13.0784L16.5199 13.0784L16.5199 25.5641L19.4603 25.5641L19.4603 13.0784L25.0027 13.0784L25.0027 10.4296ZM6.10027 7.3373C6.10027 7.31695 6.10027 7.29927 6.10027 7.27895C6.10027 7.25863 6.10027 7.24085 6.10027 7.22061C6.10027 7.20037 6.11193 7.18237 6.11193 7.16227C6.11193 7.14216 6.1236 7.12386 6.1236 7.10392C6.1236 7.08398 6.13527 7.05363 6.13527 7.03391C6.13527 7.01419 6.14694 6.99501 6.14694 6.97556C6.14694 6.95612 6.17028 6.93639 6.17028 6.91722C6.17028 6.89808 6.19361 6.88933 6.19361 6.87054C6.19361 6.85176 6.21695 6.83058 6.21695 6.8122C6.21695 6.79382 6.24028 6.7718 6.24028 6.75385C6.24028 6.73591 6.27529 6.72462 6.27529 6.70718C6.27529 6.68974 6.31029 6.66574 6.31029 6.64884C6.31029 6.63193 6.33319 6.61849 6.3453 6.60216C6.35741 6.58583 6.3674 6.5712 6.3803 6.55548C6.3932 6.53976 6.40165 6.52388 6.41531 6.50881C6.42896 6.49374 6.4476 6.47651 6.46198 6.46213C6.47636 6.44775 6.49359 6.42911 6.50865 6.41546C6.52372 6.4018 6.53961 6.39335 6.55532 6.38045C6.57104 6.36755 6.58567 6.35756 6.602 6.34544C6.61833 6.33333 6.63176 6.31044 6.64867 6.31044C6.66558 6.31044 6.68957 6.27543 6.70701 6.27543C6.72445 6.27543 6.73574 6.24042 6.75368 6.24042C6.77162 6.24042 6.79365 6.21709 6.81202 6.21709C6.8304 6.21709 6.85158 6.19375 6.87036 6.19375C6.88915 6.19375 6.89789 6.17041 6.91704 6.17041C6.93621 6.17041 6.95593 6.14707 6.97538 6.14707C6.99482 6.14707 7.014 6.1354 7.03372 6.1354C7.05344 6.1354 7.08379 6.12374 7.10373 6.12374C7.12366 6.12374 7.14197 6.11207 7.16207 6.11207C7.18217 6.11207 7.20017 6.1004 7.22041 6.1004C7.24065 6.1004 7.25843 6.1004 7.27875 6.1004C7.29907 6.1004 7.31674 6.1004 7.33709 6.1004L12.5061 6.1004L12.5061 4L7.33709 4C7.28242 4 7.22832 4 7.17374 4C7.11912 4 7.06478 4.01167 7.01038 4.01167C6.95599 4.01167 6.90109 4.03501 6.84703 4.03501C6.79296 4.03501 6.73728 4.07001 6.68367 4.07001C6.63006 4.07001 6.58501 4.09172 6.53199 4.10502C6.47896 4.11832 6.42094 4.12414 6.36863 4.14003C6.31633 4.15591 6.26841 4.17994 6.21695 4.19837C6.16548 4.2168 6.11576 4.23578 6.06526 4.25672C6.01476 4.27765 5.96299 4.30334 5.91358 4.32673C5.86416 4.35011 5.8101 4.37096 5.76189 4.39674C5.71369 4.42252 5.66876 4.45031 5.62187 4.47842C5.57499 4.50654 5.5273 4.52973 5.48185 4.56011C5.43641 4.59049 5.39741 4.62089 5.35351 4.65346C5.3096 4.68603 5.26741 4.72379 5.22516 4.75848C5.1829 4.79316 5.13731 4.82678 5.09681 4.8635C5.0563 4.90021 5.01878 4.94153 4.98012 4.98019C4.94147 5.01884 4.90016 5.05637 4.86344 5.09687C4.82673 5.13738 4.79311 5.18298 4.75843 5.22523C4.72375 5.26749 4.68598 5.30968 4.65342 5.35359C4.62085 5.3975 4.59045 5.4365 4.56007 5.48195C4.5297 5.5274 4.50651 5.57509 4.47839 5.62197C4.45028 5.66886 4.4225 5.71379 4.39672 5.762C4.37094 5.81021 4.35009 5.86428 4.32671 5.9137C4.30332 5.96311 4.27763 6.01489 4.2567 6.06539C4.23577 6.11589 4.21679 6.16562 4.19836 6.21709C4.17993 6.26855 4.1559 6.31647 4.14002 6.36878C4.12413 6.42109 4.11832 6.47912 4.10501 6.53215C4.09171 6.58517 4.07001 6.63023 4.07001 6.68384C4.07001 6.73745 4.035 6.79314 4.035 6.84721C4.035 6.90127 4.01167 6.95617 4.01167 7.01057C4.01167 7.06497 4 7.11932 4 7.17393C4 7.22852 4 7.28263 4 7.3373L4 12.4949L6.10027 12.4949L6.10027 7.3373ZM28.6548 4L23.4858 4L23.4858 6.1004L28.6548 6.1004C28.6751 6.1004 28.7045 6.1004 28.7248 6.1004C28.7451 6.1004 28.7629 6.1004 28.7831 6.1004C28.8034 6.1004 28.8214 6.11207 28.8415 6.11207C28.8616 6.11207 28.8799 6.12374 28.8998 6.12374C28.9198 6.12374 28.9385 6.1354 28.9582 6.1354C28.9779 6.1354 28.9971 6.14707 29.0165 6.14707C29.036 6.14707 29.0557 6.17041 29.0749 6.17041C29.094 6.17041 29.1144 6.19375 29.1332 6.19375C29.152 6.19375 29.1732 6.21709 29.1915 6.21709C29.2099 6.21709 29.2319 6.24042 29.2499 6.24042C29.2678 6.24042 29.2791 6.27543 29.2965 6.27543C29.314 6.27543 29.338 6.31044 29.3549 6.31044C29.3718 6.31044 29.3852 6.33333 29.4016 6.34544C29.4179 6.35756 29.4325 6.36755 29.4482 6.38045C29.464 6.39335 29.4798 6.4018 29.4949 6.41546C29.51 6.42911 29.5272 6.44775 29.5416 6.46213C29.556 6.47651 29.5629 6.49374 29.5766 6.50881C29.5902 6.52388 29.6104 6.53976 29.6233 6.55548C29.6362 6.5712 29.6461 6.58583 29.6583 6.60216C29.6704 6.61849 29.6933 6.63193 29.6933 6.64884C29.6933 6.66574 29.7283 6.68974 29.7283 6.70718C29.7283 6.72462 29.7516 6.73591 29.7516 6.75385C29.7516 6.7718 29.7866 6.79382 29.7866 6.8122C29.7866 6.83058 29.8099 6.85176 29.8099 6.87054C29.8099 6.88933 29.8333 6.89808 29.8333 6.91722C29.8333 6.93639 29.8449 6.95612 29.8449 6.97556C29.8449 6.99501 29.8683 7.01419 29.8683 7.03391C29.8683 7.05363 29.88 7.08398 29.88 7.10392C29.88 7.12386 29.8916 7.14216 29.8916 7.16227C29.8916 7.18237 29.8916 7.20037 29.8916 7.22061C29.8916 7.24085 29.9033 7.25863 29.9033 7.27895C29.9033 7.29927 29.9033 7.31695 29.9033 7.3373L29.9033 12.4949L32.0036 12.4949L32.0036 7.3373C32.0036 7.28263 31.9919 7.22852 31.9919 7.17393C31.9919 7.11932 31.9802 7.06497 31.9802 7.01057C31.9802 6.95617 31.9686 6.90127 31.9686 6.84721C31.9686 6.79314 31.9335 6.73745 31.9335 6.68384C31.9335 6.63023 31.9119 6.58517 31.8985 6.53215C31.8851 6.47912 31.8677 6.42109 31.8519 6.36878C31.836 6.31647 31.8235 6.26855 31.8052 6.21709C31.7866 6.16562 31.7676 6.11589 31.7469 6.06539C31.7258 6.01489 31.7001 5.96311 31.6768 5.9137C31.6533 5.86428 31.6325 5.81021 31.6068 5.762C31.5809 5.71379 31.5533 5.66886 31.5252 5.62197C31.497 5.57509 31.4622 5.5274 31.4318 5.48195C31.4015 5.4365 31.371 5.3975 31.3385 5.35359C31.3059 5.30968 31.2798 5.26749 31.2451 5.22523C31.2104 5.18298 31.1652 5.13738 31.1284 5.09687C31.0917 5.05637 31.0621 5.01884 31.0234 4.98019C30.9848 4.94153 30.9473 4.90021 30.9067 4.8635C30.8662 4.82678 30.8207 4.79316 30.7784 4.75848C30.7361 4.72379 30.694 4.68603 30.6501 4.65346C30.6062 4.62089 30.5555 4.59049 30.51 4.56011C30.4646 4.52973 30.4286 4.50654 30.3817 4.47842C30.3348 4.45031 30.2782 4.42252 30.23 4.39674C30.1818 4.37096 30.1394 4.35011 30.09 4.32673C30.0406 4.30334 29.9888 4.27765 29.9383 4.25672C29.8878 4.23578 29.8381 4.2168 29.7866 4.19837C29.7351 4.17994 29.6756 4.15591 29.6233 4.14003C29.5709 4.12414 29.5246 4.11832 29.4716 4.10502C29.4185 4.09172 29.3618 4.07001 29.3082 4.07001C29.2546 4.07001 29.1989 4.03501 29.1449 4.03501C29.0908 4.03501 29.0359 4.01167 28.9815 4.01167C28.9271 4.01167 28.8727 4 28.8182 4C28.7635 4 28.7095 4 28.6548 4ZM6.10027 28.6563L6.10027 23.4987L4 23.4987L4 28.6563C4 28.711 4 28.7651 4 28.8197C4 28.8743 4.01167 28.9287 4.01167 28.9831C4.01167 29.0375 4.035 29.0924 4.035 29.1464C4.035 29.2005 4.07001 29.2562 4.07001 29.3098C4.07001 29.3634 4.09171 29.4201 4.10501 29.4732C4.11832 29.5262 4.12413 29.5725 4.14002 29.6249C4.1559 29.6772 4.17993 29.7367 4.19836 29.7882C4.21679 29.8397 4.23577 29.8894 4.2567 29.9399C4.27763 29.9904 4.30332 30.0422 4.32671 30.0916C4.35009 30.141 4.37094 30.1834 4.39672 30.2316C4.4225 30.2799 4.45028 30.3248 4.47839 30.3717C4.50651 30.4185 4.5297 30.4662 4.56007 30.5117C4.59045 30.5571 4.62085 30.6078 4.65342 30.6517C4.68598 30.6956 4.72375 30.7378 4.75843 30.7801C4.79311 30.8223 4.82673 30.8563 4.86344 30.8968C4.90016 30.9373 4.94147 30.9865 4.98012 31.0251C5.01878 31.0638 5.0563 31.0934 5.09681 31.1301C5.13731 31.1669 5.1829 31.2122 5.22516 31.2468C5.26741 31.2815 5.3096 31.3076 5.35351 31.3402C5.39741 31.3728 5.43641 31.4032 5.48185 31.4335C5.5273 31.4639 5.57499 31.4987 5.62187 31.5269C5.66876 31.5548 5.71369 31.5826 5.76189 31.6086C5.8101 31.6343 5.86416 31.6551 5.91358 31.6786C5.96299 31.7018 6.01476 31.7275 6.06526 31.7486C6.11576 31.7694 6.16548 31.7883 6.21695 31.8069C6.26841 31.8253 6.31633 31.8377 6.36863 31.8536C6.42094 31.8695 6.47896 31.8869 6.53199 31.9003C6.58501 31.9134 6.63006 31.9353 6.68367 31.9353C6.73728 31.9353 6.79296 31.9586 6.84703 31.9586C6.90109 31.9586 6.95599 31.982 7.01038 31.982C7.06478 31.982 7.11912 31.9936 7.17374 31.9936C7.22832 31.9936 7.28242 32.0053 7.33709 32.0053L12.5061 32.0053L12.5061 29.9049L7.33709 29.9049C7.31674 29.9049 7.29907 29.9049 7.27875 29.9049C7.25843 29.9049 7.24065 29.8932 7.22041 29.8932C7.20017 29.8932 7.18217 29.8932 7.16207 29.8932C7.14197 29.8932 7.12366 29.8816 7.10373 29.8816C7.08379 29.8816 7.05344 29.8699 7.03372 29.8699C7.014 29.8699 6.99482 29.8466 6.97538 29.8466C6.95593 29.8466 6.93621 29.8232 6.91704 29.8232C6.89789 29.8232 6.88915 29.8116 6.87036 29.8116C6.85158 29.8116 6.8304 29.7766 6.81202 29.7766C6.79365 29.7766 6.77162 29.7532 6.75368 29.7532C6.73574 29.7532 6.72445 29.7299 6.70701 29.7299C6.68957 29.7299 6.66558 29.6949 6.64867 29.6949C6.63176 29.6949 6.61833 29.672 6.602 29.6599C6.58567 29.6477 6.57104 29.6378 6.55532 29.6249C6.53961 29.612 6.52372 29.5918 6.50865 29.5782C6.49359 29.5645 6.47636 29.5576 6.46198 29.5432C6.4476 29.5288 6.42896 29.5116 6.41531 29.4965C6.40165 29.4814 6.3932 29.4655 6.3803 29.4498C6.3674 29.4341 6.35741 29.4195 6.3453 29.4031C6.33319 29.3868 6.31029 29.3617 6.31029 29.3448C6.31029 29.3279 6.27529 29.3156 6.27529 29.2981C6.27529 29.2807 6.24028 29.2577 6.24028 29.2398C6.24028 29.2218 6.21695 29.2115 6.21695 29.1931C6.21695 29.1747 6.19361 29.1536 6.19361 29.1348C6.19361 29.116 6.17028 29.0956 6.17028 29.0764C6.17028 29.0572 6.14694 29.0375 6.14694 29.0181C6.14694 28.9986 6.13527 28.9794 6.13527 28.9597C6.13527 28.94 6.1236 28.9213 6.1236 28.9014C6.1236 28.8814 6.11193 28.8631 6.11193 28.843C6.11193 28.8229 6.10027 28.8049 6.10027 28.7847C6.10027 28.7645 6.10027 28.735 6.10027 28.7147C6.10027 28.6944 6.10027 28.6767 6.10027 28.6563ZM29.9033 28.6563C29.9033 28.6767 29.9033 28.6944 29.9033 28.7147C29.9033 28.735 29.8916 28.7645 29.8916 28.7847C29.8916 28.8049 29.8916 28.8229 29.8916 28.843C29.8916 28.8631 29.88 28.8814 29.88 28.9014C29.88 28.9213 29.8683 28.94 29.8683 28.9597C29.8683 28.9794 29.8449 28.9986 29.8449 29.0181C29.8449 29.0375 29.8333 29.0572 29.8333 29.0764C29.8333 29.0956 29.8099 29.116 29.8099 29.1348C29.8099 29.1536 29.7866 29.1747 29.7866 29.1931C29.7866 29.2115 29.7516 29.2218 29.7516 29.2398C29.7516 29.2577 29.7283 29.2807 29.7283 29.2981C29.7283 29.3156 29.6933 29.3279 29.6933 29.3448C29.6933 29.3617 29.6704 29.3868 29.6583 29.4031C29.6461 29.4195 29.6362 29.4341 29.6233 29.4498C29.6104 29.4655 29.5902 29.4814 29.5766 29.4965C29.5629 29.5116 29.556 29.5288 29.5416 29.5432C29.5272 29.5576 29.51 29.5645 29.4949 29.5782C29.4798 29.5918 29.464 29.612 29.4482 29.6249C29.4325 29.6378 29.4179 29.6477 29.4016 29.6599C29.3852 29.672 29.3718 29.6949 29.3549 29.6949C29.338 29.6949 29.314 29.7299 29.2965 29.7299C29.2791 29.7299 29.2678 29.7532 29.2499 29.7532C29.2319 29.7532 29.2099 29.7766 29.1915 29.7766C29.1732 29.7766 29.152 29.8116 29.1332 29.8116C29.1144 29.8116 29.094 29.8232 29.0749 29.8232C29.0557 29.8232 29.036 29.8466 29.0165 29.8466C28.9971 29.8466 28.9779 29.8699 28.9582 29.8699C28.9385 29.8699 28.9198 29.8816 28.8998 29.8816C28.8799 29.8816 28.8616 29.8932 28.8415 29.8932C28.8214 29.8932 28.8034 29.8932 28.7831 29.8932C28.7629 29.8932 28.7451 29.9049 28.7248 29.9049C28.7045 29.9049 28.6751 29.9049 28.6548 29.9049L23.4858 29.9049L23.4858 32.0053L28.6548 32.0053C28.7095 32.0053 28.7635 31.9936 28.8182 31.9936C28.8727 31.9936 28.9271 31.982 28.9815 31.982C29.0359 31.982 29.0908 31.9586 29.1449 31.9586C29.1989 31.9586 29.2546 31.9353 29.3082 31.9353C29.3618 31.9353 29.4185 31.9134 29.4716 31.9003C29.5246 31.8869 29.5709 31.8695 29.6233 31.8536C29.6756 31.8377 29.7351 31.8253 29.7866 31.8069C29.8381 31.7883 29.8878 31.7694 29.9383 31.7486C29.9888 31.7275 30.0406 31.7018 30.09 31.6786C30.1394 31.6551 30.1818 31.6343 30.23 31.6086C30.2782 31.5826 30.3348 31.5548 30.3817 31.5269C30.4286 31.4987 30.4646 31.4639 30.51 31.4335C30.5555 31.4032 30.6062 31.3728 30.6501 31.3402C30.694 31.3076 30.7361 31.2815 30.7784 31.2468C30.8207 31.2122 30.8662 31.1669 30.9067 31.1301C30.9473 31.0934 30.9848 31.0638 31.0234 31.0251C31.0621 30.9865 31.0917 30.9373 31.1284 30.8968C31.1652 30.8563 31.2104 30.8223 31.2451 30.7801C31.2798 30.7378 31.3059 30.6956 31.3385 30.6517C31.371 30.6078 31.4015 30.5571 31.4318 30.5117C31.4622 30.4662 31.497 30.4185 31.5252 30.3717C31.5533 30.3248 31.5809 30.2799 31.6068 30.2316C31.6325 30.1834 31.6533 30.141 31.6768 30.0916C31.7001 30.0422 31.7258 29.9904 31.7469 29.9399C31.7676 29.8894 31.7866 29.8397 31.8052 29.7882C31.8235 29.7367 31.836 29.6772 31.8519 29.6249C31.8677 29.5725 31.8851 29.5262 31.8985 29.4732C31.9119 29.4201 31.9335 29.3634 31.9335 29.3098C31.9335 29.2562 31.9686 29.2005 31.9686 29.1464C31.9686 29.0924 31.9802 29.0375 31.9802 28.9831C31.9802 28.9287 31.9919 28.8743 31.9919 28.8197C31.9919 28.7651 32.0036 28.711 32.0036 28.6563L32.0036 23.4987L29.9033 23.4987L29.9033 28.6563Z"   fill="currentColor" >
</path>
</svg>
