<svg xmlns="http://www.w3.org/2000/svg" width="14" height="14" viewBox="0 0 14 14" fill="none">
  <path opacity="0.5" fill-rule="evenodd" clip-rule="evenodd" d="M3.5 12.25L5.25 12.25L5.25 11.0833L3.5 11.0833C3.17917 11.0833 2.91667 10.8208 2.91667 10.5L2.91667 5.83333L11.0833 5.83333L11.0833 10.5C11.0833 10.8208 10.8208 11.0833 10.5 11.0833L8.75 11.0833L8.75 12.25L10.5 12.25C11.4625 12.25 12.25 11.4625 12.25 10.5L12.25 3.5C12.25 2.5375 11.4625 1.75 10.5 1.75L3.5 1.75C2.5375 1.75 1.75 2.5375 1.75 3.5L1.75 10.5C1.75 11.4625 2.5375 12.25 3.5 12.25ZM2.91667 3.5C2.91667 3.17917 3.17917 2.91667 3.5 2.91667L10.5 2.91667C10.8208 2.91667 11.0833 3.17917 11.0833 3.5L11.0833 4.66667L2.91667 4.66667L2.91667 3.5Z" fill="currentColor"/>
  <path fill-rule="evenodd" clip-rule="evenodd" d="M9.33301 9.33333L6.99967 6.41667L4.66634 9.33333L6.41634 9.33333L6.41634 12.25L7.58301 12.25L7.58301 9.33333L9.33301 9.33333Z" fill="currentColor"/>
</svg>