<svg xmlns="http://www.w3.org/2000/svg" width="14" height="14" viewBox="0 0 14 14" fill="currentColor">
  <path d="M10.9959 7.09338V10.5934C10.9959 10.9142 10.7334 11.1767 10.4126 11.1767H3.4126C3.09176 11.1767 2.82926 10.9142 2.82926 10.5934V7.09338H1.6626V10.5934C1.6626 11.5559 2.4501 12.3434 3.4126 12.3434H10.4126C11.3751 12.3434 12.1626 11.5559 12.1626 10.5934V7.09338H10.9959Z" fill="currentColor"/>
  <path d="M6.41661 3.73913V9.3333H7.58327V3.73913L8.91911 5.07497L9.74161 4.25247L7.40827 1.91913C7.35577 1.86663 7.29744 1.81997 7.22161 1.7908C7.00577 1.69747 6.75494 1.74997 6.58577 1.91913L4.25244 4.25247L5.07494 5.07497L6.41077 3.73913H6.41661Z" fill="currentColor"/>
</svg>