<svg xmlns="http://www.w3.org/2000/svg" width="14" height="14" viewBox="0 0 14 14" fill="none">
  <path opacity="0.5" d="M10.4121 12.3434H3.41211C2.44961 12.3434 1.66211 11.5559 1.66211 10.5934V7.09342H2.82878V10.5934C2.82878 10.9143 3.09128 11.1768 3.41211 11.1768H10.4121C10.7329 11.1768 10.9954 10.9143 10.9954 10.5934V7.09342H12.1621V10.5934C12.1621 11.5559 11.3746 12.3434 10.4121 12.3434Z" fill="currentColor"/>
  <path d="M9.74796 4.25263L7.41462 1.91929C7.36212 1.86679 7.30379 1.82013 7.22796 1.79096C7.01212 1.69763 6.76129 1.75013 6.59212 1.91929L4.25879 4.25263L5.08129 5.07513L6.41712 3.73929V9.33346H7.58379V3.73929L8.91962 5.07513L9.74212 4.25263H9.74796Z" fill="currentColor"/>
</svg>