<svg xmlns="http://www.w3.org/2000/svg" width="12" height="12" viewBox="0 0 12 12" fill="currentColor">
  <path opacity="0.5" fill-rule="evenodd" clip-rule="evenodd" d="M9.36492 11H2.63492C2.03492 11 1.56992 10.475 1.64492 9.875L1.67492 9.625C1.86492 8.125 3.13992 6.995 4.64992 6.995H7.35492C8.86992 6.995 10.1449 8.12 10.3299 9.625L10.3599 9.875C10.4349 10.47 9.96992 11 9.36992 11H9.36492Z" fill="currentColor"/>
  <path opacity="0.8" d="M6 6C7.38071 6 8.5 4.88071 8.5 3.5C8.5 2.11929 7.38071 1 6 1C4.61929 1 3.5 2.11929 3.5 3.5C3.5 4.88071 4.61929 6 6 6Z" fill="currentColor"/>
</svg>