<svg xmlns="http://www.w3.org/2000/svg" xmlns:xlink="http://www.w3.org/1999/xlink" width="14.36669921875" height="14.447998046875" viewBox="0 0 14.36669921875 14.447998046875" fill="none">
<path d="M11.1028 13.904C10.6548 13.904 10.2308 13.8187 9.83076 13.648C9.43077 13.4773 9.08144 13.2427 8.78276 12.944C8.48411 12.6453 8.24944 12.296 8.07876 11.896C7.90811 11.496 7.82276 11.072 7.82276 10.624C7.82276 10.176 7.90811 9.752 8.07876 9.352C8.24944 8.952 8.48411 8.60533 8.78276 8.312C9.08144 8.01867 9.43077 7.78666 9.83076 7.616C10.2308 7.44533 10.6548 7.36 11.1028 7.36C11.5508 7.36 11.9748 7.44533 12.3748 7.616C12.7748 7.78666 13.1214 8.01867 13.4148 8.312C13.7081 8.60533 13.9401 8.952 14.1108 9.352C14.2814 9.752 14.3668 10.176 14.3668 10.624C14.3668 11.072 14.2814 11.496 14.1108 11.896C13.9401 12.296 13.7081 12.6453 13.4148 12.944C13.1214 13.2427 12.7748 13.4773 12.3748 13.648C11.9748 13.8187 11.5508 13.904 11.1028 13.904ZM12.7188 10.096L11.5348 10.096L11.5348 8.992C11.5348 8.84266 11.4868 8.71466 11.3908 8.608C11.2948 8.50133 11.1721 8.448 11.0228 8.448C10.8734 8.448 10.7561 8.50133 10.6708 8.608C10.5854 8.71466 10.5428 8.84266 10.5428 8.992L10.5428 10.096L9.50276 10.096C9.35344 10.096 9.22544 10.1493 9.11876 10.256C9.01211 10.3627 8.95877 10.4907 8.95877 10.64C8.95877 10.7893 9.01211 10.9013 9.11876 10.976C9.22544 11.0507 9.35344 11.088 9.50276 11.088L10.5428 11.088L10.5428 12.224C10.5428 12.3733 10.5854 12.5013 10.6708 12.608C10.7561 12.7147 10.8734 12.768 11.0228 12.768C11.1721 12.768 11.2948 12.7147 11.3908 12.608C11.4868 12.5013 11.5348 12.3733 11.5348 12.224L11.5348 11.088L12.7188 11.088L12.7188 11.12C12.8681 11.12 12.9961 11.0773 13.1028 10.992C13.2094 10.9067 13.2628 10.7893 13.2628 10.64C13.2628 10.4907 13.2094 10.3627 13.1028 10.256C12.9961 10.1493 12.8681 10.096 12.7188 10.096ZM8.76676 6.112C8.72411 6.28266 8.68144 6.43733 8.63876 6.576C8.59611 6.69333 8.54276 6.81333 8.47876 6.936C8.41476 7.05866 8.34544 7.152 8.27077 7.216C8.17476 7.29066 8.10811 7.37066 8.07076 7.456C8.03344 7.54133 8.00144 7.62933 7.97476 7.72C7.94811 7.81066 7.91877 7.904 7.88677 8C7.85476 8.096 7.80144 8.192 7.72676 8.288C7.48144 8.608 7.29744 8.91733 7.17477 9.216C7.05211 9.51466 6.96676 9.80266 6.91877 10.08C6.87077 10.3573 6.85744 10.632 6.87877 10.904C6.90011 11.176 6.94276 11.44 7.00676 11.696C7.04944 11.888 7.11344 12.088 7.19876 12.296C7.28411 12.504 7.40944 12.7173 7.57476 12.936C7.74011 13.1547 7.95076 13.368 8.20677 13.576C8.46276 13.784 8.78276 13.984 9.16677 14.176C8.91076 14.2293 8.61211 14.2773 8.27077 14.32C7.98276 14.352 7.62811 14.3813 7.20677 14.408C6.78544 14.4347 6.30276 14.448 5.75877 14.448C5.48144 14.448 5.15877 14.4373 4.79077 14.416C4.42277 14.3947 4.04411 14.368 3.65477 14.336C3.26544 14.304 2.88144 14.2667 2.50277 14.224C2.12411 14.1813 1.77744 14.136 1.46277 14.088C1.1481 14.04 0.881436 13.9893 0.662769 13.936C0.444103 13.8827 0.308103 13.8347 0.254769 13.792C0.158769 13.7067 0.0841025 13.4693 0.0307692 13.08C-0.0225641 12.6907 -0.00656408 12.1813 0.0787692 11.552C0.132102 11.2 0.273436 10.9307 0.502769 10.744C0.732103 10.5573 1.00144 10.4107 1.31077 10.304C1.62011 10.1973 1.94277 10.0987 2.27877 10.008C2.61477 9.91733 2.91077 9.792 3.16677 9.632C3.36944 9.504 3.52411 9.384 3.63077 9.272C3.73744 9.16 3.81211 9.04533 3.85477 8.928C3.89744 8.81067 3.91877 8.688 3.91877 8.56C3.91877 8.432 3.91344 8.29333 3.90277 8.144C3.88144 7.92 3.80411 7.744 3.67077 7.616C3.53744 7.488 3.39611 7.36 3.24677 7.232C3.16144 7.168 3.08677 7.072 3.02277 6.944C2.95877 6.816 2.90544 6.69333 2.86277 6.576C2.80944 6.43733 2.76677 6.28266 2.73477 6.112C2.66011 6.09066 2.59077 6.05866 2.52677 6.016C2.47344 5.97333 2.41477 5.90933 2.35077 5.824C2.28677 5.73866 2.22811 5.61066 2.17477 5.44C2.12144 5.28 2.10277 5.13066 2.11877 4.992C2.13477 4.85333 2.16411 4.736 2.20677 4.64C2.24944 4.52266 2.30811 4.42133 2.38277 4.336C2.38277 3.97333 2.40411 3.61066 2.44677 3.248C2.48944 2.93866 2.55611 2.608 2.64677 2.256C2.73744 1.904 2.88411 1.58933 3.08677 1.312C3.27877 1.04533 3.48411 0.826664 3.70277 0.656C3.92144 0.485333 4.14811 0.352 4.38277 0.256C4.61744 0.16 4.85211 0.0933333 5.08677 0.056C5.32144 0.0186667 5.54544 0 5.75877 0C6.03611 0 6.30276 0.032 6.55876 0.096C6.81476 0.16 7.05211 0.245333 7.27076 0.352C7.48944 0.458667 7.68411 0.578667 7.85476 0.712C8.02544 0.845331 8.16411 0.98133 8.27077 1.12C8.51611 1.42933 8.69477 1.77066 8.80676 2.144C8.91877 2.51733 9.00144 2.86933 9.05476 3.2C9.10811 3.584 9.12944 3.968 9.11876 4.352C9.18277 4.40533 9.23611 4.46933 9.27876 4.544C9.32144 4.608 9.35344 4.69333 9.37476 4.8C9.39611 4.90666 9.39611 5.04 9.37476 5.2C9.35344 5.40266 9.31076 5.56266 9.24677 5.68C9.18277 5.79733 9.11344 5.888 9.03876 5.952C8.95344 6.02666 8.86276 6.08 8.76676 6.112Z"   fill="currentColor" >
</path>
</svg>
