<svg xmlns="http://www.w3.org/2000/svg" xmlns:xlink="http://www.w3.org/1999/xlink" width="14.666656494140625" height="9.333343505859375" viewBox="0 0 14.666656494140625 9.333343505859375">
<path d="M10.0351 6.14833L12.7608 7.68211C12.8719 7.74433 12.9962 7.77777 13.1229 7.77777C13.5489 7.77777 13.8948 7.41222 13.8948 6.95956L13.8948 2.37377C13.8948 2.24 13.8639 2.10856 13.8045 1.99033C13.6046 1.59133 13.1375 1.43967 12.7608 1.65123L10.0351 3.185L10.0351 6.14833ZM10.0351 2.28356L12.3987 0.967559C13.1522 0.547556 14.0862 0.847777 14.4861 1.638C14.605 1.87133 14.6667 2.13267 14.6667 2.39711L14.6667 6.93622C14.6667 7.83067 13.9758 8.55556 13.1229 8.55556C12.8704 8.55556 12.6211 8.49022 12.3987 8.36656L10.0351 7.04977L10.0351 7.63622C10.0351 8.57344 9.28633 9.33333 8.36234 9.33333L1.67278 9.33333C1.64532 9.33324 1.61786 9.33251 1.59042 9.33105C1.56299 9.32959 1.53561 9.3275 1.50827 9.32467C1.48094 9.32185 1.45369 9.31838 1.42653 9.31419C1.39937 9.31009 1.37232 9.30526 1.34539 9.29979C1.31847 9.29423 1.2917 9.28812 1.26507 9.28129C1.23843 9.27445 1.21199 9.26698 1.18572 9.25887C1.15946 9.25075 1.13341 9.242 1.10757 9.23262C1.08174 9.22323 1.05615 9.21311 1.0308 9.20245C1.00545 9.19178 0.980386 9.18048 0.95559 9.16854C0.930795 9.1566 0.906308 9.14411 0.882121 9.13099C0.857936 9.11786 0.834086 9.10415 0.810568 9.08984C0.787052 9.07553 0.763899 9.06064 0.741107 9.04518C0.718316 9.02973 0.695915 9.01371 0.673905 8.99715C0.651894 8.98059 0.6303 8.96349 0.609123 8.94585C0.587946 8.92822 0.567211 8.91007 0.546919 8.89141C0.526626 8.87275 0.506801 8.8536 0.487441 8.83396C0.468082 8.81432 0.449212 8.7942 0.430833 8.77363C0.412455 8.75306 0.394588 8.73205 0.377233 8.71059C0.359878 8.68913 0.343057 8.66726 0.326768 8.64496C0.31048 8.62268 0.294744 8.59999 0.279562 8.57692C0.264379 8.55385 0.249766 8.53042 0.235726 8.50663C0.221686 8.48283 0.208232 8.45871 0.195368 8.43425C0.182503 8.4098 0.170242 8.38503 0.158584 8.35997C0.146926 8.3349 0.135886 8.30956 0.125463 8.28395C0.11504 8.25834 0.105247 8.23248 0.0960846 8.20639C0.086922 8.18029 0.0784004 8.15399 0.07052 8.12747C0.0626396 8.10095 0.0554099 8.07425 0.0488309 8.04737C0.0422517 8.0205 0.0363313 7.99348 0.0310694 7.96631C0.0258073 7.93914 0.0212103 7.91186 0.0172782 7.88447C0.013346 7.85707 0.0100836 7.82959 0.00749071 7.80204C0.00489786 7.77448 0.00297778 7.74688 0.00173049 7.71922C0.00048318 7.69157 -8.98457e-05 7.66391 1.14028e-05 7.63622L1.14028e-05 1.69711C1.14028e-05 0.759889 0.748785 0 1.67278 0L8.36234 0C9.28633 0 10.0351 0.759889 10.0351 1.69711L10.0351 2.28356ZM1.62106 0.777777C1.15173 0.777777 0.771943 1.16433 0.771943 1.64189L0.771943 7.69222C0.771943 8.169 1.15173 8.55556 1.62106 8.55556L8.41406 8.55556C8.88339 8.55556 9.26317 8.169 9.26317 7.69144L9.26317 1.64111C9.26317 1.16433 8.88339 0.777777 8.41406 0.777777L1.62106 0.777777ZM3.08773 3.88889C3.0751 3.88889 3.06247 3.88858 3.04985 3.88795C3.03724 3.88732 3.02464 3.88639 3.01207 3.88515C2.9995 3.8839 2.98697 3.88234 2.97446 3.88047C2.96197 3.8786 2.94952 3.87643 2.93713 3.87394C2.92475 3.87146 2.91243 3.86867 2.90017 3.86558C2.88792 3.86249 2.87575 3.85909 2.86365 3.8554C2.85157 3.8517 2.83958 3.84771 2.82767 3.84342C2.81579 3.83913 2.804 3.83456 2.79232 3.82968C2.78065 3.82481 2.76911 3.81966 2.75768 3.81422C2.74627 3.80877 2.73499 3.80305 2.72384 3.79705C2.71271 3.79105 2.70172 3.78478 2.69088 3.77823C2.68004 3.77169 2.66938 3.76488 2.65887 3.75781C2.64837 3.75074 2.63804 3.74341 2.62789 3.73583C2.61775 3.72825 2.60779 3.72042 2.59802 3.71234C2.58826 3.70427 2.5787 3.69595 2.56934 3.6874C2.55998 3.67886 2.55083 3.67008 2.54189 3.66108C2.53296 3.65209 2.52425 3.64287 2.51577 3.63344C2.50729 3.624 2.49904 3.61437 2.49102 3.60453C2.48301 3.59469 2.47524 3.58466 2.46771 3.57443C2.46019 3.56421 2.45291 3.5538 2.44589 3.54322C2.43887 3.53264 2.43212 3.52188 2.42562 3.51096C2.41913 3.50005 2.4129 3.48898 2.40695 3.47775C2.401 3.46653 2.39532 3.45516 2.38992 3.44365C2.38452 3.43214 2.3794 3.42051 2.37456 3.40875C2.36973 3.397 2.36519 3.38512 2.36092 3.37313C2.35667 3.36115 2.35271 3.34907 2.34904 3.33688C2.34537 3.32471 2.34201 3.31245 2.33893 3.3001C2.33587 3.28775 2.3331 3.27533 2.33064 3.26285C2.32818 3.25036 2.32602 3.23782 2.32415 3.22523C2.32231 3.21264 2.32076 3.20001 2.31952 3.18735C2.31828 3.17468 2.31735 3.16199 2.31673 3.14927C2.31612 3.13656 2.3158 3.12384 2.3158 3.11111C2.3158 3.09838 2.31612 3.08566 2.31673 3.07294C2.31735 3.06023 2.31828 3.04754 2.31952 3.03487C2.32076 3.0222 2.32231 3.00957 2.32415 2.99698C2.32602 2.9844 2.32818 2.97186 2.33064 2.95938C2.3331 2.94689 2.33587 2.93448 2.33893 2.92213C2.34201 2.90978 2.34537 2.89752 2.34904 2.88533C2.35271 2.87315 2.35667 2.86107 2.36092 2.84908C2.36519 2.8371 2.36973 2.82523 2.37456 2.81347C2.3794 2.8017 2.38452 2.79007 2.38992 2.77857C2.39532 2.76706 2.401 2.75569 2.40695 2.74446C2.4129 2.73324 2.41913 2.72217 2.42562 2.71125C2.43212 2.70033 2.43887 2.68959 2.44589 2.679C2.45291 2.66842 2.46019 2.65801 2.46771 2.64779C2.47524 2.63757 2.48301 2.62753 2.49102 2.61769C2.49904 2.60786 2.50729 2.59822 2.51577 2.58879C2.52425 2.57935 2.53296 2.57014 2.54189 2.56114C2.55083 2.55214 2.55998 2.54336 2.56934 2.53481C2.5787 2.52627 2.58826 2.51796 2.59802 2.50988C2.60779 2.50181 2.61775 2.49398 2.62789 2.48639C2.63804 2.47881 2.64837 2.47148 2.65887 2.46441C2.66938 2.45734 2.68004 2.45053 2.69088 2.44398C2.70172 2.43745 2.71271 2.43118 2.72384 2.42517C2.73499 2.41917 2.74627 2.41345 2.75768 2.40801C2.76911 2.40257 2.78065 2.39741 2.79232 2.39254C2.804 2.38767 2.81579 2.38309 2.82767 2.3788C2.83958 2.37451 2.85157 2.37052 2.86365 2.36682C2.87575 2.36313 2.88792 2.35973 2.90017 2.35664C2.91243 2.35355 2.92475 2.35076 2.93713 2.34828C2.94952 2.34579 2.96197 2.34362 2.97446 2.34175C2.98697 2.33989 2.9995 2.33833 3.01207 2.33708C3.02464 2.33583 3.03724 2.3349 3.04985 2.33427C3.06247 2.33364 3.0751 2.33333 3.08773 2.33333C3.10037 2.33333 3.113 2.33364 3.12561 2.33427C3.13823 2.3349 3.15083 2.33583 3.16339 2.33708C3.17597 2.33833 3.1885 2.33989 3.201 2.34175C3.2135 2.34362 3.22594 2.34579 3.23833 2.34828C3.25072 2.35076 3.26304 2.35355 3.27529 2.35664C3.28756 2.35973 3.29973 2.36313 3.31181 2.36682C3.32391 2.37052 3.3359 2.37451 3.34779 2.3788C3.35968 2.38309 3.37147 2.38767 3.38314 2.39254C3.39481 2.39741 3.40636 2.40257 3.41778 2.40801C3.4292 2.41345 3.44048 2.41917 3.45162 2.42517C3.46276 2.43118 3.47374 2.43745 3.48458 2.44398C3.49542 2.45053 3.50609 2.45734 3.5166 2.46441C3.52711 2.47148 3.53743 2.47881 3.54757 2.48639C3.55772 2.49398 3.56768 2.50181 3.57744 2.50988C3.58721 2.51796 3.59677 2.52627 3.60613 2.53481C3.6155 2.54336 3.62464 2.55214 3.63357 2.56114C3.64251 2.57014 3.65121 2.57935 3.6597 2.58879C3.66818 2.59822 3.67643 2.60786 3.68445 2.61769C3.69246 2.62753 3.70023 2.63757 3.70776 2.64779C3.71528 2.65801 3.72255 2.66842 3.72957 2.679C3.73659 2.68959 3.74334 2.70033 3.74984 2.71125C3.75633 2.72217 3.76256 2.73324 3.76851 2.74446C3.77447 2.75569 3.78015 2.76706 3.78555 2.77857C3.79095 2.79007 3.79607 2.8017 3.8009 2.81347C3.80574 2.82523 3.81029 2.8371 3.81454 2.84908C3.8188 2.86107 3.82276 2.87315 3.82642 2.88533C3.8301 2.89752 3.83346 2.90978 3.83653 2.92213C3.8396 2.93448 3.84237 2.94689 3.84483 2.95938C3.8473 2.97186 3.84946 2.9844 3.85131 2.99698C3.85316 3.00957 3.85471 3.0222 3.85595 3.03487C3.85719 3.04754 3.85812 3.06023 3.85874 3.07294C3.85936 3.08566 3.85967 3.09838 3.85967 3.11111C3.85967 3.12384 3.85936 3.13656 3.85874 3.14927C3.85812 3.16199 3.85719 3.17468 3.85595 3.18735C3.85471 3.20001 3.85316 3.21264 3.85131 3.22523C3.84946 3.23782 3.8473 3.25036 3.84483 3.26285C3.84237 3.27533 3.8396 3.28775 3.83653 3.3001C3.83346 3.31245 3.8301 3.32471 3.82642 3.33688C3.82276 3.34907 3.8188 3.36115 3.81454 3.37313C3.81029 3.38512 3.80574 3.397 3.8009 3.40875C3.79607 3.42051 3.79095 3.43214 3.78555 3.44365C3.78015 3.45516 3.77447 3.46653 3.76851 3.47775C3.76256 3.48898 3.75633 3.50005 3.74984 3.51096C3.74334 3.52188 3.73659 3.53264 3.72957 3.54322C3.72255 3.5538 3.71528 3.56421 3.70776 3.57443C3.70023 3.58466 3.69246 3.59469 3.68445 3.60453C3.67643 3.61437 3.66818 3.624 3.6597 3.63344C3.65121 3.64287 3.64251 3.65209 3.63357 3.66108C3.62464 3.67008 3.6155 3.67886 3.60613 3.6874C3.59677 3.69595 3.58721 3.70427 3.57744 3.71234C3.56768 3.72042 3.55772 3.72825 3.54757 3.73583C3.53743 3.74341 3.52711 3.75074 3.5166 3.75781C3.50609 3.76488 3.49542 3.77169 3.48458 3.77823C3.47374 3.78478 3.46276 3.79105 3.45162 3.79705C3.44048 3.80305 3.4292 3.80877 3.41778 3.81422C3.40636 3.81966 3.39481 3.82481 3.38314 3.82968C3.37147 3.83456 3.35969 3.83913 3.34779 3.84342C3.3359 3.84771 3.32391 3.8517 3.31181 3.8554C3.29973 3.85909 3.28756 3.86249 3.27529 3.86558C3.26304 3.86867 3.25072 3.87146 3.23833 3.87394C3.22594 3.87643 3.2135 3.8786 3.201 3.88047C3.1885 3.88234 3.17597 3.8839 3.16339 3.88515C3.15083 3.88639 3.13823 3.88732 3.12561 3.88795C3.113 3.88858 3.10037 3.88889 3.08773 3.88889Z"   fill="currentColor" >
</path>
</svg>
