<svg t="1723692669462" class="icon" viewBox="0 0 1024 1024" version="1.1" xmlns="http://www.w3.org/2000/svg" p-id="4825" width="256" height="256"><path d="M527.850667 506.517333l-64-64a30.165333 30.165333 0 1 0-42.666667 42.666667l85.333333 85.333333a30.165333 30.165333 0 0 0 42.666667 0l85.333333-85.333333a30.165333 30.165333 0 0 0-42.666666-42.666667l-64 64z m179.648-276.416l177.130666 201.877334a42.666667 42.666667 0 0 1-1.024 57.386666L551.957333 841.429333a42.666667 42.666667 0 0 1-62.101333 0L158.208 489.386667a42.666667 42.666667 0 0 1-1.024-57.386667l177.130667-201.898667a42.666667 42.666667 0 0 1 32.085333-14.528H675.413333a42.666667 42.666667 0 0 1 32.064 14.528z" fill="currentColor" p-id="4826"></path></svg>