<svg xmlns="http://www.w3.org/2000/svg" xmlns:xlink="http://www.w3.org/1999/xlink" width="24" height="24" viewBox="0 0 24 24" >
<path d="M5.77734 7.92023C6.12672 7.7942 6.51286 7.96526 6.6416 8.30737C6.77951 8.65849 6.60481 9.0456 6.26463 9.18065C4.7108 9.78384 3.9477 11.5394 4.55451 13.0879C4.64645 13.313 4.60968 13.565 4.46257 13.7631C4.31546 13.9522 4.06722 14.0512 3.82817 14.0152C3.58912 13.9792 3.38685 13.8081 3.30411 13.583C2.42147 11.3413 3.52477 8.80252 5.77734 7.92023ZM7.42309 9.73883C7.58859 9.67579 7.77247 9.67579 7.93797 9.74782C8.10345 9.81984 8.23219 9.95488 8.29655 10.1169C8.3609 10.279 8.3609 10.4681 8.28735 10.6301C8.21379 10.7922 8.08508 10.9182 7.91958 10.9902C7.51504 11.1523 7.19325 11.4584 7.02774 11.8545C6.85305 12.2506 6.84387 12.6918 7.00935 13.0969C7.07371 13.2679 7.07371 13.448 7.00016 13.61C6.9266 13.7721 6.79789 13.8981 6.6324 13.9702L6.62321 13.9702C6.27383 14.0962 5.88766 13.9252 5.75895 13.583C5.46475 12.8448 5.48312 12.0346 5.79573 11.3053C6.08995 10.5941 6.68756 10.0269 7.42309 9.73883ZM17.6562 3.09471C17.8493 2.99568 18.0699 2.96867 18.2814 3.04069C18.4929 3.10371 18.6584 3.24776 18.7595 3.43682C18.8606 3.62588 18.879 3.85095 18.8146 4.05801C18.7503 4.26508 18.6124 4.43613 18.4193 4.53517L15.5231 6.06566L15.5231 13.9071C15.5231 15.8338 13.9509 17.4093 12.0202 17.4093C10.0894 17.4093 8.51719 15.8428 8.51719 13.9071C8.51719 11.9805 10.0894 10.405 12.0202 10.405C12.6821 10.405 13.3349 10.5941 13.8866 10.9452L13.8866 5.5795C13.8866 5.2824 14.0521 5.00332 14.3187 4.85927L17.6562 3.09471ZM17.4171 14.7624C17.7665 14.6454 18.1527 14.8254 18.2722 15.1675C18.8055 16.716 17.9872 18.4176 16.4334 18.9487C16.084 19.0658 15.6978 18.8767 15.5875 18.5256C15.468 18.1835 15.6427 17.7964 15.992 17.6703C16.8379 17.3733 17.2884 16.4459 16.9942 15.5997C16.8839 15.2666 17.0678 14.8884 17.4171 14.7624ZM19.8996 15.0055C20.0651 14.9425 20.2581 14.9605 20.4144 15.0325C20.5799 15.1135 20.6994 15.2486 20.7546 15.4196C21.1409 16.509 21.0673 17.7064 20.5615 18.7507C20.0559 19.795 19.164 20.5873 18.0699 20.9654L18.0607 20.9654C17.7113 21.0823 17.3252 20.8934 17.2149 20.5423C17.0953 20.1911 17.2792 19.804 17.6286 19.687C18.3917 19.4259 19.0077 18.8677 19.3571 18.1565C19.7065 17.4363 19.7525 16.608 19.495 15.8518C19.4398 15.6807 19.449 15.5006 19.5226 15.3386C19.5962 15.1946 19.7341 15.0685 19.8996 15.0055Z"   fill="currentColor" >
</path>
</svg>
