<svg xmlns="http://www.w3.org/2000/svg" xmlns:xlink="http://www.w3.org/1999/xlink" width="32" height="32" viewBox="0 0 32 32" fill="none">
<g opacity="0.355">
<path d="M30.8722 11.7482C30.9133 11.8494 30.9531 11.9512 30.9917 12.0533C31.0302 12.1554 31.0676 12.258 31.1036 12.3611C31.1397 12.4641 31.1745 12.5675 31.2081 12.6714C31.2416 12.7753 31.2739 12.8795 31.3049 12.9841C31.3359 13.0888 31.3656 13.1938 31.3941 13.2991C31.4225 13.4045 31.4496 13.5101 31.4755 13.6161C31.5013 13.7221 31.5259 13.8284 31.5491 13.9349C31.5724 14.0415 31.5943 14.1483 31.615 14.2554C31.6356 14.3625 31.655 14.4699 31.673 14.5774C31.691 14.685 31.7077 14.7927 31.7231 14.9007C31.7385 15.0086 31.7526 15.1167 31.7653 15.225C31.7781 15.3333 31.7895 15.4417 31.7996 15.5503C31.8097 15.6588 31.8185 15.7675 31.8259 15.8762C31.8334 15.985 31.8395 16.0938 31.8442 16.2027C31.849 16.3116 31.8525 16.4206 31.8546 16.5296C31.8567 16.6386 31.8575 16.7476 31.857 16.8566C31.8627 24.5309 25.4665 30.777 17.5201 30.8573L23.4591 20.9398C25.5208 18.0721 25.1374 14.1874 22.5512 11.7482L30.8722 11.7482ZM4.7341 10.045L10.6479 19.9128C11.8748 22.4228 14.4856 24.0296 17.3599 24.0432C17.5282 24.0414 17.6962 24.0347 17.8641 24.0233C18.0319 24.0119 18.1993 23.9958 18.3662 23.9749C18.5331 23.954 18.6993 23.9284 18.8647 23.8981C19.0301 23.8678 19.1945 23.8328 19.3579 23.7932L19.3566 23.7944L15.2069 30.7578C8.11407 29.7189 2.86853 23.8361 2.85719 16.9095C2.8571 16.8345 2.85764 16.7596 2.8588 16.6847C2.85997 16.6098 2.86177 16.5349 2.86419 16.46C2.86661 16.3851 2.86966 16.3102 2.87334 16.2354C2.87702 16.1606 2.88133 16.0857 2.88626 16.011C2.89119 15.9362 2.89675 15.8615 2.90294 15.7868C2.90913 15.7121 2.91594 15.6375 2.92337 15.5629C2.93081 15.4884 2.93887 15.4139 2.94756 15.3394C2.95625 15.265 2.96556 15.1906 2.97549 15.1163C2.98542 15.0421 2.99598 14.9679 3.00715 14.8938C3.01833 14.8196 3.03013 14.7456 3.04255 14.6717C3.05497 14.5978 3.068 14.524 3.08166 14.4503C3.09532 14.3765 3.10959 14.303 3.12448 14.2295C3.13937 14.156 3.15488 14.0827 3.17099 14.0094C3.18711 13.9362 3.20384 13.8632 3.2212 13.7902C3.23855 13.7173 3.2565 13.6445 3.27505 13.5718C3.29362 13.4992 3.31281 13.4267 3.3326 13.3543C3.35236 13.282 3.37274 13.2098 3.39373 13.1378C3.41474 13.0658 3.43633 12.9939 3.45851 12.9223C3.48072 12.8506 3.50352 12.7791 3.52692 12.7079C3.55032 12.6366 3.5743 12.5655 3.59888 12.4946C3.62347 12.4237 3.64865 12.353 3.67442 12.2825C3.70019 12.2121 3.72655 12.1418 3.75352 12.0718C3.78045 12.0017 3.80799 11.9319 3.83613 11.8623C3.86424 11.7927 3.89293 11.7233 3.92222 11.6542C3.9515 11.585 3.98136 11.5162 4.0118 11.4475C4.04225 11.3789 4.07327 11.3104 4.10486 11.2423C4.13644 11.1742 4.16859 11.1063 4.20133 11.0387C4.23403 10.9711 4.26732 10.9037 4.30118 10.8367C4.33504 10.7696 4.36945 10.7028 4.40441 10.6363C4.43939 10.5698 4.47493 10.5036 4.51102 10.4376C4.5471 10.3717 4.58373 10.3061 4.6209 10.2407C4.65809 10.1754 4.69582 10.1104 4.7341 10.0457L4.7341 10.045ZM18.3592 2.89012C23.1149 3.20488 27.4065 5.75905 29.8351 9.71973L18.0074 9.71973C17.7919 9.69887 17.5758 9.69057 17.3593 9.69482C13.98 9.71721 11.0357 11.9237 10.1751 15.0794L6.0253 8.14278C8.9917 4.5392 13.6036 2.57536 18.3586 2.89012L18.3592 2.89012Z"   fill="#0091FF" >
</path>
</g>
<path d="M12.094 16.8877C12.0915 14.8306 13.3732 12.975 15.3403 12.1862C17.3073 11.3974 19.5733 11.831 21.0801 13.2847C22.5869 14.7385 23.039 16.9256 22.2244 18.8267C21.4099 20.727 19.4894 21.9668 17.3591 21.9668C14.4545 21.965 12.099 19.6932 12.094 16.8877Z"   fill="#0091FF" >
</path>
</svg>
