<svg xmlns="http://www.w3.org/2000/svg" xmlns:xlink="http://www.w3.org/1999/xlink" width="32" height="32" viewBox="0 0 32 32" fill="none">
<path d="M10.5434 10.6821C9.9885 10.6821 9.43359 11.0521 9.43359 11.607C9.43359 12.1619 9.9885 12.5318 10.5434 12.5318C11.0983 12.5318 11.4683 12.1619 11.4683 11.607C11.4683 11.0289 11.0983 10.6821 10.5434 10.6821ZM18.0579 16.0463C17.6879 16.0463 17.3411 16.4393 17.3411 16.7862C17.3411 17.1792 17.711 17.526 18.0579 17.526C18.6128 17.526 18.9827 17.1561 18.9827 16.7862C18.9827 16.4162 18.6128 16.0463 18.0579 16.0463ZM15.6764 12.5318C16.2313 12.5318 16.6012 12.1388 16.6012 11.607C16.6012 11.0521 16.2313 10.6821 15.6764 10.6821C15.1214 10.6821 14.5665 11.0521 14.5665 11.607C14.5665 12.1619 15.1214 12.5318 15.6764 12.5318ZM22.081 16.0463C21.711 16.0463 21.3642 16.4393 21.3642 16.7862C21.3642 17.1792 21.7342 17.526 22.081 17.526C22.6359 17.526 23.0058 17.1561 23.0058 16.7862C23.0058 16.4162 22.6359 16.0463 22.081 16.0463Z"   fill="#28C445" >
</path>
<path d="M15.9537 0.0925305C7.1445 0.0925305 0 7.23703 0 16.0463C0 24.8556 7.1445 32 15.9537 32C24.763 32 31.9075 24.8556 31.9075 16.0463C31.9075 7.23703 24.763 0.0925293 15.9537 0.0925293L15.9537 0.0925305ZM12.9248 20.1388C12 20.1388 11.2601 19.9538 10.3815 19.7457L7.83816 21.0405L8.55491 18.7977C6.72831 17.5029 5.6185 15.8151 5.6185 13.8035C5.6185 10.2659 8.92484 7.4914 12.9248 7.4914C16.5087 7.4914 19.6763 9.71103 20.3006 12.6937C20.0694 12.6706 19.8382 12.6475 19.6069 12.6475C16.1387 12.6937 13.4104 15.3064 13.4104 18.5434C13.4104 19.0752 13.5029 19.5839 13.6416 20.0926C13.4104 20.1157 13.1561 20.1388 12.9248 20.1388ZM23.7457 22.7284L24.3006 24.5781L22.3121 23.4682C21.5954 23.6532 20.8555 23.8382 20.1156 23.8382C16.6243 23.8382 13.8728 21.4336 13.8728 18.4509C13.8497 15.4914 16.6012 13.0867 20.0694 13.0867C23.3757 13.0867 26.289 15.5145 26.289 18.4741C26.289 20.1388 25.2023 21.6186 23.7457 22.7284Z"   fill="#28C445" >
</path>
</svg>
