<svg xmlns="http://www.w3.org/2000/svg" width="14" height="14" viewBox="0 0 14 14" fill="none">
  <path opacity="0.5" d="M2.33341 8.16667V3.5C2.33341 3.17917 2.59591 2.91667 2.91675 2.91667H9.91675C10.2376 2.91667 10.5001 3.17917 10.5001 3.5V4.08333H11.6667V3.5C11.6667 2.5375 10.8792 1.75 9.91675 1.75H2.91675C1.95425 1.75 1.16675 2.5375 1.16675 3.5V8.16667C1.16675 9.12917 1.95425 9.91667 2.91675 9.91667H6.41675V8.75H2.91675C2.59591 8.75 2.33341 8.4875 2.33341 8.16667Z" fill="white"/>
  <path d="M11.6666 5.25H8.74992C8.10559 5.25 7.58325 5.77233 7.58325 6.41667V11.0833C7.58325 11.7277 8.10559 12.25 8.74992 12.25H11.6666C12.3109 12.25 12.8333 11.7277 12.8333 11.0833V6.41667C12.8333 5.77233 12.3109 5.25 11.6666 5.25Z" fill="white"/>
  <path opacity="0.5" d="M6.41667 11.0833H3.5V12.25H6.41667V11.0833Z" fill="white"/>
  <path opacity="0.5" d="M6.41667 5.25H3.5V6.41667H6.41667V5.25Z" fill="white"/>
</svg>