<svg xmlns="http://www.w3.org/2000/svg" width="24" height="24" viewBox="0 0 24 24" fill="none">
  <path opacity="0.5" d="M11 17H5C3.35 17 2 15.65 2 14V6C2 4.35 3.35 3 5 3H17C18.65 3 20 4.35 20 6V7H18V6C18 5.45 17.55 5 17 5H5C4.45 5 4 5.45 4 6V14C4 14.55 4.45 15 5 15H11V17Z" fill="currentColor"/>
  <path d="M21 13H14C13.4477 13 13 13.4477 13 14V20C13 20.5523 13.4477 21 14 21H21C21.5523 21 22 20.5523 22 20V14C22 13.4477 21.5523 13 21 13Z" fill="currentColor"/>
  <path opacity="0.5" d="M11 19H6V21H11V19Z" fill="currentColor"/>
  <path d="M22 9H13V11H22V9Z" fill="currentColor"/>
</svg>