<svg xmlns="http://www.w3.org/2000/svg" width="24" height="24" viewBox="0 0 24 24" fill="none">
  <path opacity="0.5" d="M20.18 20H3.82C2.82 20 2 19.2423 2 18.3V16.6C2 15.6577 2.81 14.9 3.82 14.9V4.7C3.82 3.75771 4.63 3 5.64 3H18.36C19.36 3 20.18 3.75771 20.18 4.7V14.9C21.18 14.9 22 15.6577 22 16.6V18.3C22 19.2423 21.18 20 20.18 20ZM18.36 4.7H5.64V15.7549H18.36V4.7ZM8.36 7.25486H15.63C16.13 7.25486 16.54 7.63371 16.54 8.1C16.54 8.56629 16.13 8.94514 15.63 8.94514H8.36C7.86 8.94514 7.45 8.56629 7.45 8.1C7.45 7.63371 7.86 7.25486 8.36 7.25486ZM8.36 11.5H15.63C16.13 11.5 16.54 11.8789 16.54 12.3451C16.54 12.8114 16.13 13.1903 15.63 13.1903H8.36C7.86 13.1903 7.45 12.8114 7.45 12.3451C7.45 11.8886 7.86 11.5 8.36 11.5Z" fill="currentColor"/>
</svg>