<svg xmlns="http://www.w3.org/2000/svg" xmlns:xlink="http://www.w3.org/1999/xlink" width="16" height="16" viewBox="0 0 16 16" fill="none">
<g opacity="0">
<rect x="0" y="0" width="16" height="16"   fill="#FFFFFF" >
</rect>
</g>
<path d="M3.17675 1.33331C2.09675 1.33331 1.66675 1.73331 1.66675 2.73331L1.66675 4.60331C1.66675 5.60331 2.09675 6.00331 3.15675 6.00331L5.81675 6.00331C6.90675 6.00331 7.33675 5.60331 7.33675 4.60331L7.33675 2.73331C7.33675 1.73331 6.90675 1.33331 5.84675 1.33331L3.17675 1.33331ZM10.1767 1.33331C9.09675 1.33331 8.66675 1.73331 8.66675 2.73331L8.66675 7.26331C8.66675 8.26331 9.09675 8.66331 10.1567 8.66331L12.8167 8.66331C13.8767 8.66331 14.3067 8.26331 14.3067 7.26331L14.3067 2.73331C14.3067 1.73331 13.8767 1.33331 12.8167 1.33331L10.1767 1.33331ZM5.84335 7.33331L3.18335 7.33331C2.12335 7.33331 1.69335 7.73331 1.69335 8.73331L1.69335 13.2633C1.69335 14.2633 2.12335 14.6633 3.18335 14.6633L5.84335 14.6633C6.90335 14.6633 7.33335 14.2633 7.33335 13.2633L7.33335 8.73331C7.33335 7.73331 6.90335 7.33331 5.84335 7.33331ZM10.1833 10C9.12335 10 8.69335 10.4 8.69335 11.4L8.69335 13.27C8.69335 14.27 9.12335 14.67 10.1833 14.67L12.8433 14.67C13.9033 14.67 14.3333 14.27 14.3333 13.27L14.3333 11.4C14.3333 10.4 13.9033 10 12.8433 10L10.1833 10Z" fill-rule="evenodd"  fill="#FFFFFF" >
</path>
</svg>
