<svg xmlns="http://www.w3.org/2000/svg" xmlns:xlink="http://www.w3.org/1999/xlink" width="16" height="16" viewBox="0 0 16 16" fill="none">
<path d="M14.4424 5.28769C14.4206 5.23555 14.3981 5.18367 14.375 5.13209C14.3519 5.0805 14.3282 5.02919 14.3038 4.97817C14.2795 4.92716 14.2545 4.87644 14.229 4.82603C14.2034 4.77561 14.1772 4.72552 14.1504 4.67575C14.1236 4.62597 14.0962 4.57652 14.0683 4.52741C14.0403 4.4783 14.0117 4.42953 13.9825 4.38111C13.9533 4.33269 13.9236 4.28464 13.8933 4.23694C13.8629 4.18923 13.832 4.14192 13.8005 4.09497C13.769 4.04802 13.737 4.00145 13.7044 3.95528C13.6718 3.90911 13.6386 3.86333 13.6049 3.81797C13.5712 3.77261 13.5369 3.72766 13.5021 3.68311C13.4673 3.63858 13.4319 3.59447 13.396 3.5508C13.3602 3.50711 13.3237 3.46387 13.2868 3.42108C13.2499 3.37828 13.2125 3.33594 13.1745 3.29405C13.1365 3.25216 13.0981 3.21073 13.0591 3.16978C13.0202 3.12883 12.9807 3.08834 12.9408 3.04834C12.9009 3.00828 12.8606 2.96872 12.8199 2.92964C12.7791 2.89056 12.7378 2.852 12.6961 2.81394C12.6543 2.77588 12.6122 2.73833 12.5695 2.70128C12.5269 2.66425 12.4838 2.62775 12.4402 2.59177C12.3967 2.55579 12.3527 2.52035 12.3083 2.48545C12.2639 2.45055 12.2191 2.41619 12.1738 2.38239C12.1286 2.34859 12.0829 2.31534 12.0368 2.28266C11.9908 2.24997 11.9443 2.21785 11.8975 2.1863C11.8506 2.15474 11.8034 2.12378 11.7558 2.09339C11.7082 2.06299 11.6602 2.03319 11.6119 2.00397C11.5635 1.97475 11.5149 1.94613 11.4658 1.91809C11.4168 1.89006 11.3674 1.86263 11.3177 1.83581C11.268 1.809 11.218 1.7828 11.1676 1.7572C11.1172 1.7316 11.0666 1.70662 11.0156 1.68227C10.9647 1.65791 10.9134 1.63418 10.8619 1.61108C10.8103 1.58798 10.7585 1.56552 10.7064 1.54368C10.6531 1.52121 10.5994 1.49941 10.5455 1.47829C10.4916 1.45716 10.4375 1.43671 10.383 1.41694C10.3286 1.39717 10.274 1.37808 10.2191 1.35968C10.1642 1.34127 10.1091 1.32356 10.0537 1.30654C9.99839 1.28952 9.94284 1.27319 9.88709 1.25756C9.83134 1.24193 9.77541 1.227 9.7193 1.21277C9.66317 1.19854 9.60687 1.18501 9.55042 1.17219C9.49395 1.15937 9.43734 1.14726 9.38058 1.13585C9.32381 1.12445 9.26692 1.11376 9.20989 1.10378C9.15286 1.0938 9.0957 1.08454 9.03844 1.07599C8.98117 1.06745 8.92381 1.05962 8.86636 1.05251C8.80891 1.0454 8.75136 1.03901 8.69373 1.03334C8.63612 1.02767 8.57844 1.02272 8.5207 1.01849C8.46295 1.01427 8.40517 1.01077 8.34734 1.00799C8.28951 1.00521 8.23166 1.00316 8.17377 1.00183C8.11587 1.0005 8.05798 0.999894 8.00009 1.00002L7.96877 1.00002C7.9105 1.00015 7.85226 1.00102 7.79403 1.00262C7.7358 1.00422 7.67759 1.00655 7.61942 1.00962C7.56125 1.01268 7.50312 1.01647 7.44505 1.02099C7.38697 1.02552 7.32895 1.03077 7.27102 1.03675C7.21306 1.04274 7.1552 1.04944 7.09742 1.05688C7.03964 1.06432 6.98197 1.07248 6.92441 1.08136C6.86683 1.09025 6.80937 1.09986 6.75205 1.11019C6.69472 1.12052 6.63752 1.13157 6.58047 1.14333C6.52342 1.1551 6.46652 1.16758 6.40978 1.18078C6.35305 1.19398 6.29647 1.20789 6.24008 1.2225C6.18369 1.23712 6.1275 1.25245 6.07148 1.26848C6.01548 1.28451 5.95969 1.30124 5.90411 1.31868C5.84853 1.33611 5.79317 1.35424 5.73803 1.37307C5.68291 1.39189 5.62803 1.4114 5.57339 1.43161C5.51875 1.45181 5.46437 1.4727 5.41027 1.49427C5.35616 1.51584 5.30231 1.53809 5.24877 1.56102C5.19711 1.58307 5.14573 1.60574 5.09462 1.62905C5.04352 1.65235 4.9927 1.67627 4.94219 1.7008C4.89167 1.72534 4.84145 1.75048 4.79153 1.77623C4.74161 1.80198 4.69202 1.82834 4.64275 1.8553C4.59348 1.88225 4.54455 1.90981 4.49594 1.93795C4.44733 1.96611 4.39908 1.99484 4.35117 2.02416C4.30327 2.05348 4.25572 2.08337 4.20855 2.11384C4.16138 2.14432 4.11456 2.17536 4.06814 2.20697C4.02172 2.23858 3.97567 2.27075 3.93003 2.30348C3.88439 2.3362 3.83916 2.36948 3.79431 2.40331C3.74948 2.43713 3.70506 2.4715 3.66106 2.50641C3.61706 2.54131 3.57348 2.57675 3.53034 2.6127C3.4872 2.64867 3.4445 2.68516 3.40225 2.72216C3.35998 2.75916 3.31819 2.79666 3.27684 2.83467C3.2355 2.87269 3.19462 2.91119 3.15422 2.9502C3.11381 2.98922 3.07387 3.0287 3.03442 3.06869C2.99487 3.10859 2.95581 3.14897 2.91723 3.18983C2.87866 3.23069 2.84059 3.272 2.80303 3.31377C2.76545 3.35555 2.72839 3.39778 2.69184 3.44045C2.6553 3.48312 2.61928 3.52623 2.58377 3.56978C2.54827 3.61333 2.5133 3.65731 2.47886 3.7017C2.44442 3.74609 2.41053 3.79091 2.37719 3.83612C2.34383 3.88134 2.31104 3.92695 2.2788 3.97297C2.24655 4.01898 2.21487 4.06537 2.18375 4.11216C2.15263 4.15894 2.12207 4.20609 2.09209 4.25361C2.06212 4.30112 2.03273 4.34902 2.00391 4.39725C1.97509 4.44548 1.94687 4.49406 1.91923 4.54298C1.89159 4.59191 1.86455 4.64114 1.83811 4.69072C1.81166 4.7403 1.78582 4.79017 1.76058 4.84037C1.73535 4.89058 1.71073 4.94108 1.68672 4.99187C1.6627 5.04267 1.6393 5.09375 1.61653 5.14511C1.59376 5.19647 1.57162 5.24811 1.55009 5.30002C1.52776 5.35397 1.5061 5.4082 1.48512 5.4627C1.46414 5.5172 1.44384 5.57195 1.42422 5.62695C1.40461 5.68195 1.38568 5.73719 1.36744 5.79267C1.3492 5.84816 1.33165 5.90384 1.3148 5.95975C1.29794 6.01567 1.28179 6.07178 1.26633 6.12809C1.25088 6.18442 1.23613 6.24092 1.22208 6.29759C1.20803 6.35428 1.19469 6.41112 1.18206 6.46814C1.16943 6.52516 1.15751 6.58233 1.14631 6.63964C1.1351 6.69695 1.12461 6.75439 1.11483 6.81197C1.10506 6.86955 1.096 6.92722 1.08766 6.98502C1.07933 7.04281 1.07171 7.10072 1.06481 7.1587C1.05792 7.21669 1.05175 7.27477 1.0463 7.33291C1.04085 7.39105 1.03613 7.44925 1.03213 7.50752C1.02813 7.56578 1.02486 7.62408 1.02231 7.68241C1.01976 7.74075 1.01795 7.79911 1.01685 7.8575C1.01576 7.91589 1.0154 7.9743 1.01576 8.03269C1.01611 8.1002 1.01742 8.16769 1.01971 8.23516C1.02199 8.30262 1.02525 8.37005 1.02948 8.43742C1.0337 8.5048 1.03889 8.57209 1.04506 8.63933C1.05122 8.70656 1.05834 8.77369 1.06643 8.8407C1.07452 8.90772 1.08358 8.97462 1.09359 9.04139C1.10361 9.10816 1.11458 9.17475 1.12651 9.2412C1.13844 9.30766 1.15132 9.37391 1.16516 9.43998C1.17899 9.50606 1.19377 9.57192 1.2095 9.63758C1.22524 9.70322 1.24191 9.76864 1.25952 9.83381C1.27713 9.89898 1.29567 9.96389 1.31515 10.0285C1.33463 10.0932 1.35503 10.1575 1.37635 10.2216C1.39768 10.2856 1.41993 10.3493 1.44309 10.4128C1.46625 10.4762 1.49032 10.5392 1.51529 10.602C1.54026 10.6647 1.56614 10.727 1.59291 10.789C1.61967 10.851 1.64732 10.9126 1.67586 10.9737C1.7044 11.0349 1.73381 11.0957 1.76409 11.156L1.76409 13.5313C1.76409 13.928 2.08609 14.25 2.48142 14.25L4.85309 14.25C4.91327 14.2804 4.97388 14.3099 5.03489 14.3385C5.09592 14.3671 5.15734 14.3948 5.21917 14.4217C5.281 14.4485 5.3432 14.4744 5.40578 14.4995C5.46836 14.5245 5.5313 14.5486 5.59456 14.5719C5.65784 14.5951 5.72144 14.6174 5.78536 14.6388C5.84928 14.6601 5.91348 14.6806 5.978 14.7001C6.04252 14.7196 6.1073 14.7382 6.17234 14.7559C6.23739 14.7735 6.30269 14.7902 6.36822 14.806C6.43375 14.8218 6.4995 14.8366 6.56545 14.8505C6.63141 14.8643 6.69756 14.8772 6.76389 14.8892C6.83022 14.9011 6.89672 14.9121 6.96336 14.9222C7.03001 14.9322 7.0968 14.9413 7.1637 14.9494C7.23062 14.9575 7.29764 14.9646 7.36475 14.9708C7.43187 14.977 7.49906 14.9821 7.56633 14.9864C7.63359 14.9906 7.70092 14.9938 7.76828 14.9961C7.83564 14.9984 7.90303 14.9997 7.97042 15L8.00309 15C8.06067 15.0001 8.11823 14.9995 8.17578 14.9982C8.23333 14.9968 8.29086 14.9948 8.34836 14.992C8.40587 14.9893 8.46333 14.9858 8.52075 14.9816C8.57817 14.9774 8.63553 14.9725 8.69283 14.9669C8.75012 14.9613 8.80734 14.955 8.86448 14.948C8.92162 14.941 8.97866 14.9333 9.03561 14.9248C9.09256 14.9164 9.14939 14.9073 9.20612 14.8974C9.26284 14.8876 9.31944 14.877 9.37589 14.8658C9.43236 14.8546 9.48867 14.8426 9.54484 14.83C9.601 14.8174 9.657 14.804 9.71284 14.79C9.76867 14.776 9.82433 14.7613 9.8798 14.7459C9.93528 14.7305 9.99055 14.7144 10.0456 14.6976C10.1007 14.6809 10.1555 14.6634 10.2102 14.6453C10.2648 14.6271 10.3192 14.6083 10.3734 14.5889C10.4276 14.5694 10.4815 14.5492 10.5352 14.5284C10.5889 14.5076 10.6423 14.4862 10.6954 14.464C10.7472 14.4424 10.7988 14.4202 10.8501 14.3974C10.9014 14.3746 10.9524 14.3512 11.0031 14.3271C11.0539 14.303 11.1043 14.2784 11.1544 14.2531C11.2045 14.2278 11.2543 14.2019 11.3038 14.1754C11.3533 14.1489 11.4025 14.1218 11.4513 14.0941C11.5002 14.0664 11.5487 14.0381 11.5968 14.0092C11.6449 13.9803 11.6927 13.9509 11.7402 13.9208C11.7876 13.8908 11.8347 13.8602 11.8813 13.829C11.928 13.7978 11.9743 13.7661 12.0202 13.7337C12.0662 13.7015 12.1117 13.6686 12.1568 13.6352C12.2019 13.6017 12.2466 13.5678 12.2909 13.5333C12.3352 13.4988 12.379 13.4637 12.4225 13.4282C12.4659 13.3926 12.5089 13.3565 12.5515 13.3199C12.594 13.2833 12.6361 13.2461 12.6778 13.2085C12.7194 13.1709 12.7606 13.1327 12.8013 13.0941C12.8421 13.0554 12.8823 13.0163 12.9221 12.9767C12.962 12.9371 13.0015 12.8971 13.0404 12.8565C13.0794 12.816 13.1178 12.775 13.1558 12.7336C13.1937 12.6921 13.2312 12.6502 13.2682 12.6079C13.3051 12.5655 13.3415 12.5227 13.3774 12.4795C13.4133 12.4362 13.4487 12.3925 13.4836 12.3484C13.5184 12.3043 13.5527 12.2598 13.5865 12.2149C13.6202 12.1699 13.6535 12.1246 13.6861 12.0788C13.7188 12.0331 13.7509 11.987 13.7824 11.9404C13.814 11.8939 13.845 11.847 13.8754 11.7997C13.9058 11.7525 13.9356 11.7048 13.9649 11.6568C13.9941 11.6088 14.0228 11.5605 14.0509 11.5118C14.079 11.4631 14.1064 11.4141 14.1333 11.3647C14.1602 11.3153 14.1865 11.2657 14.2122 11.2157C14.2379 11.1657 14.2629 11.1154 14.2874 11.0647C14.3119 11.0141 14.3357 10.9632 14.3589 10.9121C14.3822 10.8609 14.4048 10.8094 14.4268 10.7577C14.4496 10.704 14.4718 10.65 14.4933 10.5957C14.5148 10.5414 14.5356 10.4869 14.5557 10.4321C14.5759 10.3773 14.5953 10.3222 14.6141 10.267C14.6329 10.2117 14.6509 10.1562 14.6683 10.1004C14.6857 10.0447 14.7024 9.98877 14.7183 9.93262C14.7343 9.87647 14.7496 9.82012 14.7642 9.76359C14.7787 9.70706 14.7926 9.65036 14.8058 9.59348C14.8189 9.53661 14.8314 9.47958 14.8431 9.42239C14.8548 9.3652 14.8658 9.30787 14.8761 9.25041C14.8864 9.19295 14.896 9.13536 14.9049 9.07766C14.9137 9.01995 14.9219 8.96216 14.9293 8.90425C14.9367 8.84634 14.9434 8.78836 14.9494 8.73028C14.9553 8.6722 14.9606 8.61406 14.9651 8.55586C14.9696 8.49766 14.9734 8.43941 14.9765 8.38111C14.9795 8.32281 14.9819 8.26448 14.9835 8.20613C14.9851 8.14777 14.986 8.08939 14.9861 8.03102C14.9864 7.97236 14.9859 7.9137 14.9847 7.85506C14.9835 7.79642 14.9816 7.7378 14.9789 7.67919C14.9762 7.62059 14.9728 7.56205 14.9687 7.50353C14.9646 7.44502 14.9597 7.38656 14.9541 7.32817C14.9485 7.26978 14.9422 7.21147 14.9351 7.15323C14.9281 7.095 14.9203 7.03687 14.9118 6.97883C14.9033 6.92078 14.894 6.86286 14.8841 6.80506C14.8741 6.74725 14.8635 6.68958 14.8521 6.63205C14.8407 6.5745 14.8285 6.51711 14.8157 6.45987C14.8029 6.40264 14.7893 6.34556 14.775 6.28867C14.7608 6.23178 14.7458 6.17506 14.7301 6.11855C14.7144 6.06203 14.698 6.0057 14.6809 5.94959C14.6638 5.89348 14.646 5.83761 14.6275 5.78194C14.609 5.72627 14.5898 5.67084 14.57 5.61566C14.5501 5.56047 14.5295 5.50555 14.5082 5.45087C14.487 5.3962 14.465 5.3418 14.4424 5.28769ZM4.88142 8.75002C4.86916 8.75002 4.85689 8.74972 4.84462 8.74911C4.83236 8.7485 4.82012 8.74761 4.80792 8.74641C4.7957 8.7452 4.78352 8.74369 4.77137 8.74189C4.75923 8.74009 4.74716 8.738 4.73511 8.73561C4.72306 8.73322 4.71109 8.73052 4.69919 8.72753C4.68728 8.72455 4.67545 8.72128 4.66372 8.71772C4.65197 8.71416 4.64031 8.71031 4.62877 8.70617C4.6172 8.70203 4.60575 8.69762 4.59441 8.69292C4.58308 8.68822 4.57186 8.68325 4.56077 8.678C4.54966 8.67277 4.5387 8.66725 4.52787 8.66145C4.51705 8.65567 4.50637 8.64962 4.49584 8.64331C4.48533 8.637 4.47495 8.63044 4.46475 8.62362C4.45455 8.6168 4.44452 8.60973 4.43466 8.60242C4.4248 8.59511 4.41511 8.58756 4.40562 8.57977C4.39614 8.57198 4.38686 8.56397 4.37777 8.55573C4.36866 8.54748 4.35977 8.53901 4.35109 8.53034C4.34242 8.52167 4.33395 8.51278 4.32572 8.50369C4.31747 8.49459 4.30945 8.4853 4.30167 8.47581C4.29387 8.46633 4.28633 8.45666 4.27902 8.4468C4.2717 8.43694 4.26464 8.42689 4.25783 8.41669C4.251 8.40648 4.24444 8.39612 4.23812 8.38559C4.23183 8.37506 4.22578 8.36439 4.21998 8.35356C4.2142 8.34273 4.20869 8.33178 4.20344 8.32069C4.19819 8.30958 4.19322 8.29836 4.18852 8.28703C4.18381 8.27569 4.17941 8.26423 4.17527 8.25269C4.17112 8.24113 4.16728 8.22947 4.16372 8.21773C4.16016 8.20598 4.15689 8.19416 4.15391 8.18225C4.15092 8.17034 4.14823 8.15837 4.14584 8.14633C4.14345 8.1343 4.14134 8.1222 4.13955 8.11006C4.13775 8.09792 4.13623 8.08573 4.13503 8.07353C4.13383 8.06131 4.13294 8.04908 4.13233 8.03681C4.13172 8.02455 4.13142 8.01228 4.13142 8.00002C4.13142 7.98775 4.13172 7.97548 4.13233 7.96322C4.13294 7.95095 4.13383 7.93872 4.13503 7.9265C4.13623 7.91428 4.13775 7.90211 4.13955 7.88997C4.14134 7.87783 4.14345 7.86573 4.14584 7.8537C4.14823 7.84166 4.15092 7.82969 4.15391 7.81778C4.15689 7.80587 4.16016 7.79405 4.16372 7.7823C4.16728 7.77056 4.17112 7.75891 4.17527 7.74734C4.17941 7.7358 4.18381 7.72434 4.18852 7.713C4.19322 7.70166 4.19819 7.69044 4.20344 7.67934C4.20869 7.66825 4.2142 7.6573 4.21998 7.64647C4.22578 7.63564 4.23183 7.62497 4.23812 7.61444C4.24444 7.60391 4.251 7.59355 4.25783 7.58334C4.26464 7.57314 4.2717 7.56309 4.27902 7.55323C4.28633 7.54337 4.29387 7.5337 4.30167 7.52422C4.30945 7.51473 4.31747 7.50544 4.32572 7.49634C4.33395 7.48725 4.34242 7.47836 4.35109 7.46969C4.35977 7.46102 4.36866 7.45255 4.37777 7.4443C4.38686 7.43606 4.39614 7.42805 4.40562 7.42027C4.41511 7.41247 4.4248 7.40492 4.43466 7.39761C4.44452 7.3903 4.45455 7.38323 4.46475 7.37641C4.47495 7.36959 4.48533 7.36303 4.49584 7.35672C4.50637 7.35041 4.51705 7.34436 4.52787 7.33858C4.5387 7.33278 4.54966 7.32727 4.56077 7.32202C4.57186 7.31678 4.58308 7.31181 4.59441 7.30711C4.60575 7.30241 4.6172 7.298 4.62877 7.29386C4.64031 7.28972 4.65197 7.28587 4.66372 7.28231C4.67545 7.27875 4.68728 7.27548 4.69919 7.2725C4.71109 7.26952 4.72306 7.26681 4.73511 7.26442C4.74716 7.26203 4.75923 7.25994 4.77137 7.25814C4.78352 7.25634 4.7957 7.25483 4.80792 7.25362C4.82012 7.25242 4.83236 7.25153 4.84462 7.25092C4.85689 7.25031 4.86916 7.25002 4.88142 7.25002C4.89369 7.25005 4.90594 7.25037 4.91817 7.251C4.93041 7.25162 4.94263 7.25255 4.95483 7.25378C4.96703 7.25502 4.97919 7.25653 4.9913 7.25836C5.00342 7.26019 5.0155 7.2623 5.02752 7.2647C5.03953 7.26712 5.05147 7.26983 5.06336 7.27283C5.07525 7.27583 5.08705 7.27912 5.09877 7.2827C5.1105 7.28628 5.12212 7.29014 5.13366 7.2943C5.14519 7.29844 5.15661 7.30287 5.16792 7.30758C5.17925 7.31228 5.19044 7.31727 5.20152 7.32253C5.21258 7.3278 5.22352 7.33331 5.23431 7.33911C5.24511 7.34491 5.25577 7.35095 5.26628 7.35728C5.27678 7.36359 5.28712 7.37016 5.2973 7.37698C5.30748 7.38381 5.3175 7.39087 5.32733 7.3982C5.33716 7.40552 5.34681 7.41306 5.35628 7.42084C5.36575 7.42864 5.37502 7.43666 5.38408 7.44489C5.39316 7.45312 5.40202 7.46159 5.41067 7.47027C5.41934 7.47894 5.42778 7.48783 5.436 7.49692C5.44422 7.50602 5.45222 7.5153 5.45998 7.52478C5.46775 7.53427 5.47527 7.54392 5.48256 7.55378C5.48986 7.56364 5.49691 7.57366 5.5037 7.58386C5.5105 7.59406 5.51705 7.60441 5.52334 7.61492C5.52964 7.62544 5.53569 7.63611 5.54145 7.64692C5.54722 7.65773 5.55272 7.66869 5.55795 7.67977C5.56319 7.69084 5.56814 7.70206 5.57283 7.71339C5.57752 7.72472 5.58192 7.73614 5.58605 7.74769C5.59016 7.75923 5.594 7.77086 5.59756 7.78259C5.60111 7.79433 5.60437 7.80614 5.60734 7.81803C5.61033 7.82992 5.613 7.84189 5.61539 7.85391C5.61778 7.86592 5.61987 7.878 5.62167 7.89012C5.62347 7.90225 5.62495 7.91441 5.62616 7.92661C5.62736 7.93881 5.62825 7.95103 5.62886 7.96327C5.62947 7.9755 5.62977 7.98775 5.62977 8.00002C5.62978 8.01228 5.62948 8.02453 5.62891 8.03678C5.62833 8.04903 5.62744 8.06125 5.62625 8.07345C5.62506 8.08566 5.62358 8.09783 5.6218 8.10995C5.62002 8.12209 5.61794 8.13417 5.61556 8.1462C5.61317 8.15822 5.6105 8.17019 5.60755 8.18209C5.60458 8.19398 5.60133 8.20581 5.59778 8.21755C5.59423 8.22928 5.59041 8.24092 5.58628 8.25247C5.58217 8.26402 5.57777 8.27547 5.57309 8.2868C5.56842 8.29812 5.56347 8.30934 5.55823 8.32044C5.553 8.33153 5.54752 8.34248 5.54175 8.3533C5.53598 8.36412 5.52995 8.3748 5.52366 8.38531C5.51736 8.39584 5.51081 8.4062 5.50402 8.41641C5.49722 8.42661 5.49017 8.43664 5.48287 8.4465C5.47558 8.45636 5.46805 8.46603 5.46028 8.47552C5.45252 8.485 5.44453 8.4943 5.4363 8.50339C5.42808 8.51248 5.41964 8.52137 5.41097 8.53005C5.40231 8.53872 5.39345 8.54719 5.38437 8.55544C5.3753 8.56367 5.36602 8.57169 5.35655 8.57948C5.34708 8.58728 5.33742 8.59483 5.32758 8.60214C5.31775 8.60945 5.30773 8.61652 5.29755 8.62334C5.28736 8.63017 5.27702 8.63673 5.2665 8.64305C5.25598 8.64937 5.24533 8.65542 5.23452 8.66122C5.22372 8.66702 5.21277 8.67253 5.20169 8.67778C5.19061 8.68303 5.17941 8.68801 5.16808 8.69272C5.15675 8.69742 5.14533 8.70184 5.13378 8.70598C5.12223 8.71012 5.11061 8.71398 5.09887 8.71755C5.08714 8.72112 5.07534 8.72441 5.06345 8.72739C5.05156 8.73038 5.03959 8.73308 5.02758 8.73548C5.01556 8.73789 5.00348 8.74 4.99136 8.74181C4.97922 8.74361 4.96706 8.74512 4.95486 8.74634C4.94266 8.74755 4.93044 8.74847 4.91819 8.74908C4.90594 8.74969 4.89369 8.75 4.88142 8.75002ZM8.00009 8.75002C7.98783 8.75002 7.97556 8.74972 7.9633 8.74911C7.95103 8.7485 7.9388 8.74761 7.92658 8.74641C7.91436 8.7452 7.90219 8.74369 7.89005 8.74189C7.87791 8.74009 7.86581 8.738 7.85378 8.73561C7.84173 8.73322 7.82977 8.73052 7.81786 8.72753C7.80595 8.72455 7.79412 8.72128 7.78237 8.71772C7.77064 8.71416 7.75898 8.71031 7.74742 8.70617C7.73587 8.70203 7.72442 8.69762 7.71308 8.69292C7.70173 8.68822 7.69052 8.68325 7.67942 8.678C7.66833 8.67277 7.65737 8.66725 7.64655 8.66145C7.63572 8.65567 7.62505 8.64962 7.61452 8.64331C7.60398 8.637 7.59362 8.63044 7.58342 8.62362C7.57322 8.6168 7.56317 8.60973 7.55331 8.60242C7.54345 8.59511 7.53378 8.58756 7.5243 8.57977C7.51481 8.57198 7.50552 8.56397 7.49642 8.55573C7.48733 8.54748 7.47844 8.53901 7.46977 8.53034C7.46109 8.52167 7.45262 8.51278 7.44437 8.50369C7.43614 8.49459 7.42812 8.4853 7.42034 8.47581C7.41255 8.46633 7.405 8.45666 7.39769 8.4468C7.39037 8.43694 7.38331 8.42689 7.37648 8.41669C7.36967 8.40648 7.36311 8.39612 7.3568 8.38559C7.35048 8.37506 7.34444 8.36439 7.33866 8.35356C7.33286 8.34273 7.32734 8.33178 7.32209 8.32069C7.31686 8.30958 7.31189 8.29836 7.30719 8.28703C7.30248 8.27569 7.29808 8.26423 7.29394 8.25269C7.2898 8.24113 7.28595 8.22947 7.28239 8.21773C7.27883 8.20598 7.27556 8.19416 7.27258 8.18225C7.26959 8.17034 7.26689 8.15837 7.2645 8.14633C7.26211 8.1343 7.26002 8.1222 7.25822 8.11006C7.25642 8.09792 7.25491 8.08573 7.2537 8.07353C7.2525 8.06131 7.25161 8.04908 7.251 8.03681C7.25039 8.02455 7.25009 8.01228 7.25009 8.00002C7.25009 7.98775 7.25039 7.97548 7.251 7.96322C7.25161 7.95095 7.2525 7.93872 7.2537 7.9265C7.25491 7.91428 7.25642 7.90211 7.25822 7.88997C7.26002 7.87783 7.26211 7.86573 7.2645 7.8537C7.26689 7.84166 7.26959 7.82969 7.27258 7.81778C7.27556 7.80587 7.27883 7.79405 7.28239 7.7823C7.28595 7.77056 7.2898 7.75891 7.29394 7.74734C7.29808 7.7358 7.30248 7.72434 7.30719 7.713C7.31189 7.70166 7.31686 7.69044 7.32209 7.67934C7.32734 7.66825 7.33286 7.6573 7.33866 7.64647C7.34444 7.63564 7.35048 7.62497 7.3568 7.61444C7.36311 7.60391 7.36967 7.59355 7.37648 7.58334C7.38331 7.57314 7.39037 7.56309 7.39769 7.55323C7.405 7.54337 7.41255 7.5337 7.42034 7.52422C7.42812 7.51473 7.43614 7.50544 7.44437 7.49634C7.45262 7.48725 7.46109 7.47836 7.46977 7.46969C7.47844 7.46102 7.48733 7.45255 7.49642 7.4443C7.50552 7.43606 7.51481 7.42805 7.5243 7.42027C7.53378 7.41247 7.54345 7.40492 7.55331 7.39761C7.56317 7.3903 7.57322 7.38323 7.58342 7.37641C7.59362 7.36959 7.60398 7.36303 7.61452 7.35672C7.62505 7.35041 7.63572 7.34436 7.64655 7.33858C7.65737 7.33278 7.66833 7.32727 7.67942 7.32202C7.69052 7.31678 7.70173 7.31181 7.71308 7.30711C7.72442 7.30241 7.73587 7.298 7.74742 7.29386C7.75898 7.28972 7.77064 7.28587 7.78237 7.28231C7.79412 7.27875 7.80595 7.27548 7.81786 7.2725C7.82977 7.26952 7.84173 7.26681 7.85378 7.26442C7.86581 7.26203 7.87791 7.25994 7.89005 7.25814C7.90219 7.25634 7.91436 7.25483 7.92658 7.25362C7.9388 7.25242 7.95103 7.25153 7.9633 7.25092C7.97556 7.25031 7.98783 7.25002 8.00009 7.25002C8.01236 7.25002 8.02462 7.25031 8.03689 7.25092C8.04916 7.25153 8.06139 7.25242 8.07361 7.25362C8.08581 7.25483 8.098 7.25634 8.11014 7.25814C8.12228 7.25994 8.13437 7.26203 8.14641 7.26442C8.15845 7.26681 8.17042 7.26952 8.18233 7.2725C8.19423 7.27548 8.20606 7.27875 8.21781 7.28231C8.22955 7.28587 8.2412 7.28972 8.25277 7.29386C8.26431 7.298 8.27576 7.30241 8.28711 7.30711C8.29844 7.31181 8.30966 7.31678 8.32076 7.32202C8.33186 7.32727 8.34281 7.33278 8.35364 7.33858C8.36447 7.34436 8.37514 7.35041 8.38567 7.35672C8.3962 7.36303 8.40656 7.36959 8.41677 7.37641C8.42697 7.38323 8.43702 7.3903 8.44687 7.39761C8.45673 7.40492 8.46641 7.41247 8.47589 7.42027C8.48537 7.42805 8.49467 7.43606 8.50377 7.4443C8.51286 7.45255 8.52175 7.46102 8.53042 7.46969C8.53909 7.47836 8.54756 7.48725 8.55581 7.49634C8.56405 7.50544 8.57206 7.51473 8.57984 7.52422C8.58764 7.5337 8.59519 7.54337 8.6025 7.55323C8.60981 7.56309 8.61687 7.57314 8.62369 7.58334C8.63052 7.59355 8.63708 7.60391 8.64339 7.61444C8.6497 7.62497 8.65575 7.63564 8.66153 7.64647C8.66733 7.6573 8.67284 7.66825 8.67808 7.67934C8.68333 7.69044 8.6883 7.70166 8.693 7.713C8.6977 7.72434 8.70211 7.7358 8.70625 7.74734C8.71039 7.75891 8.71423 7.77056 8.7178 7.7823C8.72136 7.79405 8.72462 7.80587 8.72761 7.81778C8.73059 7.82969 8.7333 7.84166 8.73569 7.8537C8.73808 7.86573 8.74017 7.87783 8.74197 7.88997C8.74376 7.90211 8.74528 7.91428 8.74648 7.9265C8.74769 7.93872 8.74858 7.95095 8.74919 7.96322C8.7498 7.97548 8.75009 7.98775 8.75009 8.00002C8.75009 8.01228 8.7498 8.02455 8.74919 8.03681C8.74858 8.04908 8.74769 8.06131 8.74648 8.07353C8.74528 8.08573 8.74376 8.09792 8.74197 8.11006C8.74017 8.1222 8.73808 8.1343 8.73569 8.14633C8.7333 8.15837 8.73059 8.17034 8.72761 8.18225C8.72462 8.19416 8.72136 8.20598 8.7178 8.21773C8.71423 8.22947 8.71039 8.24113 8.70625 8.25269C8.70211 8.26423 8.6977 8.27569 8.693 8.28703C8.6883 8.29836 8.68333 8.30958 8.67808 8.32069C8.67284 8.33178 8.66733 8.34273 8.66153 8.35356C8.65575 8.36439 8.6497 8.37506 8.64339 8.38559C8.63708 8.39612 8.63052 8.40648 8.6237 8.41669C8.61687 8.42689 8.60981 8.43694 8.6025 8.4468C8.59519 8.45666 8.58764 8.46633 8.57984 8.47581C8.57206 8.4853 8.56405 8.49459 8.55581 8.50369C8.54756 8.51278 8.53909 8.52167 8.53042 8.53034C8.52175 8.53901 8.51286 8.54748 8.50377 8.55573C8.49467 8.56397 8.48537 8.57198 8.47589 8.57977C8.46641 8.58756 8.45673 8.59511 8.44687 8.60242C8.43702 8.60973 8.42697 8.6168 8.41677 8.62361C8.40656 8.63044 8.3962 8.637 8.38567 8.64331C8.37514 8.64962 8.36447 8.65567 8.35364 8.66145C8.34281 8.66725 8.33186 8.67277 8.32076 8.678C8.30966 8.68325 8.29844 8.68822 8.28711 8.69292C8.27576 8.69762 8.26431 8.70203 8.25277 8.70617C8.2412 8.71031 8.22955 8.71416 8.21781 8.71772C8.20606 8.72128 8.19423 8.72455 8.18233 8.72753C8.17042 8.73052 8.15845 8.73322 8.14641 8.73561C8.13437 8.738 8.12228 8.74009 8.11014 8.74189C8.098 8.74369 8.08581 8.7452 8.07361 8.74641C8.06139 8.74761 8.04916 8.7485 8.03689 8.74911C8.02462 8.74972 8.01236 8.75002 8.00009 8.75002ZM11.1188 8.75002C11.1065 8.75002 11.0942 8.74972 11.082 8.74911C11.0697 8.7485 11.0575 8.74761 11.0452 8.74641C11.033 8.7452 11.0209 8.74369 11.0087 8.74189C10.9966 8.74009 10.9845 8.738 10.9724 8.73561C10.9604 8.73322 10.9484 8.73052 10.9365 8.72753C10.9246 8.72455 10.9128 8.72128 10.901 8.71772C10.8893 8.71416 10.8776 8.71031 10.8661 8.70617C10.8545 8.70203 10.8431 8.69762 10.8317 8.69292C10.8204 8.68822 10.8092 8.68325 10.7981 8.678C10.787 8.67277 10.776 8.66725 10.7652 8.66145C10.7544 8.65567 10.7437 8.64962 10.7332 8.64331C10.7227 8.637 10.7123 8.63044 10.7021 8.62362C10.6919 8.6168 10.6818 8.60973 10.672 8.60242C10.6621 8.59511 10.6525 8.58756 10.643 8.57977C10.6335 8.57198 10.6242 8.56397 10.6151 8.55573C10.606 8.54748 10.5971 8.53901 10.5884 8.53034C10.5797 8.52167 10.5713 8.51278 10.563 8.50369C10.5548 8.49459 10.5468 8.4853 10.539 8.47581C10.5312 8.46633 10.5237 8.45666 10.5164 8.4468C10.509 8.43694 10.502 8.42689 10.4952 8.41669C10.4883 8.40648 10.4818 8.39612 10.4755 8.38559C10.4692 8.37506 10.4631 8.36439 10.4573 8.35356C10.4515 8.34273 10.446 8.33178 10.4408 8.32069C10.4355 8.30958 10.4305 8.29836 10.4258 8.28703C10.4211 8.27569 10.4167 8.26423 10.4126 8.25269C10.4085 8.24113 10.4046 8.22947 10.4011 8.21773C10.3975 8.20598 10.3942 8.19416 10.3912 8.18225C10.3882 8.17034 10.3856 8.15837 10.3832 8.14633C10.3808 8.1343 10.3787 8.1222 10.3769 8.11006C10.3751 8.09792 10.3736 8.08573 10.3724 8.07353C10.3712 8.06131 10.3703 8.04908 10.3697 8.03681C10.3691 8.02455 10.3688 8.01228 10.3688 8.00002C10.3688 7.98775 10.3691 7.97548 10.3697 7.96322C10.3703 7.95095 10.3712 7.93872 10.3724 7.9265C10.3736 7.91428 10.3751 7.90211 10.3769 7.88997C10.3787 7.87783 10.3808 7.86573 10.3832 7.8537C10.3856 7.84166 10.3882 7.82969 10.3912 7.81778C10.3942 7.80587 10.3975 7.79405 10.4011 7.7823C10.4046 7.77056 10.4085 7.75891 10.4126 7.74734C10.4167 7.7358 10.4211 7.72434 10.4258 7.713C10.4305 7.70166 10.4355 7.69044 10.4408 7.67934C10.446 7.66825 10.4515 7.6573 10.4573 7.64647C10.4631 7.63564 10.4692 7.62497 10.4755 7.61444C10.4818 7.60391 10.4883 7.59355 10.4952 7.58334C10.502 7.57314 10.509 7.56309 10.5164 7.55323C10.5237 7.54337 10.5312 7.5337 10.539 7.52422C10.5468 7.51473 10.5548 7.50544 10.563 7.49634C10.5713 7.48725 10.5797 7.47836 10.5884 7.46969C10.5971 7.46102 10.606 7.45255 10.6151 7.4443C10.6242 7.43606 10.6335 7.42805 10.643 7.42027C10.6525 7.41247 10.6621 7.40492 10.672 7.39761C10.6818 7.3903 10.6919 7.38323 10.7021 7.37641C10.7123 7.36959 10.7227 7.36303 10.7332 7.35672C10.7437 7.35041 10.7544 7.34436 10.7652 7.33858C10.776 7.33278 10.787 7.32727 10.7981 7.32202C10.8092 7.31678 10.8204 7.31181 10.8317 7.30711C10.8431 7.30241 10.8545 7.298 10.8661 7.29386C10.8776 7.28972 10.8893 7.28587 10.901 7.28231C10.9128 7.27875 10.9246 7.27548 10.9365 7.2725C10.9484 7.26952 10.9604 7.26681 10.9724 7.26442C10.9845 7.26203 10.9966 7.25994 11.0087 7.25814C11.0209 7.25634 11.033 7.25483 11.0452 7.25362C11.0575 7.25242 11.0697 7.25153 11.082 7.25092C11.0942 7.25031 11.1065 7.25002 11.1188 7.25002C11.131 7.25002 11.1433 7.25031 11.1556 7.25092C11.1678 7.25153 11.1801 7.25242 11.1923 7.25362C11.2045 7.25483 11.2167 7.25634 11.2288 7.25814C11.241 7.25994 11.253 7.26203 11.2651 7.26442C11.2771 7.26681 11.2891 7.26952 11.301 7.2725C11.3129 7.27548 11.3247 7.27875 11.3365 7.28231C11.3482 7.28587 11.3599 7.28972 11.3714 7.29386C11.383 7.298 11.3944 7.30241 11.4058 7.30711C11.4171 7.31181 11.4283 7.31678 11.4394 7.32202C11.4505 7.32727 11.4615 7.33278 11.4723 7.33858C11.4831 7.34436 11.4938 7.35041 11.5043 7.35672C11.5149 7.36303 11.5252 7.36959 11.5354 7.37641C11.5456 7.38323 11.5557 7.3903 11.5655 7.39761C11.5754 7.40492 11.5851 7.41247 11.5946 7.42027C11.604 7.42805 11.6133 7.43606 11.6224 7.4443C11.6315 7.45255 11.6404 7.46102 11.6491 7.46969C11.6578 7.47836 11.6662 7.48725 11.6745 7.49634C11.6827 7.50544 11.6907 7.51473 11.6985 7.52422C11.7063 7.5337 11.7139 7.54337 11.7212 7.55323C11.7285 7.56309 11.7355 7.57314 11.7424 7.58334C11.7492 7.59355 11.7557 7.60391 11.7621 7.61444C11.7684 7.62497 11.7744 7.63564 11.7802 7.64647C11.786 7.6573 11.7915 7.66825 11.7967 7.67934C11.802 7.69044 11.807 7.70166 11.8117 7.713C11.8164 7.72434 11.8208 7.7358 11.8249 7.74734C11.8291 7.75891 11.8329 7.77056 11.8365 7.7823C11.84 7.79405 11.8433 7.80587 11.8463 7.81778C11.8493 7.82969 11.852 7.84166 11.8543 7.8537C11.8567 7.86573 11.8588 7.87783 11.8606 7.88997C11.8624 7.90211 11.864 7.91428 11.8652 7.9265C11.8664 7.93872 11.8672 7.95095 11.8679 7.96322C11.8685 7.97548 11.8688 7.98775 11.8688 8.00002C11.8688 8.01228 11.8685 8.02455 11.8679 8.03681C11.8672 8.04908 11.8664 8.06131 11.8652 8.07353C11.864 8.08573 11.8624 8.09792 11.8606 8.11006C11.8588 8.1222 11.8567 8.1343 11.8543 8.14633C11.852 8.15837 11.8493 8.17034 11.8463 8.18225C11.8433 8.19416 11.84 8.20598 11.8365 8.21773C11.8329 8.22947 11.8291 8.24113 11.8249 8.25269C11.8208 8.26423 11.8164 8.27569 11.8117 8.28703C11.807 8.29836 11.802 8.30958 11.7967 8.32069C11.7915 8.33178 11.786 8.34273 11.7802 8.35356C11.7744 8.36439 11.7684 8.37506 11.7621 8.38559C11.7557 8.39612 11.7492 8.40648 11.7424 8.41669C11.7355 8.42689 11.7285 8.43694 11.7212 8.4468C11.7139 8.45666 11.7063 8.46633 11.6985 8.47581C11.6907 8.4853 11.6827 8.49459 11.6745 8.50369C11.6662 8.51278 11.6578 8.52167 11.6491 8.53034C11.6404 8.53901 11.6315 8.54748 11.6224 8.55573C11.6133 8.56397 11.604 8.57198 11.5946 8.57977C11.5851 8.58756 11.5754 8.59511 11.5655 8.60242C11.5557 8.60973 11.5456 8.6168 11.5354 8.62361C11.5252 8.63044 11.5149 8.637 11.5043 8.64331C11.4938 8.64962 11.4831 8.65567 11.4723 8.66145C11.4615 8.66725 11.4505 8.67277 11.4394 8.678C11.4283 8.68325 11.4171 8.68822 11.4058 8.69292C11.3944 8.69762 11.383 8.70203 11.3714 8.70617C11.3599 8.71031 11.3482 8.71416 11.3365 8.71772C11.3247 8.72128 11.3129 8.72455 11.301 8.72753C11.2891 8.73052 11.2771 8.73322 11.2651 8.73561C11.253 8.738 11.241 8.74009 11.2288 8.74189C11.2167 8.74369 11.2045 8.7452 11.1923 8.74641C11.1801 8.74761 11.1678 8.7485 11.1556 8.74911C11.1433 8.74972 11.131 8.75002 11.1188 8.75002Z"   fill="#FFFFFF" >
</path>
</svg>
