<svg xmlns="http://www.w3.org/2000/svg" xmlns:xlink="http://www.w3.org/1999/xlink" width="16" height="16" viewBox="0 0 16 16" fill="none">
<path d="M8.02602 1.00208C7.75877 1.00208 7.49627 1.0182 7.23804 1.04859C6.60514 1.1202 5.9985 1.27831 5.42822 1.50792C5.42822 1.50792 10.1305 6.16136 10.2557 6.33434L10.2557 1.37192C10.1156 1.32422 9.97243 1.28126 9.82808 1.24126C9.25369 1.08675 8.64938 1.00208 8.02602 1.00208Z"   fill="#FFFFFF" >
</path>
<path d="M12.9377 3.02369C12.7492 2.83519 12.5517 2.66095 12.3477 2.49937C11.849 2.10325 11.3086 1.78477 10.7437 1.54492C10.7437 1.54492 10.7783 8.15844 10.7437 8.36963L14.2536 4.86036C14.1879 4.72789 14.117 4.59603 14.0424 4.46663C13.7447 3.95123 13.3785 3.46388 12.9377 3.02369Z"   fill="#FFFFFF" >
</path>
<path d="M14.4784 5.41095C14.4784 5.41095 9.8263 10.1127 9.6521 10.2379L14.6151 10.2379C14.6628 10.0977 14.7058 9.95456 14.7451 9.81021C14.9002 9.23456 14.985 8.63211 14.985 8.00815C14.985 7.74148 14.9682 7.47842 14.9378 7.22015C14.8662 6.58725 14.7088 5.98062 14.4784 5.41095Z"   fill="#FFFFFF" >
</path>
<path d="M7.5769 10.7604L11.0868 14.2697C11.2204 14.2035 11.3511 14.1337 11.4811 14.0586C11.9965 13.7621 12.4833 13.3953 12.9247 12.9539C13.1125 12.7659 13.2862 12.5679 13.4484 12.3639C13.8439 11.8652 14.1631 11.3254 14.4028 10.7598C14.4029 10.7598 7.78873 10.7945 7.5769 10.7604Z"   fill="#FFFFFF" >
</path>
<path d="M5.77588 9.65808L5.77588 14.621C5.91671 14.6688 6.05978 14.7123 6.20357 14.7511C6.77863 14.9062 7.38174 14.9909 8.00571 14.9909C8.27169 14.9909 8.53475 14.9742 8.79247 14.9444C9.42538 14.8722 10.032 14.7148 10.6023 14.4844C10.6029 14.4845 5.90113 9.83228 5.77588 9.65808Z"   fill="#FFFFFF" >
</path>
<path d="M5.28212 7.5882L1.77344 11.0974C1.83911 11.2317 1.91011 11.3629 1.98466 11.4918C2.28116 12.0084 2.64795 12.4951 3.08939 12.9359C3.2773 13.1245 3.47536 13.298 3.67933 13.4597C4.17858 13.8564 4.71728 14.1743 5.28398 14.4141C5.28397 14.4141 5.24817 7.79998 5.28212 7.5882Z"   fill="#FFFFFF" >
</path>
<path d="M1.28531 6.18581C1.13081 6.76087 1.04614 7.36396 1.04614 7.98793C1.04614 8.25393 1.06285 8.51757 1.09325 8.77532C1.16486 9.40879 1.32172 10.0155 1.55317 10.5845C1.55317 10.5845 6.20483 5.88279 6.379 5.75812L1.41539 5.75812C1.36767 5.89766 1.32472 6.04143 1.28531 6.18581Z"   fill="#FFFFFF" >
</path>
<path d="M4.51666 1.96125C4.00008 2.25833 3.51331 2.62522 3.07305 3.06539C2.88337 3.25451 2.71039 3.45256 2.54873 3.65533C2.15261 4.15409 1.83411 4.69448 1.59375 5.26058C1.59375 5.26058 8.20901 5.22537 8.42023 5.25939L4.91091 1.75012C4.77734 1.81689 4.64548 1.88672 4.51666 1.96125Z"   fill="#FFFFFF" >
</path>
</svg>
