<svg xmlns="http://www.w3.org/2000/svg" xmlns:xlink="http://www.w3.org/1999/xlink" width="16" height="16" viewBox="0 0 16 16" fill="none">
<g opacity="0">
<rect x="0" y="0" width="16" height="16"   fill="#FFFFFF" >
</rect>
</g>
<path d="M5.38113 1.3377C4.38113 1.2777 3.40113 1.6477 2.69113 2.3577C1.98113 3.0677 1.61113 4.0477 1.67113 5.0477L1.67113 10.9577C1.61113 11.9577 1.98113 12.9277 2.69113 13.6377C3.40113 14.3477 4.38113 14.7277 5.38113 14.6677L10.6211 14.6677C11.6211 14.7277 12.6011 14.3477 13.3111 13.6377C14.0211 12.9277 14.3911 11.9577 14.3311 10.9577L14.3311 7.4577C14.3311 7.0877 14.0311 6.7977 13.6711 6.7977L11.7411 6.7977C10.1611 6.7877 8.88113 5.5077 8.87113 3.9277L8.87113 1.9977C8.87113 1.6277 8.57113 1.3377 8.21113 1.3377L5.38113 1.3377ZM11.6166 5.8726L13.8866 5.8726C14.0566 5.8826 14.2166 5.7826 14.2866 5.6326C14.3566 5.4726 14.3266 5.2826 14.1966 5.1626C13.2366 4.2026 11.5366 2.4526 10.5366 1.4626C10.4166 1.3426 10.2266 1.3026 10.0566 1.3626C9.89663 1.4226 9.78663 1.5826 9.78663 1.7626L9.78663 4.1026C9.80663 5.0926 10.6266 5.8826 11.6166 5.8726ZM5.00003 8.1667C4.72403 8.1667 4.50003 8.3907 4.50003 8.6667C4.50003 8.9427 4.72403 9.1667 5.00003 9.1667L9.00003 9.1667C9.27603 9.1667 9.50003 8.9427 9.50003 8.6667C9.50003 8.3907 9.27603 8.1667 9.00003 8.1667L5.00003 8.1667ZM5.00003 10.8333C4.72003 10.8333 4.50003 11.0533 4.50003 11.3333C4.50003 11.6133 4.72003 11.8333 5.00003 11.8333L7.67003 11.8333C7.94003 11.8333 8.17003 11.6133 8.17003 11.3333C8.17003 11.0533 7.94003 10.8333 7.67003 10.8333L5.00003 10.8333Z" fill-rule="evenodd"  fill="#FFFFFF" >
</path>
</svg>
