<svg xmlns="http://www.w3.org/2000/svg" xmlns:xlink="http://www.w3.org/1999/xlink" width="16" height="16" viewBox="0 0 16 16" fill="none">
<path d="M7.99983 1.66666C8.9375 1.66666 9.8275 1.87032 10.6282 2.23599L9.62316 3.19032C9.61561 3.19787 9.60818 3.20554 9.60088 3.21333C9.59358 3.22112 9.58641 3.22904 9.57936 3.23705C9.57232 3.24507 9.56539 3.25321 9.55861 3.26146C9.55183 3.26971 9.54518 3.27807 9.53866 3.28652C9.53214 3.29497 9.52579 3.30355 9.51955 3.31222C9.51332 3.32089 9.50722 3.32966 9.50127 3.33852C9.49532 3.34738 9.48952 3.35635 9.48385 3.36541C9.47819 3.37446 9.47268 3.3836 9.46732 3.39283C9.46196 3.40207 9.45674 3.41139 9.45168 3.42078C9.44661 3.43019 9.44171 3.43968 9.43696 3.44924C9.43221 3.4588 9.42761 3.46844 9.42316 3.47814C9.41872 3.48785 9.41444 3.49763 9.41032 3.50749C9.40619 3.51735 9.40222 3.52725 9.39843 3.53722C9.39463 3.54721 9.39099 3.55724 9.3875 3.56735C9.38402 3.57744 9.38071 3.58758 9.37757 3.59778C9.37443 3.60799 9.37144 3.61825 9.36863 3.62855C9.3658 3.63885 9.36316 3.64919 9.36068 3.65958C9.35819 3.66997 9.35588 3.68039 9.35374 3.69085C9.3516 3.7013 9.34963 3.7118 9.34783 3.72233C9.34604 3.73285 9.34439 3.74341 9.34293 3.75399C9.34147 3.76457 9.34018 3.77516 9.33907 3.78578C9.33796 3.79639 9.337 3.80703 9.33624 3.81769C9.33547 3.82833 9.33486 3.83899 9.33444 3.84966C9.33402 3.86033 9.33375 3.87102 9.33368 3.88169C9.3336 3.89236 9.33369 3.90305 9.33396 3.91372C9.33422 3.92439 9.33468 3.93505 9.33529 3.94572C9.33589 3.95638 9.33668 3.96702 9.33763 3.97766C9.33858 3.9883 9.33972 3.99891 9.34102 4.00952C9.34232 4.02011 9.3438 4.03069 9.34544 4.04124C9.34708 4.05178 9.34891 4.06232 9.35089 4.0728C9.35288 4.0833 9.35502 4.09375 9.35735 4.10418C9.35968 4.1146 9.36216 4.12499 9.36483 4.13532L9.38316 4.19799L9.5345 4.66899C9.50455 4.65518 9.47441 4.64177 9.44408 4.62877C9.41377 4.61579 9.38329 4.60319 9.35261 4.59102C9.32196 4.57885 9.29114 4.5671 9.26016 4.55577C9.22918 4.54444 9.19805 4.53352 9.16677 4.52302C9.1355 4.51254 9.10408 4.50246 9.07253 4.49282C9.04099 4.48318 9.00932 4.47397 8.97752 4.46519C8.94572 4.45641 8.91382 4.44805 8.8818 4.44013C8.84977 4.43221 8.81764 4.42472 8.78543 4.41768C8.75319 4.41063 8.72088 4.40402 8.68847 4.39785C8.65607 4.39168 8.62358 4.38594 8.59104 4.38064C8.55847 4.37535 8.52585 4.3705 8.49314 4.3661C8.46046 4.36169 8.42771 4.35772 8.39491 4.35421C8.36211 4.35068 8.32928 4.3476 8.29639 4.34497C8.2635 4.34233 8.2306 4.34014 8.19766 4.33841C8.16471 4.33668 8.13175 4.33538 8.09879 4.33452C8.0658 4.33368 8.03282 4.33327 7.99983 4.33332C5.97483 4.33332 4.33316 5.97499 4.33316 7.99999C4.33316 10.025 5.97483 11.6667 7.99983 11.6667C10.0248 11.6667 11.6665 10.025 11.6665 7.99999C11.6665 7.54999 11.5855 7.11866 11.4368 6.71999L12.2888 6.96166C12.6252 7.07399 12.9422 6.84332 13.1995 6.59366L13.2418 6.55166L13.9485 5.82066C13.9803 5.90771 14.0103 5.99543 14.0382 6.08382C14.0662 6.17219 14.0923 6.26114 14.1163 6.35066C14.1404 6.44018 14.1625 6.53019 14.1826 6.62068C14.2027 6.71118 14.2208 6.80207 14.2369 6.89336C14.2531 6.98464 14.2672 7.07624 14.2792 7.16816C14.2913 7.26007 14.3014 7.35219 14.3094 7.44455C14.3174 7.53691 14.3234 7.62939 14.3274 7.722C14.3313 7.81463 14.3333 7.90728 14.3332 7.99999C14.3332 11.4977 11.4975 14.3333 7.99983 14.3333C4.50216 14.3333 1.6665 11.4977 1.6665 7.99999C1.6665 4.50232 4.50216 1.66666 7.99983 1.66666ZM7.99983 5.33332C8.4265 5.33332 8.8295 5.43332 9.18716 5.61166L7.55283 7.32699C7.2635 7.61632 7.35416 8.27466 7.72016 8.62199C8.0715 8.95532 8.8095 8.92332 9.12383 8.66399L9.16083 8.63066L10.5635 7.26332C10.5763 7.30775 10.5879 7.35249 10.5983 7.39752C10.6088 7.44257 10.618 7.48785 10.6261 7.53336C10.6342 7.57888 10.6411 7.62458 10.6468 7.67046C10.6525 7.71633 10.6571 7.76233 10.6604 7.80844C10.6637 7.85455 10.6658 7.90072 10.6667 7.94694C10.6677 7.99318 10.6674 8.03939 10.6659 8.0856C10.6644 8.1318 10.6617 8.17794 10.6578 8.22402C10.654 8.27008 10.6489 8.31602 10.6426 8.36183C10.6363 8.40763 10.6289 8.45324 10.6202 8.49866C10.6116 8.54408 10.6018 8.58924 10.5908 8.63414C10.5798 8.67905 10.5676 8.72364 10.5543 8.76791C10.541 8.81219 10.5265 8.8561 10.5109 8.89961C10.4953 8.94313 10.4786 8.98622 10.4608 9.02886C10.443 9.07152 10.424 9.11368 10.404 9.15535C10.384 9.19702 10.3629 9.23813 10.3407 9.27871C10.3185 9.31928 10.2953 9.35925 10.2711 9.39861C10.2468 9.43797 10.2216 9.47668 10.1953 9.51472C10.169 9.55277 10.1418 9.59011 10.1136 9.62675C10.0854 9.66339 10.0563 9.69927 10.0262 9.73438C9.99611 9.76949 9.96516 9.8038 9.9333 9.83732C9.90144 9.87083 9.86874 9.90349 9.83519 9.93528C9.80164 9.9671 9.76729 9.99802 9.73211 10.028C9.69696 10.0581 9.66104 10.0871 9.62436 10.1153C9.58769 10.1434 9.55032 10.1706 9.51222 10.1968C9.47414 10.223 9.43539 10.2482 9.396 10.2724C9.35661 10.2966 9.31661 10.3198 9.276 10.3419C9.23539 10.364 9.19425 10.385 9.15255 10.405C9.11085 10.425 9.06866 10.4439 9.02599 10.4616C8.98332 10.4794 8.94021 10.4961 8.89666 10.5116C8.85311 10.5271 8.80921 10.5415 8.76491 10.5548C8.72061 10.568 8.676 10.5801 8.63108 10.5911C8.58616 10.602 8.54099 10.6117 8.49555 10.6203C8.45013 10.6289 8.4045 10.6363 8.35869 10.6425C8.31288 10.6487 8.26694 10.6537 8.22086 10.6575C8.17479 10.6614 8.12864 10.664 8.08243 10.6654C8.03622 10.6668 7.99 10.667 7.94379 10.666C7.89755 10.6651 7.85139 10.6629 7.80528 10.6595C7.75918 10.6561 7.71319 10.6515 7.66732 10.6457C7.62146 10.64 7.57577 10.633 7.53025 10.6248C7.48474 10.6167 7.43947 10.6074 7.39446 10.5968C7.34944 10.5863 7.30472 10.5747 7.2603 10.5618C7.21588 10.549 7.17183 10.535 7.12814 10.5199C7.08446 10.5048 7.04119 10.4885 6.99835 10.4711C6.9555 10.4538 6.91314 10.4353 6.87125 10.4157C6.82938 10.3961 6.78803 10.3755 6.74722 10.3537C6.70643 10.332 6.66621 10.3092 6.62658 10.2854C6.58696 10.2616 6.54797 10.2368 6.50964 10.2109C6.47132 10.1851 6.43369 10.1582 6.39675 10.1304C6.35982 10.1026 6.32363 10.0739 6.28819 10.0442C6.25274 10.0145 6.2181 9.98389 6.18425 9.95241C6.15039 9.92093 6.11739 9.88857 6.08522 9.85536C6.05305 9.82216 6.02177 9.78813 5.99138 9.7533C5.96099 9.71847 5.9315 9.68286 5.90296 9.6465C5.87441 9.61014 5.84683 9.57305 5.82022 9.53525C5.7936 9.49746 5.76797 9.45899 5.74336 9.41985C5.71875 9.38071 5.69516 9.34096 5.67261 9.3006C5.65007 9.26024 5.62858 9.21933 5.60816 9.17785C5.58774 9.13636 5.56841 9.09438 5.55018 9.05189C5.53194 9.00941 5.51482 8.96649 5.49882 8.92311C5.4828 8.87974 5.46794 8.83597 5.45421 8.79183C5.44049 8.74769 5.42793 8.70321 5.4165 8.65841C5.40508 8.61361 5.39485 8.56853 5.38577 8.52321C5.37669 8.47788 5.36882 8.43233 5.36211 8.3866C5.35541 8.34085 5.34989 8.29496 5.34558 8.24893C5.34127 8.20289 5.33816 8.15679 5.33624 8.1106C5.33432 8.06439 5.3336 8.01819 5.33408 7.97196C5.33457 7.92572 5.33625 7.87955 5.33914 7.83341C5.34204 7.78727 5.34611 7.74122 5.35139 7.6953C5.35668 7.64936 5.36314 7.6036 5.37082 7.558C5.37849 7.51241 5.38733 7.46705 5.39735 7.42193C5.40736 7.37678 5.41855 7.33194 5.43091 7.28739C5.44327 7.24285 5.45677 7.19864 5.47143 7.1548C5.48607 7.11094 5.50185 7.0675 5.51877 7.02447C5.53569 6.98146 5.55371 6.93889 5.57283 6.8968C5.59196 6.85471 5.61216 6.81314 5.63346 6.7721C5.65474 6.73107 5.67708 6.69061 5.70047 6.65072C5.72386 6.61085 5.74829 6.57161 5.77371 6.533C5.79914 6.49439 5.82557 6.45647 5.85297 6.41924C5.88038 6.382 5.90874 6.3455 5.93804 6.30974C5.96733 6.27399 5.99755 6.23902 6.02868 6.20483C6.0598 6.17064 6.09178 6.13728 6.12464 6.10475C6.1575 6.07224 6.19118 6.04058 6.22569 6.00982C6.26019 5.97905 6.29547 5.94919 6.33154 5.92025C6.36758 5.89132 6.40436 5.86333 6.44188 5.83632C6.47939 5.80929 6.51758 5.78325 6.55646 5.75822C6.59532 5.73318 6.63482 5.70918 6.67493 5.68619C6.71503 5.66321 6.75572 5.64127 6.79697 5.62041C6.83824 5.59955 6.88 5.57977 6.92229 5.56107C6.96457 5.54236 7.0073 5.52479 7.0505 5.50832C7.09371 5.49185 7.13732 5.4765 7.1813 5.4623C7.2253 5.4481 7.26964 5.43503 7.31432 5.42314C7.35899 5.41125 7.40394 5.40052 7.44918 5.39096C7.49441 5.38139 7.53985 5.37302 7.58552 5.36582C7.63119 5.35863 7.67702 5.35263 7.723 5.34782C7.76899 5.343 7.81505 5.33939 7.86122 5.33697C7.90739 5.33455 7.9536 5.33333 7.99983 5.33332ZM12.5085 1.76166C12.5174 1.77055 12.5257 1.77992 12.5335 1.78977C12.5413 1.79962 12.5485 1.80989 12.5551 1.82058C12.5617 1.83128 12.5676 1.84232 12.5729 1.85369C12.5782 1.86508 12.5829 1.87673 12.5868 1.88866L13.0502 3.28366L14.4442 3.74632C14.4507 3.74849 14.4571 3.75086 14.4635 3.75344C14.4699 3.75602 14.4761 3.7588 14.4823 3.76179C14.4885 3.76477 14.4946 3.76794 14.5006 3.7713C14.5066 3.77466 14.5125 3.77822 14.5182 3.78196C14.524 3.78569 14.5296 3.78961 14.5352 3.79371C14.5407 3.79782 14.5461 3.80208 14.5513 3.80652C14.5566 3.81096 14.5616 3.81555 14.5666 3.82032C14.5716 3.82508 14.5763 3.83 14.581 3.83507C14.5856 3.84014 14.5901 3.84535 14.5944 3.85071C14.5987 3.85605 14.6029 3.86154 14.6068 3.86716C14.6108 3.87277 14.6146 3.8785 14.6181 3.88436C14.6217 3.89022 14.6251 3.89618 14.6284 3.90225C14.6316 3.90833 14.6346 3.91449 14.6374 3.92075C14.6403 3.92702 14.6429 3.93336 14.6453 3.9398C14.6477 3.94622 14.6499 3.95272 14.6519 3.9593C14.6539 3.96588 14.6557 3.9725 14.6573 3.97919C14.6589 3.98586 14.6603 3.9926 14.6614 3.99938C14.6626 4.00614 14.6635 4.01296 14.6643 4.01978C14.665 4.02661 14.6655 4.03347 14.6658 4.04033C14.6661 4.04719 14.6661 4.05407 14.666 4.06093C14.6659 4.0678 14.6655 4.07466 14.6649 4.0815C14.6643 4.08835 14.6635 4.09518 14.6625 4.10197C14.6615 4.10877 14.6603 4.11552 14.6588 4.12224C14.6574 4.12896 14.6557 4.13563 14.6539 4.14224C14.652 4.14885 14.6499 4.15539 14.6476 4.16188C14.6453 4.16836 14.6429 4.17475 14.6402 4.18108C14.6375 4.18741 14.6346 4.19363 14.6315 4.19977C14.6284 4.20591 14.6251 4.21194 14.6217 4.21788C14.6182 4.2238 14.6146 4.22961 14.6107 4.23532C14.6069 4.24102 14.6029 4.24658 14.5987 4.25202C14.5945 4.25747 14.5901 4.26277 14.5856 4.26794C14.581 4.27311 14.5763 4.27813 14.5715 4.28299L12.6965 6.15832C12.6912 6.16361 12.6858 6.16882 12.6804 6.17393C12.6749 6.17904 12.6693 6.18403 12.6637 6.18896C12.6581 6.19388 12.6523 6.19869 12.6465 6.20341C12.6407 6.20813 12.6348 6.21274 12.6288 6.21725C12.6229 6.22177 12.6168 6.22618 12.6107 6.23047C12.6046 6.23477 12.5984 6.23897 12.5921 6.24307C12.5858 6.24716 12.5795 6.25114 12.5731 6.255C12.5667 6.25888 12.5602 6.26263 12.5537 6.26627C12.5471 6.26991 12.5405 6.27344 12.5339 6.27686C12.5272 6.28028 12.5205 6.28358 12.5137 6.28677C12.507 6.28996 12.5001 6.29302 12.4933 6.29597C12.4864 6.29893 12.4795 6.30175 12.4725 6.30446C12.4655 6.30716 12.4585 6.30975 12.4514 6.31221C12.4443 6.31468 12.4372 6.31702 12.4301 6.31924C12.4229 6.32146 12.4158 6.32355 12.4085 6.32552C12.4013 6.32749 12.3941 6.32933 12.3868 6.33105C12.3795 6.33277 12.3722 6.33436 12.3648 6.33583C12.3575 6.3373 12.3501 6.33864 12.3428 6.33985C12.3354 6.34105 12.328 6.34214 12.3205 6.3431C12.3131 6.34405 12.3057 6.34486 12.2982 6.34557C12.2908 6.34627 12.2833 6.34683 12.2758 6.34727C12.2684 6.34771 12.2609 6.34802 12.2534 6.34819C12.2459 6.34836 12.2384 6.34843 12.231 6.34835C12.2235 6.34827 12.216 6.34805 12.2085 6.34772C12.201 6.34738 12.1936 6.34691 12.1861 6.34632C12.1786 6.34571 12.1712 6.34499 12.1638 6.34413C12.1563 6.34327 12.1489 6.34229 12.1415 6.34118C12.1341 6.34007 12.1267 6.33882 12.1194 6.33746C12.112 6.3361 12.1047 6.3346 12.0974 6.33297C12.0901 6.33135 12.0828 6.3296 12.0756 6.32772C12.0683 6.32585 12.0611 6.32385 12.0539 6.32172C12.0467 6.31961 12.0396 6.31736 12.0325 6.31499L11.0385 5.98232L8.82983 8.19099C8.82424 8.19678 8.8185 8.20243 8.81264 8.20794C8.80677 8.21346 8.80077 8.21882 8.79463 8.22404C8.78849 8.22924 8.78224 8.2343 8.77585 8.23919C8.76946 8.2441 8.76296 8.24883 8.75633 8.25341C8.74971 8.25799 8.74297 8.26241 8.73615 8.26664C8.7293 8.27089 8.72236 8.27497 8.71532 8.27886C8.70827 8.28275 8.70115 8.28649 8.69391 8.29004C8.68668 8.29358 8.67936 8.29694 8.67197 8.30011C8.66458 8.3033 8.65711 8.3063 8.64957 8.30911C8.64202 8.31191 8.63439 8.31454 8.62672 8.31697C8.61905 8.31941 8.61133 8.32164 8.60353 8.32369C8.59575 8.32574 8.58793 8.3276 8.58005 8.32925C8.57216 8.33092 8.56425 8.33238 8.5563 8.33364C8.54835 8.33491 8.54038 8.33599 8.53236 8.33686C8.52436 8.33772 8.51635 8.33839 8.5083 8.33886C8.50027 8.33935 8.49222 8.33961 8.48418 8.33969C8.47613 8.33977 8.46808 8.33963 8.46004 8.3393C8.45199 8.33897 8.44396 8.33846 8.43594 8.33772C8.42793 8.337 8.41993 8.33608 8.41196 8.33496C8.40399 8.33383 8.39605 8.3325 8.38814 8.33099C8.38022 8.32947 8.37236 8.32777 8.36455 8.32586C8.35672 8.32394 8.34896 8.32185 8.34124 8.31955C8.33352 8.31725 8.32586 8.31477 8.31827 8.3121C8.31068 8.30943 8.30316 8.30657 8.29571 8.30352C8.28825 8.30047 8.28088 8.29725 8.27358 8.29383C8.26628 8.29041 8.25908 8.28682 8.25197 8.28305C8.24486 8.27929 8.23786 8.27533 8.23094 8.27122C8.22402 8.2671 8.21721 8.2628 8.2105 8.25835C8.2038 8.25389 8.19721 8.24927 8.19074 8.24449C8.18425 8.23971 8.17791 8.23477 8.17168 8.22966C8.16544 8.22455 8.15935 8.2193 8.15338 8.21391C8.14741 8.2085 8.14158 8.20296 8.13589 8.19727C8.13019 8.19157 8.12464 8.18574 8.11924 8.17977C8.11385 8.1738 8.1086 8.16771 8.10349 8.16147C8.09838 8.15524 8.09344 8.14889 8.08866 8.14241C8.08388 8.13594 8.07925 8.12935 8.0748 8.12264C8.07035 8.11594 8.06605 8.10914 8.06193 8.10222C8.05782 8.0953 8.05386 8.08829 8.0501 8.08117C8.04633 8.07407 8.04274 8.06686 8.03932 8.05957C8.03591 8.05227 8.03268 8.04491 8.02963 8.03746C8.02658 8.03 8.02372 8.02247 8.02105 8.01488C8.01838 8.00728 8.01589 7.99963 8.0136 7.99191C8.0113 7.98419 8.00921 7.97643 8.0073 7.96861C8.00539 7.96078 8.00368 7.95293 8.00216 7.94502C8.00064 7.93711 7.99932 7.92918 7.99819 7.92119C7.99708 7.91322 7.99616 7.90522 7.99543 7.89721C7.99469 7.88919 7.99418 7.88116 7.99385 7.87311C7.99352 7.86507 7.99339 7.85702 7.99347 7.84897C7.99355 7.84093 7.99382 7.83288 7.99429 7.82485C7.99475 7.8168 7.99543 7.80878 7.9963 7.80079C7.99716 7.79277 7.99824 7.7848 7.9995 7.77685C8.00077 7.76889 8.00224 7.76099 8.00389 7.75311C8.00555 7.74522 8.00741 7.73739 8.00946 7.72961C8.0115 7.72183 8.01375 7.7141 8.01618 7.70643C8.01861 7.69875 8.02124 7.69114 8.02405 7.6836C8.02685 7.67605 8.02985 7.66858 8.03304 7.66119C8.03621 7.6538 8.03958 7.64649 8.04313 7.63925C8.04668 7.63202 8.05039 7.62489 8.05429 7.61785C8.05818 7.6108 8.06225 7.60385 8.0665 7.59702C8.07074 7.59018 8.07516 7.58344 8.07974 7.57682C8.08432 7.57019 8.08905 7.56369 8.09396 7.5573C8.09885 7.55091 8.10391 7.54466 8.10913 7.53852C8.11433 7.53238 8.11969 7.52638 8.12521 7.5205C8.13072 7.51464 8.13636 7.50891 8.14216 7.50332L10.3462 5.29932L10.0162 4.29932C10.0138 4.29224 10.0116 4.28511 10.0096 4.27796C10.0075 4.2708 10.0055 4.26361 10.0037 4.25638C10.0018 4.24916 10.0001 4.24191 9.99852 4.23461C9.99694 4.22733 9.99547 4.22002 9.99414 4.21269C9.99282 4.20536 9.9916 4.198 9.99052 4.19063C9.98944 4.18324 9.98849 4.17585 9.98766 4.16844C9.98683 4.16104 9.98614 4.15361 9.98558 4.14618C9.985 4.13875 9.98457 4.1313 9.98425 4.12385C9.98394 4.11639 9.98375 4.10896 9.98371 4.1015C9.98364 4.09405 9.98372 4.08658 9.98393 4.07913C9.98413 4.07168 9.98446 4.06424 9.98491 4.0568C9.98536 4.04935 9.98596 4.04193 9.98668 4.0345C9.98739 4.02708 9.98824 4.01968 9.98921 4.01229C9.99018 4.00489 9.99127 3.99752 9.99249 3.99016C9.99372 3.9828 9.99507 3.97547 9.99655 3.96818C9.99804 3.96086 9.99963 3.95358 10.0014 3.94633C10.0031 3.93908 10.0049 3.93186 10.0069 3.92468C10.0089 3.91749 10.011 3.91033 10.0132 3.90321C10.0155 3.8961 10.0178 3.88902 10.0203 3.88199C10.0227 3.87496 10.0253 3.86797 10.028 3.86102C10.0307 3.85407 10.0336 3.84718 10.0365 3.84033C10.0395 3.83347 10.0425 3.82668 10.0457 3.81994C10.0489 3.81321 10.0522 3.80652 10.0556 3.79989C10.059 3.79325 10.0626 3.78669 10.0662 3.78019C10.0698 3.77368 10.0736 3.76724 10.0774 3.76086C10.0813 3.75447 10.0853 3.74816 10.0893 3.74193C10.0934 3.73569 10.0976 3.72952 10.1019 3.72343C10.1062 3.71733 10.1106 3.71132 10.1151 3.70536C10.1196 3.69943 10.1242 3.69357 10.1289 3.68777C10.1336 3.68199 10.1384 3.67629 10.1433 3.67066C10.1482 3.66505 10.1532 3.65952 10.1583 3.65407C10.1634 3.64861 10.1686 3.64325 10.1738 3.63799L12.0502 1.76132C12.0539 1.75758 12.0578 1.75393 12.0617 1.75036C12.0656 1.7468 12.0696 1.74334 12.0737 1.73999C12.0778 1.73662 12.082 1.73336 12.0863 1.73021C12.0906 1.72705 12.0949 1.724 12.0993 1.72105C12.1037 1.71811 12.1082 1.71528 12.1127 1.71255C12.1173 1.70983 12.1219 1.70722 12.1266 1.70472C12.1313 1.70222 12.136 1.69984 12.1408 1.69758C12.1456 1.69531 12.1504 1.69317 12.1553 1.69114C12.1602 1.68911 12.1652 1.68721 12.1702 1.68543C12.1752 1.68363 12.1802 1.68197 12.1853 1.68044C12.1903 1.6789 12.1955 1.67749 12.2006 1.67621C12.2057 1.67492 12.2109 1.67375 12.2161 1.67272C12.2213 1.67169 12.2266 1.67079 12.2318 1.67C12.237 1.66922 12.2423 1.66857 12.2476 1.66805C12.2528 1.66754 12.2581 1.66716 12.2634 1.66689C12.2687 1.66663 12.274 1.6665 12.2793 1.6665C12.2846 1.6665 12.2899 1.66663 12.2952 1.66689C12.3005 1.66716 12.3058 1.66754 12.3111 1.66805C12.3164 1.66857 12.3216 1.66922 12.3269 1.67C12.3321 1.67079 12.3373 1.67169 12.3426 1.67272C12.3478 1.67375 12.3529 1.67492 12.3581 1.67621C12.3632 1.67749 12.3683 1.6789 12.3734 1.68044C12.3785 1.68197 12.3835 1.68363 12.3885 1.68543C12.3935 1.68721 12.3984 1.68911 12.4033 1.69114C12.4082 1.69317 12.4131 1.69531 12.4179 1.69758C12.4227 1.69984 12.4274 1.70222 12.4321 1.70472C12.4368 1.70722 12.4414 1.70983 12.4459 1.71255C12.4505 1.71528 12.455 1.71811 12.4594 1.72105C12.4638 1.724 12.4681 1.72705 12.4724 1.73021C12.4766 1.73336 12.4808 1.73662 12.4849 1.73999C12.489 1.74334 12.493 1.7468 12.497 1.75036C12.5009 1.75393 12.5047 1.75758 12.5085 1.76132L12.5085 1.76166Z"   fill="#FFFFFF" >
</path>
</svg>
