<svg xmlns="http://www.w3.org/2000/svg" xmlns:xlink="http://www.w3.org/1999/xlink" width="16" height="16" viewBox="0 0 16 16" fill="none">
<g opacity="0">
<rect x="0" y="0" width="16" height="16"   fill="#FFFFFF" >
</rect>
</g>
<path d="M7.85652 8.01167C7.85652 8.01167 7.35171 6.35373 4.41418 5.60402C2.61449 5.83203 1.26221 7.35395 1.26221 9.1608C1.26221 10.9291 2.59085 12.4548 4.35389 12.7104L4.36538 12.7114L11.6134 12.6969L12.0452 12.6944C13.6054 12.4104 14.7379 11.0613 14.7379 9.48655C14.738 8.11839 13.8706 6.89061 12.577 6.42236C12.0123 4.54661 10.3082 3.28839 8.32872 3.28839C6.92268 3.28839 5.62079 3.94495 4.79004 5.03866C6.24411 5.24048 7.67093 5.97022 7.85652 8.01167L7.85652 8.01167Z" fill-rule="evenodd"  fill="#FFFFFF" >
</path>
</svg>
