<svg xmlns="http://www.w3.org/2000/svg" xmlns:xlink="http://www.w3.org/1999/xlink" width="16" height="16" viewBox="0 0 16 16" fill="none">
<g opacity="0">
<rect x="0" y="0" width="16" height="16"   fill="#FFFFFF" >
</rect>
</g>
<path d="M7.49522 1.17999C5.09522 1.17999 4.98522 2.44999 4.98522 3.52999L4.98522 3.72999L4.82522 3.72999C3.44522 3.72999 2.50522 4.03999 1.93522 4.66999C1.43522 5.35999 1.24522 6.23999 1.41522 7.07999L1.47522 7.66999C1.48522 7.76999 1.54522 7.85999 1.62522 7.90999C1.78522 8.01999 2.05522 8.18999 2.21522 8.27999L2.50522 8.44999C3.64522 9.06999 4.88522 9.48999 6.17522 9.69999C6.23522 10.3 6.50522 11.03 7.96522 11.03C9.42522 11.03 9.71522 10.33 9.75522 9.65999C11.1252 9.43999 12.4252 8.96999 13.6152 8.26999L13.7152 8.20999C14.0152 8.03999 14.2952 7.84999 14.5752 7.64999C14.6052 7.62999 14.6252 7.58999 14.6352 7.54999L14.6352 7.36999L14.6652 7.05999L14.6652 6.93999C14.7952 6.11999 14.5752 5.27999 14.0552 4.62999C13.4952 3.99999 12.5452 3.68999 11.1752 3.68999L11.0152 3.68999C11.0152 2.56999 11.0152 1.17999 8.50522 1.17999L7.49522 1.17999ZM7.48992 2.13329C6.02992 2.13329 5.94992 2.50329 5.93992 3.46329L5.93992 3.70329L10.0599 3.70329C10.0599 2.58329 10.0599 2.15329 8.50992 2.15329L8.50992 2.13329L7.48992 2.13329ZM7.08662 8.38669L7.08662 9.22669C7.08662 9.89669 7.08662 10.0367 7.90662 10.0367C8.72662 10.0367 8.71663 9.93669 8.72662 9.36669L8.72662 8.38669L7.08662 8.38669ZM14.1523 12.1564L14.4023 9.43639C14.4123 9.32639 14.3623 9.22639 14.2723 9.16639C14.1823 9.11639 14.0723 9.11639 13.9823 9.16639C12.8723 9.72639 11.7123 10.1864 10.5223 10.5464C10.1623 11.4764 9.24232 11.9964 7.90232 11.9964C6.57232 11.9964 5.65232 11.4764 5.28232 10.5064C4.16232 10.1764 3.06232 9.76639 2.00232 9.25639C1.91232 9.20639 1.80232 9.20639 1.71232 9.25639C1.63232 9.32639 1.58232 9.42639 1.59232 9.52639L1.82232 12.1064C1.96232 13.4364 2.49232 14.7764 5.44232 14.7764L10.5323 14.8164C13.4623 14.8164 14.0123 13.4864 14.1523 12.1564Z" fill-rule="evenodd"  fill="#FFFFFF" >
</path>
</svg>
