<svg xmlns="http://www.w3.org/2000/svg" xmlns:xlink="http://www.w3.org/1999/xlink" width="80" height="80" viewBox="0 0 80 80" fill="none">
<path d="M68.8797 71.5882C69.0656 72.9343 67.8406 74.1179 66.2625 74.1179L45.9328 74.1179C44.5445 74.1179 43.3937 73.1929 43.3032 72.0031L40.6976 37.889C40.6469 37.2203 39.5023 37.2195 39.4492 37.8875L36.7421 72.0078C36.6476 73.1953 35.4992 74.1171 34.1132 74.1171L13.7773 74.1171C12.1992 74.1171 10.975 72.9335 11.1602 71.5874L18.9242 15.2664C19.0812 14.1273 20.2054 13.2695 21.5414 13.2695L58.4984 13.2695C59.8343 13.2695 60.9586 14.1273 61.1156 15.2664L68.8797 71.5882ZM60.0492 7.53979C60.0492 6.46089 59.175 5.58667 58.0961 5.58667L21.775 5.58667C20.6961 5.58667 19.8218 6.46089 19.8218 7.53979C19.8218 8.6187 20.6961 9.49292 21.775 9.49292L58.0961 9.49292C59.1743 9.49292 60.0492 8.61792 60.0492 7.53979Z"   fill="currentColor" >
</path>
</svg>
